<?xml version="1.0" encoding="UTF-8"?>
<svg id="Layer_2" data-name="Layer 2" xmlns="http://www.w3.org/2000/svg" viewBox="0 0 136.12 15.79">
  <defs>
    <style>
      .cls-1 {
        fill: #8038e9;
      }
    </style>
  </defs>
  <g id="Layer_1-2" data-name="Layer 1">
    <path class="cls-1" d="M0,5.98H5.25v2.16H0v-2.16Z"/>
    <path class="cls-1" d="M10.86,5.71c-.72,.84-1.77,1.56-3.17,2.22l-1.14-1.93c2.2-1.08,3.06-2.18,3.21-3.44h-2.64V.52h7.77V2.56h-2.77c-.03,.44-.09,.86-.21,1.24l3.51,1.92-1.17,1.98-3.39-1.99Zm4.69,2.44c2.01,0,3.5,1.16,3.5,3.04s-1.49,3.03-3.5,3.03h-3.3c-2,0-3.46-1.16-3.46-3.03s1.47-3.04,3.46-3.04h3.3Zm-.3,3.99c.95,0,1.46-.38,1.46-.96s-.51-.96-1.46-.96h-2.7c-.93,0-1.42,.36-1.42,.96s.5,.96,1.42,.96h2.7Zm-.9-9.39h2.21V0h2.34V7.65h-2.34v-2.91h-2.21v-1.98Z"/>
    <path class="cls-1" d="M26.52,4.06c-.03,.72-.13,1.42-.33,2.13l3.79,4.32-1.72,1.59-3.06-3.48c-.68,1.25-1.62,2.46-2.78,3.62l-1.68-1.59c2.19-2.25,3.31-4.32,3.42-6.58h-2.9V1.93h2.92V.01h2.36V1.93h2.92v2.13h-2.96ZM30.78,0h2.34V14.08h-2.34V0Z"/>
    <path class="cls-1" d="M35.34,15.79l.33-4.99h2.42l-.83,4.99h-1.92Z"/>
    <path class="cls-1" d="M50.74,3.64c-.83,2.13-3,3.43-6.18,4.33l-.9-2.1c3.04-.81,4.62-1.99,5-3.16h-4.5V.6h6.96V1.81h2.17V0h2.34V7.65h-2.34v-1.15h-2.49v-1.83h2.49v-1.02h-2.55Zm1.56,4.51c2,0,3.48,1.16,3.48,3.04s-1.49,3.03-3.48,3.03h-3.31c-1.98,0-3.46-1.16-3.46-3.03s1.49-3.04,3.46-3.04h3.31Zm-.31,3.99c.96,0,1.46-.38,1.46-.96s-.5-.96-1.46-.96h-2.68c-.95,0-1.44,.36-1.44,.96s.5,.96,1.44,.96h2.68Z"/>
    <path class="cls-1" d="M61.87,3.48c0,.87-.06,1.72-.2,2.55l2.79,4.8-1.88,1.28-1.78-2.98c-.44,1.08-1.02,2.12-1.75,3.12l-1.82-1.38c1.71-2.38,2.43-4.72,2.43-7.38v-.39h-1.88V.96h6.21V3.09h-2.13v.39Zm2.92,1.26V.21h2.19V13.72h-2.19V6.85h-1.75v-2.12h1.75Zm3.08-4.74h2.26V14.08h-2.26V0Z"/>
    <path class="cls-1" d="M72.07,15.79l.33-4.99h2.42l-.83,4.99h-1.92Z"/>
    <path class="cls-1" d="M85.14,2.74c0,1.11-.12,2.18-.34,3.2l3.58,4.7-1.85,1.47-2.67-3.53c-.61,1.28-1.45,2.49-2.55,3.66l-1.72-1.54c2.31-2.54,3.18-4.95,3.18-7.95V.73h2.37V2.74Zm8.31,2.14v2.12h-1.88v7.08h-2.35V0h2.35V4.89h1.88Z"/>
    <path class="cls-1" d="M100.06,10.35c1.09-.08,2.25-.17,3.31-.3l.27,2.1c-2.26,.3-4.98,.45-7.02,.45h-2.16l-.12-2.13h2.54c.25,0,.54,0,.84-.02v-1.17c-1.46-.3-2.49-1.18-2.49-2.64v-.2c0-1.81,1.62-2.76,3.67-2.76s3.65,.95,3.65,2.76v.2c0,1.47-1.05,2.35-2.49,2.65v1.05Zm3.03-9.08v1.86h-8.42V1.27h3.03V.01h2.37V1.27h3.02Zm-5.6,5.36c0,.64,.62,.97,1.41,.97,.75,0,1.37-.33,1.37-.97v-.16c0-.65-.62-.98-1.37-.98-.79,0-1.41,.33-1.41,.98v.16Zm6.75-6.63h2.34V14.08h-2.34V0Z"/>
    <path class="cls-1" d="M108.43,6.88h13.32v2.13h-5.49v1.94h-2.34v-1.94h-5.49v-2.13Zm3.88,3.13v1.95h8.19v2.12h-10.53v-4.06h2.34ZM120.15,.22V5.89h-10.11V.22h10.11Zm-2.35,3.71v-1.76h-5.4v1.76h5.4Z"/>
    <path class="cls-1" d="M128.07,10.38c1.03-.07,2.11-.16,3.12-.29l.24,2.03c-2.17,.3-4.84,.45-6.83,.45h-2.05l-.12-2.07h2.42c.27,0,.57,0,.88-.01v-1.19c-1.45-.29-2.49-1.17-2.49-2.65v-.2c0-1.81,1.58-2.76,3.6-2.76s3.57,.95,3.57,2.76v.2c0,1.42-.96,2.31-2.34,2.62v1.11Zm2.88-9.11v1.86h-8.27V1.27h2.96V.01h2.37V1.27h2.94Zm-5.45,5.36c0,.64,.57,.97,1.33,.97s1.3-.33,1.3-.97v-.16c0-.65-.57-.98-1.3-.98s-1.33,.33-1.33,.98v.16Zm10.62-1.61v2.13h-1.74v6.93h-2.36V0h2.36V5.02h1.74Z"/>
  </g>
</svg>