<?xml version="1.0" encoding="UTF-8"?>
<svg id="Layer_2" data-name="Layer 2" xmlns="http://www.w3.org/2000/svg" viewBox="0 0 56.13 14.38">
  <defs>
    <style>
      .cls-1 {
        fill: #fff;
      }
    </style>
  </defs>
  <g id="Layer_1-2" data-name="Layer 1">
    <path class="cls-1" d="M13.32,7.26v2.12H7.83v5.01h-2.34v-5.01H0v-2.12H9.03c.23-1.6,.38-3.28,.39-4.33H1.39V.79H11.77V2c0,1.6-.15,3.46-.39,5.26h1.93Z"/>
    <path class="cls-1" d="M22.05,11.19h5.49v2.13H14.22v-2.13h5.49v-2.53h2.34v2.53Zm-7.23-4.12c3.39-1.4,4.79-2.77,4.96-4.04h-4.09V.93h10.38V3.03h-3.96c-.02,.45-.11,.87-.25,1.31l5.08,2.77-1.17,2-5.16-2.87c-1.02,1.06-2.59,2.03-4.8,2.87l-.99-2.04Z"/>
    <path class="cls-1" d="M36.27,7.25h5.49v1.83h-13.32v-1.83h5.49v-.63h-3.88V.36h10.11v1.73h-7.75v.54h7.75v1.67h-7.75v.63h8.04v1.7h-4.17v.63Zm.6,2.4c2.23,0,3.57,.98,3.57,2.36s-1.33,2.37-3.57,2.37h-3.54c-2.24,0-3.57-.96-3.57-2.37s1.33-2.36,3.57-2.36h3.54Zm-.56,2.94c1.28,0,1.79-.21,1.79-.6s-.51-.6-1.79-.6h-2.43c-1.27,0-1.79,.22-1.79,.6s.51,.6,1.79,.6h2.43Z"/>
    <path class="cls-1" d="M50.96,1.02v1.8h-8.34V1.02h2.98V0h2.37V1.02h2.99Zm-.54,4.69c0,1.62-1.59,2.36-3.62,2.36s-3.63-.73-3.63-2.36v-.12c0-1.63,1.6-2.37,3.63-2.37s3.62,.74,3.62,2.37v.12Zm1.48,3.69v-.96h2.34v5.77h-9.52v-5.77h2.34v.96h4.84Zm-6.45-3.71c0,.42,.58,.63,1.35,.63s1.35-.21,1.35-.63v-.09c0-.42-.58-.63-1.35-.63s-1.35,.21-1.35,.63v.09Zm1.6,6.5h4.84v-.79h-4.84v.79ZM56.13,2.97v2.12h-1.89v2.85h-2.34V.14h2.34V2.97h1.89Z"/>
  </g>
</svg>