<?xml version="1.0" encoding="UTF-8"?>
<svg id="Layer_2" data-name="Layer 2" xmlns="http://www.w3.org/2000/svg" viewBox="0 0 61.56 14.23">
  <defs>
    <style>
      .cls-1 {
        fill: #ff006e;
      }
    </style>
  </defs>
  <g id="Layer_1-2" data-name="Layer 1">
    <path class="cls-1" d="M0,5.98H5.25v2.16H0v-2.16Z"/>
    <path class="cls-1" d="M10.86,5.71c-.72,.84-1.77,1.56-3.17,2.22l-1.14-1.93c2.2-1.08,3.06-2.18,3.21-3.44h-2.64V.52h7.77V2.56h-2.77c-.03,.44-.09,.86-.21,1.24l3.51,1.92-1.17,1.98-3.39-1.99Zm4.69,2.44c2.01,0,3.5,1.16,3.5,3.04s-1.49,3.03-3.5,3.03h-3.3c-2,0-3.46-1.16-3.46-3.03s1.47-3.04,3.46-3.04h3.3Zm-.3,3.99c.95,0,1.46-.38,1.46-.96s-.51-.96-1.46-.96h-2.7c-.93,0-1.42,.36-1.42,.96s.5,.96,1.42,.96h2.7Zm-.9-9.39h2.21V0h2.34V7.65h-2.34v-2.91h-2.21v-1.98Z"/>
    <path class="cls-1" d="M26.52,4.06c-.03,.72-.13,1.42-.33,2.13l3.79,4.32-1.72,1.59-3.06-3.48c-.68,1.25-1.62,2.46-2.78,3.62l-1.68-1.59c2.19-2.25,3.31-4.32,3.42-6.58h-2.9V1.93h2.92V.01h2.36V1.93h2.92v2.13h-2.96ZM30.78,0h2.34V14.08h-2.34V0Z"/>
    <path class="cls-1" d="M42.48,6.06c-.69,.87-1.86,1.3-3.2,1.3-2.22,0-3.93-1.14-3.93-3.51v-.16c0-2.42,1.71-3.53,3.93-3.53,1.31,0,2.43,.39,3.13,1.21h2.58V0h2.34V7.65h-2.34v-1.59h-2.52Zm1.53,2.1c2,0,3.48,1.16,3.48,3.04s-1.49,3.03-3.48,3.03h-3.31c-1.98,0-3.46-1.16-3.46-3.03s1.49-3.04,3.46-3.04h3.31Zm-6.31-4.35c0,1.08,.72,1.53,1.59,1.53s1.56-.45,1.56-1.53v-.1c0-1.08-.72-1.53-1.56-1.53s-1.59,.45-1.59,1.53v.1Zm6,8.34c.96,0,1.46-.38,1.46-.96s-.5-.96-1.46-.96h-2.68c-.95,0-1.44,.36-1.44,.96s.5,.96,1.44,.96h2.68Zm1.3-8.94h-1.84c.01,.15,.03,.31,.03,.48v.16c0,.13,0,.26-.02,.38h1.83v-1.02Z"/>
    <path class="cls-1" d="M59.22,0h2.34V7.87h-2.34v-1.74h-2.49c-.69,.91-1.88,1.36-3.24,1.36-2.21,0-3.92-1.15-3.92-3.57v-.17c0-2.46,1.71-3.6,3.92-3.6,1.32,0,2.47,.4,3.18,1.28h2.55V0Zm-7.62,10.65v-2.12h9.96v5.7h-2.34v-3.59h-7.62Zm3.46-6.88c0-1.11-.72-1.59-1.58-1.59s-1.58,.48-1.58,1.59v.13c0,1.11,.72,1.59,1.58,1.59s1.58-.48,1.58-1.59v-.13Zm4.15,.54v-1.04h-1.84c.01,.16,.03,.33,.03,.49v.17c0,.13,0,.25-.02,.38h1.83Z"/>
  </g>
</svg>