<?xml version="1.0" encoding="UTF-8"?>
<svg id="Layer_2" data-name="Layer 2" xmlns="http://www.w3.org/2000/svg" viewBox="0 0 55.99 14.37">
  <defs>
    <style>
      .cls-1 {
        fill: #fff;
      }
    </style>
  </defs>
  <g id="Layer_1-2" data-name="Layer 1">
    <path class="cls-1" d="M.12,12.28l-.12-2.12H2.54c1.69,0,4.29-.16,6.49-.42l.27,2.09c-2.26,.31-4.98,.45-7.02,.45H.12ZM.46,4.77v-.2C.46,1.88,2.24,.66,4.47,.66s3.97,1.21,3.97,3.92v.2c0,2.67-1.77,3.9-3.97,3.9S.46,7.44,.46,4.77Zm5.64-.03v-.16c0-1.28-.78-1.82-1.63-1.82s-1.65,.54-1.65,1.82v.16c0,1.28,.76,1.82,1.65,1.82s1.63-.54,1.63-1.82Zm3.79,9.48V.14h2.34V14.22h-2.34Z"/>
    <path class="cls-1" d="M18.55,5.53c-.72,.93-1.75,1.76-3.08,2.54l-1.32-1.9c2.62-1.54,3.4-3.06,3.4-4.7V.51h2.37v.96c0,.74-.11,1.43-.3,2.05l3.6,2.37-1.32,1.87-3.36-2.24Zm-2.07,5.25v-2.12h9.97v5.7h-2.34v-3.59h-7.63ZM24.12,.14h2.34v7.87h-2.34V.14Z"/>
    <path class="cls-1" d="M36.13,7.25h5.49v1.83h-13.32v-1.83h5.49v-.63h-3.88V.36h10.11v1.72h-7.75v.54h7.75v1.67h-7.75v.63h8.04v1.69h-4.17v.63Zm.6,2.4c2.23,0,3.57,.98,3.57,2.35s-1.33,2.37-3.57,2.37h-3.54c-2.24,0-3.57-.96-3.57-2.37s1.33-2.35,3.57-2.35h3.54Zm-.56,2.94c1.28,0,1.79-.21,1.79-.6s-.51-.6-1.79-.6h-2.43c-1.27,0-1.79,.23-1.79,.6s.51,.6,1.79,.6h2.43Z"/>
    <path class="cls-1" d="M50.82,1.02v1.8h-8.34V1.02h2.98V0h2.37V1.02h2.99Zm-.54,4.69c0,1.62-1.59,2.35-3.62,2.35s-3.63-.73-3.63-2.35v-.12c0-1.63,1.6-2.37,3.63-2.37s3.62,.73,3.62,2.37v.12Zm1.48,3.69v-.96h2.34v5.78h-9.52v-5.78h2.34v.96h4.84Zm-6.45-3.71c0,.42,.58,.63,1.35,.63s1.35-.21,1.35-.63v-.09c0-.42-.58-.63-1.35-.63s-1.35,.21-1.35,.63v.09Zm1.6,6.49h4.84v-.79h-4.84v.79ZM55.99,2.97v2.12h-1.89v2.85h-2.34V.14h2.34V2.97h1.89Z"/>
  </g>
</svg>