<?xml version="1.0" encoding="UTF-8"?>
<svg id="Layer_2" data-name="Layer 2" xmlns="http://www.w3.org/2000/svg" viewBox="0 0 61.56 14.23">
  <defs>
    <style>
      .cls-1 {
        fill: #3a82ff;
      }
    </style>
  </defs>
  <g id="Layer_1-2" data-name="Layer 1">
    <path class="cls-1" d="M0,5.98H5.25v2.16H0v-2.16Z"/>
    <path class="cls-1" d="M14.01,3.64c-.83,2.13-3,3.43-6.18,4.33l-.9-2.1c3.04-.81,4.62-1.99,5-3.16H7.42V.6h6.96V1.81h2.17V0h2.34V7.65h-2.34v-1.15h-2.49v-1.83h2.49v-1.02h-2.55Zm1.56,4.51c2,0,3.48,1.16,3.48,3.04s-1.49,3.03-3.48,3.03h-3.31c-1.98,0-3.46-1.16-3.46-3.03s1.49-3.04,3.46-3.04h3.31Zm-.31,3.99c.96,0,1.46-.38,1.46-.96s-.5-.96-1.46-.96h-2.68c-.95,0-1.44,.36-1.44,.96s.5,.96,1.44,.96h2.68Z"/>
    <path class="cls-1" d="M25.14,3.48c0,.87-.06,1.73-.2,2.55l2.79,4.8-1.88,1.28-1.78-2.98c-.44,1.08-1.02,2.12-1.75,3.12l-1.82-1.38c1.71-2.38,2.43-4.72,2.43-7.38v-.39h-1.88V.96h6.21V3.09h-2.13v.39Zm2.92,1.26V.21h2.19V13.72h-2.19V6.85h-1.75v-2.11h1.75ZM31.14,0h2.26V14.08h-2.26V0Z"/>
    <path class="cls-1" d="M42.48,6.06c-.69,.87-1.86,1.3-3.2,1.3-2.22,0-3.93-1.14-3.93-3.51v-.16c0-2.42,1.71-3.53,3.93-3.53,1.31,0,2.43,.39,3.13,1.21h2.58V0h2.34V7.65h-2.34v-1.59h-2.52Zm1.53,2.1c2,0,3.48,1.16,3.48,3.04s-1.49,3.03-3.48,3.03h-3.31c-1.98,0-3.46-1.16-3.46-3.03s1.49-3.04,3.46-3.04h3.31Zm-6.31-4.35c0,1.08,.72,1.53,1.59,1.53s1.56-.45,1.56-1.53v-.1c0-1.08-.72-1.53-1.56-1.53s-1.59,.45-1.59,1.53v.1Zm6,8.34c.96,0,1.46-.38,1.46-.96s-.5-.96-1.46-.96h-2.68c-.95,0-1.44,.36-1.44,.96s.5,.96,1.44,.96h2.68Zm1.3-8.94h-1.84c.01,.15,.03,.31,.03,.48v.16c0,.14,0,.26-.02,.38h1.83v-1.02Z"/>
    <path class="cls-1" d="M59.22,0h2.34V7.87h-2.34v-1.74h-2.49c-.69,.91-1.88,1.36-3.24,1.36-2.21,0-3.92-1.16-3.92-3.57v-.17c0-2.46,1.71-3.6,3.92-3.6,1.32,0,2.47,.41,3.18,1.28h2.55V0Zm-7.62,10.65v-2.12h9.96v5.7h-2.34v-3.59h-7.62Zm3.46-6.88c0-1.11-.72-1.59-1.58-1.59s-1.58,.48-1.58,1.59v.13c0,1.11,.72,1.59,1.58,1.59s1.58-.48,1.58-1.59v-.13Zm4.15,.54v-1.04h-1.84c.01,.16,.03,.33,.03,.49v.17c0,.13,0,.25-.02,.38h1.83Z"/>
  </g>
</svg>