<?xml version="1.0" encoding="UTF-8"?>
<svg id="Layer_2" data-name="Layer 2" xmlns="http://www.w3.org/2000/svg" viewBox="0 0 84.24 14.37">
  <defs>
    <style>
      .cls-1 {
        fill: #fff;
      }
    </style>
  </defs>
  <g id="Layer_1-2" data-name="Layer 1">
    <path class="cls-1" d="M8.19,6.96c-1.71,.3-3.4,.46-5.25,.46H0V.66H2.37V5.29h.97c1.35,0,2.83-.14,4.58-.39l.27,2.06ZM1.88,14.22v-5.85H11.4v5.85H1.88Zm2.34-3.79v1.71h4.84v-1.71H4.21ZM13.29,2.67v2.13h-1.89v2.91h-2.34V.14h2.34V2.67h1.89Z"/>
    <path class="cls-1" d="M27.36,8.79h-5.49v1h4.02v4.58h-2.34v-2.6H15.51v-1.98h4.02v-1h-5.49v-1.98h13.32v1.98ZM25.75,.29V5.95H15.64V.29h2.36V1.46h5.4V.29h2.35Zm-7.75,3.88h5.4v-.93h-5.4v.93Z"/>
    <path class="cls-1" d="M36.09,7.24h5.49v1.83h-13.32v-1.83h5.49v-.63h-3.88V.36h10.11v1.73h-7.75v.54h7.75v1.67h-7.75v.63h8.04v1.69h-4.17v.63Zm.6,2.4c2.23,0,3.57,.98,3.57,2.35s-1.33,2.37-3.57,2.37h-3.54c-2.24,0-3.57-.96-3.57-2.37s1.33-2.35,3.57-2.35h3.54Zm-.56,2.94c1.28,0,1.79-.21,1.79-.6s-.51-.6-1.79-.6h-2.43c-1.27,0-1.79,.22-1.79,.6s.51,.6,1.79,.6h2.43Z"/>
    <path class="cls-1" d="M50.78,1.02v1.8h-8.34V1.02h2.98V0h2.37V1.02h2.99Zm-.54,4.69c0,1.62-1.59,2.35-3.62,2.35s-3.63-.73-3.63-2.35v-.12c0-1.63,1.6-2.37,3.63-2.37s3.62,.73,3.62,2.37v.12Zm1.48,3.69v-.96h2.34v5.77h-9.52v-5.77h2.34v.96h4.84Zm-6.45-3.71c0,.42,.58,.63,1.35,.63s1.35-.21,1.35-.63v-.09c0-.42-.58-.63-1.35-.63s-1.35,.21-1.35,.63v.09Zm1.6,6.49h4.84v-.79h-4.84v.79ZM55.95,2.97v2.12h-1.89v2.85h-2.34V.14h2.34V2.97h1.89Z"/>
    <path class="cls-1" d="M62.47,3.39c0,.93-.1,1.83-.31,2.72l3.78,4.56-1.8,1.58-2.94-3.58c-.68,1.3-1.61,2.53-2.81,3.72l-1.69-1.59c2.34-2.38,3.4-4.62,3.4-7.4v-.16h-2.8V1.1h8.05V3.23h-2.88v.16ZM66.73,.14h2.34V14.22h-2.34V.14Z"/>
    <path class="cls-1" d="M84.24,8.56v2.12h-5.49v3.69h-2.34v-3.69h-5.49v-2.12h13.32Zm-7.02-3.84c-1,1.01-2.54,1.88-4.71,2.62l-.93-2.04c3.75-1.38,4.9-2.85,4.9-4.32V.21h2.34V.99c0,.63-.1,1.24-.33,1.83l5.08,2.54-1.09,1.99-5.26-2.62Z"/>
  </g>
</svg>