<?xml version="1.0" encoding="UTF-8"?>
<svg id="Layer_2" data-name="Layer 2" xmlns="http://www.w3.org/2000/svg" viewBox="0 0 90 14.23">
  <defs>
    <style>
      .cls-1 {
        fill: #f85606;
      }
    </style>
  </defs>
  <g id="Layer_1-2" data-name="Layer 1">
    <path class="cls-1" d="M0,5.98H5.25v2.16H0v-2.16Z"/>
    <path class="cls-1" d="M11.67,2.74c0,1.11-.12,2.18-.34,3.2l3.58,4.7-1.85,1.47-2.67-3.53c-.62,1.28-1.46,2.49-2.55,3.66l-1.72-1.54c2.31-2.54,3.18-4.95,3.18-7.95V.73h2.37V2.74Zm8.31,2.14v2.12h-1.88v7.08h-2.35V0h2.35V4.89h1.88Z"/>
    <path class="cls-1" d="M26.59,10.35c1.09-.08,2.25-.17,3.31-.3l.27,2.1c-2.26,.3-4.98,.45-7.02,.45h-2.16l-.12-2.13h2.54c.25,0,.54,0,.84-.02v-1.17c-1.46-.3-2.49-1.18-2.49-2.64v-.2c0-1.81,1.62-2.76,3.67-2.76s3.65,.95,3.65,2.76v.2c0,1.47-1.05,2.35-2.49,2.65v1.05ZM29.62,1.27v1.86h-8.42V1.27h3.03V.01h2.37V1.27h3.02Zm-5.6,5.36c0,.64,.62,.97,1.41,.97,.75,0,1.37-.33,1.37-.97v-.16c0-.65-.62-.98-1.37-.98-.79,0-1.41,.33-1.41,.98v.16ZM30.78,0h2.34V14.08h-2.34V0Z"/>
    <path class="cls-1" d="M34.96,6.88h13.32v2.13h-5.49v1.94h-2.34v-1.94h-5.49v-2.13Zm3.88,3.13v1.95h8.19v2.12h-10.53v-4.06h2.34ZM46.68,.22V5.89h-10.11V.22h10.11Zm-2.35,3.71v-1.76h-5.4v1.76h5.4Z"/>
    <path class="cls-1" d="M54.6,10.38c1.03-.07,2.11-.16,3.12-.29l.24,2.03c-2.17,.3-4.84,.45-6.82,.45h-2.06l-.12-2.07h2.42c.27,0,.57,0,.88-.01v-1.19c-1.45-.29-2.49-1.17-2.49-2.65v-.2c0-1.81,1.58-2.76,3.6-2.76s3.57,.95,3.57,2.76v.2c0,1.42-.96,2.31-2.34,2.62v1.11Zm2.88-9.11v1.86h-8.26V1.27h2.95V.01h2.37V1.27h2.94Zm-5.45,5.36c0,.64,.57,.97,1.33,.97s1.3-.33,1.3-.97v-.16c0-.65-.57-.98-1.3-.98s-1.33,.33-1.33,.98v.16Zm10.62-1.61v2.13h-1.74v6.93h-2.36V0h2.36V5.02h1.74Z"/>
    <path class="cls-1" d="M70.92,6.06c-.69,.87-1.86,1.3-3.2,1.3-2.22,0-3.93-1.14-3.93-3.51v-.16c0-2.42,1.71-3.53,3.93-3.53,1.31,0,2.43,.39,3.13,1.21h2.58V0h2.34V7.65h-2.34v-1.59h-2.52Zm1.53,2.1c2,0,3.48,1.16,3.48,3.04s-1.49,3.03-3.48,3.03h-3.31c-1.98,0-3.46-1.16-3.46-3.03s1.49-3.04,3.46-3.04h3.31Zm-6.31-4.35c0,1.08,.72,1.53,1.59,1.53s1.56-.45,1.56-1.53v-.1c0-1.08-.72-1.53-1.56-1.53s-1.59,.45-1.59,1.53v.1Zm6,8.34c.96,0,1.46-.38,1.46-.96s-.5-.96-1.46-.96h-2.68c-.95,0-1.44,.36-1.44,.96s.5,.96,1.44,.96h2.68Zm1.3-8.94h-1.84c.01,.15,.03,.31,.03,.48v.16c0,.13,0,.26-.02,.38h1.83v-1.02Z"/>
    <path class="cls-1" d="M87.66,0h2.34V7.87h-2.34v-1.74h-2.49c-.69,.91-1.88,1.36-3.24,1.36-2.21,0-3.92-1.15-3.92-3.57v-.17c0-2.46,1.71-3.6,3.92-3.6,1.32,0,2.47,.4,3.18,1.28h2.55V0Zm-7.62,10.65v-2.12h9.96v5.7h-2.34v-3.59h-7.62Zm3.46-6.88c0-1.11-.72-1.59-1.58-1.59s-1.58,.48-1.58,1.59v.13c0,1.11,.72,1.59,1.58,1.59s1.58-.48,1.58-1.59v-.13Zm4.15,.54v-1.04h-1.84c.01,.16,.03,.33,.03,.49v.17c0,.13,0,.25-.02,.38h1.83Z"/>
  </g>
</svg>