<?xml version="1.0" encoding="UTF-8"?>
<svg id="Layer_2" data-name="Layer 2" xmlns="http://www.w3.org/2000/svg" viewBox="0 0 27.69 14.37">
  <defs>
    <style>
      .cls-1 {
        fill: #fff;
      }
    </style>
  </defs>
  <g id="Layer_1-2" data-name="Layer 1">
    <path class="cls-1" d="M7.83,6.3h5.49v1.96H0v-1.96H5.49v-1.06h2.34v1.06ZM.96,3.82c2.54-.39,3.87-.96,4.41-1.56H1.68V.36H11.64v1.9h-3.79c-.02,.13-.06,.26-.11,.38l4.62,1.17-.71,1.94-5.38-1.41c-1.02,.63-2.58,1.1-4.75,1.41l-.55-1.92Zm7.44,5.23c2.24,0,3.6,1.12,3.6,2.65s-1.36,2.66-3.6,2.66h-3.48c-2.24,0-3.6-1.12-3.6-2.66s1.37-2.65,3.6-2.65h3.48Zm-.48,3.38c1.24,0,1.74-.27,1.74-.73s-.5-.72-1.74-.72h-2.52c-1.25,0-1.74,.27-1.74,.72s.5,.73,1.74,.73h2.52Z"/>
    <path class="cls-1" d="M22.51,1.02v1.8H14.17V1.02h2.98V0h2.37V1.02h2.99Zm-.54,4.69c0,1.62-1.59,2.36-3.62,2.36s-3.63-.73-3.63-2.36v-.12c0-1.63,1.6-2.37,3.63-2.37s3.62,.73,3.62,2.37v.12Zm1.48,3.69v-.96h2.34v5.78h-9.52v-5.78h2.34v.96h4.84Zm-6.45-3.71c0,.42,.58,.63,1.35,.63s1.35-.21,1.35-.63v-.09c0-.42-.58-.63-1.35-.63s-1.35,.21-1.35,.63v.09Zm1.6,6.49h4.84v-.79h-4.84v.79ZM27.69,2.97v2.12h-1.89v2.85h-2.34V.13h2.34V2.97h1.89Z"/>
  </g>
</svg>