<?xml version="1.0" encoding="UTF-8"?>
<svg id="Layer_2" data-name="Layer 2" xmlns="http://www.w3.org/2000/svg" viewBox="0 0 83.65 14.17">
  <defs>
    <style>
      .cls-1 {
        fill: #fff;
        opacity: .4;
      }
    </style>
  </defs>
  <g id="Layer_1-2" data-name="Layer 1">
    <path class="cls-1" d="M7.99,6.62c-1.67,.28-3.88,.49-5.89,.49H0V.93H1.08V6.12h1.21c1.63,0,3.81-.19,5.56-.45l.13,.95ZM1.9,14.02v-5.35H10.53v5.35H1.9Zm1.08-4.4v3.42h6.46v-3.42H2.98ZM12.82,3.29v.97h-2.29v3.42h-1.08V.18h1.08V3.29h2.29Z"/>
    <path class="cls-1" d="M26.77,8.22h-5.94v1.75h4.28v4.2h-1.08v-3.24H15.49v-.96h4.28v-1.75h-5.96v-.95h12.96v.95ZM24.97,.45V5.79H15.63V.45h1.06v1.77h7.2V.45h1.08Zm-8.28,4.43h7.2v-1.74h-7.2v1.74Z"/>
    <path class="cls-1" d="M35.05,7.7h5.94v.91h-12.96v-.91h5.96v-1.31h-4.14V.53h9.34v.91h-8.28v1.53h8.28v.92h-8.28v1.59h8.56v.92h-4.42v1.31Zm1.04,2.13c2.24,0,3.39,.87,3.39,2.18s-1.15,2.17-3.39,2.17h-3.13c-2.24,0-3.39-.85-3.39-2.17s1.15-2.18,3.39-2.18h3.13Zm-.25,3.44c1.74,0,2.56-.46,2.56-1.26s-.82-1.26-2.56-1.26h-2.62c-1.75,0-2.58,.47-2.58,1.26s.83,1.26,2.58,1.26h2.62Z"/>
    <path class="cls-1" d="M50.35,1.56v.91h-8.02v-.91h3.48V0h1.07V1.56h3.48Zm-.64,4.11c0,1.44-1.47,2.22-3.34,2.22s-3.36-.78-3.36-2.22v-.2c0-1.42,1.49-2.21,3.36-2.21s3.34,.78,3.34,2.21v.2Zm-5.64-.02c0,.81,1,1.32,2.29,1.32s2.29-.51,2.29-1.32v-.15c0-.8-1.02-1.32-2.29-1.32s-2.29,.52-2.29,1.32v.15Zm8.04,4.67v-1.65h1.07v5.34h-8.61v-5.34h1.08v1.65h6.46Zm-6.46,2.75h6.46v-1.79h-6.46v1.79ZM55.48,3.57v.97h-2.31v3.3h-1.07V.18h1.07V3.57h2.31Z"/>
    <path class="cls-1" d="M61.51,3.12c0,1.12-.15,2.18-.44,3.17l4.25,4.95-.78,.72-3.87-4.53c-.67,1.65-1.77,3.15-3.23,4.68l-.78-.74c2.37-2.46,3.78-4.83,3.78-8.25v-.78h-3.22v-.97h7.54v.97h-3.25v.78ZM67.09,.18h1.06V14.02h-1.06V.18Z"/>
    <path class="cls-1" d="M83.65,8.83v.99h-5.94v4.35h-1.06v-4.35h-5.96v-.99h12.96Zm-6.81-4.81c-.88,1.16-2.46,2.18-4.78,3.11l-.44-.95c3.42-1.35,5.08-2.94,5.08-4.79V.48h1.07v.91c0,.6-.12,1.19-.38,1.74l5.31,3.07-.51,.92-5.36-3.11Z"/>
  </g>
</svg>