<?xml version="1.0" encoding="UTF-8"?>
<svg id="Layer_2" data-name="Layer 2" xmlns="http://www.w3.org/2000/svg" viewBox="0 0 55.89 14.19">
  <defs>
    <style>
      .cls-1 {
        fill: #fff;
        opacity: .4;
      }
    </style>
  </defs>
  <g id="Layer_1-2" data-name="Layer 1">
    <path class="cls-1" d="M12.96,7.65v.99H7.02v5.55h-1.06v-5.55H0v-.99H9.45c.36-2,.6-4.17,.6-5.38v-.32H1.49V.96H11.11v1.07c0,1.57-.24,3.66-.58,5.62h2.43Z"/>
    <path class="cls-1" d="M21.24,11.92h5.94v.99H14.22v-.99h5.96v-3.4h1.06v3.4Zm-6.1-4c3.43-1.59,5.1-3.32,5.1-5.34v-.41h-4.33v-.98h9.62v.98h-4.2v.41c0,.64-.12,1.26-.38,1.84l5.31,3.54-.57,.87-5.25-3.51c-.88,1.28-2.45,2.45-4.81,3.51l-.48-.91Z"/>
    <path class="cls-1" d="M35.46,7.7h5.94v.91h-12.96v-.91h5.96v-1.31h-4.14V.53h9.34v.91h-8.28v1.53h8.28v.92h-8.28v1.59h8.56v.92h-4.42v1.31Zm1.04,2.13c2.24,0,3.39,.87,3.39,2.18s-1.15,2.17-3.39,2.17h-3.13c-2.24,0-3.39-.85-3.39-2.17s1.15-2.18,3.39-2.18h3.13Zm-.25,3.44c1.74,0,2.56-.46,2.56-1.26s-.82-1.26-2.56-1.26h-2.62c-1.75,0-2.58,.47-2.58,1.26s.83,1.26,2.58,1.26h2.62Z"/>
    <path class="cls-1" d="M50.76,1.56v.91h-8.02v-.91h3.48V0h1.07V1.56h3.48Zm-.64,4.11c0,1.44-1.47,2.22-3.34,2.22s-3.36-.78-3.36-2.22v-.2c0-1.42,1.49-2.21,3.36-2.21s3.34,.78,3.34,2.21v.2Zm-5.64-.02c0,.81,1,1.32,2.29,1.32s2.29-.51,2.29-1.32v-.15c0-.8-1.02-1.32-2.29-1.32s-2.29,.52-2.29,1.32v.15Zm8.04,4.67v-1.65h1.07v5.34h-8.61v-5.34h1.08v1.65h6.46Zm-6.46,2.75h6.46v-1.79h-6.46v1.79ZM55.89,3.57v.97h-2.31v3.3h-1.07V.18h1.07V3.57h2.31Z"/>
  </g>
</svg>