<?xml version="1.0" encoding="UTF-8"?>
<svg id="Layer_2" data-name="Layer 2" xmlns="http://www.w3.org/2000/svg" viewBox="0 0 60.78 13.98">
  <defs>
    <style>
      .cls-1 {
        fill: #fff;
        opacity: .4;
      }
    </style>
  </defs>
  <g id="Layer_1-2" data-name="Layer 1">
    <path class="cls-1" d="M0,6.53H4.68v.99H0v-.99Z"/>
    <path class="cls-1" d="M13.6,3.18c-.76,1.95-2.91,3.39-5.98,4.39l-.42-.93c3.4-1.11,5.58-2.88,5.64-4.83H7.42V.83h6.5v.67c0,.26-.02,.51-.06,.77h3.2V.02h1.06V7.58h-1.06v-1.78h-3.5v-.92h3.5v-1.69h-3.45Zm1.49,5.24c2.04,0,3.24,1.23,3.24,2.79s-1.2,2.78-3.24,2.78h-2.92c-2.03,0-3.23-1.2-3.23-2.78s1.2-2.79,3.23-2.79h2.92Zm-.21,4.6c1.6,0,2.37-.78,2.37-1.83s-.77-1.81-2.37-1.81h-2.49c-1.6,0-2.38,.81-2.38,1.81s.78,1.83,2.38,1.83h2.49Z"/>
    <path class="cls-1" d="M24.45,3.08c0,1.09-.1,2.13-.33,3.1l3.32,4.96-.86,.62-2.83-4.24c-.52,1.51-1.33,2.96-2.43,4.41l-.82-.66c1.89-2.47,2.94-4.86,2.94-8.19v-.92h-2.46v-.97h5.98v.97h-2.5v.92Zm4.02,2.2V.23h1.03V13.59h-1.03V6.26h-2.45v-.98h2.45ZM31.45,0h1.05V13.85h-1.05V0Z"/>
    <path class="cls-1" d="M42.27,5.36c-.57,1.11-1.8,1.67-3.23,1.67-1.98,0-3.58-1.05-3.58-3.18v-.27c0-2.13,1.61-3.18,3.58-3.18,1.32,0,2.49,.48,3.11,1.44h3.34V.02h1.06V7.58h-1.06v-2.22h-3.22Zm-5.73-1.54c0,1.47,1.05,2.25,2.5,2.25s2.49-.78,2.49-2.25v-.22c0-1.47-1.05-2.24-2.49-2.24s-2.5,.76-2.5,2.24v.22Zm6.99,4.61c2.02,0,3.22,1.23,3.22,2.79s-1.2,2.78-3.22,2.78h-2.92c-2.03,0-3.23-1.2-3.23-2.78s1.2-2.79,3.23-2.79h2.92Zm-.23,4.6c1.61,0,2.39-.78,2.39-1.83s-.78-1.81-2.39-1.81h-2.47c-1.6,0-2.38,.81-2.38,1.81s.78,1.83,2.38,1.83h2.47Zm2.19-10.26h-2.97c.06,.25,.09,.52,.09,.81v.27c0,.21-.01,.42-.04,.62h2.92v-1.69Z"/>
    <path class="cls-1" d="M59.7,.02h1.08V7.8h-1.08v-2.37h-3.18c-.57,1.17-1.81,1.74-3.25,1.74-1.99,0-3.58-1.06-3.58-3.24v-.3c0-2.18,1.59-3.24,3.58-3.24,1.35,0,2.52,.5,3.13,1.52h3.3V.02Zm-3.95,3.64c0-1.51-1.05-2.31-2.49-2.31s-2.5,.79-2.5,2.31v.24c0,1.52,1.05,2.31,2.5,2.31s2.49-.79,2.49-2.31v-.24Zm-4.02,6.09v-.97h9.04v5.21h-1.08v-4.23h-7.96Zm7.96-5.23v-1.7h-2.94c.04,.26,.08,.53,.08,.81v.3c0,.21-.01,.41-.04,.58h2.91Z"/>
  </g>
</svg>