<?xml version="1.0" encoding="UTF-8"?>
<svg id="Layer_2" data-name="Layer 2" xmlns="http://www.w3.org/2000/svg" viewBox="0 0 60.78 13.98">
  <defs>
    <style>
      .cls-1 {
        fill: #fff;
        opacity: .4;
      }
    </style>
  </defs>
  <g id="Layer_1-2" data-name="Layer 1">
    <path class="cls-1" d="M0,6.53H4.68v.99H0v-.99Z"/>
    <path class="cls-1" d="M10.57,4.68c-.69,1.1-1.83,2.06-3.44,2.97l-.52-.86c2.37-1.41,3.71-2.83,3.71-4.88v-.21h-3.15V.75h7.38v.96h-3.18v.21c0,.68-.11,1.29-.33,1.88l4.05,2.76-.55,.88-3.96-2.76Zm4.5,3.74c2.04,0,3.24,1.23,3.24,2.79s-1.2,2.78-3.24,2.78h-2.91c-2.04,0-3.24-1.2-3.24-2.78s1.2-2.79,3.24-2.79h2.91Zm-.21,4.6c1.61,0,2.37-.78,2.37-1.83s-.76-1.81-2.37-1.81h-2.49c-1.61,0-2.38,.81-2.38,1.81s.78,1.83,2.38,1.83h2.49Zm-.81-9.85h2.99V.02h1.06V7.58h-1.06v-3.46h-2.99v-.95Z"/>
    <path class="cls-1" d="M25.68,3.55c0,.95-.13,1.83-.38,2.7l4.18,4.8-.76,.72-3.84-4.38c-.69,1.58-1.8,3.06-3.3,4.54l-.75-.75c2.34-2.35,3.78-4.63,3.78-7.63v-.21h-3.3v-.97h3.32V.02h1.05V2.37h3.33v.97h-3.33v.21ZM31.26,0h1.06V13.85h-1.06V0Z"/>
    <path class="cls-1" d="M42.27,5.36c-.57,1.11-1.8,1.66-3.23,1.66-1.98,0-3.58-1.05-3.58-3.18v-.27c0-2.13,1.61-3.18,3.58-3.18,1.32,0,2.49,.48,3.11,1.44h3.34V.02h1.06V7.58h-1.06v-2.22h-3.22Zm-5.73-1.54c0,1.47,1.05,2.25,2.5,2.25s2.49-.78,2.49-2.25v-.22c0-1.47-1.05-2.23-2.49-2.23s-2.5,.76-2.5,2.23v.22Zm6.99,4.61c2.02,0,3.22,1.23,3.22,2.79s-1.2,2.78-3.22,2.78h-2.92c-2.03,0-3.23-1.2-3.23-2.78s1.2-2.79,3.23-2.79h2.92Zm-.23,4.6c1.61,0,2.39-.78,2.39-1.83s-.78-1.81-2.39-1.81h-2.47c-1.6,0-2.38,.81-2.38,1.81s.78,1.83,2.38,1.83h2.47Zm2.19-10.26h-2.97c.06,.26,.09,.53,.09,.81v.27c0,.21-.01,.42-.04,.62h2.92v-1.7Z"/>
    <path class="cls-1" d="M59.7,.02h1.08V7.8h-1.08v-2.37h-3.18c-.57,1.17-1.81,1.74-3.25,1.74-1.99,0-3.58-1.06-3.58-3.24v-.3c0-2.18,1.59-3.24,3.58-3.24,1.35,0,2.52,.49,3.13,1.52h3.3V.02Zm-3.95,3.64c0-1.51-1.05-2.31-2.49-2.31s-2.5,.79-2.5,2.31v.24c0,1.52,1.05,2.31,2.5,2.31s2.49-.79,2.49-2.31v-.24Zm-4.02,6.09v-.97h9.04v5.21h-1.08v-4.23h-7.96Zm7.96-5.23v-1.7h-2.94c.04,.26,.08,.53,.08,.81v.3c0,.21-.01,.41-.04,.59h2.91Z"/>
  </g>
</svg>