<?xml version="1.0" encoding="UTF-8"?>
<svg id="Layer_2" data-name="Layer 2" xmlns="http://www.w3.org/2000/svg" viewBox="0 0 55.77 14.18">
  <defs>
    <style>
      .cls-1 {
        fill: #fff;
        opacity: .4;
      }
    </style>
  </defs>
  <g id="Layer_1-2" data-name="Layer 1">
    <path class="cls-1" d="M.06,11.74l-.06-.99H2.52c1.71,0,4.49-.17,6.66-.43l.12,.95c-2.08,.3-4.8,.48-6.84,.48H.06ZM.79,4.83v-.31C.79,2.09,2.42,.93,4.42,.93s3.62,1.16,3.62,3.59v.31c0,2.43-1.64,3.58-3.62,3.58S.79,7.26,.79,4.83Zm6.17-.02v-.28c0-1.74-1.08-2.62-2.54-2.62s-2.55,.88-2.55,2.62v.28c0,1.73,1.08,2.61,2.55,2.61s2.54-.89,2.54-2.61Zm3.54,9.21V.18h1.06V14.03h-1.06Z"/>
    <path class="cls-1" d="M18.3,4.7c-.72,1.14-1.88,2.16-3.51,3.09l-.54-.87c2.5-1.47,3.84-3.09,3.84-5.29V.68h1.06v.94c0,.76-.13,1.49-.39,2.15l4.21,2.88-.57,.84-4.11-2.79Zm-1.56,5.23v-.97h9.04v5.21h-1.06v-4.23h-7.98ZM24.72,.2h1.06V7.98h-1.06V.2Z"/>
    <path class="cls-1" d="M35.34,7.7h5.94v.91h-12.96v-.91h5.96v-1.3h-4.14V.53h9.34v.92h-8.28v1.53h8.28v.91h-8.28v1.59h8.56v.92h-4.42v1.3Zm1.04,2.13c2.24,0,3.39,.87,3.39,2.17s-1.15,2.18-3.39,2.18h-3.13c-2.24,0-3.39-.86-3.39-2.18s1.15-2.17,3.39-2.17h3.13Zm-.25,3.43c1.74,0,2.56-.46,2.56-1.26s-.82-1.26-2.56-1.26h-2.62c-1.75,0-2.58,.46-2.58,1.26s.83,1.26,2.58,1.26h2.62Z"/>
    <path class="cls-1" d="M50.64,1.56v.91h-8.02v-.91h3.48V0h1.07V1.56h3.48Zm-.64,4.11c0,1.44-1.47,2.22-3.34,2.22s-3.36-.78-3.36-2.22v-.2c0-1.42,1.49-2.21,3.36-2.21s3.34,.78,3.34,2.21v.2Zm-5.64-.01c0,.81,1,1.32,2.29,1.32s2.29-.51,2.29-1.32v-.15c0-.8-1.02-1.32-2.29-1.32s-2.29,.52-2.29,1.32v.15Zm8.04,4.67v-1.65h1.07v5.34h-8.61v-5.34h1.08v1.65h6.46Zm-6.46,2.74h6.46v-1.79h-6.46v1.79ZM55.77,3.57v.97h-2.31v3.3h-1.07V.18h1.07V3.57h2.31Z"/>
  </g>
</svg>