<?xml version="1.0" encoding="UTF-8"?>
<svg id="Layer_2" data-name="Layer 2" xmlns="http://www.w3.org/2000/svg" viewBox="0 0 89.22 13.98">
  <defs>
    <style>
      .cls-1 {
        fill: #fff;
        opacity: .4;
      }
    </style>
  </defs>
  <g id="Layer_1-2" data-name="Layer 1">
    <path class="cls-1" d="M0,6.53H4.68v.99H0v-.99Z"/>
    <path class="cls-1" d="M10.83,2.6c0,1.2-.15,2.32-.44,3.4l4.14,5.09-.8,.69-3.73-4.59c-.64,1.66-1.7,3.22-3.17,4.74l-.75-.72c2.45-2.5,3.69-5.14,3.69-8.61V.86h1.05v1.74Zm8.8,2.82v.99h-2.29v7.44h-1.08V0h1.08V5.42h2.29Z"/>
    <path class="cls-1" d="M25.8,10.94c1.36-.08,2.85-.2,4.14-.36l.12,.94c-2.08,.3-4.8,.48-6.84,.48h-2.4l-.06-.99h2.52c.42,0,.92-.01,1.44-.03v-1.92c-1.65-.17-2.85-1.06-2.85-2.55v-.25c0-1.67,1.48-2.58,3.4-2.58s3.36,.91,3.36,2.58v.25c0,1.5-1.21,2.4-2.83,2.55v1.88ZM29.31,1.77v.91h-8.12v-.91h3.51V.02h1.08V1.77h3.53Zm-6.39,4.72c0,1.05,1.02,1.69,2.35,1.69s2.31-.64,2.31-1.69v-.21c0-1.05-1.02-1.71-2.31-1.71s-2.35,.66-2.35,1.71v.21ZM31.26,0h1.06V13.85h-1.06V0Z"/>
    <path class="cls-1" d="M34.86,7.44h12.96v.99h-5.94v2.75h-1.06v-2.75h-5.96v-.99Zm2.82,2.39v3.03h8.7v.99h-9.78v-4.02h1.08ZM46.02,.35V5.75h-9.34V.35h9.34Zm-1.08,4.42V1.3h-7.2v3.46h7.2Z"/>
    <path class="cls-1" d="M53.71,10.95c1.33-.08,2.79-.2,4.04-.36l.12,.95c-2.03,.27-4.7,.46-6.67,.46h-2.28l-.04-.97h2.38c.41,0,.87-.02,1.38-.03v-1.92c-1.65-.15-2.85-1.07-2.85-2.57v-.25c0-1.67,1.44-2.58,3.33-2.58s3.3,.91,3.3,2.58v.25c0,1.47-1.14,2.37-2.7,2.55v1.89Zm3.36-9.18v.91h-7.96v-.91h3.45V.02h1.08V1.77h3.44Zm-6.24,4.72c0,1.05,.99,1.69,2.28,1.69s2.25-.64,2.25-1.69v-.21c0-1.05-.98-1.71-2.25-1.71s-2.28,.66-2.28,1.71v.21Zm11.46-.93v.97h-2.16v7.3h-1.07V0h1.07V5.57h2.16Z"/>
    <path class="cls-1" d="M70.71,5.36c-.57,1.11-1.8,1.66-3.23,1.66-1.98,0-3.58-1.05-3.58-3.18v-.27c0-2.13,1.61-3.18,3.58-3.18,1.32,0,2.49,.48,3.11,1.44h3.34V.02h1.06V7.58h-1.06v-2.22h-3.22Zm-5.73-1.54c0,1.47,1.05,2.25,2.5,2.25s2.49-.78,2.49-2.25v-.22c0-1.47-1.05-2.23-2.49-2.23s-2.5,.76-2.5,2.23v.22Zm6.99,4.61c2.02,0,3.22,1.23,3.22,2.79s-1.2,2.78-3.22,2.78h-2.92c-2.03,0-3.23-1.2-3.23-2.78s1.2-2.79,3.23-2.79h2.92Zm-.23,4.6c1.61,0,2.39-.78,2.39-1.83s-.78-1.81-2.39-1.81h-2.47c-1.6,0-2.38,.81-2.38,1.81s.78,1.83,2.38,1.83h2.47Zm2.19-10.26h-2.97c.06,.26,.09,.53,.09,.81v.27c0,.21-.01,.42-.04,.62h2.92v-1.7Z"/>
    <path class="cls-1" d="M88.14,.02h1.08V7.8h-1.08v-2.37h-3.18c-.57,1.17-1.81,1.74-3.25,1.74-1.99,0-3.58-1.06-3.58-3.24v-.3c0-2.18,1.59-3.24,3.58-3.24,1.35,0,2.52,.49,3.13,1.52h3.3V.02Zm-3.95,3.64c0-1.51-1.05-2.31-2.49-2.31s-2.5,.79-2.5,2.31v.24c0,1.52,1.05,2.31,2.5,2.31s2.49-.79,2.49-2.31v-.24Zm-4.02,6.09v-.97h9.04v5.21h-1.08v-4.23h-7.96Zm7.96-5.23v-1.7h-2.94c.04,.26,.08,.53,.08,.81v.3c0,.21-.01,.41-.04,.59h2.91Z"/>
  </g>
</svg>