<?xml version="1.0" encoding="UTF-8"?>
<svg id="Layer_2" data-name="Layer 2" xmlns="http://www.w3.org/2000/svg" viewBox="0 0 27.45 14.18">
  <defs>
    <style>
      .cls-1 {
        fill: #fff;
        opacity: .4;
      }
    </style>
  </defs>
  <g id="Layer_1-2" data-name="Layer 1">
    <path class="cls-1" d="M7.02,6.81h5.94v.95H0v-.95H5.96v-1.58h1.06v1.58ZM1.17,4.77c3.22-.81,4.88-1.96,4.88-3.3H1.89V.53H11.08v.95h-3.99c0,.46-.12,.91-.34,1.32l5.02,2.01-.39,.88L6.13,3.57c-.88,.86-2.42,1.54-4.67,2.12l-.3-.92Zm6.83,4.47c2.26,0,3.45,1.05,3.45,2.46s-1.18,2.48-3.45,2.48h-3.03c-2.25,0-3.43-1.04-3.43-2.48s1.18-2.46,3.43-2.46h3.03Zm-.24,3.99c1.77,0,2.61-.62,2.61-1.53s-.84-1.5-2.61-1.5h-2.55c-1.77,0-2.61,.59-2.61,1.5s.84,1.53,2.61,1.53h2.55Z"/>
    <path class="cls-1" d="M22.32,1.56v.91H14.29v-.91h3.48V0h1.07V1.56h3.48Zm-.64,4.11c0,1.44-1.47,2.22-3.34,2.22s-3.36-.78-3.36-2.22v-.2c0-1.42,1.49-2.21,3.36-2.21s3.34,.78,3.34,2.21v.2Zm-5.64-.02c0,.81,1,1.32,2.29,1.32s2.29-.51,2.29-1.32v-.15c0-.79-1.02-1.32-2.29-1.32s-2.29,.53-2.29,1.32v.15Zm8.04,4.67v-1.65h1.07v5.34h-8.61v-5.34h1.08v1.65h6.46Zm-6.46,2.74h6.46v-1.79h-6.46v1.79ZM27.45,3.57v.97h-2.31v3.3h-1.07V.18h1.07V3.57h2.31Z"/>
  </g>
</svg>