<?xml version="1.0" encoding="UTF-8"?>
<svg id="Layer_2" data-name="Layer 2" xmlns="http://www.w3.org/2000/svg" viewBox="0 0 780.1 610">
  <defs>
    <style>
      .cls-1 {
        fill: #f85606;
      }

      .cls-2 {
        fill: #fff;
      }

      .cls-3 {
        fill: #ff006e;
      }

      .cls-4 {
        fill: #3a82ff;
      }

      .cls-5 {
        opacity: .4;
      }
    </style>
  </defs>
  <g id="Layer_1-2" data-name="Layer 1">
    <g class="cls-5">
      <rect class="cls-2" x="110" y="175.15" width="670.1" height=".5"/>
    </g>
    <g class="cls-5">
      <rect class="cls-2" x="110" y="379.15" width="670.1" height=".5"/>
    </g>
    <rect class="cls-2" y="203" width="780" height="1"/>
    <g class="cls-5">
      <rect class="cls-2" x="109" y="291.25" width="671" height=".5"/>
    </g>
    <rect class="cls-2" y="405" width="780" height="1"/>
    <g class="cls-5">
      <rect class="cls-2" x="110" y="552.25" width="670" height=".5"/>
    </g>
    <rect class="cls-2" y="580" width="780" height="1"/>
    <rect class="cls-2" y="30" width="780" height="1"/>
    <rect class="cls-2" x="662.25" width=".5" height="610"/>
    <rect class="cls-2" x="109" y="31" width="1" height="579"/>
    <g class="cls-5">
      <rect class="cls-2" x="225.25" width=".5" height="579.94"/>
    </g>
    <g>
      <path class="cls-3" d="M38.29,102.1c-.55,.68-1.38,1.28-2.51,1.82l-.69-1.13c1.8-.89,2.55-1.8,2.62-2.95h-2.2v-1.23h5.84v1.23h-2.22c-.01,.41-.08,.79-.22,1.16l2.83,1.61-.71,1.16-2.75-1.65Zm3.54,2.11c1.53,0,2.6,.87,2.6,2.17s-1.06,2.17-2.6,2.17h-2.43c-1.53,0-2.59-.86-2.59-2.17s1.05-2.17,2.59-2.17h2.43Zm-.21,3.08c.88,0,1.34-.37,1.34-.92s-.46-.91-1.34-.91h-2.01c-.88,0-1.33,.37-1.33,.91s.45,.92,1.33,.92h2.01Zm-.66-7.01h1.88v-2.11h1.46v5.59h-1.46v-2.28h-1.88v-1.2Z"/>
      <path class="cls-3" d="M50.08,100.96c-.01,.6-.09,1.19-.26,1.77l3.01,3.29-1.05,.93-2.54-2.78c-.53,1-1.29,1.96-2.28,2.89l-1.02-.95c1.75-1.71,2.67-3.29,2.7-5.16h-2.32v-1.28h2.35v-1.52h1.44v1.52h2.35v1.28h-2.37Zm3.6-2.81h1.46v10.28h-1.46v-10.28Z"/>
      <path class="cls-3" d="M62.45,102.44c-.5,.7-1.41,1.04-2.46,1.04-1.64,0-2.91-.81-2.91-2.5v-.14c0-1.71,1.27-2.51,2.91-2.51,1,0,1.87,.31,2.39,.95h2.15v-1.11h1.46v5.59h-1.46v-1.32h-2.08Zm1.09,1.77c1.52,0,2.59,.87,2.59,2.17s-1.06,2.17-2.59,2.17h-2.44c-1.52,0-2.57-.86-2.57-2.17s1.05-2.17,2.57-2.17h2.44Zm-4.99-3.26c0,.89,.63,1.3,1.44,1.3s1.43-.41,1.43-1.3v-.1c0-.89-.64-1.3-1.43-1.3s-1.44,.41-1.44,1.3v.1Zm4.77,6.34c.89,0,1.34-.37,1.34-.92s-.45-.91-1.34-.91h-2c-.88,0-1.34,.37-1.34,.91s.46,.92,1.34,.92h2Zm1.21-6.89h-1.68c.02,.14,.03,.29,.03,.44v.14c0,.11-.01,.22-.02,.33h1.67v-.91Z"/>
      <path class="cls-3" d="M75.37,98.17h1.46v5.75h-1.46v-1.43h-2.06c-.5,.74-1.43,1.09-2.5,1.09-1.62,0-2.9-.83-2.9-2.54v-.15c0-1.73,1.27-2.55,2.9-2.55,1.02,0,1.91,.33,2.43,1h2.13v-1.17Zm-3.11,2.73c0-.91-.64-1.34-1.44-1.34s-1.43,.43-1.43,1.34v.12c0,.91,.63,1.34,1.43,1.34s1.44-.43,1.44-1.34v-.12Zm-2.79,4.85v-1.26h7.37v4.06h-1.46v-2.79h-5.91Zm5.91-4.38v-.92h-1.68c.02,.14,.04,.29,.04,.44v.15c0,.11,0,.22-.01,.33h1.66Z"/>
      <path class="cls-4" d="M40.67,303.72c-.62,1.52-2.28,2.52-4.67,3.19l-.57-1.25c2.46-.67,3.79-1.68,3.99-2.73h-3.68v-1.28h5.2v.63c0,.11,0,.22-.01,.32h1.91v-1.43h1.46v5.59h-1.46v-1h-2.15v-1.12h2.15v-.91h-2.16Zm1.17,3.49c1.53,0,2.59,.87,2.59,2.17s-1.05,2.17-2.59,2.17h-2.44c-1.52,0-2.58-.86-2.58-2.17s1.05-2.17,2.58-2.17h2.44Zm-.22,3.08c.89,0,1.34-.37,1.34-.92s-.45-.91-1.34-.91h-2c-.88,0-1.34,.37-1.34,.91s.46,.92,1.34,.92h2Z"/>
      <path class="cls-4" d="M49.08,303.62c0,.69-.07,1.38-.2,2.04l2.25,3.54-1.13,.75-1.65-2.53c-.37,.91-.87,1.79-1.52,2.64l-1.11-.81c1.37-1.77,2.03-3.51,2.03-5.62v-.42h-1.64v-1.29h4.68v1.29h-1.72v.42Zm2.51,1.14v-3.44h1.38v9.87h-1.38v-5.15h-1.51v-1.28h1.51Zm2.32-3.61h1.42v10.28h-1.42v-10.28Z"/>
      <path class="cls-4" d="M62.45,305.44c-.5,.7-1.41,1.04-2.46,1.04-1.64,0-2.91-.81-2.91-2.5v-.14c0-1.71,1.27-2.51,2.91-2.51,1,0,1.87,.31,2.39,.95h2.15v-1.11h1.46v5.59h-1.46v-1.32h-2.08Zm1.09,1.77c1.52,0,2.59,.87,2.59,2.17s-1.06,2.17-2.59,2.17h-2.44c-1.52,0-2.57-.86-2.57-2.17s1.05-2.17,2.57-2.17h2.44Zm-4.99-3.26c0,.89,.63,1.3,1.44,1.3s1.43-.41,1.43-1.3v-.1c0-.89-.64-1.3-1.43-1.3s-1.44,.41-1.44,1.3v.1Zm4.77,6.34c.89,0,1.34-.37,1.34-.92s-.45-.91-1.34-.91h-2c-.88,0-1.34,.37-1.34,.91s.46,.92,1.34,.92h2Zm1.21-6.89h-1.68c.02,.14,.03,.29,.03,.44v.14c0,.11-.01,.22-.02,.33h1.67v-.91Z"/>
      <path class="cls-4" d="M75.37,301.17h1.46v5.75h-1.46v-1.43h-2.06c-.5,.74-1.43,1.09-2.5,1.09-1.62,0-2.9-.83-2.9-2.54v-.15c0-1.73,1.27-2.55,2.9-2.55,1.02,0,1.91,.33,2.43,1h2.13v-1.17Zm-3.11,2.73c0-.91-.64-1.34-1.44-1.34s-1.43,.43-1.43,1.34v.12c0,.91,.63,1.34,1.43,1.34s1.44-.43,1.44-1.34v-.12Zm-2.79,4.85v-1.26h7.37v4.06h-1.46v-2.79h-5.91Zm5.91-4.38v-.92h-1.68c.02,.14,.04,.29,.04,.44v.15c0,.11,0,.22-.01,.33h1.66Z"/>
      <path class="cls-1" d="M38.75,477.13c0,.84-.09,1.64-.29,2.41l2.88,3.55-1.11,.87-2.33-2.86c-.48,1.03-1.18,2.02-2.11,2.96l-1.05-.9c1.82-1.86,2.57-3.71,2.57-6.03v-1.4h1.43v1.4Zm6.49,1.75v1.28h-1.54v5.28h-1.46v-10.28h1.46v3.72h1.54Z"/>
      <path class="cls-1" d="M50.17,482.89c.9-.04,1.87-.13,2.74-.23l.17,1.27c-1.68,.21-3.75,.33-5.31,.33h-1.72l-.07-1.29h1.92c.24,0,.52,0,.8-.01v-1.03c-1.16-.2-1.99-.85-1.99-1.92v-.15c0-1.3,1.2-1.98,2.73-1.98s2.7,.68,2.7,1.98v.15c0,1.08-.83,1.74-1.98,1.92v.97Zm2.43-6.68v1.13h-6.34v-1.13h2.44v-1.04h1.48v1.04h2.43Zm-4.46,3.77c0,.57,.57,.89,1.32,.89s1.28-.32,1.28-.89v-.13c0-.57-.57-.89-1.28-.89s-1.32,.32-1.32,.89v.13Zm5.55-4.83h1.46v10.28h-1.46v-10.28Z"/>
      <path class="cls-1" d="M56.72,480.35h10.07v1.28h-4.3v1.62h-1.46v-1.62h-4.3v-1.28Zm2.69,2.11v1.66h6.39v1.31h-7.85v-2.97h1.46Zm6.11-7.11v4.09h-7.52v-4.09h7.52Zm-1.48,2.86v-1.64h-4.58v1.64h4.58Z"/>
      <path class="cls-1" d="M71.51,482.91c.86-.05,1.77-.13,2.61-.23l.15,1.22c-1.61,.22-3.65,.34-5.16,.34h-1.62l-.08-1.25h1.84c.24,0,.51,0,.8-.01v-1.06c-1.17-.18-1.99-.84-1.99-1.92v-.15c0-1.3,1.17-1.98,2.68-1.98s2.65,.68,2.65,1.98v.15c0,1.06-.78,1.71-1.88,1.91v1Zm2.31-6.7v1.13h-6.23v-1.13h2.38v-1.04h1.48v1.04h2.37Zm-4.35,3.77c0,.57,.54,.89,1.26,.89s1.24-.32,1.24-.89v-.13c0-.57-.54-.89-1.24-.89s-1.26,.32-1.26,.89v.13Zm8.31-1.01v1.29h-1.43v5.17h-1.46v-10.28h1.46v3.82h1.43Z"/>
      <path class="cls-2" d="M52.16,591.93v1.11h-6.28v-1.11h2.4v-.88h1.48v.88h2.4Zm-.45,3.3c0,1.14-1.18,1.69-2.69,1.69s-2.7-.55-2.7-1.69v-.1c0-1.16,1.2-1.71,2.7-1.71s2.69,.55,2.69,1.71v.1Zm1.37,2.95v-.88h1.45v4.14h-7.03v-4.14h1.46v.88h4.11Zm-5.33-2.96c0,.37,.56,.59,1.27,.59s1.27-.22,1.27-.59v-.08c0-.37-.55-.61-1.27-.61s-1.27,.23-1.27,.61v.08Zm1.22,4.99h4.11v-.82h-4.11v.82Zm7.12-6.83v1.26h-1.56v2.2h-1.45v-5.69h1.45v2.22h1.56Z"/>
      <path class="cls-2" d="M62.45,593.5v-2.18h1.38v9.87h-1.38v-3.25h-1.63v-1.23h1.63v-1.98h-1.35c-.38,2.11-1.45,3.91-3.15,5.53l-1.09-1.01c2.12-1.91,2.95-4.1,2.95-6.05h-2.62v-1.29h4.06v1.01c0,.2,0,.38-.01,.57h1.2Zm2.32-2.34h1.42v10.28h-1.42v-10.28Z"/>
    </g>
    <g>
      <path class="cls-2" d="M145.75,103.08c-1.29,.21-2.72,.34-4.18,.34h-2.03v-4.82h1.48v3.54h.81c1.1,0,2.4-.12,3.74-.31l.17,1.24Zm-4.76,5.36v-4.17h7.04v4.17h-7.04Zm1.46-2.93v1.67h4.11v-1.67h-4.11Zm7.12-5.35v1.28h-1.54v2.27h-1.46v-5.54h1.46v2h1.54Z"/>
      <path class="cls-2" d="M160.27,104.36h-4.3v.91h3.14v3.27h-1.46v-2.04h-6.26v-1.23h3.14v-.91h-4.31v-1.2h10.07v1.2Zm-1.27-6.06v4.08h-7.52v-4.08h1.46v.99h4.58v-.99h1.48Zm-6.05,2.95h4.58v-.83h-4.58v.83Z"/>
      <path class="cls-2" d="M167.33,99.06v1.17h-6.28v-1.17h2.4v-1.01h1.48v1.01h2.4Zm-.45,3.75c0,1.29-1.18,1.96-2.69,1.96s-2.7-.67-2.7-1.96v-.15c0-1.28,1.2-1.95,2.7-1.95s2.69,.67,2.69,1.95v.15Zm-2.74,2.71v1.64h6.07v1.28h-7.53v-2.92h1.46Zm-1.22-2.73c0,.51,.56,.81,1.27,.81s1.27-.31,1.27-.81v-.11c0-.51-.55-.8-1.27-.8s-1.27,.3-1.27,.8v.11Zm6.79-1.78h1.56v1.29h-1.56v3.56h-1.45v-7.7h1.45v2.85Z"/>
      <path class="cls-2" d="M180,102.46h4.81v1.23h-10.07v-1.23h3.8v-1.75h1.46v1.75Zm1.03,2.07c1.72,0,2.72,.87,2.72,2s-1.01,2.01-2.72,2.01h-2.52c-1.71,0-2.71-.87-2.71-2.01s1.01-2,2.71-2h2.52Zm.73-2.71c.13-.75,.21-1.56,.23-2.08h-6.03v-1.28h7.52v.61c0,.86-.1,1.92-.27,2.88l-1.44-.13Zm-1.04,5.52c1.09,0,1.57-.32,1.57-.83s-.48-.79-1.57-.79h-1.9c-1.09,0-1.57,.31-1.57,.79s.48,.83,1.57,.83h1.9Z"/>
      <path class="cls-2" d="M191.35,103.47h4.3v1.12h-10.07v-1.12h4.3v-.63h-3.02v-4.49h7.52v1.14h-6.05v.53h6.05v1.11h-6.05v.58h6.27v1.12h-3.25v.63Zm.57,1.69c1.71,0,2.68,.69,2.68,1.68s-.97,1.69-2.68,1.69h-2.6c-1.71,0-2.68-.68-2.68-1.69s.97-1.68,2.68-1.68h2.6Zm-.31,2.24c1.08,0,1.52-.2,1.52-.56s-.45-.57-1.52-.57h-1.98c-1.09,0-1.53,.21-1.53,.57s.45,.56,1.53,.56h1.98Z"/>
      <path class="cls-2" d="M162.81,193.43h4.3v1.29h-10.07v-1.29h4.3v-2.28h1.46v2.28Zm-.95-4.4c-.75,.9-1.96,1.74-3.72,2.48l-.67-1.22c2.9-1.27,3.94-2.54,3.94-3.89v-.76h1.46v.76c0,.51-.09,.99-.29,1.46l4.11,2.48-.79,1.18-4.04-2.48Z"/>
      <path class="cls-2" d="M173.61,187.5v-2.18h1.38v9.87h-1.38v-3.25h-1.62v-1.23h1.62v-1.98h-1.35c-.38,2.11-1.45,3.91-3.15,5.53l-1.09-1.01c2.12-1.91,2.95-4.1,2.95-6.05h-2.62v-1.29h4.06v1.01c0,.2,0,.38-.01,.57h1.2Zm2.32-2.34h1.42v10.28h-1.42v-10.28Z"/>
      <path class="cls-2" d="M163.44,248.08c-1.29,.21-2.72,.34-4.18,.34h-2.03v-4.82h1.48v3.54h.81c1.1,0,2.4-.12,3.74-.31l.17,1.24Zm-4.76,5.36v-4.17h7.04v4.17h-7.04Zm1.46-2.93v1.67h4.11v-1.67h-4.11Zm7.12-5.35v1.28h-1.54v2.27h-1.46v-5.54h1.46v2h1.54Z"/>
      <path class="cls-2" d="M174.17,244.06v1.17h-6.28v-1.17h2.4v-1.01h1.48v1.01h2.4Zm-.45,3.75c0,1.29-1.18,1.96-2.69,1.96s-2.7-.67-2.7-1.96v-.15c0-1.28,1.2-1.95,2.7-1.95s2.69,.67,2.69,1.95v.15Zm-2.74,2.71v1.64h6.07v1.28h-7.53v-2.92h1.46Zm-1.22-2.73c0,.51,.56,.81,1.27,.81s1.27-.31,1.27-.81v-.11c0-.51-.55-.8-1.27-.8s-1.27,.3-1.27,.8v.11Zm6.79-1.78h1.56v1.29h-1.56v3.56h-1.45v-7.7h1.45v2.85Z"/>
      <path class="cls-2" d="M167.11,336.36h-4.3v.91h3.13v3.27h-1.46v-2.04h-6.26v-1.23h3.14v-.91h-4.31v-1.2h10.07v1.2Zm-1.27-6.06v4.08h-7.52v-4.08h1.46v.99h4.58v-.99h1.48Zm-6.05,2.95h4.58v-.83h-4.58v.83Z"/>
      <path class="cls-2" d="M174.17,331.06v1.17h-6.28v-1.17h2.4v-1.01h1.48v1.01h2.4Zm-.45,3.75c0,1.29-1.18,1.96-2.69,1.96s-2.7-.67-2.7-1.96v-.15c0-1.28,1.2-1.95,2.7-1.95s2.69,.67,2.69,1.95v.15Zm-2.74,2.71v1.64h6.07v1.28h-7.53v-2.92h1.46Zm-1.22-2.73c0,.51,.56,.81,1.27,.81s1.27-.31,1.27-.81v-.11c0-.51-.55-.8-1.27-.8s-1.27,.3-1.27,.8v.11Zm6.79-1.78h1.56v1.29h-1.56v3.56h-1.45v-7.7h1.45v2.85Z"/>
      <path class="cls-2" d="M162.81,396.43h4.3v1.29h-10.07v-1.29h4.3v-2.28h1.46v2.28Zm-.95-4.4c-.75,.9-1.96,1.74-3.72,2.48l-.67-1.22c2.9-1.27,3.94-2.54,3.94-3.89v-.76h1.46v.76c0,.51-.09,.99-.29,1.46l4.11,2.48-.79,1.18-4.04-2.48Z"/>
      <path class="cls-2" d="M173.61,390.5v-2.18h1.38v9.87h-1.38v-3.25h-1.62v-1.23h1.62v-1.98h-1.35c-.38,2.11-1.45,3.91-3.15,5.53l-1.09-1.01c2.12-1.91,2.95-4.1,2.95-6.05h-2.62v-1.29h4.06v1.01c0,.2,0,.38-.01,.57h1.2Zm2.32-2.34h1.42v10.28h-1.42v-10.28Z"/>
      <path class="cls-2" d="M145.75,480.08c-1.29,.21-2.72,.34-4.18,.34h-2.03v-4.82h1.48v3.54h.81c1.1,0,2.4-.12,3.74-.31l.17,1.24Zm-4.76,5.36v-4.17h7.04v4.17h-7.04Zm1.46-2.93v1.67h4.11v-1.67h-4.11Zm7.12-5.35v1.28h-1.54v2.27h-1.46v-5.54h1.46v2h1.54Z"/>
      <path class="cls-2" d="M160.27,481.36h-4.3v.91h3.14v3.27h-1.46v-2.04h-6.26v-1.23h3.14v-.91h-4.31v-1.2h10.07v1.2Zm-1.27-6.06v4.08h-7.52v-4.08h1.46v.99h4.58v-.99h1.48Zm-6.05,2.95h4.58v-.83h-4.58v.83Z"/>
      <path class="cls-2" d="M167.33,476.06v1.17h-6.28v-1.17h2.4v-1.01h1.48v1.01h2.4Zm-.45,3.75c0,1.29-1.18,1.96-2.69,1.96s-2.7-.67-2.7-1.96v-.15c0-1.28,1.2-1.95,2.7-1.95s2.69,.67,2.69,1.95v.15Zm-2.74,2.71v1.64h6.07v1.28h-7.53v-2.92h1.46Zm-1.22-2.73c0,.51,.56,.81,1.27,.81s1.27-.31,1.27-.81v-.11c0-.51-.55-.8-1.27-.8s-1.27,.3-1.27,.8v.11Zm6.79-1.78h1.56v1.29h-1.56v3.56h-1.45v-7.7h1.45v2.85Z"/>
      <path class="cls-2" d="M180,479.46h4.81v1.23h-10.07v-1.23h3.8v-1.75h1.46v1.75Zm1.03,2.07c1.72,0,2.72,.87,2.72,2s-1.01,2.01-2.72,2.01h-2.52c-1.71,0-2.71-.87-2.71-2.01s1.01-2,2.71-2h2.52Zm.73-2.71c.13-.75,.21-1.56,.23-2.08h-6.03v-1.28h7.52v.61c0,.86-.1,1.92-.27,2.88l-1.44-.13Zm-1.04,5.52c1.09,0,1.57-.32,1.57-.83s-.48-.79-1.57-.79h-1.9c-1.09,0-1.57,.31-1.57,.79s.48,.83,1.57,.83h1.9Z"/>
      <path class="cls-2" d="M191.35,480.47h4.3v1.12h-10.07v-1.12h4.3v-.63h-3.02v-4.49h7.52v1.14h-6.05v.53h6.05v1.11h-6.05v.58h6.27v1.12h-3.25v.63Zm.57,1.69c1.71,0,2.68,.69,2.68,1.68s-.97,1.69-2.68,1.69h-2.6c-1.71,0-2.68-.68-2.68-1.69s.97-1.68,2.68-1.68h2.6Zm-.31,2.24c1.08,0,1.52-.2,1.52-.56s-.45-.57-1.52-.57h-1.98c-1.09,0-1.53,.21-1.53,.57s.45,.56,1.53,.56h1.98Z"/>
      <path class="cls-2" d="M162.81,570.43h4.3v1.29h-10.07v-1.29h4.3v-2.28h1.46v2.28Zm-.95-4.4c-.75,.9-1.96,1.74-3.72,2.48l-.67-1.22c2.9-1.27,3.94-2.54,3.94-3.89v-.76h1.46v.76c0,.51-.09,.99-.29,1.46l4.11,2.48-.79,1.18-4.04-2.48Z"/>
      <path class="cls-2" d="M173.61,564.5v-2.18h1.38v9.87h-1.38v-3.25h-1.62v-1.23h1.62v-1.98h-1.35c-.38,2.11-1.45,3.91-3.15,5.53l-1.09-1.01c2.12-1.91,2.95-4.1,2.95-6.05h-2.62v-1.29h4.06v1.01c0,.2,0,.38-.01,.57h1.2Zm2.32-2.34h1.42v10.28h-1.42v-10.28Z"/>
    </g>
    <g>
      <path class="cls-2" d="M261.13,43.02v2.99h-3.11v-2.99h3.11Z"/>
      <path class="cls-2" d="M271.13,45.7h4.53v.67h-9.89v-.67h4.54v-.96h-3.16v-4.3h7.13v.67h-6.32v1.12h6.32v.67h-6.32v1.17h6.53v.67h-3.38v.96Zm.79,1.56c1.71,0,2.59,.64,2.59,1.6s-.88,1.59-2.59,1.59h-2.39c-1.71,0-2.59-.63-2.59-1.59s.88-1.6,2.59-1.6h2.39Zm-.19,2.52c1.33,0,1.96-.34,1.96-.92s-.63-.92-1.96-.92h-2c-1.34,0-1.97,.34-1.97,.92s.63,.92,1.97,.92h2Z"/>
      <path class="cls-2" d="M277.08,42.73v-.18c0-1.43,1.22-2.13,2.76-2.13s2.73,.7,2.73,2.13v.18c0,1.42-1.22,2.13-2.73,2.13s-2.76-.72-2.76-2.13Zm4.68-.02v-.14c0-.92-.81-1.44-1.92-1.44s-1.93,.52-1.93,1.44v.14c0,.95,.8,1.44,1.93,1.44s1.92-.5,1.92-1.44Zm-3,7.69v-2.63h5.97v-1.21h-6.02v-.67h6.83v2.56h-5.96v1.25h6.41v.69h-7.23Zm5.97-5.24v-4.97h.81v4.97h-.81Z"/>
      <path class="cls-2" d="M287.61,48.67l-.05-.73h1.92c1.3,0,3.42-.12,5.08-.32l.09,.69c-1.59,.22-3.66,.35-5.22,.35h-1.83Zm.56-5.07v-.23c0-1.78,1.24-2.63,2.77-2.63s2.76,.85,2.76,2.63v.23c0,1.78-1.25,2.63-2.76,2.63s-2.77-.85-2.77-2.63Zm4.7-.01v-.21c0-1.28-.82-1.93-1.93-1.93s-1.95,.65-1.95,1.93v.21c0,1.26,.82,1.91,1.95,1.91s1.93-.65,1.93-1.91Zm2.7,6.75v-10.15h.81v10.15h-.81Z"/>
      <path class="cls-2" d="M308.26,44.62c-1.64,.25-3.6,.38-5.21,.38h-1.68l-.03-.69h1.41v-2.94h-1.27v-.69h6.25v.69h-1.28v2.77c.58-.05,1.17-.12,1.73-.2l.09,.67Zm-4.21,5.08h6.42v.69h-7.23v-2.57h5.97v-1.16h-6.03v-.68h6.84v2.52h-5.97v1.2Zm1.59-8.33h-2.08v2.94c.62-.01,1.34-.05,2.08-.1v-2.84Zm4.38-1.19v5.08h-.81v-5.08h.81Z"/>
      <path class="cls-2" d="M319.18,48.81h2.66v.71h-9.89v-.71h2.67v-2.1h.81v2.1h2.94v-2.1h.81v2.1Zm-3.04-2.72c-1.92,0-3.1-1.14-3.1-2.66s1.18-2.65,3.1-2.65h1.52c1.91,0,3.11,1.14,3.11,2.65s-1.2,2.66-3.11,2.66h-1.52Zm.14-4.6c-1.56,0-2.43,.84-2.43,1.94s.87,1.96,2.43,1.96h1.25c1.54,0,2.43-.84,2.43-1.96s-.88-1.94-2.43-1.94h-1.25Z"/>
      <path class="cls-2" d="M325.91,43.45c-.53,.83-1.38,1.55-2.58,2.21l-.42-.64c1.84-1.04,2.83-2.22,2.83-3.81v-.66h.81v.66c0,.56-.09,1.08-.29,1.56l3.09,2.1-.43,.63-3.01-2.06Zm3.49,2.92c1.56,0,2.47,.9,2.47,2.05s-.92,2.04-2.47,2.04h-2.22c-1.56,0-2.47-.88-2.47-2.04s.92-2.05,2.47-2.05h2.22Zm-.16,3.38c1.22,0,1.81-.57,1.81-1.34s-.58-1.33-1.81-1.33h-1.9c-1.22,0-1.82,.59-1.82,1.33s.59,1.34,1.82,1.34h1.9Zm1.66-3.99v-2.81h-2.49v-.7h2.49v-2.04h.81v5.54h-.81Z"/>
      <path class="cls-2" d="M261.13,72.02v2.99h-3.11v-2.99h3.11Z"/>
      <path class="cls-2" d="M268.58,72.45c-.53,.83-1.38,1.55-2.59,2.21l-.41-.64c1.84-1.04,2.83-2.22,2.83-3.78v-.68h.8v.68c0,.55-.09,1.06-.29,1.54l3.1,2.05-.45,.63-3-2Zm3.33,2.92c1.54,0,2.46,.9,2.46,2.05s-.92,2.04-2.46,2.04h-2.14c-1.53,0-2.46-.88-2.46-2.04s.93-2.05,2.46-2.05h2.14Zm-.16,3.38c1.21,0,1.8-.57,1.8-1.34s-.58-1.33-1.8-1.33h-1.82c-1.21,0-1.8,.59-1.8,1.33s.58,1.34,1.8,1.34h1.82Zm2.36-7.27h1.75v.71h-1.75v2.56h-.82v-5.54h.82v2.27Z"/>
      <path class="cls-2" d="M278.44,76.94c1.02,0,2.01-.07,3.14-.23l.09,.7c-1.05,.18-2.08,.24-3.35,.24h-1.26v-7.65h3.89v.73h-3.07v6.21h.56Zm6.44-7.75h.8v10.15h-.8v-5.46h-1.64v5.27h-.79v-9.8h.79v3.81h1.64v-3.97Z"/>
      <path class="cls-2" d="M292.67,69.69v4.6h-4.94v-4.6h.8v1.55h3.34v-1.55h.8Zm-4.14,3.89h3.34v-1.64h-3.34v1.64Zm5.08,1.84c1.54,0,2.47,.87,2.47,2.01s-.93,2.01-2.47,2.01h-2.13c-1.54,0-2.47-.87-2.47-2.01s.93-2.01,2.47-2.01h2.13Zm-.16,3.32c1.21,0,1.8-.56,1.8-1.31s-.58-1.31-1.8-1.31h-1.81c-1.21,0-1.81,.57-1.81,1.31s.6,1.31,1.81,1.31h1.81Zm2.37-7.27h1.75v.71h-1.75v2.62h-.82v-5.6h.82v2.27Z"/>
      <path class="cls-2" d="M304.3,73.27v-3.92h.79v9.8h-.79v-5.17h-1.43v.64c0,2.41-.95,3.37-2.16,3.37s-2.19-.96-2.19-3.37v-1.52c0-2.41,.94-3.37,2.19-3.37s2.16,.96,2.16,3.37v.17h1.43Zm-2.22-.17c0-1.89-.58-2.64-1.38-2.64s-1.38,.75-1.38,2.64v1.51c0,1.89,.58,2.65,1.38,2.65s1.38-.76,1.38-2.65v-1.51Zm4.5-3.92h.8v10.15h-.8v-10.15Z"/>
      <path class="cls-2" d="M313.77,76.94c1.02,0,2.01-.07,3.13-.23l.09,.7c-1.05,.18-2.08,.24-3.35,.24h-1.26v-7.65h3.89v.73h-3.07v6.21h.56Zm6.44-7.75h.8v10.15h-.8v-5.46h-1.64v5.27h-.79v-9.8h.79v3.81h1.64v-3.97Z"/>
      <path class="cls-2" d="M328.97,70.33v.68h-6.12v-.68h2.66v-1.28h.81v1.28h2.66Zm-.49,3.46c0,1.21-1.12,1.9-2.55,1.9s-2.56-.69-2.56-1.9v-.19c0-1.21,1.13-1.88,2.56-1.88s2.55,.67,2.55,1.88v.19Zm-4.3-.01c0,.75,.77,1.22,1.75,1.22s1.75-.47,1.75-1.22v-.15c0-.75-.78-1.22-1.75-1.22s-1.75,.47-1.75,1.22v.15Zm1.2,2.83v2.01h6.35v.72h-7.18v-2.73h.82Zm5.75-4.3h1.76v.74h-1.76v3.96h-.81v-7.81h.81v3.11Z"/>
      <path class="cls-2" d="M343.13,75.1c-1.54,.22-3.58,.34-5.09,.34h-1.74l-.04-.72h1.82c.18,0,.39,0,.61-.01v-2.62h.82v2.6c1.12-.05,2.43-.15,3.53-.29l.09,.69Zm-1.8-4.65h-4.34v-.69h5.15v.53c0,1.07-.16,2.24-.38,3.37l-.79-.12c.23-1.11,.36-2.29,.36-3v-.08Zm-2.33,6.24v1.94h6.47v.73h-7.28v-2.66h.81Zm5.86-4.27h1.65v.74h-1.65v3.91h-.81v-7.87h.81v3.22Z"/>
      <path class="cls-2" d="M353.25,71.79v-2.43h.79v9.8h-.79v-3.48h-1.98v-.7h1.98v-2.47h-1.76c-.42,2.16-1.66,4.03-3.38,5.56l-.58-.57c2.03-1.74,3.31-4.11,3.31-6.49v-.22h-3.11v-.71h3.93v.78c0,.32-.02,.64-.05,.95h1.65Zm2.28-2.6h.8v10.15h-.8v-10.15Z"/>
      <path class="cls-2" d="M361.35,72.43v-.23c0-1.8,1.24-2.67,2.76-2.67s2.74,.87,2.74,2.67v.23c0,1.79-1.24,2.65-2.74,2.65s-2.76-.86-2.76-2.65Zm4.68-.01v-.22c0-1.3-.82-1.97-1.92-1.97s-1.93,.67-1.93,1.97v.22c0,1.3,.82,1.96,1.93,1.96s1.92-.66,1.92-1.96Zm-3,6.93v-3.25h.82v2.52h6.46v.73h-7.29Zm5.97-2.44v-7.71h.82v7.71h-.82Z"/>
      <path class="cls-2" d="M374.95,72.5c-.55,.84-1.43,1.58-2.68,2.27l-.41-.64c1.91-1.08,2.93-2.27,2.93-3.88v-.69h.81v.69c0,.56-.1,1.09-.3,1.57l3.21,2.11-.43,.62-3.14-2.05Zm-1.19,3.84v-.71h6.9v3.82h-.81v-3.1h-6.09Zm6.09-7.14h.81v5.71h-.81v-5.71Z"/>
      <path class="cls-2" d="M261.13,101.02v2.99h-3.11v-2.99h3.11Z"/>
      <path class="cls-2" d="M268.58,101.45c-.53,.83-1.38,1.55-2.59,2.21l-.41-.64c1.84-1.04,2.83-2.22,2.83-3.78v-.68h.8v.68c0,.55-.09,1.06-.29,1.54l3.1,2.05-.45,.63-3-2Zm3.33,2.92c1.54,0,2.46,.9,2.46,2.05s-.92,2.04-2.46,2.04h-2.14c-1.53,0-2.46-.88-2.46-2.04s.93-2.05,2.46-2.05h2.14Zm-.16,3.38c1.21,0,1.8-.57,1.8-1.34s-.58-1.33-1.8-1.33h-1.82c-1.21,0-1.8,.59-1.8,1.33s.58,1.34,1.8,1.34h1.82Zm2.36-7.27h1.75v.71h-1.75v2.56h-.82v-5.54h.82v2.27Z"/>
      <path class="cls-2" d="M278.44,105.94c1.02,0,2.01-.07,3.14-.23l.09,.7c-1.05,.18-2.08,.24-3.35,.24h-1.26v-7.65h3.89v.73h-3.07v6.21h.56Zm6.44-7.75h.8v10.15h-.8v-5.46h-1.64v5.27h-.79v-9.8h.79v3.81h1.64v-3.97Z"/>
      <path class="cls-2" d="M292.67,98.69v4.6h-4.94v-4.6h.8v1.55h3.34v-1.55h.8Zm-4.14,3.89h3.34v-1.64h-3.34v1.64Zm5.08,1.84c1.54,0,2.47,.87,2.47,2.01s-.93,2.01-2.47,2.01h-2.13c-1.54,0-2.47-.87-2.47-2.01s.93-2.01,2.47-2.01h2.13Zm-.16,3.32c1.21,0,1.8-.56,1.8-1.31s-.58-1.31-1.8-1.31h-1.81c-1.21,0-1.81,.57-1.81,1.31s.6,1.31,1.81,1.31h1.81Zm2.37-7.27h1.75v.71h-1.75v2.62h-.82v-5.6h.82v2.27Z"/>
      <path class="cls-2" d="M298.46,106.67l-.04-.73h1.92c1.3,0,3.42-.12,5.08-.32l.09,.69c-1.59,.22-3.66,.35-5.22,.35h-1.83Zm.56-5.07v-.23c0-1.78,1.24-2.63,2.77-2.63s2.76,.85,2.76,2.63v.23c0,1.78-1.25,2.63-2.76,2.63s-2.77-.85-2.77-2.63Zm4.7-.01v-.21c0-1.28-.82-1.93-1.93-1.93s-1.95,.65-1.95,1.93v.21c0,1.26,.82,1.91,1.95,1.91s1.93-.65,1.93-1.91Zm2.7,6.75v-10.15h.81v10.15h-.81Z"/>
      <path class="cls-2" d="M321.83,104.63v.71h-4.53v3.12h-.81v-3.12h-4.54v-.71h9.89Zm-1.27-5.9v4.27h-7.34v-4.27h7.34Zm-.82,3.56v-2.85h-5.7v2.85h5.7Z"/>
      <path class="cls-2" d="M329.21,103.43c-1.16,.19-2.61,.33-4.13,.33h-1.66v-2.9h3.83v-1.42h-3.83v-.69h4.63v2.81h-3.83v1.51h1.01c1.24,0,2.65-.12,3.89-.31l.09,.68Zm-4.39,2.13v-.73h6.9v3.61h-.81v-2.88h-6.09Zm6.09-7.36h.81v5.92h-.81v-1.96h-1.95v-.66h1.95v-1.25h-1.95v-.65h1.95v-1.4Z"/>
      <path class="cls-2" d="M339,106.81h4.53v.73h-9.89v-.73h4.54v-2.66h-3.26v-5.2h7.23v.71h-6.42v3.78h6.52v.7h-3.26v2.66Z"/>
      <path class="cls-2" d="M349.68,98.63v4.18h-4.94v-4.18h.8v1.36h3.34v-1.36h.8Zm-4.14,3.49h3.34v-1.43h-3.34v1.43Zm1.53,4.36v1.23h6.19v.69h-7.01v-2.6h5.76v-1.19h-5.81v-.68h6.64v2.54h-5.76Zm5.76-6.23h1.75v.73h-1.75v2.24h-.82v-5.03h.82v2.06Z"/>
      <path class="cls-2" d="M358.53,99.78v-.71h4.86v.78c0,2.87-1.74,5.37-4.54,7.22l-.49-.62c2.61-1.68,4.22-4.07,4.22-6.45v-.22h-4.05Zm9.68,2.39v.73h-1.75v5.46h-.82v-10.15h.82v3.97h1.75Z"/>
      <path class="cls-2" d="M368.96,103.7v-.7h9.89v.7h-9.89Zm3.79,4.75c-1.72,0-2.62-.76-2.62-1.81s.9-1.8,2.62-1.8h2.31c1.73,0,2.63,.77,2.63,1.8s-.9,1.81-2.63,1.81h-2.31Zm4.81-7.24v.73h-7.21v-3.5h.81v2.77h6.4Zm-2.68,6.55c1.35,0,1.99-.45,1.99-1.12s-.64-1.1-1.99-1.1h-1.95c-1.35,0-1.99,.43-1.99,1.1s.64,1.12,1.99,1.12h1.95Z"/>
      <path class="cls-2" d="M382.92,101.45c-.53,.83-1.38,1.55-2.58,2.21l-.42-.64c1.84-1.04,2.83-2.22,2.83-3.81v-.66h.81v.66c0,.56-.09,1.08-.29,1.56l3.09,2.1-.43,.63-3.01-2.06Zm3.49,2.92c1.56,0,2.47,.9,2.47,2.05s-.92,2.04-2.47,2.04h-2.22c-1.56,0-2.47-.88-2.47-2.04s.92-2.05,2.47-2.05h2.22Zm-.16,3.38c1.22,0,1.81-.57,1.81-1.34s-.58-1.33-1.81-1.33h-1.9c-1.22,0-1.82,.59-1.82,1.33s.59,1.34,1.82,1.34h1.9Zm1.66-3.99v-2.81h-2.49v-.7h2.49v-2.04h.81v5.54h-.81Z"/>
      <path class="cls-2" d="M393.89,101.43v-.23c0-1.8,1.24-2.67,2.76-2.67s2.74,.87,2.74,2.67v.23c0,1.79-1.24,2.65-2.74,2.65s-2.76-.86-2.76-2.65Zm4.68-.01v-.22c0-1.3-.82-1.97-1.92-1.97s-1.93,.67-1.93,1.97v.22c0,1.3,.82,1.96,1.93,1.96s1.92-.66,1.92-1.96Zm-3,6.93v-3.25h.82v2.52h6.46v.73h-7.29Zm5.97-2.44v-7.71h.82v7.71h-.82Z"/>
      <path class="cls-2" d="M407.49,101.5c-.55,.84-1.43,1.58-2.68,2.27l-.41-.64c1.91-1.08,2.93-2.27,2.93-3.88v-.69h.81v.69c0,.56-.1,1.09-.3,1.57l3.22,2.11-.43,.62-3.14-2.05Zm-1.19,3.84v-.71h6.9v3.82h-.81v-3.1h-6.09Zm6.09-7.14h.81v5.71h-.81v-5.71Z"/>
      <path class="cls-2" d="M261.13,130.02v2.99h-3.11v-2.99h3.11Z"/>
      <path class="cls-2" d="M272.19,131.91c-1.27,.21-2.96,.36-4.5,.36h-1.6v-4.53h.82v3.81h.93c1.25,0,2.91-.14,4.25-.33l.1,.69Zm-4.65,5.43v-3.93h6.58v3.93h-6.58Zm.82-3.22v2.51h4.93v-2.51h-4.93Zm7.51-4.65v.71h-1.75v2.51h-.82v-5.5h.82v2.28h1.75Z"/>
      <path class="cls-2" d="M286.51,133.09h-4.53v1.29h3.26v3.08h-.82v-2.38h-6.51v-.7h3.26v-1.29h-4.54v-.69h9.89v.69Zm-1.37-5.7v3.92h-7.13v-3.92h.81v1.3h5.49v-1.3h.82Zm-6.32,3.25h5.49v-1.28h-5.49v1.28Z"/>
      <path class="cls-2" d="M292.75,128.39c0,2.22-1.8,3.88-4.69,4.99l-.36-.67c2.6-.99,4.23-2.53,4.23-4.15h-4.05v-.71h4.86v.54Zm-2.69,5.71v2.52h6.35v.73h-7.17v-3.25h.82Zm5.76-4.21h1.75v.73h-1.75v4.29h-.82v-7.71h.82v2.7Z"/>
      <path class="cls-2" d="M304.27,130.62c-.53,.8-1.4,1.51-2.62,2.18l-.4-.63c1.81-1.03,2.83-2.08,2.83-3.58v-.15h-2.4v-.7h5.63v.7h-2.43v.15c0,.5-.08,.95-.25,1.38l3.09,2.02-.42,.65-3.02-2.02Zm3.43,2.74c1.56,0,2.47,.9,2.47,2.05s-.92,2.04-2.47,2.04h-2.22c-1.56,0-2.47-.88-2.47-2.04s.92-2.05,2.47-2.05h2.22Zm-.16,3.38c1.22,0,1.81-.57,1.81-1.34s-.58-1.33-1.81-1.33h-1.9c-1.22,0-1.82,.59-1.82,1.33s.59,1.34,1.82,1.34h1.9Zm-.62-7.23h2.28v-2.31h.81v5.54h-.81v-2.54h-2.28v-.69Z"/>
      <path class="cls-2" d="M315.79,129.8c0,.69-.1,1.34-.29,1.98l3.19,3.52-.58,.53-2.93-3.21c-.53,1.16-1.37,2.24-2.52,3.33l-.57-.55c1.79-1.73,2.88-3.4,2.88-5.6v-.15h-2.52v-.71h2.53v-1.73h.8v1.73h2.54v.71h-2.54v.15Zm4.26-2.61h.81v10.15h-.81v-10.15Z"/>
      <path class="cls-2" d="M325.7,129.45c0,.8-.08,1.56-.25,2.28l2.53,3.64-.65,.45-2.16-3.11c-.4,1.11-1.02,2.17-1.85,3.23l-.63-.48c1.44-1.82,2.24-3.56,2.24-6.01v-.67h-1.88v-.71h4.57v.71h-1.91v.67Zm3.07,1.62v-3.71h.79v9.8h-.79v-5.38h-1.87v-.71h1.87Zm2.28-3.87h.8v10.15h-.8v-10.15Z"/>
      <path class="cls-2" d="M339,135.81h4.53v.73h-9.89v-.73h4.54v-2.66h-3.26v-5.2h7.23v.71h-6.42v3.78h6.52v.7h-3.26v2.66Z"/>
      <path class="cls-2" d="M347.54,126.49l.56,.48c-1.52,1.64-2.22,3.44-2.22,5.37s.7,3.73,2.22,5.37l-.56,.48c-1.58-1.64-2.46-3.56-2.46-5.85s.88-4.21,2.46-5.85Z"/>
      <path class="cls-2" d="M354.98,133.12l-2.98-2.3c-.51,.9-1.36,1.71-2.55,2.45l-.45-.61c1.85-1.2,2.83-2.52,2.83-4.29v-.77h.8v.77c0,.63-.1,1.2-.3,1.75l3.11,2.39-.47,.61Zm-3.15,3.5h6.47v.73h-7.28v-3.09h.81v2.37Zm5.16-1.72v-4.51h-2.51v-.71h2.51v-2.49h.81v7.71h-.81Z"/>
      <path class="cls-2" d="M367.84,127.19h.81v10.15h-.81v-5.25h-3.22c-.79,1.52-2.13,2.86-3.86,3.96l-.48-.62c2.68-1.67,4.33-4.07,4.33-6.45v-.22h-4.17v-.71h4.99v.78c0,.88-.17,1.74-.49,2.54h2.9v-4.19Z"/>
      <path class="cls-2" d="M375.77,127.69v4.6h-4.94v-4.6h.8v1.55h3.34v-1.55h.8Zm-4.14,3.89h3.34v-1.64h-3.34v1.64Zm5.08,1.84c1.54,0,2.47,.87,2.47,2.01s-.93,2.01-2.47,2.01h-2.13c-1.54,0-2.47-.87-2.47-2.01s.93-2.01,2.47-2.01h2.13Zm-.16,3.32c1.21,0,1.8-.56,1.8-1.31s-.58-1.31-1.8-1.31h-1.81c-1.21,0-1.81,.57-1.81,1.31s.6,1.31,1.81,1.31h1.81Zm2.37-7.27h1.75v.71h-1.75v2.62h-.82v-5.6h.82v2.27Z"/>
      <path class="cls-2" d="M384.63,130.5c-.55,.84-1.43,1.58-2.68,2.27l-.41-.64c1.91-1.08,2.93-2.27,2.93-3.88v-.69h.81v.69c0,.56-.1,1.09-.3,1.57l3.22,2.11-.43,.62-3.14-2.05Zm-1.19,3.84v-.71h6.9v3.82h-.81v-3.1h-6.09Zm6.09-7.14h.81v5.71h-.81v-5.71Z"/>
      <path class="cls-2" d="M392.51,138.69l.24-2.92h.82l-.39,2.92h-.67Z"/>
      <path class="cls-2" d="M405.77,127.19h.81v5.36h-.81v-2.37h-2.49v1.95h-5.05v-4.44h.79v1.47h3.47v-1.47h.79v1.78h2.49v-2.28Zm-6.75,4.22h3.47v-1.55h-3.47v1.55Zm6.75,3.07v-1.34h.81v4.2h-6.79v-4.2h.81v1.34h5.16Zm-5.16,2.15h5.16v-1.45h-5.16v1.45Z"/>
      <path class="cls-2" d="M418.39,132.62h-2.74v.89h1.46v2.24h-6.52v1h6.81v.65h-7.62v-2.29h6.51v-.97h-6.57v-.64h1.52v-.89h-2.75v-.64h9.89v.64Zm-2.2-3.63v-.96h-6.36v-.64h7.19v2.21h-6.32v.98h6.54v.62h-7.35v-2.21h6.31Zm-1.35,4.52v-.89h-2.78v.89h2.78Z"/>
      <path class="cls-2" d="M422.26,129.45c0,.8-.08,1.56-.25,2.28l2.53,3.64-.65,.45-2.16-3.11c-.4,1.11-1.02,2.17-1.85,3.23l-.63-.48c1.44-1.82,2.24-3.56,2.24-6.01v-.67h-1.88v-.71h4.57v.71h-1.91v.67Zm3.07,1.62v-3.71h.79v9.8h-.79v-5.38h-1.87v-.71h1.87Zm2.28-3.87h.8v10.15h-.8v-10.15Z"/>
      <path class="cls-2" d="M435.56,135.81h4.53v.73h-9.89v-.73h4.54v-2.66h-3.26v-5.2h7.23v.71h-6.42v3.78h6.52v.7h-3.26v2.66Z"/>
      <path class="cls-2" d="M441.42,138.19l-.56-.48c1.52-1.64,2.22-3.44,2.22-5.37s-.7-3.73-2.22-5.37l.56-.48c1.58,1.64,2.46,3.56,2.46,5.85s-.88,4.21-2.46,5.85Z"/>
      <path class="cls-2" d="M451.63,129.8c0,.69-.09,1.35-.27,1.98l3.1,3.52-.62,.53-2.79-3.2c-.5,1.16-1.32,2.23-2.42,3.32l-.58-.55c1.74-1.73,2.77-3.4,2.77-5.6v-.15h-2.41v-.71h2.43v-1.73h.81v1.73h2.44v.71h-2.45v.15Zm6.67,1.36v.73h-1.75v5.46h-.82v-10.15h.82v3.97h1.75Z"/>
      <path class="cls-2" d="M459.53,132.63v-1.52c0-2.41,1.22-3.37,2.71-3.37s2.71,.96,2.71,3.37v1.52c0,2.41-1.22,3.37-2.71,3.37s-2.71-.96-2.71-3.37Zm4.61-.01v-1.51c0-1.89-.81-2.64-1.9-2.64s-1.89,.75-1.89,2.64v1.51c0,1.89,.8,2.65,1.89,2.65s1.9-.76,1.9-2.65Zm3.03,4.73v-10.15h.82v10.15h-.82Z"/>
      <path class="cls-2" d="M473.15,130.43v-.23c0-1.8,1.24-2.67,2.76-2.67s2.74,.87,2.74,2.67v.23c0,1.79-1.24,2.65-2.74,2.65s-2.76-.86-2.76-2.65Zm4.68-.01v-.22c0-1.3-.82-1.97-1.92-1.97s-1.93,.67-1.93,1.97v.22c0,1.3,.82,1.96,1.93,1.96s1.92-.66,1.92-1.96Zm-3,6.93v-3.25h.82v2.52h6.47v.73h-7.29Zm5.97-2.44v-7.71h.82v7.71h-.82Z"/>
      <path class="cls-2" d="M486.75,130.5c-.55,.84-1.43,1.58-2.68,2.27l-.41-.64c1.91-1.08,2.93-2.27,2.93-3.88v-.69h.81v.69c0,.56-.1,1.09-.3,1.57l3.22,2.11-.44,.62-3.14-2.05Zm-1.19,3.84v-.71h6.9v3.82h-.81v-3.1h-6.09Zm6.09-7.14h.81v5.71h-.81v-5.71Z"/>
      <path class="cls-2" d="M261.13,159.02v2.99h-3.11v-2.99h3.11Z"/>
      <path class="cls-2" d="M268.58,159.45c-.53,.83-1.38,1.55-2.59,2.21l-.41-.64c1.84-1.04,2.83-2.22,2.83-3.78v-.68h.8v.68c0,.55-.09,1.06-.29,1.54l3.1,2.05-.45,.63-3-2Zm3.33,2.92c1.54,0,2.46,.9,2.46,2.05s-.92,2.04-2.46,2.04h-2.14c-1.53,0-2.46-.88-2.46-2.04s.93-2.05,2.46-2.05h2.14Zm-.16,3.38c1.21,0,1.8-.57,1.8-1.34s-.58-1.33-1.8-1.33h-1.82c-1.21,0-1.8,.59-1.8,1.33s.58,1.34,1.8,1.34h1.82Zm2.36-7.27h1.75v.71h-1.75v2.56h-.82v-5.54h.82v2.27Z"/>
      <path class="cls-2" d="M278.44,163.94c1.02,0,2.01-.07,3.14-.23l.09,.7c-1.05,.18-2.08,.24-3.35,.24h-1.26v-7.65h3.89v.73h-3.07v6.21h.56Zm6.44-7.75h.8v10.15h-.8v-5.46h-1.64v5.27h-.79v-9.8h.79v3.81h1.64v-3.97Z"/>
      <path class="cls-2" d="M292.67,156.69v4.6h-4.94v-4.6h.8v1.55h3.34v-1.55h.8Zm-4.14,3.89h3.34v-1.64h-3.34v1.64Zm5.08,1.84c1.54,0,2.47,.87,2.47,2.01s-.93,2.01-2.47,2.01h-2.13c-1.54,0-2.47-.87-2.47-2.01s.93-2.01,2.47-2.01h2.13Zm-.16,3.32c1.21,0,1.8-.56,1.8-1.31s-.58-1.31-1.8-1.31h-1.81c-1.21,0-1.81,.57-1.81,1.31s.6,1.31,1.81,1.31h1.81Zm2.37-7.27h1.75v.71h-1.75v2.62h-.82v-5.6h.82v2.27Z"/>
      <path class="cls-2" d="M304.3,160.27v-3.92h.79v9.8h-.79v-5.17h-1.43v.64c0,2.41-.95,3.37-2.16,3.37s-2.19-.96-2.19-3.37v-1.52c0-2.41,.94-3.37,2.19-3.37s2.16,.96,2.16,3.37v.17h1.43Zm-2.22-.17c0-1.89-.58-2.64-1.38-2.64s-1.38,.75-1.38,2.64v1.51c0,1.89,.58,2.65,1.38,2.65s1.38-.76,1.38-2.65v-1.51Zm4.5-3.92h.8v10.15h-.8v-10.15Z"/>
      <path class="cls-2" d="M313.77,163.94c1.02,0,2.01-.07,3.13-.23l.09,.7c-1.05,.18-2.08,.24-3.35,.24h-1.26v-7.65h3.89v.73h-3.07v6.21h.56Zm6.44-7.75h.8v10.15h-.8v-5.46h-1.64v5.27h-.79v-9.8h.79v3.81h1.64v-3.97Z"/>
      <path class="cls-2" d="M328.97,157.33v.68h-6.12v-.68h2.66v-1.28h.81v1.28h2.66Zm-.49,3.46c0,1.21-1.12,1.9-2.55,1.9s-2.56-.69-2.56-1.9v-.19c0-1.21,1.13-1.88,2.56-1.88s2.55,.67,2.55,1.88v.19Zm-4.3-.01c0,.75,.77,1.22,1.75,1.22s1.75-.47,1.75-1.22v-.15c0-.75-.78-1.22-1.75-1.22s-1.75,.47-1.75,1.22v.15Zm1.2,2.83v2.01h6.35v.72h-7.18v-2.73h.82Zm5.75-4.3h1.76v.74h-1.76v3.96h-.81v-7.81h.81v3.11Z"/>
      <path class="cls-2" d="M336.88,159.43v-.23c0-1.8,1.24-2.67,2.76-2.67s2.74,.87,2.74,2.67v.23c0,1.79-1.24,2.65-2.74,2.65s-2.76-.86-2.76-2.65Zm4.68-.01v-.22c0-1.3-.82-1.97-1.92-1.97s-1.93,.67-1.93,1.97v.22c0,1.3,.82,1.96,1.93,1.96s1.92-.66,1.92-1.96Zm-3,6.93v-3.25h.82v2.52h6.46v.73h-7.29Zm5.97-2.44v-7.71h.82v7.71h-.82Z"/>
      <path class="cls-2" d="M351.11,158.35c0,.83-.11,1.59-.33,2.32l3.24,3.63-.6,.53-2.95-3.32c-.51,1.21-1.35,2.31-2.46,3.43l-.6-.54c1.81-1.8,2.88-3.54,2.88-6.05v-.57h-2.46v-.71h5.76v.71h-2.48v.57Zm4.26-2.16h.81v10.15h-.81v-10.15Z"/>
      <path class="cls-2" d="M363.47,164.81h4.53v.73h-9.89v-.73h4.54v-2.66h-3.26v-5.2h7.23v.71h-6.42v3.78h6.52v.7h-3.26v2.66Z"/>
      <path class="cls-2" d="M261.13,217.02v2.99h-3.11v-2.99h3.11Z"/>
      <path class="cls-2" d="M271.13,219.7h4.53v.67h-9.89v-.67h4.54v-.96h-3.16v-4.3h7.13v.67h-6.32v1.12h6.32v.67h-6.32v1.17h6.53v.67h-3.38v.96Zm.79,1.56c1.71,0,2.59,.64,2.59,1.6s-.88,1.59-2.59,1.59h-2.39c-1.71,0-2.59-.63-2.59-1.59s.88-1.6,2.59-1.6h2.39Zm-.19,2.52c1.33,0,1.96-.34,1.96-.92s-.63-.92-1.96-.92h-2c-1.34,0-1.97,.34-1.97,.92s.63,.92,1.97,.92h2Z"/>
      <path class="cls-2" d="M277.08,216.73v-.18c0-1.43,1.22-2.13,2.76-2.13s2.73,.7,2.73,2.13v.18c0,1.42-1.22,2.13-2.73,2.13s-2.76-.72-2.76-2.13Zm4.68-.02v-.14c0-.92-.81-1.44-1.92-1.44s-1.93,.52-1.93,1.44v.14c0,.95,.8,1.44,1.93,1.44s1.92-.5,1.92-1.44Zm-3,7.69v-2.63h5.97v-1.21h-6.02v-.67h6.83v2.56h-5.96v1.25h6.41v.69h-7.23Zm5.97-5.24v-4.97h.81v4.97h-.81Z"/>
      <path class="cls-2" d="M287.93,219.63v-1.52c0-2.41,1.22-3.37,2.71-3.37s2.71,.96,2.71,3.37v1.52c0,2.41-1.22,3.37-2.71,3.37s-2.71-.96-2.71-3.37Zm4.61-.01v-1.51c0-1.89-.81-2.64-1.9-2.64s-1.89,.75-1.89,2.64v1.51c0,1.89,.8,2.65,1.89,2.65s1.9-.76,1.9-2.65Zm3.03,4.73v-10.15h.82v10.15h-.82Z"/>
      <path class="cls-2" d="M307.51,218.91c-1.27,.21-2.96,.36-4.5,.36h-1.6v-4.53h.82v3.81h.93c1.25,0,2.91-.14,4.25-.33l.1,.69Zm-4.65,5.43v-3.93h6.58v3.93h-6.58Zm.82-3.22v2.51h4.93v-2.51h-4.93Zm7.51-4.65v.71h-1.75v2.51h-.82v-5.5h.82v2.28h1.75Z"/>
      <path class="cls-2" d="M318.12,215.33v.68h-6.12v-.68h2.66v-1.28h.81v1.28h2.65Zm-.49,3.46c0,1.21-1.12,1.9-2.55,1.9s-2.56-.69-2.56-1.9v-.19c0-1.21,1.13-1.88,2.56-1.88s2.55,.67,2.55,1.88v.19Zm-4.3-.01c0,.75,.77,1.22,1.75,1.22s1.75-.47,1.75-1.22v-.15c0-.75-.78-1.22-1.75-1.22s-1.75,.47-1.75,1.22v.15Zm1.2,2.83v2.01h6.35v.72h-7.17v-2.73h.82Zm5.75-4.3h1.76v.74h-1.76v3.96h-.81v-7.81h.81v3.11Z"/>
      <path class="cls-2" d="M330.93,220.09h4.53v.67h-9.89v-.67h4.54v-.96h-.66c-1.52,0-2.45-.52-2.45-1.4s.93-1.42,2.45-1.42h2.14c1.51,0,2.44,.52,2.44,1.42s-.93,1.4-2.44,1.4h-.66v.96Zm3.59-5.08v.64h-8.01v-.64h3.64v-.97h.81v.97h3.56Zm-7.67,7.37v-.69h7.34v2.76h-.82v-2.07h-6.51Zm2.78-3.89h1.76c1.2,0,1.82-.29,1.82-.76s-.62-.76-1.82-.76h-1.76c-1.19,0-1.82,.29-1.82,.76s.63,.76,1.82,.76Z"/>
      <path class="cls-2" d="M336.42,220.43v-.73h9.89v.73h-9.89Zm4.21-1.97c-1.83,0-2.99-.76-2.99-2.07s1.16-2.06,2.99-2.06h1.46c1.84,0,3,.76,3,2.06s-1.16,2.07-3,2.07h-1.46Zm-2.83,5.89v-2.95h.81v2.22h6.59v.73h-7.4Zm4.17-6.58c1.48,0,2.3-.54,2.3-1.36s-.82-1.36-2.3-1.36h-1.2c-1.49,0-2.31,.52-2.31,1.36s.82,1.36,2.31,1.36h1.2Z"/>
      <path class="cls-2" d="M353.46,216.36c0,.81-.1,1.57-.31,2.3l3.12,3.64-.63,.53-2.8-3.29c-.5,1.19-1.29,2.29-2.37,3.4l-.59-.53c1.74-1.8,2.78-3.54,2.78-6.05v-.58h-2.37v-.71h5.56v.71h-2.39v.58Zm6.67,1.8v.73h-1.75v5.46h-.81v-10.15h.81v3.97h1.75Z"/>
      <path class="cls-2" d="M364.11,217.81c-.54,.91-1.42,1.72-2.66,2.46l-.43-.62c1.92-1.2,2.92-2.51,2.92-4.26v-.79h.81v.79c0,.62-.1,1.18-.31,1.72l3.24,2.34-.46,.61-3.11-2.26Zm-.26,5.81h6.46v.73h-7.28v-3.09h.81v2.37Zm5.97-9.43v7.71h-.81v-7.71h.81Z"/>
      <path class="cls-2" d="M377.73,218.27v-3.92h.79v9.8h-.79v-5.17h-1.43v.64c0,2.41-.95,3.37-2.16,3.37s-2.19-.96-2.19-3.37v-1.52c0-2.41,.94-3.37,2.19-3.37s2.16,.96,2.16,3.37v.17h1.43Zm-2.22-.17c0-1.89-.58-2.64-1.38-2.64s-1.38,.75-1.38,2.64v1.51c0,1.89,.58,2.65,1.38,2.65s1.38-.76,1.38-2.65v-1.51Zm4.5-3.92h.8v10.15h-.8v-10.15Z"/>
      <path class="cls-2" d="M388.57,218.38v-4.03h.79v9.8h-.79v-5.06h-2.23c-.62,1.5-1.62,2.83-2.91,3.96l-.58-.57c2.03-1.74,3.32-4.11,3.32-6.49v-.22h-3.12v-.71h3.94v.78c0,.89-.14,1.74-.39,2.54h1.98Zm2.28-4.19h.8v10.15h-.8v-10.15Z"/>
      <path class="cls-2" d="M396.67,219.63v-1.52c0-2.41,1.22-3.37,2.71-3.37s2.71,.96,2.71,3.37v1.52c0,2.41-1.22,3.37-2.71,3.37s-2.71-.96-2.71-3.37Zm4.61-.01v-1.51c0-1.89-.81-2.64-1.9-2.64s-1.89,.75-1.89,2.64v1.51c0,1.89,.8,2.65,1.89,2.65s1.9-.76,1.9-2.65Zm3.03,4.73v-10.15h.82v10.15h-.82Z"/>
      <path class="cls-2" d="M407.52,217.07v-.22c0-1.6,1.22-2.38,2.75-2.38s2.73,.78,2.73,2.38v.22c0,1.6-1.22,2.38-2.73,2.38s-2.75-.78-2.75-2.38Zm4.67-.02v-.18c0-1.11-.81-1.69-1.92-1.69s-1.92,.58-1.92,1.69v.18c0,1.11,.81,1.69,1.92,1.69s1.92-.58,1.92-1.69Zm2.98,7.39v-3.1h-6.08v-.71h6.9v3.82h-.82Zm0-4.53v-5.71h.82v5.71h-.82Z"/>
      <path class="cls-2" d="M418.37,219.63v-1.52c0-2.41,1.22-3.37,2.71-3.37s2.71,.96,2.71,3.37v1.52c0,2.41-1.22,3.37-2.71,3.37s-2.71-.96-2.71-3.37Zm4.61-.01v-1.51c0-1.89-.81-2.64-1.9-2.64s-1.89,.75-1.89,2.64v1.51c0,1.89,.8,2.65,1.89,2.65s1.9-.76,1.9-2.65Zm3.03,4.73v-10.15h.82v10.15h-.82Z"/>
      <path class="cls-2" d="M435.42,221.89c1.05-.06,2.22-.14,3.22-.26l.09,.69c-1.59,.22-3.66,.35-5.22,.35h-1.83l-.05-.73h1.92c.31,0,.66-.01,1.04-.02v-1.91h-2.2v-5.01h5.15v.72h-4.33v3.59h4.43v.7h-2.23v1.88Zm4.22-7.7h.81v10.15h-.81v-10.15Z"/>
      <path class="cls-2" d="M442.38,220.44v-.73h9.89v.73h-9.89Zm8.59-2.75v.73h-7.21v-3.97h.81v3.25h6.4Zm-7.21,6.66v-2.95h.81v2.22h6.59v.73h-7.4Z"/>
      <path class="cls-2" d="M459.18,217.62c-.53,.8-1.4,1.51-2.62,2.18l-.4-.63c1.81-1.03,2.83-2.08,2.83-3.58v-.15h-2.4v-.7h5.63v.7h-2.43v.15c0,.5-.08,.95-.25,1.38l3.09,2.02-.42,.65-3.02-2.02Zm3.43,2.74c1.56,0,2.47,.9,2.47,2.05s-.92,2.04-2.47,2.04h-2.22c-1.56,0-2.47-.88-2.47-2.04s.92-2.05,2.47-2.05h2.22Zm-.16,3.38c1.22,0,1.81-.57,1.81-1.34s-.58-1.33-1.81-1.33h-1.9c-1.22,0-1.82,.59-1.82,1.33s.6,1.34,1.82,1.34h1.9Zm-.62-7.23h2.28v-2.31h.81v5.54h-.81v-2.54h-2.28v-.69Z"/>
      <path class="cls-2" d="M472.22,222.81h4.53v.73h-9.89v-.73h4.54v-2.66h-3.26v-5.2h7.23v.71h-6.42v3.78h6.52v.7h-3.26v2.66Z"/>
      <path class="cls-2" d="M261.13,246.02v2.99h-3.11v-2.99h3.11Z"/>
      <path class="cls-2" d="M266.23,246.43v-.23c0-1.8,1.24-2.67,2.76-2.67s2.74,.87,2.74,2.67v.23c0,1.79-1.24,2.65-2.74,2.65s-2.76-.86-2.76-2.65Zm4.68-.01v-.22c0-1.3-.82-1.97-1.92-1.97s-1.93,.67-1.93,1.97v.22c0,1.3,.82,1.96,1.93,1.96s1.92-.66,1.92-1.96Zm-3,6.93v-3.25h.82v2.52h6.47v.73h-7.29Zm5.97-2.44v-7.71h.82v7.71h-.82Z"/>
      <path class="cls-2" d="M281.98,251.81h4.53v.73h-9.89v-.73h4.54v-2.66h-3.26v-5.2h7.23v.71h-6.42v3.78h6.52v.7h-3.26v2.66Z"/>
      <path class="cls-2" d="M290.64,246.68c-.53,.83-1.4,1.54-2.62,2.23l-.4-.63c1.81-1.07,2.83-2.13,2.83-3.67v-.15h-2.4v-.71h5.62v.71h-2.41v.15c0,.51-.09,.98-.26,1.42l3.1,2.09-.42,.64-3.02-2.08Zm-1.16,3.66v-.71h6.9v3.82h-.81v-3.1h-6.09Zm6.09-7.14h.81v5.71h-.81v-2.6h-2.28v-.7h2.28v-2.41Z"/>
      <path class="cls-2" d="M304.94,245.35c0,.83-.11,1.59-.33,2.32l3.24,3.63-.59,.53-2.95-3.32c-.52,1.21-1.35,2.31-2.46,3.43l-.59-.54c1.81-1.8,2.88-3.54,2.88-6.05v-.57h-2.46v-.71h5.76v.71h-2.48v.57Zm4.26-2.16h.81v10.15h-.81v-10.15Z"/>
      <path class="cls-2" d="M314.71,250.63c.07-.56,.13-1.18,.16-1.74-.33,.01-.65,.01-.95,.01h-1.84l-.03-.68h1.92c1.3,0,3.42-.12,5.08-.32l.08,.66c-1.03,.14-2.28,.24-3.45,.3-.04,.59-.1,1.22-.17,1.83l-.8-.06Zm-2.06-5.19v-.14c0-1.2,1.22-1.83,2.76-1.83s2.76,.63,2.76,1.83v.14c0,1.2-1.22,1.82-2.76,1.82s-2.76-.62-2.76-1.82Zm.79-.02c0,.74,.82,1.17,1.97,1.17s1.98-.43,1.98-1.17v-.1c0-.74-.82-1.17-1.98-1.17s-1.97,.43-1.97,1.17v.1Zm1.34,7.21h6.58v.73h-7.39v-2.23h.81v1.51Zm2.06-2.95h3.22v-6.48h.81v8.13h-.81v-1h-3.22v-.65Z"/>
      <path class="cls-2" d="M325.72,250.92c1.16-.04,2.54-.14,3.68-.29l.09,.69c-1.54,.21-3.58,.34-5.09,.34h-1.74l-.03-.73h2.27v-3.78h.82v3.76Zm1.97-6.15h-4.33v-.71h5.15v.77c0,1.38-.22,3.07-.54,4.65l-.8-.13c.32-1.57,.52-3.29,.52-4.32v-.25Zm5.18,2.5v.71h-1.65v5.36h-.81v-10.15h.81v4.08h1.65Z"/>
      <path class="cls-2" d="M342.83,247.91c-1.27,.21-2.96,.36-4.5,.36h-1.6v-4.53h.82v3.81h.93c1.25,0,2.91-.14,4.25-.33l.1,.69Zm-4.65,5.43v-3.93h6.58v3.93h-6.58Zm.82-3.22v2.51h4.93v-2.51h-4.93Zm7.51-4.65v.71h-1.75v2.51h-.82v-5.5h.82v2.28h1.75Z"/>
      <path class="cls-2" d="M357.15,249.09h-4.53v1.29h3.26v3.08h-.82v-2.38h-6.51v-.7h3.26v-1.29h-4.54v-.69h9.89v.69Zm-1.37-5.7v3.92h-7.13v-3.92h.81v1.3h5.49v-1.3h.82Zm-6.32,3.25h5.49v-1.28h-5.49v1.28Z"/>
      <path class="cls-2" d="M364.29,244.33v.68h-6.12v-.68h2.65v-1.28h.81v1.28h2.66Zm-.49,3.46c0,1.21-1.12,1.9-2.55,1.9s-2.56-.69-2.56-1.9v-.19c0-1.21,1.13-1.88,2.56-1.88s2.55,.67,2.55,1.88v.19Zm-4.3-.01c0,.75,.77,1.22,1.75,1.22s1.75-.47,1.75-1.22v-.15c0-.75-.78-1.22-1.75-1.22s-1.75,.47-1.75,1.22v.15Zm1.2,2.83v2.01h6.35v.72h-7.17v-2.73h.82Zm5.75-4.3h1.76v.74h-1.76v3.96h-.81v-7.81h.81v3.11Z"/>
      <path class="cls-2" d="M377.22,245.52c-.58,1.43-2.22,2.49-4.57,3.22l-.32-.68c2.6-.81,4.26-2.11,4.3-3.54h-4.13v-.73h4.96v.5c0,.19-.01,.37-.04,.56h2.44v-1.65h.81v5.54h-.81v-1.31h-2.67v-.67h2.67v-1.24h-2.63Zm1.13,3.84c1.56,0,2.47,.9,2.47,2.05s-.92,2.04-2.47,2.04h-2.23c-1.54,0-2.46-.88-2.46-2.04s.92-2.05,2.46-2.05h2.23Zm-.16,3.38c1.22,0,1.81-.57,1.81-1.34s-.58-1.33-1.81-1.33h-1.9c-1.22,0-1.82,.59-1.82,1.33s.6,1.34,1.82,1.34h1.9Z"/>
      <path class="cls-2" d="M385.5,245.45c0,.8-.08,1.56-.25,2.28l2.53,3.64-.65,.45-2.16-3.11c-.4,1.11-1.02,2.17-1.85,3.23l-.63-.48c1.44-1.82,2.24-3.56,2.24-6.01v-.67h-1.88v-.71h4.57v.71h-1.91v.67Zm3.07,1.62v-3.71h.79v9.8h-.79v-5.38h-1.87v-.71h1.87Zm2.28-3.87h.8v10.15h-.8v-10.15Z"/>
      <path class="cls-2" d="M399.6,244.2v.67h-5.88v-.67h2.52v-1.14h.83v1.14h2.53Zm-.48,3.01c0,1.06-1.06,1.63-2.45,1.63s-2.45-.57-2.45-1.63v-.14c0-1.04,1.05-1.62,2.45-1.62s2.45,.57,2.45,1.62v.14Zm-4.12-.01c0,.58,.72,.97,1.67,.97s1.66-.38,1.66-.97v-.11c0-.58-.72-.97-1.66-.97s-1.67,.38-1.67,.97v.11Zm6.53,3.42v-1.21h.81v3.92h-6.79v-3.92h.81v1.21h5.16Zm-5.16,2.01h5.16v-1.31h-5.16v1.31Zm5.16-9.45h.81v5.62h-.81v-.8h-1.95v-.66h1.95v-1.2h-1.95v-.65h1.95v-2.31Z"/>
      <path class="cls-2" d="M410.7,248.43c-1.16,.19-2.61,.33-4.13,.33h-1.66v-2.9h3.83v-1.42h-3.83v-.69h4.63v2.81h-3.83v1.51h1.01c1.24,0,2.65-.12,3.89-.31l.09,.68Zm-4.39,2.13v-.73h6.9v3.61h-.81v-2.88h-6.09Zm6.09-7.36h.81v5.92h-.81v-1.96h-1.95v-.66h1.95v-1.25h-1.95v-.65h1.95v-1.4Z"/>
      <path class="cls-2" d="M415.27,251.67l-.05-.73h1.92c1.3,0,3.42-.12,5.08-.32l.09,.69c-1.59,.22-3.66,.35-5.22,.35h-1.83Zm.56-5.07v-.23c0-1.78,1.24-2.63,2.77-2.63s2.76,.85,2.76,2.63v.23c0,1.78-1.25,2.63-2.76,2.63s-2.77-.85-2.77-2.63Zm4.7-.01v-.21c0-1.28-.82-1.93-1.93-1.93s-1.95,.65-1.95,1.93v.21c0,1.26,.82,1.91,1.95,1.91s1.93-.65,1.93-1.91Zm2.7,6.75v-10.15h.81v10.15h-.81Z"/>
      <path class="cls-2" d="M434.11,248.7h4.53v.67h-9.89v-.67h4.54v-.96h-3.16v-4.3h7.13v.67h-6.32v1.12h6.32v.67h-6.32v1.17h6.54v.67h-3.38v.96Zm.79,1.56c1.71,0,2.59,.64,2.59,1.6s-.88,1.59-2.59,1.59h-2.39c-1.71,0-2.59-.63-2.59-1.59s.88-1.6,2.59-1.6h2.39Zm-.19,2.52c1.33,0,1.96-.34,1.96-.92s-.63-.92-1.96-.92h-2c-1.34,0-1.97,.34-1.97,.92s.63,.92,1.97,.92h2Z"/>
      <path class="cls-2" d="M440.06,245.73v-.18c0-1.43,1.22-2.13,2.76-2.13s2.74,.7,2.74,2.13v.18c0,1.42-1.22,2.13-2.74,2.13s-2.76-.72-2.76-2.13Zm4.68-.02v-.14c0-.92-.81-1.44-1.92-1.44s-1.93,.52-1.93,1.44v.14c0,.95,.8,1.44,1.93,1.44s1.92-.5,1.92-1.44Zm-3,7.69v-2.63h5.97v-1.21h-6.02v-.67h6.83v2.56h-5.96v1.25h6.41v.69h-7.23Zm5.97-5.24v-4.97h.81v4.97h-.81Z"/>
      <path class="cls-2" d="M451.17,244.78v-.71h4.99v.78c0,2.87-1.79,5.38-4.67,7.22l-.48-.62c2.68-1.67,4.33-4.07,4.33-6.45v-.22h-4.17Zm7.39-1.58h.81v10.15h-.81v-10.15Z"/>
      <path class="cls-2" d="M469.4,243.19h.82v10.15h-.82v-3.76h-2.31c-.29,1.71-1.37,2.41-2.63,2.41-1.49,0-2.7-.96-2.7-3.37v-1.52c0-2.41,1.21-3.37,2.7-3.37,1.14,0,2.13,.57,2.52,1.94h2.43v-2.49Zm-3.07,3.92c0-1.89-.8-2.64-1.88-2.64s-1.88,.75-1.88,2.64v1.51c0,1.89,.8,2.65,1.88,2.65s1.88-.76,1.88-2.65v-1.51Zm3.07,1.75v-2.46h-2.28c.02,.22,.03,.46,.03,.71v1.75h2.24Z"/>
      <path class="cls-2" d="M477.5,251.81h4.53v.73h-9.89v-.73h4.54v-2.66h-3.26v-5.2h7.23v.71h-6.42v3.78h6.52v.7h-3.26v2.66Z"/>
      <path class="cls-2" d="M261.13,275.02v2.99h-3.11v-2.99h3.11Z"/>
      <path class="cls-2" d="M267.6,279.94c1.02,0,2.01-.07,3.14-.23l.09,.7c-1.05,.18-2.08,.24-3.35,.24h-1.26v-7.65h3.89v.73h-3.07v6.21h.56Zm6.44-7.75h.8v10.15h-.8v-5.46h-1.64v5.27h-.79v-9.8h.79v3.81h1.64v-3.97Z"/>
      <path class="cls-2" d="M286.51,278.09h-4.53v1.29h3.26v3.08h-.82v-2.38h-6.51v-.7h3.26v-1.29h-4.54v-.69h9.89v.69Zm-1.37-5.7v3.92h-7.13v-3.92h.81v1.3h5.49v-1.3h.82Zm-6.32,3.25h5.49v-1.28h-5.49v1.28Z"/>
      <path class="cls-2" d="M294.1,274.35c0,.83-.11,1.59-.33,2.32l3.24,3.63-.59,.53-2.95-3.32c-.51,1.21-1.35,2.31-2.46,3.43l-.59-.54c1.81-1.8,2.88-3.54,2.88-6.05v-.57h-2.46v-.71h5.76v.71h-2.48v.57Zm4.26-2.16h.81v10.15h-.81v-10.15Z"/>
      <path class="cls-2" d="M303.87,279.63c.07-.56,.13-1.18,.16-1.74-.33,.01-.65,.01-.95,.01h-1.84l-.04-.68h1.92c1.3,0,3.42-.12,5.08-.32l.08,.66c-1.03,.14-2.28,.24-3.45,.3-.04,.59-.1,1.22-.17,1.83l-.8-.06Zm-2.06-5.19v-.14c0-1.2,1.22-1.83,2.76-1.83s2.76,.63,2.76,1.83v.14c0,1.2-1.22,1.82-2.76,1.82s-2.76-.62-2.76-1.82Zm.79-.02c0,.74,.82,1.17,1.97,1.17s1.98-.43,1.98-1.17v-.1c0-.74-.82-1.17-1.98-1.17s-1.97,.43-1.97,1.17v.1Zm1.34,7.21h6.58v.73h-7.39v-2.23h.81v1.51Zm2.06-2.95h3.22v-6.48h.81v8.13h-.81v-1h-3.22v-.65Z"/>
      <path class="cls-2" d="M312.08,280.67l-.05-.73h1.92c1.3,0,3.42-.12,5.08-.32l.09,.69c-1.59,.22-3.66,.35-5.22,.35h-1.83Zm.56-5.07v-.23c0-1.78,1.24-2.63,2.77-2.63s2.76,.85,2.76,2.63v.23c0,1.78-1.25,2.63-2.76,2.63s-2.77-.85-2.77-2.63Zm4.7-.01v-.21c0-1.28-.82-1.93-1.93-1.93s-1.95,.65-1.95,1.93v.21c0,1.26,.82,1.91,1.95,1.91s1.93-.65,1.93-1.91Zm2.7,6.75v-10.15h.81v10.15h-.81Z"/>
      <path class="cls-2" d="M325.57,277h9.89v.7h-9.89v-.7Zm.89-1.33c2.46-.63,3.72-1.5,3.72-2.51v-.02h-3.17v-.69h7.02v.69h-3.04c0,.37-.09,.7-.26,1.02l3.83,1.52-.3,.66-4.02-1.6c-.69,.64-1.85,1.17-3.55,1.6l-.23-.67Zm5.21,3.17c1.73,0,2.63,.77,2.63,1.8s-.9,1.81-2.63,1.81h-2.31c-1.72,0-2.62-.76-2.62-1.81s.9-1.8,2.62-1.8h2.31Zm-.18,2.93c1.35,0,1.99-.45,1.99-1.12s-.64-1.1-1.99-1.1h-1.95c-1.35,0-1.99,.43-1.99,1.1s.64,1.12,1.99,1.12h1.95Z"/>
      <path class="cls-2" d="M341.7,273.28c0,2.06-1.81,3.49-4.73,4.41l-.32-.68c2.55-.79,4.19-2.1,4.23-3.5h-4.05v-.72h4.86v.48Zm-3.51,9.07v-3.93h6.58v3.93h-6.58Zm.82-3.22v2.51h4.93v-2.51h-4.93Zm7.51-4.65v.71h-1.75v2.51h-.82v-5.5h.82v2.28h1.75Z"/>
      <path class="cls-2" d="M353.25,276.27v-3.92h.79v9.8h-.79v-5.17h-1.43v.64c0,2.41-.95,3.37-2.16,3.37s-2.19-.96-2.19-3.37v-1.52c0-2.41,.94-3.37,2.19-3.37s2.16,.96,2.16,3.37v.17h1.43Zm-2.22-.17c0-1.89-.58-2.64-1.38-2.64s-1.38,.75-1.38,2.64v1.51c0,1.89,.58,2.65,1.38,2.65s1.38-.76,1.38-2.65v-1.51Zm4.5-3.92h.8v10.15h-.8v-10.15Z"/>
      <path class="cls-2" d="M362.71,279.94c1.02,0,2.01-.07,3.13-.23l.09,.7c-1.05,.18-2.08,.24-3.35,.24h-1.26v-7.65h3.89v.73h-3.07v6.21h.56Zm6.44-7.75h.8v10.15h-.8v-5.46h-1.64v5.27h-.79v-9.8h.79v3.81h1.64v-3.97Z"/>
      <path class="cls-2" d="M377.92,273.33v.68h-6.12v-.68h2.65v-1.28h.81v1.28h2.66Zm-.49,3.46c0,1.21-1.12,1.9-2.55,1.9s-2.56-.69-2.56-1.9v-.19c0-1.21,1.13-1.88,2.56-1.88s2.55,.67,2.55,1.88v.19Zm-4.3-.01c0,.75,.77,1.22,1.75,1.22s1.75-.47,1.75-1.22v-.15c0-.75-.78-1.22-1.75-1.22s-1.75,.47-1.75,1.22v.15Zm1.2,2.83v2.01h6.35v.72h-7.18v-2.73h.82Zm5.74-4.3h1.76v.74h-1.76v3.96h-.81v-7.81h.81v3.11Z"/>
      <path class="cls-2" d="M385.51,280.67l-.04-.73h1.92c1.3,0,3.42-.12,5.08-.32l.09,.69c-1.59,.22-3.66,.35-5.22,.35h-1.83Zm.56-5.07v-.23c0-1.78,1.24-2.63,2.77-2.63s2.76,.85,2.76,2.63v.23c0,1.78-1.25,2.63-2.76,2.63s-2.77-.85-2.77-2.63Zm4.7-.01v-.21c0-1.28-.82-1.93-1.93-1.93s-1.95,.65-1.95,1.93v.21c0,1.26,.82,1.91,1.95,1.91s1.93-.65,1.93-1.91Zm2.7,6.75v-10.15h.81v10.15h-.81Z"/>
      <path class="cls-2" d="M401.71,274.74c-.59,1.56-2.22,2.77-4.54,3.64l-.34-.67c2.64-.99,4.3-2.53,4.3-4.15h-4.13v-.71h4.96v.54c0,.23-.02,.45-.06,.67h2.45v-1.87h.81v7.71h-.81v-2.96h-2.67v-.67h2.67v-1.53h-2.63Zm-2.53,6.88h6.47v.73h-7.28v-3.25h.81v2.52Z"/>
      <path class="cls-2" d="M261.13,304.02v2.99h-3.11v-2.99h3.11Z"/>
      <path class="cls-2" d="M275.66,307.09h-4.53v1.29h3.26v3.08h-.82v-2.38h-6.51v-.7h3.26v-1.29h-4.54v-.69h9.89v.69Zm-1.37-5.7v3.92h-7.13v-3.92h.81v1.3h5.49v-1.3h.82Zm-6.32,3.25h5.49v-1.28h-5.49v1.28Z"/>
      <path class="cls-2" d="M282.8,302.33v.68h-6.12v-.68h2.65v-1.28h.81v1.28h2.66Zm-.49,3.46c0,1.21-1.12,1.9-2.55,1.9s-2.56-.69-2.56-1.9v-.19c0-1.21,1.13-1.88,2.56-1.88s2.55,.67,2.55,1.88v.19Zm-4.3-.01c0,.75,.77,1.22,1.75,1.22s1.75-.47,1.75-1.22v-.15c0-.75-.78-1.22-1.75-1.22s-1.75,.47-1.75,1.22v.15Zm1.2,2.83v2.01h6.35v.72h-7.17v-2.73h.82Zm5.75-4.3h1.76v.74h-1.76v3.96h-.81v-7.81h.81v3.11Z"/>
      <path class="cls-2" d="M293.16,303.8c0,.71-.08,1.39-.23,2.04l2.52,3.52-.65,.46-2.15-3.04c-.39,1.08-1.02,2.1-1.9,3.16l-.61-.48c1.46-1.78,2.23-3.44,2.23-5.65v-.15h-1.91v-.71h1.91v-1.73h.8v1.73h1.95v.71h-1.96v.15Zm3.07,1.47v-3.92h.79v9.8h-.79v-5.17h-1.87v-.71h1.87Zm2.28-4.08h.8v10.15h-.8v-10.15Z"/>
      <path class="cls-2" d="M304,303.45c0,.8-.08,1.56-.25,2.28l2.53,3.64-.65,.45-2.16-3.11c-.4,1.11-1.02,2.17-1.85,3.23l-.63-.48c1.44-1.82,2.24-3.56,2.24-6.01v-.67h-1.88v-.71h4.57v.71h-1.91v.67Zm3.07,1.62v-3.71h.79v9.8h-.79v-5.38h-1.87v-.71h1.87Zm2.28-3.87h.8v10.15h-.8v-10.15Z"/>
      <path class="cls-2" d="M317.93,305.27v-3.92h.79v9.8h-.79v-5.17h-1.43v.64c0,2.41-.95,3.37-2.16,3.37s-2.19-.96-2.19-3.37v-1.52c0-2.41,.94-3.37,2.19-3.37s2.16,.96,2.16,3.37v.17h1.43Zm-2.22-.17c0-1.89-.58-2.64-1.38-2.64s-1.38,.75-1.38,2.64v1.51c0,1.89,.58,2.65,1.38,2.65s1.38-.76,1.38-2.65v-1.51Zm4.5-3.92h.8v10.15h-.8v-10.15Z"/>
      <path class="cls-2" d="M327.39,308.94c1.02,0,2.01-.07,3.14-.23l.09,.7c-1.05,.18-2.08,.24-3.35,.24h-1.26v-7.65h3.89v.73h-3.07v6.21h.56Zm6.44-7.75h.8v10.15h-.8v-5.46h-1.64v5.27h-.79v-9.8h.79v3.81h1.64v-3.97Z"/>
      <path class="cls-2" d="M342.6,302.33v.68h-6.12v-.68h2.66v-1.28h.81v1.28h2.65Zm-.49,3.46c0,1.21-1.12,1.9-2.55,1.9s-2.56-.69-2.56-1.9v-.19c0-1.21,1.13-1.88,2.56-1.88s2.55,.67,2.55,1.88v.19Zm-4.3-.01c0,.75,.77,1.22,1.75,1.22s1.75-.47,1.75-1.22v-.15c0-.75-.78-1.22-1.75-1.22s-1.75,.47-1.75,1.22v.15Zm1.2,2.83v2.01h6.35v.72h-7.17v-2.73h.82Zm5.75-4.3h1.76v.74h-1.76v3.96h-.81v-7.81h.81v3.11Z"/>
      <path class="cls-2" d="M356.91,306.15c-1.56,.23-3.43,.38-5,.38h-1.59l-.05-.72h1.34v-3.36h-1.21v-.71h6v.71h-1.34v3.21c.59-.06,1.2-.12,1.76-.2l.09,.68Zm-.26,1.32c1.56,0,2.47,.86,2.47,1.99s-.92,1.98-2.47,1.98h-2.22c-1.56,0-2.47-.85-2.47-1.98s.92-1.99,2.47-1.99h2.22Zm-2.38-5.02h-1.85v3.36c.56-.01,1.19-.04,1.85-.09v-3.27Zm2.22,8.28c1.22,0,1.82-.55,1.82-1.29s-.6-1.28-1.82-1.28h-1.9c-1.22,0-1.82,.55-1.82,1.28s.59,1.29,1.82,1.29h1.9Zm-.19-8.06h1.85v-1.47h.81v5.65h-.81v-1.83h-1.85v-.65h1.85v-1.06h-1.85v-.65Z"/>
      <path class="cls-2" d="M361.31,302.78v-.71h4.86v.78c0,2.87-1.74,5.37-4.54,7.22l-.49-.62c2.61-1.68,4.22-4.07,4.22-6.45v-.22h-4.05Zm9.68,2.39v.73h-1.75v5.46h-.82v-10.15h.82v3.97h1.75Z"/>
      <path class="cls-2" d="M375.22,308.89c1.03-.04,2.16-.13,3.13-.25l.09,.69c-1.54,.21-3.58,.34-5.09,.34h-1.74l-.03-.73h1.82c.3,0,.63-.01,1-.02v-1.72c-1.33-.12-2.36-.98-2.36-2.61v-.23c0-1.78,1.22-2.63,2.71-2.63s2.71,.85,2.71,2.63v.23c0,1.58-.97,2.43-2.24,2.6v1.69Zm-2.36-4.3c0,1.26,.8,1.91,1.89,1.91s1.89-.65,1.89-1.91v-.21c0-1.28-.8-1.93-1.89-1.93s-1.89,.65-1.89,1.93v.21Zm8.96,.68v.71h-1.65v5.36h-.81v-10.15h.81v4.08h1.65Z"/>
      <path class="cls-2" d="M389.1,303.08c0,.88-.11,1.72-.34,2.51l3.29,3.72-.61,.52-2.97-3.38c-.52,1.23-1.35,2.38-2.52,3.49l-.57-.54c1.95-1.84,2.93-3.75,2.93-6.32v-1.26h.8v1.26Zm4.36-1.89h.82v10.15h-.82v-10.15Z"/>
      <path class="cls-2" d="M399.05,304.59c-.52,.81-1.37,1.54-2.6,2.21l-.4-.63c1.77-1.03,2.77-2.1,2.77-3.58v-.15h-2.37v-.7h5.56v.7h-2.39v.15c0,.47-.08,.91-.24,1.33l3.05,2.02-.43,.64-2.95-2Zm3.29,2.77c1.54,0,2.46,.9,2.46,2.05s-.92,2.04-2.46,2.04h-2.14c-1.53,0-2.46-.88-2.46-2.04s.93-2.05,2.46-2.05h2.14Zm-.16,3.38c1.21,0,1.8-.57,1.8-1.34s-.58-1.33-1.8-1.33h-1.82c-1.21,0-1.8,.59-1.8,1.33s.58,1.34,1.8,1.34h1.82Zm2.36-7.27h1.75v.71h-1.75v2.56h-.81v-5.54h.81v2.27Z"/>
      <path class="cls-2" d="M412.54,303.52c-.58,1.43-2.22,2.49-4.57,3.22l-.32-.68c2.6-.81,4.26-2.11,4.3-3.54h-4.13v-.73h4.96v.5c0,.19-.01,.37-.05,.56h2.44v-1.65h.81v5.54h-.81v-1.31h-2.67v-.67h2.67v-1.24h-2.63Zm1.13,3.84c1.56,0,2.47,.9,2.47,2.05s-.92,2.04-2.47,2.04h-2.23c-1.54,0-2.46-.88-2.46-2.04s.92-2.05,2.46-2.05h2.23Zm-.16,3.38c1.22,0,1.81-.57,1.81-1.34s-.58-1.33-1.81-1.33h-1.9c-1.22,0-1.82,.59-1.82,1.33s.59,1.34,1.82,1.34h1.9Z"/>
      <path class="cls-2" d="M420.82,303.45c0,.8-.08,1.56-.25,2.28l2.53,3.64-.65,.45-2.16-3.11c-.4,1.11-1.02,2.17-1.85,3.23l-.63-.48c1.44-1.82,2.24-3.56,2.24-6.01v-.67h-1.88v-.71h4.57v.71h-1.91v.67Zm3.07,1.62v-3.71h.79v9.8h-.79v-5.38h-1.87v-.71h1.87Zm2.28-3.87h.8v10.15h-.8v-10.15Z"/>
      <path class="cls-2" d="M434.74,305.27v-3.92h.79v9.8h-.79v-5.17h-1.43v.64c0,2.41-.95,3.37-2.16,3.37s-2.19-.96-2.19-3.37v-1.52c0-2.41,.94-3.37,2.19-3.37s2.16,.96,2.16,3.37v.17h1.43Zm-2.22-.17c0-1.89-.58-2.64-1.38-2.64s-1.38,.75-1.38,2.64v1.51c0,1.89,.58,2.65,1.38,2.65s1.38-.76,1.38-2.65v-1.51Zm4.5-3.92h.8v10.15h-.8v-10.15Z"/>
      <path class="cls-2" d="M444.2,308.94c1.02,0,2.01-.07,3.14-.23l.09,.7c-1.05,.18-2.08,.24-3.35,.24h-1.26v-7.65h3.89v.73h-3.07v6.21h.56Zm6.44-7.75h.8v10.15h-.8v-5.46h-1.64v5.27h-.79v-9.8h.79v3.81h1.64v-3.97Z"/>
      <path class="cls-2" d="M459.41,302.33v.68h-6.12v-.68h2.66v-1.28h.81v1.28h2.65Zm-.49,3.46c0,1.21-1.12,1.9-2.55,1.9s-2.56-.69-2.56-1.9v-.19c0-1.21,1.13-1.88,2.56-1.88s2.55,.67,2.55,1.88v.19Zm-4.3-.01c0,.75,.77,1.22,1.75,1.22s1.75-.47,1.75-1.22v-.15c0-.75-.78-1.22-1.75-1.22s-1.75,.47-1.75,1.22v.15Zm1.2,2.83v2.01h6.35v.72h-7.18v-2.73h.82Zm5.74-4.3h1.76v.74h-1.76v3.96h-.81v-7.81h.81v3.11Z"/>
      <path class="cls-2" d="M476.75,307.63v.71h-4.53v3.11h-.81v-3.11h-4.54v-.71h9.89Zm-5.69-1.47c-1.89,0-3.06-.9-3.06-2.3s1.17-2.28,3.06-2.28h1.5c1.88,0,3.07,.9,3.07,2.28s-1.19,2.3-3.07,2.3h-1.5Zm.13-3.87c-1.51,0-2.37,.64-2.37,1.57s.86,1.59,2.37,1.59h1.24c1.52,0,2.38-.65,2.38-1.59s-.86-1.57-2.38-1.57h-1.24Z"/>
      <path class="cls-2" d="M483.06,309.79h4.53v.72h-9.89v-.72h4.54v-1.76h-.76c-1.52,0-2.47-.8-2.47-1.93s.95-1.95,2.47-1.95h2.29c1.52,0,2.47,.81,2.47,1.95s-.95,1.93-2.47,1.93h-.72v1.76Zm3.7-7.26v.69h-8.23v-.69h3.74v-1.24h.81v1.24h3.67Zm-5.07,4.81h1.9c1.21,0,1.84-.53,1.84-1.24s-.63-1.23-1.84-1.23h-1.9c-1.2,0-1.83,.53-1.83,1.23s.63,1.24,1.83,1.24Z"/>
      <path class="cls-2" d="M493.91,309.81h4.53v.73h-9.89v-.73h4.54v-2.66h-3.26v-5.2h7.23v.71h-6.42v3.78h6.52v.7h-3.26v2.66Z"/>
      <path class="cls-2" d="M261.13,333.02v2.99h-3.11v-2.99h3.11Z"/>
      <path class="cls-2" d="M266.23,331.78v-.71h3.94v.78c0,2.87-1.41,5.31-3.55,7.22l-.58-.57c2.03-1.74,3.32-4.11,3.32-6.49v-.22h-3.12Zm7.8-1.58h.8v10.15h-.8v-5.46h-1.64v5.27h-.8v-9.8h.8v3.81h1.64v-3.97Z"/>
      <path class="cls-2" d="M282.79,331.25v.67h-5.88v-.67h2.52v-1.19h.83v1.19h2.53Zm-.48,3.16c0,1.1-1.06,1.72-2.45,1.72s-2.45-.62-2.45-1.72v-.15c0-1.1,1.05-1.71,2.45-1.71s2.45,.6,2.45,1.71v.15Zm-4.12-.01c0,.64,.72,1.06,1.67,1.06s1.66-.42,1.66-1.06v-.12c0-.64-.72-1.06-1.66-1.06s-1.67,.42-1.67,1.06v.12Zm.46,3.29v-.73h6.89v3.49h-.81v-2.76h-6.08Zm6.08-7.49h.81v6.05h-.81v-1.23h-1.95v-.65h1.95v-1.21h-1.95v-.65h1.95v-2.31Z"/>
      <path class="cls-2" d="M287.61,338.67l-.05-.73h1.92c1.3,0,3.42-.12,5.08-.32l.09,.69c-1.59,.22-3.66,.35-5.22,.35h-1.83Zm.56-5.07v-.23c0-1.78,1.24-2.63,2.77-2.63s2.76,.85,2.76,2.63v.23c0,1.78-1.25,2.63-2.76,2.63s-2.77-.85-2.77-2.63Zm4.7-.01v-.21c0-1.28-.82-1.93-1.93-1.93s-1.95,.65-1.95,1.93v.21c0,1.26,.82,1.91,1.95,1.91s1.93-.65,1.93-1.91Zm2.7,6.75v-10.15h.81v10.15h-.81Z"/>
      <path class="cls-2" d="M304.21,333.45c-.53,.83-1.38,1.55-2.57,2.21l-.42-.64c1.84-1.04,2.83-2.22,2.83-3.81v-.66h.81v.66c0,.56-.09,1.08-.29,1.56l3.09,2.1-.44,.63-3.01-2.06Zm3.49,2.92c1.56,0,2.47,.9,2.47,2.05s-.92,2.04-2.47,2.04h-2.22c-1.56,0-2.47-.88-2.47-2.04s.92-2.05,2.47-2.05h2.22Zm-.16,3.38c1.22,0,1.81-.57,1.81-1.34s-.58-1.33-1.81-1.33h-1.9c-1.22,0-1.82,.59-1.82,1.33s.59,1.34,1.82,1.34h1.9Zm1.66-3.99v-2.81h-2.5v-.7h2.5v-2.04h.81v5.54h-.81Z"/>
      <path class="cls-2" d="M314.88,337.92c1.16-.04,2.54-.14,3.69-.29l.09,.69c-1.54,.21-3.58,.34-5.09,.34h-1.74l-.04-.73h2.27v-3.78h.82v3.76Zm1.97-6.15h-4.33v-.71h5.15v.77c0,1.38-.22,3.07-.54,4.65l-.8-.13c.32-1.57,.52-3.29,.52-4.32v-.25Zm5.18,2.5v.71h-1.65v5.36h-.81v-10.15h.81v4.08h1.65Z"/>
      <path class="cls-2" d="M326.27,337.89c1.03-.04,2.16-.13,3.14-.25l.09,.69c-1.54,.21-3.58,.34-5.09,.34h-1.74l-.03-.73h1.82c.3,0,.63-.01,1-.02v-1.72c-1.33-.12-2.36-.98-2.36-2.61v-.23c0-1.78,1.22-2.63,2.71-2.63s2.71,.85,2.71,2.63v.23c0,1.58-.97,2.43-2.24,2.6v1.69Zm-2.36-4.3c0,1.26,.8,1.91,1.89,1.91s1.89-.65,1.89-1.91v-.21c0-1.28-.8-1.93-1.89-1.93s-1.89,.65-1.89,1.93v.21Zm8.96,.68v.71h-1.65v5.36h-.81v-10.15h.81v4.08h1.65Z"/>
      <path class="cls-2" d="M338.24,337.94c1.02,0,2.01-.07,3.13-.23l.09,.7c-1.05,.18-2.08,.24-3.35,.24h-1.26v-7.65h3.89v.73h-3.07v6.21h.56Zm6.44-7.75h.8v10.15h-.8v-5.46h-1.64v5.27h-.79v-9.8h.79v3.81h1.64v-3.97Z"/>
      <path class="cls-2" d="M357.15,336.09h-4.53v1.29h3.26v3.08h-.82v-2.38h-6.51v-.7h3.26v-1.29h-4.54v-.69h9.89v.69Zm-1.37-5.7v3.92h-7.13v-3.92h.81v1.3h5.49v-1.3h.82Zm-6.32,3.25h5.49v-1.28h-5.49v1.28Z"/>
      <path class="cls-2" d="M364.74,332.35c0,.83-.12,1.59-.33,2.32l3.24,3.63-.59,.53-2.95-3.32c-.52,1.21-1.35,2.31-2.46,3.43l-.6-.54c1.81-1.8,2.88-3.54,2.88-6.05v-.57h-2.46v-.71h5.76v.71h-2.48v.57Zm4.26-2.16h.81v10.15h-.81v-10.15Z"/>
      <path class="cls-2" d="M374.51,337.63c.07-.56,.13-1.18,.16-1.74-.33,.01-.65,.01-.95,.01h-1.84l-.04-.68h1.92c1.3,0,3.42-.12,5.08-.32l.08,.66c-1.03,.14-2.28,.24-3.44,.3-.05,.59-.1,1.22-.17,1.83l-.8-.06Zm-2.06-5.19v-.14c0-1.2,1.22-1.83,2.76-1.83s2.76,.63,2.76,1.83v.14c0,1.2-1.22,1.82-2.76,1.82s-2.76-.62-2.76-1.82Zm.79-.02c0,.74,.82,1.17,1.97,1.17s1.98-.43,1.98-1.17v-.1c0-.74-.82-1.17-1.98-1.17s-1.97,.43-1.97,1.17v.1Zm1.34,7.21h6.58v.73h-7.39v-2.23h.81v1.51Zm2.06-2.95h3.22v-6.48h.81v8.13h-.81v-1h-3.22v-.65Z"/>
      <path class="cls-2" d="M387.19,337.94c1.02,0,2.01-.07,3.14-.23l.09,.7c-1.05,.18-2.08,.24-3.35,.24h-1.26v-7.65h3.89v.73h-3.07v6.21h.56Zm6.44-7.75h.8v10.15h-.8v-5.46h-1.64v5.27h-.79v-9.8h.79v3.81h1.64v-3.97Z"/>
      <path class="cls-2" d="M402.4,331.33v.68h-6.12v-.68h2.65v-1.28h.81v1.28h2.66Zm-.49,3.46c0,1.21-1.12,1.9-2.55,1.9s-2.56-.69-2.56-1.9v-.19c0-1.21,1.13-1.88,2.56-1.88s2.55,.67,2.55,1.88v.19Zm-4.3-.01c0,.75,.77,1.22,1.75,1.22s1.75-.47,1.75-1.22v-.15c0-.75-.78-1.22-1.75-1.22s-1.75,.47-1.75,1.22v.15Zm1.2,2.83v2.01h6.35v.72h-7.18v-2.73h.82Zm5.74-4.3h1.76v.74h-1.76v3.96h-.81v-7.81h.81v3.11Z"/>
      <path class="cls-2" d="M410.3,333.43v-.23c0-1.8,1.24-2.67,2.76-2.67s2.74,.87,2.74,2.67v.23c0,1.79-1.24,2.65-2.74,2.65s-2.76-.86-2.76-2.65Zm4.68-.01v-.22c0-1.3-.82-1.97-1.92-1.97s-1.93,.67-1.93,1.97v.22c0,1.3,.82,1.96,1.93,1.96s1.92-.66,1.92-1.96Zm-3,6.93v-3.25h.82v2.52h6.47v.73h-7.29Zm5.97-2.44v-7.71h.82v7.71h-.82Z"/>
      <path class="cls-2" d="M424.54,332.35c0,.83-.11,1.59-.33,2.32l3.24,3.63-.59,.53-2.95-3.32c-.51,1.21-1.35,2.31-2.46,3.43l-.59-.54c1.81-1.8,2.88-3.54,2.88-6.05v-.57h-2.46v-.71h5.76v.71h-2.48v.57Zm4.26-2.16h.81v10.15h-.81v-10.15Z"/>
      <path class="cls-2" d="M436.89,338.81h4.53v.73h-9.89v-.73h4.54v-2.66h-3.26v-5.2h7.23v.71h-6.42v3.78h6.52v.7h-3.26v2.66Z"/>
      <path class="cls-2" d="M261.13,362.02v2.99h-3.11v-2.99h3.11Z"/>
      <path class="cls-2" d="M267.6,366.94c1.02,0,2.01-.07,3.14-.23l.09,.7c-1.05,.18-2.08,.24-3.35,.24h-1.26v-7.65h3.89v.73h-3.07v6.21h.56Zm6.44-7.75h.8v10.15h-.8v-5.46h-1.64v5.27h-.79v-9.8h.79v3.81h1.64v-3.97Z"/>
      <path class="cls-2" d="M286.51,365.09h-4.53v1.29h3.26v3.08h-.82v-2.38h-6.51v-.7h3.26v-1.29h-4.54v-.69h9.89v.69Zm-1.37-5.7v3.92h-7.13v-3.92h.81v1.3h5.49v-1.3h.82Zm-6.32,3.25h5.49v-1.28h-5.49v1.28Z"/>
      <path class="cls-2" d="M300.14,365.85v.7h-4.53v2.92h-.81v-2.92h-4.54v-.7h9.89Zm-1.04-1.95v.67h-7.56v-4.84h7.34v.69h-6.52v1.38h6.52v.68h-6.52v1.42h6.75Z"/>
      <path class="cls-2" d="M304.51,361.36c0,.81-.1,1.57-.31,2.3l3.12,3.64-.63,.53-2.8-3.29c-.5,1.19-1.29,2.29-2.37,3.4l-.59-.53c1.74-1.8,2.78-3.54,2.78-6.05v-.58h-2.37v-.71h5.56v.71h-2.39v.58Zm6.67,1.8v.73h-1.75v5.46h-.81v-10.15h.81v3.97h1.75Z"/>
      <path class="cls-2" d="M315.42,366.89c1.03-.04,2.16-.13,3.14-.25l.09,.69c-1.54,.21-3.58,.34-5.09,.34h-1.74l-.04-.73h1.82c.3,0,.63-.01,1-.02v-1.72c-1.33-.12-2.36-.98-2.36-2.61v-.23c0-1.78,1.22-2.63,2.71-2.63s2.71,.85,2.71,2.63v.23c0,1.58-.97,2.43-2.24,2.6v1.69Zm-2.36-4.3c0,1.26,.8,1.91,1.89,1.91s1.89-.65,1.89-1.91v-.21c0-1.28-.8-1.93-1.89-1.93s-1.89,.65-1.89,1.93v.21Zm8.96,.68v.71h-1.65v5.36h-.81v-10.15h.81v4.08h1.65Z"/>
      <path class="cls-2" d="M328.94,361.09c0,.88-.11,1.71-.33,2.5l3.16,3.73-.61,.51-2.85-3.37c-.49,1.22-1.29,2.37-2.42,3.48l-.57-.53c1.87-1.84,2.82-3.77,2.82-6.31v-1.28h.8v1.28Zm6.72,2.07v.73h-1.75v5.46h-.82v-10.15h.82v3.97h1.75Z"/>
      <path class="cls-2" d="M344.52,359.19h.82v5.3h-.82v-2.31h-2.17c-.14,1.33-1.3,2-2.72,2-1.52,0-2.75-.76-2.75-2.27v-.19c0-1.52,1.22-2.27,2.75-2.27,1.42,0,2.59,.66,2.72,2h2.17v-2.28Zm-2.98,2.55c0-1.02-.81-1.56-1.92-1.56s-1.92,.54-1.92,1.56v.17c0,1.01,.8,1.56,1.92,1.56s1.92-.55,1.92-1.56v-.17Zm2.98,4.71v-1.35h.82v4.25h-6.79v-4.25h.81v1.35h5.15Zm-5.15,2.18h5.15v-1.47h-5.15v1.47Z"/>
      <path class="cls-2" d="M353.25,363.27v-3.92h.79v9.8h-.79v-5.17h-1.43v.64c0,2.41-.95,3.37-2.16,3.37s-2.19-.96-2.19-3.37v-1.52c0-2.41,.94-3.37,2.19-3.37s2.16,.96,2.16,3.37v.17h1.43Zm-2.22-.17c0-1.89-.58-2.64-1.38-2.64s-1.38,.75-1.38,2.64v1.51c0,1.89,.58,2.65,1.38,2.65s1.38-.76,1.38-2.65v-1.51Zm4.5-3.92h.8v10.15h-.8v-10.15Z"/>
      <path class="cls-2" d="M362.71,366.94c1.02,0,2.01-.07,3.13-.23l.09,.7c-1.05,.18-2.08,.24-3.35,.24h-1.26v-7.65h3.89v.73h-3.07v6.21h.56Zm6.44-7.75h.8v10.15h-.8v-5.46h-1.64v5.27h-.79v-9.8h.79v3.81h1.64v-3.97Z"/>
      <path class="cls-2" d="M377.92,360.33v.68h-6.12v-.68h2.65v-1.28h.81v1.28h2.66Zm-.49,3.46c0,1.21-1.12,1.9-2.55,1.9s-2.56-.69-2.56-1.9v-.19c0-1.21,1.13-1.88,2.56-1.88s2.55,.67,2.55,1.88v.19Zm-4.3-.01c0,.75,.77,1.22,1.75,1.22s1.75-.47,1.75-1.22v-.15c0-.75-.78-1.22-1.75-1.22s-1.75,.47-1.75,1.22v.15Zm1.2,2.83v2.01h6.35v.72h-7.18v-2.73h.82Zm5.74-4.3h1.76v.74h-1.76v3.96h-.81v-7.81h.81v3.11Z"/>
      <path class="cls-2" d="M395.26,365.63v.71h-4.53v3.11h-.81v-3.11h-4.54v-.71h9.89Zm-5.69-1.47c-1.89,0-3.05-.9-3.05-2.3s1.17-2.28,3.05-2.28h1.5c1.88,0,3.07,.9,3.07,2.28s-1.19,2.3-3.07,2.3h-1.5Zm.13-3.87c-1.51,0-2.37,.64-2.37,1.57s.86,1.59,2.37,1.59h1.24c1.52,0,2.38-.65,2.38-1.59s-.86-1.57-2.38-1.57h-1.24Z"/>
      <path class="cls-2" d="M401.57,367.79h4.53v.72h-9.89v-.72h4.54v-1.76h-.76c-1.52,0-2.47-.8-2.47-1.93s.95-1.95,2.47-1.95h2.29c1.52,0,2.47,.81,2.47,1.95s-.95,1.93-2.47,1.93h-.72v1.76Zm3.7-7.26v.69h-8.23v-.69h3.74v-1.24h.81v1.24h3.67Zm-5.07,4.81h1.9c1.21,0,1.84-.53,1.84-1.24s-.63-1.23-1.84-1.23h-1.9c-1.2,0-1.83,.53-1.83,1.23s.63,1.24,1.83,1.24Z"/>
      <path class="cls-2" d="M412.42,367.81h4.53v.73h-9.89v-.73h4.54v-2.66h-3.26v-5.2h7.23v.71h-6.42v3.78h6.52v.7h-3.26v2.66Z"/>
      <path class="cls-2" d="M261.13,420.02v2.99h-3.11v-2.99h3.11Z"/>
      <path class="cls-2" d="M268.58,420.45c-.53,.83-1.38,1.55-2.59,2.21l-.41-.64c1.84-1.04,2.83-2.22,2.83-3.78v-.68h.8v.68c0,.55-.09,1.06-.29,1.54l3.1,2.05-.45,.63-3-2Zm3.33,2.92c1.54,0,2.46,.9,2.46,2.05s-.92,2.04-2.46,2.04h-2.14c-1.53,0-2.46-.88-2.46-2.04s.93-2.05,2.46-2.05h2.14Zm-.16,3.38c1.21,0,1.8-.57,1.8-1.34s-.58-1.33-1.8-1.33h-1.82c-1.21,0-1.8,.59-1.8,1.33s.58,1.34,1.8,1.34h1.82Zm2.36-7.27h1.75v.71h-1.75v2.56h-.82v-5.54h.82v2.27Z"/>
      <path class="cls-2" d="M278.44,424.94c1.02,0,2.01-.07,3.14-.23l.09,.7c-1.05,.18-2.08,.24-3.35,.24h-1.26v-7.65h3.89v.73h-3.07v6.21h.56Zm6.44-7.75h.8v10.15h-.8v-5.46h-1.64v5.27h-.79v-9.8h.79v3.81h1.64v-3.97Z"/>
      <path class="cls-2" d="M292.67,417.69v4.6h-4.94v-4.6h.8v1.55h3.34v-1.55h.8Zm-4.14,3.89h3.34v-1.64h-3.34v1.64Zm5.08,1.84c1.54,0,2.47,.87,2.47,2.01s-.93,2.01-2.47,2.01h-2.13c-1.54,0-2.47-.87-2.47-2.01s.93-2.01,2.47-2.01h2.13Zm-.16,3.32c1.21,0,1.8-.56,1.8-1.31s-.58-1.31-1.8-1.31h-1.81c-1.21,0-1.81,.57-1.81,1.31s.6,1.31,1.81,1.31h1.81Zm2.37-7.27h1.75v.71h-1.75v2.62h-.82v-5.6h.82v2.27Z"/>
      <path class="cls-2" d="M298.46,425.67l-.04-.73h1.92c1.3,0,3.42-.12,5.08-.32l.09,.69c-1.59,.22-3.66,.35-5.22,.35h-1.83Zm.56-5.07v-.23c0-1.78,1.24-2.63,2.77-2.63s2.76,.85,2.76,2.63v.23c0,1.78-1.25,2.63-2.76,2.63s-2.77-.85-2.77-2.63Zm4.7-.01v-.21c0-1.28-.82-1.93-1.93-1.93s-1.95,.65-1.95,1.93v.21c0,1.26,.82,1.91,1.95,1.91s1.93-.65,1.93-1.91Zm2.7,6.75v-10.15h.81v10.15h-.81Z"/>
      <path class="cls-2" d="M315.31,419.09c0,.88-.12,1.71-.33,2.5l3.16,3.73-.61,.51-2.85-3.37c-.49,1.22-1.29,2.37-2.42,3.48l-.57-.53c1.87-1.84,2.82-3.77,2.82-6.31v-1.28h.8v1.28Zm6.72,2.07v.73h-1.75v5.46h-.82v-10.15h.82v3.97h1.75Z"/>
      <path class="cls-2" d="M326.73,425.21c1.04-.05,2.17-.14,3.16-.26l.09,.69c-1.59,.22-3.66,.35-5.22,.35h-1.83l-.04-.73h1.92c.32,0,.7-.01,1.1-.02v-1.41c-1.26-.12-2.17-.78-2.17-1.87v-.19c0-1.22,1.13-1.89,2.6-1.89s2.56,.67,2.56,1.89v.19c0,1.1-.93,1.76-2.16,1.87v1.38Zm2.68-6.72v.67h-6.19v-.67h2.68v-1.29h.82v1.29h2.69Zm-4.88,3.47c0,.77,.78,1.24,1.8,1.24s1.76-.47,1.76-1.24v-.15c0-.77-.78-1.25-1.76-1.25s-1.8,.48-1.8,1.25v.15Zm6.36-4.76h.81v10.15h-.81v-10.15Z"/>
      <path class="cls-2" d="M333.64,422.65h9.89v.73h-4.53v2.01h-.81v-2.01h-4.54v-.73Zm2.15,1.75v2.22h6.64v.73h-7.46v-2.95h.82Zm6.36-6.95v3.96h-7.13v-3.96h7.13Zm-.82,3.25v-2.54h-5.49v2.54h5.49Z"/>
      <path class="cls-2" d="M348.02,425.22c1.02-.06,2.13-.14,3.08-.26l.09,.69c-1.54,.2-3.58,.34-5.09,.34h-1.74l-.04-.71h1.82c.31,0,.66-.01,1.05-.02v-1.41c-1.26-.11-2.17-.78-2.17-1.88v-.19c0-1.22,1.1-1.89,2.54-1.89s2.52,.67,2.52,1.89v.19c0,1.08-.87,1.74-2.06,1.87v1.39Zm2.56-6.73v.67h-6.08v-.67h2.63v-1.29h.82v1.29h2.62Zm-4.76,3.47c0,.77,.75,1.24,1.74,1.24s1.72-.47,1.72-1.24v-.15c0-.77-.74-1.25-1.72-1.25s-1.74,.48-1.74,1.25v.15Zm8.74-.68v.71h-1.65v5.36h-.81v-10.15h.81v4.08h1.65Z"/>
      <path class="cls-2" d="M361.32,421.27v-3.92h.79v9.8h-.79v-5.17h-1.43v.64c0,2.41-.95,3.37-2.16,3.37s-2.19-.96-2.19-3.37v-1.52c0-2.41,.94-3.37,2.19-3.37s2.16,.96,2.16,3.37v.17h1.43Zm-2.22-.17c0-1.89-.58-2.64-1.38-2.64s-1.38,.75-1.38,2.64v1.51c0,1.89,.58,2.65,1.38,2.65s1.38-.76,1.38-2.65v-1.51Zm4.5-3.92h.8v10.15h-.8v-10.15Z"/>
      <path class="cls-2" d="M370.78,424.94c1.02,0,2.01-.07,3.13-.23l.09,.7c-1.05,.18-2.08,.24-3.35,.24h-1.26v-7.65h3.89v.73h-3.07v6.21h.56Zm6.44-7.75h.8v10.15h-.8v-5.46h-1.64v5.27h-.79v-9.8h.79v3.81h1.64v-3.97Z"/>
      <path class="cls-2" d="M385.99,418.33v.68h-6.12v-.68h2.66v-1.28h.81v1.28h2.66Zm-.49,3.46c0,1.21-1.12,1.9-2.55,1.9s-2.56-.69-2.56-1.9v-.19c0-1.21,1.13-1.88,2.56-1.88s2.55,.67,2.55,1.88v.19Zm-4.3-.01c0,.75,.77,1.22,1.75,1.22s1.75-.47,1.75-1.22v-.15c0-.75-.78-1.22-1.75-1.22s-1.75,.47-1.75,1.22v.15Zm1.2,2.83v2.01h6.35v.72h-7.18v-2.73h.82Zm5.75-4.3h1.76v.74h-1.76v3.96h-.81v-7.81h.81v3.11Z"/>
      <path class="cls-2" d="M393.89,420.43v-.23c0-1.8,1.24-2.67,2.76-2.67s2.74,.87,2.74,2.67v.23c0,1.79-1.24,2.65-2.74,2.65s-2.76-.86-2.76-2.65Zm4.68-.01v-.22c0-1.3-.82-1.97-1.92-1.97s-1.93,.67-1.93,1.97v.22c0,1.3,.82,1.96,1.93,1.96s1.92-.66,1.92-1.96Zm-3,6.93v-3.25h.82v2.52h6.46v.73h-7.29Zm5.97-2.44v-7.71h.82v7.71h-.82Z"/>
      <path class="cls-2" d="M408.13,419.35c0,.83-.11,1.59-.33,2.32l3.24,3.63-.6,.53-2.95-3.32c-.51,1.21-1.35,2.31-2.46,3.43l-.6-.54c1.81-1.8,2.88-3.54,2.88-6.05v-.57h-2.46v-.71h5.76v.71h-2.48v.57Zm4.26-2.16h.81v10.15h-.81v-10.15Z"/>
      <path class="cls-2" d="M425.02,423.54v.73h-4.53v3.19h-.81v-3.19h-4.54v-.73h9.89Zm-5.2-3.53c-.68,.85-1.88,1.59-3.65,2.28l-.33-.69c2.61-.99,3.88-2.16,3.88-3.51v-.67h.81v.67c0,.44-.09,.87-.29,1.28l4.05,2.25-.39,.67-4.09-2.28Z"/>
      <path class="cls-2" d="M425.98,422.65h9.89v.73h-4.53v2.01h-.81v-2.01h-4.54v-.73Zm.89-1.61c2.46-.75,3.71-1.72,3.71-2.83v-.08h-3.16v-.69h7.01v.69h-3.04v.07c0,.4-.09,.76-.27,1.11l3.84,1.75-.33,.65-3.96-1.82c-.68,.7-1.83,1.31-3.55,1.82l-.25-.67Zm1.26,3.36v2.22h6.64v.73h-7.46v-2.95h.82Z"/>
      <path class="cls-2" d="M261.13,449.02v2.99h-3.11v-2.99h3.11Z"/>
      <path class="cls-2" d="M268.58,449.45c-.53,.83-1.38,1.55-2.59,2.21l-.41-.64c1.84-1.04,2.83-2.22,2.83-3.78v-.68h.8v.68c0,.55-.09,1.06-.29,1.54l3.1,2.05-.45,.63-3-2Zm3.33,2.92c1.54,0,2.46,.9,2.46,2.05s-.92,2.04-2.46,2.04h-2.14c-1.53,0-2.46-.88-2.46-2.04s.93-2.05,2.46-2.05h2.14Zm-.16,3.38c1.21,0,1.8-.57,1.8-1.34s-.58-1.33-1.8-1.33h-1.82c-1.21,0-1.8,.59-1.8,1.33s.58,1.34,1.8,1.34h1.82Zm2.36-7.27h1.75v.71h-1.75v2.56h-.82v-5.54h.82v2.27Z"/>
      <path class="cls-2" d="M278.44,453.94c1.02,0,2.01-.07,3.14-.23l.09,.7c-1.05,.18-2.08,.24-3.35,.24h-1.26v-7.65h3.89v.73h-3.07v6.21h.56Zm6.44-7.75h.8v10.15h-.8v-5.46h-1.64v5.27h-.79v-9.8h.79v3.81h1.64v-3.97Z"/>
      <path class="cls-2" d="M292.67,446.69v4.6h-4.94v-4.6h.8v1.55h3.34v-1.55h.8Zm-4.14,3.89h3.34v-1.64h-3.34v1.64Zm5.08,1.84c1.54,0,2.47,.87,2.47,2.01s-.93,2.01-2.47,2.01h-2.13c-1.54,0-2.47-.87-2.47-2.01s.93-2.01,2.47-2.01h2.13Zm-.16,3.32c1.21,0,1.8-.56,1.8-1.31s-.58-1.31-1.8-1.31h-1.81c-1.21,0-1.81,.57-1.81,1.31s.6,1.31,1.81,1.31h1.81Zm2.37-7.27h1.75v.71h-1.75v2.62h-.82v-5.6h.82v2.27Z"/>
      <path class="cls-2" d="M298.46,454.67l-.04-.73h1.92c1.3,0,3.42-.12,5.08-.32l.09,.69c-1.59,.22-3.66,.35-5.22,.35h-1.83Zm.56-5.07v-.23c0-1.78,1.24-2.63,2.77-2.63s2.76,.85,2.76,2.63v.23c0,1.78-1.25,2.63-2.76,2.63s-2.77-.85-2.77-2.63Zm4.7-.01v-.21c0-1.28-.82-1.93-1.93-1.93s-1.95,.65-1.95,1.93v.21c0,1.26,.82,1.91,1.95,1.91s1.93-.65,1.93-1.91Zm2.7,6.75v-10.15h.81v10.15h-.81Z"/>
      <path class="cls-2" d="M315.31,448.09c0,.88-.12,1.71-.33,2.5l3.16,3.73-.61,.51-2.85-3.37c-.49,1.22-1.29,2.37-2.42,3.48l-.57-.53c1.87-1.84,2.82-3.77,2.82-6.31v-1.28h.8v1.28Zm6.72,2.07v.73h-1.75v5.46h-.82v-10.15h.82v3.97h1.75Z"/>
      <path class="cls-2" d="M326.73,454.21c1.04-.05,2.17-.14,3.16-.26l.09,.69c-1.59,.22-3.66,.35-5.22,.35h-1.83l-.04-.73h1.92c.32,0,.7-.01,1.1-.02v-1.41c-1.26-.12-2.17-.78-2.17-1.87v-.19c0-1.22,1.13-1.89,2.6-1.89s2.56,.67,2.56,1.89v.19c0,1.1-.93,1.76-2.16,1.87v1.38Zm2.68-6.72v.67h-6.19v-.67h2.68v-1.29h.82v1.29h2.69Zm-4.88,3.47c0,.77,.78,1.24,1.8,1.24s1.76-.47,1.76-1.24v-.15c0-.77-.78-1.25-1.76-1.25s-1.8,.48-1.8,1.25v.15Zm6.36-4.76h.81v10.15h-.81v-10.15Z"/>
      <path class="cls-2" d="M333.64,451.65h9.89v.73h-4.53v2.01h-.81v-2.01h-4.54v-.73Zm2.15,1.75v2.22h6.64v.73h-7.46v-2.95h.82Zm6.36-6.95v3.96h-7.13v-3.96h7.13Zm-.82,3.25v-2.54h-5.49v2.54h5.49Z"/>
      <path class="cls-2" d="M348.02,454.22c1.02-.06,2.13-.14,3.08-.26l.09,.69c-1.54,.2-3.58,.34-5.09,.34h-1.74l-.04-.71h1.82c.31,0,.66-.01,1.05-.02v-1.41c-1.26-.11-2.17-.78-2.17-1.88v-.19c0-1.22,1.1-1.89,2.54-1.89s2.52,.67,2.52,1.89v.19c0,1.08-.87,1.74-2.06,1.87v1.39Zm2.56-6.73v.67h-6.08v-.67h2.63v-1.29h.82v1.29h2.62Zm-4.76,3.47c0,.77,.75,1.24,1.74,1.24s1.72-.47,1.72-1.24v-.15c0-.77-.74-1.25-1.72-1.25s-1.74,.48-1.74,1.25v.15Zm8.74-.68v.71h-1.65v5.36h-.81v-10.15h.81v4.08h1.65Z"/>
      <path class="cls-2" d="M361.32,450.27v-3.92h.79v9.8h-.79v-5.17h-1.43v.64c0,2.41-.95,3.37-2.16,3.37s-2.19-.96-2.19-3.37v-1.52c0-2.41,.94-3.37,2.19-3.37s2.16,.96,2.16,3.37v.17h1.43Zm-2.22-.17c0-1.89-.58-2.64-1.38-2.64s-1.38,.75-1.38,2.64v1.51c0,1.89,.58,2.65,1.38,2.65s1.38-.76,1.38-2.65v-1.51Zm4.5-3.92h.8v10.15h-.8v-10.15Z"/>
      <path class="cls-2" d="M370.78,453.94c1.02,0,2.01-.07,3.13-.23l.09,.7c-1.05,.18-2.08,.24-3.35,.24h-1.26v-7.65h3.89v.73h-3.07v6.21h.56Zm6.44-7.75h.8v10.15h-.8v-5.46h-1.64v5.27h-.79v-9.8h.79v3.81h1.64v-3.97Z"/>
      <path class="cls-2" d="M385.99,447.33v.68h-6.12v-.68h2.66v-1.28h.81v1.28h2.66Zm-.49,3.46c0,1.21-1.12,1.9-2.55,1.9s-2.56-.69-2.56-1.9v-.19c0-1.21,1.13-1.88,2.56-1.88s2.55,.67,2.55,1.88v.19Zm-4.3-.01c0,.75,.77,1.22,1.75,1.22s1.75-.47,1.75-1.22v-.15c0-.75-.78-1.22-1.75-1.22s-1.75,.47-1.75,1.22v.15Zm1.2,2.83v2.01h6.35v.72h-7.18v-2.73h.82Zm5.75-4.3h1.76v.74h-1.76v3.96h-.81v-7.81h.81v3.11Z"/>
      <path class="cls-2" d="M403.32,452.54v.73h-4.53v3.19h-.81v-3.19h-4.54v-.73h9.89Zm-5.2-3.53c-.67,.85-1.88,1.59-3.65,2.28l-.33-.69c2.61-.99,3.88-2.16,3.88-3.51v-.67h.81v.67c0,.44-.09,.87-.29,1.28l4.05,2.25-.39,.67-4.08-2.28Z"/>
      <path class="cls-2" d="M411.31,451.11h2.86v.69h-9.89v-.69h2.87v-1.25c-1.04-.25-1.65-.81-1.65-1.69,0-1.22,1.16-1.83,2.99-1.83h1.48c1.83,0,2.99,.61,2.99,1.83,0,.88-.61,1.44-1.65,1.69v1.25Zm-.93,1.73c1.73,0,2.63,.77,2.63,1.8s-.9,1.81-2.63,1.81h-2.31c-1.72,0-2.62-.77-2.62-1.81s.9-1.8,2.62-1.8h2.31Zm-.18,2.92c1.35,0,1.99-.44,1.99-1.11s-.64-1.1-1.99-1.1h-1.95c-1.35,0-1.99,.43-1.99,1.1s.64,1.11,1.99,1.11h1.95Zm-1.57-6.44h1.2c1.49,0,2.3-.43,2.3-1.16s-.81-1.13-2.3-1.13h-1.2c-1.5,0-2.31,.4-2.31,1.13s.81,1.16,2.31,1.16Zm-.69,1.79h2.57v-1.14c-.17,.03-2.4,.03-2.57,0v1.14Z"/>
      <path class="cls-2" d="M415.27,454.67l-.05-.73h1.92c1.3,0,3.42-.12,5.08-.32l.09,.69c-1.59,.22-3.66,.35-5.22,.35h-1.83Zm.56-5.07v-.23c0-1.78,1.24-2.63,2.77-2.63s2.76,.85,2.76,2.63v.23c0,1.78-1.25,2.63-2.76,2.63s-2.77-.85-2.77-2.63Zm4.7-.01v-.21c0-1.28-.82-1.93-1.93-1.93s-1.95,.65-1.95,1.93v.21c0,1.26,.82,1.91,1.95,1.91s1.93-.65,1.93-1.91Zm2.7,6.75v-10.15h.81v10.15h-.81Z"/>
      <path class="cls-2" d="M429.18,449.5c-.55,.84-1.43,1.58-2.68,2.27l-.41-.64c1.91-1.08,2.93-2.27,2.93-3.88v-.69h.81v.69c0,.56-.1,1.09-.3,1.57l3.22,2.11-.44,.62-3.14-2.05Zm-1.19,3.84v-.71h6.9v3.82h-.81v-3.1h-6.09Zm6.09-7.14h.81v5.71h-.81v-5.71Z"/>
      <path class="cls-2" d="M261.13,478.02v2.99h-3.11v-2.99h3.11Z"/>
      <path class="cls-2" d="M268.58,478.45c-.53,.83-1.38,1.55-2.59,2.21l-.41-.64c1.84-1.04,2.83-2.22,2.83-3.78v-.68h.8v.68c0,.55-.09,1.06-.29,1.54l3.1,2.05-.45,.63-3-2Zm3.33,2.92c1.54,0,2.46,.9,2.46,2.05s-.92,2.04-2.46,2.04h-2.14c-1.53,0-2.46-.88-2.46-2.04s.93-2.05,2.46-2.05h2.14Zm-.16,3.38c1.21,0,1.8-.57,1.8-1.34s-.58-1.33-1.8-1.33h-1.82c-1.21,0-1.8,.59-1.8,1.33s.58,1.34,1.8,1.34h1.82Zm2.36-7.27h1.75v.71h-1.75v2.56h-.82v-5.54h.82v2.27Z"/>
      <path class="cls-2" d="M278.44,482.94c1.02,0,2.01-.07,3.14-.23l.09,.7c-1.05,.18-2.08,.24-3.35,.24h-1.26v-7.65h3.89v.73h-3.07v6.21h.56Zm6.44-7.75h.8v10.15h-.8v-5.46h-1.64v5.27h-.79v-9.8h.79v3.81h1.64v-3.97Z"/>
      <path class="cls-2" d="M292.67,475.69v4.6h-4.94v-4.6h.8v1.55h3.34v-1.55h.8Zm-4.14,3.89h3.34v-1.64h-3.34v1.64Zm5.08,1.84c1.54,0,2.47,.87,2.47,2.01s-.93,2.01-2.47,2.01h-2.13c-1.54,0-2.47-.87-2.47-2.01s.93-2.01,2.47-2.01h2.13Zm-.16,3.32c1.21,0,1.8-.56,1.8-1.31s-.58-1.31-1.8-1.31h-1.81c-1.21,0-1.81,.57-1.81,1.31s.6,1.31,1.81,1.31h1.81Zm2.37-7.27h1.75v.71h-1.75v2.62h-.82v-5.6h.82v2.27Z"/>
      <path class="cls-2" d="M304.3,479.27v-3.92h.79v9.8h-.79v-5.17h-1.43v.64c0,2.41-.95,3.37-2.16,3.37s-2.19-.96-2.19-3.37v-1.52c0-2.41,.94-3.37,2.19-3.37s2.16,.96,2.16,3.37v.17h1.43Zm-2.22-.17c0-1.89-.58-2.64-1.38-2.64s-1.38,.75-1.38,2.64v1.51c0,1.89,.58,2.65,1.38,2.65s1.38-.76,1.38-2.65v-1.51Zm4.5-3.92h.8v10.15h-.8v-10.15Z"/>
      <path class="cls-2" d="M313.77,482.94c1.02,0,2.01-.07,3.13-.23l.09,.7c-1.05,.18-2.08,.24-3.35,.24h-1.26v-7.65h3.89v.73h-3.07v6.21h.56Zm6.44-7.75h.8v10.15h-.8v-5.46h-1.64v5.27h-.79v-9.8h.79v3.81h1.64v-3.97Z"/>
      <path class="cls-2" d="M328.97,476.33v.68h-6.12v-.68h2.66v-1.28h.81v1.28h2.66Zm-.49,3.46c0,1.21-1.12,1.9-2.55,1.9s-2.56-.69-2.56-1.9v-.19c0-1.21,1.13-1.88,2.56-1.88s2.55,.67,2.55,1.88v.19Zm-4.3-.01c0,.75,.77,1.22,1.75,1.22s1.75-.47,1.75-1.22v-.15c0-.75-.78-1.22-1.75-1.22s-1.75,.47-1.75,1.22v.15Zm1.2,2.83v2.01h6.35v.72h-7.18v-2.73h.82Zm5.75-4.3h1.76v.74h-1.76v3.96h-.81v-7.81h.81v3.11Z"/>
      <path class="cls-2" d="M339.59,478.68c-.53,.83-1.4,1.54-2.62,2.23l-.4-.63c1.81-1.07,2.83-2.13,2.83-3.67v-.15h-2.4v-.71h5.62v.71h-2.41v.15c0,.51-.09,.98-.26,1.42l3.1,2.09-.42,.64-3.02-2.08Zm-1.16,3.66v-.71h6.9v3.82h-.81v-3.1h-6.09Zm6.09-7.14h.81v5.71h-.81v-2.6h-2.28v-.7h2.28v-2.41Z"/>
      <path class="cls-2" d="M349.09,482.94c1.02,0,2.01-.07,3.14-.23l.09,.7c-1.05,.18-2.08,.24-3.35,.24h-1.26v-7.65h3.89v.73h-3.07v6.21h.56Zm6.44-7.75h.8v10.15h-.8v-5.46h-1.64v5.27h-.79v-9.8h.79v3.81h1.64v-3.97Z"/>
      <path class="cls-2" d="M363.39,476.28c0,2.06-1.81,3.49-4.73,4.41l-.32-.68c2.55-.79,4.19-2.1,4.23-3.5h-4.05v-.72h4.86v.48Zm-3.51,9.07v-3.93h6.58v3.93h-6.58Zm.82-3.22v2.51h4.93v-2.51h-4.93Zm7.51-4.65v.71h-1.75v2.51h-.82v-5.5h.82v2.28h1.75Z"/>
      <path class="cls-2" d="M374.66,475.2v1.59h2.06v.73h-4.94v-.73h2.07v-1.59h.81Zm1.61,5.74v.58c0,1.46-.82,2.39-2,2.39s-2.03-.92-2.03-2.39v-.58c0-1.47,.82-2.38,2.03-2.38s2,.9,2,2.38Zm-.78,.04c0-1.06-.51-1.69-1.22-1.69s-1.25,.64-1.25,1.69v.5c0,1.06,.5,1.72,1.25,1.72s1.22-.66,1.22-1.72v-.5Zm4.5-5.8h.81v10.15h-.81v-5.46h-1.64v5.27h-.79v-9.8h.79v3.81h1.64v-3.97Z"/>
      <path class="cls-2" d="M387.94,483.81h4.53v.71h-9.89v-.71h4.54v-2.71h.81v2.71Zm-.64-5.13c-.67,.98-1.9,1.88-3.74,2.71l-.38-.68c2.71-1.23,3.99-2.55,3.99-4.13v-.8h.81v.8c0,.5-.1,.97-.31,1.43l4.2,2.73-.46,.65-4.12-2.71Z"/>
      <path class="cls-2" d="M261.13,507.02v2.99h-3.11v-2.99h3.11Z"/>
      <path class="cls-2" d="M269.14,506.09c0,.88-.11,1.71-.33,2.5l3.16,3.73-.61,.51-2.85-3.37c-.49,1.22-1.29,2.37-2.41,3.48l-.57-.53c1.87-1.84,2.81-3.77,2.81-6.31v-1.28h.8v1.28Zm6.72,2.07v.73h-1.75v5.46h-.82v-10.15h.82v3.97h1.75Z"/>
      <path class="cls-2" d="M280.56,512.21c1.04-.05,2.17-.14,3.16-.26l.09,.69c-1.59,.22-3.66,.35-5.22,.35h-1.83l-.05-.73h1.92c.32,0,.7-.01,1.1-.02v-1.41c-1.26-.12-2.17-.78-2.17-1.87v-.19c0-1.22,1.13-1.89,2.6-1.89s2.56,.67,2.56,1.89v.19c0,1.1-.93,1.76-2.16,1.87v1.38Zm2.68-6.72v.67h-6.19v-.67h2.68v-1.29h.82v1.29h2.69Zm-4.88,3.47c0,.77,.78,1.24,1.8,1.24s1.76-.47,1.76-1.24v-.15c0-.77-.78-1.25-1.76-1.25s-1.8,.48-1.8,1.25v.15Zm6.36-4.76h.81v10.15h-.81v-10.15Z"/>
      <path class="cls-2" d="M287.47,509.65h9.89v.73h-4.53v2.01h-.81v-2.01h-4.54v-.73Zm2.15,1.75v2.22h6.64v.73h-7.46v-2.95h.82Zm6.36-6.95v3.96h-7.13v-3.96h7.13Zm-.82,3.25v-2.54h-5.49v2.54h5.49Z"/>
      <path class="cls-2" d="M301.85,512.22c1.02-.06,2.13-.14,3.08-.26l.09,.69c-1.54,.2-3.58,.34-5.09,.34h-1.74l-.03-.71h1.82c.31,0,.66-.01,1.05-.02v-1.41c-1.26-.11-2.17-.78-2.17-1.88v-.19c0-1.22,1.1-1.89,2.54-1.89s2.52,.67,2.52,1.89v.19c0,1.08-.87,1.74-2.06,1.87v1.39Zm2.56-6.73v.67h-6.08v-.67h2.63v-1.29h.82v1.29h2.62Zm-4.76,3.47c0,.77,.75,1.24,1.74,1.24s1.72-.47,1.72-1.24v-.15c0-.77-.74-1.25-1.72-1.25s-1.74,.48-1.74,1.25v.15Zm8.74-.68v.71h-1.65v5.36h-.81v-10.15h.81v4.08h1.65Z"/>
      <path class="cls-2" d="M314.68,507.01c0,1.56-1.2,2.33-2.68,2.33s-2.7-.77-2.7-2.33v-.2c0-1.56,1.19-2.33,2.7-2.33s2.68,.77,2.68,2.33v.2Zm-4.57-.02c0,1.08,.79,1.65,1.89,1.65s1.85-.57,1.85-1.65v-.17c0-1.08-.79-1.64-1.85-1.64s-1.89,.56-1.89,1.64v.17Zm5.18,3.38c1.54,0,2.46,.9,2.46,2.05s-.92,2.04-2.46,2.04h-2.13c-1.55,0-2.47-.88-2.47-2.04s.93-2.05,2.47-2.05h2.13Zm-.16,3.38c1.21,0,1.8-.57,1.8-1.34s-.58-1.33-1.8-1.33h-1.82c-1.2,0-1.8,.59-1.8,1.33s.59,1.34,1.8,1.34h1.82Zm4.12-7.66h-1.76v1.33h1.76v.69h-1.76v1.64h-.81v-5.54h.81v1.19h1.76v.69Z"/>
      <path class="cls-2" d="M323.22,507.5c-.55,.84-1.43,1.58-2.68,2.27l-.41-.64c1.91-1.08,2.93-2.27,2.93-3.88v-.69h.81v.69c0,.56-.1,1.09-.3,1.57l3.22,2.11-.44,.62-3.13-2.05Zm-1.19,3.84v-.71h6.9v3.82h-.81v-3.1h-6.09Zm6.09-7.14h.81v5.71h-.81v-5.71Z"/>
      <path class="cls-2" d="M331,512.67l-.04-.73h1.92c1.3,0,3.42-.12,5.08-.32l.09,.69c-1.59,.22-3.66,.35-5.22,.35h-1.83Zm.56-5.07v-.23c0-1.78,1.24-2.63,2.77-2.63s2.76,.85,2.76,2.63v.23c0,1.78-1.25,2.63-2.76,2.63s-2.77-.85-2.77-2.63Zm4.7-.01v-.21c0-1.28-.82-1.93-1.93-1.93s-1.95,.65-1.95,1.93v.21c0,1.26,.82,1.91,1.95,1.91s1.93-.65,1.93-1.91Zm2.7,6.75v-10.15h.81v10.15h-.81Z"/>
      <path class="cls-2" d="M349.84,509.05h4.53v.69h-9.89v-.69h4.54v-1.11h-3.16v-3.5h7.02v.68h-6.2v2.12h6.32v.69h-3.16v1.11Zm.74,1.78c1.73,0,2.63,.77,2.63,1.8s-.9,1.81-2.63,1.81h-2.31c-1.72,0-2.62-.76-2.62-1.81s.9-1.8,2.62-1.8h2.31Zm-.18,2.93c1.35,0,1.99-.45,1.99-1.12s-.64-1.1-1.99-1.1h-1.95c-1.35,0-1.99,.43-1.99,1.1s.64,1.12,1.99,1.12h1.95Z"/>
      <path class="cls-2" d="M358.6,507.3c-.54,.75-1.45,1.41-2.75,2.02l-.35-.65c1.85-.92,2.88-1.88,2.88-3.22v-.07h-2.47v-.7h5.77v.7h-2.48v.07c0,.43-.08,.84-.24,1.21l3.14,1.78-.38,.66-3.11-1.8Zm-.31,6.4h6.41v.69h-7.22v-2.63h5.97v-1.21h-6.03v-.67h6.84v2.56h-5.97v1.25Zm5.97-9.52v4.97h-.81v-4.97h.81Z"/>
      <path class="cls-2" d="M369.29,507.45c-.53,.83-1.38,1.55-2.57,2.21l-.42-.64c1.84-1.04,2.83-2.22,2.83-3.81v-.66h.81v.66c0,.56-.09,1.08-.29,1.56l3.09,2.1-.44,.63-3.01-2.06Zm3.49,2.92c1.56,0,2.47,.9,2.47,2.05s-.92,2.04-2.47,2.04h-2.22c-1.56,0-2.47-.88-2.47-2.04s.92-2.05,2.47-2.05h2.22Zm-.16,3.38c1.22,0,1.81-.57,1.81-1.34s-.58-1.33-1.81-1.33h-1.9c-1.22,0-1.82,.59-1.82,1.33s.6,1.34,1.82,1.34h1.9Zm1.66-3.99v-2.81h-2.49v-.7h2.49v-2.04h.81v5.54h-.81Z"/>
      <path class="cls-2" d="M261.13,536.02v2.99h-3.11v-2.99h3.11Z"/>
      <path class="cls-2" d="M271.13,538.7h4.53v.67h-9.89v-.67h4.54v-.96h-3.16v-4.3h7.13v.67h-6.32v1.12h6.32v.67h-6.32v1.17h6.53v.67h-3.38v.96Zm.79,1.56c1.71,0,2.59,.64,2.59,1.6s-.88,1.59-2.59,1.59h-2.39c-1.71,0-2.59-.63-2.59-1.59s.88-1.6,2.59-1.6h2.39Zm-.19,2.52c1.33,0,1.96-.34,1.96-.92s-.63-.92-1.96-.92h-2c-1.34,0-1.97,.34-1.97,.92s.63,.92,1.97,.92h2Z"/>
      <path class="cls-2" d="M277.08,535.73v-.18c0-1.43,1.22-2.13,2.76-2.13s2.73,.7,2.73,2.13v.18c0,1.42-1.22,2.13-2.73,2.13s-2.76-.72-2.76-2.13Zm4.68-.02v-.14c0-.92-.81-1.44-1.92-1.44s-1.93,.52-1.93,1.44v.14c0,.95,.8,1.44,1.93,1.44s1.92-.5,1.92-1.44Zm-3,7.69v-2.63h5.97v-1.21h-6.02v-.67h6.83v2.56h-5.96v1.25h6.41v.69h-7.23Zm5.97-5.24v-4.97h.81v4.97h-.81Z"/>
      <path class="cls-2" d="M290.71,538.63v-1.52c0-2.41,1.22-3.37,2.71-3.37s2.71,.96,2.71,3.37v1.52c0,2.41-1.22,3.37-2.71,3.37s-2.71-.96-2.71-3.37Zm4.61-.01v-1.51c0-1.89-.81-2.64-1.9-2.64s-1.89,.75-1.89,2.64v1.51c0,1.89,.8,2.65,1.89,2.65s1.9-.76,1.9-2.65Zm3.03,4.73v-10.15h.82v10.15h-.82Z"/>
      <path class="cls-2" d="M310.99,540.26v.69h-4.53v2.49h-.81v-2.49h-4.54v-.69h9.89Zm-.89-6.09v.68h-8.11v-.68h3.68v-1.13h.81v1.13h3.62Zm-2.95,1.51c1.51,0,2.46,.7,2.46,1.76s-.95,1.73-2.46,1.73h-2.21c-1.52,0-2.46-.7-2.46-1.73s.94-1.76,2.46-1.76h2.21Zm-.19,.68h-1.83c-1.2,0-1.83,.44-1.83,1.07s.63,1.06,1.83,1.06h1.83c1.2,0,1.83-.44,1.83-1.06s-.63-1.07-1.83-1.07Z"/>
      <path class="cls-2" d="M318.09,535.09c0,.88-.11,1.71-.33,2.5l3.16,3.73-.61,.51-2.85-3.37c-.49,1.22-1.29,2.37-2.41,3.48l-.57-.53c1.87-1.84,2.81-3.77,2.81-6.31v-1.28h.8v1.28Zm6.72,2.07v.73h-1.75v5.46h-.82v-10.15h.82v3.97h1.75Z"/>
      <path class="cls-2" d="M329.51,541.21c1.04-.05,2.17-.14,3.16-.26l.09,.69c-1.59,.22-3.66,.35-5.22,.35h-1.83l-.05-.73h1.92c.32,0,.7-.01,1.1-.02v-1.41c-1.26-.12-2.17-.78-2.17-1.87v-.19c0-1.22,1.13-1.89,2.6-1.89s2.56,.67,2.56,1.89v.19c0,1.1-.93,1.76-2.16,1.87v1.38Zm2.68-6.72v.67h-6.19v-.67h2.68v-1.29h.82v1.29h2.69Zm-4.88,3.47c0,.77,.78,1.24,1.8,1.24s1.76-.47,1.76-1.24v-.15c0-.77-.78-1.25-1.76-1.25s-1.8,.48-1.8,1.25v.15Zm6.36-4.76h.81v10.15h-.81v-10.15Z"/>
      <path class="cls-2" d="M343.29,538.15c-1.56,.23-3.43,.38-5,.38h-1.59l-.05-.72h1.34v-3.36h-1.21v-.71h6v.71h-1.34v3.21c.59-.06,1.2-.12,1.76-.2l.09,.68Zm-.26,1.32c1.56,0,2.47,.86,2.47,1.99s-.92,1.98-2.47,1.98h-2.22c-1.56,0-2.47-.85-2.47-1.98s.92-1.99,2.47-1.99h2.22Zm-2.38-5.02h-1.85v3.36c.56-.01,1.19-.04,1.85-.09v-3.27Zm2.22,8.28c1.22,0,1.82-.55,1.82-1.29s-.59-1.28-1.82-1.28h-1.9c-1.22,0-1.82,.55-1.82,1.28s.59,1.29,1.82,1.29h1.9Zm-.2-8.06h1.85v-1.47h.81v5.65h-.81v-1.83h-1.85v-.65h1.85v-1.06h-1.85v-.65Z"/>
      <path class="cls-2" d="M347.27,538.7v-.7h9.89v.7h-9.89Zm3.79,4.75c-1.72,0-2.62-.76-2.62-1.81s.9-1.8,2.62-1.8h2.31c1.73,0,2.63,.77,2.63,1.8s-.9,1.81-2.63,1.81h-2.31Zm4.61-10.01v.68h-6.2v2.12h6.32v.69h-7.13v-3.5h7.01Zm-2.48,9.32c1.35,0,1.99-.45,1.99-1.12s-.64-1.1-1.99-1.1h-1.95c-1.35,0-1.99,.43-1.99,1.1s.64,1.12,1.99,1.12h1.95Z"/>
      <path class="cls-2" d="M361.62,534.78v-.71h4.99v.78c0,2.87-1.79,5.38-4.67,7.22l-.48-.62c2.68-1.67,4.33-4.07,4.33-6.45v-.22h-4.17Zm7.39-1.58h.81v10.15h-.81v-10.15Z"/>
      <path class="cls-2" d="M373.56,540.94c1.02,0,2.01-.07,3.14-.23l.09,.7c-1.05,.18-2.08,.24-3.35,.24h-1.26v-7.65h3.89v.73h-3.07v6.21h.56Zm6.44-7.75h.8v10.15h-.8v-5.46h-1.64v5.27h-.79v-9.8h.79v3.81h1.64v-3.97Z"/>
      <path class="cls-2" d="M392.48,539.54v.73h-4.53v3.19h-.81v-3.19h-4.54v-.73h9.89Zm-5.2-3.53c-.68,.85-1.88,1.59-3.65,2.28l-.33-.69c2.61-.99,3.88-2.16,3.88-3.51v-.67h.81v.67c0,.44-.09,.87-.29,1.28l4.05,2.25-.39,.67-4.08-2.28Z"/>
      <path class="cls-2" d="M393.44,538.65h9.89v.73h-4.53v2.01h-.81v-2.01h-4.54v-.73Zm.89-1.61c2.46-.75,3.71-1.72,3.71-2.83v-.08h-3.16v-.69h7.01v.69h-3.04v.07c0,.4-.09,.76-.27,1.11l3.85,1.75-.33,.65-3.96-1.82c-.67,.7-1.83,1.31-3.55,1.82l-.25-.67Zm1.26,3.36v2.22h6.64v.73h-7.46v-2.95h.82Z"/>
    </g>
    <g>
      <path class="cls-2" d="M710.68,14.48v-2.73h1.32v8.05h-4.36V11.75h1.33v2.73h1.72Zm-1.72,4.06h1.72v-2.79h-1.72v2.79Zm6.46-7.38h1.42v10.28h-1.42v-5.28h-1.06v5.04h-1.38V11.32h1.38v3.55h1.06v-3.72Z"/>
      <path class="cls-2" d="M721.48,15.07c-.56,.67-1.38,1.25-2.52,1.78l-.67-1.14c1.79-.87,2.55-1.75,2.62-2.88h-2.2v-1.23h5.83v1.23h-2.21c-.02,.4-.09,.78-.22,1.13l2.83,1.57-.71,1.15-2.75-1.62Zm-1.26,6.36v-4.17h7.27v4.17h-7.27Zm1.46-2.93v1.67h4.34v-1.67h-4.34Zm4.34-7.35h1.46v5.54h-1.46v-2.22h-1.88v-1.2h1.88v-2.12Z"/>
      <path class="cls-2" d="M710.44,49.83v-1.09l3.38-3.22c.95-.91,1.38-1.52,1.38-2.27s-.56-1.3-1.62-1.3-1.59,.73-1.85,1.65l-1.4-.32c.38-1.36,1.45-2.6,3.25-2.6s3.08,.92,3.08,2.51c0,1.19-.63,2.04-1.69,3.05l-2.42,2.29h4.31v1.3h-6.42Z"/>
      <path class="cls-2" d="M718.31,46.19v-1.69c0-2.53,1.58-3.81,3.48-3.81s3.47,1.28,3.47,3.81v1.69c0,2.54-1.58,3.81-3.47,3.81s-3.48-1.26-3.48-3.81Zm5.48-.07v-1.56c0-1.77-.85-2.62-2-2.62s-2,.85-2,2.62v1.56c0,1.78,.85,2.62,2,2.62s2-.84,2-2.62Z"/>
      <path class="cls-2" d="M713.81,78.83v-7.12l-1.91,1.44-.82-1.04,3-2.25h1.21v8.98h-1.48Z"/>
      <path class="cls-2" d="M717.19,75.19v-1.69c0-2.53,1.58-3.81,3.48-3.81s3.47,1.28,3.47,3.81v1.69c0,2.54-1.58,3.81-3.47,3.81s-3.48-1.26-3.48-3.81Zm5.48-.07v-1.56c0-1.77-.85-2.62-2-2.62s-2,.85-2,2.62v1.56c0,1.78,.85,2.62,2,2.62s2-.84,2-2.62Z"/>
      <path class="cls-2" d="M710.44,107.83v-1.09l3.38-3.22c.95-.91,1.38-1.52,1.38-2.27s-.56-1.3-1.62-1.3-1.59,.73-1.85,1.65l-1.4-.32c.38-1.36,1.45-2.6,3.25-2.6s3.08,.92,3.08,2.51c0,1.19-.63,2.04-1.69,3.05l-2.42,2.29h4.31v1.3h-6.42Z"/>
      <path class="cls-2" d="M718.31,104.19v-1.69c0-2.53,1.58-3.81,3.48-3.81s3.47,1.28,3.47,3.81v1.69c0,2.54-1.58,3.81-3.47,3.81s-3.48-1.26-3.48-3.81Zm5.48-.07v-1.56c0-1.77-.85-2.62-2-2.62s-2,.85-2,2.62v1.56c0,1.78,.85,2.62,2,2.62s2-.84,2-2.62Z"/>
      <path class="cls-2" d="M710.44,136.83v-1.09l3.38-3.22c.95-.91,1.38-1.52,1.38-2.27s-.56-1.3-1.62-1.3-1.59,.73-1.85,1.65l-1.4-.32c.38-1.36,1.45-2.6,3.25-2.6s3.08,.92,3.08,2.51c0,1.19-.63,2.04-1.69,3.05l-2.42,2.29h4.31v1.3h-6.42Z"/>
      <path class="cls-2" d="M718.31,133.19v-1.69c0-2.53,1.58-3.81,3.48-3.81s3.47,1.28,3.47,3.81v1.69c0,2.54-1.58,3.81-3.47,3.81s-3.48-1.26-3.48-3.81Zm5.48-.07v-1.56c0-1.77-.85-2.62-2-2.62s-2,.85-2,2.62v1.56c0,1.78,.85,2.62,2,2.62s2-.84,2-2.62Z"/>
      <path class="cls-2" d="M713.81,165.83v-7.12l-1.91,1.44-.82-1.04,3-2.25h1.21v8.98h-1.48Z"/>
      <path class="cls-2" d="M717.19,162.19v-1.69c0-2.53,1.58-3.81,3.48-3.81s3.47,1.28,3.47,3.81v1.69c0,2.54-1.58,3.81-3.47,3.81s-3.48-1.26-3.48-3.81Zm5.48-.07v-1.56c0-1.77-.85-2.62-2-2.62s-2,.85-2,2.62v1.56c0,1.78,.85,2.62,2,2.62s2-.84,2-2.62Z"/>
      <path class="cls-2" d="M710.17,192.33c0-.9,.58-1.72,1.74-2.16-1.05-.4-1.5-1.13-1.5-1.97,0-1.65,1.38-2.52,3.22-2.52s3.21,.87,3.21,2.52c0,.84-.45,1.57-1.5,1.97,1.16,.44,1.74,1.25,1.74,2.16,0,1.74-1.48,2.66-3.46,2.66s-3.46-.92-3.46-2.66Zm5.46-.07c0-.87-.77-1.45-2-1.45s-2,.58-2,1.45,.74,1.46,2,1.46,2-.57,2-1.46Zm-.24-3.98c0-.81-.65-1.33-1.76-1.33s-1.75,.52-1.75,1.33,.64,1.32,1.75,1.32,1.76-.52,1.76-1.32Z"/>
      <path class="cls-2" d="M718.55,191.19v-1.69c0-2.53,1.58-3.81,3.48-3.81s3.47,1.28,3.47,3.81v1.69c0,2.54-1.58,3.81-3.47,3.81s-3.48-1.26-3.48-3.81Zm5.48-.07v-1.56c0-1.77-.85-2.62-2-2.62s-2,.85-2,2.62v1.56c0,1.78,.85,2.62,2,2.62s2-.84,2-2.62Z"/>
      <path class="cls-2" d="M710.44,223.83v-1.09l3.38-3.22c.95-.91,1.38-1.52,1.38-2.27s-.56-1.3-1.62-1.3-1.59,.73-1.85,1.65l-1.4-.32c.38-1.36,1.45-2.6,3.25-2.6s3.08,.92,3.08,2.51c0,1.19-.63,2.04-1.69,3.05l-2.42,2.29h4.31v1.3h-6.42Z"/>
      <path class="cls-2" d="M718.31,220.19v-1.69c0-2.53,1.58-3.81,3.48-3.81s3.47,1.28,3.47,3.81v1.69c0,2.54-1.58,3.81-3.47,3.81s-3.48-1.26-3.48-3.81Zm5.48-.07v-1.56c0-1.77-.85-2.62-2-2.62s-2,.85-2,2.62v1.56c0,1.78,.85,2.62,2,2.62s2-.84,2-2.62Z"/>
      <path class="cls-2" d="M713.81,252.83v-7.12l-1.91,1.44-.82-1.04,3-2.25h1.21v8.98h-1.48Z"/>
      <path class="cls-2" d="M717.19,249.19v-1.69c0-2.53,1.58-3.81,3.48-3.81s3.47,1.28,3.47,3.81v1.69c0,2.54-1.58,3.81-3.47,3.81s-3.48-1.26-3.48-3.81Zm5.48-.07v-1.56c0-1.77-.85-2.62-2-2.62s-2,.85-2,2.62v1.56c0,1.78,.85,2.62,2,2.62s2-.84,2-2.62Z"/>
      <path class="cls-2" d="M713.81,281.83v-7.12l-1.91,1.44-.82-1.04,3-2.25h1.21v8.98h-1.48Z"/>
      <path class="cls-2" d="M717.19,278.19v-1.69c0-2.53,1.58-3.81,3.48-3.81s3.47,1.28,3.47,3.81v1.69c0,2.54-1.58,3.81-3.47,3.81s-3.48-1.26-3.48-3.81Zm5.48-.07v-1.56c0-1.77-.85-2.62-2-2.62s-2,.85-2,2.62v1.56c0,1.78,.85,2.62,2,2.62s2-.84,2-2.62Z"/>
      <path class="cls-2" d="M714.06,310.83v-7.12l-1.91,1.44-.82-1.04,3-2.25h1.21v8.98h-1.48Z"/>
      <path class="cls-2" d="M723.89,308.02c0,1.78-1.28,2.97-3.25,2.97-1.37,0-2.76-.57-3.31-1.75l1.26-.68c.35,.77,1.1,1.14,1.97,1.14,1.18,0,1.89-.67,1.89-1.68s-.77-1.68-1.87-1.68c-.81,0-1.34,.36-1.65,1.01h-1.32l.58-5.5h5.36v1.29h-4.12l-.31,2.63c.44-.47,1.1-.71,1.75-.71,1.72,0,3.01,1.18,3.01,2.97Z"/>
      <path class="cls-2" d="M714.06,339.83v-7.12l-1.91,1.44-.82-1.04,3-2.25h1.21v8.98h-1.48Z"/>
      <path class="cls-2" d="M723.89,337.02c0,1.78-1.28,2.97-3.25,2.97-1.37,0-2.76-.57-3.31-1.75l1.26-.68c.35,.77,1.1,1.14,1.97,1.14,1.18,0,1.89-.67,1.89-1.68s-.77-1.68-1.87-1.68c-.81,0-1.34,.36-1.65,1.01h-1.32l.58-5.5h5.36v1.29h-4.12l-.31,2.63c.44-.47,1.1-.71,1.75-.71,1.72,0,3.01,1.18,3.01,2.97Z"/>
      <path class="cls-2" d="M713.81,368.83v-7.12l-1.91,1.44-.82-1.04,3-2.25h1.21v8.98h-1.48Z"/>
      <path class="cls-2" d="M717.19,365.19v-1.69c0-2.53,1.58-3.81,3.48-3.81s3.47,1.28,3.47,3.81v1.69c0,2.54-1.58,3.81-3.47,3.81s-3.48-1.26-3.48-3.81Zm5.48-.07v-1.56c0-1.77-.85-2.62-2-2.62s-2,.85-2,2.62v1.56c0,1.78,.85,2.62,2,2.62s2-.84,2-2.62Z"/>
      <path class="cls-2" d="M710.17,395.33c0-.9,.58-1.72,1.74-2.16-1.05-.4-1.5-1.13-1.5-1.97,0-1.65,1.38-2.52,3.22-2.52s3.21,.87,3.21,2.52c0,.84-.45,1.57-1.5,1.97,1.16,.44,1.74,1.25,1.74,2.16,0,1.74-1.48,2.66-3.46,2.66s-3.46-.92-3.46-2.66Zm5.46-.07c0-.87-.77-1.45-2-1.45s-2,.58-2,1.45,.74,1.46,2,1.46,2-.57,2-1.46Zm-.24-3.98c0-.81-.65-1.33-1.76-1.33s-1.75,.52-1.75,1.33,.64,1.32,1.75,1.32,1.76-.52,1.76-1.32Z"/>
      <path class="cls-2" d="M718.55,394.19v-1.69c0-2.53,1.58-3.81,3.48-3.81s3.47,1.28,3.47,3.81v1.69c0,2.54-1.58,3.81-3.47,3.81s-3.48-1.26-3.48-3.81Zm5.48-.07v-1.56c0-1.77-.85-2.62-2-2.62s-2,.85-2,2.62v1.56c0,1.78,.85,2.62,2,2.62s2-.84,2-2.62Z"/>
      <path class="cls-2" d="M713.81,426.83v-7.12l-1.91,1.44-.82-1.04,3-2.25h1.21v8.98h-1.48Z"/>
      <path class="cls-2" d="M717.19,423.19v-1.69c0-2.53,1.58-3.81,3.48-3.81s3.47,1.28,3.47,3.81v1.69c0,2.54-1.58,3.81-3.47,3.81s-3.48-1.26-3.48-3.81Zm5.48-.07v-1.56c0-1.77-.85-2.62-2-2.62s-2,.85-2,2.62v1.56c0,1.78,.85,2.62,2,2.62s2-.84,2-2.62Z"/>
      <path class="cls-2" d="M710.44,455.83v-1.09l3.38-3.22c.95-.91,1.38-1.52,1.38-2.27s-.56-1.3-1.62-1.3-1.59,.73-1.85,1.65l-1.4-.32c.38-1.36,1.45-2.6,3.25-2.6s3.08,.92,3.08,2.51c0,1.19-.63,2.04-1.69,3.05l-2.42,2.29h4.31v1.3h-6.42Z"/>
      <path class="cls-2" d="M718.31,452.19v-1.69c0-2.53,1.58-3.81,3.48-3.81s3.47,1.28,3.47,3.81v1.69c0,2.54-1.58,3.81-3.47,3.81s-3.48-1.26-3.48-3.81Zm5.48-.07v-1.56c0-1.77-.85-2.62-2-2.62s-2,.85-2,2.62v1.56c0,1.78,.85,2.62,2,2.62s2-.84,2-2.62Z"/>
      <path class="cls-2" d="M710.44,484.83v-1.09l3.38-3.22c.95-.91,1.38-1.52,1.38-2.27s-.56-1.3-1.62-1.3-1.59,.73-1.85,1.65l-1.4-.32c.38-1.36,1.45-2.6,3.25-2.6s3.08,.92,3.08,2.51c0,1.19-.63,2.04-1.69,3.05l-2.42,2.29h4.31v1.3h-6.42Z"/>
      <path class="cls-2" d="M718.31,481.19v-1.69c0-2.53,1.58-3.81,3.48-3.81s3.47,1.28,3.47,3.81v1.69c0,2.54-1.58,3.81-3.47,3.81s-3.48-1.26-3.48-3.81Zm5.48-.07v-1.56c0-1.77-.85-2.62-2-2.62s-2,.85-2,2.62v1.56c0,1.78,.85,2.62,2,2.62s2-.84,2-2.62Z"/>
      <path class="cls-2" d="M710.44,513.83v-1.09l3.38-3.22c.95-.91,1.38-1.52,1.38-2.27s-.56-1.3-1.62-1.3-1.59,.73-1.85,1.65l-1.4-.32c.38-1.36,1.45-2.6,3.25-2.6s3.08,.92,3.08,2.51c0,1.19-.63,2.04-1.69,3.05l-2.42,2.29h4.31v1.3h-6.42Z"/>
      <path class="cls-2" d="M718.31,510.19v-1.69c0-2.53,1.58-3.81,3.48-3.81s3.47,1.28,3.47,3.81v1.69c0,2.54-1.58,3.81-3.47,3.81s-3.48-1.26-3.48-3.81Zm5.48-.07v-1.56c0-1.77-.85-2.62-2-2.62s-2,.85-2,2.62v1.56c0,1.78,.85,2.62,2,2.62s2-.84,2-2.62Z"/>
      <path class="cls-2" d="M710.44,542.83v-1.09l3.38-3.22c.95-.91,1.38-1.52,1.38-2.27s-.56-1.3-1.62-1.3-1.59,.73-1.85,1.65l-1.4-.32c.38-1.36,1.45-2.6,3.25-2.6s3.08,.92,3.08,2.51c0,1.19-.63,2.04-1.69,3.05l-2.42,2.29h4.31v1.3h-6.42Z"/>
      <path class="cls-2" d="M718.31,539.19v-1.69c0-2.53,1.58-3.81,3.48-3.81s3.47,1.28,3.47,3.81v1.69c0,2.54-1.58,3.81-3.47,3.81s-3.48-1.26-3.48-3.81Zm5.48-.07v-1.56c0-1.77-.85-2.62-2-2.62s-2,.85-2,2.62v1.56c0,1.78,.85,2.62,2,2.62s2-.84,2-2.62Z"/>
      <path class="cls-2" d="M716.96,565.85v2.23c0,2.72-1.62,3.91-3.26,3.91s-2.7-.67-3.33-1.94l1.2-.62c.47,.87,1.05,1.3,2.06,1.3,1.1,0,1.99-.81,1.99-2.71v-.36c-.48,.73-1.4,1.1-2.33,1.1-1.62,0-3.11-1.2-3.11-3.06s1.49-3.03,3.41-3.03,3.38,1.12,3.38,3.17Zm-1.45-.11c0-1.11-.83-1.8-1.93-1.8s-1.96,.69-1.96,1.8,.85,1.79,1.96,1.79,1.93-.69,1.93-1.79Z"/>
      <path class="cls-2" d="M718.43,568.19v-1.69c0-2.53,1.58-3.81,3.48-3.81s3.47,1.28,3.47,3.81v1.69c0,2.54-1.58,3.81-3.47,3.81s-3.48-1.26-3.48-3.81Zm5.48-.07v-1.56c0-1.77-.85-2.62-2-2.62s-2,.85-2,2.62v1.56c0,1.78,.85,2.62,2,2.62s2-.84,2-2.62Z"/>
      <path class="cls-2" d="M706.48,600.83v-1.09l3.38-3.22c.95-.91,1.38-1.52,1.38-2.27s-.56-1.3-1.62-1.3-1.59,.73-1.85,1.65l-1.4-.32c.38-1.36,1.45-2.6,3.25-2.6s3.08,.92,3.08,2.51c0,1.19-.63,2.04-1.69,3.05l-2.42,2.29h4.31v1.3h-6.42Z"/>
      <path class="cls-2" d="M720.8,598.02c0,1.78-1.28,2.97-3.25,2.97-1.37,0-2.76-.57-3.31-1.75l1.26-.68c.35,.77,1.1,1.14,1.97,1.14,1.18,0,1.89-.67,1.89-1.68s-.77-1.68-1.87-1.68c-.81,0-1.34,.36-1.65,1.01h-1.32l.58-5.5h5.36v1.29h-4.12l-.31,2.63c.43-.47,1.1-.71,1.75-.71,1.72,0,3.01,1.18,3.01,2.97Z"/>
      <path class="cls-2" d="M722.26,597.19v-1.69c0-2.53,1.58-3.81,3.48-3.81s3.47,1.28,3.47,3.81v1.69c0,2.54-1.58,3.81-3.47,3.81s-3.48-1.26-3.48-3.81Zm5.48-.07v-1.56c0-1.77-.85-2.62-2-2.62s-2,.85-2,2.62v1.56c0,1.78,.85,2.62,2,2.62s2-.84,2-2.62Z"/>
    </g>
    <g>
      <path class="cls-2" d="M439.3,15.86v1.21h-5.4v-5.47h1.4v1.54h2.6v-1.54h1.41v.89h1.93v-1.33h1.48v7.6h-1.48v-2.9h-1.93Zm-4-.02h2.6v-1.49h-2.6v1.49Zm1.61,4.32h6.19v1.28h-7.64v-3.27h1.45v1.99Zm4.33-6.55h-1.93v1.13h1.93v-1.13Z"/>
      <path class="cls-2" d="M444.63,14.39v-.17c0-1.95,1.32-2.85,2.95-2.85s2.93,.9,2.93,2.85v.17c0,1.92-1.3,2.83-2.93,2.83s-2.95-.9-2.95-2.83Zm4.43-.01v-.15c0-1.1-.68-1.62-1.48-1.62s-1.49,.52-1.49,1.62v.15c0,1.1,.66,1.61,1.49,1.61s1.48-.51,1.48-1.61Zm-2.77,7.05v-3.37h1.46v2.09h6.19v1.28h-7.66Zm5.79-2.67v-7.6h1.46v7.6h-1.46Z"/>
    </g>
    <g>
      <path class="cls-2" d="M108.78,16.04c-.5,.7-1.41,1.04-2.46,1.04-1.64,0-2.91-.81-2.91-2.5v-.14c0-1.71,1.27-2.51,2.91-2.51,1,0,1.87,.31,2.39,.95h2.15v-1.11h1.46v5.59h-1.46v-1.32h-2.08Zm1.09,1.77c1.52,0,2.59,.87,2.59,2.17s-1.06,2.17-2.59,2.17h-2.44c-1.52,0-2.58-.86-2.58-2.17s1.05-2.17,2.58-2.17h2.44Zm-4.99-3.26c0,.89,.63,1.3,1.44,1.3s1.43-.41,1.43-1.3v-.1c0-.89-.64-1.3-1.43-1.3s-1.44,.41-1.44,1.3v.1Zm4.77,6.34c.89,0,1.34-.37,1.34-.92s-.45-.91-1.34-.91h-2c-.88,0-1.34,.37-1.34,.91s.46,.92,1.34,.92h2Zm1.21-6.89h-1.68c.02,.14,.03,.29,.03,.44v.14c0,.11-.01,.22-.02,.33h1.67v-.91Z"/>
      <path class="cls-2" d="M121.71,11.77h1.46v5.75h-1.46v-1.43h-2.06c-.5,.74-1.43,1.09-2.49,1.09-1.63,0-2.9-.83-2.9-2.54v-.15c0-1.73,1.27-2.55,2.9-2.55,1.02,0,1.91,.33,2.43,1h2.13v-1.17Zm-3.11,2.73c0-.91-.64-1.34-1.44-1.34s-1.43,.43-1.43,1.34v.12c0,.91,.63,1.34,1.43,1.34s1.44-.43,1.44-1.34v-.12Zm-2.79,4.85v-1.26h7.37v4.06h-1.46v-2.79h-5.91Zm5.91-4.38v-.92h-1.68c.02,.14,.03,.29,.03,.44v.15c0,.11,0,.22-.01,.33h1.66Z"/>
    </g>
  </g>
</svg>