<?xml version="1.0" encoding="UTF-8"?>
<svg id="Layer_2" data-name="Layer 2" xmlns="http://www.w3.org/2000/svg" viewBox="0 0 578.42 628.7">
  <defs>
    <style>
      .cls-1, .cls-2 {
        font-family: NanumSquareNeovariable-ExtraBold, 'NanumSquare Neo variable';
        font-variation-settings: 'wght' 700;
      }

      .cls-3, .cls-4, .cls-2 {
        fill: #fff;
      }

      .cls-3, .cls-2 {
        font-size: 16px;
      }

      .cls-5, .cls-6 {
        fill: none;
        stroke: #fff;
        stroke-miterlimit: 10;
      }

      .cls-7 {
        font-family: NanumSquareNeovariable-Regular, 'NanumSquare Neo variable';
        font-variation-settings: 'wght' 300;
      }

      .cls-6 {
        opacity: .4;
        stroke-width: .5px;
      }
    </style>
  </defs>
  <g id="Layer_1-2" data-name="Layer 1">
    <g>
      <text class="cls-2" transform="translate(7.64 105.46)"><tspan x="0" y="0">제도적 통합</tspan></text>
      <text class="cls-2" transform="translate(32.69 24.46)"><tspan x="0" y="0">영역</tspan></text>
      <text class="cls-2"><tspan x="7.65" y="425.35">관계적 통합</tspan><tspan x="32.39" y="585.35">합계</tspan></text>
      <g>
        <path class="cls-4" d="M130.97,63.15c-.45,0-.86-.11-1.24-.33-.38-.22-.68-.52-.9-.9-.22-.38-.33-.79-.33-1.22s.11-.86,.33-1.24c.22-.38,.52-.68,.9-.9,.38-.22,.79-.33,1.24-.33s.86,.11,1.24,.33c.38,.22,.68,.52,.9,.9,.22,.38,.33,.79,.33,1.24s-.11,.85-.33,1.22c-.22,.38-.52,.68-.9,.9-.38,.22-.79,.33-1.24,.33Z"/>
        <path class="cls-4" d="M145.29,65.17c1.33-1.37,2.32-2.78,2.97-4.26,.65-1.47,.97-3.11,.97-4.93v-1.86h1.12v1.86c0,1.91-.35,3.67-1.04,5.29-.69,1.62-1.77,3.17-3.22,4.66l-.8-.77Zm8.16,.61l-4.59-5.65,.85-.72,4.59,5.63-.85,.74Zm2.69,2.21v-14.77h1.15v14.77h-1.15Zm.67-7.94v-1.06h2.93v1.06h-2.93Z"/>
        <path class="cls-4" d="M161.01,66.02l-.06-1.06h2.69c.95,0,2.09-.04,3.42-.13,1.33-.08,2.56-.2,3.69-.34l.13,1.01c-1.1,.16-2.31,.29-3.64,.38s-2.55,.14-3.66,.14h-2.56Zm.4-9.94v-.98h8.66v.98h-8.66Zm4.35,6.83c-1.06,0-1.93-.25-2.61-.74-.68-.49-1.02-1.16-1.02-2.02v-.27c0-.86,.34-1.54,1.02-2.02s1.55-.73,2.61-.73,1.89,.24,2.57,.73c.68,.49,1.02,1.16,1.02,2.02v.27c0,.85-.34,1.53-1.02,2.02-.68,.49-1.53,.74-2.57,.74Zm0-.96c.7,0,1.29-.17,1.76-.5s.7-.77,.7-1.31v-.22c0-.54-.23-.98-.7-1.32s-1.06-.5-1.76-.5-1.33,.17-1.8,.5c-.47,.33-.71,.77-.71,1.33v.22c0,.54,.24,.98,.71,1.31s1.07,.5,1.8,.5Zm-.61-6.34v-2.38h1.15v2.38h-1.15Zm.02,9.82v-3.22h1.15v3.22h-1.15Zm6.98,2.54v-14.77h1.14v14.77h-1.14Z"/>
        <path class="cls-4" d="M175.98,62.21v-1.06h13.82v1.06h-13.82Zm1.86,5.78v-4.29h1.15v3.23h9.28v1.06h-10.43Zm.08-8.64v-5.76h9.97v5.76h-9.97Zm1.14-1.04h7.68v-3.7h-7.68v3.7Zm3.28,6.83v-3.54h1.14v3.54h-1.14Z"/>
        <path class="cls-4" d="M190.97,66.02l-.05-1.04h2.54c.92,0,2.03-.04,3.33-.13,1.3-.08,2.5-.2,3.6-.34l.13,1.01c-1.1,.15-2.3,.27-3.61,.36s-2.48,.14-3.51,.14h-2.43Zm.21-9.94v-.98h8.5v.98h-8.5Zm4.27,6.83c-1.03,0-1.89-.25-2.55-.74-.67-.49-1-1.16-1-2.02v-.27c0-.86,.33-1.54,.99-2.02,.66-.49,1.51-.73,2.56-.73s1.87,.24,2.53,.73c.66,.49,.99,1.16,.99,2.02v.27c0,.85-.33,1.53-.99,2.02-.66,.49-1.5,.74-2.53,.74Zm0-.96c.69,0,1.27-.17,1.72-.5,.45-.33,.68-.77,.68-1.31v-.22c0-.55-.23-1-.68-1.33-.45-.33-1.03-.5-1.72-.5s-1.29,.17-1.74,.5c-.46,.33-.69,.77-.69,1.33v.22c0,.54,.23,.98,.69,1.31s1.04,.5,1.74,.5Zm-.59-6.34v-2.38h1.15v2.38h-1.15Zm.08,9.82v-3.38h1.15v3.38h-1.15Zm6.86,2.54v-14.77h1.14v14.77h-1.14Zm.62-7.79v-1.04h2.82v1.04h-2.82Z"/>
        <path class="cls-4" d="M206.53,60.47c1.33-.79,2.33-1.59,2.98-2.41,.65-.82,.98-1.75,.98-2.79v-.75h1.12v.75c0,1.25-.37,2.36-1.1,3.34-.74,.98-1.87,1.9-3.41,2.78l-.56-.91Zm.59-5.42v-1.02h7.87v1.02h-7.87Zm5.33,13.09c-.7,0-1.32-.13-1.84-.38-.52-.26-.92-.61-1.2-1.06-.28-.45-.42-.95-.42-1.52s.14-1.06,.42-1.51,.68-.81,1.2-1.07c.52-.26,1.14-.39,1.84-.39h3.1c.7,0,1.32,.13,1.84,.39,.52,.26,.92,.62,1.2,1.07s.42,.96,.42,1.51-.14,1.07-.42,1.52c-.28,.45-.68,.8-1.2,1.06-.52,.26-1.14,.38-1.84,.38h-3.1Zm2.88-1.02c.82,0,1.45-.18,1.88-.54,.43-.36,.65-.83,.65-1.42s-.22-1.03-.65-1.39c-.43-.36-1.06-.54-1.88-.54h-2.66c-.82,0-1.45,.18-1.89,.54-.44,.36-.66,.83-.66,1.39s.22,1.06,.66,1.42c.44,.36,1.07,.54,1.89,.54h2.66Zm-.35-5.95l-4.75-3.31,.62-.85,4.72,3.22-.59,.94Zm-.51-3.55v-1.01h3.79v1.01h-3.79Zm3.18,3.7v-8.06h1.14v8.06h-1.14Z"/>
        <path class="cls-4" d="M221.33,60.8c1.08-.71,1.87-1.46,2.39-2.22,.52-.77,.78-1.64,.78-2.62v-.38h1.1v.38c0,1.21-.3,2.26-.89,3.16s-1.53,1.76-2.82,2.57l-.56-.88Zm.45-4.78v-1.02h6.61v1.02h-6.61Zm6.42,5.34l-3.81-3.14,.62-.82,3.82,3.09-.64,.86Zm4.82,6.77v-4.19h-8.54v-1.06h9.68v5.25h-1.14Zm-8.51-12.77v-2.34h1.1v2.34h-1.1Zm5.22,6.48v-8.46h1.1v8.46h-1.1Zm.53-3.97v-1.02h3.26v1.02h-3.26Zm2.8,3.97v-8.62h1.1v8.62h-1.1Z"/>
        <path class="cls-4" d="M240.54,60.85v-1.02h13.82v1.02h-13.82Zm5.33,7.3c-.78,0-1.45-.12-2.01-.36-.56-.24-.98-.57-1.26-.99-.28-.42-.42-.9-.42-1.43s.14-1.01,.42-1.43c.28-.42,.7-.75,1.26-.99,.56-.24,1.23-.36,2.01-.36h3.17c.79,0,1.46,.12,2.02,.36,.56,.24,.98,.57,1.26,.99,.28,.42,.42,.9,.42,1.43s-.14,1.01-.42,1.43c-.28,.42-.7,.75-1.26,.99s-1.23,.36-2.02,.36h-3.17Zm4.88-9.44c.15-.73,.27-1.46,.35-2.2s.13-1.32,.13-1.74v-.51l.43,.53h-9.26v-1.04h9.97v.77c0,.6-.05,1.28-.14,2.05-.09,.77-.22,1.54-.38,2.3l-1.1-.16Zm-1.98,8.43c.93,0,1.63-.16,2.11-.48,.48-.32,.72-.76,.72-1.31s-.24-.96-.73-1.28c-.49-.32-1.19-.48-2.1-.48h-2.62c-.92,0-1.62,.16-2.1,.48-.49,.32-.73,.75-.73,1.28s.24,.99,.72,1.31c.48,.32,1.18,.48,2.11,.48h2.62Zm-2.42-6.83v-3.54h1.14v3.54h-1.14Z"/>
        <path class="cls-4" d="M255.71,61.3v-1.01h13.82v1.01h-13.82Zm5.3,6.85c-.78,0-1.44-.11-1.99-.34-.55-.22-.97-.53-1.25-.93s-.42-.85-.42-1.38,.14-.96,.42-1.36c.28-.39,.7-.7,1.25-.93,.55-.22,1.21-.34,1.99-.34h3.23c.79,0,1.46,.11,2.01,.34,.55,.22,.97,.53,1.25,.93,.28,.4,.42,.85,.42,1.36s-.14,.98-.42,1.38c-.28,.39-.7,.7-1.25,.93-.55,.22-1.22,.34-2.01,.34h-3.23Zm6.45-14.56v.99h-8.67v3.09h8.83v1.01h-9.97v-5.09h9.81Zm-3.47,13.55c.92,0,1.61-.15,2.08-.44,.47-.29,.7-.69,.7-1.19s-.23-.89-.7-1.18-1.16-.42-2.08-.42h-2.72c-.92,0-1.61,.14-2.08,.42-.47,.28-.7,.67-.7,1.18s.23,.9,.7,1.19c.47,.29,1.16,.44,2.08,.44h2.72Zm-1.92-6.22v-2.86h1.14v2.86h-1.14Z"/>
        <path class="cls-4" d="M271.09,60.21c1.35-.76,2.37-1.53,3.04-2.32,.67-.79,1.01-1.68,1.01-2.69v-.7h1.12v.7c0,1.22-.38,2.3-1.14,3.26-.76,.96-1.93,1.85-3.5,2.7l-.53-.94Zm.59-5.17v-1.02h8.05v1.02h-8.05Zm2.18,12.94v-6.18h1.14v5.14h7.22v-5.14h1.14v6.18h-9.49Zm.62-3.18v-1.02h8.26v1.02h-8.26Zm5.28-3.97l-4.9-3.18,.61-.86,4.85,3.09-.56,.96Zm2.45,.08v-7.7h1.14v7.7h-1.14Z"/>
        <path class="cls-4" d="M286.11,55.68v-.96h6.99v.96h-6.99Zm3.52,5.94c-.89,0-1.59-.21-2.13-.63-.53-.42-.8-1.02-.8-1.78v-.22c0-.76,.27-1.35,.8-1.77,.53-.42,1.24-.63,2.13-.63s1.58,.21,2.1,.63c.53,.42,.79,1.01,.79,1.77v.22c0,.77-.26,1.36-.79,1.78-.53,.42-1.23,.63-2.1,.63Zm0-.98c.54,0,.98-.13,1.32-.4s.5-.62,.5-1.07v-.14c0-.44-.17-.79-.5-1.06s-.78-.41-1.32-.41-1,.14-1.34,.41c-.34,.27-.51,.63-.51,1.06v.14c0,.45,.17,.81,.5,1.07,.34,.27,.79,.4,1.35,.4Zm2.61,7.49c-.73,0-1.35-.11-1.87-.34-.52-.23-.92-.55-1.2-.97s-.42-.89-.42-1.42,.14-.99,.42-1.41,.68-.74,1.21-.98c.53-.23,1.15-.35,1.86-.35h3.22c.71,0,1.33,.12,1.86,.35,.52,.24,.92,.56,1.2,.98,.28,.42,.42,.88,.42,1.41s-.14,1.01-.42,1.42c-.28,.42-.68,.74-1.2,.97-.52,.23-1.14,.34-1.86,.34h-3.22Zm-3.22-12.9v-2.21h1.15v2.21h-1.15Zm6.19,11.87c.84,0,1.48-.15,1.91-.46s.65-.73,.65-1.25-.22-.92-.65-1.23-1.07-.46-1.91-.46h-2.75c-.83,0-1.47,.15-1.9,.46-.44,.31-.66,.72-.66,1.23s.22,.94,.65,1.25c.43,.31,1.07,.46,1.91,.46h2.75Zm-.93-5.49v-8.24h1.09v8.24h-1.09Zm.51-3.58v-1.04h3.28v1.04h-3.28Zm2.82,3.74v-8.56h1.1v8.56h-1.1Z"/>
        <path class="cls-4" d="M302,65.22c1.25-.81,2.33-1.72,3.23-2.74,.91-1.02,1.6-2.09,2.09-3.22s.73-2.27,.73-3.41v-.77l.42,.45h-6.24v-1.04h6.98v1.14c0,2.05-.57,3.97-1.71,5.76-1.14,1.79-2.75,3.37-4.82,4.74l-.67-.9Zm10.56,2.77v-14.77h1.14v14.77h-1.14Z"/>
        <path class="cls-4" d="M316.38,62.24v-1.06h13.82v1.06h-13.82Zm10-.59c.21-1.11,.39-2.25,.52-3.41,.13-1.16,.2-2.1,.2-2.8v-.86l.45,.53h-9.58v-1.06h10.27v1.14c0,.9-.07,1.93-.2,3.11-.13,1.18-.31,2.36-.54,3.54l-1.12-.19Zm-3.65,6.51v-6.37h1.14v6.37h-1.14Z"/>
        <path class="cls-4" d="M130.97,103.15c-.45,0-.86-.11-1.24-.33-.38-.22-.68-.52-.9-.9-.22-.38-.33-.79-.33-1.22s.11-.86,.33-1.24c.22-.38,.52-.68,.9-.9,.38-.22,.79-.33,1.24-.33s.86,.11,1.24,.33c.38,.22,.68,.52,.9,.9,.22,.38,.33,.79,.33,1.24s-.11,.85-.33,1.22c-.22,.38-.52,.68-.9,.9-.38,.22-.79,.33-1.24,.33Z"/>
        <path class="cls-4" d="M145.29,105.17c1.33-1.37,2.32-2.78,2.97-4.26,.65-1.47,.97-3.11,.97-4.93v-1.86h1.12v1.86c0,1.91-.35,3.67-1.04,5.29-.69,1.62-1.77,3.17-3.22,4.66l-.8-.77Zm8.16,.61l-4.59-5.65,.85-.72,4.59,5.63-.85,.74Zm2.69,2.21v-14.77h1.15v14.77h-1.15Zm.67-7.94v-1.06h2.93v1.06h-2.93Z"/>
        <path class="cls-4" d="M161.01,106.02l-.06-1.06h2.69c.95,0,2.09-.04,3.42-.13,1.33-.08,2.56-.2,3.69-.34l.13,1.01c-1.1,.16-2.31,.29-3.64,.38s-2.55,.14-3.66,.14h-2.56Zm.4-9.94v-.98h8.66v.98h-8.66Zm4.35,6.83c-1.06,0-1.93-.25-2.61-.74-.68-.49-1.02-1.16-1.02-2.02v-.27c0-.86,.34-1.54,1.02-2.02s1.55-.73,2.61-.73,1.89,.24,2.57,.73c.68,.49,1.02,1.16,1.02,2.02v.27c0,.85-.34,1.53-1.02,2.02-.68,.49-1.53,.74-2.57,.74Zm0-.96c.7,0,1.29-.17,1.76-.5s.7-.77,.7-1.31v-.22c0-.54-.23-.98-.7-1.32s-1.06-.5-1.76-.5-1.33,.17-1.8,.5c-.47,.33-.71,.77-.71,1.33v.22c0,.54,.24,.98,.71,1.31s1.07,.5,1.8,.5Zm-.61-6.34v-2.38h1.15v2.38h-1.15Zm.02,9.82v-3.22h1.15v3.22h-1.15Zm6.98,2.54v-14.77h1.14v14.77h-1.14Z"/>
        <path class="cls-4" d="M175.98,102.21v-1.06h13.82v1.06h-13.82Zm1.86,5.78v-4.29h1.15v3.23h9.28v1.06h-10.43Zm.08-8.64v-5.76h9.97v5.76h-9.97Zm1.14-1.04h7.68v-3.7h-7.68v3.7Zm3.28,6.83v-3.54h1.14v3.54h-1.14Z"/>
        <path class="cls-4" d="M190.97,106.02l-.05-1.04h2.54c.92,0,2.03-.04,3.33-.13,1.3-.08,2.5-.2,3.6-.34l.13,1.01c-1.1,.15-2.3,.27-3.61,.36s-2.48,.14-3.51,.14h-2.43Zm.21-9.94v-.98h8.5v.98h-8.5Zm4.27,6.83c-1.03,0-1.89-.25-2.55-.74-.67-.49-1-1.16-1-2.02v-.27c0-.86,.33-1.54,.99-2.02,.66-.49,1.51-.73,2.56-.73s1.87,.24,2.53,.73c.66,.49,.99,1.16,.99,2.02v.27c0,.85-.33,1.53-.99,2.02-.66,.49-1.5,.74-2.53,.74Zm0-.96c.69,0,1.27-.17,1.72-.5,.45-.33,.68-.77,.68-1.31v-.22c0-.55-.23-1-.68-1.33-.45-.33-1.03-.5-1.72-.5s-1.29,.17-1.74,.5c-.46,.33-.69,.77-.69,1.33v.22c0,.54,.23,.98,.69,1.31s1.04,.5,1.74,.5Zm-.59-6.34v-2.38h1.15v2.38h-1.15Zm.08,9.82v-3.38h1.15v3.38h-1.15Zm6.86,2.54v-14.77h1.14v14.77h-1.14Zm.62-7.79v-1.04h2.82v1.04h-2.82Z"/>
        <path class="cls-4" d="M206.32,102.59v-1.06h13.82v1.06h-13.82Zm1.86,5.39v-3.98h1.15v2.93h9.28v1.06h-10.43Zm.08-8.19v-6.29h1.14v5.3h7.68v-5.3h1.15v6.29h-9.97Zm.64-3.1v-1.01h8.69v1.01h-8.69Zm3.78,8.45v-3.23h1.14v3.23h-1.14Z"/>
        <path class="cls-4" d="M225.41,106.02c-1.11,0-2.01-.4-2.7-1.2-.69-.8-1.03-2.03-1.03-3.7v-2.21c0-1.66,.34-2.9,1.03-3.7s1.59-1.2,2.7-1.2,1.99,.4,2.68,1.2,1.03,2.03,1.03,3.7v2.21c0,1.66-.34,2.9-1.03,3.7-.69,.8-1.58,1.2-2.68,1.2Zm0-1.06c.78,0,1.4-.31,1.86-.94,.46-.63,.7-1.6,.7-2.91v-2.19c0-1.31-.23-2.28-.7-2.9s-1.09-.94-1.86-.94-1.42,.31-1.89,.94c-.47,.62-.7,1.59-.7,2.9v2.19c0,1.31,.23,2.28,.7,2.91,.47,.63,1.1,.94,1.89,.94Zm6.59,3.02v-14.77h1.14v14.77h-1.14Zm.66-10.26v-1.06h2.94v1.06h-2.94Zm0,4.94v-1.06h2.94v1.06h-2.94Z"/>
        <path class="cls-4" d="M240.97,100.61v-6.59h1.15v5.54h1.3c.84,0,1.8-.04,2.87-.14,1.07-.09,2.09-.21,3.06-.34l.14,1.01c-.93,.16-1.95,.29-3.06,.38s-2.19,.14-3.22,.14h-2.24Zm2.03,7.38v-5.71h9.2v5.71h-9.2Zm1.15-1.04h6.9v-3.65h-6.9v3.65Zm6.9-5.73v-8h1.15v8h-1.15Zm.67-3.65v-1.04h2.93v1.04h-2.93Z"/>
        <path class="cls-4" d="M255.71,101.79v-1.01h13.82v1.01h-13.82Zm10.9,6.35v-3.46h-9.1v-1.02h10.26v4.48h-1.15Zm-8.96-8.94v-5.7h1.14v4.72h7.68v-4.72h1.15v5.7h-9.97Zm.64-2.83v-.98h8.69v.98h-8.69Zm3.66,7.71v-2.82h1.14v2.82h-1.14Z"/>
        <path class="cls-4" d="M275.57,100.4v-6.46h1.1v5.42h4.85v-5.42h1.1v6.46h-7.06Zm.54-3.3v-1.02h5.97v1.02h-5.97Zm1.65,10.88v-6.11h1.14v5.07h7.22v-5.07h1.14v6.11h-9.49Zm.62-3.15v-1.01h8.24v1.01h-8.24Zm3.89-7.26v-1.04h4.43v1.04h-4.43Zm3.84,3.44v-7.79h1.14v7.79h-1.14Z"/>
        <path class="cls-4" d="M289.77,105.23c1.06-1.39,1.84-2.76,2.36-4.13,.52-1.37,.78-2.9,.78-4.61v-1.44h1.09v1.44c0,1.77-.27,3.41-.82,4.91-.55,1.5-1.39,3.01-2.52,4.53l-.88-.7Zm.51-9.71v-1.04h6.38v1.04h-6.38Zm5.98,10.24l-3.7-5.54,.88-.7,3.73,5.58-.91,.66Zm-.59-5.87v-1.04h3.04v1.04h-3.04Zm2.61,7.82v-14.26h1.1v14.26h-1.1Zm3.18,.27v-14.77h1.12v14.77h-1.12Z"/>
        <path class="cls-4" d="M304.93,106.02l-.05-1.04h2.54c.92,0,2.03-.04,3.33-.13,1.3-.08,2.5-.2,3.6-.34l.13,1.01c-1.1,.15-2.3,.27-3.61,.36s-2.48,.14-3.51,.14h-2.43Zm.21-9.94v-.98h8.5v.98h-8.5Zm4.27,6.83c-1.03,0-1.89-.25-2.55-.74-.67-.49-1-1.16-1-2.02v-.27c0-.86,.33-1.54,.99-2.02,.66-.49,1.51-.73,2.56-.73s1.87,.24,2.53,.73c.66,.49,.99,1.16,.99,2.02v.27c0,.85-.33,1.53-.99,2.02-.66,.49-1.5,.74-2.53,.74Zm0-.96c.69,0,1.27-.17,1.72-.5,.45-.33,.68-.77,.68-1.31v-.22c0-.55-.23-1-.68-1.33-.45-.33-1.03-.5-1.72-.5s-1.29,.17-1.74,.5c-.46,.33-.69,.77-.69,1.33v.22c0,.54,.23,.98,.69,1.31s1.04,.5,1.74,.5Zm-.59-6.34v-2.38h1.15v2.38h-1.15Zm.08,9.82v-3.38h1.15v3.38h-1.15Zm6.86,2.54v-14.77h1.14v14.77h-1.14Zm.62-7.79v-1.04h2.82v1.04h-2.82Z"/>
        <path class="cls-4" d="M130.97,143.15c-.45,0-.86-.11-1.24-.33-.38-.22-.68-.52-.9-.9-.22-.38-.33-.79-.33-1.22s.11-.86,.33-1.24c.22-.38,.52-.68,.9-.9,.38-.22,.79-.33,1.24-.33s.86,.11,1.24,.33c.38,.22,.68,.52,.9,.9,.22,.38,.33,.79,.33,1.24s-.11,.85-.33,1.22c-.22,.38-.52,.68-.9,.9-.38,.22-.79,.33-1.24,.33Z"/>
        <path class="cls-4" d="M145.29,145.17c1.33-1.37,2.32-2.78,2.97-4.26,.65-1.47,.97-3.11,.97-4.93v-1.86h1.12v1.86c0,1.91-.35,3.67-1.04,5.29-.69,1.62-1.77,3.17-3.22,4.66l-.8-.77Zm8.16,.61l-4.59-5.65,.85-.72,4.59,5.63-.85,.74Zm2.69,2.21v-14.77h1.15v14.77h-1.15Zm.67-7.94v-1.06h2.93v1.06h-2.93Z"/>
        <path class="cls-4" d="M161.01,146.02l-.06-1.06h2.69c.95,0,2.09-.04,3.42-.13,1.33-.08,2.56-.2,3.69-.34l.13,1.01c-1.1,.16-2.31,.29-3.64,.38s-2.55,.14-3.66,.14h-2.56Zm.4-9.94v-.98h8.66v.98h-8.66Zm4.35,6.83c-1.06,0-1.93-.25-2.61-.74-.68-.49-1.02-1.16-1.02-2.02v-.27c0-.86,.34-1.54,1.02-2.02s1.55-.73,2.61-.73,1.89,.24,2.57,.73c.68,.49,1.02,1.16,1.02,2.02v.27c0,.85-.34,1.53-1.02,2.02-.68,.49-1.53,.74-2.57,.74Zm0-.96c.7,0,1.29-.17,1.76-.5s.7-.77,.7-1.31v-.22c0-.54-.23-.98-.7-1.32s-1.06-.5-1.76-.5-1.33,.17-1.8,.5c-.47,.33-.71,.77-.71,1.33v.22c0,.54,.24,.98,.71,1.31s1.07,.5,1.8,.5Zm-.61-6.34v-2.38h1.15v2.38h-1.15Zm.02,9.82v-3.22h1.15v3.22h-1.15Zm6.98,2.54v-14.77h1.14v14.77h-1.14Z"/>
        <path class="cls-4" d="M175.98,142.21v-1.06h13.82v1.06h-13.82Zm1.86,5.78v-4.29h1.15v3.23h9.28v1.06h-10.43Zm.08-8.64v-5.76h9.97v5.76h-9.97Zm1.14-1.04h7.68v-3.7h-7.68v3.7Zm3.28,6.83v-3.54h1.14v3.54h-1.14Z"/>
        <path class="cls-4" d="M190.97,146.02l-.05-1.04h2.54c.92,0,2.03-.04,3.33-.13,1.3-.08,2.5-.2,3.6-.34l.13,1.01c-1.1,.15-2.3,.27-3.61,.36s-2.48,.14-3.51,.14h-2.43Zm.21-9.94v-.98h8.5v.98h-8.5Zm4.27,6.83c-1.03,0-1.89-.25-2.55-.74-.67-.49-1-1.16-1-2.02v-.27c0-.86,.33-1.54,.99-2.02,.66-.49,1.51-.73,2.56-.73s1.87,.24,2.53,.73c.66,.49,.99,1.16,.99,2.02v.27c0,.85-.33,1.53-.99,2.02-.66,.49-1.5,.74-2.53,.74Zm0-.96c.69,0,1.27-.17,1.72-.5,.45-.33,.68-.77,.68-1.31v-.22c0-.55-.23-1-.68-1.33-.45-.33-1.03-.5-1.72-.5s-1.29,.17-1.74,.5c-.46,.33-.69,.77-.69,1.33v.22c0,.54,.23,.98,.69,1.31s1.04,.5,1.74,.5Zm-.59-6.34v-2.38h1.15v2.38h-1.15Zm.08,9.82v-3.38h1.15v3.38h-1.15Zm6.86,2.54v-14.77h1.14v14.77h-1.14Zm.62-7.79v-1.04h2.82v1.04h-2.82Z"/>
        <path class="cls-4" d="M206.16,145.23c1.06-1.39,1.84-2.76,2.36-4.13,.52-1.37,.78-2.9,.78-4.61v-1.44h1.09v1.44c0,1.77-.27,3.41-.82,4.91-.55,1.5-1.39,3.01-2.52,4.53l-.88-.7Zm.51-9.71v-1.04h6.38v1.04h-6.38Zm5.98,10.24l-3.7-5.54,.88-.7,3.73,5.58-.91,.66Zm-.59-5.87v-1.04h3.04v1.04h-3.04Zm2.61,7.82v-14.26h1.1v14.26h-1.1Zm3.18,.27v-14.77h1.12v14.77h-1.12Z"/>
        <path class="cls-4" d="M221.49,146.8v-1.06h13.82v1.06h-13.82Zm11.9-12.5v1.04h-8.98v5.5h9.12v1.02h-10.26v-7.57h10.11Zm-5.55,12.26v-5.3h1.14v5.3h-1.14Z"/>
        <path class="cls-4" d="M236.85,145.55l-.06-1.06h2.69c.95,0,2.09-.04,3.42-.13,1.33-.08,2.56-.2,3.69-.34l.13,1.01c-1.1,.16-2.31,.29-3.64,.38s-2.55,.14-3.66,.14h-2.56Zm4.66-3.55c-.74,0-1.39-.14-1.98-.42s-1.04-.71-1.38-1.29c-.34-.58-.51-1.28-.51-2.11v-.34c0-.83,.17-1.54,.51-2.11,.34-.58,.8-1,1.38-1.29,.58-.28,1.24-.42,1.98-.42s1.38,.14,1.96,.42c.58,.28,1.04,.71,1.38,1.29,.34,.58,.51,1.28,.51,2.11v.34c0,.83-.17,1.54-.51,2.11s-.8,1.01-1.38,1.29c-.58,.28-1.23,.42-1.96,.42Zm0-1.06c.8,0,1.45-.24,1.95-.72,.5-.48,.75-1.17,.75-2.06v-.3c0-.9-.25-1.59-.74-2.07s-1.15-.73-1.96-.73-1.47,.24-1.97,.73-.75,1.18-.75,2.07v.3c0,.9,.25,1.58,.75,2.06,.5,.48,1.16,.72,1.97,.72Zm6.48,7.04v-14.77h1.14v14.77h-1.14Z"/>
        <path class="cls-4" d="M256.14,141.62v-7.52h6.94v1.02h-5.81v5.46h1.36c.86,0,1.83-.04,2.89-.13,1.06-.09,2.07-.2,3.02-.35l.13,1.01c-.92,.15-1.93,.27-3.03,.37-1.1,.1-2.17,.14-3.19,.14h-2.3Zm2.03,6.37v-4.5h1.15v3.44h8.88v1.06h-10.03Zm8.05-3.55v-11.22h1.15v11.22h-1.15Zm.67-6.24v-1.06h2.93v1.06h-2.93Z"/>
        <path class="cls-4" d="M275.37,140.02c-1.12,0-2.04-.27-2.77-.81-.73-.54-1.09-1.3-1.09-2.3v-.26c0-1,.36-1.77,1.08-2.3,.72-.53,1.65-.8,2.78-.8s2.02,.27,2.74,.8c.72,.53,1.08,1.3,1.08,2.3v.26c0,.99-.36,1.76-1.08,2.3-.72,.54-1.63,.81-2.74,.81Zm0-1.04c.8,0,1.45-.18,1.94-.54,.5-.36,.74-.88,.74-1.55v-.21c0-.66-.25-1.18-.74-1.54-.5-.37-1.14-.55-1.94-.55s-1.46,.18-1.96,.55-.74,.88-.74,1.54v.21c0,.67,.25,1.19,.74,1.55,.5,.36,1.15,.54,1.96,.54Zm-1.5,9.09v-3.82h8.35v-1.76h-8.42v-.98h9.55v3.73h-8.34v1.82h8.96v1.01h-10.11Zm8.35-7.62v-7.23h1.14v7.23h-1.14Z"/>
        <path class="cls-4" d="M285.87,146.02l-.05-1.04h2.54c.92,0,2.03-.04,3.33-.13,1.3-.08,2.5-.2,3.6-.34l.13,1.01c-1.1,.15-2.3,.27-3.61,.36s-2.48,.14-3.51,.14h-2.43Zm.21-9.94v-.98h8.5v.98h-8.5Zm4.27,6.83c-1.03,0-1.89-.25-2.55-.74-.67-.49-1-1.16-1-2.02v-.27c0-.86,.33-1.54,.99-2.02,.66-.49,1.51-.73,2.56-.73s1.87,.24,2.53,.73c.66,.49,.99,1.16,.99,2.02v.27c0,.85-.33,1.53-.99,2.02-.66,.49-1.5,.74-2.53,.74Zm0-.96c.69,0,1.27-.17,1.72-.5,.45-.33,.68-.77,.68-1.31v-.22c0-.55-.23-1-.68-1.33-.45-.33-1.03-.5-1.72-.5s-1.29,.17-1.74,.5c-.46,.33-.69,.77-.69,1.33v.22c0,.54,.23,.98,.69,1.31s1.04,.5,1.74,.5Zm-.59-6.34v-2.38h1.15v2.38h-1.15Zm.08,9.82v-3.38h1.15v3.38h-1.15Zm6.86,2.54v-14.77h1.14v14.77h-1.14Zm.62-7.79v-1.04h2.82v1.04h-2.82Z"/>
        <path class="cls-4" d="M127.65,186.79v-1.04h13.82v1.04h-13.82Zm.83-5.55c1.9-.9,3.3-1.83,4.22-2.82,.91-.98,1.37-2.04,1.37-3.18v-1.17h1.14v1.17c0,1.34-.5,2.6-1.5,3.76-1,1.16-2.56,2.24-4.7,3.23l-.53-.99Zm11.52,.99l-6.18-4.22,.51-.98,6.3,4.26-.64,.94Zm-6,4.32v-4.74h1.14v4.74h-1.14Z"/>
        <path class="cls-4" d="M143.18,185.28c1.44-1.28,2.57-2.75,3.39-4.4,.82-1.65,1.23-3.33,1.23-5.04v-.77l.42,.45h-4.77v-1.04h5.49v1.14c0,2.02-.43,3.91-1.3,5.67-.87,1.77-2.08,3.37-3.64,4.82l-.82-.83Zm5.23-2.62v-1.02h3.2v1.02h-3.2Zm.08-4.62v-1.04h3.12v1.04h-3.12Zm2.69,9.68v-14.26h1.1v14.26h-1.1Zm3.18,.27v-14.77h1.12v14.77h-1.12Z"/>
        <path class="cls-4" d="M130.97,223.15c-.45,0-.86-.11-1.24-.33-.38-.22-.68-.52-.9-.9-.22-.38-.33-.79-.33-1.22s.11-.86,.33-1.24c.22-.38,.52-.68,.9-.9,.38-.22,.79-.33,1.24-.33s.86,.11,1.24,.33c.38,.22,.68,.52,.9,.9,.22,.38,.33,.79,.33,1.24s-.11,.85-.33,1.22c-.22,.38-.52,.68-.9,.9-.38,.22-.79,.33-1.24,.33Z"/>
        <path class="cls-4" d="M145.29,225.17c1.33-1.37,2.32-2.78,2.97-4.26,.65-1.47,.97-3.11,.97-4.93v-1.86h1.12v1.86c0,1.91-.35,3.67-1.04,5.29-.69,1.62-1.77,3.17-3.22,4.66l-.8-.77Zm8.16,.61l-4.59-5.65,.85-.72,4.59,5.63-.85,.74Zm2.69,2.21v-14.77h1.15v14.77h-1.15Zm.67-7.94v-1.06h2.93v1.06h-2.93Z"/>
        <path class="cls-4" d="M161.01,226.02l-.06-1.06h2.69c.95,0,2.09-.04,3.42-.13,1.33-.08,2.56-.2,3.69-.34l.13,1.01c-1.1,.16-2.31,.29-3.64,.38s-2.55,.14-3.66,.14h-2.56Zm.4-9.94v-.98h8.66v.98h-8.66Zm4.35,6.83c-1.06,0-1.93-.25-2.61-.74-.68-.49-1.02-1.16-1.02-2.02v-.27c0-.86,.34-1.54,1.02-2.02s1.55-.73,2.61-.73,1.89,.24,2.57,.73c.68,.49,1.02,1.16,1.02,2.02v.27c0,.85-.34,1.53-1.02,2.02-.68,.49-1.53,.74-2.57,.74Zm0-.96c.7,0,1.29-.17,1.76-.5s.7-.77,.7-1.31v-.22c0-.54-.23-.98-.7-1.32s-1.06-.5-1.76-.5-1.33,.17-1.8,.5c-.47,.33-.71,.77-.71,1.33v.22c0,.54,.24,.98,.71,1.31s1.07,.5,1.8,.5Zm-.61-6.34v-2.38h1.15v2.38h-1.15Zm.02,9.82v-3.22h1.15v3.22h-1.15Zm6.98,2.54v-14.77h1.14v14.77h-1.14Z"/>
        <path class="cls-4" d="M175.98,222.21v-1.06h13.82v1.06h-13.82Zm1.86,5.78v-4.29h1.15v3.23h9.28v1.06h-10.43Zm.08-8.64v-5.76h9.97v5.76h-9.97Zm1.14-1.04h7.68v-3.7h-7.68v3.7Zm3.28,6.83v-3.54h1.14v3.54h-1.14Z"/>
        <path class="cls-4" d="M190.97,226.02l-.05-1.04h2.54c.92,0,2.03-.04,3.33-.13,1.3-.08,2.5-.2,3.6-.34l.13,1.01c-1.1,.15-2.3,.27-3.61,.36s-2.48,.14-3.51,.14h-2.43Zm.21-9.94v-.98h8.5v.98h-8.5Zm4.27,6.83c-1.03,0-1.89-.25-2.55-.74-.67-.49-1-1.16-1-2.02v-.27c0-.86,.33-1.54,.99-2.02,.66-.49,1.51-.73,2.56-.73s1.87,.24,2.53,.73c.66,.49,.99,1.16,.99,2.02v.27c0,.85-.33,1.53-.99,2.02-.66,.49-1.5,.74-2.53,.74Zm0-.96c.69,0,1.27-.17,1.72-.5,.45-.33,.68-.77,.68-1.31v-.22c0-.55-.23-1-.68-1.33-.45-.33-1.03-.5-1.72-.5s-1.29,.17-1.74,.5c-.46,.33-.69,.77-.69,1.33v.22c0,.54,.23,.98,.69,1.31s1.04,.5,1.74,.5Zm-.59-6.34v-2.38h1.15v2.38h-1.15Zm.08,9.82v-3.38h1.15v3.38h-1.15Zm6.86,2.54v-14.77h1.14v14.77h-1.14Zm.62-7.79v-1.04h2.82v1.04h-2.82Z"/>
        <path class="cls-4" d="M214.7,221.78c-.73,0-1.38-.14-1.96-.43-.58-.29-1.04-.72-1.38-1.3-.34-.58-.51-1.29-.51-2.13v-.34c0-.84,.17-1.56,.51-2.14,.34-.59,.8-1.02,1.38-1.31,.58-.29,1.23-.43,1.96-.43s1.36,.14,1.94,.43,1.04,.73,1.38,1.31c.34,.59,.5,1.3,.5,2.14v.34c0,.84-.17,1.55-.5,2.13-.34,.58-.79,1.01-1.38,1.3s-1.23,.43-1.94,.43Zm0-1.02c.8,0,1.45-.25,1.94-.74,.5-.49,.74-1.19,.74-2.11v-.32c0-.92-.25-1.62-.74-2.12-.5-.5-1.14-.74-1.94-.74s-1.45,.25-1.95,.74-.75,1.2-.75,2.12v.32c0,.92,.25,1.62,.74,2.11,.5,.49,1.15,.74,1.96,.74Zm-1.5,7.23v-4.72h1.15v3.66h9.04v1.06h-10.19Zm8.35-3.55v-11.22h1.15v11.22h-1.15Z"/>
        <path class="cls-4" d="M225.58,220.63c1.33-.82,2.33-1.65,2.98-2.48,.65-.83,.98-1.79,.98-2.86v-.77h1.12v.77c0,1.27-.37,2.41-1.1,3.41-.74,1-1.87,1.95-3.41,2.85l-.56-.91Zm.59-5.57v-1.04h7.86v1.04h-7.86Zm10.53,13.07v-4.51h-8.51v-1.04h9.65v5.55h-1.14Zm-2.67-6.82l-4.75-3.41,.61-.83,4.74,3.31-.59,.93Zm-.51-3.55v-1.02h3.79v1.02h-3.79Zm3.18,3.78v-8.3h1.14v8.3h-1.14Z"/>
        <path class="cls-4" d="M244.25,221.6l-.05-1.01h2.54c.92,0,2.03-.04,3.33-.13,1.3-.08,2.5-.2,3.6-.34l.13,.98c-1.07,.15-2.25,.27-3.56,.36s-2.49,.14-3.56,.14h-2.43Zm4.42-2.64c-1.1,0-2.01-.22-2.72-.67s-1.07-1.08-1.07-1.89v-.19c0-.82,.35-1.46,1.06-1.9,.71-.45,1.62-.67,2.73-.67s2.02,.22,2.73,.67c.71,.45,1.06,1.08,1.06,1.9v.19c0,.81-.36,1.44-1.07,1.89-.71,.45-1.62,.67-2.72,.67Zm0-.99c.79,0,1.43-.14,1.92-.43,.49-.29,.74-.68,.74-1.17v-.13c0-.5-.25-.9-.74-1.18-.49-.29-1.13-.43-1.92-.43s-1.45,.14-1.94,.43c-.49,.29-.74,.68-.74,1.18v.13c0,.49,.25,.88,.74,1.17,.49,.29,1.14,.43,1.94,.43Zm1.25,10.16c-1.07,0-1.91-.24-2.53-.73-.62-.49-.93-1.13-.93-1.93,0-.52,.14-.98,.42-1.38,.28-.4,.67-.71,1.19-.94,.52-.23,1.13-.34,1.85-.34h3.07c.71,0,1.33,.12,1.85,.34,.52,.23,.91,.54,1.19,.94s.42,.86,.42,1.38c0,.8-.31,1.44-.93,1.93-.62,.48-1.46,.73-2.53,.73h-3.07Zm2.85-1.01c.82,0,1.45-.15,1.88-.45,.43-.3,.65-.7,.65-1.2s-.22-.9-.65-1.21c-.43-.3-1.06-.46-1.88-.46h-2.61c-.83,0-1.47,.15-1.9,.46-.44,.3-.66,.71-.66,1.21s.22,.9,.65,1.2c.43,.3,1.07,.45,1.91,.45h2.61Zm-4.62-6.08v-2.56h1.15v2.56h-1.15Zm6.94,1.02v-8.83h1.14v8.83h-1.14Zm.62-3.71v-1.06h2.82v1.06h-2.82Z"/>
        <path class="cls-4" d="M260.13,225.84v-6.32h4.35v-4.08h-4.35v-1.04h5.47v6.16h-4.37v4.24h1.01c.78,0,1.49-.03,2.14-.08,.65-.05,1.36-.14,2.13-.27l.13,1.01c-.73,.14-1.43,.24-2.13,.3s-1.51,.09-2.46,.09h-1.92Zm7.62,1.87v-14.26h1.12v14.26h-1.12Zm.5-7.66v-1.06h3.39v1.06h-3.39Zm2.91,7.94v-14.77h1.12v14.77h-1.12Z"/>
        <path class="cls-4" d="M130.97,263.15c-.45,0-.86-.11-1.24-.33-.38-.22-.68-.52-.9-.9-.22-.38-.33-.79-.33-1.22s.11-.86,.33-1.24c.22-.38,.52-.68,.9-.9,.38-.22,.79-.33,1.24-.33s.86,.11,1.24,.33c.38,.22,.68,.52,.9,.9,.22,.38,.33,.79,.33,1.24s-.11,.85-.33,1.22c-.22,.38-.52,.68-.9,.9-.38,.22-.79,.33-1.24,.33Z"/>
        <path class="cls-4" d="M145.29,265.17c1.33-1.37,2.32-2.78,2.97-4.26,.65-1.47,.97-3.11,.97-4.93v-1.86h1.12v1.86c0,1.91-.35,3.67-1.04,5.29-.69,1.62-1.77,3.17-3.22,4.66l-.8-.77Zm8.16,.61l-4.59-5.65,.85-.72,4.59,5.63-.85,.74Zm2.69,2.21v-14.77h1.15v14.77h-1.15Zm.67-7.94v-1.06h2.93v1.06h-2.93Z"/>
        <path class="cls-4" d="M161.01,266.02l-.06-1.06h2.69c.95,0,2.09-.04,3.42-.13,1.33-.08,2.56-.2,3.69-.34l.13,1.01c-1.1,.16-2.31,.29-3.64,.38s-2.55,.14-3.66,.14h-2.56Zm.4-9.94v-.98h8.66v.98h-8.66Zm4.35,6.83c-1.06,0-1.93-.25-2.61-.74-.68-.49-1.02-1.16-1.02-2.02v-.27c0-.86,.34-1.54,1.02-2.02s1.55-.73,2.61-.73,1.89,.24,2.57,.73c.68,.49,1.02,1.16,1.02,2.02v.27c0,.85-.34,1.53-1.02,2.02-.68,.49-1.53,.74-2.57,.74Zm0-.96c.7,0,1.29-.17,1.76-.5s.7-.77,.7-1.31v-.22c0-.54-.23-.98-.7-1.32s-1.06-.5-1.76-.5-1.33,.17-1.8,.5c-.47,.33-.71,.77-.71,1.33v.22c0,.54,.24,.98,.71,1.31s1.07,.5,1.8,.5Zm-.61-6.34v-2.38h1.15v2.38h-1.15Zm.02,9.82v-3.22h1.15v3.22h-1.15Zm6.98,2.54v-14.77h1.14v14.77h-1.14Z"/>
        <path class="cls-4" d="M175.98,262.21v-1.06h13.82v1.06h-13.82Zm1.86,5.78v-4.29h1.15v3.23h9.28v1.06h-10.43Zm.08-8.64v-5.76h9.97v5.76h-9.97Zm1.14-1.04h7.68v-3.7h-7.68v3.7Zm3.28,6.83v-3.54h1.14v3.54h-1.14Z"/>
        <path class="cls-4" d="M190.97,266.02l-.05-1.04h2.54c.92,0,2.03-.04,3.33-.13,1.3-.08,2.5-.2,3.6-.34l.13,1.01c-1.1,.15-2.3,.27-3.61,.36s-2.48,.14-3.51,.14h-2.43Zm.21-9.94v-.98h8.5v.98h-8.5Zm4.27,6.83c-1.03,0-1.89-.25-2.55-.74-.67-.49-1-1.16-1-2.02v-.27c0-.86,.33-1.54,.99-2.02,.66-.49,1.51-.73,2.56-.73s1.87,.24,2.53,.73c.66,.49,.99,1.16,.99,2.02v.27c0,.85-.33,1.53-.99,2.02-.66,.49-1.5,.74-2.53,.74Zm0-.96c.69,0,1.27-.17,1.72-.5,.45-.33,.68-.77,.68-1.31v-.22c0-.55-.23-1-.68-1.33-.45-.33-1.03-.5-1.72-.5s-1.29,.17-1.74,.5c-.46,.33-.69,.77-.69,1.33v.22c0,.54,.23,.98,.69,1.31s1.04,.5,1.74,.5Zm-.59-6.34v-2.38h1.15v2.38h-1.15Zm.08,9.82v-3.38h1.15v3.38h-1.15Zm6.86,2.54v-14.77h1.14v14.77h-1.14Zm.62-7.79v-1.04h2.82v1.04h-2.82Z"/>
        <path class="cls-4" d="M210.21,266.8v-1.06h13.82v1.06h-13.82Zm10.19-3.87c.23-1.25,.43-2.52,.58-3.82s.22-2.34,.22-3.14v-.99l.45,.53h-9.89v-1.04h10.58v1.25c0,.99-.07,2.14-.22,3.46-.15,1.31-.35,2.63-.59,3.97l-1.12-.21Zm-6.8,3.63v-6.93h1.1v6.93h-1.1Zm3.74,0v-6.93h1.1v6.93h-1.1Z"/>
        <path class="cls-4" d="M225.37,263.92v-1.02h13.82v1.02h-13.82Zm1.79-2.88v-4.02h9.1v-2.02h-9.18v-1.01h10.34v4h-9.12v2.06h9.44v.98h-10.58Zm1.92,7.12v-4.99h1.15v4.99h-1.15Zm5.26,0v-4.99h1.15v4.99h-1.15Z"/>
        <path class="cls-4" d="M240.94,255.67v-.98h8.22v.98h-8.22Zm4.13,5.78c-1.01,0-1.84-.21-2.47-.62-.63-.42-.95-1-.95-1.74v-.21c0-.74,.32-1.31,.95-1.73,.63-.42,1.46-.62,2.47-.62s1.82,.21,2.46,.62,.96,.99,.96,1.73v.21c0,.75-.32,1.33-.96,1.74s-1.46,.62-2.46,.62Zm0-.98c.66,0,1.21-.13,1.66-.39,.44-.26,.66-.6,.66-1.02v-.16c0-.42-.22-.75-.66-1.02-.44-.26-.99-.39-1.66-.39s-1.23,.13-1.67,.39c-.44,.26-.66,.6-.66,1.02v.16c0,.42,.22,.75,.66,1.02,.44,.26,1,.39,1.67,.39Zm-1.55,7.5v-5.7h1.14v4.69h7.22v-4.69h1.14v5.7h-9.49Zm.64-2.91v-1.02h8.24v1.02h-8.24Zm.3-9.84v-2.19h1.17v2.19h-1.17Zm4.69,2.3v-.94h3.28v.94h-3.28Zm0,2.7v-.96h3.28v.96h-3.28Zm2.72,1.17v-8.18h1.14v8.18h-1.14Z"/>
        <path class="cls-4" d="M256.59,261.31v-4.22h5.36v-2.06h-5.36v-1.01h6.48v4.08h-5.36v2.19h1.41c.84,0,1.74-.04,2.69-.12,.95-.08,1.87-.19,2.75-.33l.13,.99c-1.9,.32-3.82,.48-5.78,.48h-2.32Zm10.46,6.82v-4.19h-8.51v-1.06h9.65v5.25h-1.14Zm-2.72-11.92v-.94h3.31v.94h-3.31Zm0,2.78v-.96h3.31v.96h-3.31Zm2.72,2.85v-8.61h1.14v8.61h-1.14Z"/>
        <path class="cls-4" d="M270.53,265.17c1.33-1.37,2.32-2.78,2.97-4.26,.65-1.47,.97-3.11,.97-4.93v-1.86h1.12v1.86c0,1.91-.35,3.67-1.04,5.29-.69,1.62-1.77,3.17-3.22,4.66l-.8-.77Zm8.16,.61l-4.59-5.65,.85-.72,4.59,5.63-.85,.74Zm2.69,2.21v-14.77h1.15v14.77h-1.15Zm.67-7.94v-1.06h2.93v1.06h-2.93Z"/>
        <path class="cls-4" d="M290.53,260.48c-.73,0-1.38-.13-1.96-.38-.58-.25-1.04-.62-1.38-1.12s-.5-1.1-.5-1.8v-.27c0-1.06,.36-1.87,1.08-2.44,.72-.57,1.64-.86,2.76-.86,.73,0,1.38,.12,1.95,.37,.58,.25,1.03,.62,1.37,1.11s.5,1.1,.5,1.82v.27c0,.7-.17,1.3-.5,1.8s-.79,.87-1.38,1.12c-.58,.25-1.23,.38-1.94,.38Zm0-1.04c.8,0,1.45-.2,1.94-.6,.5-.4,.74-.96,.74-1.67v-.24c0-.72-.25-1.29-.74-1.68-.5-.39-1.14-.59-1.94-.59s-1.46,.2-1.95,.59c-.49,.39-.74,.96-.74,1.68v.24c0,.71,.25,1.27,.74,1.67,.49,.4,1.14,.6,1.95,.6Zm-1.49,8.54v-6.18h1.14v5.14h7.2v-5.14h1.15v6.18h-9.49Zm.62-3.18v-1.02h8.24v1.02h-8.24Zm4-7.23v-1.04h4.32v1.04h-4.32Zm3.71,3.36v-7.71h1.15v7.71h-1.15Z"/>
        <path class="cls-4" d="M302.05,260.71c0-1.63,.29-3.15,.87-4.57,.58-1.41,1.44-2.73,2.57-3.94l.78,.7c-2.07,2.32-3.1,4.92-3.1,7.81s1.03,5.49,3.1,7.81l-.78,.7c-1.13-1.22-1.99-2.53-2.57-3.94-.58-1.41-.87-2.94-.87-4.57Z"/>
        <path class="cls-4" d="M307.36,260.85v-1.02h13.82v1.02h-13.82Zm5.33,7.3c-.78,0-1.45-.12-2.01-.36-.56-.24-.98-.57-1.26-.99-.28-.42-.42-.9-.42-1.43s.14-1.01,.42-1.43c.28-.42,.7-.75,1.26-.99,.56-.24,1.23-.36,2.01-.36h3.17c.79,0,1.46,.12,2.02,.36,.56,.24,.98,.57,1.26,.99,.28,.42,.42,.9,.42,1.43s-.14,1.01-.42,1.43c-.28,.42-.7,.75-1.26,.99s-1.23,.36-2.02,.36h-3.17Zm4.88-9.44c.15-.73,.27-1.46,.35-2.2s.13-1.32,.13-1.74v-.51l.43,.53h-9.26v-1.04h9.97v.77c0,.6-.05,1.28-.14,2.05-.09,.77-.22,1.54-.38,2.3l-1.1-.16Zm-1.98,8.43c.93,0,1.63-.16,2.11-.48,.48-.32,.72-.76,.72-1.31s-.24-.96-.73-1.28c-.49-.32-1.19-.48-2.1-.48h-2.62c-.92,0-1.62,.16-2.1,.48-.49,.32-.73,.75-.73,1.28s.24,.99,.72,1.31c.48,.32,1.18,.48,2.11,.48h2.62Zm-2.42-6.83v-3.54h1.14v3.54h-1.14Z"/>
        <path class="cls-4" d="M322.53,261.3v-1.01h13.82v1.01h-13.82Zm5.3,6.85c-.78,0-1.44-.11-1.99-.34-.55-.22-.97-.53-1.25-.93s-.42-.85-.42-1.38,.14-.96,.42-1.36c.28-.39,.7-.7,1.25-.93,.55-.22,1.21-.34,1.99-.34h3.23c.79,0,1.46,.11,2.01,.34,.55,.22,.97,.53,1.25,.93,.28,.4,.42,.85,.42,1.36s-.14,.98-.42,1.38c-.28,.39-.7,.7-1.25,.93-.55,.22-1.22,.34-2.01,.34h-3.23Zm6.45-14.56v.99h-8.67v3.09h8.83v1.01h-9.97v-5.09h9.81Zm-3.47,13.55c.92,0,1.61-.15,2.08-.44,.47-.29,.7-.69,.7-1.19s-.23-.89-.7-1.18-1.16-.42-2.08-.42h-2.72c-.92,0-1.61,.14-2.08,.42-.47,.28-.7,.67-.7,1.18s.23,.9,.7,1.19c.47,.29,1.16,.44,2.08,.44h2.72Zm-1.92-6.22v-2.86h1.14v2.86h-1.14Z"/>
        <path class="cls-4" d="M337.76,255.68v-.96h6.99v.96h-6.99Zm3.52,5.94c-.89,0-1.59-.21-2.13-.63-.53-.42-.8-1.02-.8-1.78v-.22c0-.76,.27-1.35,.8-1.77,.53-.42,1.24-.63,2.13-.63s1.58,.21,2.1,.63c.53,.42,.79,1.01,.79,1.77v.22c0,.77-.26,1.36-.79,1.78-.53,.42-1.23,.63-2.1,.63Zm0-.98c.54,0,.98-.13,1.32-.4s.5-.62,.5-1.07v-.14c0-.44-.17-.79-.5-1.06s-.78-.41-1.32-.41-1,.14-1.34,.41c-.34,.27-.51,.63-.51,1.06v.14c0,.45,.17,.81,.5,1.07,.34,.27,.79,.4,1.35,.4Zm2.61,7.49c-.73,0-1.35-.11-1.87-.34-.52-.23-.92-.55-1.2-.97s-.42-.89-.42-1.42,.14-.99,.42-1.41,.68-.74,1.21-.98c.53-.23,1.15-.35,1.86-.35h3.22c.71,0,1.33,.12,1.86,.35,.52,.24,.92,.56,1.2,.98,.28,.42,.42,.88,.42,1.41s-.14,1.01-.42,1.42c-.28,.42-.68,.74-1.2,.97-.52,.23-1.14,.34-1.86,.34h-3.22Zm-3.22-12.9v-2.21h1.15v2.21h-1.15Zm6.19,11.87c.84,0,1.48-.15,1.91-.46s.65-.73,.65-1.25-.22-.92-.65-1.23-1.07-.46-1.91-.46h-2.75c-.83,0-1.47,.15-1.9,.46-.44,.31-.66,.72-.66,1.23s.22,.94,.65,1.25c.43,.31,1.07,.46,1.91,.46h2.75Zm-.93-5.49v-8.24h1.09v8.24h-1.09Zm.51-3.58v-1.04h3.28v1.04h-3.28Zm2.82,3.74v-8.56h1.1v8.56h-1.1Z"/>
        <path class="cls-4" d="M352.51,265.17c1.33-1.37,2.32-2.78,2.97-4.26,.65-1.47,.97-3.11,.97-4.93v-1.86h1.12v1.86c0,1.91-.35,3.67-1.04,5.29-.69,1.62-1.77,3.17-3.22,4.66l-.8-.77Zm8.16,.61l-4.59-5.65,.85-.72,4.59,5.63-.85,.74Zm2.69,2.21v-14.77h1.15v14.77h-1.15Zm.67-7.94v-1.06h2.93v1.06h-2.93Z"/>
        <path class="cls-4" d="M372,260.71c0,1.63-.29,3.15-.87,4.57-.58,1.41-1.44,2.73-2.57,3.94l-.78-.7c2.07-2.31,3.1-4.92,3.1-7.81s-1.03-5.49-3.1-7.81l.78-.7c1.13,1.22,1.99,2.53,2.57,3.94,.58,1.41,.87,2.94,.87,4.57Z"/>
        <path class="cls-4" d="M130.97,303.15c-.45,0-.86-.11-1.24-.33-.38-.22-.68-.52-.9-.9-.22-.38-.33-.79-.33-1.22s.11-.86,.33-1.24c.22-.38,.52-.68,.9-.9,.38-.22,.79-.33,1.24-.33s.86,.11,1.24,.33c.38,.22,.68,.52,.9,.9,.22,.38,.33,.79,.33,1.24s-.11,.85-.33,1.22c-.22,.38-.52,.68-.9,.9-.38,.22-.79,.33-1.24,.33Z"/>
        <path class="cls-4" d="M145.29,305.17c1.33-1.37,2.32-2.78,2.97-4.26,.65-1.47,.97-3.11,.97-4.93v-1.86h1.12v1.86c0,1.91-.35,3.67-1.04,5.29-.69,1.62-1.77,3.17-3.22,4.66l-.8-.77Zm8.16,.61l-4.59-5.65,.85-.72,4.59,5.63-.85,.74Zm2.69,2.21v-14.77h1.15v14.77h-1.15Zm.67-7.94v-1.06h2.93v1.06h-2.93Z"/>
        <path class="cls-4" d="M161.01,306.02l-.06-1.06h2.69c.95,0,2.09-.04,3.42-.13,1.33-.08,2.56-.2,3.69-.34l.13,1.01c-1.1,.16-2.31,.29-3.64,.38s-2.55,.14-3.66,.14h-2.56Zm.4-9.94v-.98h8.66v.98h-8.66Zm4.35,6.83c-1.06,0-1.93-.25-2.61-.74-.68-.49-1.02-1.16-1.02-2.02v-.27c0-.86,.34-1.54,1.02-2.02s1.55-.73,2.61-.73,1.89,.24,2.57,.73c.68,.49,1.02,1.16,1.02,2.02v.27c0,.85-.34,1.53-1.02,2.02-.68,.49-1.53,.74-2.57,.74Zm0-.96c.7,0,1.29-.17,1.76-.5s.7-.77,.7-1.31v-.22c0-.54-.23-.98-.7-1.32s-1.06-.5-1.76-.5-1.33,.17-1.8,.5c-.47,.33-.71,.77-.71,1.33v.22c0,.54,.24,.98,.71,1.31s1.07,.5,1.8,.5Zm-.61-6.34v-2.38h1.15v2.38h-1.15Zm.02,9.82v-3.22h1.15v3.22h-1.15Zm6.98,2.54v-14.77h1.14v14.77h-1.14Z"/>
        <path class="cls-4" d="M175.98,302.21v-1.06h13.82v1.06h-13.82Zm1.86,5.78v-4.29h1.15v3.23h9.28v1.06h-10.43Zm.08-8.64v-5.76h9.97v5.76h-9.97Zm1.14-1.04h7.68v-3.7h-7.68v3.7Zm3.28,6.83v-3.54h1.14v3.54h-1.14Z"/>
        <path class="cls-4" d="M190.97,306.02l-.05-1.04h2.54c.92,0,2.03-.04,3.33-.13,1.3-.08,2.5-.2,3.6-.34l.13,1.01c-1.1,.15-2.3,.27-3.61,.36s-2.48,.14-3.51,.14h-2.43Zm.21-9.94v-.98h8.5v.98h-8.5Zm4.27,6.83c-1.03,0-1.89-.25-2.55-.74-.67-.49-1-1.16-1-2.02v-.27c0-.86,.33-1.54,.99-2.02,.66-.49,1.51-.73,2.56-.73s1.87,.24,2.53,.73c.66,.49,.99,1.16,.99,2.02v.27c0,.85-.33,1.53-.99,2.02-.66,.49-1.5,.74-2.53,.74Zm0-.96c.69,0,1.27-.17,1.72-.5,.45-.33,.68-.77,.68-1.31v-.22c0-.55-.23-1-.68-1.33-.45-.33-1.03-.5-1.72-.5s-1.29,.17-1.74,.5c-.46,.33-.69,.77-.69,1.33v.22c0,.54,.23,.98,.69,1.31s1.04,.5,1.74,.5Zm-.59-6.34v-2.38h1.15v2.38h-1.15Zm.08,9.82v-3.38h1.15v3.38h-1.15Zm6.86,2.54v-14.77h1.14v14.77h-1.14Zm.62-7.79v-1.04h2.82v1.04h-2.82Z"/>
        <path class="cls-4" d="M210.21,306.8v-1.06h13.82v1.06h-13.82Zm10.19-3.87c.23-1.25,.43-2.52,.58-3.82s.22-2.34,.22-3.14v-.99l.45,.53h-9.89v-1.04h10.58v1.25c0,.99-.07,2.14-.22,3.46-.15,1.31-.35,2.63-.59,3.97l-1.12-.21Zm-6.8,3.63v-6.93h1.1v6.93h-1.1Zm3.74,0v-6.93h1.1v6.93h-1.1Z"/>
        <path class="cls-4" d="M225.37,303.92v-1.02h13.82v1.02h-13.82Zm1.79-2.88v-4.02h9.1v-2.02h-9.18v-1.01h10.34v4h-9.12v2.06h9.44v.98h-10.58Zm1.92,7.12v-4.99h1.15v4.99h-1.15Zm5.26,0v-4.99h1.15v4.99h-1.15Z"/>
        <path class="cls-4" d="M240.94,295.67v-.98h8.22v.98h-8.22Zm4.13,5.78c-1.01,0-1.84-.21-2.47-.62-.63-.42-.95-1-.95-1.74v-.21c0-.74,.32-1.31,.95-1.73,.63-.42,1.46-.62,2.47-.62s1.82,.21,2.46,.62,.96,.99,.96,1.73v.21c0,.75-.32,1.33-.96,1.74s-1.46,.62-2.46,.62Zm0-.98c.66,0,1.21-.13,1.66-.39,.44-.26,.66-.6,.66-1.02v-.16c0-.42-.22-.75-.66-1.02-.44-.26-.99-.39-1.66-.39s-1.23,.13-1.67,.39c-.44,.26-.66,.6-.66,1.02v.16c0,.42,.22,.75,.66,1.02,.44,.26,1,.39,1.67,.39Zm-1.55,7.5v-5.7h1.14v4.69h7.22v-4.69h1.14v5.7h-9.49Zm.64-2.91v-1.02h8.24v1.02h-8.24Zm.3-9.84v-2.19h1.17v2.19h-1.17Zm4.69,2.3v-.94h3.28v.94h-3.28Zm0,2.7v-.96h3.28v.96h-3.28Zm2.72,1.17v-8.18h1.14v8.18h-1.14Z"/>
        <path class="cls-4" d="M256.59,301.31v-4.22h5.36v-2.06h-5.36v-1.01h6.48v4.08h-5.36v2.19h1.41c.84,0,1.74-.04,2.69-.12,.95-.08,1.87-.19,2.75-.33l.13,.99c-1.9,.32-3.82,.48-5.78,.48h-2.32Zm10.46,6.82v-4.19h-8.51v-1.06h9.65v5.25h-1.14Zm-2.72-11.92v-.94h3.31v.94h-3.31Zm0,2.78v-.96h3.31v.96h-3.31Zm2.72,2.85v-8.61h1.14v8.61h-1.14Z"/>
        <path class="cls-4" d="M271.66,305.22c1.25-.81,2.33-1.72,3.23-2.74,.91-1.02,1.6-2.09,2.09-3.22s.73-2.27,.73-3.41v-.77l.42,.45h-6.24v-1.04h6.98v1.14c0,2.05-.57,3.97-1.71,5.76-1.14,1.79-2.75,3.37-4.82,4.74l-.67-.9Zm10.56,2.77v-14.77h1.14v14.77h-1.14Z"/>
        <path class="cls-4" d="M286.05,300.31v-1.04h13.82v1.04h-13.82Zm10.02-.75c.17-.84,.3-1.7,.4-2.58,.1-.88,.14-1.58,.14-2.1v-.61l.45,.53h-9.26v-1.04h9.95v.88c0,.7-.05,1.51-.15,2.41s-.24,1.8-.42,2.7l-1.1-.18Zm-8.22,8.43v-5.65h10.26v5.65h-10.26Zm1.14-1.02h7.97v-3.6h-7.97v3.6Z"/>
        <path class="cls-4" d="M305.1,306.8v-1.06h13.82v1.06h-13.82Zm.98-5.33c1.83-.85,3.2-1.75,4.1-2.68s1.34-1.94,1.34-3.02v-1.1h1.15v1.1c0,1.3-.49,2.5-1.48,3.61-.99,1.1-2.52,2.13-4.6,3.06l-.51-.98Zm.82-6.13v-1.04h10.26v1.04h-10.26Zm10.43,7.1l-6.06-4.05,.51-.98,6.16,4.1-.61,.93Zm-5.87,4.11v-4.45h1.14v4.45h-1.14Z"/>
        <path class="cls-4" d="M320.43,300.24c1.32-.78,2.31-1.61,2.97-2.5,.66-.89,.98-1.9,.98-3.03v-.96h1.14v.96c0,1.33-.37,2.53-1.1,3.58s-1.87,2.01-3.39,2.89l-.59-.93Zm5.97,7.89c-.7,0-1.32-.13-1.84-.38-.52-.26-.92-.61-1.2-1.06-.28-.45-.42-.95-.42-1.52s.14-1.06,.42-1.51,.68-.81,1.2-1.07c.52-.26,1.14-.39,1.84-.39h3.1c.7,0,1.32,.13,1.84,.39,.52,.26,.92,.62,1.2,1.07s.42,.96,.42,1.51-.14,1.07-.42,1.52c-.28,.45-.68,.8-1.2,1.06-.52,.26-1.14,.38-1.84,.38h-3.1Zm2.88-1.02c.82,0,1.45-.18,1.88-.54,.43-.36,.65-.83,.65-1.42s-.22-1.03-.65-1.39c-.43-.36-1.06-.54-1.88-.54h-2.66c-.82,0-1.45,.18-1.89,.54-.44,.36-.66,.83-.66,1.39s.22,1.06,.66,1.42c.44,.36,1.07,.54,1.89,.54h2.66Zm-.45-6.16l-4.66-3.31,.67-.85,4.59,3.25-.61,.91Zm-.72-3.73v-1.02h4.1v1.02h-4.1Zm3.49,4.08v-8.06h1.14v8.06h-1.14Z"/>
        <path class="cls-4" d="M340.14,299.94v-6h7.06v6h-7.06Zm1.12-1.01h4.82v-3.98h-4.82v3.98Zm.08,8.21c1.65-.41,2.94-.88,3.85-1.42s1.37-1.15,1.37-1.81v-.5h1.17v.5c0,.93-.51,1.75-1.54,2.46-1.03,.71-2.53,1.3-4.5,1.77l-.34-.99Zm.75-3.25v-1.01h9.95v1.01h-9.95Zm10.24,4.24l-5.81-2.4,.35-.96,5.89,2.38-.43,.98Zm-5.78-5.04v-2.02h1.17v2.02h-1.17Zm4.13-1.79v-8.06h1.14v8.06h-1.14Z"/>
        <path class="cls-4" d="M358.59,300.21c1.35-.76,2.37-1.53,3.04-2.32,.67-.79,1.01-1.68,1.01-2.69v-.7h1.12v.7c0,1.22-.38,2.3-1.14,3.26-.76,.96-1.93,1.85-3.5,2.7l-.53-.94Zm.59-5.17v-1.02h8.05v1.02h-8.05Zm2.18,12.94v-6.18h1.14v5.14h7.22v-5.14h1.14v6.18h-9.49Zm.62-3.18v-1.02h8.26v1.02h-8.26Zm5.28-3.97l-4.9-3.18,.61-.86,4.85,3.09-.56,.96Zm2.45,.08v-7.7h1.14v7.7h-1.14Z"/>
        <path class="cls-4" d="M373.61,295.68v-.96h6.99v.96h-6.99Zm3.52,5.94c-.89,0-1.59-.21-2.13-.63-.53-.42-.8-1.02-.8-1.78v-.22c0-.76,.27-1.35,.8-1.77,.53-.42,1.24-.63,2.13-.63s1.58,.21,2.1,.63c.53,.42,.79,1.01,.79,1.77v.22c0,.77-.26,1.36-.79,1.78-.53,.42-1.23,.63-2.1,.63Zm0-.98c.54,0,.98-.13,1.32-.4s.5-.62,.5-1.07v-.14c0-.44-.17-.79-.5-1.06s-.78-.41-1.32-.41-1,.14-1.34,.41c-.34,.27-.51,.63-.51,1.06v.14c0,.45,.17,.81,.5,1.07,.34,.27,.79,.4,1.35,.4Zm2.61,7.49c-.73,0-1.35-.11-1.87-.34-.52-.23-.92-.55-1.2-.97s-.42-.89-.42-1.42,.14-.99,.42-1.41,.68-.74,1.21-.98c.53-.23,1.15-.35,1.86-.35h3.22c.71,0,1.33,.12,1.86,.35,.52,.24,.92,.56,1.2,.98,.28,.42,.42,.88,.42,1.41s-.14,1.01-.42,1.42c-.28,.42-.68,.74-1.2,.97-.52,.23-1.14,.34-1.86,.34h-3.22Zm-3.22-12.9v-2.21h1.15v2.21h-1.15Zm6.19,11.87c.84,0,1.48-.15,1.91-.46s.65-.73,.65-1.25-.22-.92-.65-1.23-1.07-.46-1.91-.46h-2.75c-.83,0-1.47,.15-1.9,.46-.44,.31-.66,.72-.66,1.23s.22,.94,.65,1.25c.43,.31,1.07,.46,1.91,.46h2.75Zm-.93-5.49v-8.24h1.09v8.24h-1.09Zm.51-3.58v-1.04h3.28v1.04h-3.28Zm2.82,3.74v-8.56h1.1v8.56h-1.1Z"/>
        <path class="cls-4" d="M130.97,343.15c-.45,0-.86-.11-1.24-.33-.38-.22-.68-.52-.9-.9-.22-.38-.33-.79-.33-1.22s.11-.86,.33-1.24c.22-.38,.52-.68,.9-.9,.38-.22,.79-.33,1.24-.33s.86,.11,1.24,.33c.38,.22,.68,.52,.9,.9,.22,.38,.33,.79,.33,1.24s-.11,.85-.33,1.22c-.22,.38-.52,.68-.9,.9-.38,.22-.79,.33-1.24,.33Z"/>
        <path class="cls-4" d="M150.08,346.02c-1.12,0-2.03-.4-2.74-1.21-.7-.8-1.06-2.03-1.06-3.69v-2.21c0-1.65,.35-2.88,1.06-3.69,.7-.8,1.62-1.21,2.74-1.21s2.03,.4,2.74,1.21c.7,.81,1.06,2.04,1.06,3.69v2.21c0,1.65-.35,2.88-1.06,3.69-.7,.81-1.62,1.21-2.74,1.21Zm0-1.06c.81,0,1.46-.31,1.94-.94,.48-.63,.72-1.6,.72-2.91v-2.19c0-1.31-.24-2.28-.72-2.9s-1.13-.94-1.94-.94-1.45,.31-1.93,.94-.71,1.59-.71,2.9v2.19c0,1.31,.24,2.28,.71,2.91,.47,.63,1.12,.94,1.93,.94Zm6.9,3.02v-14.77h1.15v14.77h-1.15Z"/>
        <path class="cls-4" d="M160.54,341.19c1.32-.9,2.31-1.84,2.97-2.85,.66-1,.98-2.12,.98-3.36v-1.15h1.12v1.15c0,1.44-.37,2.73-1.1,3.88-.73,1.15-1.85,2.22-3.35,3.21l-.62-.88Zm2.74,6.8v-4.5h1.14v3.44h8.88v1.06h-10.02Zm5.62-6.22l-4.66-3.65,.72-.82,4.59,3.6-.66,.86Zm2.42,2.67v-11.22h1.15v11.22h-1.15Zm.67-6.24v-1.06h2.93v1.06h-2.93Z"/>
        <path class="cls-4" d="M176.32,345.22c1.22-.81,2.27-1.72,3.15-2.74,.89-1.02,1.56-2.09,2.04-3.22,.47-1.13,.71-2.27,.71-3.41v-.77l.42,.45h-6.08v-1.04h6.8v1.14c0,2.04-.56,3.95-1.67,5.74s-2.67,3.38-4.68,4.75l-.69-.9Zm10.18,2.77v-14.77h1.15v14.77h-1.15Zm.67-7.94v-1.06h2.93v1.06h-2.93Z"/>
        <path class="cls-4" d="M191.15,341.57v-1.02h13.82v1.02h-13.82Zm1.25-3.34c1.71-.45,3-.98,3.88-1.6,.88-.62,1.32-1.29,1.32-2.02v-.69h1.12v.67c0,1.02-.49,1.91-1.46,2.66-.97,.75-2.49,1.39-4.54,1.93l-.32-.96Zm9.65,9.92v-3.76h-9.1v-1.04h10.26v4.8h-1.15Zm-8.88-13.55v-1.01h9.81v1.01h-9.81Zm10.13,4.59l-6.1-2.51,.5-.91,6.02,2.48-.42,.94Zm-5.79,1.92v-2.4h1.14v2.4h-1.14Z"/>
        <path class="cls-4" d="M209.93,340.24c1.32-.78,2.31-1.61,2.97-2.5,.66-.89,.98-1.89,.98-3v-.99h1.12v.99c0,1.32-.37,2.51-1.1,3.55-.74,1.04-1.87,2.01-3.39,2.88l-.58-.93Zm5.86,7.89c-.69,0-1.3-.13-1.82-.38-.52-.26-.92-.61-1.2-1.06-.28-.45-.42-.95-.42-1.52s.14-1.06,.42-1.51,.68-.81,1.2-1.07c.52-.26,1.13-.39,1.82-.39h2.99c.7,0,1.31,.13,1.83,.39,.52,.26,.91,.62,1.19,1.07s.42,.96,.42,1.51-.14,1.07-.42,1.52c-.28,.45-.67,.8-1.19,1.06-.52,.26-1.13,.38-1.83,.38h-2.99Zm2.77-1.02c.82,0,1.45-.18,1.87-.54,.43-.36,.64-.83,.64-1.42s-.22-1.03-.65-1.39c-.43-.36-1.05-.54-1.86-.54h-2.54c-.81,0-1.43,.18-1.86,.54-.43,.36-.65,.83-.65,1.39s.21,1.06,.64,1.42c.43,.36,1.05,.54,1.87,.54h2.54Zm-.24-6.24l-4.66-3.23,.67-.85,4.61,3.17-.62,.91Zm2.38,.43v-8.06h1.15v8.06h-1.15Zm.67-3.73v-1.04h2.93v1.04h-2.93Z"/>
        <path class="cls-4" d="M225.37,341.68v-1.01h13.82v1.01h-13.82Zm5.26,6.46c-.78,0-1.44-.1-1.98-.31s-.96-.5-1.23-.87c-.28-.37-.42-.81-.42-1.3s.14-.92,.42-1.29c.28-.37,.69-.66,1.23-.86s1.21-.31,1.98-.31h3.3c.78,0,1.44,.1,1.99,.31,.55,.21,.96,.5,1.24,.86s.42,.8,.42,1.29-.14,.92-.42,1.3-.69,.66-1.24,.87c-.55,.21-1.21,.31-1.99,.31h-3.3Zm-3.33-9.02v-5.62h1.14v4.64h7.68v-4.64h1.15v5.62h-9.97Zm.64-2.78v-.98h8.69v.98h-8.69Zm5.73,10.8c.92,0,1.6-.13,2.06-.38,.46-.26,.69-.62,.69-1.09s-.23-.83-.69-1.09c-.46-.26-1.15-.38-2.06-.38h-2.78c-.92,0-1.61,.13-2.06,.38s-.69,.62-.69,1.09,.23,.83,.69,1.09,1.15,.38,2.06,.38h2.78Zm-1.95-5.84v-2.86h1.14v2.86h-1.14Z"/>
        <path class="cls-4" d="M240.73,345.55l-.06-1.06h2.69c.95,0,2.09-.04,3.42-.13,1.33-.08,2.56-.2,3.69-.34l.13,1.01c-1.1,.16-2.31,.29-3.64,.38s-2.55,.14-3.66,.14h-2.56Zm4.66-3.55c-.74,0-1.39-.14-1.98-.42s-1.04-.71-1.38-1.29c-.34-.58-.51-1.28-.51-2.11v-.34c0-.83,.17-1.54,.51-2.11,.34-.58,.8-1,1.38-1.29,.58-.28,1.24-.42,1.98-.42s1.38,.14,1.96,.42c.58,.28,1.04,.71,1.38,1.29,.34,.58,.51,1.28,.51,2.11v.34c0,.83-.17,1.54-.51,2.11s-.8,1.01-1.38,1.29c-.58,.28-1.23,.42-1.96,.42Zm0-1.06c.8,0,1.45-.24,1.95-.72,.5-.48,.75-1.17,.75-2.06v-.3c0-.9-.25-1.59-.74-2.07s-1.15-.73-1.96-.73-1.47,.24-1.97,.73-.75,1.18-.75,2.07v.3c0,.9,.25,1.58,.75,2.06,.5,.48,1.16,.72,1.97,.72Zm6.48,7.04v-14.77h1.14v14.77h-1.14Z"/>
        <path class="cls-4" d="M259.33,340.24c1.32-.78,2.31-1.61,2.97-2.5,.66-.89,.98-1.89,.98-3v-.99h1.12v.99c0,1.32-.37,2.51-1.1,3.55-.74,1.04-1.87,2.01-3.39,2.88l-.58-.93Zm5.86,7.89c-.69,0-1.3-.13-1.82-.38-.52-.26-.92-.61-1.2-1.06-.28-.45-.42-.95-.42-1.52s.14-1.06,.42-1.51,.68-.81,1.2-1.07c.52-.26,1.13-.39,1.82-.39h2.99c.7,0,1.31,.13,1.83,.39,.52,.26,.91,.62,1.19,1.07s.42,.96,.42,1.51-.14,1.07-.42,1.52c-.28,.45-.67,.8-1.19,1.06-.52,.26-1.13,.38-1.83,.38h-2.99Zm2.77-1.02c.82,0,1.45-.18,1.87-.54,.43-.36,.64-.83,.64-1.42s-.22-1.03-.65-1.39c-.43-.36-1.05-.54-1.86-.54h-2.54c-.81,0-1.43,.18-1.86,.54-.43,.36-.65,.83-.65,1.39s.21,1.06,.64,1.42c.43,.36,1.05,.54,1.87,.54h2.54Zm-.24-6.24l-4.66-3.23,.67-.85,4.61,3.17-.62,.91Zm2.38,.43v-8.06h1.15v8.06h-1.15Zm.67-3.73v-1.04h2.93v1.04h-2.93Z"/>
        <path class="cls-4" d="M274.77,345.15c1.39-1.37,2.42-2.78,3.09-4.25,.67-1.47,1.01-3.11,1.01-4.94v-1.84h1.12v1.84c0,1.91-.36,3.67-1.07,5.3-.71,1.62-1.83,3.18-3.34,4.67l-.8-.78Zm8.48,.62l-4.78-5.65,.85-.74,4.78,5.63-.85,.75Zm2.83,2.21v-14.77h1.15v14.77h-1.15Z"/>
        <path class="cls-4" d="M289.76,346.02l-.05-1.04h2.54c.92,0,2.03-.04,3.33-.13,1.3-.08,2.5-.2,3.6-.34l.13,1.01c-1.1,.15-2.3,.27-3.61,.36s-2.48,.14-3.51,.14h-2.43Zm.21-9.94v-.98h8.5v.98h-8.5Zm4.27,6.83c-1.03,0-1.89-.25-2.55-.74-.67-.49-1-1.16-1-2.02v-.27c0-.86,.33-1.54,.99-2.02,.66-.49,1.51-.73,2.56-.73s1.87,.24,2.53,.73c.66,.49,.99,1.16,.99,2.02v.27c0,.85-.33,1.53-.99,2.02-.66,.49-1.5,.74-2.53,.74Zm0-.96c.69,0,1.27-.17,1.72-.5,.45-.33,.68-.77,.68-1.31v-.22c0-.55-.23-1-.68-1.33-.45-.33-1.03-.5-1.72-.5s-1.29,.17-1.74,.5c-.46,.33-.69,.77-.69,1.33v.22c0,.54,.23,.98,.69,1.31s1.04,.5,1.74,.5Zm-.59-6.34v-2.38h1.15v2.38h-1.15Zm.08,9.82v-3.38h1.15v3.38h-1.15Zm6.86,2.54v-14.77h1.14v14.77h-1.14Zm.62-7.79v-1.04h2.82v1.04h-2.82Z"/>
        <path class="cls-4" d="M130.97,383.15c-.45,0-.86-.11-1.24-.33-.38-.22-.68-.52-.9-.9-.22-.38-.33-.79-.33-1.22s.11-.86,.33-1.24c.22-.38,.52-.68,.9-.9,.38-.22,.79-.33,1.24-.33s.86,.11,1.24,.33c.38,.22,.68,.52,.9,.9,.22,.38,.33,.79,.33,1.24s-.11,.85-.33,1.22c-.22,.38-.52,.68-.9,.9-.38,.22-.79,.33-1.24,.33Z"/>
        <path class="cls-4" d="M150.14,381.78c-.73,0-1.38-.14-1.96-.43-.58-.29-1.04-.72-1.38-1.3-.34-.58-.51-1.29-.51-2.13v-.34c0-.84,.17-1.56,.51-2.14,.34-.59,.8-1.02,1.38-1.31,.58-.29,1.23-.43,1.96-.43s1.36,.14,1.94,.43,1.04,.73,1.38,1.31c.34,.59,.5,1.3,.5,2.14v.34c0,.84-.17,1.55-.5,2.13-.34,.58-.79,1.01-1.38,1.3s-1.23,.43-1.94,.43Zm0-1.02c.8,0,1.45-.25,1.94-.74,.5-.49,.74-1.19,.74-2.11v-.32c0-.92-.25-1.62-.74-2.12-.5-.5-1.14-.74-1.94-.74s-1.45,.25-1.95,.74-.75,1.2-.75,2.12v.32c0,.92,.25,1.62,.74,2.11,.5,.49,1.15,.74,1.96,.74Zm-1.5,7.23v-4.72h1.15v3.66h9.04v1.06h-10.19Zm8.35-3.55v-11.22h1.15v11.22h-1.15Z"/>
        <path class="cls-4" d="M161.02,380.63c1.33-.82,2.33-1.65,2.98-2.48,.65-.83,.98-1.79,.98-2.86v-.77h1.12v.77c0,1.27-.37,2.41-1.1,3.41-.74,1-1.87,1.95-3.41,2.85l-.56-.91Zm.59-5.57v-1.04h7.86v1.04h-7.86Zm10.53,13.07v-4.51h-8.51v-1.04h9.65v5.55h-1.14Zm-2.67-6.82l-4.75-3.41,.61-.83,4.74,3.31-.59,.93Zm-.51-3.55v-1.02h3.79v1.02h-3.79Zm3.18,3.78v-8.3h1.14v8.3h-1.14Z"/>
        <path class="cls-4" d="M184.3,386.02c-1.12,0-2.03-.4-2.74-1.21-.7-.8-1.06-2.03-1.06-3.69v-2.21c0-1.65,.35-2.88,1.06-3.69,.7-.8,1.62-1.21,2.74-1.21s2.03,.4,2.74,1.21c.7,.81,1.06,2.04,1.06,3.69v2.21c0,1.65-.35,2.88-1.06,3.69-.7,.81-1.62,1.21-2.74,1.21Zm0-1.06c.81,0,1.46-.31,1.94-.94,.48-.63,.72-1.6,.72-2.91v-2.19c0-1.31-.24-2.28-.72-2.9s-1.13-.94-1.94-.94-1.45,.31-1.93,.94-.71,1.59-.71,2.9v2.19c0,1.31,.24,2.28,.71,2.91,.47,.63,1.12,.94,1.93,.94Zm6.9,3.02v-14.77h1.15v14.77h-1.15Z"/>
        <path class="cls-4" d="M195.04,381.3v-1.01h13.82v1.01h-13.82Zm5.3,6.85c-.78,0-1.44-.11-1.99-.34-.55-.22-.97-.53-1.25-.93s-.42-.85-.42-1.38,.14-.96,.42-1.36c.28-.39,.7-.7,1.25-.93,.55-.22,1.21-.34,1.99-.34h3.23c.79,0,1.46,.11,2.01,.34,.55,.22,.97,.53,1.25,.93,.28,.4,.42,.85,.42,1.36s-.14,.98-.42,1.38c-.28,.39-.7,.7-1.25,.93-.55,.22-1.22,.34-2.01,.34h-3.23Zm6.45-14.56v.99h-8.67v3.09h8.83v1.01h-9.97v-5.09h9.81Zm-3.47,13.55c.92,0,1.61-.15,2.08-.44,.47-.29,.7-.69,.7-1.19s-.23-.89-.7-1.18-1.16-.42-2.08-.42h-2.72c-.92,0-1.61,.14-2.08,.42-.47,.28-.7,.67-.7,1.18s.23,.9,.7,1.19c.47,.29,1.16,.44,2.08,.44h2.72Zm-1.92-6.22v-2.86h1.14v2.86h-1.14Z"/>
        <path class="cls-4" d="M210.4,385.55l-.06-1.06h2.69c.95,0,2.09-.04,3.42-.13,1.33-.08,2.56-.2,3.69-.34l.13,1.01c-1.1,.16-2.31,.29-3.64,.38s-2.55,.14-3.66,.14h-2.56Zm4.66-3.55c-.74,0-1.39-.14-1.98-.42s-1.04-.71-1.38-1.29c-.34-.58-.51-1.28-.51-2.11v-.34c0-.83,.17-1.54,.51-2.11,.34-.58,.8-1,1.38-1.29,.58-.28,1.24-.42,1.98-.42s1.38,.14,1.96,.42c.58,.28,1.04,.71,1.38,1.29,.34,.58,.51,1.28,.51,2.11v.34c0,.83-.17,1.54-.51,2.11s-.8,1.01-1.38,1.29c-.58,.28-1.23,.42-1.96,.42Zm0-1.06c.8,0,1.45-.24,1.95-.72,.5-.48,.75-1.17,.75-2.06v-.3c0-.9-.25-1.59-.74-2.07s-1.15-.73-1.96-.73-1.47,.24-1.97,.73-.75,1.18-.75,2.07v.3c0,.9,.25,1.58,.75,2.06,.5,.48,1.16,.72,1.97,.72Zm6.48,7.04v-14.77h1.14v14.77h-1.14Z"/>
        <path class="cls-4" d="M229.02,385.17c.86-.93,1.58-1.83,2.14-2.71s.99-1.82,1.3-2.82c.3-1,.46-2.09,.46-3.27v-1.31h1.12v1.31c0,1.82-.34,3.49-1.02,5.01s-1.73,3.04-3.15,4.56l-.83-.77Zm.58-9.65v-1.04h7.78v1.04h-7.78Zm7.49,10.26l-4.56-5.57,.85-.77,4.59,5.57-.88,.77Zm2.69,2.21v-14.77h1.14v14.77h-1.14Zm.66-7.94v-1.06h2.93v1.06h-2.93Z"/>
        <path class="cls-4" d="M244.43,383.62v-1.04h13.82v1.04h-13.82Zm5.87-3.18c-.87,0-1.63-.14-2.27-.41-.64-.27-1.13-.66-1.48-1.17-.35-.51-.52-1.1-.52-1.77s.17-1.24,.52-1.74c.35-.5,.84-.89,1.48-1.16,.64-.27,1.4-.41,2.27-.41h2.1c.86,0,1.62,.14,2.26,.41,.65,.27,1.14,.66,1.5,1.16,.35,.5,.53,1.08,.53,1.74s-.18,1.26-.53,1.77c-.35,.51-.85,.9-1.5,1.17-.65,.27-1.4,.41-2.26,.41h-2.1Zm1.9-1.02c1.04,0,1.86-.21,2.45-.63,.59-.42,.88-.98,.88-1.69s-.29-1.25-.88-1.66c-.59-.42-1.4-.62-2.45-.62h-1.73c-1.04,0-1.85,.21-2.43,.62-.59,.42-.88,.97-.88,1.66s.29,1.27,.87,1.69c.58,.42,1.39,.63,2.44,.63h1.73Zm-4.06,8.74v-5.38h1.15v5.38h-1.15Zm5.26,0v-5.38h1.15v5.38h-1.15Z"/>
        <path class="cls-4" d="M259.42,386.02l-.05-1.04h2.54c.92,0,2.03-.04,3.33-.13,1.3-.08,2.5-.2,3.6-.34l.13,1.01c-1.1,.15-2.3,.27-3.61,.36s-2.48,.14-3.51,.14h-2.43Zm.21-9.94v-.98h8.5v.98h-8.5Zm4.27,6.83c-1.03,0-1.89-.25-2.55-.74-.67-.49-1-1.16-1-2.02v-.27c0-.86,.33-1.54,.99-2.02,.66-.49,1.51-.73,2.56-.73s1.87,.24,2.53,.73c.66,.49,.99,1.16,.99,2.02v.27c0,.85-.33,1.53-.99,2.02-.66,.49-1.5,.74-2.53,.74Zm0-.96c.69,0,1.27-.17,1.72-.5,.45-.33,.68-.77,.68-1.31v-.22c0-.55-.23-1-.68-1.33-.45-.33-1.03-.5-1.72-.5s-1.29,.17-1.74,.5c-.46,.33-.69,.77-.69,1.33v.22c0,.54,.23,.98,.69,1.31s1.04,.5,1.74,.5Zm-.59-6.34v-2.38h1.15v2.38h-1.15Zm.08,9.82v-3.38h1.15v3.38h-1.15Zm6.86,2.54v-14.77h1.14v14.77h-1.14Zm.62-7.79v-1.04h2.82v1.04h-2.82Z"/>
        <path class="cls-4" d="M130.97,423.15c-.45,0-.86-.11-1.24-.33-.38-.22-.68-.52-.9-.9-.22-.38-.33-.79-.33-1.22s.11-.86,.33-1.24c.22-.38,.52-.68,.9-.9,.38-.22,.79-.33,1.24-.33s.86,.11,1.24,.33c.38,.22,.68,.52,.9,.9,.22,.38,.33,.79,.33,1.24s-.11,.85-.33,1.22c-.22,.38-.52,.68-.9,.9-.38,.22-.79,.33-1.24,.33Z"/>
        <path class="cls-4" d="M150.14,421.78c-.73,0-1.38-.14-1.96-.43-.58-.29-1.04-.72-1.38-1.3-.34-.58-.51-1.29-.51-2.13v-.34c0-.84,.17-1.56,.51-2.14,.34-.59,.8-1.02,1.38-1.31,.58-.29,1.23-.43,1.96-.43s1.36,.14,1.94,.43,1.04,.73,1.38,1.31c.34,.59,.5,1.3,.5,2.14v.34c0,.84-.17,1.55-.5,2.13-.34,.58-.79,1.01-1.38,1.3s-1.23,.43-1.94,.43Zm0-1.02c.8,0,1.45-.25,1.94-.74,.5-.49,.74-1.19,.74-2.11v-.32c0-.92-.25-1.62-.74-2.12-.5-.5-1.14-.74-1.94-.74s-1.45,.25-1.95,.74-.75,1.2-.75,2.12v.32c0,.92,.25,1.62,.74,2.11,.5,.49,1.15,.74,1.96,.74Zm-1.5,7.23v-4.72h1.15v3.66h9.04v1.06h-10.19Zm4.75-9.95v-1.04h4.19v1.04h-4.19Zm3.6,6.4v-11.22h1.15v11.22h-1.15Z"/>
        <path class="cls-4" d="M160.81,423.12v-1.02h13.82v1.02h-13.82Zm1.94-2.88v-3.82h8.82v-1.84h-8.9v-.99h10.05v3.79h-8.83v1.86h9.14v1.01h-10.27Zm0,7.74v-3.7h1.14v2.66h9.22v1.04h-10.35Zm4.42-5.23v-2.85h1.14v2.85h-1.14Z"/>
        <path class="cls-4" d="M180.22,420.63v-6.69h1.12v5.66h4.67v-5.66h1.12v6.69h-6.91Zm.54-3.41v-1.02h5.82v1.02h-5.82Zm4.7,10.91c-.7,0-1.32-.13-1.84-.38-.52-.26-.92-.61-1.2-1.05-.28-.44-.42-.94-.42-1.5s.14-1.05,.42-1.5,.68-.79,1.2-1.05c.52-.26,1.14-.38,1.84-.38h2.98c.7,0,1.32,.13,1.84,.38s.92,.61,1.2,1.05,.42,.94,.42,1.5-.14,1.05-.42,1.5c-.28,.44-.68,.79-1.2,1.05s-1.14,.38-1.84,.38h-2.98Zm2.75-1.02c.82,0,1.45-.18,1.87-.53,.43-.35,.64-.81,.64-1.38s-.22-1.02-.65-1.38c-.43-.35-1.05-.53-1.86-.53h-2.53c-.82,0-1.45,.18-1.88,.53-.43,.35-.65,.81-.65,1.38s.22,1.02,.65,1.38c.43,.35,1.06,.53,1.88,.53h2.53Zm2.16-5.73v-8.14h1.15v8.14h-1.15Zm.67-3.81v-1.04h2.93v1.04h-2.93Z"/>
        <path class="cls-4" d="M195.04,421.22v-1.01h13.82v1.01h-13.82Zm1.25-3.28c1.71-.48,3-1.04,3.87-1.69s1.31-1.35,1.31-2.12v-.7h1.12v.7c0,.7-.22,1.35-.65,1.94-.43,.59-1.09,1.12-1.97,1.6-.88,.48-2,.91-3.35,1.28l-.34-1.01Zm4.05,10.21c-.78,0-1.44-.11-1.99-.34-.55-.22-.97-.54-1.25-.94s-.42-.86-.42-1.37,.14-.96,.42-1.36c.28-.39,.7-.7,1.25-.93,.55-.22,1.21-.34,1.99-.34h3.23c.79,0,1.46,.11,2.01,.34,.55,.22,.97,.53,1.25,.93,.28,.4,.42,.85,.42,1.36s-.14,.97-.42,1.37c-.28,.4-.7,.71-1.25,.94-.55,.22-1.22,.34-2.01,.34h-3.23Zm2.98-1.02c.92,0,1.61-.14,2.08-.43,.47-.29,.7-.68,.7-1.18s-.23-.89-.7-1.18-1.16-.42-2.08-.42h-2.72c-.92,0-1.61,.14-2.08,.42-.47,.28-.7,.67-.7,1.18s.23,.9,.7,1.18c.47,.29,1.16,.43,2.08,.43h2.72Zm3.84-8.18l-5.97-2.61,.45-.98,5.98,2.62-.46,.96Zm-5.76,1.97v-2.46h1.14v2.46h-1.14Z"/>
        <path class="cls-4" d="M210.4,425.55l-.06-1.06h2.69c.95,0,2.09-.04,3.42-.13,1.33-.08,2.56-.2,3.69-.34l.13,1.01c-1.1,.16-2.31,.29-3.64,.38s-2.55,.14-3.66,.14h-2.56Zm4.66-3.55c-.74,0-1.39-.14-1.98-.42s-1.04-.71-1.38-1.29c-.34-.58-.51-1.28-.51-2.11v-.34c0-.83,.17-1.54,.51-2.11,.34-.58,.8-1,1.38-1.29,.58-.28,1.24-.42,1.98-.42s1.38,.14,1.96,.42c.58,.28,1.04,.71,1.38,1.29,.34,.58,.51,1.28,.51,2.11v.34c0,.83-.17,1.54-.51,2.11s-.8,1.01-1.38,1.29c-.58,.28-1.23,.42-1.96,.42Zm0-1.06c.8,0,1.45-.24,1.95-.72,.5-.48,.75-1.17,.75-2.06v-.3c0-.9-.25-1.59-.74-2.07s-1.15-.73-1.96-.73-1.47,.24-1.97,.73-.75,1.18-.75,2.07v.3c0,.9,.25,1.58,.75,2.06,.5,.48,1.16,.72,1.97,.72Zm6.48,7.04v-14.77h1.14v14.77h-1.14Z"/>
        <path class="cls-4" d="M229.02,425.17c.86-.93,1.58-1.83,2.14-2.71s.99-1.82,1.3-2.82c.3-1,.46-2.09,.46-3.27v-1.31h1.12v1.31c0,1.82-.34,3.49-1.02,5.01s-1.73,3.04-3.15,4.56l-.83-.77Zm.58-9.65v-1.04h7.78v1.04h-7.78Zm7.49,10.26l-4.56-5.57,.85-.77,4.59,5.57-.88,.77Zm2.69,2.21v-14.77h1.14v14.77h-1.14Zm.66-7.94v-1.06h2.93v1.06h-2.93Z"/>
        <path class="cls-4" d="M244.43,423.62v-1.04h13.82v1.04h-13.82Zm5.87-3.18c-.87,0-1.63-.14-2.27-.41-.64-.27-1.13-.66-1.48-1.17-.35-.51-.52-1.1-.52-1.77s.17-1.24,.52-1.74c.35-.5,.84-.89,1.48-1.16,.64-.27,1.4-.41,2.27-.41h2.1c.86,0,1.62,.14,2.26,.41,.65,.27,1.14,.66,1.5,1.16,.35,.5,.53,1.08,.53,1.74s-.18,1.26-.53,1.77c-.35,.51-.85,.9-1.5,1.17-.65,.27-1.4,.41-2.26,.41h-2.1Zm1.9-1.02c1.04,0,1.86-.21,2.45-.63,.59-.42,.88-.98,.88-1.69s-.29-1.25-.88-1.66c-.59-.42-1.4-.62-2.45-.62h-1.73c-1.04,0-1.85,.21-2.43,.62-.59,.42-.88,.97-.88,1.66s.29,1.27,.87,1.69c.58,.42,1.39,.63,2.44,.63h1.73Zm-4.06,8.74v-5.38h1.15v5.38h-1.15Zm5.26,0v-5.38h1.15v5.38h-1.15Z"/>
        <path class="cls-4" d="M259.42,426.02l-.05-1.04h2.54c.92,0,2.03-.04,3.33-.13,1.3-.08,2.5-.2,3.6-.34l.13,1.01c-1.1,.15-2.3,.27-3.61,.36s-2.48,.14-3.51,.14h-2.43Zm.21-9.94v-.98h8.5v.98h-8.5Zm4.27,6.83c-1.03,0-1.89-.25-2.55-.74-.67-.49-1-1.16-1-2.02v-.27c0-.86,.33-1.54,.99-2.02,.66-.49,1.51-.73,2.56-.73s1.87,.24,2.53,.73c.66,.49,.99,1.16,.99,2.02v.27c0,.85-.33,1.53-.99,2.02-.66,.49-1.5,.74-2.53,.74Zm0-.96c.69,0,1.27-.17,1.72-.5,.45-.33,.68-.77,.68-1.31v-.22c0-.55-.23-1-.68-1.33-.45-.33-1.03-.5-1.72-.5s-1.29,.17-1.74,.5c-.46,.33-.69,.77-.69,1.33v.22c0,.54,.23,.98,.69,1.31s1.04,.5,1.74,.5Zm-.59-6.34v-2.38h1.15v2.38h-1.15Zm.08,9.82v-3.38h1.15v3.38h-1.15Zm6.86,2.54v-14.77h1.14v14.77h-1.14Zm.62-7.79v-1.04h2.82v1.04h-2.82Z"/>
        <path class="cls-4" d="M130.97,463.15c-.45,0-.86-.11-1.24-.33-.38-.22-.68-.52-.9-.9-.22-.38-.33-.79-.33-1.22s.11-.86,.33-1.24c.22-.38,.52-.68,.9-.9,.38-.22,.79-.33,1.24-.33s.86,.11,1.24,.33c.38,.22,.68,.52,.9,.9,.22,.38,.33,.79,.33,1.24s-.11,.85-.33,1.22c-.22,.38-.52,.68-.9,.9-.38,.22-.79,.33-1.24,.33Z"/>
        <path class="cls-4" d="M145.65,460.32v-1.02h13.82v1.02h-13.82Zm10-.51c.17-.9,.31-1.8,.41-2.72,.1-.92,.15-1.64,.15-2.18v-.66l.45,.53h-9.26v-1.04h9.95v.91c0,.73-.05,1.56-.16,2.5-.11,.94-.25,1.88-.43,2.82l-1.1-.16Zm.9,8.34v-4.38h-9.1v-1.02h10.26v5.41h-1.15Zm-4.54-4.93v-3.3h1.14v3.3h-1.14Z"/>
        <path class="cls-4" d="M160.65,465.23c1.06-1.39,1.84-2.76,2.36-4.13,.52-1.37,.78-2.9,.78-4.61v-1.44h1.09v1.44c0,1.77-.27,3.41-.82,4.91-.55,1.5-1.39,3.01-2.52,4.53l-.88-.7Zm.51-9.71v-1.04h6.38v1.04h-6.38Zm5.98,10.24l-3.7-5.54,.88-.7,3.73,5.58-.91,.66Zm-.59-5.87v-1.04h3.04v1.04h-3.04Zm2.61,7.82v-14.26h1.1v14.26h-1.1Zm3.18,.27v-14.77h1.12v14.77h-1.12Z"/>
        <path class="cls-4" d="M176.59,465.52v-11.12h5.44v1.06h-4.29v9.02h.78c1.46,0,2.92-.11,4.38-.34l.13,1.02c-.73,.13-1.46,.22-2.21,.27-.75,.05-1.57,.08-2.48,.08h-1.76Zm7.55,2.19v-14.26h1.1v14.26h-1.1Zm.48-7.66v-1.06h3.39v1.06h-3.39Zm2.91,7.94v-14.77h1.12v14.77h-1.12Z"/>
        <path class="cls-4" d="M191.34,466.02l-.06-1.06h2.69c.95,0,2.09-.04,3.42-.13,1.33-.08,2.56-.2,3.69-.34l.13,1.01c-1.1,.16-2.31,.29-3.64,.38s-2.55,.14-3.66,.14h-2.56Zm.4-9.94v-.98h8.66v.98h-8.66Zm4.35,6.83c-1.06,0-1.93-.25-2.61-.74-.68-.49-1.02-1.16-1.02-2.02v-.27c0-.86,.34-1.54,1.02-2.02s1.55-.73,2.61-.73,1.89,.24,2.57,.73c.68,.49,1.02,1.16,1.02,2.02v.27c0,.85-.34,1.53-1.02,2.02-.68,.49-1.53,.74-2.57,.74Zm0-.96c.7,0,1.29-.17,1.76-.5s.7-.77,.7-1.31v-.22c0-.54-.23-.98-.7-1.32s-1.06-.5-1.76-.5-1.33,.17-1.8,.5c-.47,.33-.71,.77-.71,1.33v.22c0,.54,.24,.98,.71,1.31s1.07,.5,1.8,.5Zm-.61-6.34v-2.38h1.15v2.38h-1.15Zm.02,9.82v-3.22h1.15v3.22h-1.15Zm6.98,2.54v-14.77h1.14v14.77h-1.14Z"/>
        <path class="cls-4" d="M210.21,460.85v-1.02h13.82v1.02h-13.82Zm5.33,7.3c-.78,0-1.45-.12-2.01-.36-.56-.24-.98-.57-1.26-.99-.28-.42-.42-.9-.42-1.43s.14-1.01,.42-1.43c.28-.42,.7-.75,1.26-.99,.56-.24,1.23-.36,2.01-.36h3.17c.79,0,1.46,.12,2.02,.36,.56,.24,.98,.57,1.26,.99,.28,.42,.42,.9,.42,1.43s-.14,1.01-.42,1.43c-.28,.42-.7,.75-1.26,.99s-1.23,.36-2.02,.36h-3.17Zm4.88-9.44c.15-.73,.27-1.46,.35-2.2s.13-1.32,.13-1.74v-.51l.43,.53h-9.26v-1.04h9.97v.77c0,.6-.05,1.28-.14,2.05-.09,.77-.22,1.54-.38,2.3l-1.1-.16Zm-1.98,8.43c.93,0,1.63-.16,2.11-.48,.48-.32,.72-.76,.72-1.31s-.24-.96-.73-1.28c-.49-.32-1.19-.48-2.1-.48h-2.62c-.92,0-1.62,.16-2.1,.48-.49,.32-.73,.75-.73,1.28s.24,.99,.72,1.31c.48,.32,1.18,.48,2.11,.48h2.62Zm-2.42-6.83v-3.54h1.14v3.54h-1.14Z"/>
        <path class="cls-4" d="M225.37,461.3v-1.01h13.82v1.01h-13.82Zm5.3,6.85c-.78,0-1.44-.11-1.99-.34-.55-.22-.97-.53-1.25-.93s-.42-.85-.42-1.38,.14-.96,.42-1.36c.28-.39,.7-.7,1.25-.93,.55-.22,1.21-.34,1.99-.34h3.23c.79,0,1.46,.11,2.01,.34,.55,.22,.97,.53,1.25,.93,.28,.4,.42,.85,.42,1.36s-.14,.98-.42,1.38c-.28,.39-.7,.7-1.25,.93-.55,.22-1.22,.34-2.01,.34h-3.23Zm6.45-14.56v.99h-8.67v3.09h8.83v1.01h-9.97v-5.09h9.81Zm-3.47,13.55c.92,0,1.61-.15,2.08-.44,.47-.29,.7-.69,.7-1.19s-.23-.89-.7-1.18-1.16-.42-2.08-.42h-2.72c-.92,0-1.61,.14-2.08,.42-.47,.28-.7,.67-.7,1.18s.23,.9,.7,1.19c.47,.29,1.16,.44,2.08,.44h2.72Zm-1.92-6.22v-2.86h1.14v2.86h-1.14Z"/>
        <path class="cls-4" d="M240.91,465.28c1.44-1.29,2.57-2.76,3.4-4.42s1.24-3.33,1.24-5.02v-.77l.42,.45h-4.78v-1.04h5.5v1.14c0,2.02-.44,3.91-1.31,5.68s-2.09,3.38-3.65,4.82l-.82-.83Zm7.78,2.43v-14.26h1.12v14.26h-1.12Zm.5-7.66v-1.06h3.39v1.06h-3.39Zm2.91,7.94v-14.77h1.12v14.77h-1.12Z"/>
        <path class="cls-4" d="M255.9,465.71l-.06-1.06h2.69c.96,0,2.1-.04,3.43-.13,1.33-.09,2.55-.2,3.67-.35l.13,1.02c-1.12,.15-2.35,.27-3.68,.37-1.33,.1-2.54,.14-3.62,.14h-2.56Zm.19-4.27c1.28-.77,2.25-1.57,2.9-2.4,.66-.83,.98-1.75,.98-2.77v-.42h1.15v.42c0,1.24-.37,2.35-1.11,3.33-.74,.98-1.86,1.91-3.37,2.78l-.56-.94Zm.5-5.15v-1.02h7.95v1.02h-7.95Zm7.84,5.94l-4.59-3.39,.62-.9,4.59,3.34-.62,.94Zm-4.48,2.82v-3.12h1.15v3.12h-1.15Zm.05-9.41v-2.4h1.14v2.4h-1.14Zm7.04,12.35v-14.77h1.14v14.77h-1.14Z"/>
        <path class="cls-4" d="M275.2,461.62v-7.52h6.94v1.02h-5.81v5.46h1.36c.86,0,1.83-.04,2.89-.13,1.06-.09,2.07-.2,3.02-.35l.13,1.01c-.92,.15-1.93,.27-3.03,.37-1.1,.1-2.17,.14-3.19,.14h-2.3Zm2.03,6.37v-4.5h1.15v3.44h8.88v1.06h-10.03Zm8.05-3.55v-11.22h1.15v11.22h-1.15Zm.67-6.24v-1.06h2.93v1.06h-2.93Z"/>
        <path class="cls-4" d="M294.43,460.02c-1.12,0-2.04-.27-2.77-.81-.73-.54-1.09-1.3-1.09-2.3v-.26c0-1,.36-1.77,1.08-2.3,.72-.53,1.65-.8,2.78-.8s2.02,.27,2.74,.8c.72,.53,1.08,1.3,1.08,2.3v.26c0,.99-.36,1.76-1.08,2.3-.72,.54-1.63,.81-2.74,.81Zm0-1.04c.8,0,1.45-.18,1.94-.54,.5-.36,.74-.88,.74-1.55v-.21c0-.66-.25-1.18-.74-1.54-.5-.37-1.14-.55-1.94-.55s-1.46,.18-1.96,.55-.74,.88-.74,1.54v.21c0,.67,.25,1.19,.74,1.55,.5,.36,1.15,.54,1.96,.54Zm-1.5,9.09v-3.82h8.35v-1.76h-8.42v-.98h9.55v3.73h-8.34v1.82h8.96v1.01h-10.11Zm8.35-7.62v-7.23h1.14v7.23h-1.14Z"/>
        <path class="cls-4" d="M305.98,461.07v-7.06h7.1v1.01h-5.97v5.02h1.55c.91,0,1.9-.04,2.98-.14,1.08-.09,2.09-.21,3.02-.36l.14,.99c-.9,.16-1.91,.29-3.05,.38-1.14,.1-2.23,.14-3.29,.14h-2.5Zm.46-3.1v-.99h6.48v.99h-6.48Zm1.65,10.02v-5.41h9.49v5.41h-9.49Zm1.14-1.04h7.22v-3.34h-7.22v3.34Zm7.22-5.41v-8.32h1.14v8.32h-1.14Z"/>
        <path class="cls-4" d="M324.16,462.24v-1.06h13.82v1.06h-13.82Zm10-.59c.21-1.11,.39-2.25,.52-3.41,.13-1.16,.2-2.1,.2-2.8v-.86l.45,.53h-9.58v-1.06h10.27v1.14c0,.9-.07,1.93-.2,3.11-.13,1.18-.31,2.36-.54,3.54l-1.12-.19Zm-3.65,6.51v-6.37h1.14v6.37h-1.14Z"/>
        <path class="cls-4" d="M339.49,460.24c1.32-.78,2.31-1.61,2.97-2.5,.66-.89,.98-1.9,.98-3.03v-.96h1.14v.96c0,1.33-.37,2.53-1.1,3.58s-1.87,2.01-3.39,2.89l-.59-.93Zm5.97,7.89c-.7,0-1.32-.13-1.84-.38-.52-.26-.92-.61-1.2-1.06-.28-.45-.42-.95-.42-1.52s.14-1.06,.42-1.51,.68-.81,1.2-1.07c.52-.26,1.14-.39,1.84-.39h3.1c.7,0,1.32,.13,1.84,.39,.52,.26,.92,.62,1.2,1.07s.42,.96,.42,1.51-.14,1.07-.42,1.52c-.28,.45-.68,.8-1.2,1.06-.52,.26-1.14,.38-1.84,.38h-3.1Zm2.88-1.02c.82,0,1.45-.18,1.88-.54,.43-.36,.65-.83,.65-1.42s-.22-1.03-.65-1.39c-.43-.36-1.06-.54-1.88-.54h-2.66c-.82,0-1.45,.18-1.89,.54-.44,.36-.66,.83-.66,1.39s.22,1.06,.66,1.42c.44,.36,1.07,.54,1.89,.54h2.66Zm-.45-6.16l-4.66-3.31,.67-.85,4.59,3.25-.61,.91Zm-.72-3.73v-1.02h4.1v1.02h-4.1Zm3.49,4.08v-8.06h1.14v8.06h-1.14Z"/>
        <path class="cls-4" d="M130.97,503.15c-.45,0-.86-.11-1.24-.33-.38-.22-.68-.52-.9-.9-.22-.38-.33-.79-.33-1.22s.11-.86,.33-1.24c.22-.38,.52-.68,.9-.9,.38-.22,.79-.33,1.24-.33s.86,.11,1.24,.33c.38,.22,.68,.52,.9,.9,.22,.38,.33,.79,.33,1.24s-.11,.85-.33,1.22c-.22,.38-.52,.68-.9,.9-.38,.22-.79,.33-1.24,.33Z"/>
        <path class="cls-4" d="M145.29,505.17c1.33-1.37,2.32-2.78,2.97-4.26,.65-1.47,.97-3.11,.97-4.93v-1.86h1.12v1.86c0,1.91-.35,3.67-1.04,5.29-.69,1.62-1.77,3.17-3.22,4.66l-.8-.77Zm8.16,.61l-4.59-5.65,.85-.72,4.59,5.63-.85,.74Zm2.69,2.21v-14.77h1.15v14.77h-1.15Zm.67-7.94v-1.06h2.93v1.06h-2.93Z"/>
        <path class="cls-4" d="M161.01,506.02l-.06-1.06h2.69c.95,0,2.09-.04,3.42-.13,1.33-.08,2.56-.2,3.69-.34l.13,1.01c-1.1,.16-2.31,.29-3.64,.38s-2.55,.14-3.66,.14h-2.56Zm.4-9.94v-.98h8.66v.98h-8.66Zm4.35,6.83c-1.06,0-1.93-.25-2.61-.74-.68-.49-1.02-1.16-1.02-2.02v-.27c0-.86,.34-1.54,1.02-2.02s1.55-.73,2.61-.73,1.89,.24,2.57,.73c.68,.49,1.02,1.16,1.02,2.02v.27c0,.85-.34,1.53-1.02,2.02-.68,.49-1.53,.74-2.57,.74Zm0-.96c.7,0,1.29-.17,1.76-.5s.7-.77,.7-1.31v-.22c0-.54-.23-.98-.7-1.32s-1.06-.5-1.76-.5-1.33,.17-1.8,.5c-.47,.33-.71,.77-.71,1.33v.22c0,.54,.24,.98,.71,1.31s1.07,.5,1.8,.5Zm-.61-6.34v-2.38h1.15v2.38h-1.15Zm.02,9.82v-3.22h1.15v3.22h-1.15Zm6.98,2.54v-14.77h1.14v14.77h-1.14Z"/>
        <path class="cls-4" d="M175.98,502.21v-1.06h13.82v1.06h-13.82Zm1.86,5.78v-4.29h1.15v3.23h9.28v1.06h-10.43Zm.08-8.64v-5.76h9.97v5.76h-9.97Zm1.14-1.04h7.68v-3.7h-7.68v3.7Zm3.28,6.83v-3.54h1.14v3.54h-1.14Z"/>
        <path class="cls-4" d="M190.97,506.02l-.05-1.04h2.54c.92,0,2.03-.04,3.33-.13,1.3-.08,2.5-.2,3.6-.34l.13,1.01c-1.1,.15-2.3,.27-3.61,.36s-2.48,.14-3.51,.14h-2.43Zm.21-9.94v-.98h8.5v.98h-8.5Zm4.27,6.83c-1.03,0-1.89-.25-2.55-.74-.67-.49-1-1.16-1-2.02v-.27c0-.86,.33-1.54,.99-2.02,.66-.49,1.51-.73,2.56-.73s1.87,.24,2.53,.73c.66,.49,.99,1.16,.99,2.02v.27c0,.85-.33,1.53-.99,2.02-.66,.49-1.5,.74-2.53,.74Zm0-.96c.69,0,1.27-.17,1.72-.5,.45-.33,.68-.77,.68-1.31v-.22c0-.55-.23-1-.68-1.33-.45-.33-1.03-.5-1.72-.5s-1.29,.17-1.74,.5c-.46,.33-.69,.77-.69,1.33v.22c0,.54,.23,.98,.69,1.31s1.04,.5,1.74,.5Zm-.59-6.34v-2.38h1.15v2.38h-1.15Zm.08,9.82v-3.38h1.15v3.38h-1.15Zm6.86,2.54v-14.77h1.14v14.77h-1.14Zm.62-7.79v-1.04h2.82v1.04h-2.82Z"/>
        <path class="cls-4" d="M210.21,506.8v-1.06h13.82v1.06h-13.82Zm10.19-3.87c.23-1.25,.43-2.52,.58-3.82s.22-2.34,.22-3.14v-.99l.45,.53h-9.89v-1.04h10.58v1.25c0,.99-.07,2.14-.22,3.46-.15,1.31-.35,2.63-.59,3.97l-1.12-.21Zm-6.8,3.63v-6.93h1.1v6.93h-1.1Zm3.74,0v-6.93h1.1v6.93h-1.1Z"/>
        <path class="cls-4" d="M225.37,503.92v-1.02h13.82v1.02h-13.82Zm1.79-2.88v-4.02h9.1v-2.02h-9.18v-1.01h10.34v4h-9.12v2.06h9.44v.98h-10.58Zm1.92,7.12v-4.99h1.15v4.99h-1.15Zm5.26,0v-4.99h1.15v4.99h-1.15Z"/>
        <path class="cls-4" d="M240.94,495.67v-.98h8.22v.98h-8.22Zm4.13,5.78c-1.01,0-1.84-.21-2.47-.62-.63-.42-.95-1-.95-1.74v-.21c0-.74,.32-1.31,.95-1.73,.63-.42,1.46-.62,2.47-.62s1.82,.21,2.46,.62,.96,.99,.96,1.73v.21c0,.75-.32,1.33-.96,1.74s-1.46,.62-2.46,.62Zm0-.98c.66,0,1.21-.13,1.66-.39,.44-.26,.66-.6,.66-1.02v-.16c0-.42-.22-.75-.66-1.02-.44-.26-.99-.39-1.66-.39s-1.23,.13-1.67,.39c-.44,.26-.66,.6-.66,1.02v.16c0,.42,.22,.75,.66,1.02,.44,.26,1,.39,1.67,.39Zm-1.55,7.5v-5.7h1.14v4.69h7.22v-4.69h1.14v5.7h-9.49Zm.64-2.91v-1.02h8.24v1.02h-8.24Zm.3-9.84v-2.19h1.17v2.19h-1.17Zm4.69,2.3v-.94h3.28v.94h-3.28Zm0,2.7v-.96h3.28v.96h-3.28Zm2.72,1.17v-8.18h1.14v8.18h-1.14Z"/>
        <path class="cls-4" d="M256.59,501.31v-4.22h5.36v-2.06h-5.36v-1.01h6.48v4.08h-5.36v2.19h1.41c.84,0,1.74-.04,2.69-.12,.95-.08,1.87-.19,2.75-.33l.13,.99c-1.9,.32-3.82,.48-5.78,.48h-2.32Zm10.46,6.82v-4.19h-8.51v-1.06h9.65v5.25h-1.14Zm-2.72-11.92v-.94h3.31v.94h-3.31Zm0,2.78v-.96h3.31v.96h-3.31Zm2.72,2.85v-8.61h1.14v8.61h-1.14Z"/>
        <path class="cls-4" d="M274.97,500.47c1.33-.79,2.33-1.59,2.98-2.41,.65-.82,.98-1.75,.98-2.79v-.75h1.12v.75c0,1.25-.37,2.36-1.1,3.34-.74,.98-1.87,1.9-3.41,2.78l-.56-.91Zm.59-5.42v-1.02h7.87v1.02h-7.87Zm5.33,13.09c-.7,0-1.32-.13-1.84-.38-.52-.26-.92-.61-1.2-1.06-.28-.45-.42-.95-.42-1.52s.14-1.06,.42-1.51,.68-.81,1.2-1.07c.52-.26,1.14-.39,1.84-.39h3.1c.7,0,1.32,.13,1.84,.39,.52,.26,.92,.62,1.2,1.07s.42,.96,.42,1.51-.14,1.07-.42,1.52c-.28,.45-.68,.8-1.2,1.06-.52,.26-1.14,.38-1.84,.38h-3.1Zm2.88-1.02c.82,0,1.45-.18,1.88-.54,.43-.36,.65-.83,.65-1.42s-.22-1.03-.65-1.39c-.43-.36-1.06-.54-1.88-.54h-2.66c-.82,0-1.45,.18-1.89,.54-.44,.36-.66,.83-.66,1.39s.22,1.06,.66,1.42c.44,.36,1.07,.54,1.89,.54h2.66Zm-.35-5.95l-4.75-3.31,.62-.85,4.72,3.22-.59,.94Zm-.51-3.55v-1.01h3.79v1.01h-3.79Zm3.18,3.7v-8.06h1.14v8.06h-1.14Z"/>
        <path class="cls-4" d="M290.46,505.84v-6.32h3.97v-4.08h-3.97v-1.04h5.07v6.16h-3.97v4.24h.93c.73,0,1.38-.03,1.98-.08,.59-.05,1.27-.14,2.02-.26l.14,1.01c-.73,.13-1.41,.22-2.05,.28-.64,.06-1.41,.09-2.32,.09h-1.81Zm5.62-3.18v-1.02h2.77v1.02h-2.77Zm.22-4.48v-1.02h2.54v1.02h-2.54Zm2,9.54v-14.26h1.1v14.26h-1.1Zm3.18,.27v-14.77h1.12v14.77h-1.12Z"/>
        <path class="cls-4" d="M304.93,506.02l-.05-1.04h2.54c.92,0,2.03-.04,3.33-.13,1.3-.08,2.5-.2,3.6-.34l.13,1.01c-1.1,.15-2.3,.27-3.61,.36s-2.48,.14-3.51,.14h-2.43Zm.21-9.94v-.98h8.5v.98h-8.5Zm4.27,6.83c-1.03,0-1.89-.25-2.55-.74-.67-.49-1-1.16-1-2.02v-.27c0-.86,.33-1.54,.99-2.02,.66-.49,1.51-.73,2.56-.73s1.87,.24,2.53,.73c.66,.49,.99,1.16,.99,2.02v.27c0,.85-.33,1.53-.99,2.02-.66,.49-1.5,.74-2.53,.74Zm0-.96c.69,0,1.27-.17,1.72-.5,.45-.33,.68-.77,.68-1.31v-.22c0-.55-.23-1-.68-1.33-.45-.33-1.03-.5-1.72-.5s-1.29,.17-1.74,.5c-.46,.33-.69,.77-.69,1.33v.22c0,.54,.23,.98,.69,1.31s1.04,.5,1.74,.5Zm-.59-6.34v-2.38h1.15v2.38h-1.15Zm.08,9.82v-3.38h1.15v3.38h-1.15Zm6.86,2.54v-14.77h1.14v14.77h-1.14Zm.62-7.79v-1.04h2.82v1.04h-2.82Z"/>
        <path class="cls-4" d="M324.97,499.94v-6h7.06v6h-7.06Zm1.12-1.01h4.82v-3.98h-4.82v3.98Zm.08,8.21c1.65-.41,2.94-.88,3.85-1.42s1.37-1.15,1.37-1.81v-.5h1.17v.5c0,.93-.51,1.75-1.54,2.46-1.03,.71-2.53,1.3-4.5,1.77l-.34-.99Zm.75-3.25v-1.01h9.95v1.01h-9.95Zm10.24,4.24l-5.81-2.4,.35-.96,5.89,2.38-.43,.98Zm-5.78-5.04v-2.02h1.17v2.02h-1.17Zm4.13-1.79v-8.06h1.14v8.06h-1.14Z"/>
        <path class="cls-4" d="M343.21,500.85v-1.02h13.82v1.02h-13.82Zm5.33,7.3c-.78,0-1.45-.12-2.01-.36-.56-.24-.98-.57-1.26-.99-.28-.42-.42-.9-.42-1.43s.14-1.01,.42-1.43c.28-.42,.7-.75,1.26-.99,.56-.24,1.23-.36,2.01-.36h3.17c.79,0,1.46,.12,2.02,.36,.56,.24,.98,.57,1.26,.99,.28,.42,.42,.9,.42,1.43s-.14,1.01-.42,1.43c-.28,.42-.7,.75-1.26,.99s-1.23,.36-2.02,.36h-3.17Zm4.88-9.44c.15-.73,.27-1.46,.35-2.2s.13-1.32,.13-1.74v-.51l.43,.53h-9.26v-1.04h9.97v.77c0,.6-.05,1.28-.14,2.05-.09,.77-.22,1.54-.38,2.3l-1.1-.16Zm-1.98,8.43c.93,0,1.63-.16,2.11-.48,.48-.32,.72-.76,.72-1.31s-.24-.96-.73-1.28c-.49-.32-1.19-.48-2.1-.48h-2.62c-.92,0-1.62,.16-2.1,.48-.49,.32-.73,.75-.73,1.28s.24,.99,.72,1.31c.48,.32,1.18,.48,2.11,.48h2.62Zm-2.42-6.83v-3.54h1.14v3.54h-1.14Z"/>
        <path class="cls-4" d="M358.38,501.3v-1.01h13.82v1.01h-13.82Zm5.3,6.85c-.78,0-1.44-.11-1.99-.34-.55-.22-.97-.53-1.25-.93s-.42-.85-.42-1.38,.14-.96,.42-1.36c.28-.39,.7-.7,1.25-.93,.55-.22,1.21-.34,1.99-.34h3.23c.79,0,1.46,.11,2.01,.34,.55,.22,.97,.53,1.25,.93,.28,.4,.42,.85,.42,1.36s-.14,.98-.42,1.38c-.28,.39-.7,.7-1.25,.93-.55,.22-1.22,.34-2.01,.34h-3.23Zm6.45-14.56v.99h-8.67v3.09h8.83v1.01h-9.97v-5.09h9.81Zm-3.47,13.55c.92,0,1.61-.15,2.08-.44,.47-.29,.7-.69,.7-1.19s-.23-.89-.7-1.18-1.16-.42-2.08-.42h-2.72c-.92,0-1.61,.14-2.08,.42-.47,.28-.7,.67-.7,1.18s.23,.9,.7,1.19c.47,.29,1.16,.44,2.08,.44h2.72Zm-1.92-6.22v-2.86h1.14v2.86h-1.14Z"/>
        <path class="cls-4" d="M373.95,495.67v-.98h8.22v.98h-8.22Zm4.13,5.78c-1.01,0-1.84-.21-2.47-.62-.63-.42-.95-1-.95-1.74v-.21c0-.74,.32-1.31,.95-1.73,.63-.42,1.46-.62,2.47-.62s1.82,.21,2.46,.62,.96,.99,.96,1.73v.21c0,.75-.32,1.33-.96,1.74s-1.46,.62-2.46,.62Zm0-.98c.66,0,1.21-.13,1.66-.39,.44-.26,.66-.6,.66-1.02v-.16c0-.42-.22-.75-.66-1.02-.44-.26-.99-.39-1.66-.39s-1.23,.13-1.67,.39c-.44,.26-.66,.6-.66,1.02v.16c0,.42,.22,.75,.66,1.02,.44,.26,1,.39,1.67,.39Zm-1.55,7.5v-5.7h1.14v4.69h7.22v-4.69h1.14v5.7h-9.49Zm.64-2.91v-1.02h8.24v1.02h-8.24Zm.3-9.84v-2.19h1.17v2.19h-1.17Zm4.69,2.3v-.94h3.28v.94h-3.28Zm0,2.7v-.96h3.28v.96h-3.28Zm2.72,1.17v-8.18h1.14v8.18h-1.14Z"/>
        <path class="cls-4" d="M388.91,505.55l-.06-1.06h2.69c.95,0,2.09-.04,3.42-.13,1.33-.08,2.56-.2,3.69-.34l.13,1.01c-1.1,.16-2.31,.29-3.64,.38s-2.55,.14-3.66,.14h-2.56Zm4.66-3.55c-.74,0-1.39-.14-1.98-.42s-1.04-.71-1.38-1.29c-.34-.58-.51-1.28-.51-2.11v-.34c0-.83,.17-1.54,.51-2.11,.34-.58,.8-1,1.38-1.29,.58-.28,1.24-.42,1.98-.42s1.38,.14,1.96,.42c.58,.28,1.04,.71,1.38,1.29,.34,.58,.51,1.28,.51,2.11v.34c0,.83-.17,1.54-.51,2.11s-.8,1.01-1.38,1.29c-.58,.28-1.23,.42-1.96,.42Zm0-1.06c.8,0,1.45-.24,1.95-.72,.5-.48,.75-1.17,.75-2.06v-.3c0-.9-.25-1.59-.74-2.07s-1.15-.73-1.96-.73-1.47,.24-1.97,.73-.75,1.18-.75,2.07v.3c0,.9,.25,1.58,.75,2.06,.5,.48,1.16,.72,1.97,.72Zm6.48,7.04v-14.77h1.14v14.77h-1.14Z"/>
        <path class="cls-4" d="M404.67,505.22c1.25-.81,2.33-1.72,3.23-2.74,.91-1.02,1.6-2.09,2.09-3.22s.73-2.27,.73-3.41v-.77l.42,.45h-6.24v-1.04h6.98v1.14c0,2.05-.57,3.97-1.71,5.76-1.14,1.79-2.75,3.37-4.82,4.74l-.67-.9Zm10.56,2.77v-14.77h1.14v14.77h-1.14Z"/>
        <path class="cls-4" d="M419.05,502.24v-1.06h13.82v1.06h-13.82Zm10-.59c.21-1.11,.39-2.25,.52-3.41,.13-1.16,.2-2.1,.2-2.8v-.86l.45,.53h-9.58v-1.06h10.27v1.14c0,.9-.07,1.93-.2,3.11-.13,1.18-.31,2.36-.54,3.54l-1.12-.19Zm-3.65,6.51v-6.37h1.14v6.37h-1.14Z"/>
        <path class="cls-4" d="M127.65,546.79v-1.04h13.82v1.04h-13.82Zm.83-5.55c1.9-.9,3.3-1.83,4.22-2.82,.91-.98,1.37-2.04,1.37-3.18v-1.17h1.14v1.17c0,1.34-.5,2.6-1.5,3.76-1,1.16-2.56,2.24-4.7,3.23l-.53-.99Zm11.52,.99l-6.18-4.22,.51-.98,6.3,4.26-.64,.94Zm-6,4.32v-4.74h1.14v4.74h-1.14Z"/>
        <path class="cls-4" d="M143.18,545.28c1.44-1.28,2.57-2.75,3.39-4.4,.82-1.65,1.23-3.33,1.23-5.04v-.77l.42,.45h-4.77v-1.04h5.49v1.14c0,2.02-.43,3.91-1.3,5.67-.87,1.77-2.08,3.37-3.64,4.82l-.82-.83Zm5.23-2.62v-1.02h3.2v1.02h-3.2Zm.08-4.62v-1.04h3.12v1.04h-3.12Zm2.69,9.68v-14.26h1.1v14.26h-1.1Zm3.18,.27v-14.77h1.12v14.77h-1.12Z"/>
      </g>
      <text class="cls-3" transform="translate(526.63 23.99)"><tspan class="cls-1"><tspan x="0" y="0">배점</tspan></tspan><tspan class="cls-7"><tspan x="3.95" y="40">30</tspan></tspan><tspan class="cls-7"><tspan x="3.95" y="80">30</tspan></tspan><tspan class="cls-7"><tspan x="3.95" y="120">30</tspan></tspan><tspan class="cls-7"><tspan x="3.94" y="160">90</tspan></tspan><tspan class="cls-7"><tspan x="4.08" y="200">20</tspan></tspan><tspan class="cls-7"><tspan x="4.08" y="240">20</tspan></tspan><tspan class="cls-7"><tspan x="4.08" y="280">20</tspan></tspan><tspan class="cls-7"><tspan x="5.8" y="320">10</tspan></tspan><tspan class="cls-7"><tspan x="4.08" y="360">20</tspan></tspan><tspan class="cls-7"><tspan x="4.08" y="400">20</tspan></tspan><tspan class="cls-7"><tspan x="4.08" y="440">20</tspan></tspan><tspan class="cls-7"><tspan x="3.95" y="480">30</tspan></tspan><tspan class="cls-7"><tspan x=".27" y="520">160</tspan></tspan><tspan class="cls-7"><tspan x="-1.31" y="560">250</tspan></tspan></text>
      <text class="cls-2" transform="translate(283.63 23.99)"><tspan x="0" y="0">지표</tspan></text>
      <line class="cls-5" y1="199.23" x2="578.42" y2="199.23"/>
      <line class="cls-5" y1="558.23" x2="578.42" y2="558.23"/>
      <line class="cls-5" y1="39.08" x2="578.42" y2="39.08"/>
      <line class="cls-6" x1="499.53" x2="499.53" y2="598.92"/>
      <line class="cls-5" x1="95.89" x2="95.89" y2="598.92"/>
    </g>
  </g>
</svg>