<?xml version="1.0" encoding="UTF-8"?>
<svg id="Layer_2" data-name="Layer 2" xmlns="http://www.w3.org/2000/svg" viewBox="0 0 780.1 497">
  <defs>
    <style>
      .cls-1 {
        fill: #fff;
      }

      .cls-2 {
        opacity: .4;
      }
    </style>
  </defs>
  <g id="Layer_1-2" data-name="Layer 1">
    <rect class="cls-1" y="27" width="780" height="1"/>
    <g>
      <path class="cls-1" d="M47.6,12.44c-.5,.7-1.41,1.04-2.46,1.04-1.64,0-2.91-.81-2.91-2.5v-.14c0-1.71,1.27-2.51,2.91-2.51,1,0,1.87,.31,2.39,.95h2.15v-1.11h1.46v5.59h-1.46v-1.32h-2.08Zm1.09,1.77c1.52,0,2.59,.87,2.59,2.17s-1.06,2.17-2.59,2.17h-2.44c-1.52,0-2.57-.86-2.57-2.17s1.05-2.17,2.57-2.17h2.44Zm-4.99-3.26c0,.89,.63,1.3,1.44,1.3s1.43-.41,1.43-1.3v-.1c0-.89-.64-1.3-1.43-1.3s-1.44,.41-1.44,1.3v.1Zm4.77,6.34c.89,0,1.34-.37,1.34-.92s-.45-.91-1.34-.91h-2c-.88,0-1.34,.37-1.34,.91s.46,.92,1.34,.92h2Zm1.21-6.89h-1.68c.02,.14,.03,.29,.03,.44v.14c0,.11-.01,.22-.02,.33h1.67v-.91Z"/>
      <path class="cls-1" d="M60.53,8.17h1.46v5.75h-1.46v-1.43h-2.06c-.5,.74-1.43,1.09-2.5,1.09-1.62,0-2.9-.83-2.9-2.54v-.15c0-1.73,1.27-2.55,2.9-2.55,1.02,0,1.91,.33,2.43,1h2.13v-1.17Zm-3.11,2.73c0-.91-.64-1.34-1.44-1.34s-1.43,.43-1.43,1.34v.12c0,.91,.63,1.34,1.43,1.34s1.44-.43,1.44-1.34v-.12Zm-2.79,4.85v-1.26h7.37v4.06h-1.46v-2.79h-5.91Zm5.91-4.38v-.92h-1.68c.02,.14,.03,.29,.03,.44v.15c0,.11,0,.22-.01,.33h1.66Z"/>
      <path class="cls-1" d="M27.39,68.62c0,.69-.07,1.38-.19,2.04l2.25,3.54-1.13,.75-1.65-2.53c-.37,.91-.87,1.79-1.52,2.64l-1.11-.81c1.37-1.77,2.03-3.51,2.03-5.62v-.42h-1.64v-1.29h4.68v1.29h-1.72v.42Zm2.51,1.14v-3.44h1.38v9.87h-1.38v-5.15h-1.51v-1.28h1.51Zm2.32-3.61h1.42v10.28h-1.42v-10.28Z"/>
      <path class="cls-1" d="M40.8,74.43h4.3v1.29h-10.07v-1.29h4.3v-2.12h-3.12v-5.51h7.62v1.27h-6.17v2.99h6.27v1.25h-3.14v2.12Z"/>
      <path class="cls-1" d="M49.14,70.16c-.55,.69-1.37,1.3-2.5,1.85l-.7-1.11c1.81-.93,2.56-1.86,2.62-3.06h-2.2v-1.24h5.82v1.24h-2.21c-.01,.43-.09,.82-.22,1.21l2.83,1.66-.72,1.14-2.73-1.69Zm-1.37,3.59v-1.26h7.38v4.06h-1.46v-2.79h-5.92Zm5.92-7.58h1.46v5.75h-1.46v-2.33h-1.88v-1.2h1.88v-2.22Z"/>
      <path class="cls-1" d="M65.33,71.47h4.3v1.12h-10.07v-1.12h4.3v-.63h-3.02v-4.49h7.52v1.14h-6.05v.53h6.05v1.11h-6.05v.58h6.27v1.12h-3.25v.63Zm.57,1.69c1.71,0,2.68,.69,2.68,1.68s-.97,1.69-2.68,1.69h-2.6c-1.71,0-2.68-.68-2.68-1.69s.97-1.68,2.68-1.68h2.6Zm-.31,2.24c1.08,0,1.52-.2,1.52-.56s-.45-.57-1.52-.57h-1.98c-1.09,0-1.53,.21-1.53,.57s.45,.56,1.53,.56h1.98Z"/>
      <path class="cls-1" d="M76.69,66.93v1.11h-6.28v-1.11h2.4v-.88h1.48v.88h2.4Zm-.45,3.3c0,1.14-1.18,1.69-2.69,1.69s-2.7-.55-2.7-1.69v-.1c0-1.16,1.2-1.71,2.7-1.71s2.69,.55,2.69,1.71v.1Zm1.37,2.95v-.88h1.45v4.14h-7.03v-4.14h1.46v.88h4.11Zm-5.33-2.96c0,.37,.56,.59,1.27,.59s1.27-.22,1.27-.59v-.08c0-.37-.55-.61-1.27-.61s-1.27,.23-1.27,.61v.08Zm1.22,4.99h4.11v-.82h-4.11v.82Zm7.12-6.83v1.26h-1.56v2.2h-1.45v-5.69h1.45v2.22h1.56Z"/>
      <path class="cls-1" d="M30.88,246.35c-1.61,.22-3.65,.34-5.16,.34h-1.63l-.08-1.29h1.95v-2.21h1.46v2.17c1.05-.04,2.24-.13,3.3-.25l.16,1.24Zm-2.43-1.9c.16-.99,.27-1.94,.29-2.62h-4.09v-1.19h5.52v.52c0,1.2-.13,2.4-.32,3.45l-1.4-.17Zm-1.18,3.09v1.62h6.19v1.28h-7.65v-2.89h1.45Zm5.69-4.42h1.43v1.29h-1.43v3.62h-1.46v-7.87h1.46v2.96Z"/>
      <path class="cls-1" d="M40.76,242.5v-2.18h1.38v9.87h-1.38v-3.25h-1.63v-1.23h1.63v-1.98h-1.35c-.38,2.11-1.45,3.91-3.15,5.53l-1.09-1.01c2.12-1.91,2.95-4.1,2.95-6.05h-2.62v-1.29h4.06v1.01c0,.2,0,.38-.01,.57h1.2Zm2.32-2.34h1.42v10.28h-1.42v-10.28Z"/>
      <path class="cls-1" d="M49.14,244.16c-.55,.69-1.37,1.3-2.5,1.85l-.7-1.11c1.81-.93,2.56-1.86,2.62-3.06h-2.2v-1.24h5.82v1.24h-2.21c-.01,.43-.09,.82-.22,1.21l2.83,1.66-.72,1.14-2.73-1.69Zm-1.37,3.59v-1.26h7.38v4.06h-1.46v-2.79h-5.92Zm5.92-7.58h1.46v5.75h-1.46v-2.33h-1.88v-1.2h1.88v-2.22Z"/>
      <path class="cls-1" d="M65.33,245.47h4.3v1.12h-10.07v-1.12h4.3v-.63h-3.02v-4.49h7.52v1.14h-6.05v.53h6.05v1.11h-6.05v.58h6.27v1.12h-3.25v.63Zm.57,1.69c1.71,0,2.68,.69,2.68,1.68s-.97,1.69-2.68,1.69h-2.6c-1.71,0-2.68-.68-2.68-1.69s.97-1.68,2.68-1.68h2.6Zm-.31,2.24c1.08,0,1.52-.2,1.52-.56s-.45-.57-1.52-.57h-1.98c-1.09,0-1.53,.21-1.53,.57s.45,.56,1.53,.56h1.98Z"/>
      <path class="cls-1" d="M76.69,240.93v1.11h-6.28v-1.11h2.4v-.88h1.48v.88h2.4Zm-.45,3.3c0,1.14-1.18,1.69-2.69,1.69s-2.7-.55-2.7-1.69v-.1c0-1.16,1.2-1.71,2.7-1.71s2.69,.55,2.69,1.71v.1Zm1.37,2.95v-.88h1.45v4.14h-7.03v-4.14h1.46v.88h4.11Zm-5.33-2.96c0,.37,.56,.59,1.27,.59s1.27-.22,1.27-.59v-.08c0-.37-.55-.61-1.27-.61s-1.27,.23-1.27,.61v.08Zm1.22,4.99h4.11v-.82h-4.11v.82Zm7.12-6.83v1.26h-1.56v2.2h-1.45v-5.69h1.45v2.22h1.56Z"/>
      <path class="cls-1" d="M48.16,472.93v1.11h-6.28v-1.11h2.4v-.88h1.48v.88h2.4Zm-.45,3.3c0,1.14-1.18,1.69-2.69,1.69s-2.7-.55-2.7-1.69v-.1c0-1.16,1.2-1.71,2.7-1.71s2.69,.55,2.69,1.71v.1Zm1.37,2.95v-.88h1.45v4.14h-7.03v-4.14h1.46v.88h4.11Zm-5.33-2.96c0,.37,.56,.59,1.27,.59s1.27-.22,1.27-.59v-.08c0-.37-.55-.61-1.27-.61s-1.27,.23-1.27,.61v.08Zm1.22,4.99h4.11v-.82h-4.11v.82Zm7.12-6.83v1.26h-1.56v2.2h-1.45v-5.69h1.45v2.22h1.56Z"/>
      <path class="cls-1" d="M58.44,474.5v-2.18h1.38v9.87h-1.38v-3.25h-1.63v-1.23h1.63v-1.98h-1.35c-.38,2.11-1.45,3.91-3.15,5.53l-1.09-1.01c2.12-1.91,2.95-4.1,2.95-6.05h-2.62v-1.29h4.06v1.01c0,.2,0,.38-.01,.57h1.2Zm2.32-2.34h1.42v10.28h-1.42v-10.28Z"/>
    </g>
    <g>
      <path class="cls-1" d="M147.83,40.02v2.99h-3.11v-2.99h3.11Z"/>
      <path class="cls-1" d="M160.22,41.73h4.92v.7h-9.89v-.7h4.15v-2.1h.81v2.1Zm1.11,1.89c1.74,0,2.65,.84,2.65,1.91s-.92,1.91-2.65,1.91h-2.27c-1.73,0-2.64-.82-2.64-1.91s.92-1.91,2.64-1.91h2.27Zm1.22-2.66c.23-1.06,.34-2.18,.34-2.7h-6.32v-.72h7.13v.53c0,.8-.13,1.91-.37,2.99l-.79-.11Zm-1.42,5.8c1.36,0,2.03-.5,2.03-1.23s-.66-1.21-2.03-1.21h-1.88c-1.36,0-2.03,.51-2.03,1.21s.66,1.23,2.03,1.23h1.88Z"/>
      <path class="cls-1" d="M171.46,42.05h4.53v.69h-9.89v-.69h4.54v-1.11h-3.16v-3.5h7.02v.68h-6.2v2.12h6.32v.69h-3.16v1.11Zm.74,1.78c1.73,0,2.63,.77,2.63,1.8s-.9,1.81-2.63,1.81h-2.31c-1.72,0-2.62-.76-2.62-1.81s.9-1.8,2.62-1.8h2.31Zm-.18,2.93c1.35,0,1.99-.45,1.99-1.12s-.64-1.1-1.99-1.1h-1.95c-1.35,0-1.99,.43-1.99,1.1s.64,1.12,1.99,1.12h1.95Z"/>
      <path class="cls-1" d="M177.08,45.67l-.05-.73h1.92c1.3,0,3.42-.12,5.08-.32l.09,.69c-1.59,.22-3.66,.35-5.22,.35h-1.83Zm.56-5.07v-.23c0-1.78,1.24-2.63,2.77-2.63s2.76,.85,2.76,2.63v.23c0,1.78-1.25,2.63-2.76,2.63s-2.77-.85-2.77-2.63Zm4.7-.01v-.21c0-1.28-.82-1.93-1.93-1.93s-1.95,.65-1.95,1.93v.21c0,1.26,.82,1.91,1.95,1.91s1.93-.65,1.93-1.91Zm2.7,6.75v-10.15h.81v10.15h-.81Z"/>
      <path class="cls-1" d="M196.06,39.52c-.58,1.43-2.22,2.49-4.57,3.22l-.32-.68c2.6-.81,4.26-2.11,4.3-3.54h-4.13v-.73h4.96v.5c0,.19-.01,.37-.05,.56h2.44v-1.65h.81v5.54h-.81v-1.31h-2.67v-.67h2.67v-1.24h-2.63Zm1.13,3.84c1.56,0,2.47,.9,2.47,2.05s-.92,2.04-2.47,2.04h-2.23c-1.54,0-2.46-.88-2.46-2.04s.92-2.05,2.46-2.05h2.23Zm-.16,3.38c1.22,0,1.81-.57,1.81-1.34s-.58-1.33-1.81-1.33h-1.9c-1.22,0-1.82,.59-1.82,1.33s.6,1.34,1.82,1.34h1.9Z"/>
      <path class="cls-1" d="M204.33,39.45c0,.8-.08,1.56-.25,2.28l2.53,3.64-.65,.45-2.16-3.11c-.4,1.11-1.02,2.17-1.85,3.23l-.63-.48c1.44-1.82,2.24-3.56,2.24-6.01v-.67h-1.88v-.71h4.57v.71h-1.91v.67Zm3.07,1.62v-3.71h.79v9.8h-.79v-5.38h-1.87v-.71h1.87Zm2.28-3.87h.8v10.15h-.8v-10.15Z"/>
      <path class="cls-1" d="M215.18,39.45c0,.8-.08,1.56-.25,2.28l2.53,3.64-.65,.45-2.16-3.11c-.4,1.11-1.02,2.17-1.85,3.23l-.63-.48c1.44-1.82,2.24-3.56,2.24-6.01v-.67h-1.88v-.71h4.57v.71h-1.91v.67Zm3.07,1.62v-3.71h.79v9.8h-.79v-5.38h-1.87v-.71h1.87Zm2.28-3.87h.8v10.15h-.8v-10.15Z"/>
      <path class="cls-1" d="M228.47,45.81h4.53v.73h-9.89v-.73h4.54v-2.66h-3.26v-5.2h7.23v.71h-6.42v3.78h6.52v.7h-3.26v2.66Z"/>
      <path class="cls-1" d="M236.02,44.94c1.25,0,2.91-.14,4.26-.34l.09,.69c-1.27,.21-2.96,.36-4.5,.36h-1.6v-7.65h.82v6.93h.93Zm8.03-3.77v.73h-1.75v5.46h-.82v-10.15h.82v3.97h1.75Z"/>
      <path class="cls-1" d="M250.76,40.62c-.53,.8-1.4,1.51-2.62,2.18l-.4-.63c1.81-1.03,2.83-2.08,2.83-3.58v-.15h-2.4v-.7h5.63v.7h-2.43v.15c0,.5-.08,.95-.25,1.38l3.09,2.02-.42,.65-3.02-2.02Zm3.43,2.74c1.56,0,2.47,.9,2.47,2.05s-.92,2.04-2.47,2.04h-2.22c-1.56,0-2.47-.88-2.47-2.04s.92-2.05,2.47-2.05h2.22Zm-.16,3.38c1.22,0,1.81-.57,1.81-1.34s-.58-1.33-1.81-1.33h-1.9c-1.22,0-1.82,.59-1.82,1.33s.6,1.34,1.82,1.34h1.9Zm-.62-7.23h2.28v-2.31h.81v5.54h-.81v-2.54h-2.28v-.69Z"/>
      <path class="cls-1" d="M263.23,42.79l-2.31-1.84c-.42,.77-1.14,1.42-2.2,2.06l-.4-.6c1.5-.95,2.25-1.94,2.27-3.29h-1.95v-.7h1.95v-1.35h.79v1.35h1.99v.7h-1.99c0,.42-.06,.79-.17,1.16l2.48,1.93-.46,.59Zm-2.67,1.77v-.73h6.92v3.61h-.81v-2.88h-6.11Zm6.13-7.37h.79v5.93h-.79v-2.73h-1.59v2.73h-.79v-5.82h.79v2.39h1.59v-2.5Z"/>
      <path class="cls-1" d="M269.42,45.67l-.05-.73h1.92c1.3,0,3.42-.12,5.08-.32l.09,.69c-1.59,.22-3.66,.35-5.22,.35h-1.83Zm.56-5.07v-.23c0-1.78,1.24-2.63,2.77-2.63s2.76,.85,2.76,2.63v.23c0,1.78-1.25,2.63-2.76,2.63s-2.77-.85-2.77-2.63Zm4.7-.01v-.21c0-1.28-.82-1.93-1.93-1.93s-1.95,.65-1.95,1.93v.21c0,1.26,.82,1.91,1.95,1.91s1.93-.65,1.93-1.91Zm2.7,6.75v-10.15h.81v10.15h-.81Z"/>
      <path class="cls-1" d="M288.27,42.76h4.53v.73h-9.89v-.73h4.54v-1.49h.81v1.49Zm-4.46-1.83c2.46-.71,3.72-1.65,3.72-2.74v-.05h-3.17v-.69h7.02v.69h-3.04v.04c0,.38-.09,.75-.27,1.09l3.85,1.68-.31,.65-3.99-1.74c-.67,.67-1.84,1.25-3.54,1.74l-.25-.67Zm1.3,3.47v2.22h6.59v.73h-7.4v-2.95h.81Z"/>
      <path class="cls-1" d="M296.68,39.45c0,.8-.08,1.55-.25,2.27l2.52,3.64-.66,.46-2.15-3.11c-.4,1.12-1.02,2.17-1.84,3.23l-.65-.5c1.44-1.8,2.25-3.55,2.25-6v-.67h-1.88v-.71h4.57v.71h-1.9v.67Zm5.33-2.25h.8v10.15h-.8v-5.46h-1.64v5.27h-.79v-9.8h.79v3.81h1.64v-3.97Z"/>
      <path class="cls-1" d="M147.83,69.02v2.99h-3.11v-2.99h3.11Z"/>
      <path class="cls-1" d="M160.61,71.05h4.53v.69h-9.89v-.69h4.54v-1.11h-3.16v-3.5h7.02v.68h-6.2v2.12h6.32v.69h-3.16v1.11Zm.74,1.78c1.73,0,2.63,.77,2.63,1.8s-.9,1.81-2.63,1.81h-2.31c-1.72,0-2.62-.76-2.62-1.81s.9-1.8,2.62-1.8h2.31Zm-.18,2.93c1.35,0,1.99-.45,1.99-1.12s-.64-1.1-1.99-1.1h-1.95c-1.35,0-1.99,.43-1.99,1.1s.64,1.12,1.99,1.12h1.95Z"/>
      <path class="cls-1" d="M166.56,68.73v-.18c0-1.43,1.22-2.13,2.76-2.13s2.74,.7,2.74,2.13v.18c0,1.42-1.22,2.13-2.74,2.13s-2.76-.72-2.76-2.13Zm4.68-.02v-.14c0-.92-.81-1.44-1.92-1.44s-1.93,.52-1.93,1.44v.14c0,.95,.8,1.44,1.93,1.44s1.92-.5,1.92-1.44Zm-3,7.69v-2.63h5.97v-1.21h-6.02v-.67h6.83v2.56h-5.96v1.25h6.41v.69h-7.23Zm5.97-5.24v-4.97h.81v4.97h-.81Z"/>
      <path class="cls-1" d="M180.48,74.22c1.02-.06,2.13-.14,3.08-.26l.09,.69c-1.54,.2-3.58,.34-5.09,.34h-1.74l-.03-.71h1.82c.31,0,.66-.01,1.05-.02v-1.41c-1.26-.11-2.17-.78-2.17-1.88v-.19c0-1.22,1.1-1.89,2.54-1.89s2.52,.67,2.52,1.89v.19c0,1.08-.87,1.74-2.06,1.87v1.39Zm2.56-6.73v.67h-6.08v-.67h2.63v-1.29h.82v1.29h2.62Zm-4.76,3.47c0,.77,.75,1.24,1.74,1.24s1.72-.47,1.72-1.24v-.15c0-.77-.74-1.25-1.72-1.25s-1.74,.48-1.74,1.25v.15Zm8.74-.68v.71h-1.65v5.36h-.81v-10.15h.81v4.08h1.65Z"/>
      <path class="cls-1" d="M191.71,73.8c.42-.03,.84-.08,1.22-.13l.09,.69c-1.22,.19-2.76,.3-4.04,.3h-1.28l-.03-.73h.97v-6.21h-.92v-.73h4.88v.73h-.89v6.07Zm-.76-6.07h-1.57v6.21c.47-.01,1.01-.03,1.57-.07v-6.14Zm2.88,1.3v-2.67h.79v9.8h-.79v-4.08h-1.46v-.71h1.46v-1.63h-1.46v-.7h1.46Zm2.21-2.84h.8v10.15h-.8v-10.15Z"/>
      <path class="cls-1" d="M204.79,68.09c0,.88-.11,1.71-.33,2.5l3.16,3.73-.61,.51-2.85-3.37c-.49,1.22-1.29,2.37-2.41,3.48l-.57-.53c1.87-1.84,2.81-3.77,2.81-6.31v-1.28h.8v1.28Zm6.72,2.07v.73h-1.75v5.46h-.82v-10.15h.82v3.97h1.75Z"/>
      <path class="cls-1" d="M219.3,71.11h2.86v.69h-9.89v-.69h2.87v-1.25c-1.04-.25-1.65-.81-1.65-1.69,0-1.22,1.16-1.83,2.99-1.83h1.48c1.83,0,2.99,.61,2.99,1.83,0,.88-.61,1.44-1.65,1.69v1.25Zm-.93,1.73c1.73,0,2.63,.77,2.63,1.8s-.9,1.81-2.63,1.81h-2.31c-1.72,0-2.62-.77-2.62-1.81s.9-1.8,2.62-1.8h2.31Zm-.18,2.92c1.35,0,1.99-.44,1.99-1.11s-.64-1.1-1.99-1.1h-1.95c-1.35,0-1.99,.43-1.99,1.1s.64,1.11,1.99,1.11h1.95Zm-1.57-6.44h1.2c1.49,0,2.3-.43,2.3-1.16s-.81-1.13-2.3-1.13h-1.2c-1.5,0-2.31,.4-2.31,1.13s.81,1.16,2.31,1.16Zm-.69,1.79h2.58v-1.14c-.17,.03-2.4,.03-2.58,0v1.14Z"/>
      <path class="cls-1" d="M147.83,98.02v2.99h-3.11v-2.99h3.11Z"/>
      <path class="cls-1" d="M161.66,99.91c-1.27,.21-2.96,.36-4.5,.36h-1.6v-4.53h.82v3.81h.93c1.25,0,2.91-.14,4.25-.33l.1,.69Zm-4.65,5.43v-3.93h6.58v3.93h-6.58Zm.82-3.22v2.51h4.93v-2.51h-4.93Zm7.51-4.65v.71h-1.75v2.51h-.82v-5.5h.82v2.28h1.75Z"/>
      <path class="cls-1" d="M175.99,101.09h-4.53v1.29h3.26v3.08h-.82v-2.38h-6.51v-.7h3.26v-1.29h-4.54v-.69h9.89v.69Zm-1.37-5.7v3.92h-7.13v-3.92h.81v1.3h5.49v-1.3h.82Zm-6.32,3.25h5.49v-1.28h-5.49v1.28Z"/>
      <path class="cls-1" d="M183.13,96.33v.68h-6.12v-.68h2.65v-1.28h.81v1.28h2.66Zm-.49,3.46c0,1.21-1.12,1.9-2.55,1.9s-2.56-.69-2.56-1.9v-.19c0-1.21,1.13-1.88,2.56-1.88s2.55,.67,2.55,1.88v.19Zm-4.3-.01c0,.75,.77,1.22,1.75,1.22s1.75-.47,1.75-1.22v-.15c0-.75-.78-1.22-1.75-1.22s-1.75,.47-1.75,1.22v.15Zm1.2,2.83v2.01h6.35v.72h-7.18v-2.73h.82Zm5.75-4.3h1.76v.74h-1.76v3.96h-.81v-7.81h.81v3.11Z"/>
      <path class="cls-1" d="M196.06,97.52c-.58,1.43-2.22,2.49-4.57,3.22l-.32-.68c2.6-.81,4.26-2.11,4.3-3.54h-4.13v-.73h4.96v.5c0,.19-.01,.37-.05,.56h2.44v-1.65h.81v5.54h-.81v-1.31h-2.67v-.67h2.67v-1.24h-2.63Zm1.13,3.84c1.56,0,2.47,.9,2.47,2.05s-.92,2.04-2.47,2.04h-2.23c-1.54,0-2.46-.88-2.46-2.04s.92-2.05,2.46-2.05h2.23Zm-.16,3.38c1.22,0,1.81-.57,1.81-1.34s-.58-1.33-1.81-1.33h-1.9c-1.22,0-1.82,.59-1.82,1.33s.6,1.34,1.82,1.34h1.9Z"/>
      <path class="cls-1" d="M204.33,97.45c0,.8-.08,1.56-.25,2.28l2.53,3.64-.65,.45-2.16-3.11c-.4,1.11-1.02,2.17-1.85,3.23l-.63-.48c1.44-1.82,2.24-3.56,2.24-6.01v-.67h-1.88v-.71h4.57v.71h-1.91v.67Zm3.07,1.62v-3.71h.79v9.8h-.79v-5.38h-1.87v-.71h1.87Zm2.28-3.87h.8v10.15h-.8v-10.15Z"/>
      <path class="cls-1" d="M212.27,100.91h9.89v.73h-4.53v1.75h-.81v-1.75h-4.54v-.73Zm2.15,1.69v2.01h6.64v.73h-7.46v-2.74h.82Zm6.36-7.22v4.32h-7.13v-4.32h.81v1.5h5.49v-1.5h.82Zm-6.32,3.64h5.49v-1.45h-5.49v1.45Z"/>
      <path class="cls-1" d="M228.58,99.11v1.52c0,2.41-1.19,3.37-2.65,3.37s-2.67-.96-2.67-3.37v-1.52c0-2.41,1.19-3.37,2.67-3.37s2.65,.96,2.65,3.37Zm-.82,0c0-1.89-.78-2.64-1.83-2.64s-1.85,.75-1.85,2.64v1.51c0,1.89,.79,2.65,1.85,2.65s1.83-.76,1.83-2.65v-1.51Zm5.46-.81h-1.76v2.67h1.76v.73h-1.76v3.65h-.81v-10.15h.81v2.38h1.76v.73Z"/>
      <path class="cls-1" d="M241.71,99.73h4.92v.7h-9.89v-.7h4.15v-2.1h.81v2.1Zm1.11,1.89c1.74,0,2.65,.84,2.65,1.91s-.92,1.91-2.65,1.91h-2.27c-1.73,0-2.64-.82-2.64-1.91s.92-1.91,2.64-1.91h2.27Zm1.22-2.66c.23-1.06,.34-2.18,.34-2.7h-6.32v-.72h7.13v.53c0,.8-.13,1.91-.37,2.99l-.79-.11Zm-1.42,5.8c1.36,0,2.03-.5,2.03-1.23s-.66-1.21-2.03-1.21h-1.88c-1.36,0-2.03,.51-2.03,1.21s.66,1.23,2.03,1.23h1.88Z"/>
      <path class="cls-1" d="M252.95,100.05h4.53v.69h-9.89v-.69h4.54v-1.11h-3.16v-3.5h7.02v.68h-6.2v2.12h6.32v.69h-3.16v1.11Zm.74,1.78c1.73,0,2.63,.77,2.63,1.8s-.9,1.81-2.63,1.81h-2.31c-1.72,0-2.62-.76-2.62-1.81s.9-1.8,2.62-1.8h2.31Zm-.18,2.93c1.35,0,1.99-.45,1.99-1.12s-.64-1.1-1.99-1.1h-1.95c-1.35,0-1.99,.43-1.99,1.1s.64,1.12,1.99,1.12h1.95Z"/>
      <path class="cls-1" d="M266.55,95.19h.81v5.36h-.81v-2.37h-2.5v1.95h-5.05v-4.44h.79v1.47h3.47v-1.47h.79v1.78h2.5v-2.28Zm-6.75,4.22h3.47v-1.55h-3.47v1.55Zm6.75,3.07v-1.34h.81v4.2h-6.79v-4.2h.81v1.34h5.16Zm-5.16,2.15h5.16v-1.45h-5.16v1.45Z"/>
      <path class="cls-1" d="M272.19,97.45c0,.8-.08,1.56-.25,2.28l2.53,3.64-.65,.45-2.16-3.11c-.4,1.11-1.02,2.17-1.85,3.23l-.63-.48c1.44-1.82,2.24-3.56,2.24-6.01v-.67h-1.88v-.71h4.57v.71h-1.91v.67Zm3.07,1.62v-3.71h.79v9.8h-.79v-5.38h-1.87v-.71h1.87Zm2.28-3.87h.8v10.15h-.8v-10.15Z"/>
      <path class="cls-1" d="M283.67,103.22c1.02-.06,2.13-.14,3.08-.26l.09,.69c-1.54,.2-3.58,.34-5.09,.34h-1.74l-.03-.71h1.82c.31,0,.66-.01,1.05-.02v-1.41c-1.26-.11-2.17-.78-2.17-1.88v-.19c0-1.22,1.1-1.89,2.54-1.89s2.52,.67,2.52,1.89v.19c0,1.08-.87,1.74-2.06,1.87v1.39Zm2.56-6.73v.67h-6.08v-.67h2.63v-1.29h.82v1.29h2.62Zm-4.76,3.47c0,.77,.75,1.24,1.74,1.24s1.72-.47,1.72-1.24v-.15c0-.77-.74-1.25-1.72-1.25s-1.74,.48-1.74,1.25v.15Zm8.74-.68v.71h-1.65v5.36h-.81v-10.15h.81v4.08h1.65Z"/>
      <path class="cls-1" d="M146.39,132.81h4.53v.71h-9.89v-.71h4.54v-2.71h.81v2.71Zm-.64-5.13c-.68,.98-1.9,1.88-3.74,2.71l-.38-.68c2.71-1.23,3.99-2.55,3.99-4.13v-.8h.81v.8c0,.5-.1,.97-.31,1.43l4.2,2.73-.46,.65-4.12-2.71Z"/>
      <path class="cls-1" d="M157.86,126.79v-2.43h.79v9.8h-.79v-3.48h-1.98v-.7h1.98v-2.47h-1.76c-.42,2.16-1.66,4.03-3.38,5.56l-.58-.57c2.03-1.74,3.31-4.11,3.31-6.49v-.22h-3.11v-.71h3.93v.78c0,.32-.02,.64-.05,.95h1.65Zm2.28-2.6h.8v10.15h-.8v-10.15Z"/>
      <path class="cls-1" d="M147.83,156.02v2.99h-3.11v-2.99h3.11Z"/>
      <path class="cls-1" d="M161.66,157.91c-1.27,.21-2.96,.36-4.5,.36h-1.6v-4.53h.82v3.81h.93c1.25,0,2.91-.14,4.25-.33l.1,.69Zm-4.65,5.43v-3.93h6.58v3.93h-6.58Zm.82-3.22v2.51h4.93v-2.51h-4.93Zm7.51-4.65v.71h-1.75v2.51h-.82v-5.5h.82v2.28h1.75Z"/>
      <path class="cls-1" d="M175.99,159.09h-4.53v1.29h3.26v3.08h-.82v-2.38h-6.51v-.7h3.26v-1.29h-4.54v-.69h9.89v.69Zm-1.37-5.7v3.92h-7.13v-3.92h.81v1.3h5.49v-1.3h.82Zm-6.32,3.25h5.49v-1.28h-5.49v1.28Z"/>
      <path class="cls-1" d="M182.84,161.81h3.99v.73h-9.89v-.73h2.43v-4.2h.79v4.2h1.89v-4.2h.79v4.2Zm1.97-7.04h-6.75v-.72h7.56v.86c0,1.43-.25,3.37-.58,5.1l-.8-.14c.33-1.71,.57-3.67,.57-4.79v-.32Z"/>
      <path class="cls-1" d="M195.9,153.2h.82v5.71h-.82v-1.74h-2.43c-.43,.86-1.38,1.28-2.48,1.28-1.52,0-2.73-.78-2.73-2.38v-.22c0-1.6,1.21-2.38,2.73-2.38,1.03,0,1.92,.36,2.39,1.11h2.52v-1.39Zm-3.01,2.67c0-1.11-.8-1.69-1.9-1.69s-1.91,.58-1.91,1.69v.18c0,1.11,.8,1.69,1.91,1.69s1.9-.58,1.9-1.69v-.18Zm-3.07,4.47v-.71h6.9v3.82h-.82v-3.1h-6.08Zm6.08-3.84v-1.24h-2.24c.03,.19,.06,.38,.06,.59v.22c0,.15-.01,.3-.03,.43h2.22Z"/>
      <path class="cls-1" d="M203.27,156.07c0,1.58-.95,2.38-2.2,2.38s-2.22-.79-2.22-2.38v-.22c0-1.58,.95-2.38,2.22-2.38s2.2,.79,2.2,2.38v.22Zm-3.64-.02c0,1.1,.6,1.69,1.44,1.69s1.42-.59,1.42-1.69v-.18c0-1.1-.59-1.69-1.42-1.69s-1.44,.59-1.44,1.69v.18Zm1.14,4.29v-.71h6.94v3.82h-.82v-3.1h-6.11Zm6.15-7.14h.79v5.71h-.79v-2.62h-1.6v2.62h-.78v-5.61h.78v2.28h1.6v-2.38Z"/>
      <path class="cls-1" d="M209.16,164.3l4.01-11.49h.86l-4.01,11.49h-.86Z"/>
      <path class="cls-1" d="M224.54,159.09h-4.53v1.29h3.26v3.08h-.82v-2.38h-6.51v-.7h3.26v-1.29h-4.54v-.69h9.89v.69Zm-1.37-5.7v3.92h-7.13v-3.92h.81v1.3h5.49v-1.3h.82Zm-6.32,3.25h5.49v-1.28h-5.49v1.28Z"/>
      <path class="cls-1" d="M231.68,154.33v.68h-6.12v-.68h2.65v-1.28h.81v1.28h2.66Zm-.49,3.46c0,1.21-1.12,1.9-2.55,1.9s-2.56-.69-2.56-1.9v-.19c0-1.21,1.13-1.88,2.56-1.88s2.55,.67,2.55,1.88v.19Zm-4.3-.01c0,.75,.77,1.22,1.75,1.22s1.75-.47,1.75-1.22v-.15c0-.75-.78-1.22-1.75-1.22s-1.75,.47-1.75,1.22v.15Zm1.2,2.83v2.01h6.35v.72h-7.18v-2.73h.82Zm5.75-4.3h1.76v.74h-1.76v3.96h-.81v-7.81h.81v3.11Z"/>
      <path class="cls-1" d="M244.48,158.58h4.53v.69h-9.89v-.69h4.54v-1.16h.81v1.16Zm-4.53-1.51c2.43-.58,3.71-1.34,3.78-2.29h-3.22v-.69h3.2v-1.06h.8v1.06h3.12v.69h-3.12c-.01,.29-.08,.56-.22,.81l3.88,1.5-.31,.66-4.03-1.57c-.68,.63-1.87,1.13-3.65,1.57l-.24-.68Zm5.32,3.18c1.71,0,2.59,.64,2.59,1.6s-.88,1.59-2.59,1.59h-2.39c-1.71,0-2.59-.63-2.59-1.59s.88-1.6,2.59-1.6h2.39Zm-.19,2.52c1.33,0,1.96-.34,1.96-.92s-.63-.92-1.96-.92h-2c-1.34,0-1.97,.34-1.97,.92s.63,.92,1.97,.92h2Z"/>
      <path class="cls-1" d="M262.64,159.63v.71h-4.53v3.12h-.81v-3.12h-4.54v-.71h9.89Zm-1.27-5.9v4.27h-7.34v-4.27h7.34Zm-.82,3.56v-2.85h-5.7v2.85h5.7Z"/>
      <path class="cls-1" d="M271.7,153.2h.82v5.71h-.82v-1.74h-2.43c-.43,.86-1.38,1.28-2.48,1.28-1.52,0-2.73-.78-2.73-2.38v-.22c0-1.6,1.21-2.38,2.73-2.38,1.03,0,1.92,.36,2.39,1.11h2.52v-1.39Zm-3.01,2.67c0-1.11-.8-1.69-1.9-1.69s-1.91,.58-1.91,1.69v.18c0,1.11,.8,1.69,1.91,1.69s1.9-.58,1.9-1.69v-.18Zm-3.07,4.47v-.71h6.9v3.82h-.82v-3.1h-6.08Zm6.08-3.84v-1.24h-2.24c.03,.19,.06,.38,.06,.59v.22c0,.15-.01,.3-.03,.43h2.22Z"/>
      <path class="cls-1" d="M279.07,156.07c0,1.58-.95,2.38-2.2,2.38s-2.22-.79-2.22-2.38v-.22c0-1.58,.95-2.38,2.22-2.38s2.2,.79,2.2,2.38v.22Zm-3.64-.02c0,1.1,.6,1.69,1.44,1.69s1.42-.59,1.42-1.69v-.18c0-1.1-.59-1.69-1.42-1.69s-1.44,.59-1.44,1.69v.18Zm1.14,4.29v-.71h6.94v3.82h-.82v-3.1h-6.11Zm6.15-7.14h.79v5.71h-.79v-2.62h-1.6v2.62h-.78v-5.61h.78v2.28h1.6v-2.38Z"/>
      <path class="cls-1" d="M288.54,155.64c0-.34,.27-.62,.63-.62s.64,.28,.64,.62-.29,.61-.64,.61-.63-.26-.63-.61Zm0,5.39c0-.34,.27-.62,.63-.62s.64,.28,.64,.62-.29,.61-.64,.61-.63-.26-.63-.61Z"/>
      <path class="cls-1" d="M299.92,161.81h3.99v.73h-9.89v-.73h2.43v-4.2h.79v4.2h1.89v-4.2h.79v4.2Zm1.97-7.04h-6.75v-.72h7.56v.86c0,1.43-.25,3.37-.58,5.1l-.8-.14c.33-1.71,.57-3.67,.57-4.79v-.32Z"/>
      <path class="cls-1" d="M312.97,153.2h.82v5.71h-.82v-1.74h-2.43c-.43,.86-1.38,1.28-2.48,1.28-1.52,0-2.73-.78-2.73-2.38v-.22c0-1.6,1.21-2.38,2.73-2.38,1.03,0,1.92,.36,2.39,1.11h2.52v-1.39Zm-3.01,2.67c0-1.11-.8-1.69-1.9-1.69s-1.91,.58-1.91,1.69v.18c0,1.11,.8,1.69,1.91,1.69s1.9-.58,1.9-1.69v-.18Zm-3.07,4.47v-.71h6.9v3.82h-.82v-3.1h-6.08Zm6.08-3.84v-1.24h-2.24c.03,.19,.06,.38,.06,.59v.22c0,.15-.01,.3-.04,.43h2.22Z"/>
      <path class="cls-1" d="M325.6,159.73v.73h-4.53v3h-.81v-3h-4.54v-.73h9.89Zm-1.27-6.04v4.52h-7.33v-4.52h.81v1.57h5.7v-1.57h.82Zm-6.52,3.82h5.7v-1.53h-5.7v1.53Z"/>
      <path class="cls-1" d="M326.56,158.65h9.89v.73h-4.53v2.01h-.81v-2.01h-4.54v-.73Zm2.15,1.75v2.22h6.64v.73h-7.46v-2.95h.82Zm6.36-6.95v3.96h-7.13v-3.96h7.13Zm-.82,3.25v-2.54h-5.49v2.54h5.49Z"/>
      <path class="cls-1" d="M147.83,185.02v2.99h-3.11v-2.99h3.11Z"/>
      <path class="cls-1" d="M161.43,183.33v.68h-6.12v-.68h2.65v-1.28h.81v1.28h2.66Zm-.49,3.46c0,1.21-1.12,1.9-2.55,1.9s-2.56-.69-2.56-1.9v-.19c0-1.21,1.13-1.88,2.56-1.88s2.55,.67,2.55,1.88v.19Zm-4.3-.01c0,.75,.77,1.22,1.75,1.22s1.75-.47,1.75-1.22v-.15c0-.75-.78-1.22-1.75-1.22s-1.75,.47-1.75,1.22v.15Zm1.2,2.83v2.01h6.35v.72h-7.18v-2.73h.82Zm5.75-4.3h1.76v.74h-1.76v3.96h-.81v-7.81h.81v3.11Z"/>
      <path class="cls-1" d="M175.99,187.08h-4.53v1.66h3.26v3.72h-.82v-3.01h-6.51v-.7h3.26v-1.66h-4.54v-.7h7.22c.21-1.18,.33-2.39,.33-3.01v-.09h-6.31v-.72h7.12v.63c0,.88-.13,2.05-.33,3.19h1.85v.7Z"/>
      <path class="cls-1" d="M177.08,190.67l-.05-.73h1.92c1.3,0,3.42-.12,5.08-.32l.09,.69c-1.59,.22-3.66,.35-5.22,.35h-1.83Zm.56-5.07v-.23c0-1.78,1.24-2.63,2.77-2.63s2.76,.85,2.76,2.63v.23c0,1.78-1.25,2.63-2.76,2.63s-2.77-.85-2.77-2.63Zm4.7-.01v-.21c0-1.28-.82-1.93-1.93-1.93s-1.95,.65-1.95,1.93v.21c0,1.26,.82,1.91,1.95,1.91s1.93-.65,1.93-1.91Zm2.7,6.75v-10.15h.81v10.15h-.81Z"/>
      <path class="cls-1" d="M192.39,189.94c1.02,0,2.01-.07,3.14-.23l.09,.7c-1.05,.18-2.08,.24-3.35,.24h-1.26v-7.65h3.89v.73h-3.07v6.21h.56Zm6.44-7.75h.8v10.15h-.8v-5.46h-1.64v5.27h-.79v-9.8h.79v3.81h1.64v-3.97Z"/>
      <path class="cls-1" d="M211.31,188.09h-4.53v1.29h3.26v3.08h-.82v-2.38h-6.51v-.7h3.26v-1.29h-4.54v-.69h9.89v.69Zm-1.37-5.7v3.92h-7.13v-3.92h.81v1.3h5.49v-1.3h.82Zm-6.32,3.25h5.49v-1.28h-5.49v1.28Z"/>
      <path class="cls-1" d="M222.16,188.85v.7h-4.53v2.92h-.81v-2.92h-4.54v-.7h9.89Zm-1.04-1.95v.67h-7.56v-4.84h7.34v.69h-6.52v1.38h6.52v.68h-6.52v1.42h6.75Z"/>
      <path class="cls-1" d="M226.53,184.36c0,.81-.1,1.57-.31,2.3l3.12,3.64-.63,.53-2.8-3.29c-.5,1.19-1.29,2.29-2.37,3.4l-.6-.53c1.74-1.8,2.78-3.54,2.78-6.05v-.58h-2.37v-.71h5.56v.71h-2.39v.58Zm6.67,1.8v.73h-1.75v5.46h-.81v-10.15h.81v3.97h1.75Z"/>
      <path class="cls-1" d="M238.59,185.07c0,1.58-.95,2.38-2.2,2.38s-2.22-.79-2.22-2.38v-.22c0-1.58,.95-2.38,2.22-2.38s2.2,.79,2.2,2.38v.22Zm-3.64-.02c0,1.1,.6,1.69,1.44,1.69s1.42-.59,1.42-1.69v-.18c0-1.1-.59-1.69-1.42-1.69s-1.44,.59-1.44,1.69v.18Zm1.14,4.29v-.71h6.94v3.82h-.82v-3.1h-6.11Zm6.15-7.14h.79v5.71h-.79v-2.62h-1.6v2.62h-.78v-5.61h.78v2.28h1.6v-2.38Z"/>
      <path class="cls-1" d="M244.48,193.3l4.01-11.49h.86l-4.01,11.49h-.86Z"/>
      <path class="cls-1" d="M259.86,188.09h-4.53v1.29h3.26v3.08h-.82v-2.38h-6.51v-.7h3.26v-1.29h-4.54v-.69h9.89v.69Zm-1.37-5.7v3.92h-7.13v-3.92h.81v1.3h5.49v-1.3h.82Zm-6.32,3.25h5.49v-1.28h-5.49v1.28Z"/>
      <path class="cls-1" d="M267,183.33v.68h-6.12v-.68h2.65v-1.28h.81v1.28h2.66Zm-.49,3.46c0,1.21-1.12,1.9-2.55,1.9s-2.56-.69-2.56-1.9v-.19c0-1.21,1.13-1.88,2.56-1.88s2.55,.67,2.55,1.88v.19Zm-4.3-.01c0,.75,.77,1.22,1.75,1.22s1.75-.47,1.75-1.22v-.15c0-.75-.78-1.22-1.75-1.22s-1.75,.47-1.75,1.22v.15Zm1.2,2.83v2.01h6.35v.72h-7.18v-2.73h.82Zm5.75-4.3h1.76v.74h-1.76v3.96h-.81v-7.81h.81v3.11Z"/>
      <path class="cls-1" d="M284.33,187.08h-4.53v1.66h3.26v3.72h-.82v-3.01h-6.51v-.7h3.26v-1.66h-4.54v-.7h7.22c.21-1.18,.33-2.39,.33-3.01v-.09h-6.31v-.72h7.12v.63c0,.88-.13,2.05-.33,3.19h1.85v.7Z"/>
      <path class="cls-1" d="M285.86,187.81v-5.02h5.06v5.02h-5.06Zm.8-.7h3.46v-3.61h-3.46v3.61Zm.78,5.24v-3.09h.81v2.37h6.47v.73h-7.28Zm5.96-2.44v-7.71h.82v7.71h-.82Z"/>
      <path class="cls-1" d="M301.5,190.81h4.53v.71h-9.89v-.71h4.54v-2.71h.81v2.71Zm-.64-5.13c-.68,.98-1.9,1.88-3.74,2.71l-.38-.68c2.71-1.23,3.99-2.55,3.99-4.13v-.8h.81v.8c0,.5-.1,.97-.31,1.43l4.2,2.73-.46,.65-4.12-2.71Z"/>
      <path class="cls-1" d="M306.99,187.88v-.69h9.89v.69h-9.89Zm7.79,4.58v-2.57h-6.51v-.73h7.34v3.3h-.82Zm.61-10.01v.68h-6.2v2.19h6.32v.68h-7.13v-3.55h7.02Z"/>
      <path class="cls-1" d="M321.08,184.64c0-.34,.27-.62,.63-.62s.64,.28,.64,.62-.29,.61-.64,.61-.63-.26-.63-.61Zm0,5.39c0-.34,.27-.62,.63-.62s.64,.28,.64,.62-.29,.61-.64,.61-.63-.26-.63-.61Z"/>
      <path class="cls-1" d="M336.45,188.85v.7h-4.53v2.92h-.81v-2.92h-4.54v-.7h9.89Zm-1.04-1.95v.67h-7.56v-4.84h7.33v.69h-6.52v1.38h6.52v.68h-6.52v1.42h6.75Z"/>
      <path class="cls-1" d="M340.82,184.36c0,.81-.1,1.57-.31,2.3l3.12,3.64-.63,.53-2.8-3.29c-.5,1.19-1.29,2.29-2.37,3.4l-.6-.53c1.74-1.8,2.78-3.54,2.78-6.05v-.58h-2.37v-.71h5.56v.71h-2.39v.58Zm6.67,1.8v.73h-1.75v5.46h-.81v-10.15h.81v3.97h1.75Z"/>
      <path class="cls-1" d="M358.15,188.73v.73h-4.53v3h-.81v-3h-4.54v-.73h9.89Zm-1.27-6.04v4.52h-7.33v-4.52h.81v1.57h5.7v-1.57h.82Zm-6.52,3.82h5.7v-1.53h-5.7v1.53Z"/>
      <path class="cls-1" d="M359.1,187.65h9.89v.73h-4.53v2.01h-.81v-2.01h-4.54v-.73Zm2.15,1.75v2.22h6.64v.73h-7.46v-2.95h.82Zm6.36-6.95v3.96h-7.13v-3.96h7.13Zm-.82,3.25v-2.54h-5.49v2.54h5.49Z"/>
      <path class="cls-1" d="M147.83,214.02v2.99h-3.11v-2.99h3.11Z"/>
      <path class="cls-1" d="M161.66,215.91c-1.27,.21-2.96,.36-4.5,.36h-1.6v-4.53h.82v3.81h.93c1.25,0,2.91-.14,4.25-.33l.1,.69Zm-4.65,5.43v-3.93h6.58v3.93h-6.58Zm.82-3.22v2.51h4.93v-2.51h-4.93Zm7.51-4.65v.71h-1.75v2.51h-.82v-5.5h.82v2.28h1.75Z"/>
      <path class="cls-1" d="M172.28,212.33v.68h-6.12v-.68h2.65v-1.28h.81v1.28h2.66Zm-.49,3.46c0,1.21-1.12,1.9-2.55,1.9s-2.56-.69-2.56-1.9v-.19c0-1.21,1.13-1.88,2.56-1.88s2.55,.67,2.55,1.88v.19Zm-4.3-.01c0,.75,.77,1.22,1.75,1.22s1.75-.47,1.75-1.22v-.15c0-.75-.78-1.22-1.75-1.22s-1.75,.47-1.75,1.22v.15Zm1.2,2.83v2.01h6.35v.72h-7.18v-2.73h.82Zm5.75-4.3h1.76v.74h-1.76v3.96h-.81v-7.81h.81v3.11Z"/>
      <path class="cls-1" d="M177.67,212.78v-.71h4.99v.78c0,2.87-1.79,5.38-4.67,7.22l-.48-.62c2.68-1.67,4.33-4.07,4.33-6.45v-.22h-4.17Zm7.39-1.58h.81v10.15h-.81v-10.15Z"/>
      <path class="cls-1" d="M195.9,211.19h.82v5.3h-.82v-2.31h-2.17c-.14,1.33-1.3,2-2.72,2-1.52,0-2.75-.76-2.75-2.27v-.19c0-1.52,1.22-2.27,2.75-2.27,1.42,0,2.59,.66,2.72,2h2.17v-2.28Zm-2.98,2.55c0-1.02-.81-1.56-1.92-1.56s-1.92,.54-1.92,1.56v.17c0,1.01,.8,1.56,1.92,1.56s1.92-.55,1.92-1.56v-.17Zm2.98,4.71v-1.35h.82v4.25h-6.79v-4.25h.81v1.35h5.15Zm-5.15,2.18h5.15v-1.47h-5.15v1.47Z"/>
      <path class="cls-1" d="M199.1,216.63v-1.52c0-2.41,1.22-3.37,2.71-3.37s2.71,.96,2.71,3.37v1.52c0,2.41-1.22,3.37-2.71,3.37s-2.71-.96-2.71-3.37Zm4.61-.01v-1.51c0-1.89-.81-2.64-1.9-2.64s-1.89,.75-1.89,2.64v1.51c0,1.89,.8,2.65,1.89,2.65s1.9-.76,1.9-2.65Zm3.03,4.73v-10.15h.82v10.15h-.82Z"/>
      <path class="cls-1" d="M216.9,219.81h5.25v.73h-9.89v-.73h3.82v-4.3h.81v4.3Zm3.23-7.04h-6.75v-.72h7.56v.86c0,1.43-.25,3.37-.58,5.1l-.8-.14c.33-1.71,.57-3.67,.57-4.79v-.32Z"/>
      <path class="cls-1" d="M230.14,216.11h2.86v.69h-9.89v-.69h2.87v-1.25c-1.04-.25-1.65-.81-1.65-1.69,0-1.22,1.16-1.83,2.99-1.83h1.48c1.83,0,2.99,.61,2.99,1.83,0,.88-.61,1.44-1.65,1.69v1.25Zm-.93,1.73c1.73,0,2.63,.77,2.63,1.8s-.9,1.81-2.63,1.81h-2.31c-1.72,0-2.62-.77-2.62-1.81s.9-1.8,2.62-1.8h2.31Zm-.18,2.92c1.35,0,1.99-.44,1.99-1.11s-.64-1.1-1.99-1.1h-1.95c-1.35,0-1.99,.43-1.99,1.1s.64,1.11,1.99,1.11h1.95Zm-1.57-6.44h1.2c1.49,0,2.3-.43,2.3-1.16s-.81-1.13-2.3-1.13h-1.2c-1.5,0-2.31,.4-2.31,1.13s.81,1.16,2.31,1.16Zm-.69,1.79h2.58v-1.14c-.17,.03-2.4,.03-2.58,0v1.14Z"/>
      <path class="cls-1" d="M240.14,212.33v.68h-6.12v-.68h2.65v-1.28h.81v1.28h2.66Zm-.49,3.46c0,1.21-1.12,1.9-2.55,1.9s-2.56-.69-2.56-1.9v-.19c0-1.21,1.13-1.88,2.56-1.88s2.55,.67,2.55,1.88v.19Zm-4.3-.01c0,.75,.77,1.22,1.75,1.22s1.75-.47,1.75-1.22v-.15c0-.75-.78-1.22-1.75-1.22s-1.75,.47-1.75,1.22v.15Zm1.2,2.83v2.01h6.35v.72h-7.18v-2.73h.82Zm5.75-4.3h1.76v.74h-1.76v3.96h-.81v-7.81h.81v3.11Z"/>
      <path class="cls-1" d="M257.48,217.09h-4.53v1.29h3.26v3.08h-.82v-2.38h-6.51v-.7h3.26v-1.29h-4.54v-.69h9.89v.69Zm-1.37-5.7v3.92h-7.13v-3.92h.81v1.3h5.49v-1.3h.82Zm-6.32,3.25h5.49v-1.28h-5.49v1.28Z"/>
      <path class="cls-1" d="M264.62,212.33v.68h-6.12v-.68h2.65v-1.28h.81v1.28h2.66Zm-.49,3.46c0,1.21-1.12,1.9-2.55,1.9s-2.56-.69-2.56-1.9v-.19c0-1.21,1.13-1.88,2.56-1.88s2.55,.67,2.55,1.88v.19Zm-4.3-.01c0,.75,.77,1.22,1.75,1.22s1.75-.47,1.75-1.22v-.15c0-.75-.78-1.22-1.75-1.22s-1.75,.47-1.75,1.22v.15Zm1.2,2.83v2.01h6.35v.72h-7.18v-2.73h.82Zm5.75-4.3h1.76v.74h-1.76v3.96h-.81v-7.81h.81v3.11Z"/>
      <path class="cls-1" d="M277.42,219.81h4.53v.73h-9.89v-.73h4.54v-2.66h-3.26v-5.2h.81v4.49h6.6v.71h-3.34v2.66Z"/>
      <path class="cls-1" d="M288.27,216.05h4.53v.69h-9.89v-.69h4.54v-1.11h-3.16v-3.5h7.02v.68h-6.2v2.12h6.32v.69h-3.16v1.11Zm.74,1.78c1.73,0,2.63,.77,2.63,1.8s-.9,1.81-2.63,1.81h-2.31c-1.72,0-2.62-.76-2.62-1.81s.9-1.8,2.62-1.8h2.31Zm-.18,2.93c1.35,0,1.99-.45,1.99-1.12s-.64-1.1-1.99-1.1h-1.95c-1.35,0-1.99,.43-1.99,1.1s.64,1.12,1.99,1.12h1.95Z"/>
      <path class="cls-1" d="M297.17,213.36c0,.81-.1,1.57-.31,2.3l3.12,3.64-.63,.53-2.8-3.29c-.5,1.19-1.29,2.29-2.37,3.4l-.6-.53c1.74-1.8,2.78-3.54,2.78-6.05v-.58h-2.37v-.71h5.56v.71h-2.39v.58Zm6.67,1.8v.73h-1.75v5.46h-.81v-10.15h.81v3.97h1.75Z"/>
      <path class="cls-1" d="M304.74,219.67l-.05-.73h1.92c1.3,0,3.42-.12,5.08-.32l.09,.69c-1.59,.22-3.66,.35-5.22,.35h-1.83Zm.56-5.07v-.23c0-1.78,1.24-2.63,2.77-2.63s2.76,.85,2.76,2.63v.23c0,1.78-1.25,2.63-2.76,2.63s-2.77-.85-2.77-2.63Zm4.7-.01v-.21c0-1.28-.82-1.93-1.93-1.93s-1.95,.65-1.95,1.93v.21c0,1.26,.82,1.91,1.95,1.91s1.93-.65,1.93-1.91Zm2.7,6.75v-10.15h.81v10.15h-.81Z"/>
      <path class="cls-1" d="M328.12,217.54v.73h-4.53v3.19h-.81v-3.19h-4.54v-.73h9.89Zm-5.2-3.53c-.68,.85-1.88,1.59-3.65,2.28l-.33-.69c2.61-.99,3.88-2.16,3.88-3.51v-.67h.81v.67c0,.44-.09,.87-.29,1.28l4.05,2.25-.39,.67-4.08-2.28Z"/>
      <path class="cls-1" d="M331.53,222.3l4.01-11.49h.86l-4.01,11.49h-.86Z"/>
      <path class="cls-1" d="M343.43,215.91c-1.27,.21-2.96,.36-4.5,.36h-1.6v-4.53h.82v3.81h.93c1.25,0,2.91-.14,4.25-.33l.1,.69Zm-4.65,5.43v-3.93h6.58v3.93h-6.58Zm.82-3.22v2.51h4.93v-2.51h-4.93Zm7.51-4.65v.71h-1.75v2.51h-.82v-5.5h.82v2.28h1.75Z"/>
      <path class="cls-1" d="M354.05,212.33v.68h-6.12v-.68h2.66v-1.28h.81v1.28h2.65Zm-.49,3.46c0,1.21-1.12,1.9-2.55,1.9s-2.56-.69-2.56-1.9v-.19c0-1.21,1.13-1.88,2.56-1.88s2.55,.67,2.55,1.88v.19Zm-4.3-.01c0,.75,.77,1.22,1.75,1.22s1.75-.47,1.75-1.22v-.15c0-.75-.78-1.22-1.75-1.22s-1.75,.47-1.75,1.22v.15Zm1.2,2.83v2.01h6.35v.72h-7.18v-2.73h.82Zm5.74-4.3h1.76v.74h-1.76v3.96h-.81v-7.81h.81v3.11Z"/>
      <path class="cls-1" d="M359.44,212.78v-.71h4.99v.78c0,2.87-1.79,5.38-4.67,7.22l-.48-.62c2.68-1.67,4.33-4.07,4.33-6.45v-.22h-4.17Zm7.39-1.58h.81v10.15h-.81v-10.15Z"/>
      <path class="cls-1" d="M377.67,211.19h.82v5.3h-.82v-2.31h-2.17c-.14,1.33-1.3,2-2.72,2-1.52,0-2.75-.76-2.75-2.27v-.19c0-1.52,1.22-2.27,2.75-2.27,1.42,0,2.59,.66,2.72,2h2.17v-2.28Zm-2.98,2.55c0-1.02-.81-1.56-1.92-1.56s-1.92,.54-1.92,1.56v.17c0,1.01,.8,1.56,1.92,1.56s1.92-.55,1.92-1.56v-.17Zm2.98,4.71v-1.35h.82v4.25h-6.79v-4.25h.81v1.35h5.15Zm-5.15,2.18h5.15v-1.47h-5.15v1.47Z"/>
      <path class="cls-1" d="M380.87,216.63v-1.52c0-2.41,1.22-3.37,2.71-3.37s2.71,.96,2.71,3.37v1.52c0,2.41-1.22,3.37-2.71,3.37s-2.71-.96-2.71-3.37Zm4.61-.01v-1.51c0-1.89-.81-2.64-1.9-2.64s-1.89,.75-1.89,2.64v1.51c0,1.89,.8,2.65,1.89,2.65s1.9-.76,1.9-2.65Zm3.03,4.73v-10.15h.82v10.15h-.82Z"/>
      <path class="cls-1" d="M398.67,219.81h5.25v.73h-9.89v-.73h3.82v-4.3h.81v4.3Zm3.23-7.04h-6.75v-.72h7.56v.86c0,1.43-.25,3.37-.58,5.1l-.8-.14c.33-1.71,.57-3.67,.57-4.79v-.32Z"/>
      <path class="cls-1" d="M411.91,216.11h2.86v.69h-9.89v-.69h2.87v-1.25c-1.04-.25-1.65-.81-1.65-1.69,0-1.22,1.16-1.83,2.99-1.83h1.48c1.83,0,2.99,.61,2.99,1.83,0,.88-.61,1.44-1.65,1.69v1.25Zm-.93,1.73c1.73,0,2.63,.77,2.63,1.8s-.9,1.81-2.63,1.81h-2.31c-1.72,0-2.62-.77-2.62-1.81s.9-1.8,2.62-1.8h2.31Zm-.18,2.92c1.35,0,1.99-.44,1.99-1.11s-.64-1.1-1.99-1.1h-1.95c-1.35,0-1.99,.43-1.99,1.1s.64,1.11,1.99,1.11h1.95Zm-1.57-6.44h1.2c1.49,0,2.3-.43,2.3-1.16s-.81-1.13-2.3-1.13h-1.2c-1.5,0-2.31,.4-2.31,1.13s.81,1.16,2.31,1.16Zm-.69,1.79h2.58v-1.14c-.17,.03-2.4,.03-2.58,0v1.14Z"/>
      <path class="cls-1" d="M416.14,212.78v-.71h4.86v.78c0,2.87-1.74,5.37-4.54,7.22l-.49-.62c2.61-1.68,4.22-4.07,4.22-6.45v-.22h-4.05Zm9.68,2.39v.73h-1.75v5.46h-.82v-10.15h.82v3.97h1.75Z"/>
      <path class="cls-1" d="M426.58,216.7v-.7h9.89v.7h-9.89Zm3.79,4.75c-1.72,0-2.62-.76-2.62-1.81s.9-1.8,2.62-1.8h2.31c1.73,0,2.63,.77,2.63,1.8s-.9,1.81-2.63,1.81h-2.31Zm4.81-7.24v.73h-7.21v-3.5h.81v2.77h6.4Zm-2.68,6.55c1.35,0,1.99-.45,1.99-1.12s-.64-1.1-1.99-1.1h-1.95c-1.35,0-1.99,.43-1.99,1.1s.64,1.12,1.99,1.12h1.95Z"/>
      <path class="cls-1" d="M443.61,212.33v.68h-6.12v-.68h2.66v-1.28h.81v1.28h2.65Zm-.49,3.46c0,1.21-1.12,1.9-2.55,1.9s-2.56-.69-2.56-1.9v-.19c0-1.21,1.13-1.88,2.56-1.88s2.55,.67,2.55,1.88v.19Zm-4.3-.01c0,.75,.77,1.22,1.75,1.22s1.75-.47,1.75-1.22v-.15c0-.75-.78-1.22-1.75-1.22s-1.75,.47-1.75,1.22v.15Zm1.2,2.83v2.01h6.35v.72h-7.18v-2.73h.82Zm5.74-4.3h1.76v.74h-1.76v3.96h-.81v-7.81h.81v3.11Z"/>
      <path class="cls-1" d="M454.91,219c1.06-.05,2.23-.14,3.24-.27l.09,.7c-1.59,.21-3.66,.35-5.22,.35h-1.83l-.05-.73h1.92c.3,0,.64-.01,1.02-.02v-1.86h.82v1.83Zm-3.58-2.16c1.75-1.01,2.78-2.09,2.78-3.54h-2.43v-.7h2.44v-1.4h.81v1.4h2.44v.7h-2.44c0,.46-.08,.9-.24,1.3l3.04,2.13-.45,.65-2.94-2.09c-.54,.81-1.42,1.53-2.62,2.2l-.4-.65Zm7.83-5.65h.81v10.15h-.81v-10.15Z"/>
      <path class="cls-1" d="M463.72,218.94c1.02,0,2.01-.07,3.14-.23l.09,.7c-1.05,.18-2.08,.24-3.35,.24h-1.26v-7.65h3.89v.73h-3.07v6.21h.56Zm6.44-7.75h.8v10.15h-.8v-5.46h-1.64v5.27h-.79v-9.8h.79v3.81h1.64v-3.97Z"/>
      <path class="cls-1" d="M485.42,217.09h-4.53v1.29h3.26v3.08h-.82v-2.38h-6.51v-.7h3.26v-1.29h-4.54v-.69h9.89v.69Zm-1.37-5.7v3.92h-7.13v-3.92h.81v1.3h5.49v-1.3h.82Zm-6.32,3.25h5.49v-1.28h-5.49v1.28Z"/>
      <path class="cls-1" d="M492.55,212.33v.68h-6.12v-.68h2.66v-1.28h.81v1.28h2.65Zm-.49,3.46c0,1.21-1.12,1.9-2.55,1.9s-2.56-.69-2.56-1.9v-.19c0-1.21,1.13-1.88,2.56-1.88s2.55,.67,2.55,1.88v.19Zm-4.3-.01c0,.75,.77,1.22,1.75,1.22s1.75-.47,1.75-1.22v-.15c0-.75-.78-1.22-1.75-1.22s-1.75,.47-1.75,1.22v.15Zm1.2,2.83v2.01h6.35v.72h-7.18v-2.73h.82Zm5.74-4.3h1.76v.74h-1.76v3.96h-.81v-7.81h.81v3.11Z"/>
      <path class="cls-1" d="M505.36,219.81h4.53v.73h-9.89v-.73h4.54v-2.66h-3.26v-5.2h.81v4.49h6.6v.71h-3.34v2.66Z"/>
      <path class="cls-1" d="M516.21,216.05h4.53v.69h-9.89v-.69h4.54v-1.11h-3.16v-3.5h7.02v.68h-6.2v2.12h6.32v.69h-3.16v1.11Zm.74,1.78c1.73,0,2.63,.77,2.63,1.8s-.9,1.81-2.63,1.81h-2.31c-1.72,0-2.62-.76-2.62-1.81s.9-1.8,2.62-1.8h2.31Zm-.18,2.93c1.35,0,1.99-.45,1.99-1.12s-.64-1.1-1.99-1.1h-1.95c-1.35,0-1.99,.43-1.99,1.1s.64,1.12,1.99,1.12h1.95Z"/>
      <path class="cls-1" d="M525.11,213.36c0,.81-.1,1.57-.31,2.3l3.12,3.64-.63,.53-2.8-3.29c-.5,1.19-1.29,2.29-2.37,3.4l-.6-.53c1.74-1.8,2.78-3.54,2.78-6.05v-.58h-2.37v-.71h5.56v.71h-2.39v.58Zm6.67,1.8v.73h-1.75v5.46h-.81v-10.15h.81v3.97h1.75Z"/>
      <path class="cls-1" d="M539.96,219.81h5.25v.73h-9.89v-.73h3.82v-4.3h.81v4.3Zm3.23-7.04h-6.75v-.72h7.56v.86c0,1.43-.25,3.37-.58,5.1l-.8-.14c.33-1.71,.57-3.67,.57-4.79v-.32Z"/>
      <path class="cls-1" d="M553.2,216.11h2.86v.69h-9.89v-.69h2.87v-1.25c-1.04-.25-1.65-.81-1.65-1.69,0-1.22,1.16-1.83,2.99-1.83h1.48c1.83,0,2.99,.61,2.99,1.83,0,.88-.61,1.44-1.65,1.69v1.25Zm-.93,1.73c1.73,0,2.63,.77,2.63,1.8s-.9,1.81-2.63,1.81h-2.31c-1.72,0-2.62-.77-2.62-1.81s.9-1.8,2.62-1.8h2.31Zm-.18,2.92c1.35,0,1.99-.44,1.99-1.11s-.64-1.1-1.99-1.1h-1.95c-1.35,0-1.99,.43-1.99,1.1s.64,1.11,1.99,1.11h1.95Zm-1.57-6.44h1.2c1.49,0,2.3-.43,2.3-1.16s-.81-1.13-2.3-1.13h-1.2c-1.5,0-2.31,.4-2.31,1.13s.81,1.16,2.31,1.16Zm-.69,1.79h2.58v-1.14c-.17,.03-2.4,.03-2.58,0v1.14Z"/>
      <path class="cls-1" d="M566.91,217.54v.73h-4.53v3.19h-.81v-3.19h-4.54v-.73h9.89Zm-5.2-3.53c-.68,.85-1.88,1.59-3.65,2.28l-.33-.69c2.61-.99,3.88-2.16,3.88-3.51v-.67h.81v.67c0,.44-.09,.87-.29,1.28l4.05,2.25-.39,.67-4.08-2.28Z"/>
      <path class="cls-1" d="M571.12,213.64c0-.34,.27-.62,.63-.62s.64,.28,.64,.62-.29,.61-.64,.61-.63-.26-.63-.61Zm0,5.39c0-.34,.27-.62,.63-.62s.64,.28,.64,.62-.29,.61-.64,.61-.63-.26-.63-.61Z"/>
      <path class="cls-1" d="M581.95,219.81h4.53v.73h-9.89v-.73h4.54v-2.66h-3.26v-5.2h.81v4.49h6.6v.71h-3.34v2.66Z"/>
      <path class="cls-1" d="M592.8,216.05h4.53v.69h-9.89v-.69h4.54v-1.11h-3.16v-3.5h7.02v.68h-6.2v2.12h6.32v.69h-3.16v1.11Zm.74,1.78c1.73,0,2.63,.77,2.63,1.8s-.9,1.81-2.63,1.81h-2.31c-1.72,0-2.62-.76-2.62-1.81s.9-1.8,2.62-1.8h2.31Zm-.18,2.93c1.35,0,1.99-.45,1.99-1.12s-.64-1.1-1.99-1.1h-1.95c-1.35,0-1.99,.43-1.99,1.1s.64,1.12,1.99,1.12h1.95Z"/>
      <path class="cls-1" d="M608.18,217.73v.73h-4.53v3h-.81v-3h-4.54v-.73h9.89Zm-1.27-6.04v4.52h-7.33v-4.52h.81v1.57h5.7v-1.57h.82Zm-6.52,3.82h5.7v-1.53h-5.7v1.53Z"/>
      <path class="cls-1" d="M609.14,216.65h9.89v.73h-4.53v2.01h-.81v-2.01h-4.54v-.73Zm2.15,1.75v2.22h6.64v.73h-7.46v-2.95h.82Zm6.36-6.95v3.96h-7.13v-3.96h7.13Zm-.82,3.25v-2.54h-5.49v2.54h5.49Z"/>
      <path class="cls-1" d="M147.83,243.02v2.99h-3.11v-2.99h3.11Z"/>
      <path class="cls-1" d="M161.96,246.1c-1.54,.22-3.58,.34-5.09,.34h-1.74l-.03-.72h1.82c.18,0,.39,0,.61-.01v-2.62h.82v2.6c1.12-.05,2.43-.15,3.52-.29l.09,.69Zm-1.8-4.65h-4.34v-.69h5.15v.53c0,1.07-.16,2.24-.38,3.37l-.79-.12c.23-1.11,.35-2.29,.35-3v-.08Zm-2.33,6.24v1.94h6.47v.73h-7.28v-2.66h.81Zm5.86-4.27h1.65v.74h-1.65v3.91h-.81v-7.87h.81v3.22Z"/>
      <path class="cls-1" d="M169.01,242.12c0,.87-.09,1.68-.26,2.46l2.5,3.77-.66,.46-2.13-3.22c-.4,1.18-1.03,2.28-1.89,3.34l-.61-.51c1.48-1.84,2.25-3.8,2.25-6.32v-1.3h.8v1.3Zm3.07,1.73v-3.49h.79v9.8h-.79v-5.59h-1.87v-.73h1.87Zm2.28-3.65h.8v10.15h-.8v-10.15Z"/>
      <path class="cls-1" d="M180.12,243.62c-.53,.8-1.4,1.51-2.62,2.18l-.4-.63c1.81-1.03,2.83-2.08,2.83-3.58v-.15h-2.4v-.7h5.63v.7h-2.43v.15c0,.5-.08,.95-.25,1.38l3.09,2.02-.42,.65-3.02-2.02Zm3.43,2.74c1.56,0,2.47,.9,2.47,2.05s-.92,2.04-2.47,2.04h-2.22c-1.56,0-2.47-.88-2.47-2.04s.92-2.05,2.47-2.05h2.22Zm-.16,3.38c1.22,0,1.81-.57,1.81-1.34s-.58-1.33-1.81-1.33h-1.9c-1.22,0-1.82,.59-1.82,1.33s.6,1.34,1.82,1.34h1.9Zm-.62-7.23h2.28v-2.31h.81v5.54h-.81v-2.54h-2.28v-.69Z"/>
      <path class="cls-1" d="M193.15,248.81h4.53v.73h-9.89v-.73h4.54v-2.66h-3.26v-5.2h7.23v.71h-6.42v3.78h6.52v.7h-3.26v2.66Z"/>
      <path class="cls-1" d="M202.12,247.89c1.03-.04,2.16-.13,3.14-.25l.09,.69c-1.54,.21-3.58,.34-5.09,.34h-1.74l-.03-.73h1.82c.3,0,.63-.01,1-.02v-1.72c-1.33-.12-2.36-.98-2.36-2.61v-.23c0-1.78,1.22-2.63,2.71-2.63s2.71,.85,2.71,2.63v.23c0,1.58-.97,2.43-2.24,2.6v1.69Zm-2.36-4.3c0,1.26,.8,1.91,1.89,1.91s1.89-.65,1.89-1.91v-.21c0-1.28-.8-1.93-1.89-1.93s-1.89,.65-1.89,1.93v.21Zm8.96,.68v.71h-1.65v5.36h-.81v-10.15h.81v4.08h1.65Z"/>
      <path class="cls-1" d="M217.08,243.91v-3.01h.81v7.78h-5.05v-7.78h.8v3.01h3.43Zm-3.43,4.04h3.43v-3.32h-3.43v3.32Zm6.74-7.76h.81v10.15h-.81v-10.15Z"/>
      <path class="cls-1" d="M229.82,246.1c-1.54,.22-3.58,.34-5.09,.34h-1.74l-.03-.72h1.82c.18,0,.39,0,.61-.01v-2.62h.82v2.6c1.12-.05,2.43-.15,3.52-.29l.09,.69Zm-1.8-4.65h-4.34v-.69h5.15v.53c0,1.07-.16,2.24-.38,3.37l-.79-.12c.23-1.11,.35-2.29,.35-3v-.08Zm-2.33,6.24v1.94h6.47v.73h-7.28v-2.66h.81Zm5.86-4.27h1.65v.74h-1.65v3.91h-.81v-7.87h.81v3.22Z"/>
      <path class="cls-1" d="M236.87,242.12c0,.87-.09,1.68-.26,2.46l2.5,3.77-.66,.46-2.13-3.22c-.4,1.18-1.03,2.28-1.89,3.34l-.61-.51c1.48-1.84,2.25-3.8,2.25-6.32v-1.3h.8v1.3Zm3.07,1.73v-3.49h.79v9.8h-.79v-5.59h-1.87v-.73h1.87Zm2.28-3.65h.8v10.15h-.8v-10.15Z"/>
      <path class="cls-1" d="M247.65,243.59c-.52,.81-1.37,1.54-2.6,2.21l-.4-.63c1.77-1.03,2.77-2.1,2.77-3.58v-.15h-2.37v-.7h5.56v.7h-2.39v.15c0,.47-.08,.91-.24,1.33l3.06,2.02-.43,.64-2.95-2Zm3.3,2.77c1.54,0,2.46,.9,2.46,2.05s-.92,2.04-2.46,2.04h-2.14c-1.53,0-2.46-.88-2.46-2.04s.93-2.05,2.46-2.05h2.14Zm-.16,3.38c1.21,0,1.8-.57,1.8-1.34s-.58-1.33-1.8-1.33h-1.82c-1.21,0-1.8,.59-1.8,1.33s.58,1.34,1.8,1.34h1.82Zm2.36-7.27h1.75v.71h-1.75v2.56h-.81v-5.54h.81v2.27Z"/>
      <path class="cls-1" d="M263.77,240.2h.81v5.76h-.81v-1.79h-2.52v1.22h-5.02v-4.71h.79v1.59h3.43v-1.59h.8v.9h2.52v-1.39Zm-6.75,4.49h3.43v-1.69h-3.43v1.69Zm.66,2.71v-.72h6.9v3.76h-.81v-3.05h-6.09Zm3.57-3.89h2.52v-1.24h-2.52v1.24Z"/>
      <path class="cls-1" d="M266.64,248.67l-.05-.73h1.92c1.3,0,3.42-.12,5.08-.32l.09,.69c-1.59,.22-3.66,.35-5.22,.35h-1.83Zm.56-5.07v-.23c0-1.78,1.24-2.63,2.77-2.63s2.76,.85,2.76,2.63v.23c0,1.78-1.25,2.63-2.76,2.63s-2.77-.85-2.77-2.63Zm4.7-.01v-.21c0-1.28-.82-1.93-1.93-1.93s-1.95,.65-1.95,1.93v.21c0,1.26,.82,1.91,1.95,1.91s1.93-.65,1.93-1.91Zm2.7,6.75v-10.15h.81v10.15h-.81Z"/>
      <path class="cls-1" d="M285.49,245.76h4.53v.73h-9.89v-.73h4.54v-1.49h.81v1.49Zm-4.46-1.83c2.46-.71,3.72-1.65,3.72-2.74v-.05h-3.17v-.69h7.02v.69h-3.04v.04c0,.38-.09,.75-.27,1.09l3.85,1.68-.31,.65-3.99-1.74c-.67,.67-1.84,1.25-3.54,1.74l-.25-.67Zm1.3,3.47v2.22h6.59v.73h-7.4v-2.95h.81Z"/>
      <path class="cls-1" d="M293.9,242.45c0,.8-.08,1.55-.25,2.27l2.52,3.64-.66,.46-2.15-3.11c-.4,1.12-1.02,2.17-1.84,3.23l-.65-.5c1.44-1.8,2.25-3.55,2.25-6v-.67h-1.88v-.71h4.57v.71h-1.9v.67Zm5.33-2.25h.8v10.15h-.8v-5.46h-1.64v5.27h-.79v-9.8h.79v3.81h1.64v-3.97Z"/>
      <path class="cls-1" d="M305.08,242.64c0-.34,.28-.62,.63-.62s.64,.28,.64,.62-.29,.61-.64,.61-.63-.26-.63-.61Zm0,5.39c0-.34,.28-.62,.63-.62s.64,.28,.64,.62-.29,.61-.64,.61-.63-.26-.63-.61Z"/>
      <path class="cls-1" d="M320.44,246.63v.71h-4.53v3.12h-.81v-3.12h-4.54v-.71h9.89Zm-1.27-5.9v4.27h-7.34v-4.27h7.34Zm-.82,3.56v-2.85h-5.7v2.85h5.7Z"/>
      <path class="cls-1" d="M329.51,240.2h.82v5.71h-.82v-1.74h-2.43c-.44,.86-1.38,1.28-2.48,1.28-1.52,0-2.74-.78-2.74-2.38v-.22c0-1.6,1.21-2.38,2.74-2.38,1.03,0,1.92,.36,2.39,1.11h2.52v-1.39Zm-3.01,2.67c0-1.11-.8-1.69-1.9-1.69s-1.91,.58-1.91,1.69v.18c0,1.11,.8,1.69,1.91,1.69s1.9-.58,1.9-1.69v-.18Zm-3.07,4.47v-.71h6.9v3.82h-.82v-3.1h-6.08Zm6.08-3.84v-1.24h-2.24c.03,.19,.06,.38,.06,.59v.22c0,.15-.01,.3-.03,.43h2.22Z"/>
      <path class="cls-1" d="M335.66,242.36c0,.81-.1,1.57-.31,2.3l3.12,3.64-.63,.53-2.8-3.29c-.5,1.19-1.29,2.29-2.37,3.4l-.6-.53c1.74-1.8,2.78-3.54,2.78-6.05v-.58h-2.37v-.71h5.56v.71h-2.39v.58Zm6.67,1.8v.73h-1.75v5.46h-.81v-10.15h.81v3.97h1.75Z"/>
      <path class="cls-1" d="M352.99,246.63v.71h-2.64v3.11h-.82v-3.11h-2.94v3.11h-.82v-3.11h-2.66v-.71h9.89Zm-5.69-1.47c-1.89,0-3.06-.9-3.06-2.3s1.17-2.28,3.06-2.28h1.5c1.88,0,3.07,.9,3.07,2.28s-1.19,2.3-3.07,2.3h-1.5Zm.13-3.87c-1.51,0-2.37,.64-2.37,1.57s.86,1.59,2.37,1.59h1.24c1.52,0,2.38-.65,2.38-1.59s-.86-1.57-2.38-1.57h-1.24Z"/>
      <path class="cls-1" d="M357.48,248.22c1.02-.06,2.13-.14,3.08-.26l.09,.69c-1.54,.2-3.58,.34-5.09,.34h-1.74l-.03-.71h1.82c.31,0,.66-.01,1.05-.02v-1.41c-1.26-.11-2.17-.78-2.17-1.88v-.19c0-1.22,1.1-1.89,2.54-1.89s2.52,.67,2.52,1.89v.19c0,1.08-.87,1.74-2.06,1.87v1.39Zm2.56-6.73v.67h-6.08v-.67h2.63v-1.29h.82v1.29h2.62Zm-4.76,3.47c0,.77,.76,1.24,1.74,1.24s1.72-.47,1.72-1.24v-.15c0-.77-.74-1.25-1.72-1.25s-1.74,.48-1.74,1.25v.15Zm8.74-.68v.71h-1.65v5.36h-.81v-10.15h.81v4.08h1.65Z"/>
      <path class="cls-1" d="M377.46,246.73v.73h-4.53v3h-.81v-3h-4.54v-.73h9.89Zm-1.27-6.04v4.52h-7.33v-4.52h.81v1.57h5.7v-1.57h.82Zm-6.52,3.82h5.7v-1.53h-5.7v1.53Z"/>
      <path class="cls-1" d="M378.42,245.65h9.89v.73h-4.53v2.01h-.81v-2.01h-4.54v-.73Zm2.15,1.75v2.22h6.64v.73h-7.46v-2.95h.82Zm6.36-6.95v3.96h-7.13v-3.96h7.13Zm-.82,3.25v-2.54h-5.49v2.54h5.49Z"/>
      <path class="cls-1" d="M147.83,272.02v2.99h-3.11v-2.99h3.11Z"/>
      <path class="cls-1" d="M160.74,271.52c-.58,1.43-2.22,2.49-4.57,3.22l-.32-.68c2.6-.81,4.26-2.11,4.3-3.54h-4.13v-.73h4.96v.5c0,.19-.01,.37-.05,.56h2.44v-1.65h.81v5.54h-.81v-1.31h-2.67v-.67h2.67v-1.24h-2.63Zm1.13,3.84c1.56,0,2.47,.9,2.47,2.05s-.92,2.04-2.47,2.04h-2.23c-1.54,0-2.46-.88-2.46-2.04s.92-2.05,2.46-2.05h2.23Zm-.16,3.38c1.22,0,1.81-.57,1.81-1.34s-.58-1.33-1.81-1.33h-1.9c-1.22,0-1.82,.59-1.82,1.33s.6,1.34,1.82,1.34h1.9Z"/>
      <path class="cls-1" d="M169.01,271.45c0,.8-.08,1.56-.25,2.28l2.53,3.64-.65,.45-2.16-3.11c-.4,1.11-1.02,2.17-1.85,3.23l-.63-.48c1.44-1.82,2.24-3.56,2.24-6.01v-.67h-1.88v-.71h4.57v.71h-1.91v.67Zm3.07,1.62v-3.71h.79v9.8h-.79v-5.38h-1.87v-.71h1.87Zm2.28-3.87h.8v10.15h-.8v-10.15Z"/>
      <path class="cls-1" d="M182.84,277.81h3.99v.73h-9.89v-.73h2.43v-4.2h.79v4.2h1.89v-4.2h.79v4.2Zm1.97-7.04h-6.75v-.72h7.56v.86c0,1.43-.25,3.37-.58,5.1l-.8-.14c.33-1.71,.57-3.67,.57-4.79v-.32Z"/>
      <path class="cls-1" d="M197.68,275.85v.7h-2.64v2.92h-.82v-2.92h-2.94v2.92h-.82v-2.92h-2.66v-.7h9.89Zm-2.09-4.04v-1.39h-6.57v-.69h7.39v2.75h-6.52v1.42h6.75v.67h-7.56v-2.76h6.51Z"/>
      <path class="cls-1" d="M198.64,274.67v-.64h9.89v.64h-9.89Zm1.28,4.73v-2.29h6.51v-.97h-6.57v-.64h7.39v2.24h-6.52v1h6.81v.65h-7.62Zm.1-6.19v-2.21h6.31v-.97h-6.36v-.64h7.19v2.22h-6.32v.98h6.53v.62h-7.35Z"/>
      <path class="cls-1" d="M214.25,274.57h-1.83l-.05-.69h1.93c1.29,0,3.41-.12,5.08-.33l.08,.67c-1.01,.13-2.2,.24-3.33,.3-.05,.64-.1,1.3-.18,1.96l-.81-.06c.07-.62,.14-1.26,.17-1.87-.37,.01-.73,.02-1.06,.02Zm4.14-2.46v.67h-5.25v-3.2h5.14v.67h-4.34v1.86h4.45Zm3.48,6.6l-.31,.69-4.12-1.55c-.74,.67-2,1.2-3.64,1.59l-.22-.68c2.2-.55,3.79-1.35,3.79-2.41v-.46h.8v.46c0,.32-.08,.62-.24,.89l3.94,1.46Zm-.67-9.5v6.99h-.81v-6.99h.81Z"/>
      <path class="cls-1" d="M228.31,269.69v4.54h-4.94v-4.54h.8v1.52h3.34v-1.52h.8Zm-4.14,3.84h3.34v-1.61h-3.34v1.61Zm1.52,2.76v2.34h6.09v.71h-6.9v-3.77h6.65v.71h-5.84Zm5.77-4.82h1.75v.71h-1.75v2.67h-.82v-5.67h.82v2.28Z"/>
      <path class="cls-1" d="M237.26,272.81c-.54,.78-1.48,1.44-2.79,2.05l-.35-.67c1.79-.85,2.86-1.79,2.9-3.09h-2.53v-.7h2.53v-1.33h.8v1.33h2.55v.7h-2.55c-.01,.37-.08,.73-.21,1.06l3.11,1.83-.39,.67-3.07-1.84Zm-1.17,6.52v-3.72h6.79v3.72h-6.79Zm.81-3v2.3h5.16v-2.3h-5.16Zm5.16-7.14h.81v5.71h-.81v-5.71Z"/>
      <path class="cls-1" d="M251.12,269.2v1.61h2.66v.71h-6.12v-.71h2.65v-1.61h.81Zm2.15,5.74v.58c0,1.46-1.12,2.39-2.54,2.39s-2.56-.92-2.56-2.39v-.58c0-1.47,1.13-2.38,2.56-2.38s2.54,.9,2.54,2.38Zm-.81,.03c0-1.06-.77-1.68-1.73-1.68s-1.74,.63-1.74,1.68v.52c0,1.06,.76,1.71,1.74,1.71s1.73-.65,1.73-1.71v-.52Zm5.23-1.81v.73h-1.76v5.46h-.81v-10.15h.81v3.97h1.76Z"/>
      <path class="cls-1" d="M258.44,275.44v-.73h9.89v.73h-9.89Zm8.59-2.75v.73h-7.21v-3.97h.81v3.25h6.4Zm-7.21,6.66v-2.95h.81v2.22h6.59v.73h-7.4Z"/>
      <path class="cls-1" d="M274.97,271.45c0,.8-.08,1.56-.25,2.28l2.53,3.64-.65,.45-2.16-3.11c-.4,1.11-1.02,2.17-1.85,3.23l-.63-.48c1.44-1.82,2.24-3.56,2.24-6.01v-.67h-1.88v-.71h4.57v.71h-1.91v.67Zm3.07,1.62v-3.71h.79v9.8h-.79v-5.38h-1.87v-.71h1.87Zm2.28-3.87h.8v10.15h-.8v-10.15Z"/>
      <path class="cls-1" d="M288.27,277.81h4.53v.73h-9.89v-.73h4.54v-2.66h-3.26v-5.2h7.23v.71h-6.42v3.78h6.52v.7h-3.26v2.66Z"/>
      <path class="cls-1" d="M296.93,272.68c-.53,.83-1.4,1.54-2.62,2.23l-.4-.63c1.81-1.07,2.83-2.13,2.83-3.67v-.15h-2.4v-.71h5.62v.71h-2.41v.15c0,.51-.09,.98-.26,1.42l3.1,2.09-.42,.64-3.02-2.08Zm-1.16,3.66v-.71h6.9v3.82h-.81v-3.1h-6.09Zm6.09-7.14h.81v5.71h-.81v-2.6h-2.28v-.7h2.28v-2.41Z"/>
      <path class="cls-1" d="M310.22,272.59c-.51,.81-1.37,1.54-2.6,2.21l-.4-.63c1.77-1.03,2.77-2.1,2.77-3.58v-.15h-2.37v-.7h5.56v.7h-2.39v.15c0,.47-.08,.91-.24,1.33l3.06,2.02-.43,.64-2.95-2Zm3.3,2.77c1.54,0,2.46,.9,2.46,2.05s-.92,2.04-2.46,2.04h-2.14c-1.53,0-2.46-.88-2.46-2.04s.93-2.05,2.46-2.05h2.14Zm-.16,3.38c1.21,0,1.8-.57,1.8-1.34s-.58-1.33-1.8-1.33h-1.82c-1.21,0-1.8,.59-1.8,1.33s.58,1.34,1.8,1.34h1.82Zm2.36-7.27h1.75v.71h-1.75v2.56h-.81v-5.54h.81v2.27Z"/>
      <path class="cls-1" d="M322.08,271.8c0,.69-.1,1.34-.29,1.98l3.19,3.52-.58,.53-2.93-3.21c-.53,1.16-1.37,2.24-2.52,3.33l-.57-.55c1.79-1.73,2.88-3.4,2.88-5.6v-.15h-2.52v-.71h2.53v-1.73h.8v1.73h2.54v.71h-2.54v.15Zm4.26-2.61h.81v10.15h-.81v-10.15Z"/>
      <path class="cls-1" d="M338.57,275.29c-1.54,.21-3.58,.33-5.09,.33h-1.74l-.03-.65h1.82c.31,0,.66-.01,1.05-.02v-.79c-1.26-.08-2.17-.54-2.17-1.39v-.12c0-.92,1.1-1.39,2.54-1.39s2.52,.46,2.52,1.39v.12c0,.83-.87,1.29-2.06,1.38v.77c1.02-.06,2.13-.14,3.09-.26l.08,.64Zm-.61-5.18v.65h-6.08v-.65h2.63v-1.05h.82v1.05h2.62Zm-4.76,2.65c0,.47,.76,.78,1.74,.78s1.72-.31,1.72-.78v-.08c0-.47-.74-.79-1.72-.79s-1.74,.32-1.74,.79v.08Zm.31,4.41v-.69h6.79v2.97h-.81v-2.28h-5.97Zm8.43-4.75v.73h-1.65v2.62h-.81v-6.57h.81v3.22h1.65Z"/>
      <path class="cls-1" d="M349.65,274.12c-1.25,.21-2.97,.36-4.53,.36h-1.79v-2.76h4.11v-1.29h-4.11v-.69h4.92v2.66h-4.12v1.39h1.12c1.29,0,2.96-.13,4.29-.34l.1,.67Zm1.17,2.45v-1.27h.81v4.04h-6.79v-4.04h.81v1.27h5.16Zm-5.16,2.06h5.16v-1.36h-5.16v1.36Zm5.16-9.44h.81v5.5h-.81v-5.5Z"/>
      <path class="cls-1" d="M359.51,272.62c-.53,.8-1.4,1.51-2.62,2.18l-.4-.63c1.81-1.03,2.83-2.08,2.83-3.58v-.15h-2.4v-.7h5.63v.7h-2.43v.15c0,.5-.08,.95-.25,1.38l3.09,2.02-.42,.65-3.02-2.02Zm3.43,2.74c1.56,0,2.47,.9,2.47,2.05s-.92,2.04-2.47,2.04h-2.22c-1.56,0-2.47-.88-2.47-2.04s.92-2.05,2.47-2.05h2.22Zm-.16,3.38c1.22,0,1.81-.57,1.81-1.34s-.58-1.33-1.81-1.33h-1.9c-1.22,0-1.82,.59-1.82,1.33s.6,1.34,1.82,1.34h1.9Zm-.62-7.23h2.28v-2.31h.81v5.54h-.81v-2.54h-2.28v-.69Z"/>
      <path class="cls-1" d="M372.54,277.81h4.53v.73h-9.89v-.73h4.54v-2.66h-3.26v-5.2h7.23v.71h-6.42v3.78h6.52v.7h-3.26v2.66Z"/>
      <path class="cls-1" d="M147.83,301.02v2.99h-3.11v-2.99h3.11Z"/>
      <path class="cls-1" d="M160.61,306.81h4.53v.71h-9.89v-.71h4.54v-2.71h.81v2.71Zm-.64-5.13c-.68,.98-1.9,1.88-3.74,2.71l-.38-.68c2.71-1.23,3.99-2.55,3.99-4.13v-.8h.81v.8c0,.5-.1,.97-.31,1.43l4.2,2.73-.46,.65-4.12-2.71Z"/>
      <path class="cls-1" d="M166.1,303.88v-.69h9.89v.69h-9.89Zm7.79,4.58v-2.57h-6.51v-.73h7.34v3.3h-.82Zm.61-10.01v.68h-6.2v2.19h6.32v.68h-7.13v-3.55h7.02Z"/>
      <path class="cls-1" d="M186.83,304.54v.73h-4.53v3.19h-.81v-3.19h-4.54v-.73h9.89Zm-5.2-3.53c-.68,.85-1.88,1.59-3.65,2.28l-.33-.69c2.61-.99,3.88-2.16,3.88-3.51v-.67h.81v.67c0,.44-.09,.87-.29,1.28l4.05,2.25-.39,.67-4.09-2.28Z"/>
      <path class="cls-1" d="M187.79,303.65h9.89v.73h-4.53v2.01h-.81v-2.01h-4.54v-.73Zm.89-1.61c2.46-.75,3.71-1.72,3.71-2.83v-.08h-3.16v-.69h7.02v.69h-3.04v.07c0,.4-.09,.76-.27,1.11l3.85,1.75-.33,.65-3.96-1.82c-.68,.7-1.83,1.31-3.55,1.82l-.25-.67Zm1.26,3.36v2.22h6.64v.73h-7.46v-2.95h.82Z"/>
      <path class="cls-1" d="M198.78,306.67l-.05-.73h1.92c1.3,0,3.42-.12,5.08-.32l.09,.69c-1.59,.22-3.66,.35-5.22,.35h-1.83Zm.56-5.07v-.23c0-1.78,1.24-2.63,2.77-2.63s2.76,.85,2.76,2.63v.23c0,1.78-1.25,2.63-2.76,2.63s-2.77-.85-2.77-2.63Zm4.7-.01v-.21c0-1.28-.82-1.93-1.93-1.93s-1.95,.65-1.95,1.93v.21c0,1.26,.82,1.91,1.95,1.91s1.93-.65,1.93-1.91Zm2.7,6.75v-10.15h.81v10.15h-.81Z"/>
      <path class="cls-1" d="M222.16,304.54v.73h-4.53v3.19h-.81v-3.19h-4.54v-.73h9.89Zm-5.2-3.53c-.68,.85-1.88,1.59-3.65,2.28l-.33-.69c2.61-.99,3.88-2.16,3.88-3.51v-.67h.81v.67c0,.44-.09,.87-.29,1.28l4.05,2.25-.39,.67-4.09-2.28Z"/>
      <path class="cls-1" d="M229.54,303.26c-1.16,.2-2.61,.33-4.13,.33h-1.66v-2.82h3.83v-1.34h-3.83v-.69h4.64v2.72h-3.83v1.43h1.01c1.24,0,2.65-.12,3.89-.3l.09,.67Zm-4.28,5.08v-3.72h6.79v3.72h-6.79Zm.81-3.01v2.3h5.16v-2.3h-5.16Zm5.16-7.14h.81v5.72h-.81v-1.8h-1.95v-.66h1.95v-1.25h-1.95v-.65h1.95v-1.35Z"/>
      <path class="cls-1" d="M147.83,330.02v2.99h-3.11v-2.99h3.11Z"/>
      <path class="cls-1" d="M155.71,332.63v-1.52c0-2.41,1.22-3.37,2.71-3.37s2.71,.96,2.71,3.37v1.52c0,2.41-1.22,3.37-2.71,3.37s-2.71-.96-2.71-3.37Zm4.61-.01v-1.51c0-1.89-.81-2.64-1.9-2.64s-1.89,.75-1.89,2.64v1.51c0,1.89,.8,2.65,1.89,2.65s1.9-.76,1.9-2.65Zm3.03,4.73v-10.15h.82v10.15h-.82Z"/>
      <path class="cls-1" d="M169.51,329.36c0,.81-.1,1.57-.31,2.3l3.12,3.64-.63,.53-2.8-3.29c-.5,1.19-1.29,2.29-2.37,3.4l-.6-.53c1.74-1.8,2.78-3.54,2.78-6.05v-.58h-2.37v-.71h5.56v.71h-2.39v.58Zm6.67,1.8v.73h-1.75v5.46h-.81v-10.15h.81v3.97h1.75Z"/>
      <path class="cls-1" d="M186.83,332.04h-2.73v1.04h1.46v2.46h-6.52v1.18h6.81v.67h-7.62v-2.51h6.51v-1.14h-6.57v-.66h1.53v-1.04h-2.76v-.67h9.89v.67Zm-5.69-1.51c-1.82,0-2.98-.48-2.98-1.64s1.16-1.62,2.98-1.62h1.49c1.83,0,2.99,.47,2.99,1.62s-1.16,1.64-2.99,1.64h-1.49Zm.14-2.58c-1.5,0-2.3,.3-2.3,.96s.8,.97,2.3,.97h1.22c1.49,0,2.29-.33,2.29-.97s-.8-.96-2.29-.96h-1.22Zm2.01,5.14v-1.04h-2.79v1.04h2.79Z"/>
      <path class="cls-1" d="M187.93,335.67l-.05-.73h1.92c1.3,0,3.42-.12,5.08-.32l.09,.69c-1.59,.22-3.66,.35-5.22,.35h-1.83Zm.56-5.07v-.23c0-1.78,1.24-2.63,2.77-2.63s2.76,.85,2.76,2.63v.23c0,1.78-1.25,2.63-2.76,2.63s-2.77-.85-2.77-2.63Zm4.7-.01v-.21c0-1.28-.82-1.93-1.93-1.93s-1.95,.65-1.95,1.93v.21c0,1.26,.82,1.91,1.95,1.91s1.93-.65,1.93-1.91Zm2.7,6.75v-10.15h.81v10.15h-.81Z"/>
      <path class="cls-1" d="M211.31,333.54v.73h-4.53v3.19h-.81v-3.19h-4.54v-.73h9.89Zm-5.2-3.53c-.68,.85-1.88,1.59-3.65,2.28l-.33-.69c2.61-.99,3.88-2.16,3.88-3.51v-.67h.81v.67c0,.44-.09,.87-.29,1.28l4.05,2.25-.39,.67-4.09-2.28Z"/>
      <path class="cls-1" d="M218.69,332.26c-1.16,.2-2.61,.33-4.13,.33h-1.66v-2.82h3.83v-1.34h-3.83v-.69h4.64v2.72h-3.83v1.43h1.01c1.24,0,2.65-.12,3.89-.3l.09,.67Zm-4.28,5.08v-3.72h6.79v3.72h-6.79Zm.81-3.01v2.3h5.16v-2.3h-5.16Zm5.16-7.14h.81v5.72h-.81v-1.8h-1.95v-.66h1.95v-1.25h-1.95v-.65h1.95v-1.35Z"/>
      <path class="cls-1" d="M147.83,359.02v2.99h-3.11v-2.99h3.11Z"/>
      <path class="cls-1" d="M155.71,359.43v-.23c0-1.8,1.24-2.67,2.76-2.67s2.74,.87,2.74,2.67v.23c0,1.79-1.24,2.65-2.74,2.65s-2.76-.86-2.76-2.65Zm4.68-.01v-.22c0-1.3-.82-1.97-1.92-1.97s-1.93,.67-1.93,1.97v.22c0,1.3,.82,1.96,1.93,1.96s1.92-.66,1.92-1.96Zm-3,6.93v-3.25h.82v2.52h6.47v.73h-7.29Zm5.97-2.44v-7.71h.82v7.71h-.82Z"/>
      <path class="cls-1" d="M166.1,360.64h9.89v.67h-9.89v-.67Zm8.67-1.57v.66h-7.45v-.66h1.64v-2.01h-1.64v-.66h7.45v.66h-1.65v2.01h1.65Zm-6.58,5.54v1.13h6.81v.66h-7.62v-2.45h6.51v-1.09h-6.57v-.66h7.39v2.41h-6.52Zm1.57-7.56v2.01h2.56v-2.01h-2.56Z"/>
      <path class="cls-1" d="M178.84,364.16c1.09,0,1.99-.09,3.06-.24l.09,.69c-1.01,.17-1.93,.26-3.3,.26h-1.36v-4.35h2.84v-2.8h-2.84v-.72h3.63v4.24h-2.84v2.92h.72Zm4.1-3.88v-3.92h.79v9.8h-.79v-5.17h-1.43v-.71h1.43Zm2.28-4.08h.8v10.15h-.8v-10.15Z"/>
      <path class="cls-1" d="M188.25,361.63v-1.52c0-2.41,1.22-3.37,2.71-3.37s2.71,.96,2.71,3.37v1.52c0,2.41-1.22,3.37-2.71,3.37s-2.71-.96-2.71-3.37Zm4.61-.01v-1.51c0-1.89-.81-2.64-1.9-2.64s-1.89,.75-1.89,2.64v1.51c0,1.89,.8,2.65,1.89,2.65s1.9-.76,1.9-2.65Zm3.03,4.73v-10.15h.82v10.15h-.82Z"/>
      <path class="cls-1" d="M204.59,362.23l-2.88-2.34c-.5,.91-1.33,1.74-2.48,2.5l-.46-.6c1.81-1.22,2.76-2.58,2.76-4.37v-.8h.8v.8c0,.63-.1,1.21-.3,1.76l3.04,2.46-.48,.59Zm-3,3.39h6.47v.73h-7.28v-3.09h.81v2.37Zm5.16-1.72v-3.47h-2.28v-.67h2.28v-1.34h-2.28v-.68h2.28v-1.55h.81v7.71h-.81Z"/>
      <path class="cls-1" d="M219.38,361.04h-2.73v1.04h1.46v2.46h-6.52v1.18h6.81v.67h-7.62v-2.51h6.51v-1.14h-6.57v-.66h1.53v-1.04h-2.76v-.67h9.89v.67Zm-5.69-1.51c-1.82,0-2.98-.48-2.98-1.64s1.16-1.62,2.98-1.62h1.49c1.83,0,2.99,.47,2.99,1.62s-1.16,1.64-2.99,1.64h-1.49Zm.14-2.58c-1.5,0-2.3,.3-2.3,.96s.8,.97,2.3,.97h1.22c1.49,0,2.29-.33,2.29-.97s-.8-.96-2.29-.96h-1.22Zm2.01,5.14v-1.04h-2.79v1.04h2.79Z"/>
      <path class="cls-1" d="M220.47,364.67l-.05-.73h1.92c1.3,0,3.42-.12,5.08-.32l.09,.69c-1.59,.22-3.66,.35-5.22,.35h-1.83Zm.56-5.07v-.23c0-1.78,1.24-2.63,2.77-2.63s2.76,.85,2.76,2.63v.23c0,1.78-1.25,2.63-2.76,2.63s-2.77-.85-2.77-2.63Zm4.7-.01v-.21c0-1.28-.82-1.93-1.93-1.93s-1.95,.65-1.95,1.93v.21c0,1.26,.82,1.91,1.95,1.91s1.93-.65,1.93-1.91Zm2.7,6.75v-10.15h.81v10.15h-.81Z"/>
      <path class="cls-1" d="M243.85,362.54v.73h-4.53v3.19h-.81v-3.19h-4.54v-.73h9.89Zm-5.2-3.53c-.68,.85-1.88,1.59-3.65,2.28l-.33-.69c2.61-.99,3.88-2.16,3.88-3.51v-.67h.81v.67c0,.44-.09,.87-.29,1.28l4.05,2.25-.39,.67-4.09-2.28Z"/>
      <path class="cls-1" d="M251.23,361.26c-1.16,.2-2.61,.33-4.13,.33h-1.66v-2.82h3.83v-1.34h-3.83v-.69h4.64v2.72h-3.83v1.43h1.01c1.24,0,2.65-.12,3.89-.3l.09,.67Zm-4.28,5.08v-3.72h6.79v3.72h-6.79Zm.81-3.01v2.3h5.16v-2.3h-5.16Zm5.16-7.14h.81v5.72h-.81v-1.8h-1.95v-.66h1.95v-1.25h-1.95v-.65h1.95v-1.35Z"/>
      <path class="cls-1" d="M147.83,388.02v2.99h-3.11v-2.99h3.11Z"/>
      <path class="cls-1" d="M160.74,387.52c-.58,1.43-2.22,2.49-4.57,3.22l-.32-.68c2.6-.81,4.26-2.11,4.3-3.54h-4.13v-.73h4.96v.5c0,.19-.01,.37-.05,.56h2.44v-1.65h.81v5.54h-.81v-1.31h-2.67v-.67h2.67v-1.24h-2.63Zm1.13,3.84c1.56,0,2.47,.9,2.47,2.05s-.92,2.04-2.47,2.04h-2.23c-1.54,0-2.46-.88-2.46-2.04s.92-2.05,2.46-2.05h2.23Zm-.16,3.38c1.22,0,1.81-.57,1.81-1.34s-.58-1.33-1.81-1.33h-1.9c-1.22,0-1.82,.59-1.82,1.33s.6,1.34,1.82,1.34h1.9Z"/>
      <path class="cls-1" d="M166.82,386.78v-.71h4.99v.78c0,2.87-1.79,5.38-4.67,7.22l-.48-.62c2.68-1.67,4.33-4.07,4.33-6.45v-.22h-4.17Zm7.39-1.58h.81v10.15h-.81v-10.15Z"/>
      <path class="cls-1" d="M182.56,389.54v1.39h-5.04v-5.18h.8v1.82h3.43v-1.82h.8v1h2.51v-1.55h.82v7.71h-.82v-3.37h-2.51Zm-4.23,.68h3.43v-1.97h-3.43v1.97Zm1.59,4.4h6.47v.73h-7.28v-3.04h.81v2.31Zm5.15-7.19h-2.51v1.45h2.51v-1.45Z"/>
      <path class="cls-1" d="M193.15,390.05h4.53v.69h-9.89v-.69h4.54v-1.11h-3.16v-3.5h7.02v.68h-6.2v2.12h6.32v.69h-3.16v1.11Zm.74,1.78c1.73,0,2.63,.77,2.63,1.8s-.9,1.81-2.63,1.81h-2.31c-1.72,0-2.62-.76-2.62-1.81s.9-1.8,2.62-1.8h2.31Zm-.18,2.93c1.35,0,1.99-.45,1.99-1.12s-.64-1.1-1.99-1.1h-1.95c-1.35,0-1.99,.43-1.99,1.1s.64,1.12,1.99,1.12h1.95Z"/>
      <path class="cls-1" d="M198.78,393.67l-.05-.73h1.92c1.3,0,3.42-.12,5.08-.32l.09,.69c-1.59,.22-3.66,.35-5.22,.35h-1.83Zm.56-5.07v-.23c0-1.78,1.24-2.63,2.77-2.63s2.76,.85,2.76,2.63v.23c0,1.78-1.25,2.63-2.76,2.63s-2.77-.85-2.77-2.63Zm4.7-.01v-.21c0-1.28-.82-1.93-1.93-1.93s-1.95,.65-1.95,1.93v.21c0,1.26,.82,1.91,1.95,1.91s1.93-.65,1.93-1.91Zm2.7,6.75v-10.15h.81v10.15h-.81Z"/>
      <path class="cls-1" d="M217.62,390.05h4.53v.69h-9.89v-.69h4.54v-1.11h-3.16v-3.5h7.02v.68h-6.2v2.12h6.32v.69h-3.16v1.11Zm.74,1.78c1.73,0,2.63,.77,2.63,1.8s-.9,1.81-2.63,1.81h-2.31c-1.72,0-2.62-.76-2.62-1.81s.9-1.8,2.62-1.8h2.31Zm-.18,2.93c1.35,0,1.99-.45,1.99-1.12s-.64-1.1-1.99-1.1h-1.95c-1.35,0-1.99,.43-1.99,1.1s.64,1.12,1.99,1.12h1.95Z"/>
      <path class="cls-1" d="M228.47,393.81h4.53v.73h-9.89v-.73h4.54v-2.5h.81v2.5Zm-4.66-2.94c2.62-1.17,3.89-2.43,3.89-3.92v-.3h-3.31v-.71h7.34v.71h-3.2v.3c0,.47-.09,.92-.29,1.35l4.05,2.6-.43,.64-4.01-2.57c-.68,.93-1.87,1.79-3.67,2.57l-.37-.67Z"/>
      <path class="cls-1" d="M237.5,393.22c1.02-.06,2.13-.14,3.08-.26l.09,.69c-1.54,.2-3.58,.34-5.09,.34h-1.74l-.03-.71h1.82c.31,0,.66-.01,1.05-.02v-1.41c-1.26-.11-2.17-.78-2.17-1.88v-.19c0-1.22,1.1-1.89,2.54-1.89s2.52,.67,2.52,1.89v.19c0,1.08-.87,1.74-2.06,1.87v1.39Zm2.56-6.73v.67h-6.08v-.67h2.63v-1.29h.82v1.29h2.62Zm-4.76,3.47c0,.77,.75,1.24,1.74,1.24s1.72-.47,1.72-1.24v-.15c0-.77-.74-1.25-1.72-1.25s-1.74,.48-1.74,1.25v.15Zm8.74-.68v.71h-1.65v5.36h-.81v-10.15h.81v4.08h1.65Z"/>
      <path class="cls-1" d="M147.83,417.02v2.99h-3.11v-2.99h3.11Z"/>
      <path class="cls-1" d="M165.14,418.35v.71h-9.89v-.71h7.2c.23-1.17,.35-2.39,.35-3.03v-.05h-6.31v-.72h7.12v.61c0,.88-.13,2.05-.34,3.19h1.87Zm-8.61,6v-3.88h7.34v3.88h-7.34Zm.81-3.18v2.48h5.7v-2.48h-5.7Z"/>
      <path class="cls-1" d="M175.99,419.65h-2.73v1.3c1.04,.25,1.58,.89,1.58,1.69,0,1.04-.9,1.81-2.63,1.81h-2.31c-1.72,0-2.62-.77-2.62-1.81,0-.8,.55-1.44,1.59-1.69v-1.3h-2.76v-.7h9.89v.7Zm-5.68-1.66c-1.83,0-2.99-.62-2.99-1.83s1.16-1.83,2.99-1.83h1.48c1.83,0,2.99,.61,2.99,1.83s-1.16,1.83-2.99,1.83h-1.48Zm1.71,3.55h-1.95c-1.35,0-1.99,.43-1.99,1.1s.64,1.11,1.99,1.11h1.95c1.35,0,1.99-.44,1.99-1.11s-.64-1.1-1.99-1.1Zm-1.57-6.51c-1.5,0-2.31,.4-2.31,1.13s.81,1.16,2.31,1.16h1.2c1.49,0,2.3-.43,2.3-1.16s-.81-1.13-2.3-1.13h-1.2Zm2,4.62h-2.79v1.19h2.54c.09,0,.17,0,.25,.01v-1.2Z"/>
      <path class="cls-1" d="M180.68,416.08c0,.88-.11,1.72-.34,2.51l3.28,3.72-.61,.52-2.98-3.38c-.51,1.23-1.35,2.38-2.52,3.49l-.57-.54c1.95-1.84,2.93-3.75,2.93-6.32v-1.26h.8v1.26Zm4.36-1.89h.82v10.15h-.82v-10.15Z"/>
      <path class="cls-1" d="M190.63,417.59c-.52,.81-1.37,1.54-2.6,2.21l-.4-.63c1.77-1.03,2.77-2.1,2.77-3.58v-.15h-2.37v-.7h5.56v.7h-2.39v.15c0,.47-.08,.91-.24,1.33l3.06,2.02-.43,.64-2.95-2Zm3.3,2.77c1.54,0,2.46,.9,2.46,2.05s-.92,2.04-2.46,2.04h-2.14c-1.53,0-2.46-.88-2.46-2.04s.93-2.05,2.46-2.05h2.14Zm-.16,3.38c1.21,0,1.8-.57,1.8-1.34s-.58-1.33-1.8-1.33h-1.82c-1.21,0-1.8,.59-1.8,1.33s.58,1.34,1.8,1.34h1.82Zm2.36-7.27h1.75v.71h-1.75v2.56h-.81v-5.54h.81v2.27Z"/>
      <path class="cls-1" d="M198.78,422.67l-.05-.73h1.92c1.3,0,3.42-.12,5.08-.32l.09,.69c-1.59,.22-3.66,.35-5.22,.35h-1.83Zm.56-5.07v-.23c0-1.78,1.24-2.63,2.77-2.63s2.76,.85,2.76,2.63v.23c0,1.78-1.25,2.63-2.76,2.63s-2.77-.85-2.77-2.63Zm4.7-.01v-.21c0-1.28-.82-1.93-1.93-1.93s-1.95,.65-1.95,1.93v.21c0,1.26,.82,1.91,1.95,1.91s1.93-.65,1.93-1.91Zm2.7,6.75v-10.15h.81v10.15h-.81Z"/>
      <path class="cls-1" d="M217.62,419.7h4.53v.67h-9.89v-.67h4.54v-.96h-3.16v-4.3h7.13v.67h-6.32v1.12h6.32v.67h-6.32v1.17h6.53v.67h-3.38v.96Zm.79,1.56c1.71,0,2.59,.64,2.59,1.6s-.88,1.59-2.59,1.59h-2.39c-1.71,0-2.59-.63-2.59-1.59s.88-1.6,2.59-1.6h2.39Zm-.19,2.52c1.33,0,1.96-.34,1.96-.92s-.63-.92-1.96-.92h-2c-1.34,0-1.97,.34-1.97,.92s.63,.92,1.97,.92h2Z"/>
      <path class="cls-1" d="M229.3,415.2v.67h-6.12v-.67h2.65v-1.14h.81v1.14h2.66Zm-.49,3.01c0,1.06-1.12,1.63-2.55,1.63s-2.56-.57-2.56-1.63v-.14c0-1.04,1.13-1.62,2.56-1.62s2.55,.57,2.55,1.62v.14Zm-4.3-.01c0,.59,.77,.97,1.75,.97s1.75-.37,1.75-.97v-.11c0-.58-.78-.97-1.75-.97s-1.75,.38-1.75,.97v.11Zm6.13,3.42v-1.21h.81v3.92h-6.57v-3.92h.82v1.21h4.93Zm-4.93,2.01h4.93v-1.31h-4.93v1.31Zm7.51-6.96v.71h-1.76v2.42h-.81v-5.62h.81v2.49h1.76Z"/>
      <path class="cls-1" d="M237.13,417.62c-.53,.8-1.4,1.51-2.62,2.18l-.4-.63c1.81-1.03,2.83-2.08,2.83-3.58v-.15h-2.4v-.7h5.63v.7h-2.43v.15c0,.5-.08,.95-.25,1.38l3.09,2.02-.42,.65-3.02-2.02Zm3.43,2.74c1.56,0,2.47,.9,2.47,2.05s-.92,2.04-2.47,2.04h-2.22c-1.56,0-2.47-.88-2.47-2.04s.92-2.05,2.47-2.05h2.22Zm-.16,3.38c1.22,0,1.81-.57,1.81-1.34s-.58-1.33-1.81-1.33h-1.9c-1.22,0-1.82,.59-1.82,1.33s.59,1.34,1.82,1.34h1.9Zm-.62-7.23h2.28v-2.31h.81v5.54h-.81v-2.54h-2.28v-.69Z"/>
      <path class="cls-1" d="M250.17,422.81h4.53v.73h-9.89v-.73h4.54v-2.66h-3.26v-5.2h7.23v.71h-6.42v3.78h6.52v.7h-3.26v2.66Z"/>
      <path class="cls-1" d="M146.39,451.81h4.53v.71h-9.89v-.71h4.54v-2.71h.81v2.71Zm-.64-5.13c-.68,.98-1.9,1.88-3.74,2.71l-.38-.68c2.71-1.23,3.99-2.55,3.99-4.13v-.8h.81v.8c0,.5-.1,.97-.31,1.43l4.2,2.73-.46,.65-4.12-2.71Z"/>
      <path class="cls-1" d="M157.86,445.79v-2.43h.79v9.8h-.79v-3.48h-1.98v-.7h1.98v-2.47h-1.76c-.42,2.16-1.66,4.03-3.38,5.56l-.58-.57c2.03-1.74,3.31-4.11,3.31-6.49v-.22h-3.11v-.71h3.93v.78c0,.32-.02,.64-.05,.95h1.65Zm2.28-2.6h.8v10.15h-.8v-10.15Z"/>
    </g>
    <g>
      <path class="cls-1" d="M710.68,11.48v-2.73h1.32v8.05h-4.36V8.75h1.33v2.73h1.72Zm-1.72,4.06h1.72v-2.79h-1.72v2.79Zm6.46-7.38h1.42v10.28h-1.42v-5.28h-1.06v5.04h-1.38V8.32h1.38v3.55h1.06v-3.72Z"/>
      <path class="cls-1" d="M721.48,12.07c-.56,.67-1.38,1.25-2.52,1.78l-.67-1.14c1.79-.87,2.55-1.75,2.62-2.88h-2.2v-1.23h5.83v1.23h-2.21c-.02,.4-.09,.78-.22,1.13l2.83,1.57-.71,1.15-2.75-1.62Zm-1.26,6.36v-4.17h7.27v4.17h-7.27Zm1.46-2.93v1.67h4.34v-1.67h-4.34Zm4.34-7.35h1.46v5.54h-1.46v-2.22h-1.88v-1.2h1.88v-2.12Z"/>
      <path class="cls-1" d="M711.43,44.25c.31,.78,.92,1.47,2.15,1.47s1.96-.61,1.96-1.42-.69-1.51-2.13-1.51h-1.21v-1.19h1.21c1.27,0,1.9-.57,1.9-1.38s-.69-1.29-1.75-1.29-1.59,.63-1.87,1.31l-1.3-.47c.45-1.16,1.43-2.1,3.17-2.1,1.83,0,3.19,.89,3.19,2.46,0,1.11-.67,1.73-1.44,2.05,.92,.32,1.66,1.06,1.66,2.18,0,1.58-1.38,2.62-3.39,2.62-1.9,0-2.99-1.01-3.46-2.28l1.3-.46Z"/>
      <path class="cls-1" d="M718.43,43.19v-1.69c0-2.53,1.58-3.81,3.48-3.81s3.47,1.28,3.47,3.81v1.69c0,2.54-1.58,3.81-3.47,3.81s-3.48-1.26-3.48-3.81Zm5.48-.07v-1.56c0-1.77-.85-2.62-2-2.62s-2,.85-2,2.62v1.56c0,1.78,.85,2.62,2,2.62s2-.84,2-2.62Z"/>
      <path class="cls-1" d="M711.43,73.25c.31,.78,.92,1.47,2.15,1.47s1.96-.61,1.96-1.42-.69-1.51-2.13-1.51h-1.21v-1.19h1.21c1.27,0,1.9-.57,1.9-1.38s-.69-1.29-1.75-1.29-1.59,.63-1.87,1.31l-1.3-.47c.45-1.16,1.43-2.1,3.17-2.1,1.83,0,3.19,.89,3.19,2.46,0,1.11-.67,1.73-1.44,2.05,.92,.32,1.66,1.06,1.66,2.18,0,1.58-1.38,2.62-3.39,2.62-1.9,0-2.99-1.01-3.46-2.28l1.3-.46Z"/>
      <path class="cls-1" d="M718.43,72.19v-1.69c0-2.53,1.58-3.81,3.48-3.81s3.47,1.28,3.47,3.81v1.69c0,2.54-1.58,3.81-3.47,3.81s-3.48-1.26-3.48-3.81Zm5.48-.07v-1.56c0-1.77-.85-2.62-2-2.62s-2,.85-2,2.62v1.56c0,1.78,.85,2.62,2,2.62s2-.84,2-2.62Z"/>
      <path class="cls-1" d="M711.43,102.25c.31,.78,.92,1.47,2.15,1.47s1.96-.61,1.96-1.42-.69-1.51-2.13-1.51h-1.21v-1.19h1.21c1.27,0,1.9-.57,1.9-1.38s-.69-1.29-1.75-1.29-1.59,.63-1.87,1.31l-1.3-.47c.45-1.16,1.43-2.1,3.17-2.1,1.83,0,3.19,.89,3.19,2.46,0,1.11-.67,1.73-1.44,2.05,.92,.32,1.66,1.06,1.66,2.18,0,1.58-1.38,2.62-3.39,2.62-1.9,0-2.99-1.01-3.46-2.28l1.3-.46Z"/>
      <path class="cls-1" d="M718.43,101.19v-1.69c0-2.53,1.58-3.81,3.48-3.81s3.47,1.28,3.47,3.81v1.69c0,2.54-1.58,3.81-3.47,3.81s-3.48-1.26-3.48-3.81Zm5.48-.07v-1.56c0-1.77-.85-2.62-2-2.62s-2,.85-2,2.62v1.56c0,1.78,.85,2.62,2,2.62s2-.84,2-2.62Z"/>
      <path class="cls-1" d="M716.96,127.85v2.23c0,2.72-1.62,3.91-3.26,3.91s-2.7-.67-3.33-1.94l1.2-.62c.47,.87,1.05,1.3,2.06,1.3,1.1,0,1.99-.81,1.99-2.71v-.36c-.48,.73-1.4,1.1-2.33,1.1-1.62,0-3.11-1.2-3.11-3.06s1.49-3.03,3.41-3.03,3.38,1.12,3.38,3.17Zm-1.45-.11c0-1.11-.83-1.8-1.93-1.8s-1.96,.69-1.96,1.8,.85,1.79,1.96,1.79,1.93-.69,1.93-1.79Z"/>
      <path class="cls-1" d="M718.43,130.19v-1.69c0-2.53,1.58-3.81,3.48-3.81s3.47,1.28,3.47,3.81v1.69c0,2.54-1.58,3.81-3.47,3.81s-3.48-1.26-3.48-3.81Zm5.48-.07v-1.56c0-1.77-.85-2.62-2-2.62s-2,.85-2,2.62v1.56c0,1.78,.85,2.62,2,2.62s2-.84,2-2.62Z"/>
      <path class="cls-1" d="M710.44,162.83v-1.09l3.38-3.22c.95-.91,1.38-1.52,1.38-2.27s-.56-1.3-1.62-1.3-1.59,.73-1.85,1.65l-1.4-.32c.38-1.36,1.45-2.6,3.25-2.6s3.08,.92,3.08,2.51c0,1.19-.63,2.04-1.69,3.05l-2.42,2.29h4.31v1.3h-6.42Z"/>
      <path class="cls-1" d="M718.31,159.19v-1.69c0-2.53,1.58-3.81,3.48-3.81s3.47,1.28,3.47,3.81v1.69c0,2.54-1.58,3.81-3.47,3.81s-3.48-1.26-3.48-3.81Zm5.48-.07v-1.56c0-1.77-.85-2.62-2-2.62s-2,.85-2,2.62v1.56c0,1.78,.85,2.62,2,2.62s2-.84,2-2.62Z"/>
      <path class="cls-1" d="M710.44,191.83v-1.09l3.38-3.22c.95-.91,1.38-1.52,1.38-2.27s-.56-1.3-1.62-1.3-1.59,.73-1.85,1.65l-1.4-.32c.38-1.36,1.45-2.6,3.25-2.6s3.08,.92,3.08,2.51c0,1.19-.63,2.04-1.69,3.05l-2.42,2.29h4.31v1.3h-6.42Z"/>
      <path class="cls-1" d="M718.31,188.19v-1.69c0-2.53,1.58-3.81,3.48-3.81s3.47,1.28,3.47,3.81v1.69c0,2.54-1.58,3.81-3.47,3.81s-3.48-1.26-3.48-3.81Zm5.48-.07v-1.56c0-1.77-.85-2.62-2-2.62s-2,.85-2,2.62v1.56c0,1.78,.85,2.62,2,2.62s2-.84,2-2.62Z"/>
      <path class="cls-1" d="M710.44,220.83v-1.09l3.38-3.22c.95-.91,1.38-1.52,1.38-2.27s-.56-1.3-1.62-1.3-1.59,.73-1.85,1.65l-1.4-.32c.38-1.36,1.45-2.6,3.25-2.6s3.08,.92,3.08,2.51c0,1.19-.63,2.04-1.69,3.05l-2.42,2.29h4.31v1.3h-6.42Z"/>
      <path class="cls-1" d="M718.31,217.19v-1.69c0-2.53,1.58-3.81,3.48-3.81s3.47,1.28,3.47,3.81v1.69c0,2.54-1.58,3.81-3.47,3.81s-3.48-1.26-3.48-3.81Zm5.48-.07v-1.56c0-1.77-.85-2.62-2-2.62s-2,.85-2,2.62v1.56c0,1.78,.85,2.62,2,2.62s2-.84,2-2.62Z"/>
      <path class="cls-1" d="M710.44,249.83v-1.09l3.38-3.22c.95-.91,1.38-1.52,1.38-2.27s-.56-1.3-1.62-1.3-1.59,.73-1.85,1.65l-1.4-.32c.38-1.36,1.45-2.6,3.25-2.6s3.08,.92,3.08,2.51c0,1.19-.63,2.04-1.69,3.05l-2.42,2.29h4.31v1.3h-6.42Z"/>
      <path class="cls-1" d="M718.31,246.19v-1.69c0-2.53,1.58-3.81,3.48-3.81s3.47,1.28,3.47,3.81v1.69c0,2.54-1.58,3.81-3.47,3.81s-3.48-1.26-3.48-3.81Zm5.48-.07v-1.56c0-1.77-.85-2.62-2-2.62s-2,.85-2,2.62v1.56c0,1.78,.85,2.62,2,2.62s2-.84,2-2.62Z"/>
      <path class="cls-1" d="M710.44,278.83v-1.09l3.38-3.22c.95-.91,1.38-1.52,1.38-2.27s-.56-1.3-1.62-1.3-1.59,.73-1.85,1.65l-1.4-.32c.38-1.36,1.45-2.6,3.25-2.6s3.08,.92,3.08,2.51c0,1.19-.63,2.04-1.69,3.05l-2.42,2.29h4.31v1.3h-6.42Z"/>
      <path class="cls-1" d="M718.31,275.19v-1.69c0-2.53,1.58-3.81,3.48-3.81s3.47,1.28,3.47,3.81v1.69c0,2.54-1.58,3.81-3.47,3.81s-3.48-1.26-3.48-3.81Zm5.48-.07v-1.56c0-1.77-.85-2.62-2-2.62s-2,.85-2,2.62v1.56c0,1.78,.85,2.62,2,2.62s2-.84,2-2.62Z"/>
      <path class="cls-1" d="M710.44,307.83v-1.09l3.38-3.22c.95-.91,1.38-1.52,1.38-2.27s-.56-1.3-1.62-1.3-1.59,.73-1.85,1.65l-1.4-.32c.38-1.36,1.45-2.6,3.25-2.6s3.08,.92,3.08,2.51c0,1.19-.63,2.04-1.69,3.05l-2.42,2.29h4.31v1.3h-6.42Z"/>
      <path class="cls-1" d="M718.31,304.19v-1.69c0-2.53,1.58-3.81,3.48-3.81s3.47,1.28,3.47,3.81v1.69c0,2.54-1.58,3.81-3.47,3.81s-3.48-1.26-3.48-3.81Zm5.48-.07v-1.56c0-1.77-.85-2.62-2-2.62s-2,.85-2,2.62v1.56c0,1.78,.85,2.62,2,2.62s2-.84,2-2.62Z"/>
      <path class="cls-1" d="M713.81,336.83v-7.12l-1.91,1.44-.82-1.04,3-2.25h1.21v8.98h-1.48Z"/>
      <path class="cls-1" d="M717.19,333.19v-1.69c0-2.53,1.58-3.81,3.48-3.81s3.47,1.28,3.47,3.81v1.69c0,2.54-1.58,3.81-3.47,3.81s-3.48-1.26-3.48-3.81Zm5.48-.07v-1.56c0-1.77-.85-2.62-2-2.62s-2,.85-2,2.62v1.56c0,1.78,.85,2.62,2,2.62s2-.84,2-2.62Z"/>
      <path class="cls-1" d="M713.81,365.83v-7.12l-1.91,1.44-.82-1.04,3-2.25h1.21v8.98h-1.48Z"/>
      <path class="cls-1" d="M717.19,362.19v-1.69c0-2.53,1.58-3.81,3.48-3.81s3.47,1.28,3.47,3.81v1.69c0,2.54-1.58,3.81-3.47,3.81s-3.48-1.26-3.48-3.81Zm5.48-.07v-1.56c0-1.77-.85-2.62-2-2.62s-2,.85-2,2.62v1.56c0,1.78,.85,2.62,2,2.62s2-.84,2-2.62Z"/>
      <path class="cls-1" d="M713.81,394.83v-7.12l-1.91,1.44-.82-1.04,3-2.25h1.21v8.98h-1.48Z"/>
      <path class="cls-1" d="M717.19,391.19v-1.69c0-2.53,1.58-3.81,3.48-3.81s3.47,1.28,3.47,3.81v1.69c0,2.54-1.58,3.81-3.47,3.81s-3.48-1.26-3.48-3.81Zm5.48-.07v-1.56c0-1.77-.85-2.62-2-2.62s-2,.85-2,2.62v1.56c0,1.78,.85,2.62,2,2.62s2-.84,2-2.62Z"/>
      <path class="cls-1" d="M713.81,423.83v-7.12l-1.91,1.44-.82-1.04,3-2.25h1.21v8.98h-1.48Z"/>
      <path class="cls-1" d="M717.19,420.19v-1.69c0-2.53,1.58-3.81,3.48-3.81s3.47,1.28,3.47,3.81v1.69c0,2.54-1.58,3.81-3.47,3.81s-3.48-1.26-3.48-3.81Zm5.48-.07v-1.56c0-1.77-.85-2.62-2-2.62s-2,.85-2,2.62v1.56c0,1.78,.85,2.62,2,2.62s2-.84,2-2.62Z"/>
      <path class="cls-1" d="M709.74,452.83v-7.12l-1.91,1.44-.82-1.04,3-2.25h1.21v8.98h-1.48Z"/>
      <path class="cls-1" d="M719.91,449.96c0,1.86-1.48,3.04-3.41,3.04s-3.38-1.12-3.38-3.17v-2.23c0-2.72,1.62-3.91,3.27-3.91s2.69,.67,3.33,1.94l-1.21,.61c-.47-.86-1.05-1.29-2.05-1.29-1.11,0-2,.8-2,2.71v.36c.48-.74,1.4-1.11,2.33-1.11,1.64,0,3.11,1.2,3.11,3.06Zm-1.44-.02c0-1.11-.85-1.79-1.96-1.79s-1.92,.68-1.92,1.79,.82,1.8,1.92,1.8,1.96-.69,1.96-1.8Z"/>
      <path class="cls-1" d="M721.26,449.19v-1.69c0-2.53,1.58-3.81,3.48-3.81s3.47,1.28,3.47,3.81v1.69c0,2.54-1.58,3.81-3.47,3.81s-3.48-1.26-3.48-3.81Zm5.48-.07v-1.56c0-1.77-.85-2.62-2-2.62s-2,.85-2,2.62v1.56c0,1.78,.85,2.62,2,2.62s2-.84,2-2.62Z"/>
      <path class="cls-1" d="M706.48,481.83v-1.09l3.38-3.22c.95-.91,1.38-1.52,1.38-2.27s-.56-1.3-1.62-1.3-1.59,.73-1.85,1.65l-1.4-.32c.38-1.36,1.45-2.6,3.25-2.6s3.08,.92,3.08,2.51c0,1.19-.63,2.04-1.69,3.05l-2.42,2.29h4.31v1.3h-6.42Z"/>
      <path class="cls-1" d="M720.8,479.02c0,1.78-1.28,2.97-3.25,2.97-1.37,0-2.76-.57-3.31-1.75l1.26-.68c.35,.77,1.1,1.14,1.97,1.14,1.18,0,1.89-.67,1.89-1.68s-.77-1.68-1.87-1.68c-.81,0-1.34,.36-1.65,1.01h-1.32l.58-5.5h5.36v1.29h-4.12l-.31,2.63c.43-.47,1.1-.71,1.75-.71,1.72,0,3.01,1.18,3.01,2.97Z"/>
      <path class="cls-1" d="M722.26,478.19v-1.69c0-2.53,1.58-3.81,3.48-3.81s3.47,1.28,3.47,3.81v1.69c0,2.54-1.58,3.81-3.47,3.81s-3.48-1.26-3.48-3.81Zm5.48-.07v-1.56c0-1.77-.85-2.62-2-2.62s-2,.85-2,2.62v1.56c0,1.78,.85,2.62,2,2.62s2-.84,2-2.62Z"/>
    </g>
    <g>
      <path class="cls-1" d="M378.85,10.73c0,.77-.1,1.5-.29,2.2l3.15,3.62-1.13,.97-2.63-3.02c-.54,1.1-1.33,2.12-2.36,3.13l-1.08-.98c1.89-1.85,2.83-3.61,2.83-5.92v-.29h-2.39v-1.35h6.31v1.35h-2.42v.29Zm3.78-2.43h1.54v10.77h-1.54V8.3Z"/>
      <path class="cls-1" d="M393.72,16.97h2.66v1.35h-10.55v-1.35h2.67v-1.63h1.49v1.63h2.24v-1.63h1.49v1.63Zm1.62-3.53v1.3h-8.46v-1.3h1.68v-3.15h-1.68v-1.33h8.46v1.33h-1.68v3.15h1.68Zm-5.29-3.15v3.15h2.12v-3.15h-2.12Z"/>
    </g>
    <g class="cls-2">
      <rect class="cls-1" x="109" y="117.15" width="671.1" height=".5"/>
    </g>
    <rect class="cls-1" y="144" width="780" height="1"/>
    <g class="cls-2">
      <rect class="cls-1" x="109" y="435.15" width="671.1" height=".5"/>
    </g>
    <rect class="cls-1" y="462" width="780" height="1"/>
    <g class="cls-2">
      <rect class="cls-1" x="662.25" width=".5" height="497"/>
    </g>
    <rect class="cls-1" x="109" width="1" height="497"/>
  </g>
</svg>