<?xml version="1.0" encoding="UTF-8"?>
<svg id="Layer_2" data-name="Layer 2" xmlns="http://www.w3.org/2000/svg" viewBox="0 0 780.1 438">
  <defs>
    <style>
      .cls-1 {
        fill: #fff;
      }

      .cls-2 {
        opacity: .4;
      }
    </style>
  </defs>
  <g id="Layer_1-2" data-name="Layer 1">
    <g>
      <path class="cls-1" d="M378.63,14.03c0,.74-.09,1.43-.27,2.1l3.01,3.46-1.08,.92-2.51-2.88c-.52,1.04-1.27,2.03-2.25,2.98l-1.03-.94c1.81-1.76,2.7-3.44,2.7-5.64v-.28h-2.28v-1.29h6.02v1.29h-2.31v.28Zm3.6-2.32h1.46v10.28h-1.46V11.71Z"/>
      <path class="cls-1" d="M392.81,19.99h2.54v1.29h-10.07v-1.29h2.55v-1.55h1.42v1.55h2.14v-1.55h1.42v1.55Zm1.54-3.37v1.24h-8.07v-1.24h1.6v-3h-1.6v-1.27h8.07v1.27h-1.6v3h1.6Zm-5.05-3v3h2.03v-3h-2.03Z"/>
    </g>
    <g class="cls-2">
      <rect class="cls-1" x="110" y="117.15" width="670.1" height=".5"/>
    </g>
    <rect class="cls-1" y="146" width="780" height="1"/>
    <g class="cls-2">
      <rect class="cls-1" x="110" y="379.25" width="670" height=".5"/>
    </g>
    <rect class="cls-1" y="407" width="780" height="1"/>
    <rect class="cls-1" y="29.41" width="780" height="1"/>
    <g class="cls-2">
      <rect class="cls-1" x="662.25" width=".5" height="438"/>
    </g>
    <rect class="cls-1" x="109" y="5" width="1" height="433"/>
    <g>
      <path class="cls-1" d="M47.6,15.44c-.5,.7-1.41,1.04-2.46,1.04-1.64,0-2.91-.81-2.91-2.5v-.14c0-1.71,1.27-2.51,2.91-2.51,1,0,1.87,.31,2.39,.95h2.15v-1.11h1.46v5.59h-1.46v-1.32h-2.08Zm1.09,1.77c1.52,0,2.59,.87,2.59,2.17s-1.06,2.17-2.59,2.17h-2.44c-1.52,0-2.57-.86-2.57-2.17s1.05-2.17,2.57-2.17h2.44Zm-4.99-3.26c0,.89,.63,1.3,1.44,1.3s1.43-.41,1.43-1.3v-.1c0-.89-.64-1.3-1.43-1.3s-1.44,.41-1.44,1.3v.1Zm4.77,6.34c.89,0,1.34-.37,1.34-.92s-.45-.91-1.34-.91h-2c-.88,0-1.34,.37-1.34,.91s.46,.92,1.34,.92h2Zm1.21-6.89h-1.68c.02,.14,.03,.29,.03,.44v.14c0,.11-.01,.22-.02,.33h1.67v-.91Z"/>
      <path class="cls-1" d="M60.53,11.17h1.46v5.75h-1.46v-1.43h-2.06c-.5,.74-1.43,1.09-2.5,1.09-1.62,0-2.9-.83-2.9-2.54v-.15c0-1.73,1.27-2.55,2.9-2.55,1.02,0,1.91,.33,2.43,1h2.13v-1.17Zm-3.11,2.73c0-.91-.64-1.34-1.44-1.34s-1.43,.43-1.43,1.34v.12c0,.91,.63,1.34,1.43,1.34s1.44-.43,1.44-1.34v-.12Zm-2.79,4.85v-1.26h7.37v4.06h-1.46v-2.79h-5.91Zm5.91-4.38v-.92h-1.68c.02,.14,.03,.29,.03,.44v.15c0,.11,0,.22-.01,.33h1.66Z"/>
      <path class="cls-1" d="M27.39,71.62c0,.69-.07,1.38-.19,2.04l2.25,3.54-1.13,.75-1.65-2.53c-.37,.91-.87,1.79-1.52,2.64l-1.11-.81c1.37-1.77,2.03-3.51,2.03-5.62v-.42h-1.64v-1.29h4.68v1.29h-1.72v.42Zm2.51,1.14v-3.44h1.38v9.87h-1.38v-5.15h-1.51v-1.28h1.51Zm2.32-3.61h1.42v10.28h-1.42v-10.28Z"/>
      <path class="cls-1" d="M40.8,77.43h4.3v1.29h-10.07v-1.29h4.3v-2.12h-3.12v-5.51h7.62v1.27h-6.17v2.99h6.27v1.25h-3.14v2.12Z"/>
      <path class="cls-1" d="M49.14,73.16c-.55,.69-1.37,1.3-2.5,1.85l-.7-1.11c1.81-.93,2.56-1.86,2.62-3.06h-2.2v-1.24h5.82v1.24h-2.21c-.01,.43-.09,.82-.22,1.21l2.83,1.66-.72,1.14-2.73-1.69Zm-1.37,3.59v-1.26h7.38v4.06h-1.46v-2.79h-5.92Zm5.92-7.58h1.46v5.75h-1.46v-2.33h-1.88v-1.2h1.88v-2.22Z"/>
      <path class="cls-1" d="M65.33,74.47h4.3v1.12h-10.07v-1.12h4.3v-.63h-3.02v-4.49h7.52v1.14h-6.05v.53h6.05v1.11h-6.05v.58h6.27v1.12h-3.25v.63Zm.57,1.69c1.71,0,2.68,.69,2.68,1.68s-.97,1.69-2.68,1.69h-2.6c-1.71,0-2.68-.68-2.68-1.69s.97-1.68,2.68-1.68h2.6Zm-.31,2.24c1.08,0,1.52-.2,1.52-.56s-.45-.57-1.52-.57h-1.98c-1.09,0-1.53,.21-1.53,.57s.45,.56,1.53,.56h1.98Z"/>
      <path class="cls-1" d="M76.69,69.93v1.11h-6.28v-1.11h2.4v-.88h1.48v.88h2.4Zm-.45,3.3c0,1.14-1.18,1.69-2.69,1.69s-2.7-.55-2.7-1.69v-.1c0-1.16,1.2-1.71,2.7-1.71s2.69,.55,2.69,1.71v.1Zm1.37,2.95v-.88h1.45v4.14h-7.03v-4.14h1.46v.88h4.11Zm-5.33-2.96c0,.37,.56,.59,1.27,.59s1.27-.22,1.27-.59v-.08c0-.37-.55-.61-1.27-.61s-1.27,.23-1.27,.61v.08Zm1.22,4.99h4.11v-.82h-4.11v.82Zm7.12-6.83v1.26h-1.56v2.2h-1.45v-5.69h1.45v2.22h1.56Z"/>
      <path class="cls-1" d="M30.88,249.35c-1.61,.22-3.65,.34-5.16,.34h-1.63l-.08-1.29h1.95v-2.21h1.46v2.17c1.05-.04,2.24-.13,3.3-.25l.16,1.24Zm-2.43-1.9c.16-.99,.27-1.94,.29-2.62h-4.09v-1.19h5.52v.52c0,1.2-.13,2.4-.32,3.45l-1.4-.17Zm-1.18,3.09v1.62h6.19v1.28h-7.65v-2.89h1.45Zm5.69-4.42h1.43v1.29h-1.43v3.62h-1.46v-7.87h1.46v2.96Z"/>
      <path class="cls-1" d="M40.76,245.5v-2.18h1.38v9.87h-1.38v-3.25h-1.63v-1.23h1.63v-1.98h-1.35c-.38,2.11-1.45,3.91-3.15,5.53l-1.09-1.01c2.12-1.91,2.95-4.1,2.95-6.05h-2.62v-1.29h4.06v1.01c0,.2,0,.38-.01,.57h1.2Zm2.32-2.34h1.42v10.28h-1.42v-10.28Z"/>
      <path class="cls-1" d="M49.14,247.16c-.55,.69-1.37,1.3-2.5,1.85l-.7-1.11c1.81-.93,2.56-1.86,2.62-3.06h-2.2v-1.24h5.82v1.24h-2.21c-.01,.43-.09,.82-.22,1.21l2.83,1.66-.72,1.14-2.73-1.69Zm-1.37,3.59v-1.26h7.38v4.06h-1.46v-2.79h-5.92Zm5.92-7.58h1.46v5.75h-1.46v-2.33h-1.88v-1.2h1.88v-2.22Z"/>
      <path class="cls-1" d="M65.33,248.47h4.3v1.12h-10.07v-1.12h4.3v-.63h-3.02v-4.49h7.52v1.14h-6.05v.53h6.05v1.11h-6.05v.58h6.27v1.12h-3.25v.63Zm.57,1.69c1.71,0,2.68,.69,2.68,1.68s-.97,1.69-2.68,1.69h-2.6c-1.71,0-2.68-.68-2.68-1.69s.97-1.68,2.68-1.68h2.6Zm-.31,2.24c1.08,0,1.52-.2,1.52-.56s-.45-.57-1.52-.57h-1.98c-1.09,0-1.53,.21-1.53,.57s.45,.56,1.53,.56h1.98Z"/>
      <path class="cls-1" d="M76.69,243.93v1.11h-6.28v-1.11h2.4v-.88h1.48v.88h2.4Zm-.45,3.3c0,1.14-1.18,1.69-2.69,1.69s-2.7-.55-2.7-1.69v-.1c0-1.16,1.2-1.71,2.7-1.71s2.69,.55,2.69,1.71v.1Zm1.37,2.95v-.88h1.45v4.14h-7.03v-4.14h1.46v.88h4.11Zm-5.33-2.96c0,.37,.56,.59,1.27,.59s1.27-.22,1.27-.59v-.08c0-.37-.55-.61-1.27-.61s-1.27,.23-1.27,.61v.08Zm1.22,4.99h4.11v-.82h-4.11v.82Zm7.12-6.83v1.26h-1.56v2.2h-1.45v-5.69h1.45v2.22h1.56Z"/>
      <path class="cls-1" d="M48.16,417.93v1.11h-6.28v-1.11h2.4v-.88h1.48v.88h2.4Zm-.45,3.3c0,1.14-1.18,1.69-2.69,1.69s-2.7-.55-2.7-1.69v-.1c0-1.16,1.2-1.71,2.7-1.71s2.69,.55,2.69,1.71v.1Zm1.37,2.95v-.88h1.45v4.14h-7.03v-4.14h1.46v.88h4.11Zm-5.33-2.96c0,.37,.56,.59,1.27,.59s1.27-.22,1.27-.59v-.08c0-.37-.55-.61-1.27-.61s-1.27,.23-1.27,.61v.08Zm1.22,4.99h4.11v-.82h-4.11v.82Zm7.12-6.83v1.26h-1.56v2.2h-1.45v-5.69h1.45v2.22h1.56Z"/>
      <path class="cls-1" d="M58.44,419.5v-2.18h1.38v9.87h-1.38v-3.25h-1.63v-1.23h1.63v-1.98h-1.35c-.38,2.11-1.45,3.91-3.15,5.53l-1.09-1.01c2.12-1.91,2.95-4.1,2.95-6.05h-2.62v-1.29h4.06v1.01c0,.2,0,.38-.01,.57h1.2Zm2.32-2.34h1.42v10.28h-1.42v-10.28Z"/>
    </g>
    <g>
      <path class="cls-1" d="M147.83,43.02v2.99h-3.11v-2.99h3.11Z"/>
      <path class="cls-1" d="M155.84,42.09c0,.88-.11,1.71-.33,2.5l3.16,3.73-.61,.51-2.85-3.37c-.49,1.22-1.29,2.37-2.42,3.48l-.57-.53c1.87-1.84,2.82-3.77,2.82-6.31v-1.28h.8v1.28Zm6.72,2.07v.73h-1.75v5.46h-.82v-10.15h.82v3.97h1.75Z"/>
      <path class="cls-1" d="M167.26,48.21c1.04-.05,2.17-.14,3.16-.26l.09,.69c-1.59,.22-3.66,.35-5.22,.35h-1.83l-.05-.73h1.92c.32,0,.7-.01,1.1-.02v-1.41c-1.26-.12-2.17-.78-2.17-1.87v-.19c0-1.22,1.13-1.89,2.6-1.89s2.56,.67,2.56,1.89v.19c0,1.1-.93,1.76-2.16,1.87v1.38Zm2.68-6.72v.67h-6.19v-.67h2.68v-1.29h.82v1.29h2.69Zm-4.88,3.47c0,.77,.78,1.24,1.8,1.24s1.76-.47,1.76-1.24v-.15c0-.77-.78-1.25-1.76-1.25s-1.8,.48-1.8,1.25v.15Zm6.36-4.76h.81v10.15h-.81v-10.15Z"/>
      <path class="cls-1" d="M174.17,45.65h9.89v.73h-4.53v2.01h-.81v-2.01h-4.54v-.73Zm2.15,1.75v2.22h6.64v.73h-7.46v-2.95h.82Zm6.36-6.95v3.96h-7.13v-3.96h7.13Zm-.82,3.25v-2.54h-5.49v2.54h5.49Z"/>
      <path class="cls-1" d="M188.55,48.22c1.02-.06,2.13-.14,3.08-.26l.09,.69c-1.54,.2-3.58,.34-5.09,.34h-1.74l-.04-.71h1.82c.31,0,.66-.01,1.05-.02v-1.41c-1.26-.11-2.17-.78-2.17-1.88v-.19c0-1.22,1.1-1.89,2.54-1.89s2.52,.67,2.52,1.89v.19c0,1.08-.87,1.74-2.06,1.87v1.39Zm2.56-6.73v.67h-6.08v-.67h2.63v-1.29h.82v1.29h2.62Zm-4.76,3.47c0,.77,.75,1.24,1.74,1.24s1.72-.47,1.72-1.24v-.15c0-.77-.74-1.25-1.72-1.25s-1.74,.48-1.74,1.25v.15Zm8.74-.68v.71h-1.65v5.36h-.81v-10.15h.81v4.08h1.65Z"/>
      <path class="cls-1" d="M199.03,43.62c-.53,.8-1.4,1.51-2.62,2.18l-.4-.63c1.81-1.03,2.83-2.08,2.83-3.58v-.15h-2.4v-.7h5.63v.7h-2.43v.15c0,.5-.08,.95-.25,1.38l3.09,2.02-.42,.65-3.02-2.02Zm3.43,2.74c1.56,0,2.47,.9,2.47,2.05s-.92,2.04-2.47,2.04h-2.22c-1.56,0-2.47-.88-2.47-2.04s.92-2.05,2.47-2.05h2.22Zm-.16,3.38c1.22,0,1.81-.57,1.81-1.34s-.58-1.33-1.81-1.33h-1.9c-1.22,0-1.82,.59-1.82,1.33s.59,1.34,1.82,1.34h1.9Zm-.62-7.23h2.28v-2.31h.81v5.54h-.81v-2.54h-2.28v-.69Z"/>
      <path class="cls-1" d="M211.5,45.79l-2.31-1.84c-.42,.77-1.14,1.42-2.2,2.06l-.4-.6c1.5-.95,2.25-1.94,2.27-3.29h-1.95v-.7h1.95v-1.35h.79v1.35h1.99v.7h-1.99c0,.42-.06,.79-.17,1.16l2.48,1.93-.46,.59Zm-2.67,1.77v-.73h6.92v3.61h-.81v-2.88h-6.11Zm6.13-7.37h.79v5.93h-.79v-2.73h-1.59v2.73h-.79v-5.82h.79v2.39h1.59v-2.5Z"/>
      <path class="cls-1" d="M225.3,44.73h4.92v.7h-9.89v-.7h4.15v-2.1h.81v2.1Zm1.11,1.89c1.74,0,2.65,.84,2.65,1.91s-.92,1.91-2.65,1.91h-2.27c-1.73,0-2.64-.82-2.64-1.91s.92-1.91,2.64-1.91h2.27Zm1.22-2.66c.23-1.06,.34-2.18,.34-2.7h-6.32v-.72h7.13v.53c0,.8-.13,1.91-.37,2.99l-.79-.11Zm-1.42,5.8c1.36,0,2.03-.5,2.03-1.23s-.66-1.21-2.03-1.21h-1.88c-1.36,0-2.03,.51-2.03,1.21s.66,1.23,2.03,1.23h1.88Z"/>
      <path class="cls-1" d="M236.54,45.05h4.53v.69h-9.89v-.69h4.54v-1.11h-3.16v-3.5h7.02v.68h-6.2v2.12h6.32v.69h-3.16v1.11Zm.74,1.78c1.73,0,2.63,.77,2.63,1.8s-.9,1.81-2.63,1.81h-2.31c-1.72,0-2.62-.76-2.62-1.81s.9-1.8,2.62-1.8h2.31Zm-.18,2.93c1.35,0,1.99-.45,1.99-1.12s-.64-1.1-1.99-1.1h-1.95c-1.35,0-1.99,.43-1.99,1.1s.64,1.12,1.99,1.12h1.95Z"/>
      <path class="cls-1" d="M245.28,43.49c-.54,.8-1.44,1.5-2.72,2.16l-.38-.65c1.85-.99,2.9-2.01,2.9-3.44v-.11h-2.47v-.7h5.76v.7h-2.48v.11c0,.46-.08,.88-.24,1.29l3.15,1.92-.4,.66-3.1-1.94Zm4.85,3.96v-1.35h.81v4.25h-6.79v-4.25h.81v1.35h5.16Zm-5.16,2.18h5.16v-1.47h-5.16v1.47Zm5.16-9.44h.81v5.29h-.81v-5.29Z"/>
      <path class="cls-1" d="M257.92,41.23v.66h-5v-.66h2.08v-1.17h.82v1.17h2.09Zm-.41,3.08c0,1.08-.86,1.66-2.07,1.66s-2.09-.58-2.09-1.66v-.15c0-1.07,.86-1.65,2.09-1.65s2.07,.58,2.07,1.65v.15Zm-3.4-.02c0,.63,.53,1.01,1.33,1.01s1.3-.38,1.3-1.01v-.1c0-.61-.53-1.01-1.3-1.01s-1.33,.41-1.33,1.01v.1Zm5.49,2.4c1.57,0,2.48,.8,2.48,1.88s-.92,1.88-2.48,1.88h-2.3c-1.58,0-2.5-.78-2.5-1.88s.92-1.88,2.5-1.88h2.3Zm-.17,3.06c1.25,0,1.83-.48,1.83-1.18s-.58-1.17-1.83-1.17h-1.97c-1.24,0-1.83,.48-1.83,1.17s.6,1.18,1.83,1.18h1.97Zm.11-6.24v2.46h-.78v-5.67h.78v2.49h1.6v-2.6h.79v5.89h-.79v-2.57h-1.6Z"/>
      <path class="cls-1" d="M264.45,41.78v-.71h4.99v.78c0,2.87-1.79,5.38-4.67,7.22l-.48-.62c2.68-1.67,4.33-4.07,4.33-6.45v-.22h-4.17Zm7.39-1.58h.81v10.15h-.81v-10.15Z"/>
      <path class="cls-1" d="M284.46,45.67v.73h-4.53v4.07h-.81v-4.07h-4.54v-.73h7.21c.27-1.46,.46-3.06,.46-3.95v-.23h-6.54v-.73h7.35v.78c0,1.16-.18,2.68-.45,4.13h1.85Z"/>
      <path class="cls-1" d="M147.83,72.02v2.99h-3.11v-2.99h3.11Z"/>
      <path class="cls-1" d="M155.84,71.09c0,.88-.11,1.71-.33,2.5l3.16,3.73-.61,.51-2.85-3.37c-.49,1.22-1.29,2.37-2.42,3.48l-.57-.53c1.87-1.84,2.82-3.77,2.82-6.31v-1.28h.8v1.28Zm6.72,2.07v.73h-1.75v5.46h-.82v-10.15h.82v3.97h1.75Z"/>
      <path class="cls-1" d="M167.26,77.21c1.04-.05,2.17-.14,3.16-.26l.09,.69c-1.59,.22-3.66,.35-5.22,.35h-1.83l-.05-.73h1.92c.32,0,.7-.01,1.1-.02v-1.41c-1.26-.12-2.17-.78-2.17-1.87v-.19c0-1.22,1.13-1.89,2.6-1.89s2.56,.67,2.56,1.89v.19c0,1.1-.93,1.76-2.16,1.87v1.38Zm2.68-6.72v.67h-6.19v-.67h2.68v-1.29h.82v1.29h2.69Zm-4.88,3.47c0,.77,.78,1.24,1.8,1.24s1.76-.47,1.76-1.24v-.15c0-.77-.78-1.25-1.76-1.25s-1.8,.48-1.8,1.25v.15Zm6.36-4.76h.81v10.15h-.81v-10.15Z"/>
      <path class="cls-1" d="M174.17,74.65h9.89v.73h-4.53v2.01h-.81v-2.01h-4.54v-.73Zm2.15,1.75v2.22h6.64v.73h-7.46v-2.95h.82Zm6.36-6.95v3.96h-7.13v-3.96h7.13Zm-.82,3.25v-2.54h-5.49v2.54h5.49Z"/>
      <path class="cls-1" d="M188.55,77.22c1.02-.06,2.13-.14,3.08-.26l.09,.69c-1.54,.2-3.58,.34-5.09,.34h-1.74l-.04-.71h1.82c.31,0,.66-.01,1.05-.02v-1.41c-1.26-.11-2.17-.78-2.17-1.88v-.19c0-1.22,1.1-1.89,2.54-1.89s2.52,.67,2.52,1.89v.19c0,1.08-.87,1.74-2.06,1.87v1.39Zm2.56-6.73v.67h-6.08v-.67h2.63v-1.29h.82v1.29h2.62Zm-4.76,3.47c0,.77,.75,1.24,1.74,1.24s1.72-.47,1.72-1.24v-.15c0-.77-.74-1.25-1.72-1.25s-1.74,.48-1.74,1.25v.15Zm8.74-.68v.71h-1.65v5.36h-.81v-10.15h.81v4.08h1.65Z"/>
      <path class="cls-1" d="M195.86,74.91h9.89v.73h-4.53v1.75h-.81v-1.75h-4.54v-.73Zm2.15,1.69v2.01h6.64v.73h-7.46v-2.74h.82Zm6.36-7.22v4.32h-7.13v-4.32h.81v1.5h5.49v-1.5h.82Zm-6.32,3.64h5.49v-1.45h-5.49v1.45Z"/>
      <path class="cls-1" d="M212.17,73.11v1.52c0,2.41-1.19,3.37-2.66,3.37s-2.67-.96-2.67-3.37v-1.52c0-2.41,1.19-3.37,2.67-3.37s2.66,.96,2.66,3.37Zm-.82,0c0-1.89-.78-2.64-1.83-2.64s-1.85,.75-1.85,2.64v1.51c0,1.89,.79,2.65,1.85,2.65s1.83-.76,1.83-2.65v-1.51Zm5.46-.81h-1.76v2.67h1.76v.73h-1.76v3.65h-.81v-10.15h.81v2.38h1.76v.73Z"/>
      <path class="cls-1" d="M226.74,73.91c-1.27,.21-2.96,.36-4.5,.36h-1.6v-4.53h.82v3.81h.93c1.25,0,2.91-.14,4.25-.33l.1,.69Zm-4.65,5.43v-3.93h6.58v3.93h-6.58Zm.82-3.22v2.51h4.93v-2.51h-4.93Zm7.51-4.65v.71h-1.75v2.51h-.82v-5.5h.82v2.28h1.75Z"/>
      <path class="cls-1" d="M241.07,75.09h-4.53v1.29h3.26v3.08h-.82v-2.38h-6.51v-.7h3.26v-1.29h-4.54v-.69h9.89v.69Zm-1.37-5.7v3.92h-7.13v-3.92h.81v1.3h5.49v-1.3h.82Zm-6.32,3.25h5.49v-1.28h-5.49v1.28Z"/>
      <path class="cls-1" d="M252.92,69.19h.81v5.36h-.81v-2.37h-2.5v1.95h-5.05v-4.44h.79v1.47h3.47v-1.47h.79v1.78h2.5v-2.28Zm-6.75,4.22h3.47v-1.55h-3.47v1.55Zm6.75,3.07v-1.34h.81v4.2h-6.79v-4.2h.81v1.34h5.16Zm-5.16,2.15h5.16v-1.45h-5.16v1.45Z"/>
      <path class="cls-1" d="M258.56,71.45c0,.8-.08,1.56-.25,2.28l2.53,3.64-.65,.45-2.16-3.11c-.4,1.11-1.02,2.17-1.85,3.23l-.63-.48c1.44-1.82,2.24-3.56,2.24-6.01v-.67h-1.88v-.71h4.57v.71h-1.91v.67Zm3.07,1.62v-3.71h.79v9.8h-.79v-5.38h-1.87v-.71h1.87Zm2.28-3.87h.8v10.15h-.8v-10.15Z"/>
      <path class="cls-1" d="M270.04,77.22c1.02-.06,2.13-.14,3.08-.26l.09,.69c-1.54,.2-3.58,.34-5.09,.34h-1.74l-.04-.71h1.82c.31,0,.66-.01,1.05-.02v-1.41c-1.26-.11-2.17-.78-2.17-1.88v-.19c0-1.22,1.1-1.89,2.54-1.89s2.52,.67,2.52,1.89v.19c0,1.08-.87,1.74-2.06,1.87v1.39Zm2.56-6.73v.67h-6.08v-.67h2.63v-1.29h.82v1.29h2.62Zm-4.76,3.47c0,.77,.75,1.24,1.74,1.24s1.72-.47,1.72-1.24v-.15c0-.77-.74-1.25-1.72-1.25s-1.74,.48-1.74,1.25v.15Zm8.74-.68v.71h-1.65v5.36h-.81v-10.15h.81v4.08h1.65Z"/>
      <path class="cls-1" d="M147.83,101.02v2.99h-3.11v-2.99h3.11Z"/>
      <path class="cls-1" d="M155.84,100.09c0,.88-.11,1.71-.33,2.5l3.16,3.73-.61,.51-2.85-3.37c-.49,1.22-1.29,2.37-2.42,3.48l-.57-.53c1.87-1.84,2.82-3.77,2.82-6.31v-1.28h.8v1.28Zm6.72,2.07v.73h-1.75v5.46h-.82v-10.15h.82v3.97h1.75Z"/>
      <path class="cls-1" d="M167.26,106.21c1.04-.05,2.17-.14,3.16-.26l.09,.69c-1.59,.22-3.66,.35-5.22,.35h-1.83l-.05-.73h1.92c.32,0,.7-.01,1.1-.02v-1.41c-1.26-.12-2.17-.78-2.17-1.87v-.19c0-1.22,1.13-1.89,2.6-1.89s2.56,.67,2.56,1.89v.19c0,1.1-.93,1.76-2.16,1.87v1.38Zm2.68-6.72v.67h-6.19v-.67h2.68v-1.29h.82v1.29h2.69Zm-4.88,3.47c0,.77,.78,1.24,1.8,1.24s1.76-.47,1.76-1.24v-.15c0-.77-.78-1.25-1.76-1.25s-1.8,.48-1.8,1.25v.15Zm6.36-4.76h.81v10.15h-.81v-10.15Z"/>
      <path class="cls-1" d="M174.17,103.65h9.89v.73h-4.53v2.01h-.81v-2.01h-4.54v-.73Zm2.15,1.75v2.22h6.64v.73h-7.46v-2.95h.82Zm6.36-6.95v3.96h-7.13v-3.96h7.13Zm-.82,3.25v-2.54h-5.49v2.54h5.49Z"/>
      <path class="cls-1" d="M188.55,106.22c1.02-.06,2.13-.14,3.08-.26l.09,.69c-1.54,.2-3.58,.34-5.09,.34h-1.74l-.04-.71h1.82c.31,0,.66-.01,1.05-.02v-1.41c-1.26-.11-2.17-.78-2.17-1.88v-.19c0-1.22,1.1-1.89,2.54-1.89s2.52,.67,2.52,1.89v.19c0,1.08-.87,1.74-2.06,1.87v1.39Zm2.56-6.73v.67h-6.08v-.67h2.63v-1.29h.82v1.29h2.62Zm-4.76,3.47c0,.77,.75,1.24,1.74,1.24s1.72-.47,1.72-1.24v-.15c0-.77-.74-1.25-1.72-1.25s-1.74,.48-1.74,1.25v.15Zm8.74-.68v.71h-1.65v5.36h-.81v-10.15h.81v4.08h1.65Z"/>
      <path class="cls-1" d="M198.77,100.45c0,.8-.08,1.56-.25,2.28l2.53,3.64-.65,.45-2.16-3.11c-.4,1.11-1.02,2.17-1.85,3.23l-.63-.48c1.44-1.82,2.24-3.56,2.24-6.01v-.67h-1.88v-.71h4.57v.71h-1.91v.67Zm3.07,1.62v-3.71h.79v9.8h-.79v-5.38h-1.87v-.71h1.87Zm2.28-3.87h.8v10.15h-.8v-10.15Z"/>
      <path class="cls-1" d="M212.06,106.81h4.53v.73h-9.89v-.73h4.54v-2.66h-3.26v-5.2h7.23v.71h-6.42v3.78h6.52v.7h-3.26v2.66Z"/>
      <path class="cls-1" d="M217.69,106.67l-.05-.73h1.92c1.3,0,3.42-.12,5.08-.32l.09,.69c-1.59,.22-3.66,.35-5.22,.35h-1.83Zm.56-5.07v-.23c0-1.78,1.24-2.63,2.77-2.63s2.76,.85,2.76,2.63v.23c0,1.78-1.25,2.63-2.76,2.63s-2.77-.85-2.77-2.63Zm4.7-.01v-.21c0-1.28-.82-1.93-1.93-1.93s-1.95,.65-1.95,1.93v.21c0,1.26,.82,1.91,1.95,1.91s1.93-.65,1.93-1.91Zm2.7,6.75v-10.15h.81v10.15h-.81Z"/>
      <path class="cls-1" d="M237.59,103.62c-1.25,.2-2.93,.35-4.45,.35h-1.65v-5.17h4.97v.7h-4.15v3.75h.97c1.26,0,2.88-.13,4.22-.33l.09,.69Zm-3.82,1.64v2.37h6.35v.73h-7.17v-3.09h.82Zm5.76-4.37h1.75v.73h-1.75v4.29h-.82v-7.71h.82v2.7Z"/>
      <path class="cls-1" d="M242.49,100.73v-.18c0-1.43,1.22-2.13,2.76-2.13s2.74,.7,2.74,2.13v.18c0,1.42-1.22,2.13-2.74,2.13s-2.76-.72-2.76-2.13Zm4.68-.02v-.14c0-.92-.81-1.44-1.92-1.44s-1.93,.52-1.93,1.44v.14c0,.95,.8,1.44,1.93,1.44s1.92-.5,1.92-1.44Zm-3,7.69v-2.63h5.97v-1.21h-6.02v-.67h6.83v2.56h-5.96v1.25h6.41v.69h-7.23Zm5.97-5.24v-4.97h.81v4.97h-.81Z"/>
      <path class="cls-1" d="M256.41,106.22c1.02-.06,2.13-.14,3.08-.26l.09,.69c-1.54,.2-3.58,.34-5.09,.34h-1.74l-.03-.71h1.82c.31,0,.66-.01,1.05-.02v-1.41c-1.26-.11-2.17-.78-2.17-1.88v-.19c0-1.22,1.1-1.89,2.54-1.89s2.52,.67,2.52,1.89v.19c0,1.08-.87,1.74-2.06,1.87v1.39Zm2.56-6.73v.67h-6.08v-.67h2.63v-1.29h.82v1.29h2.62Zm-4.76,3.47c0,.77,.75,1.24,1.74,1.24s1.72-.47,1.72-1.24v-.15c0-.77-.74-1.25-1.72-1.25s-1.74,.48-1.74,1.25v.15Zm8.74-.68v.71h-1.65v5.36h-.81v-10.15h.81v4.08h1.65Z"/>
      <path class="cls-1" d="M146.55,135.62h4.42v1h-9.98v-1h4.43v-2.5h1.13v2.5Zm-.79-4.76c-.72,.94-1.93,1.8-3.74,2.59l-.51-.95c2.8-1.24,3.96-2.55,3.96-4.02v-.77h1.14v.77c0,.51-.09,.99-.3,1.46l4.14,2.59-.62,.91-4.07-2.59Z"/>
      <path class="cls-1" d="M157.68,129.64v-2.31h1.09v9.85h-1.09v-3.37h-1.8v-.97h1.8v-2.23h-1.56c-.4,2.13-1.54,3.97-3.25,5.56l-.83-.79c2.06-1.83,3.12-4.11,3.12-6.27v-.12h-2.87v-1h3.99v.9c0,.25-.01,.51-.03,.76h1.43Zm2.3-2.46h1.12v10.21h-1.12v-10.21Z"/>
      <path class="cls-1" d="M147.83,159.02v2.99h-3.11v-2.99h3.11Z"/>
      <path class="cls-1" d="M155.84,158.09c0,.88-.11,1.71-.33,2.5l3.16,3.73-.61,.51-2.85-3.37c-.49,1.22-1.29,2.37-2.42,3.48l-.57-.53c1.87-1.84,2.82-3.77,2.82-6.31v-1.28h.8v1.28Zm6.72,2.07v.73h-1.75v5.46h-.82v-10.15h.82v3.97h1.75Z"/>
      <path class="cls-1" d="M167.26,164.21c1.04-.05,2.17-.14,3.16-.26l.09,.69c-1.59,.22-3.66,.35-5.22,.35h-1.83l-.05-.73h1.92c.32,0,.7-.01,1.1-.02v-1.41c-1.26-.12-2.17-.78-2.17-1.87v-.19c0-1.22,1.13-1.89,2.6-1.89s2.56,.67,2.56,1.89v.19c0,1.1-.93,1.76-2.16,1.87v1.38Zm2.68-6.72v.67h-6.19v-.67h2.68v-1.29h.82v1.29h2.69Zm-4.88,3.47c0,.77,.78,1.24,1.8,1.24s1.76-.47,1.76-1.24v-.15c0-.77-.78-1.25-1.76-1.25s-1.8,.48-1.8,1.25v.15Zm6.36-4.76h.81v10.15h-.81v-10.15Z"/>
      <path class="cls-1" d="M174.17,161.65h9.89v.73h-4.53v2.01h-.81v-2.01h-4.54v-.73Zm2.15,1.75v2.22h6.64v.73h-7.46v-2.95h.82Zm6.36-6.95v3.96h-7.13v-3.96h7.13Zm-.82,3.25v-2.54h-5.49v2.54h5.49Z"/>
      <path class="cls-1" d="M188.55,164.22c1.02-.06,2.13-.14,3.08-.26l.09,.69c-1.54,.2-3.58,.34-5.09,.34h-1.74l-.04-.71h1.82c.31,0,.66-.01,1.05-.02v-1.41c-1.26-.11-2.17-.78-2.17-1.88v-.19c0-1.22,1.1-1.89,2.54-1.89s2.52,.67,2.52,1.89v.19c0,1.08-.87,1.74-2.06,1.87v1.39Zm2.56-6.73v.67h-6.08v-.67h2.63v-1.29h.82v1.29h2.62Zm-4.76,3.47c0,.77,.75,1.24,1.74,1.24s1.72-.47,1.72-1.24v-.15c0-.77-.74-1.25-1.72-1.25s-1.74,.48-1.74,1.25v.15Zm8.74-.68v.71h-1.65v5.36h-.81v-10.15h.81v4.08h1.65Z"/>
      <path class="cls-1" d="M199.1,159.43v-.23c0-1.8,1.24-2.67,2.76-2.67s2.74,.87,2.74,2.67v.23c0,1.79-1.24,2.65-2.74,2.65s-2.76-.86-2.76-2.65Zm4.68-.01v-.22c0-1.3-.82-1.97-1.92-1.97s-1.93,.67-1.93,1.97v.22c0,1.3,.82,1.96,1.93,1.96s1.92-.66,1.92-1.96Zm-3,6.93v-3.25h.82v2.52h6.47v.73h-7.29Zm5.97-2.44v-7.71h.82v7.71h-.82Z"/>
      <path class="cls-1" d="M212.66,159.68c-.53,.83-1.4,1.54-2.62,2.23l-.4-.63c1.81-1.07,2.83-2.13,2.83-3.67v-.15h-2.4v-.71h5.62v.71h-2.41v.15c0,.51-.09,.98-.26,1.42l3.1,2.09-.42,.64-3.02-2.08Zm-1.16,3.66v-.71h6.9v3.82h-.81v-3.1h-6.09Zm6.09-7.14h.81v5.71h-.81v-2.6h-2.28v-.7h2.28v-2.41Z"/>
      <path class="cls-1" d="M229.82,161.62c-1.54,.21-3.58,.34-5.09,.34h-1.74l-.03-.69h1.82c.3,0,.63-.01,1-.02v-1.11c-1.33-.1-2.33-.69-2.33-1.75v-.13c0-1.18,1.2-1.77,2.71-1.77s2.71,.59,2.71,1.77v.13c0,1.03-.97,1.63-2.27,1.74v1.09c1.03-.06,2.16-.14,3.14-.26l.09,.67Zm-5.58-3.26c0,.69,.79,1.1,1.91,1.1s1.9-.41,1.9-1.1v-.09c0-.7-.79-1.11-1.9-1.11s-1.91,.41-1.91,1.11v.09Zm5,4.42c1.56,0,2.47,.77,2.47,1.84s-.92,1.83-2.47,1.83h-2.2c-1.56,0-2.47-.75-2.47-1.83s.92-1.84,2.47-1.84h2.2Zm-.16,2.97c1.21,0,1.81-.46,1.81-1.13s-.59-1.14-1.81-1.14h-1.87c-1.24,0-1.83,.47-1.83,1.14s.6,1.13,1.83,1.13h1.87Zm2.47-6.76h1.65v.73h-1.65v2.55h-.81v-6.07h.81v2.79Z"/>
      <path class="cls-1" d="M235.85,164.16c1.14,0,1.99-.08,3.06-.24l.09,.69c-1,.18-1.88,.26-3.29,.26h-1.37v-4.35h3.11v-2.8h-3.11v-.72h3.91v4.24h-3.12v2.92h.72Zm6.37-7.96h.8v10.15h-.8v-5.46h-1.64v5.27h-.8v-9.8h.8v3.81h1.64v-3.97Z"/>
      <path class="cls-1" d="M147.83,188.02v2.99h-3.11v-2.99h3.11Z"/>
      <path class="cls-1" d="M155.84,187.09c0,.88-.11,1.71-.33,2.5l3.16,3.73-.61,.51-2.85-3.37c-.49,1.22-1.29,2.37-2.42,3.48l-.57-.53c1.87-1.84,2.82-3.77,2.82-6.31v-1.28h.8v1.28Zm6.72,2.07v.73h-1.75v5.46h-.82v-10.15h.82v3.97h1.75Z"/>
      <path class="cls-1" d="M167.26,193.21c1.04-.05,2.17-.14,3.16-.26l.09,.69c-1.59,.22-3.66,.35-5.22,.35h-1.83l-.05-.73h1.92c.32,0,.7-.01,1.1-.02v-1.41c-1.26-.12-2.17-.78-2.17-1.87v-.19c0-1.22,1.13-1.89,2.6-1.89s2.56,.67,2.56,1.89v.19c0,1.1-.93,1.76-2.16,1.87v1.38Zm2.68-6.72v.67h-6.19v-.67h2.68v-1.29h.82v1.29h2.69Zm-4.88,3.47c0,.77,.78,1.24,1.8,1.24s1.76-.47,1.76-1.24v-.15c0-.77-.78-1.25-1.76-1.25s-1.8,.48-1.8,1.25v.15Zm6.36-4.76h.81v10.15h-.81v-10.15Z"/>
      <path class="cls-1" d="M174.17,190.65h9.89v.73h-4.53v2.01h-.81v-2.01h-4.54v-.73Zm2.15,1.75v2.22h6.64v.73h-7.46v-2.95h.82Zm6.36-6.95v3.96h-7.13v-3.96h7.13Zm-.82,3.25v-2.54h-5.49v2.54h5.49Z"/>
      <path class="cls-1" d="M188.55,193.22c1.02-.06,2.13-.14,3.08-.26l.09,.69c-1.54,.2-3.58,.34-5.09,.34h-1.74l-.04-.71h1.82c.31,0,.66-.01,1.05-.02v-1.41c-1.26-.11-2.17-.78-2.17-1.88v-.19c0-1.22,1.1-1.89,2.54-1.89s2.52,.67,2.52,1.89v.19c0,1.08-.87,1.74-2.06,1.87v1.39Zm2.56-6.73v.67h-6.08v-.67h2.63v-1.29h.82v1.29h2.62Zm-4.76,3.47c0,.77,.75,1.24,1.74,1.24s1.72-.47,1.72-1.24v-.15c0-.77-.74-1.25-1.72-1.25s-1.74,.48-1.74,1.25v.15Zm8.74-.68v.71h-1.65v5.36h-.81v-10.15h.81v4.08h1.65Z"/>
      <path class="cls-1" d="M204.54,193.81h3.99v.73h-9.89v-.73h2.43v-4.2h.79v4.2h1.89v-4.2h.79v4.2Zm1.97-7.04h-6.75v-.72h7.56v.86c0,1.43-.25,3.37-.58,5.1l-.8-.14c.33-1.71,.57-3.67,.57-4.79v-.32Z"/>
      <path class="cls-1" d="M219.38,191.85v.7h-2.64v2.92h-.82v-2.92h-2.94v2.92h-.82v-2.92h-2.66v-.7h9.89Zm-2.09-4.04v-1.39h-6.57v-.69h7.39v2.75h-6.52v1.42h6.75v.67h-7.56v-2.76h6.51Z"/>
      <path class="cls-1" d="M226.5,186.2v.67h-5.88v-.67h2.52v-1.14h.84v1.14h2.53Zm-.48,3.01c0,1.06-1.06,1.63-2.45,1.63s-2.45-.57-2.45-1.63v-.14c0-1.04,1.05-1.62,2.45-1.62s2.45,.57,2.45,1.62v.14Zm-4.12-.01c0,.58,.72,.97,1.67,.97s1.66-.38,1.66-.97v-.11c0-.58-.72-.97-1.66-.97s-1.67,.38-1.67,.97v.11Zm6.54,3.42v-1.21h.81v3.92h-6.79v-3.92h.81v1.21h5.16Zm-5.16,2.01h5.16v-1.31h-5.16v1.31Zm5.16-9.45h.81v5.62h-.81v-.8h-1.95v-.66h1.95v-1.2h-1.95v-.65h1.95v-2.31Z"/>
      <path class="cls-1" d="M237.6,190.43c-1.16,.19-2.61,.33-4.13,.33h-1.66v-2.9h3.83v-1.42h-3.83v-.69h4.64v2.81h-3.83v1.51h1.01c1.24,0,2.66-.12,3.89-.31l.09,.68Zm-4.39,2.13v-.73h6.9v3.61h-.81v-2.88h-6.09Zm6.09-7.36h.81v5.92h-.81v-1.96h-1.95v-.66h1.95v-1.25h-1.95v-.65h1.95v-1.4Z"/>
      <path class="cls-1" d="M245.39,187.09c0,.88-.11,1.71-.33,2.5l3.16,3.73-.61,.51-2.85-3.37c-.49,1.22-1.29,2.37-2.41,3.48l-.57-.53c1.87-1.84,2.81-3.77,2.81-6.31v-1.28h.8v1.28Zm6.72,2.07v.73h-1.75v5.46h-.82v-10.15h.82v3.97h1.75Z"/>
      <path class="cls-1" d="M260.98,185.19h.82v5.3h-.82v-2.31h-2.17c-.14,1.33-1.3,2-2.72,2-1.52,0-2.75-.76-2.75-2.27v-.19c0-1.52,1.22-2.27,2.75-2.27,1.42,0,2.59,.66,2.72,2h2.17v-2.28Zm-2.98,2.55c0-1.02-.81-1.56-1.92-1.56s-1.92,.54-1.92,1.56v.17c0,1.01,.8,1.56,1.92,1.56s1.92-.55,1.92-1.56v-.17Zm2.98,4.71v-1.35h.82v4.25h-6.79v-4.25h.81v1.35h5.15Zm-5.15,2.18h5.15v-1.47h-5.15v1.47Z"/>
      <path class="cls-1" d="M266.78,184.49l.56,.48c-1.52,1.64-2.22,3.44-2.22,5.37s.7,3.73,2.22,5.37l-.56,.48c-1.58-1.64-2.46-3.56-2.46-5.85s.88-4.21,2.46-5.85Z"/>
      <path class="cls-1" d="M273.08,189.73h4.92v.7h-9.89v-.7h4.15v-2.1h.81v2.1Zm1.11,1.89c1.74,0,2.66,.84,2.66,1.91s-.92,1.91-2.66,1.91h-2.27c-1.73,0-2.64-.82-2.64-1.91s.92-1.91,2.64-1.91h2.27Zm1.22-2.66c.23-1.06,.34-2.18,.34-2.7h-6.32v-.72h7.13v.53c0,.8-.13,1.91-.37,2.99l-.79-.11Zm-1.42,5.8c1.36,0,2.03-.5,2.03-1.23s-.66-1.21-2.03-1.21h-1.88c-1.36,0-2.03,.51-2.03,1.21s.66,1.23,2.03,1.23h1.88Z"/>
      <path class="cls-1" d="M284.32,190.05h4.53v.69h-9.89v-.69h4.54v-1.11h-3.16v-3.5h7.02v.68h-6.2v2.12h6.32v.69h-3.16v1.11Zm.74,1.78c1.73,0,2.63,.77,2.63,1.8s-.9,1.81-2.63,1.81h-2.31c-1.72,0-2.62-.76-2.62-1.81s.9-1.8,2.62-1.8h2.31Zm-.18,2.93c1.35,0,1.99-.45,1.99-1.12s-.64-1.1-1.99-1.1h-1.95c-1.35,0-1.99,.43-1.99,1.1s.64,1.12,1.99,1.12h1.95Z"/>
      <path class="cls-1" d="M294.86,186.23v.66h-5v-.66h2.08v-1.17h.82v1.17h2.09Zm-.41,3.08c0,1.08-.86,1.66-2.07,1.66s-2.09-.58-2.09-1.66v-.15c0-1.07,.86-1.65,2.09-1.65s2.07,.58,2.07,1.65v.15Zm-3.4-.02c0,.63,.53,1.01,1.33,1.01s1.3-.38,1.3-1.01v-.1c0-.61-.53-1.01-1.3-1.01s-1.33,.41-1.33,1.01v.1Zm5.49,2.4c1.57,0,2.48,.8,2.48,1.88s-.92,1.88-2.48,1.88h-2.3c-1.58,0-2.5-.78-2.5-1.88s.92-1.88,2.5-1.88h2.3Zm-.17,3.06c1.25,0,1.83-.48,1.83-1.18s-.58-1.17-1.83-1.17h-1.97c-1.24,0-1.83,.48-1.83,1.17s.6,1.18,1.83,1.18h1.97Zm.11-6.24v2.46h-.78v-5.67h.78v2.49h1.6v-2.6h.79v5.89h-.79v-2.57h-1.6Z"/>
      <path class="cls-1" d="M304.02,187.09c0,.88-.11,1.71-.33,2.5l3.16,3.73-.61,.51-2.85-3.37c-.49,1.22-1.29,2.37-2.41,3.48l-.57-.53c1.87-1.84,2.81-3.77,2.81-6.31v-1.28h.8v1.28Zm6.72,2.07v.73h-1.75v5.46h-.82v-10.15h.82v3.97h1.75Z"/>
      <path class="cls-1" d="M311.88,196.19l-.56-.48c1.52-1.64,2.22-3.44,2.22-5.37s-.7-3.73-2.22-5.37l.56-.48c1.58,1.64,2.46,3.56,2.46,5.85s-.88,4.21-2.46,5.85Z"/>
      <path class="cls-1" d="M147.83,217.02v2.99h-3.11v-2.99h3.11Z"/>
      <path class="cls-1" d="M155.84,216.09c0,.88-.11,1.71-.33,2.5l3.16,3.73-.61,.51-2.85-3.37c-.49,1.22-1.29,2.37-2.42,3.48l-.57-.53c1.87-1.84,2.82-3.77,2.82-6.31v-1.28h.8v1.28Zm6.72,2.07v.73h-1.75v5.46h-.82v-10.15h.82v3.97h1.75Z"/>
      <path class="cls-1" d="M167.26,222.21c1.04-.05,2.17-.14,3.16-.26l.09,.69c-1.59,.22-3.66,.35-5.22,.35h-1.83l-.05-.73h1.92c.32,0,.7-.01,1.1-.02v-1.41c-1.26-.12-2.17-.78-2.17-1.87v-.19c0-1.22,1.13-1.89,2.6-1.89s2.56,.67,2.56,1.89v.19c0,1.1-.93,1.76-2.16,1.87v1.38Zm2.68-6.72v.67h-6.19v-.67h2.68v-1.29h.82v1.29h2.69Zm-4.88,3.47c0,.77,.78,1.24,1.8,1.24s1.76-.47,1.76-1.24v-.15c0-.77-.78-1.25-1.76-1.25s-1.8,.48-1.8,1.25v.15Zm6.36-4.76h.81v10.15h-.81v-10.15Z"/>
      <path class="cls-1" d="M174.17,219.65h9.89v.73h-4.53v2.01h-.81v-2.01h-4.54v-.73Zm2.15,1.75v2.22h6.64v.73h-7.46v-2.95h.82Zm6.36-6.95v3.96h-7.13v-3.96h7.13Zm-.82,3.25v-2.54h-5.49v2.54h5.49Z"/>
      <path class="cls-1" d="M188.55,222.22c1.02-.06,2.13-.14,3.08-.26l.09,.69c-1.54,.2-3.58,.34-5.09,.34h-1.74l-.04-.71h1.82c.31,0,.66-.01,1.05-.02v-1.41c-1.26-.11-2.17-.78-2.17-1.88v-.19c0-1.22,1.1-1.89,2.54-1.89s2.52,.67,2.52,1.89v.19c0,1.08-.87,1.74-2.06,1.87v1.39Zm2.56-6.73v.67h-6.08v-.67h2.63v-1.29h.82v1.29h2.62Zm-4.76,3.47c0,.77,.75,1.24,1.74,1.24s1.72-.47,1.72-1.24v-.15c0-.77-.74-1.25-1.72-1.25s-1.74,.48-1.74,1.25v.15Zm8.74-.68v.71h-1.65v5.36h-.81v-10.15h.81v4.08h1.65Z"/>
      <path class="cls-1" d="M204.54,222.81h3.99v.73h-9.89v-.73h2.43v-4.2h.79v4.2h1.89v-4.2h.79v4.2Zm1.97-7.04h-6.75v-.72h7.56v.86c0,1.43-.25,3.37-.58,5.1l-.8-.14c.33-1.71,.57-3.67,.57-4.79v-.32Z"/>
      <path class="cls-1" d="M219.38,220.85v.7h-2.64v2.92h-.82v-2.92h-2.94v2.92h-.82v-2.92h-2.66v-.7h9.89Zm-2.09-4.04v-1.39h-6.57v-.69h7.39v2.75h-6.52v1.42h6.75v.67h-7.56v-2.76h6.51Z"/>
      <path class="cls-1" d="M226.5,215.2v.67h-5.88v-.67h2.52v-1.14h.84v1.14h2.53Zm-.48,3.01c0,1.06-1.06,1.63-2.45,1.63s-2.45-.57-2.45-1.63v-.14c0-1.04,1.05-1.62,2.45-1.62s2.45,.57,2.45,1.62v.14Zm-4.12-.01c0,.58,.72,.97,1.67,.97s1.66-.38,1.66-.97v-.11c0-.58-.72-.97-1.66-.97s-1.67,.38-1.67,.97v.11Zm6.54,3.42v-1.21h.81v3.92h-6.79v-3.92h.81v1.21h5.16Zm-5.16,2.01h5.16v-1.31h-5.16v1.31Zm5.16-9.45h.81v5.62h-.81v-.8h-1.95v-.66h1.95v-1.2h-1.95v-.65h1.95v-2.31Z"/>
      <path class="cls-1" d="M237.6,219.43c-1.16,.19-2.61,.33-4.13,.33h-1.66v-2.9h3.83v-1.42h-3.83v-.69h4.64v2.81h-3.83v1.51h1.01c1.24,0,2.66-.12,3.89-.31l.09,.68Zm-4.39,2.13v-.73h6.9v3.61h-.81v-2.88h-6.09Zm6.09-7.36h.81v5.92h-.81v-1.96h-1.95v-.66h1.95v-1.25h-1.95v-.65h1.95v-1.4Z"/>
      <path class="cls-1" d="M242.75,215.78v-.71h4.99v.78c0,2.87-1.79,5.38-4.67,7.22l-.48-.62c2.68-1.67,4.33-4.07,4.33-6.45v-.22h-4.17Zm7.39-1.58h.81v10.15h-.81v-10.15Z"/>
      <path class="cls-1" d="M262.76,218.35v.71h-9.89v-.71h7.2c.23-1.17,.35-2.39,.35-3.03v-.05h-6.31v-.72h7.12v.61c0,.88-.13,2.05-.34,3.19h1.87Zm-8.61,6v-3.88h7.34v3.88h-7.34Zm.81-3.18v2.48h5.7v-2.48h-5.7Z"/>
      <path class="cls-1" d="M271.86,222.81h4.53v.73h-9.89v-.73h4.54v-2.5h.81v2.5Zm-4.66-2.94c2.62-1.17,3.89-2.43,3.89-3.92v-.3h-3.31v-.71h7.34v.71h-3.21v.3c0,.47-.09,.92-.29,1.35l4.05,2.6-.43,.64-4.01-2.57c-.67,.93-1.87,1.79-3.67,2.57l-.37-.67Z"/>
      <path class="cls-1" d="M280.46,217.45c-.53,.83-1.38,1.55-2.57,2.21l-.42-.64c1.84-1.04,2.83-2.22,2.83-3.81v-.66h.81v.66c0,.56-.09,1.08-.29,1.56l3.09,2.1-.44,.63-3.01-2.06Zm3.49,2.92c1.56,0,2.47,.9,2.47,2.05s-.92,2.04-2.47,2.04h-2.22c-1.56,0-2.47-.88-2.47-2.04s.92-2.05,2.47-2.05h2.22Zm-.16,3.38c1.22,0,1.81-.57,1.81-1.34s-.58-1.33-1.81-1.33h-1.9c-1.22,0-1.82,.59-1.82,1.33s.59,1.34,1.82,1.34h1.9Zm1.66-3.99v-2.81h-2.5v-.7h2.5v-2.04h.81v5.54h-.81Z"/>
      <path class="cls-1" d="M296.61,214.69v4.12h-5.05v-4.12h5.05Zm-.8,3.43v-2.74h-3.45v2.74h3.45Zm4.78,5.65l-.31,.67-3.95-1.57c-.7,.65-1.93,1.18-3.67,1.57l-.24-.68c2.31-.54,3.73-1.3,3.73-2.22h0s-3.19-.01-3.19-.01v-.69h3.19v-1.24h.84v1.24h3.09v.69h-3.09c0,.27-.07,.53-.19,.77l3.8,1.47Zm-.67-9.57v5.54h-.81v-5.54h.81Z"/>
      <path class="cls-1" d="M307.86,217.49c-.54,.8-1.44,1.5-2.72,2.16l-.38-.65c1.85-.99,2.9-2.01,2.9-3.44v-.11h-2.47v-.7h5.76v.7h-2.48v.11c0,.46-.08,.88-.24,1.29l3.15,1.92-.4,.66-3.1-1.94Zm4.85,3.96v-1.35h.81v4.25h-6.79v-4.25h.81v1.35h5.16Zm-5.16,2.18h5.16v-1.47h-5.16v1.47Zm5.16-9.44h.81v5.29h-.81v-5.29Z"/>
      <path class="cls-1" d="M320.5,215.23v.66h-5v-.66h2.08v-1.17h.82v1.17h2.09Zm-.41,3.08c0,1.08-.86,1.66-2.07,1.66s-2.09-.58-2.09-1.66v-.15c0-1.07,.86-1.65,2.09-1.65s2.07,.58,2.07,1.65v.15Zm-3.4-.02c0,.63,.53,1.01,1.33,1.01s1.3-.38,1.3-1.01v-.1c0-.61-.53-1.01-1.3-1.01s-1.33,.41-1.33,1.01v.1Zm5.49,2.4c1.57,0,2.48,.8,2.48,1.88s-.92,1.88-2.48,1.88h-2.3c-1.58,0-2.49-.78-2.49-1.88s.92-1.88,2.49-1.88h2.3Zm-.17,3.06c1.25,0,1.83-.48,1.83-1.18s-.58-1.17-1.83-1.17h-1.97c-1.24,0-1.83,.48-1.83,1.17s.6,1.18,1.83,1.18h1.97Zm.11-6.24v2.46h-.78v-5.67h.78v2.49h1.6v-2.6h.79v5.89h-.79v-2.57h-1.6Z"/>
      <path class="cls-1" d="M147.83,246.02v2.99h-3.11v-2.99h3.11Z"/>
      <path class="cls-1" d="M152.93,248.63v-1.52c0-2.41,1.22-3.37,2.71-3.37s2.71,.96,2.71,3.37v1.52c0,2.41-1.22,3.37-2.71,3.37s-2.71-.96-2.71-3.37Zm4.61-.01v-1.51c0-1.89-.81-2.64-1.9-2.64s-1.89,.75-1.89,2.64v1.51c0,1.89,.8,2.65,1.89,2.65s1.9-.76,1.9-2.65Zm3.03,4.73v-10.15h.82v10.15h-.82Z"/>
      <path class="cls-1" d="M166.12,246.82c-.53,.9-1.37,1.71-2.55,2.45l-.45-.61c1.84-1.2,2.83-2.52,2.83-4.27v-.79h.8v.79c0,.62-.1,1.19-.3,1.73l3.11,2.34-.47,.59-2.97-2.25Zm-.23,3.43v2.37h6.35v.73h-7.16v-3.09h.81Zm5.76-4.37h1.75v.73h-1.75v4.29h-.82v-7.71h.82v2.7Z"/>
      <path class="cls-1" d="M174.58,244.78v-.71h4.86v.78c0,2.87-1.74,5.37-4.54,7.22l-.49-.62c2.61-1.68,4.22-4.07,4.22-6.45v-.22h-4.05Zm9.68,2.39v.73h-1.75v5.46h-.82v-10.15h.82v3.97h1.75Z"/>
      <path class="cls-1" d="M190.37,248.23h4.53v.7h-9.89v-.7h4.54v-1.26h.81v1.26Zm-4.46-1.59c2.46-.63,3.72-1.5,3.72-2.49h0s-3.17-.01-3.17-.01v-.69h7.02v.69h-3.04c0,.35-.08,.68-.26,.99l3.83,1.52-.3,.65-4.01-1.58c-.67,.64-1.84,1.15-3.56,1.58l-.23-.66Zm.39,4.24v-.71h7.34v3.3h-.82v-2.58h-6.51Z"/>
      <path class="cls-1" d="M201.45,246.45c-.53,.83-1.38,1.55-2.59,2.21l-.41-.64c1.84-1.04,2.83-2.22,2.83-3.78v-.68h.8v.68c0,.55-.09,1.06-.29,1.54l3.1,2.05-.45,.63-3-2Zm3.33,2.92c1.54,0,2.46,.9,2.46,2.05s-.92,2.04-2.46,2.04h-2.14c-1.53,0-2.46-.88-2.46-2.04s.93-2.05,2.46-2.05h2.14Zm-.16,3.38c1.21,0,1.8-.57,1.8-1.34s-.58-1.33-1.8-1.33h-1.82c-1.21,0-1.8,.59-1.8,1.33s.58,1.34,1.8,1.34h1.82Zm2.36-7.27h1.75v.71h-1.75v2.56h-.82v-5.54h.82v2.27Z"/>
      <path class="cls-1" d="M214.84,248.32h4.53v.69h-9.89v-.69h4.54v-1.07h-3.16v-3.86h.81v1.28h5.49v-1.28h.82v3.86h-3.16v1.07Zm.77,1.74c1.72,0,2.61,.69,2.61,1.69s-.89,1.71-2.61,1.71h-2.36c-1.71,0-2.6-.69-2.6-1.71s.89-1.69,2.6-1.69h2.36Zm-.18,2.71c1.34,0,1.97-.39,1.97-1.01s-.63-1.01-1.97-1.01h-1.99c-1.34,0-1.97,.38-1.97,1.01s.63,1.01,1.97,1.01h1.99Zm-3.74-7.43v1.24h5.49v-1.24h-5.49Z"/>
      <path class="cls-1" d="M220.47,251.67l-.05-.73h1.92c1.3,0,3.42-.12,5.08-.32l.09,.69c-1.59,.22-3.66,.35-5.22,.35h-1.83Zm.56-5.07v-.23c0-1.78,1.24-2.63,2.77-2.63s2.76,.85,2.76,2.63v.23c0,1.78-1.25,2.63-2.76,2.63s-2.77-.85-2.77-2.63Zm4.7-.01v-.21c0-1.28-.82-1.93-1.93-1.93s-1.95,.65-1.95,1.93v.21c0,1.26,.82,1.91,1.95,1.91s1.93-.65,1.93-1.91Zm2.7,6.75v-10.15h.81v10.15h-.81Z"/>
      <path class="cls-1" d="M236.77,246.45c-.53,.83-1.38,1.55-2.59,2.21l-.41-.64c1.84-1.04,2.83-2.22,2.83-3.78v-.68h.8v.68c0,.55-.09,1.06-.29,1.54l3.1,2.05-.45,.63-3-2Zm3.33,2.92c1.54,0,2.46,.9,2.46,2.05s-.92,2.04-2.46,2.04h-2.14c-1.53,0-2.46-.88-2.46-2.04s.93-2.05,2.46-2.05h2.14Zm-.16,3.38c1.21,0,1.8-.57,1.8-1.34s-.58-1.33-1.8-1.33h-1.82c-1.21,0-1.8,.59-1.8,1.33s.58,1.34,1.8,1.34h1.82Zm2.36-7.27h1.75v.71h-1.75v2.56h-.82v-5.54h.82v2.27Z"/>
      <path class="cls-1" d="M248.54,245.08c0,.88-.11,1.72-.34,2.51l3.28,3.72-.61,.52-2.97-3.38c-.52,1.23-1.35,2.38-2.52,3.49l-.57-.54c1.95-1.84,2.93-3.75,2.93-6.32v-1.26h.8v1.26Zm4.36-1.89h.82v10.15h-.82v-10.15Z"/>
      <path class="cls-1" d="M259.19,251.22c1.02-.06,2.13-.14,3.08-.26l.09,.69c-1.54,.2-3.58,.34-5.09,.34h-1.74l-.03-.71h1.82c.31,0,.66-.01,1.05-.02v-1.41c-1.26-.11-2.17-.78-2.17-1.88v-.19c0-1.22,1.1-1.89,2.54-1.89s2.52,.67,2.52,1.89v.19c0,1.08-.87,1.74-2.06,1.87v1.39Zm2.56-6.73v.67h-6.08v-.67h2.63v-1.29h.82v1.29h2.62Zm-4.76,3.47c0,.77,.75,1.24,1.74,1.24s1.72-.47,1.72-1.24v-.15c0-.77-.74-1.25-1.72-1.25s-1.74,.48-1.74,1.25v.15Zm8.74-.68v.71h-1.65v5.36h-.81v-10.15h.81v4.08h1.65Z"/>
      <path class="cls-1" d="M147.83,275.02v2.99h-3.11v-2.99h3.11Z"/>
      <path class="cls-1" d="M152.93,275.43v-.23c0-1.8,1.24-2.67,2.76-2.67s2.74,.87,2.74,2.67v.23c0,1.79-1.24,2.65-2.74,2.65s-2.76-.86-2.76-2.65Zm4.68-.01v-.22c0-1.3-.82-1.97-1.92-1.97s-1.93,.67-1.93,1.97v.22c0,1.3,.82,1.96,1.93,1.96s1.92-.66,1.92-1.96Zm-3,6.93v-3.25h.82v2.52h6.47v.73h-7.29Zm5.97-2.44v-7.71h.82v7.71h-.82Z"/>
      <path class="cls-1" d="M166.49,275.68c-.53,.83-1.4,1.54-2.62,2.23l-.4-.63c1.81-1.07,2.83-2.13,2.83-3.67v-.15h-2.4v-.71h5.62v.71h-2.41v.15c0,.51-.09,.98-.26,1.42l3.1,2.09-.42,.64-3.02-2.08Zm-1.16,3.66v-.71h6.9v3.82h-.81v-3.1h-6.09Zm6.09-7.14h.81v5.71h-.81v-2.6h-2.28v-.7h2.28v-2.41Z"/>
      <path class="cls-1" d="M177.41,277.63v-1.52c0-2.41,1.22-3.37,2.71-3.37s2.71,.96,2.71,3.37v1.52c0,2.41-1.22,3.37-2.71,3.37s-2.71-.96-2.71-3.37Zm4.61-.01v-1.51c0-1.89-.81-2.64-1.9-2.64s-1.89,.75-1.89,2.64v1.51c0,1.89,.8,2.65,1.89,2.65s1.9-.76,1.9-2.65Zm3.03,4.73v-10.15h.82v10.15h-.82Z"/>
      <path class="cls-1" d="M193.15,277.05h4.53v.69h-9.89v-.69h4.54v-1.11h-3.16v-3.5h7.02v.68h-6.2v2.12h6.32v.69h-3.16v1.11Zm.74,1.78c1.73,0,2.63,.77,2.63,1.8s-.9,1.81-2.63,1.81h-2.31c-1.72,0-2.62-.76-2.62-1.81s.9-1.8,2.62-1.8h2.31Zm-.18,2.93c1.35,0,1.99-.45,1.99-1.12s-.64-1.1-1.99-1.1h-1.95c-1.35,0-1.99,.43-1.99,1.1s.64,1.12,1.99,1.12h1.95Z"/>
      <path class="cls-1" d="M198.78,280.67l-.05-.73h1.92c1.3,0,3.42-.12,5.08-.32l.09,.69c-1.59,.22-3.66,.35-5.22,.35h-1.83Zm.56-5.07v-.23c0-1.78,1.24-2.63,2.77-2.63s2.76,.85,2.76,2.63v.23c0,1.78-1.25,2.63-2.76,2.63s-2.77-.85-2.77-2.63Zm4.7-.01v-.21c0-1.28-.82-1.93-1.93-1.93s-1.95,.65-1.95,1.93v.21c0,1.26,.82,1.91,1.95,1.91s1.93-.65,1.93-1.91Zm2.7,6.75v-10.15h.81v10.15h-.81Z"/>
      <path class="cls-1" d="M215.68,274.36c0,.81-.1,1.57-.31,2.3l3.12,3.64-.63,.53-2.8-3.29c-.5,1.19-1.29,2.29-2.37,3.4l-.59-.53c1.74-1.8,2.78-3.54,2.78-6.05v-.58h-2.37v-.71h5.56v.71h-2.39v.58Zm6.67,1.8v.73h-1.75v5.46h-.81v-10.15h.81v3.97h1.75Z"/>
      <path class="cls-1" d="M233,278.63v.71h-2.64v3.11h-.82v-3.11h-2.94v3.11h-.82v-3.11h-2.66v-.71h9.89Zm-5.69-1.47c-1.89,0-3.06-.9-3.06-2.3s1.17-2.28,3.06-2.28h1.5c1.88,0,3.07,.9,3.07,2.28s-1.19,2.3-3.07,2.3h-1.5Zm.13-3.87c-1.51,0-2.37,.64-2.37,1.57s.86,1.59,2.37,1.59h1.24c1.52,0,2.38-.65,2.38-1.59s-.86-1.57-2.38-1.57h-1.24Z"/>
      <path class="cls-1" d="M237.5,280.22c1.02-.06,2.13-.14,3.08-.26l.09,.69c-1.54,.2-3.58,.34-5.09,.34h-1.74l-.04-.71h1.82c.31,0,.66-.01,1.05-.02v-1.41c-1.26-.11-2.17-.78-2.17-1.88v-.19c0-1.22,1.1-1.89,2.54-1.89s2.52,.67,2.52,1.89v.19c0,1.08-.87,1.74-2.06,1.87v1.39Zm2.56-6.73v.67h-6.08v-.67h2.63v-1.29h.82v1.29h2.62Zm-4.76,3.47c0,.77,.75,1.24,1.74,1.24s1.72-.47,1.72-1.24v-.15c0-.77-.74-1.25-1.72-1.25s-1.74,.48-1.74,1.25v.15Zm8.74-.68v.71h-1.65v5.36h-.81v-10.15h.81v4.08h1.65Z"/>
      <path class="cls-1" d="M147.83,304.02v2.99h-3.11v-2.99h3.11Z"/>
      <path class="cls-1" d="M158.42,304.5c-.03,1.74-1.26,2.57-2.74,2.57s-2.76-.86-2.76-2.65v-.23c0-1.8,1.24-2.67,2.76-2.67,1.38,0,2.54,.74,2.71,2.27h2.19v-2.6h.82v7.71h-.82v-4.4h-2.16Zm-4.67-.09c0,1.3,.82,1.96,1.93,1.96s1.92-.66,1.92-1.96v-.22c0-1.3-.82-1.97-1.92-1.97s-1.93,.67-1.93,1.97v.22Zm1.68,6.21h6.47v.73h-7.29v-3.25h.82v2.52Z"/>
      <path class="cls-1" d="M168.68,307.3h4.53v.7h-9.89v-.7h4.54v-1.28h-3.16v-2.63h6.31v-1.27h-6.36v-.68h7.19v2.61h-6.32v1.28h6.54v.69h-3.38v1.28Zm-3.16,1.51v1.83h6.59v.71h-7.4v-2.54h.81Z"/>
      <path class="cls-1" d="M174.58,306.33c0-.34,.27-.62,.63-.62s.64,.27,.64,.62-.29,.62-.64,.62-.63-.28-.63-.62Z"/>
      <path class="cls-1" d="M182.42,301.69v4.6h-4.94v-4.6h.8v1.55h3.34v-1.55h.8Zm-4.14,3.89h3.34v-1.64h-3.34v1.64Zm5.08,1.84c1.54,0,2.47,.87,2.47,2.01s-.93,2.01-2.47,2.01h-2.13c-1.54,0-2.47-.87-2.47-2.01s.93-2.01,2.47-2.01h2.13Zm-.16,3.32c1.21,0,1.8-.56,1.8-1.31s-.58-1.31-1.8-1.31h-1.81c-1.21,0-1.81,.57-1.81,1.31s.59,1.31,1.81,1.31h1.81Zm2.37-7.27h1.75v.71h-1.75v2.62h-.82v-5.6h.82v2.27Z"/>
      <path class="cls-1" d="M193.42,306h4.53v.69h-9.89v-.69h4.54v-1.21h.81v1.21Zm-.69-2.54c-.67,.66-1.84,1.22-3.54,1.67l-.24-.69c2.45-.66,3.71-1.56,3.71-2.62v-.48h.8v.48c0,.36-.09,.7-.26,1.02l3.86,1.63-.33,.66-3.99-1.67Zm1.43,4.38c1.73,0,2.63,.77,2.63,1.8s-.9,1.81-2.63,1.81h-2.31c-1.72,0-2.62-.77-2.62-1.81s.9-1.8,2.62-1.8h2.31Zm-.18,2.92c1.35,0,1.99-.44,1.99-1.11s-.64-1.1-1.99-1.1h-1.95c-1.35,0-1.99,.43-1.99,1.1s.64,1.11,1.99,1.11h1.95Z"/>
      <path class="cls-1" d="M199.05,309.67l-.05-.73h1.92c1.3,0,3.42-.12,5.08-.32l.09,.69c-1.59,.22-3.66,.35-5.22,.35h-1.83Zm.56-5.07v-.23c0-1.78,1.24-2.63,2.77-2.63s2.76,.85,2.76,2.63v.23c0,1.78-1.25,2.63-2.76,2.63s-2.77-.85-2.77-2.63Zm4.7-.01v-.21c0-1.28-.82-1.93-1.93-1.93s-1.95,.65-1.95,1.93v.21c0,1.26,.82,1.91,1.95,1.91s1.93-.65,1.93-1.91Zm2.7,6.75v-10.15h.81v10.15h-.81Z"/>
      <path class="cls-1" d="M215.95,303.36c0,.81-.1,1.57-.31,2.3l3.12,3.64-.63,.53-2.8-3.29c-.5,1.19-1.29,2.29-2.37,3.4l-.59-.53c1.74-1.8,2.78-3.54,2.78-6.05v-.58h-2.37v-.71h5.56v.71h-2.39v.58Zm6.67,1.8v.73h-1.75v5.46h-.81v-10.15h.81v3.97h1.75Z"/>
      <path class="cls-1" d="M233.28,307.63v.71h-2.64v3.11h-.82v-3.11h-2.94v3.11h-.82v-3.11h-2.66v-.71h9.89Zm-5.69-1.47c-1.89,0-3.06-.9-3.06-2.3s1.17-2.28,3.06-2.28h1.5c1.88,0,3.07,.9,3.07,2.28s-1.19,2.3-3.07,2.3h-1.5Zm.13-3.87c-1.51,0-2.37,.64-2.37,1.57s.86,1.59,2.37,1.59h1.24c1.52,0,2.38-.65,2.38-1.59s-.86-1.57-2.38-1.57h-1.24Z"/>
      <path class="cls-1" d="M237.77,309.22c1.02-.06,2.13-.14,3.08-.26l.09,.69c-1.54,.2-3.58,.34-5.09,.34h-1.74l-.04-.71h1.82c.31,0,.66-.01,1.05-.02v-1.41c-1.26-.11-2.17-.78-2.17-1.88v-.19c0-1.22,1.1-1.89,2.54-1.89s2.52,.67,2.52,1.89v.19c0,1.08-.87,1.74-2.06,1.87v1.39Zm2.56-6.73v.67h-6.08v-.67h2.63v-1.29h.82v1.29h2.62Zm-4.76,3.47c0,.77,.75,1.24,1.74,1.24s1.72-.47,1.72-1.24v-.15c0-.77-.74-1.25-1.72-1.25s-1.74,.48-1.74,1.25v.15Zm8.74-.68v.71h-1.65v5.36h-.81v-10.15h.81v4.08h1.65Z"/>
      <path class="cls-1" d="M147.83,333.02v2.99h-3.11v-2.99h3.11Z"/>
      <path class="cls-1" d="M162.36,335.08h-4.53v1.66h3.26v3.72h-.82v-3.01h-6.51v-.7h3.26v-1.66h-4.54v-.7h7.22c.21-1.18,.33-2.39,.33-3.01v-.09h-6.31v-.72h7.12v.63c0,.88-.13,2.05-.33,3.19h1.85v.7Z"/>
      <path class="cls-1" d="M166.23,332.45c0,.8-.08,1.56-.25,2.28l2.53,3.64-.65,.45-2.16-3.11c-.4,1.11-1.02,2.17-1.85,3.23l-.63-.48c1.44-1.82,2.24-3.56,2.24-6.01v-.67h-1.88v-.71h4.57v.71h-1.91v.67Zm3.07,1.62v-3.71h.79v9.8h-.79v-5.38h-1.87v-.71h1.87Zm2.28-3.87h.8v10.15h-.8v-10.15Z"/>
      <path class="cls-1" d="M175.99,337.94c1.02,0,2.01-.07,3.14-.23l.09,.7c-1.05,.18-2.08,.24-3.35,.24h-1.26v-7.65h3.89v.73h-3.07v6.21h.56Zm6.44-7.75h.8v10.15h-.8v-5.46h-1.64v5.27h-.79v-9.8h.79v3.81h1.64v-3.97Z"/>
      <path class="cls-1" d="M188.95,338.21c1.04-.05,2.17-.14,3.16-.26l.09,.69c-1.59,.22-3.66,.35-5.22,.35h-1.83l-.05-.73h1.92c.32,0,.7-.01,1.1-.02v-1.41c-1.26-.12-2.17-.78-2.17-1.87v-.19c0-1.22,1.13-1.89,2.6-1.89s2.56,.67,2.56,1.89v.19c0,1.1-.93,1.76-2.16,1.87v1.38Zm2.68-6.72v.67h-6.19v-.67h2.68v-1.29h.82v1.29h2.69Zm-4.88,3.47c0,.77,.78,1.24,1.8,1.24s1.76-.47,1.76-1.24v-.15c0-.77-.78-1.25-1.76-1.25s-1.8,.48-1.8,1.25v.15Zm6.36-4.76h.81v10.15h-.81v-10.15Z"/>
      <path class="cls-1" d="M203.61,334.73h4.92v.7h-9.89v-.7h4.15v-2.1h.81v2.1Zm1.11,1.89c1.74,0,2.65,.84,2.65,1.91s-.92,1.91-2.65,1.91h-2.27c-1.73,0-2.64-.82-2.64-1.91s.92-1.91,2.64-1.91h2.27Zm1.22-2.66c.23-1.06,.34-2.18,.34-2.7h-6.32v-.72h7.13v.53c0,.8-.13,1.91-.37,2.99l-.79-.11Zm-1.42,5.8c1.36,0,2.03-.5,2.03-1.23s-.66-1.21-2.03-1.21h-1.88c-1.36,0-2.03,.51-2.03,1.21s.66,1.23,2.03,1.23h1.88Z"/>
      <path class="cls-1" d="M214.84,335.05h4.53v.69h-9.89v-.69h4.54v-1.11h-3.16v-3.5h7.02v.68h-6.2v2.12h6.32v.69h-3.16v1.11Zm.74,1.78c1.73,0,2.63,.77,2.63,1.8s-.9,1.81-2.63,1.81h-2.31c-1.72,0-2.62-.76-2.62-1.81s.9-1.8,2.62-1.8h2.31Zm-.18,2.93c1.35,0,1.99-.45,1.99-1.12s-.64-1.1-1.99-1.1h-1.95c-1.35,0-1.99,.43-1.99,1.1s.64,1.12,1.99,1.12h1.95Z"/>
      <path class="cls-1" d="M220.79,331.78v-.71h3.94v.78c0,2.87-1.41,5.31-3.55,7.22l-.58-.57c2.03-1.74,3.32-4.11,3.32-6.49v-.22h-3.12Zm7.8-1.58h.8v10.15h-.8v-5.46h-1.64v5.27h-.8v-9.8h.8v3.81h1.64v-3.97Z"/>
      <path class="cls-1" d="M235.04,338c1.06-.05,2.23-.14,3.24-.27l.09,.7c-1.59,.21-3.66,.35-5.22,.35h-1.83l-.05-.73h1.92c.3,0,.64-.01,1.02-.02v-1.86h.82v1.83Zm-3.58-2.16c1.75-1.01,2.78-2.09,2.78-3.54h-2.43v-.7h2.44v-1.4h.81v1.4h2.44v.7h-2.44c0,.46-.08,.9-.24,1.3l3.04,2.13-.45,.65-2.94-2.09c-.54,.81-1.42,1.53-2.62,2.2l-.4-.65Zm7.83-5.65h.81v10.15h-.81v-10.15Z"/>
      <path class="cls-1" d="M242.44,335.33c0-.34,.28-.62,.63-.62s.64,.27,.64,.62-.29,.62-.64,.62-.63-.28-.63-.62Z"/>
      <path class="cls-1" d="M251.49,335.62c-1.25,.2-2.93,.35-4.45,.35h-1.65v-5.17h4.97v.7h-4.15v3.75h.97c1.26,0,2.88-.13,4.22-.33l.09,.69Zm-3.82,1.64v2.37h6.35v.73h-7.17v-3.09h.82Zm5.76-4.37h1.75v.73h-1.75v4.29h-.82v-7.71h.82v2.7Z"/>
      <path class="cls-1" d="M256.39,332.73v-.18c0-1.43,1.22-2.13,2.76-2.13s2.74,.7,2.74,2.13v.18c0,1.42-1.22,2.13-2.74,2.13s-2.76-.72-2.76-2.13Zm4.68-.02v-.14c0-.92-.81-1.44-1.92-1.44s-1.93,.52-1.93,1.44v.14c0,.95,.8,1.44,1.93,1.44s1.92-.5,1.92-1.44Zm-3,7.69v-2.63h5.97v-1.21h-6.02v-.67h6.83v2.56h-5.96v1.25h6.41v.69h-7.23Zm5.97-5.24v-4.97h.81v4.97h-.81Z"/>
      <path class="cls-1" d="M273.73,335.23c-1.24,.21-2.98,.36-4.53,.36h-1.79v-4.85h5.08v.69h-4.27v1.34h4.15v.68h-4.15v1.43h1.11c1.29,0,2.96-.13,4.29-.34l.1,.68Zm-4.81,5.12v-3.72h6.79v3.72h-6.79Zm.81-3.01v2.3h5.16v-2.3h-5.16Zm5.16-7.14h.81v5.72h-.81v-5.72Z"/>
      <path class="cls-1" d="M290.29,335.67v.73h-4.53v4.07h-.81v-4.07h-4.54v-.73h7.21c.27-1.46,.46-3.06,.46-3.95v-.23h-6.54v-.73h7.35v.78c0,1.16-.18,2.68-.45,4.13h1.85Z"/>
      <path class="cls-1" d="M294.37,333.45c-.53,.83-1.38,1.55-2.58,2.21l-.42-.64c1.84-1.04,2.83-2.22,2.83-3.81v-.66h.81v.66c0,.56-.09,1.08-.29,1.56l3.09,2.1-.43,.63-3.01-2.06Zm3.49,2.92c1.56,0,2.47,.9,2.47,2.05s-.92,2.04-2.47,2.04h-2.22c-1.56,0-2.47-.88-2.47-2.04s.92-2.05,2.47-2.05h2.22Zm-.16,3.38c1.22,0,1.81-.57,1.81-1.34s-.58-1.33-1.81-1.33h-1.9c-1.22,0-1.82,.59-1.82,1.33s.59,1.34,1.82,1.34h1.9Zm1.66-3.99v-2.81h-2.49v-.7h2.49v-2.04h.81v5.54h-.81Z"/>
      <path class="cls-1" d="M147.83,362.02v2.99h-3.11v-2.99h3.11Z"/>
      <path class="cls-1" d="M155.84,361.09c0,.88-.11,1.71-.33,2.5l3.16,3.73-.61,.51-2.85-3.37c-.49,1.22-1.29,2.37-2.42,3.48l-.57-.53c1.87-1.84,2.82-3.77,2.82-6.31v-1.28h.8v1.28Zm6.72,2.07v.73h-1.75v5.46h-.82v-10.15h.82v3.97h1.75Z"/>
      <path class="cls-1" d="M167.26,367.21c1.04-.05,2.17-.14,3.16-.26l.09,.69c-1.59,.22-3.66,.35-5.22,.35h-1.83l-.05-.73h1.92c.32,0,.7-.01,1.1-.02v-1.41c-1.26-.12-2.17-.78-2.17-1.87v-.19c0-1.22,1.13-1.89,2.6-1.89s2.56,.67,2.56,1.89v.19c0,1.1-.93,1.76-2.16,1.87v1.38Zm2.68-6.72v.67h-6.19v-.67h2.68v-1.29h.82v1.29h2.69Zm-4.88,3.47c0,.77,.78,1.24,1.8,1.24s1.76-.47,1.76-1.24v-.15c0-.77-.78-1.25-1.76-1.25s-1.8,.48-1.8,1.25v.15Zm6.36-4.76h.81v10.15h-.81v-10.15Z"/>
      <path class="cls-1" d="M174.17,364.65h9.89v.73h-4.53v2.01h-.81v-2.01h-4.54v-.73Zm2.15,1.75v2.22h6.64v.73h-7.46v-2.95h.82Zm6.36-6.95v3.96h-7.13v-3.96h7.13Zm-.82,3.25v-2.54h-5.49v2.54h5.49Z"/>
      <path class="cls-1" d="M188.55,367.22c1.02-.06,2.13-.14,3.08-.26l.09,.69c-1.54,.2-3.58,.34-5.09,.34h-1.74l-.04-.71h1.82c.31,0,.66-.01,1.05-.02v-1.41c-1.26-.11-2.17-.78-2.17-1.88v-.19c0-1.22,1.1-1.89,2.54-1.89s2.52,.67,2.52,1.89v.19c0,1.08-.87,1.74-2.06,1.87v1.39Zm2.56-6.73v.67h-6.08v-.67h2.63v-1.29h.82v1.29h2.62Zm-4.76,3.47c0,.77,.75,1.24,1.74,1.24s1.72-.47,1.72-1.24v-.15c0-.77-.74-1.25-1.72-1.25s-1.74,.48-1.74,1.25v.15Zm8.74-.68v.71h-1.65v5.36h-.81v-10.15h.81v4.08h1.65Z"/>
      <path class="cls-1" d="M204.54,367.81h3.99v.73h-9.89v-.73h2.43v-4.2h.79v4.2h1.89v-4.2h.79v4.2Zm1.97-7.04h-6.75v-.72h7.56v.86c0,1.43-.25,3.37-.58,5.1l-.8-.14c.33-1.71,.57-3.67,.57-4.79v-.32Z"/>
      <path class="cls-1" d="M219.38,365.85v.7h-2.64v2.92h-.82v-2.92h-2.94v2.92h-.82v-2.92h-2.66v-.7h9.89Zm-2.09-4.04v-1.39h-6.57v-.69h7.39v2.75h-6.52v1.42h6.75v.67h-7.56v-2.76h6.51Z"/>
      <path class="cls-1" d="M226.5,360.2v.67h-5.88v-.67h2.52v-1.14h.84v1.14h2.53Zm-.48,3.01c0,1.06-1.06,1.63-2.45,1.63s-2.45-.57-2.45-1.63v-.14c0-1.04,1.05-1.62,2.45-1.62s2.45,.57,2.45,1.62v.14Zm-4.12-.01c0,.58,.72,.97,1.67,.97s1.66-.38,1.66-.97v-.11c0-.58-.72-.97-1.66-.97s-1.67,.38-1.67,.97v.11Zm6.54,3.42v-1.21h.81v3.92h-6.79v-3.92h.81v1.21h5.16Zm-5.16,2.01h5.16v-1.31h-5.16v1.31Zm5.16-9.45h.81v5.62h-.81v-.8h-1.95v-.66h1.95v-1.2h-1.95v-.65h1.95v-2.31Z"/>
      <path class="cls-1" d="M237.6,364.43c-1.16,.19-2.61,.33-4.13,.33h-1.66v-2.9h3.83v-1.42h-3.83v-.69h4.64v2.81h-3.83v1.51h1.01c1.24,0,2.66-.12,3.89-.31l.09,.68Zm-4.39,2.13v-.73h6.9v3.61h-.81v-2.88h-6.09Zm6.09-7.36h.81v5.92h-.81v-1.96h-1.95v-.66h1.95v-1.25h-1.95v-.65h1.95v-1.4Z"/>
      <path class="cls-1" d="M247.98,362.62c-.53,.8-1.4,1.51-2.62,2.18l-.4-.63c1.81-1.03,2.83-2.08,2.83-3.58v-.15h-2.4v-.7h5.63v.7h-2.43v.15c0,.5-.08,.95-.25,1.38l3.09,2.02-.42,.65-3.02-2.02Zm3.43,2.74c1.56,0,2.47,.9,2.47,2.05s-.92,2.04-2.47,2.04h-2.22c-1.56,0-2.47-.88-2.47-2.04s.92-2.05,2.47-2.05h2.22Zm-.16,3.38c1.22,0,1.81-.57,1.81-1.34s-.58-1.33-1.81-1.33h-1.9c-1.22,0-1.82,.59-1.82,1.33s.59,1.34,1.82,1.34h1.9Zm-.62-7.23h2.28v-2.31h.81v5.54h-.81v-2.54h-2.28v-.69Z"/>
      <path class="cls-1" d="M257.49,367.16c1.09,0,1.84-.08,2.86-.23l.1,.69c-.96,.17-1.75,.25-3.12,.25h-1.29v-4.35h2.84v-2.8h-2.84v-.72h3.63v4.24h-2.84v2.92h.66Zm4.15-5.26v-2.54h.79v9.8h-.79v-3.48h-1.59v-.7h1.59v-2.38h-1.43v-.7h1.43Zm2.28-2.71h.8v10.15h-.8v-10.15Z"/>
      <path class="cls-1" d="M270.04,367.22c1.02-.06,2.13-.14,3.08-.26l.09,.69c-1.54,.2-3.58,.34-5.09,.34h-1.74l-.04-.71h1.82c.31,0,.66-.01,1.05-.02v-1.41c-1.26-.11-2.17-.78-2.17-1.88v-.19c0-1.22,1.1-1.89,2.54-1.89s2.52,.67,2.52,1.89v.19c0,1.08-.87,1.74-2.06,1.87v1.39Zm2.56-6.73v.67h-6.08v-.67h2.63v-1.29h.82v1.29h2.62Zm-4.76,3.47c0,.77,.75,1.24,1.74,1.24s1.72-.47,1.72-1.24v-.15c0-.77-.74-1.25-1.72-1.25s-1.74,.48-1.74,1.25v.15Zm8.74-.68v.71h-1.65v5.36h-.81v-10.15h.81v4.08h1.65Z"/>
      <path class="cls-1" d="M285.76,359.69v4.12h-5.05v-4.12h5.05Zm-.8,3.43v-2.74h-3.44v2.74h3.44Zm4.78,5.65l-.31,.67-3.95-1.57c-.7,.65-1.93,1.18-3.67,1.57l-.24-.68c2.31-.54,3.73-1.3,3.73-2.22h0s-3.19-.01-3.19-.01v-.69h3.19v-1.24h.83v1.24h3.09v.69h-3.09c0,.27-.07,.53-.19,.77l3.8,1.47Zm-.68-9.57v5.54h-.81v-5.54h.81Z"/>
      <path class="cls-1" d="M298.73,363.73h4.92v.7h-9.89v-.7h4.15v-2.1h.81v2.1Zm1.11,1.89c1.74,0,2.66,.84,2.66,1.91s-.92,1.91-2.66,1.91h-2.27c-1.73,0-2.64-.82-2.64-1.91s.92-1.91,2.64-1.91h2.27Zm1.22-2.66c.23-1.06,.34-2.18,.34-2.7h-6.32v-.72h7.13v.53c0,.8-.13,1.91-.37,2.99l-.79-.11Zm-1.42,5.8c1.36,0,2.03-.5,2.03-1.23s-.66-1.21-2.03-1.21h-1.88c-1.36,0-2.03,.51-2.03,1.21s.66,1.23,2.03,1.23h1.88Z"/>
      <path class="cls-1" d="M309.96,364.05h4.53v.69h-9.89v-.69h4.54v-1.11h-3.16v-3.5h7.02v.68h-6.2v2.12h6.32v.69h-3.16v1.11Zm.74,1.78c1.73,0,2.63,.77,2.63,1.8s-.9,1.81-2.63,1.81h-2.31c-1.72,0-2.62-.76-2.62-1.81s.9-1.8,2.62-1.8h2.31Zm-.18,2.93c1.35,0,1.99-.45,1.99-1.12s-.64-1.1-1.99-1.1h-1.95c-1.35,0-1.99,.43-1.99,1.1s.64,1.12,1.99,1.12h1.95Z"/>
      <path class="cls-1" d="M321.62,360.2v.67h-5.88v-.67h2.52v-1.14h.84v1.14h2.53Zm-.48,3.01c0,1.06-1.06,1.63-2.45,1.63s-2.45-.57-2.45-1.63v-.14c0-1.04,1.05-1.62,2.45-1.62s2.45,.57,2.45,1.62v.14Zm-4.12-.01c0,.58,.72,.97,1.67,.97s1.66-.38,1.66-.97v-.11c0-.58-.72-.97-1.66-.97s-1.67,.38-1.67,.97v.11Zm6.53,3.42v-1.21h.81v3.92h-6.79v-3.92h.81v1.21h5.16Zm-5.16,2.01h5.16v-1.31h-5.16v1.31Zm5.16-9.45h.81v5.62h-.81v-.8h-1.95v-.66h1.95v-1.2h-1.95v-.65h1.95v-2.31Z"/>
      <path class="cls-1" d="M326.44,367.67l-.05-.73h1.92c1.3,0,3.42-.12,5.08-.32l.09,.69c-1.59,.22-3.66,.35-5.22,.35h-1.83Zm.56-5.07v-.23c0-1.78,1.24-2.63,2.77-2.63s2.76,.85,2.76,2.63v.23c0,1.78-1.25,2.63-2.76,2.63s-2.77-.85-2.77-2.63Zm4.7-.01v-.21c0-1.28-.82-1.93-1.93-1.93s-1.95,.65-1.95,1.93v.21c0,1.26,.82,1.91,1.95,1.91s1.93-.65,1.93-1.91Zm2.7,6.75v-10.15h.81v10.15h-.81Z"/>
      <path class="cls-1" d="M337.87,360.78v-.71h4.99v.78c0,2.87-1.79,5.38-4.67,7.22l-.48-.62c2.68-1.67,4.33-4.07,4.33-6.45v-.22h-4.17Zm7.39-1.58h.81v10.15h-.81v-10.15Z"/>
      <path class="cls-1" d="M357.88,364.67v.73h-4.53v4.07h-.81v-4.07h-4.54v-.73h7.21c.27-1.46,.46-3.06,.46-3.95v-.23h-6.54v-.73h7.35v.78c0,1.16-.18,2.68-.45,4.13h1.85Z"/>
      <path class="cls-1" d="M146.55,396.62h4.42v1h-9.98v-1h4.43v-2.5h1.13v2.5Zm-.79-4.76c-.72,.94-1.93,1.8-3.74,2.59l-.51-.95c2.8-1.24,3.96-2.55,3.96-4.02v-.77h1.14v.77c0,.51-.09,.99-.3,1.46l4.14,2.59-.62,.91-4.07-2.59Z"/>
      <path class="cls-1" d="M157.68,390.64v-2.31h1.09v9.85h-1.09v-3.37h-1.8v-.97h1.8v-2.23h-1.56c-.4,2.13-1.54,3.97-3.25,5.56l-.83-.79c2.06-1.83,3.12-4.11,3.12-6.27v-.12h-2.87v-1h3.99v.9c0,.25-.01,.51-.03,.76h1.43Zm2.3-2.46h1.12v10.21h-1.12v-10.21Z"/>
    </g>
    <g>
      <path class="cls-1" d="M710.68,14.48v-2.73h1.32v8.05h-4.36V11.75h1.33v2.73h1.72Zm-1.72,4.06h1.72v-2.79h-1.72v2.79Zm6.45-7.38h1.42v10.28h-1.42v-5.28h-1.06v5.04h-1.38V11.32h1.38v3.55h1.06v-3.72Z"/>
      <path class="cls-1" d="M721.48,15.07c-.56,.67-1.38,1.25-2.52,1.78l-.68-1.14c1.79-.87,2.55-1.75,2.62-2.88h-2.2v-1.23h5.82v1.23h-2.21c-.02,.4-.09,.78-.22,1.13l2.83,1.57-.71,1.15-2.75-1.62Zm-1.26,6.36v-4.17h7.27v4.17h-7.27Zm1.46-2.93v1.67h4.34v-1.67h-4.34Zm4.34-7.35h1.46v5.54h-1.46v-2.22h-1.88v-1.2h1.88v-2.12Z"/>
      <path class="cls-1" d="M711.43,47.25c.31,.78,.92,1.47,2.15,1.47s1.96-.61,1.96-1.42-.69-1.51-2.13-1.51h-1.21v-1.19h1.21c1.27,0,1.9-.57,1.9-1.38s-.69-1.29-1.75-1.29-1.59,.63-1.87,1.31l-1.3-.47c.45-1.16,1.43-2.1,3.17-2.1,1.83,0,3.19,.89,3.19,2.46,0,1.11-.68,1.73-1.44,2.05,.92,.32,1.66,1.06,1.66,2.18,0,1.58-1.38,2.62-3.39,2.62s-2.99-1.01-3.46-2.28l1.3-.46Z"/>
      <path class="cls-1" d="M718.43,46.19v-1.69c0-2.53,1.58-3.81,3.48-3.81s3.47,1.28,3.47,3.81v1.69c0,2.54-1.58,3.81-3.47,3.81s-3.48-1.26-3.48-3.81Zm5.48-.07v-1.56c0-1.77-.85-2.62-2-2.62s-2,.85-2,2.62v1.56c0,1.78,.85,2.62,2,2.62s2-.84,2-2.62Z"/>
      <path class="cls-1" d="M711.43,76.25c.31,.78,.92,1.47,2.15,1.47s1.96-.61,1.96-1.42-.69-1.51-2.13-1.51h-1.21v-1.19h1.21c1.27,0,1.9-.57,1.9-1.38s-.69-1.29-1.75-1.29-1.59,.63-1.87,1.31l-1.3-.47c.45-1.16,1.43-2.1,3.17-2.1,1.83,0,3.19,.89,3.19,2.46,0,1.11-.68,1.73-1.44,2.05,.92,.32,1.66,1.06,1.66,2.18,0,1.58-1.38,2.62-3.39,2.62s-2.99-1.01-3.46-2.28l1.3-.46Z"/>
      <path class="cls-1" d="M718.43,75.19v-1.69c0-2.53,1.58-3.81,3.48-3.81s3.47,1.28,3.47,3.81v1.69c0,2.54-1.58,3.81-3.47,3.81s-3.48-1.26-3.48-3.81Zm5.48-.07v-1.56c0-1.77-.85-2.62-2-2.62s-2,.85-2,2.62v1.56c0,1.78,.85,2.62,2,2.62s2-.84,2-2.62Z"/>
      <path class="cls-1" d="M711.43,105.25c.31,.78,.92,1.47,2.15,1.47s1.96-.61,1.96-1.42-.69-1.51-2.13-1.51h-1.21v-1.19h1.21c1.27,0,1.9-.57,1.9-1.38s-.69-1.29-1.75-1.29-1.59,.63-1.87,1.31l-1.3-.47c.45-1.16,1.43-2.1,3.17-2.1,1.83,0,3.19,.89,3.19,2.46,0,1.11-.68,1.73-1.44,2.05,.92,.32,1.66,1.06,1.66,2.18,0,1.58-1.38,2.62-3.39,2.62s-2.99-1.01-3.46-2.28l1.3-.46Z"/>
      <path class="cls-1" d="M718.43,104.19v-1.69c0-2.53,1.58-3.81,3.48-3.81s3.47,1.28,3.47,3.81v1.69c0,2.54-1.58,3.81-3.47,3.81s-3.48-1.26-3.48-3.81Zm5.48-.07v-1.56c0-1.77-.85-2.62-2-2.62s-2,.85-2,2.62v1.56c0,1.78,.85,2.62,2,2.62s2-.84,2-2.62Z"/>
      <path class="cls-1" d="M716.96,130.85v2.23c0,2.72-1.62,3.91-3.26,3.91s-2.7-.67-3.33-1.94l1.2-.62c.47,.87,1.05,1.3,2.06,1.3,1.1,0,1.99-.81,1.99-2.71v-.36c-.48,.73-1.4,1.1-2.33,1.1-1.62,0-3.11-1.2-3.11-3.06s1.49-3.03,3.41-3.03,3.38,1.12,3.38,3.17Zm-1.45-.11c0-1.11-.83-1.8-1.93-1.8s-1.96,.69-1.96,1.8,.85,1.79,1.96,1.79,1.93-.69,1.93-1.79Z"/>
      <path class="cls-1" d="M718.43,133.19v-1.69c0-2.53,1.58-3.81,3.48-3.81s3.47,1.28,3.47,3.81v1.69c0,2.54-1.58,3.81-3.47,3.81s-3.48-1.26-3.48-3.81Zm5.48-.07v-1.56c0-1.77-.85-2.62-2-2.62s-2,.85-2,2.62v1.56c0,1.78,.85,2.62,2,2.62s2-.84,2-2.62Z"/>
      <path class="cls-1" d="M710.44,165.83v-1.09l3.38-3.22c.95-.91,1.38-1.52,1.38-2.27s-.56-1.3-1.62-1.3-1.59,.73-1.85,1.65l-1.4-.32c.38-1.36,1.45-2.6,3.25-2.6s3.08,.92,3.08,2.51c0,1.19-.63,2.04-1.69,3.05l-2.42,2.29h4.31v1.3h-6.42Z"/>
      <path class="cls-1" d="M718.31,162.19v-1.69c0-2.53,1.58-3.81,3.48-3.81s3.47,1.28,3.47,3.81v1.69c0,2.54-1.58,3.81-3.47,3.81s-3.48-1.26-3.48-3.81Zm5.48-.07v-1.56c0-1.77-.85-2.62-2-2.62s-2,.85-2,2.62v1.56c0,1.78,.85,2.62,2,2.62s2-.84,2-2.62Z"/>
      <path class="cls-1" d="M710.44,194.83v-1.09l3.38-3.22c.95-.91,1.38-1.52,1.38-2.27s-.56-1.3-1.62-1.3-1.59,.73-1.85,1.65l-1.4-.32c.38-1.36,1.45-2.6,3.25-2.6s3.08,.92,3.08,2.51c0,1.19-.63,2.04-1.69,3.05l-2.42,2.29h4.31v1.3h-6.42Z"/>
      <path class="cls-1" d="M718.31,191.19v-1.69c0-2.53,1.58-3.81,3.48-3.81s3.47,1.28,3.47,3.81v1.69c0,2.54-1.58,3.81-3.47,3.81s-3.48-1.26-3.48-3.81Zm5.48-.07v-1.56c0-1.77-.85-2.62-2-2.62s-2,.85-2,2.62v1.56c0,1.78,.85,2.62,2,2.62s2-.84,2-2.62Z"/>
      <path class="cls-1" d="M710.44,223.83v-1.09l3.38-3.22c.95-.91,1.38-1.52,1.38-2.27s-.56-1.3-1.62-1.3-1.59,.73-1.85,1.65l-1.4-.32c.38-1.36,1.45-2.6,3.25-2.6s3.08,.92,3.08,2.51c0,1.19-.63,2.04-1.69,3.05l-2.42,2.29h4.31v1.3h-6.42Z"/>
      <path class="cls-1" d="M718.31,220.19v-1.69c0-2.53,1.58-3.81,3.48-3.81s3.47,1.28,3.47,3.81v1.69c0,2.54-1.58,3.81-3.47,3.81s-3.48-1.26-3.48-3.81Zm5.48-.07v-1.56c0-1.77-.85-2.62-2-2.62s-2,.85-2,2.62v1.56c0,1.78,.85,2.62,2,2.62s2-.84,2-2.62Z"/>
      <path class="cls-1" d="M713.81,252.83v-7.12l-1.91,1.44-.82-1.04,3-2.25h1.21v8.98h-1.48Z"/>
      <path class="cls-1" d="M717.19,249.19v-1.69c0-2.53,1.58-3.81,3.48-3.81s3.47,1.28,3.47,3.81v1.69c0,2.54-1.58,3.81-3.47,3.81s-3.48-1.26-3.48-3.81Zm5.48-.07v-1.56c0-1.77-.85-2.62-2-2.62s-2,.85-2,2.62v1.56c0,1.78,.85,2.62,2,2.62s2-.84,2-2.62Z"/>
      <path class="cls-1" d="M710.44,281.83v-1.09l3.38-3.22c.95-.91,1.38-1.52,1.38-2.27s-.56-1.3-1.62-1.3-1.59,.73-1.85,1.65l-1.4-.32c.38-1.36,1.45-2.6,3.25-2.6s3.08,.92,3.08,2.51c0,1.19-.63,2.04-1.69,3.05l-2.42,2.29h4.31v1.3h-6.42Z"/>
      <path class="cls-1" d="M718.31,278.19v-1.69c0-2.53,1.58-3.81,3.48-3.81s3.47,1.28,3.47,3.81v1.69c0,2.54-1.58,3.81-3.47,3.81s-3.48-1.26-3.48-3.81Zm5.48-.07v-1.56c0-1.77-.85-2.62-2-2.62s-2,.85-2,2.62v1.56c0,1.78,.85,2.62,2,2.62s2-.84,2-2.62Z"/>
      <path class="cls-1" d="M710.44,310.83v-1.09l3.38-3.22c.95-.91,1.38-1.52,1.38-2.27s-.56-1.3-1.62-1.3-1.59,.73-1.85,1.65l-1.4-.32c.38-1.36,1.45-2.6,3.25-2.6s3.08,.92,3.08,2.51c0,1.19-.63,2.04-1.69,3.05l-2.42,2.29h4.31v1.3h-6.42Z"/>
      <path class="cls-1" d="M718.31,307.19v-1.69c0-2.53,1.58-3.81,3.48-3.81s3.47,1.28,3.47,3.81v1.69c0,2.54-1.58,3.81-3.47,3.81s-3.48-1.26-3.48-3.81Zm5.48-.07v-1.56c0-1.77-.85-2.62-2-2.62s-2,.85-2,2.62v1.56c0,1.78,.85,2.62,2,2.62s2-.84,2-2.62Z"/>
      <path class="cls-1" d="M710.44,339.83v-1.09l3.38-3.22c.95-.91,1.38-1.52,1.38-2.27s-.56-1.3-1.62-1.3-1.59,.73-1.85,1.65l-1.4-.32c.38-1.36,1.45-2.6,3.25-2.6s3.08,.92,3.08,2.51c0,1.19-.63,2.04-1.69,3.05l-2.42,2.29h4.31v1.3h-6.42Z"/>
      <path class="cls-1" d="M718.31,336.19v-1.69c0-2.53,1.58-3.81,3.48-3.81s3.47,1.28,3.47,3.81v1.69c0,2.54-1.58,3.81-3.47,3.81s-3.48-1.26-3.48-3.81Zm5.48-.07v-1.56c0-1.77-.85-2.62-2-2.62s-2,.85-2,2.62v1.56c0,1.78,.85,2.62,2,2.62s2-.84,2-2.62Z"/>
      <path class="cls-1" d="M711.43,366.25c.31,.78,.92,1.47,2.15,1.47s1.96-.61,1.96-1.42-.69-1.51-2.13-1.51h-1.21v-1.19h1.21c1.27,0,1.9-.57,1.9-1.38s-.69-1.29-1.75-1.29-1.59,.63-1.87,1.31l-1.3-.47c.45-1.16,1.43-2.1,3.17-2.1,1.83,0,3.19,.89,3.19,2.46,0,1.11-.68,1.73-1.44,2.05,.92,.32,1.66,1.06,1.66,2.18,0,1.58-1.38,2.62-3.39,2.62s-2.99-1.01-3.46-2.28l1.3-.46Z"/>
      <path class="cls-1" d="M718.43,365.19v-1.69c0-2.53,1.58-3.81,3.48-3.81s3.47,1.28,3.47,3.81v1.69c0,2.54-1.58,3.81-3.47,3.81s-3.48-1.26-3.48-3.81Zm5.48-.07v-1.56c0-1.77-.85-2.62-2-2.62s-2,.85-2,2.62v1.56c0,1.78,.85,2.62,2,2.62s2-.84,2-2.62Z"/>
      <path class="cls-1" d="M709.74,397.83v-7.12l-1.91,1.44-.82-1.04,3-2.25h1.21v8.98h-1.48Z"/>
      <path class="cls-1" d="M719.91,394.96c0,1.86-1.48,3.04-3.41,3.04s-3.38-1.12-3.38-3.17v-2.23c0-2.72,1.62-3.91,3.27-3.91s2.69,.67,3.33,1.94l-1.21,.61c-.47-.86-1.05-1.29-2.05-1.29-1.11,0-2,.8-2,2.71v.36c.48-.74,1.4-1.11,2.33-1.11,1.64,0,3.11,1.2,3.11,3.06Zm-1.44-.02c0-1.11-.85-1.79-1.96-1.79s-1.92,.68-1.92,1.79,.82,1.8,1.92,1.8,1.96-.69,1.96-1.8Z"/>
      <path class="cls-1" d="M721.26,394.19v-1.69c0-2.53,1.58-3.81,3.48-3.81s3.47,1.28,3.47,3.81v1.69c0,2.54-1.58,3.81-3.47,3.81s-3.48-1.26-3.48-3.81Zm5.48-.07v-1.56c0-1.77-.85-2.62-2-2.62s-2,.85-2,2.62v1.56c0,1.78,.85,2.62,2,2.62s2-.84,2-2.62Z"/>
      <path class="cls-1" d="M706.48,426.83v-1.09l3.38-3.22c.95-.91,1.38-1.52,1.38-2.27s-.56-1.3-1.62-1.3-1.59,.73-1.85,1.65l-1.4-.32c.38-1.36,1.45-2.6,3.25-2.6s3.08,.92,3.08,2.51c0,1.19-.63,2.04-1.69,3.05l-2.42,2.29h4.31v1.3h-6.42Z"/>
      <path class="cls-1" d="M720.8,424.02c0,1.78-1.28,2.97-3.25,2.97-1.37,0-2.76-.57-3.31-1.75l1.26-.68c.35,.77,1.1,1.14,1.97,1.14,1.18,0,1.89-.67,1.89-1.68s-.77-1.68-1.87-1.68c-.81,0-1.34,.36-1.65,1.01h-1.32l.58-5.5h5.36v1.29h-4.12l-.31,2.63c.44-.47,1.1-.71,1.75-.71,1.72,0,3.01,1.18,3.01,2.97Z"/>
      <path class="cls-1" d="M722.26,423.19v-1.69c0-2.53,1.58-3.81,3.48-3.81s3.47,1.28,3.47,3.81v1.69c0,2.54-1.58,3.81-3.47,3.81s-3.48-1.26-3.48-3.81Zm5.48-.07v-1.56c0-1.77-.85-2.62-2-2.62s-2,.85-2,2.62v1.56c0,1.78,.85,2.62,2,2.62s2-.84,2-2.62Z"/>
    </g>
  </g>
</svg>