<?xml version="1.0" encoding="UTF-8"?>
<svg id="Layer_2" data-name="Layer 2" xmlns="http://www.w3.org/2000/svg" viewBox="0 0 578.42 733.05">
  <defs>
    <style>
      .cls-1, .cls-2 {
        font-family: NanumSquareNeovariable-ExtraBold, 'NanumSquare Neo variable';
        font-variation-settings: 'wght' 700;
      }

      .cls-3, .cls-4, .cls-2 {
        fill: #fff;
      }

      .cls-3, .cls-2 {
        font-size: 16px;
      }

      .cls-5, .cls-6 {
        fill: none;
        stroke: #fff;
        stroke-miterlimit: 10;
      }

      .cls-7 {
        font-family: NanumSquareNeovariable-Regular, 'NanumSquare Neo variable';
        font-variation-settings: 'wght' 300;
      }

      .cls-6 {
        opacity: .4;
        stroke-width: .5px;
      }
    </style>
  </defs>
  <g id="Layer_1-2" data-name="Layer 1">
    <g>
      <text class="cls-2" transform="translate(7.64 105.46)"><tspan x="0" y="0">제도적 통합</tspan></text>
      <text class="cls-2" transform="translate(32.69 24.46)"><tspan x="0" y="0">영역</tspan></text>
      <text class="cls-2"><tspan x="7.65" y="368.35">관계적 통합</tspan><tspan x="32.39" y="688.35">합계</tspan></text>
      <g>
        <path class="cls-4" d="M130.97,63.15c-.45,0-.86-.11-1.24-.33-.38-.22-.68-.52-.9-.9-.22-.38-.33-.79-.33-1.22s.11-.86,.33-1.24c.22-.38,.52-.68,.9-.9,.38-.22,.79-.33,1.24-.33s.86,.11,1.24,.33c.38,.22,.68,.52,.9,.9,.22,.38,.33,.79,.33,1.24s-.11,.85-.33,1.22c-.22,.38-.52,.68-.9,.9-.38,.22-.79,.33-1.24,.33Z"/>
        <path class="cls-4" d="M145.65,60.85v-1.02h13.82v1.02h-13.82Zm5.33,7.3c-.78,0-1.45-.12-2.01-.36-.56-.24-.98-.57-1.26-.99-.28-.42-.42-.9-.42-1.43s.14-1.01,.42-1.43c.28-.42,.7-.75,1.26-.99,.56-.24,1.23-.36,2.01-.36h3.17c.79,0,1.46,.12,2.02,.36,.56,.24,.98,.57,1.26,.99,.28,.42,.42,.9,.42,1.43s-.14,1.01-.42,1.43c-.28,.42-.7,.75-1.26,.99s-1.23,.36-2.02,.36h-3.17Zm4.88-9.44c.15-.73,.27-1.46,.35-2.2s.13-1.32,.13-1.74v-.51l.43,.53h-9.26v-1.04h9.97v.77c0,.6-.05,1.28-.14,2.05-.09,.77-.22,1.54-.38,2.3l-1.1-.16Zm-1.98,8.43c.93,0,1.63-.16,2.11-.48,.48-.32,.72-.76,.72-1.31s-.24-.96-.73-1.28c-.49-.32-1.19-.48-2.1-.48h-2.62c-.92,0-1.62,.16-2.1,.48-.49,.32-.73,.75-.73,1.28s.24,.99,.72,1.31c.48,.32,1.18,.48,2.11,.48h2.62Zm-2.42-6.83v-3.54h1.14v3.54h-1.14Z"/>
        <path class="cls-4" d="M160.81,61.3v-1.01h13.82v1.01h-13.82Zm5.3,6.85c-.78,0-1.44-.11-1.99-.34-.55-.22-.97-.53-1.25-.93s-.42-.85-.42-1.38,.14-.96,.42-1.36c.28-.39,.7-.7,1.25-.93,.55-.22,1.21-.34,1.99-.34h3.23c.79,0,1.46,.11,2.01,.34,.55,.22,.97,.53,1.25,.93,.28,.4,.42,.85,.42,1.36s-.14,.98-.42,1.38c-.28,.39-.7,.7-1.25,.93-.55,.22-1.22,.34-2.01,.34h-3.23Zm6.45-14.56v.99h-8.67v3.09h8.83v1.01h-9.97v-5.09h9.81Zm-3.47,13.55c.92,0,1.61-.15,2.08-.44,.47-.29,.7-.69,.7-1.19s-.23-.89-.7-1.18-1.16-.42-2.08-.42h-2.72c-.92,0-1.61,.14-2.08,.42-.47,.28-.7,.67-.7,1.18s.23,.9,.7,1.19c.47,.29,1.16,.44,2.08,.44h2.72Zm-1.92-6.22v-2.86h1.14v2.86h-1.14Z"/>
        <path class="cls-4" d="M176.17,65.55l-.06-1.06h2.69c.95,0,2.09-.04,3.42-.13,1.33-.08,2.56-.2,3.69-.34l.13,1.01c-1.1,.16-2.31,.29-3.64,.38s-2.55,.14-3.66,.14h-2.56Zm4.66-3.55c-.74,0-1.39-.14-1.98-.42s-1.04-.71-1.38-1.29c-.34-.58-.51-1.28-.51-2.11v-.34c0-.83,.17-1.54,.51-2.11,.34-.58,.8-1,1.38-1.29,.58-.28,1.24-.42,1.98-.42s1.38,.14,1.96,.42c.58,.28,1.04,.71,1.38,1.29,.34,.58,.51,1.28,.51,2.11v.34c0,.83-.17,1.54-.51,2.11s-.8,1.01-1.38,1.29c-.58,.28-1.23,.42-1.96,.42Zm0-1.06c.8,0,1.45-.24,1.95-.72,.5-.48,.75-1.17,.75-2.06v-.3c0-.9-.25-1.59-.74-2.07s-1.15-.73-1.96-.73-1.47,.24-1.97,.73-.75,1.18-.75,2.07v.3c0,.9,.25,1.58,.75,2.06,.5,.48,1.16,.72,1.97,.72Zm6.48,7.04v-14.77h1.14v14.77h-1.14Z"/>
        <path class="cls-4" d="M195.87,60.31c1.87-.61,3.34-1.37,4.41-2.3,1.07-.92,1.61-1.91,1.61-2.95v-.43l.45,.53h-6.22v-1.06h6.93v.72c0,1.46-.58,2.73-1.74,3.81-1.16,1.08-2.82,1.97-4.98,2.67l-.45-.99Zm5.3,7.82c-.7,0-1.31-.13-1.83-.38-.52-.26-.91-.61-1.19-1.06-.28-.45-.42-.95-.42-1.52s.14-1.06,.42-1.51,.67-.81,1.19-1.07c.52-.26,1.13-.39,1.83-.39h3.12c.7,0,1.32,.13,1.84,.39,.52,.26,.92,.62,1.2,1.07s.42,.96,.42,1.51-.14,1.07-.42,1.52c-.28,.45-.68,.8-1.2,1.06-.52,.26-1.14,.38-1.84,.38h-3.12Zm2.9-1.02c.82,0,1.45-.18,1.88-.54,.43-.36,.65-.83,.65-1.42s-.22-1.03-.65-1.39c-.43-.36-1.06-.54-1.88-.54h-2.66c-.82,0-1.45,.18-1.89,.54-.44,.36-.66,.83-.66,1.39s.22,1.06,.66,1.42c.44,.36,1.07,.54,1.89,.54h2.66Zm-1.54-10.5v-.98h4.45v.98h-4.45Zm.13,2.78v-.98h4.32v.98h-4.32Zm3.73,1.9v-8.06h1.14v8.06h-1.14Z"/>
        <path class="cls-4" d="M210.05,65.23c1.06-1.39,1.84-2.76,2.36-4.13,.52-1.37,.78-2.9,.78-4.61v-1.44h1.09v1.44c0,1.77-.27,3.41-.82,4.91-.55,1.5-1.39,3.01-2.52,4.53l-.88-.7Zm.51-9.71v-1.04h6.38v1.04h-6.38Zm5.98,10.24l-3.7-5.54,.88-.7,3.73,5.58-.91,.66Zm-.59-5.87v-1.04h3.04v1.04h-3.04Zm2.61,7.82v-14.26h1.1v14.26h-1.1Zm3.18,.27v-14.77h1.12v14.77h-1.12Z"/>
        <path class="cls-4" d="M225.21,65.23c1.06-1.39,1.84-2.76,2.36-4.13,.52-1.37,.78-2.9,.78-4.61v-1.44h1.09v1.44c0,1.77-.27,3.41-.82,4.91-.55,1.5-1.39,3.01-2.52,4.53l-.88-.7Zm.51-9.71v-1.04h6.38v1.04h-6.38Zm5.98,10.24l-3.7-5.54,.88-.7,3.73,5.58-.91,.66Zm-.59-5.87v-1.04h3.04v1.04h-3.04Zm2.61,7.82v-14.26h1.1v14.26h-1.1Zm3.18,.27v-14.77h1.12v14.77h-1.12Z"/>
        <path class="cls-4" d="M240.54,66.8v-1.06h13.82v1.06h-13.82Zm11.9-12.5v1.04h-8.98v5.5h9.12v1.02h-10.26v-7.57h10.11Zm-5.55,12.26v-5.3h1.14v5.3h-1.14Z"/>
        <path class="cls-4" d="M256.14,65.52v-11.12h1.15v10.08h1.3c.85,0,1.82-.05,2.89-.14,1.07-.09,2.09-.21,3.06-.36l.13,1.01c-.93,.16-1.95,.29-3.06,.38s-2.19,.14-3.22,.14h-2.24Zm10.08,2.46v-14.77h1.15v14.77h-1.15Zm.67-7.94v-1.06h2.93v1.06h-2.93Z"/>
        <path class="cls-4" d="M274.97,60.47c1.33-.79,2.33-1.59,2.98-2.41,.65-.82,.98-1.75,.98-2.79v-.75h1.12v.75c0,1.25-.37,2.36-1.1,3.34-.74,.98-1.87,1.9-3.41,2.78l-.56-.91Zm.59-5.42v-1.02h7.87v1.02h-7.87Zm5.33,13.09c-.7,0-1.32-.13-1.84-.38-.52-.26-.92-.61-1.2-1.06-.28-.45-.42-.95-.42-1.52s.14-1.06,.42-1.51,.68-.81,1.2-1.07c.52-.26,1.14-.39,1.84-.39h3.1c.7,0,1.32,.13,1.84,.39,.52,.26,.92,.62,1.2,1.07s.42,.96,.42,1.51-.14,1.07-.42,1.52c-.28,.45-.68,.8-1.2,1.06-.52,.26-1.14,.38-1.84,.38h-3.1Zm2.88-1.02c.82,0,1.45-.18,1.88-.54,.43-.36,.65-.83,.65-1.42s-.22-1.03-.65-1.39c-.43-.36-1.06-.54-1.88-.54h-2.66c-.82,0-1.45,.18-1.89,.54-.44,.36-.66,.83-.66,1.39s.22,1.06,.66,1.42c.44,.36,1.07,.54,1.89,.54h2.66Zm-.35-5.95l-4.75-3.31,.62-.85,4.72,3.22-.59,.94Zm-.51-3.55v-1.01h3.79v1.01h-3.79Zm3.18,3.7v-8.06h1.14v8.06h-1.14Z"/>
        <path class="cls-4" d="M289.77,60.8c1.08-.71,1.87-1.46,2.39-2.22,.52-.77,.78-1.64,.78-2.62v-.38h1.1v.38c0,1.21-.3,2.26-.89,3.16s-1.53,1.76-2.82,2.57l-.56-.88Zm.45-4.78v-1.02h6.61v1.02h-6.61Zm6.42,5.34l-3.81-3.14,.62-.82,3.82,3.09-.64,.86Zm4.82,6.77v-4.19h-8.54v-1.06h9.68v5.25h-1.14Zm-8.51-12.77v-2.34h1.1v2.34h-1.1Zm5.22,6.48v-8.46h1.1v8.46h-1.1Zm.53-3.97v-1.02h3.26v1.02h-3.26Zm2.8,3.97v-8.62h1.1v8.62h-1.1Z"/>
        <path class="cls-4" d="M305.29,65.55l-.06-1.06h2.69c.95,0,2.09-.04,3.42-.13,1.33-.08,2.56-.2,3.69-.34l.13,1.01c-1.1,.16-2.31,.29-3.64,.38s-2.55,.14-3.66,.14h-2.56Zm4.66-3.55c-.74,0-1.39-.14-1.98-.42s-1.04-.71-1.38-1.29c-.34-.58-.51-1.28-.51-2.11v-.34c0-.83,.17-1.54,.51-2.11,.34-.58,.8-1,1.38-1.29,.58-.28,1.24-.42,1.98-.42s1.38,.14,1.96,.42c.58,.28,1.04,.71,1.38,1.29,.34,.58,.51,1.28,.51,2.11v.34c0,.83-.17,1.54-.51,2.11s-.8,1.01-1.38,1.29c-.58,.28-1.23,.42-1.96,.42Zm0-1.06c.8,0,1.45-.24,1.95-.72,.5-.48,.75-1.17,.75-2.06v-.3c0-.9-.25-1.59-.74-2.07s-1.15-.73-1.96-.73-1.47,.24-1.97,.73-.75,1.18-.75,2.07v.3c0,.9,.25,1.58,.75,2.06,.5,.48,1.16,.72,1.97,.72Zm6.48,7.04v-14.77h1.14v14.77h-1.14Z"/>
        <path class="cls-4" d="M324.16,62.37v-1.06h13.82v1.06h-13.82Zm1.25-3.71c1.72-.52,3.01-1.12,3.89-1.79,.87-.67,1.31-1.4,1.31-2.19v-.77h1.12v.75c0,1.08-.48,2.02-1.45,2.84-.97,.82-2.47,1.53-4.52,2.14l-.35-.98Zm.69,9.33v-4.29h1.14v3.23h9.22v1.06h-10.35Zm.08-13.39v-1.01h9.81v1.01h-9.81Zm10.11,5.04l-6.06-2.75,.5-.93,6,2.74-.43,.94Zm-5.78,2.26v-2.74h1.14v2.74h-1.14Z"/>
        <path class="cls-4" d="M339.15,65.22c1.07-1.39,1.86-2.76,2.38-4.12,.52-1.36,.78-2.89,.78-4.6v-1.44h1.1v1.44c0,1.77-.27,3.41-.82,4.91-.55,1.5-1.39,3.01-2.52,4.53l-.91-.72Zm.53-9.7v-1.04h6.38v1.04h-6.38Zm5.97,10.24l-3.68-5.54,.9-.72,3.71,5.58-.93,.67Zm1.82,1.95v-14.26h1.1v14.26h-1.1Zm.48-7.66v-1.06h3.39v1.06h-3.39Zm2.91,7.94v-14.77h1.12v14.77h-1.12Z"/>
        <path class="cls-4" d="M130.97,103.15c-.45,0-.86-.11-1.24-.33-.38-.22-.68-.52-.9-.9-.22-.38-.33-.79-.33-1.22s.11-.86,.33-1.24c.22-.38,.52-.68,.9-.9,.38-.22,.79-.33,1.24-.33s.86,.11,1.24,.33c.38,.22,.68,.52,.9,.9,.22,.38,.33,.79,.33,1.24s-.11,.85-.33,1.22c-.22,.38-.52,.68-.9,.9-.38,.22-.79,.33-1.24,.33Z"/>
        <path class="cls-4" d="M145.65,101.3v-1.01h13.82v1.01h-13.82Zm5.3,6.85c-.78,0-1.44-.11-1.99-.34-.55-.22-.97-.53-1.25-.93s-.42-.85-.42-1.38,.14-.96,.42-1.36c.28-.39,.7-.7,1.25-.93,.55-.22,1.21-.34,1.99-.34h3.23c.79,0,1.46,.11,2.01,.34,.55,.22,.97,.53,1.25,.93,.28,.4,.42,.85,.42,1.36s-.14,.98-.42,1.38c-.28,.39-.7,.7-1.25,.93-.55,.22-1.22,.34-2.01,.34h-3.23Zm6.45-14.56v.99h-8.67v3.09h8.83v1.01h-9.97v-5.09h9.81Zm-3.47,13.55c.92,0,1.61-.15,2.08-.44,.47-.29,.7-.69,.7-1.19s-.23-.89-.7-1.18-1.16-.42-2.08-.42h-2.72c-.92,0-1.61,.14-2.08,.42-.47,.28-.7,.67-.7,1.18s.23,.9,.7,1.19c.47,.29,1.16,.44,2.08,.44h2.72Zm-1.92-6.22v-2.86h1.14v2.86h-1.14Z"/>
        <path class="cls-4" d="M165.31,100.02c-1.12,0-2.04-.27-2.77-.81-.73-.54-1.09-1.3-1.09-2.3v-.26c0-1,.36-1.77,1.08-2.3,.72-.53,1.65-.8,2.78-.8s2.02,.27,2.74,.8c.72,.53,1.08,1.3,1.08,2.3v.26c0,.99-.36,1.76-1.08,2.3-.72,.54-1.63,.81-2.74,.81Zm0-1.04c.8,0,1.45-.18,1.94-.54,.5-.36,.74-.88,.74-1.55v-.21c0-.66-.25-1.18-.74-1.54-.5-.37-1.14-.55-1.94-.55s-1.46,.18-1.96,.55-.74,.88-.74,1.54v.21c0,.67,.25,1.19,.74,1.55,.5,.36,1.15,.54,1.96,.54Zm-1.5,9.09v-3.82h8.35v-1.76h-8.42v-.98h9.55v3.73h-8.34v1.82h8.96v1.01h-10.11Zm8.35-7.62v-7.23h1.14v7.23h-1.14Z"/>
        <path class="cls-4" d="M175.81,106.02l-.05-1.04h2.54c.92,0,2.03-.04,3.33-.13,1.3-.08,2.5-.2,3.6-.34l.13,1.01c-1.1,.15-2.3,.27-3.61,.36s-2.48,.14-3.51,.14h-2.43Zm.21-9.94v-.98h8.5v.98h-8.5Zm4.27,6.83c-1.03,0-1.89-.25-2.55-.74-.67-.49-1-1.16-1-2.02v-.27c0-.86,.33-1.54,.99-2.02,.66-.49,1.51-.73,2.56-.73s1.87,.24,2.53,.73c.66,.49,.99,1.16,.99,2.02v.27c0,.85-.33,1.53-.99,2.02-.66,.49-1.5,.74-2.53,.74Zm0-.96c.69,0,1.27-.17,1.72-.5,.45-.33,.68-.77,.68-1.31v-.22c0-.55-.23-1-.68-1.33-.45-.33-1.03-.5-1.72-.5s-1.29,.17-1.74,.5c-.46,.33-.69,.77-.69,1.33v.22c0,.54,.23,.98,.69,1.31s1.04,.5,1.74,.5Zm-.59-6.34v-2.38h1.15v2.38h-1.15Zm.08,9.82v-3.38h1.15v3.38h-1.15Zm6.86,2.54v-14.77h1.14v14.77h-1.14Zm.62-7.79v-1.04h2.82v1.04h-2.82Z"/>
        <path class="cls-4" d="M191.02,105.54l-.05-1.06h1.9c.78,0,1.67-.04,2.66-.1,1-.07,1.93-.16,2.79-.28l.13,1.01c-.85,.14-1.78,.25-2.78,.32-1,.08-1.96,.11-2.86,.11h-1.79Zm.03-10.08v-1.06h6.82v1.06h-6.82Zm1.28,9.33v-9.86h1.04v9.86h-1.04Zm3.23-.11v-9.74h1.06v9.74h-1.06Zm1.98-6.3v-1.02h2.59v1.02h-2.59Zm0,3.41v-1.04h2.59v1.04h-2.59Zm2.05,5.94v-14.26h1.1v14.26h-1.1Zm3.09,.27v-14.77h1.12v14.77h-1.12Z"/>
        <path class="cls-4" d="M209.85,105.17c1.33-1.37,2.32-2.78,2.97-4.26,.65-1.47,.97-3.11,.97-4.93v-1.86h1.12v1.86c0,1.91-.35,3.67-1.04,5.29-.69,1.62-1.77,3.17-3.22,4.66l-.8-.77Zm8.16,.61l-4.59-5.65,.85-.72,4.59,5.63-.85,.74Zm2.69,2.21v-14.77h1.15v14.77h-1.15Zm.67-7.94v-1.06h2.93v1.06h-2.93Z"/>
        <path class="cls-4" d="M225.37,101.38v-1.01h13.82v1.01h-13.82Zm5.3,6.77c-.78,0-1.44-.11-1.99-.34-.55-.22-.97-.54-1.25-.94s-.42-.86-.42-1.37,.14-.96,.42-1.36c.28-.39,.7-.7,1.25-.93,.55-.22,1.21-.34,1.99-.34h3.23c.79,0,1.46,.11,2.01,.34,.55,.22,.97,.53,1.25,.93,.28,.4,.42,.85,.42,1.36s-.14,.97-.42,1.37c-.28,.4-.7,.71-1.25,.94-.55,.22-1.22,.34-2.01,.34h-3.23Zm.59-9.41c-1.3,0-2.32-.23-3.06-.68-.74-.45-1.11-1.11-1.11-1.98s.37-1.54,1.1-1.98c.74-.45,1.76-.67,3.07-.67h2.06c1.31,0,2.34,.22,3.07,.67,.74,.45,1.1,1.11,1.1,1.98s-.37,1.52-1.11,1.98c-.74,.45-1.76,.68-3.06,.68h-2.06Zm2.38,8.38c.92,0,1.61-.14,2.08-.43,.47-.29,.7-.68,.7-1.18s-.23-.89-.7-1.18-1.16-.42-2.08-.42h-2.72c-.92,0-1.61,.14-2.08,.42-.47,.28-.7,.67-.7,1.18s.23,.9,.7,1.18c.47,.29,1.16,.43,2.08,.43h2.72Zm-.51-9.36c1.03,0,1.83-.15,2.38-.44,.55-.29,.83-.71,.83-1.24s-.27-.94-.82-1.22c-.55-.28-1.35-.42-2.39-.42h-1.68c-1.05,0-1.85,.14-2.4,.42-.55,.28-.83,.69-.83,1.22s.28,.96,.83,1.25,1.35,.43,2.4,.43h1.68Zm-3.74,3.15v-2.75h1.1v2.75h-1.1Zm4.7,0v-2.75h1.1v2.75h-1.1Z"/>
        <path class="cls-4" d="M130.97,143.15c-.45,0-.86-.11-1.24-.33-.38-.22-.68-.52-.9-.9-.22-.38-.33-.79-.33-1.22s.11-.86,.33-1.24c.22-.38,.52-.68,.9-.9,.38-.22,.79-.33,1.24-.33s.86,.11,1.24,.33c.38,.22,.68,.52,.9,.9,.22,.38,.33,.79,.33,1.24s-.11,.85-.33,1.22c-.22,.38-.52,.68-.9,.9-.38,.22-.79,.33-1.24,.33Z"/>
        <path class="cls-4" d="M146.08,140.61v-6.59h1.15v5.54h1.3c.84,0,1.8-.04,2.87-.14,1.07-.09,2.09-.21,3.06-.34l.14,1.01c-.93,.16-1.95,.29-3.06,.38s-2.19,.14-3.22,.14h-2.24Zm2.03,7.38v-5.71h9.2v5.71h-9.2Zm1.15-1.04h6.9v-3.65h-6.9v3.65Zm6.9-5.73v-8h1.15v8h-1.15Zm.67-3.65v-1.04h2.93v1.04h-2.93Z"/>
        <path class="cls-4" d="M160.81,141.79v-1.01h13.82v1.01h-13.82Zm10.9,6.35v-3.46h-9.1v-1.02h10.26v4.48h-1.15Zm-8.96-8.94v-5.7h1.14v4.72h7.68v-4.72h1.15v5.7h-9.97Zm.64-2.83v-.98h8.69v.98h-8.69Zm3.66,7.71v-2.82h1.14v2.82h-1.14Z"/>
        <path class="cls-4" d="M176.06,135.87v-.99h8.56v.99h-8.56Zm4.3,6.8c-.67,0-1.28-.11-1.82-.33s-.97-.54-1.29-.95-.47-.91-.47-1.49v-.27c0-.85,.34-1.52,1.02-2.01s1.53-.73,2.57-.73,1.89,.24,2.56,.73c.67,.49,1.01,1.15,1.01,2.01v.27c0,.85-.34,1.53-1.01,2.02-.67,.5-1.53,.74-2.56,.74Zm0-1.01c.69,0,1.27-.16,1.74-.49,.47-.33,.7-.75,.7-1.29v-.22c0-.53-.23-.96-.7-1.29s-1.05-.49-1.74-.49-1.29,.16-1.75,.49c-.46,.33-.7,.75-.7,1.29v.22c0,.53,.23,.96,.7,1.29,.46,.33,1.05,.49,1.75,.49Zm-1.92,6.3v-3.97h1.15v2.93h8.88v1.04h-10.03Zm1.33-12.58v-2.37h1.14v2.37h-1.14Zm6.72,9.18v-11.36h1.14v11.36h-1.14Zm.66-5.76v-1.07h2.94v1.07h-2.94Z"/>
        <path class="cls-4" d="M195.87,140.31c1.87-.61,3.34-1.37,4.41-2.3,1.07-.92,1.61-1.91,1.61-2.95v-.43l.45,.53h-6.22v-1.06h6.93v.72c0,1.46-.58,2.73-1.74,3.81-1.16,1.08-2.82,1.97-4.98,2.67l-.45-.99Zm5.3,7.82c-.7,0-1.31-.13-1.83-.38-.52-.26-.91-.61-1.19-1.06-.28-.45-.42-.95-.42-1.52s.14-1.06,.42-1.51,.67-.81,1.19-1.07c.52-.26,1.13-.39,1.83-.39h3.12c.7,0,1.32,.13,1.84,.39,.52,.26,.92,.62,1.2,1.07s.42,.96,.42,1.51-.14,1.07-.42,1.52c-.28,.45-.68,.8-1.2,1.06-.52,.26-1.14,.38-1.84,.38h-3.12Zm2.9-1.02c.82,0,1.45-.18,1.88-.54,.43-.36,.65-.83,.65-1.42s-.22-1.03-.65-1.39c-.43-.36-1.06-.54-1.88-.54h-2.66c-.82,0-1.45,.18-1.89,.54-.44,.36-.66,.83-.66,1.39s.22,1.06,.66,1.42c.44,.36,1.07,.54,1.89,.54h2.66Zm-1.54-10.5v-.98h4.45v.98h-4.45Zm.13,2.78v-.98h4.32v.98h-4.32Zm3.73,1.9v-8.06h1.14v8.06h-1.14Z"/>
        <path class="cls-4" d="M210.05,145.23c1.06-1.39,1.84-2.76,2.36-4.13,.52-1.37,.78-2.9,.78-4.61v-1.44h1.09v1.44c0,1.77-.27,3.41-.82,4.91-.55,1.5-1.39,3.01-2.52,4.53l-.88-.7Zm.51-9.71v-1.04h6.38v1.04h-6.38Zm5.98,10.24l-3.7-5.54,.88-.7,3.73,5.58-.91,.66Zm-.59-5.87v-1.04h3.04v1.04h-3.04Zm2.61,7.82v-14.26h1.1v14.26h-1.1Zm3.18,.27v-14.77h1.12v14.77h-1.12Z"/>
        <path class="cls-4" d="M225.37,142.59v-1.06h13.82v1.06h-13.82Zm1.86,5.39v-3.98h1.15v2.93h9.28v1.06h-10.43Zm.08-8.19v-6.29h1.14v5.3h7.68v-5.3h1.15v6.29h-9.97Zm.64-3.1v-1.01h8.69v1.01h-8.69Zm3.78,8.45v-3.23h1.14v3.23h-1.14Z"/>
        <path class="cls-4" d="M244.46,146.02c-1.11,0-2.01-.4-2.7-1.2-.69-.8-1.03-2.03-1.03-3.7v-2.21c0-1.66,.34-2.9,1.03-3.7s1.59-1.2,2.7-1.2,1.99,.4,2.68,1.2,1.03,2.03,1.03,3.7v2.21c0,1.66-.34,2.9-1.03,3.7-.69,.8-1.58,1.2-2.68,1.2Zm0-1.06c.78,0,1.4-.31,1.86-.94,.46-.63,.7-1.6,.7-2.91v-2.19c0-1.31-.23-2.28-.7-2.9s-1.09-.94-1.86-.94-1.42,.31-1.89,.94c-.47,.62-.7,1.59-.7,2.9v2.19c0,1.31,.23,2.28,.7,2.91,.47,.63,1.1,.94,1.89,.94Zm6.59,3.02v-14.77h1.14v14.77h-1.14Zm.66-10.26v-1.06h2.94v1.06h-2.94Zm0,4.94v-1.06h2.94v1.06h-2.94Z"/>
        <path class="cls-4" d="M259.6,140.85v-1.02h13.82v1.02h-13.82Zm5.33,7.3c-.78,0-1.45-.12-2.01-.36-.56-.24-.98-.57-1.26-.99-.28-.42-.42-.9-.42-1.43s.14-1.01,.42-1.43c.28-.42,.7-.75,1.26-.99,.56-.24,1.23-.36,2.01-.36h3.17c.79,0,1.46,.12,2.02,.36,.56,.24,.98,.57,1.26,.99,.28,.42,.42,.9,.42,1.43s-.14,1.01-.42,1.43c-.28,.42-.7,.75-1.26,.99s-1.23,.36-2.02,.36h-3.17Zm4.88-9.44c.15-.73,.27-1.46,.35-2.2s.13-1.32,.13-1.74v-.51l.43,.53h-9.26v-1.04h9.97v.77c0,.6-.05,1.28-.14,2.05-.09,.77-.22,1.54-.38,2.3l-1.1-.16Zm-1.98,8.43c.93,0,1.63-.16,2.11-.48,.48-.32,.72-.76,.72-1.31s-.24-.96-.73-1.28c-.49-.32-1.19-.48-2.1-.48h-2.62c-.92,0-1.62,.16-2.1,.48-.49,.32-.73,.75-.73,1.28s.24,.99,.72,1.31c.48,.32,1.18,.48,2.11,.48h2.62Zm-2.42-6.83v-3.54h1.14v3.54h-1.14Z"/>
        <path class="cls-4" d="M274.77,141.3v-1.01h13.82v1.01h-13.82Zm5.3,6.85c-.78,0-1.44-.11-1.99-.34-.55-.22-.97-.53-1.25-.93s-.42-.85-.42-1.38,.14-.96,.42-1.36c.28-.39,.7-.7,1.25-.93,.55-.22,1.21-.34,1.99-.34h3.23c.79,0,1.46,.11,2.01,.34,.55,.22,.97,.53,1.25,.93,.28,.4,.42,.85,.42,1.36s-.14,.98-.42,1.38c-.28,.39-.7,.7-1.25,.93-.55,.22-1.22,.34-2.01,.34h-3.23Zm6.45-14.56v.99h-8.67v3.09h8.83v1.01h-9.97v-5.09h9.81Zm-3.47,13.55c.92,0,1.61-.15,2.08-.44,.47-.29,.7-.69,.7-1.19s-.23-.89-.7-1.18-1.16-.42-2.08-.42h-2.72c-.92,0-1.61,.14-2.08,.42-.47,.28-.7,.67-.7,1.18s.23,.9,.7,1.19c.47,.29,1.16,.44,2.08,.44h2.72Zm-1.92-6.22v-2.86h1.14v2.86h-1.14Z"/>
        <path class="cls-4" d="M290.73,140.4v-6.46h1.1v5.42h4.85v-5.42h1.1v6.46h-7.06Zm.54-3.3v-1.02h5.97v1.02h-5.97Zm1.65,10.88v-6.11h1.14v5.07h7.22v-5.07h1.14v6.11h-9.49Zm.62-3.15v-1.01h8.24v1.01h-8.24Zm3.89-7.26v-1.04h4.43v1.04h-4.43Zm3.84,3.44v-7.79h1.14v7.79h-1.14Z"/>
        <path class="cls-4" d="M304.94,145.23c1.06-1.39,1.84-2.76,2.36-4.13,.52-1.37,.78-2.9,.78-4.61v-1.44h1.09v1.44c0,1.77-.27,3.41-.82,4.91-.55,1.5-1.39,3.01-2.52,4.53l-.88-.7Zm.51-9.71v-1.04h6.38v1.04h-6.38Zm5.98,10.24l-3.7-5.54,.88-.7,3.73,5.58-.91,.66Zm-.59-5.87v-1.04h3.04v1.04h-3.04Zm2.61,7.82v-14.26h1.1v14.26h-1.1Zm3.18,.27v-14.77h1.12v14.77h-1.12Z"/>
        <path class="cls-4" d="M320.09,146.02l-.05-1.04h2.54c.92,0,2.03-.04,3.33-.13,1.3-.08,2.5-.2,3.6-.34l.13,1.01c-1.1,.15-2.3,.27-3.61,.36s-2.48,.14-3.51,.14h-2.43Zm.21-9.94v-.98h8.5v.98h-8.5Zm4.27,6.83c-1.03,0-1.89-.25-2.55-.74-.67-.49-1-1.16-1-2.02v-.27c0-.86,.33-1.54,.99-2.02,.66-.49,1.51-.73,2.56-.73s1.87,.24,2.53,.73c.66,.49,.99,1.16,.99,2.02v.27c0,.85-.33,1.53-.99,2.02-.66,.49-1.5,.74-2.53,.74Zm0-.96c.69,0,1.27-.17,1.72-.5,.45-.33,.68-.77,.68-1.31v-.22c0-.55-.23-1-.68-1.33-.45-.33-1.03-.5-1.72-.5s-1.29,.17-1.74,.5c-.46,.33-.69,.77-.69,1.33v.22c0,.54,.23,.98,.69,1.31s1.04,.5,1.74,.5Zm-.59-6.34v-2.38h1.15v2.38h-1.15Zm.08,9.82v-3.38h1.15v3.38h-1.15Zm6.86,2.54v-14.77h1.14v14.77h-1.14Zm.62-7.79v-1.04h2.82v1.04h-2.82Z"/>
        <path class="cls-4" d="M127.65,186.79v-1.04h13.82v1.04h-13.82Zm.83-5.55c1.9-.9,3.3-1.83,4.22-2.82,.91-.98,1.37-2.04,1.37-3.18v-1.17h1.14v1.17c0,1.34-.5,2.6-1.5,3.76-1,1.16-2.56,2.24-4.7,3.23l-.53-.99Zm11.52,.99l-6.18-4.22,.51-.98,6.3,4.26-.64,.94Zm-6,4.32v-4.74h1.14v4.74h-1.14Z"/>
        <path class="cls-4" d="M143.18,185.28c1.44-1.28,2.57-2.75,3.39-4.4,.82-1.65,1.23-3.33,1.23-5.04v-.77l.42,.45h-4.77v-1.04h5.49v1.14c0,2.02-.43,3.91-1.3,5.67-.87,1.77-2.08,3.37-3.64,4.82l-.82-.83Zm5.23-2.62v-1.02h3.2v1.02h-3.2Zm.08-4.62v-1.04h3.12v1.04h-3.12Zm2.69,9.68v-14.26h1.1v14.26h-1.1Zm3.18,.27v-14.77h1.12v14.77h-1.12Z"/>
        <path class="cls-4" d="M130.97,223.15c-.45,0-.86-.11-1.24-.33-.38-.22-.68-.52-.9-.9-.22-.38-.33-.79-.33-1.22s.11-.86,.33-1.24c.22-.38,.52-.68,.9-.9,.38-.22,.79-.33,1.24-.33s.86,.11,1.24,.33c.38,.22,.68,.52,.9,.9,.22,.38,.33,.79,.33,1.24s-.11,.85-.33,1.22c-.22,.38-.52,.68-.9,.9-.38,.22-.79,.33-1.24,.33Z"/>
        <path class="cls-4" d="M146.08,220.61v-6.59h1.15v5.54h1.3c.84,0,1.8-.04,2.87-.14,1.07-.09,2.09-.21,3.06-.34l.14,1.01c-.93,.16-1.95,.29-3.06,.38s-2.19,.14-3.22,.14h-2.24Zm2.03,7.38v-5.71h9.2v5.71h-9.2Zm1.15-1.04h6.9v-3.65h-6.9v3.65Zm6.9-5.73v-8h1.15v8h-1.15Zm.67-3.65v-1.04h2.93v1.04h-2.93Z"/>
        <path class="cls-4" d="M160.81,221.79v-1.01h13.82v1.01h-13.82Zm10.9,6.35v-3.46h-9.1v-1.02h10.26v4.48h-1.15Zm-8.96-8.94v-5.7h1.14v4.72h7.68v-4.72h1.15v5.7h-9.97Zm.64-2.83v-.98h8.69v.98h-8.69Zm3.66,7.71v-2.82h1.14v2.82h-1.14Z"/>
        <path class="cls-4" d="M175.98,226.8v-1.06h13.82v1.06h-13.82Zm10.19-3.87c.23-1.25,.43-2.52,.58-3.82s.22-2.34,.22-3.14v-.99l.45,.53h-9.89v-1.04h10.58v1.25c0,.99-.07,2.14-.22,3.46-.15,1.31-.35,2.63-.59,3.97l-1.12-.21Zm-6.8,3.63v-6.93h1.1v6.93h-1.1Zm3.74,0v-6.93h1.1v6.93h-1.1Z"/>
        <path class="cls-4" d="M195.61,220.87c-.73,0-1.38-.13-1.95-.39-.58-.26-1.03-.65-1.37-1.17-.34-.52-.5-1.15-.5-1.9v-.32c0-.75,.17-1.38,.5-1.9s.79-.91,1.37-1.17c.58-.26,1.23-.39,1.95-.39s1.36,.13,1.94,.39c.58,.26,1.03,.65,1.37,1.17s.5,1.15,.5,1.9v.32c0,.75-.17,1.38-.5,1.9-.34,.52-.79,.91-1.37,1.17-.58,.26-1.22,.39-1.94,.39Zm0-1.02c.79,0,1.43-.21,1.92-.64,.49-.43,.74-1.04,.74-1.82v-.26c0-.79-.25-1.4-.74-1.82-.49-.43-1.13-.64-1.92-.64s-1.45,.21-1.94,.64c-.49,.43-.74,1.04-.74,1.82v.26c0,.79,.25,1.4,.74,1.82,.49,.43,1.14,.64,1.94,.64Zm6.86,8.29v-4.51h-8.5v-1.04h9.65v5.55h-1.15Zm-3.82-11.9v-.98h4.43v.98h-4.43Zm0,2.78v-.98h4.43v.98h-4.43Zm3.82,2.53v-8.3h1.15v8.3h-1.15Z"/>
        <path class="cls-4" d="M209.71,220.87c-.93,0-1.68-.3-2.25-.9-.57-.6-.86-1.45-.86-2.56v-.32c0-1.11,.29-1.96,.86-2.56,.57-.6,1.32-.9,2.25-.9s1.65,.3,2.22,.9c.57,.6,.86,1.45,.86,2.56v.32c0,1.11-.29,1.96-.86,2.56-.57,.6-1.31,.9-2.22,.9Zm0-1.02c.6,0,1.08-.22,1.44-.65,.36-.43,.54-1.04,.54-1.82v-.26c0-.78-.18-1.38-.54-1.82-.36-.43-.84-.65-1.44-.65s-1.1,.22-1.46,.65c-.37,.43-.55,1.04-.55,1.82v.26c0,.78,.18,1.38,.55,1.82,.37,.43,.86,.65,1.46,.65Zm8.13,8.29v-4.51h-8.54v-1.04h9.7v5.55h-1.15Zm-3.28-6.59v-8.16h1.09v8.16h-1.09Zm.51-3.81v-1.04h3.28v1.04h-3.28Zm2.82,3.81v-8.3h1.1v8.3h-1.1Z"/>
        <path class="cls-4" d="M221.02,229.38l5.6-16.7h1.2l-5.6,16.7h-1.2Z"/>
        <path class="cls-4" d="M228.7,221.79v-1.01h13.82v1.01h-13.82Zm10.9,6.35v-3.46h-9.1v-1.02h10.26v4.48h-1.15Zm-8.96-8.94v-5.7h1.14v4.72h7.68v-4.72h1.15v5.7h-9.97Zm.64-2.83v-.98h8.69v.98h-8.69Zm3.66,7.71v-2.82h1.14v2.82h-1.14Z"/>
        <path class="cls-4" d="M243.95,215.87v-.99h8.56v.99h-8.56Zm4.3,6.8c-.67,0-1.28-.11-1.82-.33s-.97-.54-1.29-.95-.47-.91-.47-1.49v-.27c0-.85,.34-1.52,1.02-2.01s1.53-.73,2.57-.73,1.89,.24,2.56,.73c.67,.49,1.01,1.15,1.01,2.01v.27c0,.85-.34,1.53-1.01,2.02-.67,.5-1.53,.74-2.56,.74Zm0-1.01c.69,0,1.27-.16,1.74-.49,.47-.33,.7-.75,.7-1.29v-.22c0-.53-.23-.96-.7-1.29s-1.05-.49-1.74-.49-1.29,.16-1.75,.49c-.46,.33-.7,.75-.7,1.29v.22c0,.53,.23,.96,.7,1.29,.46,.33,1.05,.49,1.75,.49Zm-1.92,6.3v-3.97h1.15v2.93h8.88v1.04h-10.03Zm1.33-12.58v-2.37h1.14v2.37h-1.14Zm6.72,9.18v-11.36h1.14v11.36h-1.14Zm.66-5.76v-1.07h2.94v1.07h-2.94Z"/>
        <path class="cls-4" d="M262.93,222.07v-1.01h13.82v1.01h-13.82Zm1.15-3.2c1.75-.44,3.07-.94,3.95-1.51,.89-.57,1.33-1.21,1.33-1.93v-.42h1.1v.42c0,.67-.21,1.28-.64,1.81s-1.08,1.01-1.97,1.44c-.89,.43-2.03,.82-3.44,1.18l-.34-.99Zm4.1,9.26c-1.17,0-2.07-.21-2.69-.62s-.93-.98-.93-1.7,.31-1.28,.94-1.7c.62-.42,1.52-.62,2.68-.62h3.34c1.16,0,2.06,.21,2.68,.62s.94,.98,.94,1.7-.31,1.28-.93,1.7c-.62,.42-1.52,.62-2.69,.62h-3.34Zm-3.31-12.59v-1.01h9.97v1.01h-9.97Zm6.38,11.62c.92,0,1.6-.12,2.06-.34,.45-.23,.68-.56,.68-1s-.23-.77-.68-1c-.45-.23-1.14-.34-2.06-.34h-2.8c-.92,0-1.61,.12-2.06,.34-.46,.23-.69,.56-.69,1s.23,.77,.69,1,1.15,.34,2.06,.34h2.8Zm3.9-7.3l-6.16-2.5,.5-.91,6.1,2.45-.43,.96Zm-5.87,1.71v-2.19h1.14v2.19h-1.14Zm.06-6.77v-1.81h1.12v1.81h-1.12Z"/>
        <path class="cls-4" d="M281.98,223.62v-1.04h13.82v1.04h-13.82Zm1.79-3.41v-6.21h10.26v6.21h-10.26Zm1.14-1.02h7.97v-4.14h-7.97v4.14Zm3.42,8.98v-5.38h1.14v5.38h-1.14Z"/>
        <path class="cls-4" d="M301.61,220.87c-.73,0-1.38-.13-1.95-.39-.58-.26-1.03-.65-1.37-1.17-.34-.52-.5-1.15-.5-1.9v-.32c0-.75,.17-1.38,.5-1.9s.79-.91,1.37-1.17c.58-.26,1.23-.39,1.95-.39s1.36,.13,1.94,.39c.58,.26,1.03,.65,1.37,1.17s.5,1.15,.5,1.9v.32c0,.75-.17,1.38-.5,1.9-.34,.52-.79,.91-1.37,1.17-.58,.26-1.22,.39-1.94,.39Zm0-1.02c.79,0,1.43-.21,1.92-.64,.49-.43,.74-1.04,.74-1.82v-.26c0-.79-.25-1.4-.74-1.82-.49-.43-1.13-.64-1.92-.64s-1.45,.21-1.94,.64c-.49,.43-.74,1.04-.74,1.82v.26c0,.79,.25,1.4,.74,1.82,.49,.43,1.14,.64,1.94,.64Zm6.86,8.29v-4.51h-8.5v-1.04h9.65v5.55h-1.15Zm-3.82-11.9v-.98h4.43v.98h-4.43Zm0,2.78v-.98h4.43v.98h-4.43Zm3.82,2.53v-8.3h1.15v8.3h-1.15Z"/>
        <path class="cls-4" d="M315.71,220.87c-.93,0-1.68-.3-2.25-.9-.57-.6-.86-1.45-.86-2.56v-.32c0-1.11,.29-1.96,.86-2.56,.57-.6,1.32-.9,2.25-.9s1.65,.3,2.22,.9c.57,.6,.86,1.45,.86,2.56v.32c0,1.11-.29,1.96-.86,2.56-.57,.6-1.31,.9-2.22,.9Zm0-1.02c.6,0,1.08-.22,1.44-.65,.36-.43,.54-1.04,.54-1.82v-.26c0-.78-.18-1.38-.54-1.82-.36-.43-.84-.65-1.44-.65s-1.1,.22-1.46,.65c-.37,.43-.55,1.04-.55,1.82v.26c0,.78,.18,1.38,.55,1.82,.37,.43,.86,.65,1.46,.65Zm8.13,8.29v-4.51h-8.54v-1.04h9.7v5.55h-1.15Zm-3.28-6.59v-8.16h1.09v8.16h-1.09Zm.51-3.81v-1.04h3.28v1.04h-3.28Zm2.82,3.81v-8.3h1.1v8.3h-1.1Z"/>
        <path class="cls-4" d="M332.91,217.67c-.25,0-.45-.08-.62-.26-.17-.17-.26-.38-.26-.62s.08-.46,.26-.63c.17-.18,.38-.26,.62-.26s.46,.09,.63,.26c.18,.18,.26,.39,.26,.63s-.09,.45-.26,.62c-.18,.17-.39,.26-.63,.26Zm0,7.84c-.25,0-.45-.08-.62-.26-.17-.17-.26-.38-.26-.62s.08-.46,.26-.63c.17-.18,.38-.26,.62-.26s.46,.09,.63,.26c.18,.18,.26,.39,.26,.63s-.09,.45-.26,.62c-.18,.17-.39,.26-.63,.26Z"/>
        <path class="cls-4" d="M339.69,226.8v-1.06h13.82v1.06h-13.82Zm10.19-3.87c.23-1.25,.43-2.52,.58-3.82s.22-2.34,.22-3.14v-.99l.45,.53h-9.89v-1.04h10.58v1.25c0,.99-.07,2.14-.22,3.46-.15,1.31-.35,2.63-.59,3.97l-1.12-.21Zm-6.8,3.63v-6.93h1.1v6.93h-1.1Zm3.74,0v-6.93h1.1v6.93h-1.1Z"/>
        <path class="cls-4" d="M359.33,220.87c-.73,0-1.38-.13-1.95-.39-.58-.26-1.03-.65-1.37-1.17-.34-.52-.5-1.15-.5-1.9v-.32c0-.75,.17-1.38,.5-1.9s.79-.91,1.37-1.17c.58-.26,1.23-.39,1.95-.39s1.36,.13,1.94,.39c.58,.26,1.03,.65,1.37,1.17s.5,1.15,.5,1.9v.32c0,.75-.17,1.38-.5,1.9-.34,.52-.79,.91-1.37,1.17-.58,.26-1.22,.39-1.94,.39Zm0-1.02c.79,0,1.43-.21,1.92-.64,.49-.43,.74-1.04,.74-1.82v-.26c0-.79-.25-1.4-.74-1.82-.49-.43-1.13-.64-1.92-.64s-1.45,.21-1.94,.64c-.49,.43-.74,1.04-.74,1.82v.26c0,.79,.25,1.4,.74,1.82,.49,.43,1.14,.64,1.94,.64Zm6.86,8.29v-4.51h-8.5v-1.04h9.65v5.55h-1.15Zm-3.82-11.9v-.98h4.43v.98h-4.43Zm0,2.78v-.98h4.43v.98h-4.43Zm3.82,2.53v-8.3h1.15v8.3h-1.15Z"/>
        <path class="cls-4" d="M370.03,223.78v-1.06h13.82v1.06h-13.82Zm1.79-3.26v-6.58h1.14v5.55h7.97v-5.55h1.15v6.58h-10.26Zm.64-3.25v-1.04h8.98v1.04h-8.98Zm3.92,10.88v-5.06h1.14v5.06h-1.14Z"/>
        <path class="cls-4" d="M385.2,222.21v-1.06h13.82v1.06h-13.82Zm1.86,5.78v-4.29h1.15v3.23h9.28v1.06h-10.43Zm.08-8.64v-5.76h9.97v5.76h-9.97Zm1.14-1.04h7.68v-3.7h-7.68v3.7Zm3.28,6.83v-3.54h1.14v3.54h-1.14Z"/>
        <path class="cls-4" d="M130.97,263.15c-.45,0-.86-.11-1.24-.33-.38-.22-.68-.52-.9-.9-.22-.38-.33-.79-.33-1.22s.11-.86,.33-1.24c.22-.38,.52-.68,.9-.9,.38-.22,.79-.33,1.24-.33s.86,.11,1.24,.33c.38,.22,.68,.52,.9,.9,.22,.38,.33,.79,.33,1.24s-.11,.85-.33,1.22c-.22,.38-.52,.68-.9,.9-.38,.22-.79,.33-1.24,.33Z"/>
        <path class="cls-4" d="M145.73,255.87v-.99h8.56v.99h-8.56Zm4.3,6.8c-.67,0-1.28-.11-1.82-.33s-.97-.54-1.29-.95-.47-.91-.47-1.49v-.27c0-.85,.34-1.52,1.02-2.01s1.53-.73,2.57-.73,1.89,.24,2.56,.73c.67,.49,1.01,1.15,1.01,2.01v.27c0,.85-.34,1.53-1.01,2.02-.67,.5-1.53,.74-2.56,.74Zm0-1.01c.69,0,1.27-.16,1.74-.49,.47-.33,.7-.75,.7-1.29v-.22c0-.53-.23-.96-.7-1.29s-1.05-.49-1.74-.49-1.29,.16-1.75,.49c-.46,.33-.7,.75-.7,1.29v.22c0,.53,.23,.96,.7,1.29,.46,.33,1.05,.49,1.75,.49Zm-1.92,6.3v-3.97h1.15v2.93h8.88v1.04h-10.03Zm1.33-12.58v-2.37h1.14v2.37h-1.14Zm6.72,9.18v-11.36h1.14v11.36h-1.14Zm.66-5.76v-1.07h2.94v1.07h-2.94Z"/>
        <path class="cls-4" d="M160.81,260.32v-1.02h13.82v1.02h-13.82Zm10-.51c.17-.9,.31-1.8,.41-2.72,.1-.92,.15-1.64,.15-2.18v-.66l.45,.53h-9.26v-1.04h9.95v.91c0,.73-.05,1.56-.16,2.5-.11,.94-.25,1.88-.43,2.82l-1.1-.16Zm.9,8.34v-4.38h-9.1v-1.02h10.26v5.41h-1.15Zm-4.54-4.93v-3.3h1.14v3.3h-1.14Z"/>
        <path class="cls-4" d="M176.17,265.55l-.06-1.06h2.69c.95,0,2.09-.04,3.42-.13,1.33-.08,2.56-.2,3.69-.34l.13,1.01c-1.1,.16-2.31,.29-3.64,.38s-2.55,.14-3.66,.14h-2.56Zm4.66-3.55c-.74,0-1.39-.14-1.98-.42s-1.04-.71-1.38-1.29c-.34-.58-.51-1.28-.51-2.11v-.34c0-.83,.17-1.54,.51-2.11,.34-.58,.8-1,1.38-1.29,.58-.28,1.24-.42,1.98-.42s1.38,.14,1.96,.42c.58,.28,1.04,.71,1.38,1.29,.34,.58,.51,1.28,.51,2.11v.34c0,.83-.17,1.54-.51,2.11s-.8,1.01-1.38,1.29c-.58,.28-1.23,.42-1.96,.42Zm0-1.06c.8,0,1.45-.24,1.95-.72,.5-.48,.75-1.17,.75-2.06v-.3c0-.9-.25-1.59-.74-2.07s-1.15-.73-1.96-.73-1.47,.24-1.97,.73-.75,1.18-.75,2.07v.3c0,.9,.25,1.58,.75,2.06,.5,.48,1.16,.72,1.97,.72Zm6.48,7.04v-14.77h1.14v14.77h-1.14Z"/>
        <path class="cls-4" d="M195.65,265.52v-11.12h5.44v1.06h-4.29v9.02h.78c1.46,0,2.92-.11,4.38-.34l.13,1.02c-.73,.13-1.46,.22-2.21,.27-.75,.05-1.57,.08-2.48,.08h-1.76Zm7.55,2.19v-14.26h1.1v14.26h-1.1Zm.48-7.66v-1.06h3.39v1.06h-3.39Zm2.91,7.94v-14.77h1.12v14.77h-1.12Z"/>
        <path class="cls-4" d="M210.21,261.79v-1.01h13.82v1.01h-13.82Zm10.9,6.35v-3.46h-9.1v-1.02h10.26v4.48h-1.15Zm-8.96-8.94v-5.7h1.14v4.72h7.68v-4.72h1.15v5.7h-9.97Zm.64-2.83v-.98h8.69v.98h-8.69Zm3.66,7.71v-2.82h1.14v2.82h-1.14Z"/>
        <path class="cls-4" d="M225.37,263.92v-1.02h13.82v1.02h-13.82Zm1.79-2.88v-7.04h10.26v1.01h-9.12v5.06h9.44v.98h-10.58Zm.51-3.04v-.99h9.74v.99h-9.74Zm4.05,10.16v-4.99h1.14v4.99h-1.14Z"/>
        <path class="cls-4" d="M240.3,265.17c.86-.93,1.58-1.83,2.14-2.71s.99-1.82,1.3-2.82c.3-1,.46-2.09,.46-3.27v-1.31h1.12v1.31c0,1.82-.34,3.49-1.02,5.01s-1.73,3.04-3.15,4.56l-.83-.77Zm.58-9.65v-1.04h7.78v1.04h-7.78Zm7.49,10.26l-4.56-5.57,.85-.77,4.59,5.57-.88,.77Zm2.69,2.21v-14.77h1.14v14.77h-1.14Zm.66-7.94v-1.06h2.93v1.06h-2.93Z"/>
        <path class="cls-4" d="M259.1,260.87c-.93,0-1.68-.3-2.25-.9-.57-.6-.86-1.45-.86-2.56v-.32c0-1.11,.29-1.96,.86-2.56,.57-.6,1.32-.9,2.25-.9s1.65,.3,2.22,.9c.57,.6,.86,1.45,.86,2.56v.32c0,1.11-.29,1.96-.86,2.56-.57,.6-1.31,.9-2.22,.9Zm0-1.02c.6,0,1.08-.22,1.44-.65,.36-.43,.54-1.04,.54-1.82v-.26c0-.78-.18-1.38-.54-1.82-.36-.43-.84-.65-1.44-.65s-1.1,.22-1.46,.65c-.37,.43-.55,1.04-.55,1.82v.26c0,.78,.18,1.38,.55,1.82,.37,.43,.86,.65,1.46,.65Zm8.13,8.29v-4.51h-8.54v-1.04h9.7v5.55h-1.15Zm-3.28-6.59v-8.16h1.09v8.16h-1.09Zm.51-3.81v-1.04h3.28v1.04h-3.28Zm2.82,3.81v-8.3h1.1v8.3h-1.1Z"/>
        <path class="cls-4" d="M270.41,269.38l5.6-16.7h1.2l-5.6,16.7h-1.2Z"/>
        <path class="cls-4" d="M278.09,261.79v-1.01h13.82v1.01h-13.82Zm10.9,6.35v-3.46h-9.1v-1.02h10.26v4.48h-1.15Zm-8.96-8.94v-5.7h1.14v4.72h7.68v-4.72h1.15v5.7h-9.97Zm.64-2.83v-.98h8.69v.98h-8.69Zm3.66,7.71v-2.82h1.14v2.82h-1.14Z"/>
        <path class="cls-4" d="M293.34,255.87v-.99h8.56v.99h-8.56Zm4.3,6.8c-.67,0-1.28-.11-1.82-.33s-.97-.54-1.29-.95-.47-.91-.47-1.49v-.27c0-.85,.34-1.52,1.02-2.01s1.53-.73,2.57-.73,1.89,.24,2.56,.73c.67,.49,1.01,1.15,1.01,2.01v.27c0,.85-.34,1.53-1.01,2.02-.67,.5-1.53,.74-2.56,.74Zm0-1.01c.69,0,1.27-.16,1.74-.49,.47-.33,.7-.75,.7-1.29v-.22c0-.53-.23-.96-.7-1.29s-1.05-.49-1.74-.49-1.29,.16-1.75,.49c-.46,.33-.7,.75-.7,1.29v.22c0,.53,.23,.96,.7,1.29,.46,.33,1.05,.49,1.75,.49Zm-1.92,6.3v-3.97h1.15v2.93h8.88v1.04h-10.03Zm1.33-12.58v-2.37h1.14v2.37h-1.14Zm6.72,9.18v-11.36h1.14v11.36h-1.14Zm.66-5.76v-1.07h2.94v1.07h-2.94Z"/>
        <path class="cls-4" d="M312.32,260.32v-1.02h13.82v1.02h-13.82Zm10-.51c.17-.9,.31-1.8,.41-2.72,.1-.92,.15-1.64,.15-2.18v-.66l.45,.53h-9.26v-1.04h9.95v.91c0,.73-.05,1.56-.16,2.5-.11,.94-.25,1.88-.43,2.82l-1.1-.16Zm.9,8.34v-4.38h-9.1v-1.02h10.26v5.41h-1.15Zm-4.54-4.93v-3.3h1.14v3.3h-1.14Z"/>
        <path class="cls-4" d="M328.29,261.39v-7.3h7.07v7.3h-7.07Zm1.12-1.02h4.83v-5.25h-4.83v5.25Zm1.09,7.62v-4.5h1.14v3.44h9.04v1.06h-10.18Zm8.34-3.55v-11.22h1.15v11.22h-1.15Z"/>
        <path class="cls-4" d="M342.65,266.79v-1.04h13.82v1.04h-13.82Zm.83-5.55c1.9-.9,3.3-1.83,4.22-2.82,.91-.98,1.37-2.04,1.37-3.18v-1.17h1.14v1.17c0,1.34-.5,2.6-1.5,3.76-1,1.16-2.56,2.24-4.7,3.23l-.53-.99Zm11.52,.99l-6.18-4.22,.51-.98,6.3,4.26-.64,.94Zm-6,4.32v-4.74h1.14v4.74h-1.14Z"/>
        <path class="cls-4" d="M357.82,261.49v-1.01h13.82v1.01h-13.82Zm10.9,6.66v-3.74h-9.1v-1.06h10.26v4.8h-1.15Zm.85-14.56v.99h-8.67v3.18h8.83v.99h-9.97v-5.17h9.81Z"/>
        <path class="cls-4" d="M378.41,257.67c-.25,0-.45-.08-.62-.26-.17-.17-.26-.38-.26-.62s.08-.46,.26-.63c.17-.18,.38-.26,.62-.26s.46,.09,.63,.26c.18,.18,.26,.39,.26,.63s-.09,.45-.26,.62c-.18,.17-.39,.26-.63,.26Zm0,7.84c-.25,0-.45-.08-.62-.26-.17-.17-.26-.38-.26-.62s.08-.46,.26-.63c.17-.18,.38-.26,.62-.26s.46,.09,.63,.26c.18,.18,.26,.39,.26,.63s-.09,.45-.26,.62c-.18,.17-.39,.26-.63,.26Z"/>
        <path class="cls-4" d="M385.2,263.92v-1.02h13.82v1.02h-13.82Zm1.79-2.88v-7.04h10.26v1.01h-9.12v5.06h9.44v.98h-10.58Zm.51-3.04v-.99h9.74v.99h-9.74Zm4.05,10.16v-4.99h1.14v4.99h-1.14Z"/>
        <path class="cls-4" d="M400.13,265.17c.86-.93,1.58-1.83,2.14-2.71s.99-1.82,1.3-2.82c.3-1,.46-2.09,.46-3.27v-1.31h1.12v1.31c0,1.82-.34,3.49-1.02,5.01s-1.73,3.04-3.15,4.56l-.83-.77Zm.58-9.65v-1.04h7.78v1.04h-7.78Zm7.49,10.26l-4.56-5.57,.85-.77,4.59,5.57-.88,.77Zm2.69,2.21v-14.77h1.14v14.77h-1.14Zm.66-7.94v-1.06h2.93v1.06h-2.93Z"/>
        <path class="cls-4" d="M415.53,263.78v-1.06h13.82v1.06h-13.82Zm1.79-3.26v-6.58h1.14v5.55h7.97v-5.55h1.15v6.58h-10.26Zm.64-3.25v-1.04h8.98v1.04h-8.98Zm3.92,10.88v-5.06h1.14v5.06h-1.14Z"/>
        <path class="cls-4" d="M430.7,262.21v-1.06h13.82v1.06h-13.82Zm1.86,5.78v-4.29h1.15v3.23h9.28v1.06h-10.43Zm.08-8.64v-5.76h9.97v5.76h-9.97Zm1.14-1.04h7.68v-3.7h-7.68v3.7Zm3.28,6.83v-3.54h1.14v3.54h-1.14Z"/>
        <path class="cls-4" d="M130.97,303.15c-.45,0-.86-.11-1.24-.33-.38-.22-.68-.52-.9-.9-.22-.38-.33-.79-.33-1.22s.11-.86,.33-1.24c.22-.38,.52-.68,.9-.9,.38-.22,.79-.33,1.24-.33s.86,.11,1.24,.33c.38,.22,.68,.52,.9,.9,.22,.38,.33,.79,.33,1.24s-.11,.85-.33,1.22c-.22,.38-.52,.68-.9,.9-.38,.22-.79,.33-1.24,.33Z"/>
        <path class="cls-4" d="M146.08,300.61v-6.59h1.15v5.54h1.3c.84,0,1.8-.04,2.87-.14,1.07-.09,2.09-.21,3.06-.34l.14,1.01c-.93,.16-1.95,.29-3.06,.38s-2.19,.14-3.22,.14h-2.24Zm2.03,7.38v-5.71h9.2v5.71h-9.2Zm1.15-1.04h6.9v-3.65h-6.9v3.65Zm6.9-5.73v-8h1.15v8h-1.15Zm.67-3.65v-1.04h2.93v1.04h-2.93Z"/>
        <path class="cls-4" d="M160.89,295.87v-.99h8.56v.99h-8.56Zm4.3,6.8c-.67,0-1.28-.11-1.82-.33s-.97-.54-1.29-.95-.47-.91-.47-1.49v-.27c0-.85,.34-1.52,1.02-2.01s1.53-.73,2.57-.73,1.89,.24,2.56,.73c.67,.49,1.01,1.15,1.01,2.01v.27c0,.85-.34,1.53-1.01,2.02-.67,.5-1.53,.74-2.56,.74Zm0-1.01c.69,0,1.27-.16,1.74-.49,.47-.33,.7-.75,.7-1.29v-.22c0-.53-.23-.96-.7-1.29s-1.05-.49-1.74-.49-1.29,.16-1.75,.49c-.46,.33-.7,.75-.7,1.29v.22c0,.53,.23,.96,.7,1.29,.46,.33,1.05,.49,1.75,.49Zm-1.92,6.3v-3.97h1.15v2.93h8.88v1.04h-10.03Zm1.33-12.58v-2.37h1.14v2.37h-1.14Zm6.72,9.18v-11.36h1.14v11.36h-1.14Zm.66-5.76v-1.07h2.94v1.07h-2.94Z"/>
        <path class="cls-4" d="M176.77,305.22c1.25-.81,2.33-1.72,3.23-2.74,.91-1.02,1.6-2.09,2.09-3.22s.73-2.27,.73-3.41v-.77l.42,.45h-6.24v-1.04h6.98v1.14c0,2.05-.57,3.97-1.71,5.76-1.14,1.79-2.75,3.37-4.82,4.74l-.67-.9Zm10.56,2.77v-14.77h1.14v14.77h-1.14Z"/>
        <path class="cls-4" d="M195.63,300.48c-.73,0-1.38-.13-1.96-.38-.58-.25-1.04-.62-1.38-1.12s-.5-1.1-.5-1.8v-.27c0-1.06,.36-1.87,1.08-2.44,.72-.57,1.64-.86,2.76-.86,.73,0,1.38,.12,1.95,.37,.58,.25,1.03,.62,1.37,1.11s.5,1.1,.5,1.82v.27c0,.7-.17,1.3-.5,1.8s-.79,.87-1.38,1.12c-.58,.25-1.23,.38-1.94,.38Zm0-1.04c.8,0,1.45-.2,1.94-.6,.5-.4,.74-.96,.74-1.67v-.24c0-.72-.25-1.29-.74-1.68-.5-.39-1.14-.59-1.94-.59s-1.46,.2-1.95,.59c-.49,.39-.74,.96-.74,1.68v.24c0,.71,.25,1.27,.74,1.67,.49,.4,1.14,.6,1.95,.6Zm-1.49,8.54v-6.18h1.14v5.14h7.2v-5.14h1.15v6.18h-9.49Zm.62-3.18v-1.02h8.24v1.02h-8.24Zm4-7.23v-1.04h4.32v1.04h-4.32Zm3.71,3.36v-7.71h1.15v7.71h-1.15Z"/>
        <path class="cls-4" d="M210.75,306.02c-1.12,0-2.03-.4-2.74-1.21-.7-.8-1.06-2.03-1.06-3.69v-2.21c0-1.65,.35-2.88,1.06-3.69,.7-.8,1.62-1.21,2.74-1.21s2.03,.4,2.74,1.21c.7,.81,1.06,2.04,1.06,3.69v2.21c0,1.65-.35,2.88-1.06,3.69-.7,.81-1.62,1.21-2.74,1.21Zm0-1.06c.81,0,1.46-.31,1.94-.94,.48-.63,.72-1.6,.72-2.91v-2.19c0-1.31-.24-2.28-.72-2.9s-1.13-.94-1.94-.94-1.45,.31-1.93,.94-.71,1.59-.71,2.9v2.19c0,1.31,.24,2.28,.71,2.91,.47,.63,1.12,.94,1.93,.94Zm6.9,3.02v-14.77h1.15v14.77h-1.15Z"/>
        <path class="cls-4" d="M225.37,306.8v-1.06h13.82v1.06h-13.82Zm10.19-3.87c.23-1.25,.43-2.52,.58-3.82s.22-2.34,.22-3.14v-.99l.45,.53h-9.89v-1.04h10.58v1.25c0,.99-.07,2.14-.22,3.46-.15,1.31-.35,2.63-.59,3.97l-1.12-.21Zm-4.85,3.63v-7.07h1.14v7.07h-1.14Z"/>
        <path class="cls-4" d="M240.54,301.38v-1.01h13.82v1.01h-13.82Zm5.3,6.77c-.78,0-1.44-.11-1.99-.34-.55-.22-.97-.54-1.25-.94s-.42-.86-.42-1.37,.14-.96,.42-1.36c.28-.39,.7-.7,1.25-.93,.55-.22,1.21-.34,1.99-.34h3.23c.79,0,1.46,.11,2.01,.34,.55,.22,.97,.53,1.25,.93,.28,.4,.42,.85,.42,1.36s-.14,.97-.42,1.37c-.28,.4-.7,.71-1.25,.94-.55,.22-1.22,.34-2.01,.34h-3.23Zm.59-9.41c-1.3,0-2.32-.23-3.06-.68-.74-.45-1.11-1.11-1.11-1.98s.37-1.54,1.1-1.98c.74-.45,1.76-.67,3.07-.67h2.06c1.31,0,2.34,.22,3.07,.67,.74,.45,1.1,1.11,1.1,1.98s-.37,1.52-1.11,1.98c-.74,.45-1.76,.68-3.06,.68h-2.06Zm2.38,8.38c.92,0,1.61-.14,2.08-.43,.47-.29,.7-.68,.7-1.18s-.23-.89-.7-1.18-1.16-.42-2.08-.42h-2.72c-.92,0-1.61,.14-2.08,.42-.47,.28-.7,.67-.7,1.18s.23,.9,.7,1.18c.47,.29,1.16,.43,2.08,.43h2.72Zm-.51-9.36c1.03,0,1.83-.15,2.38-.44,.55-.29,.83-.71,.83-1.24s-.27-.94-.82-1.22c-.55-.28-1.35-.42-2.39-.42h-1.68c-1.05,0-1.85,.14-2.4,.42-.55,.28-.83,.69-.83,1.22s.28,.96,.83,1.25,1.35,.43,2.4,.43h1.68Zm-3.74,3.15v-2.75h1.1v2.75h-1.1Zm4.7,0v-2.75h1.1v2.75h-1.1Z"/>
        <path class="cls-4" d="M255.79,295.87v-.99h8.56v.99h-8.56Zm4.3,6.8c-.67,0-1.28-.11-1.82-.33s-.97-.54-1.29-.95-.47-.91-.47-1.49v-.27c0-.85,.34-1.52,1.02-2.01s1.53-.73,2.57-.73,1.89,.24,2.56,.73c.67,.49,1.01,1.15,1.01,2.01v.27c0,.85-.34,1.53-1.01,2.02-.67,.5-1.53,.74-2.56,.74Zm0-1.01c.69,0,1.27-.16,1.74-.49,.47-.33,.7-.75,.7-1.29v-.22c0-.53-.23-.96-.7-1.29s-1.05-.49-1.74-.49-1.29,.16-1.75,.49c-.46,.33-.7,.75-.7,1.29v.22c0,.53,.23,.96,.7,1.29,.46,.33,1.05,.49,1.75,.49Zm-1.92,6.3v-3.97h1.15v2.93h8.88v1.04h-10.03Zm1.33-12.58v-2.37h1.14v2.37h-1.14Zm6.72,9.18v-11.36h1.14v11.36h-1.14Zm.66-5.76v-1.07h2.94v1.07h-2.94Z"/>
        <path class="cls-4" d="M274.77,301.79v-1.01h13.82v1.01h-13.82Zm10.9,6.35v-3.46h-9.1v-1.02h10.26v4.48h-1.15Zm-8.96-8.94v-5.7h1.14v4.72h7.68v-4.72h1.15v5.7h-9.97Zm.64-2.83v-.98h8.69v.98h-8.69Zm3.66,7.71v-2.82h1.14v2.82h-1.14Z"/>
        <path class="cls-4" d="M290.01,295.87v-.99h8.56v.99h-8.56Zm4.3,6.8c-.67,0-1.28-.11-1.82-.33s-.97-.54-1.29-.95-.47-.91-.47-1.49v-.27c0-.85,.34-1.52,1.02-2.01s1.53-.73,2.57-.73,1.89,.24,2.56,.73c.67,.49,1.01,1.15,1.01,2.01v.27c0,.85-.34,1.53-1.01,2.02-.67,.5-1.53,.74-2.56,.74Zm0-1.01c.69,0,1.27-.16,1.74-.49,.47-.33,.7-.75,.7-1.29v-.22c0-.53-.23-.96-.7-1.29s-1.05-.49-1.74-.49-1.29,.16-1.75,.49c-.46,.33-.7,.75-.7,1.29v.22c0,.53,.23,.96,.7,1.29,.46,.33,1.05,.49,1.75,.49Zm-1.92,6.3v-3.97h1.15v2.93h8.88v1.04h-10.03Zm1.33-12.58v-2.37h1.14v2.37h-1.14Zm6.72,9.18v-11.36h1.14v11.36h-1.14Zm.66-5.76v-1.07h2.94v1.07h-2.94Z"/>
        <path class="cls-4" d="M308.99,306.8v-1.06h13.82v1.06h-13.82Zm12.16-5.97v1.04h-10.37v-7.57h1.14v6.53h9.23Zm-5.81,5.73v-5.3h1.14v5.3h-1.14Z"/>
        <path class="cls-4" d="M324.16,301.3v-1.01h13.82v1.01h-13.82Zm5.3,6.85c-.78,0-1.44-.11-1.99-.34-.55-.22-.97-.53-1.25-.93s-.42-.85-.42-1.38,.14-.96,.42-1.36c.28-.39,.7-.7,1.25-.93,.55-.22,1.21-.34,1.99-.34h3.23c.79,0,1.46,.11,2.01,.34,.55,.22,.97,.53,1.25,.93,.28,.4,.42,.85,.42,1.36s-.14,.98-.42,1.38c-.28,.39-.7,.7-1.25,.93-.55,.22-1.22,.34-2.01,.34h-3.23Zm6.45-14.56v.99h-8.67v3.09h8.83v1.01h-9.97v-5.09h9.81Zm-3.47,13.55c.92,0,1.61-.15,2.08-.44,.47-.29,.7-.69,.7-1.19s-.23-.89-.7-1.18-1.16-.42-2.08-.42h-2.72c-.92,0-1.61,.14-2.08,.42-.47,.28-.7,.67-.7,1.18s.23,.9,.7,1.19c.47,.29,1.16,.44,2.08,.44h2.72Zm-1.92-6.22v-2.86h1.14v2.86h-1.14Z"/>
        <path class="cls-4" d="M339.09,305.17c.86-.93,1.58-1.83,2.14-2.71s.99-1.82,1.3-2.82c.3-1,.46-2.09,.46-3.27v-1.31h1.12v1.31c0,1.82-.34,3.49-1.02,5.01s-1.73,3.04-3.15,4.56l-.83-.77Zm.58-9.65v-1.04h7.78v1.04h-7.78Zm7.49,10.26l-4.56-5.57,.85-.77,4.59,5.57-.88,.77Zm2.69,2.21v-14.77h1.14v14.77h-1.14Zm.66-7.94v-1.06h2.93v1.06h-2.93Z"/>
        <path class="cls-4" d="M354.69,305.55l-.06-1.06h2.69c.95,0,2.09-.04,3.42-.13,1.33-.08,2.56-.2,3.69-.34l.13,1.01c-1.1,.16-2.31,.29-3.64,.38s-2.55,.14-3.66,.14h-2.56Zm4.66-3.55c-.74,0-1.39-.14-1.98-.42s-1.04-.71-1.38-1.29c-.34-.58-.51-1.28-.51-2.11v-.34c0-.83,.17-1.54,.51-2.11,.34-.58,.8-1,1.38-1.29,.58-.28,1.24-.42,1.98-.42s1.38,.14,1.96,.42c.58,.28,1.04,.71,1.38,1.29,.34,.58,.51,1.28,.51,2.11v.34c0,.83-.17,1.54-.51,2.11s-.8,1.01-1.38,1.29c-.58,.28-1.23,.42-1.96,.42Zm0-1.06c.8,0,1.45-.24,1.95-.72,.5-.48,.75-1.17,.75-2.06v-.3c0-.9-.25-1.59-.74-2.07s-1.15-.73-1.96-.73-1.47,.24-1.97,.73-.75,1.18-.75,2.07v.3c0,.9,.25,1.58,.75,2.06,.5,.48,1.16,.72,1.97,.72Zm6.48,7.04v-14.77h1.14v14.77h-1.14Z"/>
        <path class="cls-4" d="M373.55,303.51v-1.06h13.82v1.06h-13.82Zm.99-3.89c1.81-.71,3.17-1.5,4.07-2.34,.9-.85,1.35-1.77,1.35-2.76v-.98h1.14v.98c0,1.23-.49,2.34-1.48,3.35-.99,1.01-2.53,1.93-4.62,2.76l-.46-1.01Zm11.28,1.01l-6.11-3.55,.5-.99,6.16,3.57-.54,.98Zm-5.92,7.52v-5.49h1.14v5.49h-1.14Z"/>
        <path class="cls-4" d="M388.25,309.38l5.6-16.7h1.2l-5.6,16.7h-1.2Z"/>
        <path class="cls-4" d="M396.37,300.61v-6.59h1.15v5.54h1.3c.84,0,1.8-.04,2.87-.14,1.07-.09,2.09-.21,3.06-.34l.14,1.01c-.93,.16-1.95,.29-3.06,.38s-2.19,.14-3.22,.14h-2.24Zm2.03,7.38v-5.71h9.2v5.71h-9.2Zm1.15-1.04h6.9v-3.65h-6.9v3.65Zm6.9-5.73v-8h1.15v8h-1.15Zm.67-3.65v-1.04h2.93v1.04h-2.93Z"/>
        <path class="cls-4" d="M411.18,295.87v-.99h8.56v.99h-8.56Zm4.3,6.8c-.67,0-1.28-.11-1.82-.33s-.97-.54-1.29-.95-.47-.91-.47-1.49v-.27c0-.85,.34-1.52,1.02-2.01s1.53-.73,2.57-.73,1.89,.24,2.56,.73c.67,.49,1.01,1.15,1.01,2.01v.27c0,.85-.34,1.53-1.01,2.02-.67,.5-1.53,.74-2.56,.74Zm0-1.01c.69,0,1.27-.16,1.74-.49,.47-.33,.7-.75,.7-1.29v-.22c0-.53-.23-.96-.7-1.29s-1.05-.49-1.74-.49-1.29,.16-1.75,.49c-.46,.33-.7,.75-.7,1.29v.22c0,.53,.23,.96,.7,1.29,.46,.33,1.05,.49,1.75,.49Zm-1.92,6.3v-3.97h1.15v2.93h8.88v1.04h-10.03Zm1.33-12.58v-2.37h1.14v2.37h-1.14Zm6.72,9.18v-11.36h1.14v11.36h-1.14Zm.66-5.76v-1.07h2.94v1.07h-2.94Z"/>
        <path class="cls-4" d="M430.94,305.22c1.25-.81,2.33-1.72,3.23-2.74,.91-1.02,1.6-2.09,2.09-3.22s.73-2.27,.73-3.41v-.77l.42,.45h-6.24v-1.04h6.98v1.14c0,2.05-.57,3.97-1.71,5.76-1.14,1.79-2.75,3.37-4.82,4.74l-.67-.9Zm10.56,2.77v-14.77h1.14v14.77h-1.14Z"/>
        <path class="cls-4" d="M449.81,300.48c-.73,0-1.38-.13-1.96-.38-.58-.25-1.04-.62-1.38-1.12s-.5-1.1-.5-1.8v-.27c0-1.06,.36-1.87,1.08-2.44,.72-.57,1.64-.86,2.76-.86,.73,0,1.38,.12,1.95,.37,.58,.25,1.03,.62,1.37,1.11s.5,1.1,.5,1.82v.27c0,.7-.17,1.3-.5,1.8s-.79,.87-1.38,1.12c-.58,.25-1.23,.38-1.94,.38Zm0-1.04c.8,0,1.45-.2,1.94-.6,.5-.4,.74-.96,.74-1.67v-.24c0-.72-.25-1.29-.74-1.68-.5-.39-1.14-.59-1.94-.59s-1.46,.2-1.95,.59c-.49,.39-.74,.96-.74,1.68v.24c0,.71,.25,1.27,.74,1.67,.49,.4,1.14,.6,1.95,.6Zm-1.49,8.54v-6.18h1.14v5.14h7.2v-5.14h1.15v6.18h-9.49Zm.62-3.18v-1.02h8.24v1.02h-8.24Zm4-7.23v-1.04h4.32v1.04h-4.32Zm3.71,3.36v-7.71h1.15v7.71h-1.15Z"/>
        <path class="cls-4" d="M464.93,306.02c-1.12,0-2.03-.4-2.74-1.21-.7-.8-1.06-2.03-1.06-3.69v-2.21c0-1.65,.35-2.88,1.06-3.69,.7-.8,1.62-1.21,2.74-1.21s2.03,.4,2.74,1.21c.7,.81,1.06,2.04,1.06,3.69v2.21c0,1.65-.35,2.88-1.06,3.69-.7,.81-1.62,1.21-2.74,1.21Zm0-1.06c.81,0,1.46-.31,1.94-.94,.48-.63,.72-1.6,.72-2.91v-2.19c0-1.31-.24-2.28-.72-2.9s-1.13-.94-1.94-.94-1.45,.31-1.93,.94-.71,1.59-.71,2.9v2.19c0,1.31,.24,2.28,.71,2.91,.47,.63,1.12,.94,1.93,.94Zm6.9,3.02v-14.77h1.15v14.77h-1.15Z"/>
        <path class="cls-4" d="M145.65,329.8v-1.06h13.82v1.06h-13.82Zm10.19-3.87c.23-1.25,.43-2.52,.58-3.82s.22-2.34,.22-3.14v-.99l.45,.53h-9.89v-1.04h10.58v1.25c0,.99-.07,2.14-.22,3.46-.15,1.31-.35,2.63-.59,3.97l-1.12-.21Zm-4.85,3.63v-7.07h1.14v7.07h-1.14Z"/>
        <path class="cls-4" d="M160.81,324.38v-1.01h13.82v1.01h-13.82Zm5.3,6.77c-.78,0-1.44-.11-1.99-.34-.55-.22-.97-.54-1.25-.94s-.42-.86-.42-1.37,.14-.96,.42-1.36c.28-.39,.7-.7,1.25-.93,.55-.22,1.21-.34,1.99-.34h3.23c.79,0,1.46,.11,2.01,.34,.55,.22,.97,.53,1.25,.93,.28,.4,.42,.85,.42,1.36s-.14,.97-.42,1.37c-.28,.4-.7,.71-1.25,.94-.55,.22-1.22,.34-2.01,.34h-3.23Zm.59-9.41c-1.3,0-2.32-.23-3.06-.68-.74-.45-1.11-1.11-1.11-1.98s.37-1.54,1.1-1.98c.74-.45,1.76-.67,3.07-.67h2.06c1.31,0,2.34,.22,3.07,.67,.74,.45,1.1,1.11,1.1,1.98s-.37,1.52-1.11,1.98c-.74,.45-1.76,.68-3.06,.68h-2.06Zm2.38,8.38c.92,0,1.61-.14,2.08-.43,.47-.29,.7-.68,.7-1.18s-.23-.89-.7-1.18-1.16-.42-2.08-.42h-2.72c-.92,0-1.61,.14-2.08,.42-.47,.28-.7,.67-.7,1.18s.23,.9,.7,1.18c.47,.29,1.16,.43,2.08,.43h2.72Zm-.51-9.36c1.03,0,1.83-.15,2.38-.44,.55-.29,.83-.71,.83-1.24s-.27-.94-.82-1.22c-.55-.28-1.35-.42-2.39-.42h-1.68c-1.05,0-1.85,.14-2.4,.42-.55,.28-.83,.69-.83,1.22s.28,.96,.83,1.25,1.35,.43,2.4,.43h1.68Zm-3.74,3.15v-2.75h1.1v2.75h-1.1Zm4.7,0v-2.75h1.1v2.75h-1.1Z"/>
        <path class="cls-4" d="M180.21,328.22c1.22-.81,2.27-1.72,3.15-2.74,.89-1.02,1.56-2.09,2.04-3.22,.47-1.13,.71-2.27,.71-3.41v-.77l.42,.45h-6.08v-1.04h6.8v1.14c0,2.04-.56,3.95-1.67,5.74s-2.67,3.38-4.68,4.75l-.69-.9Zm10.18,2.77v-14.77h1.15v14.77h-1.15Zm.67-7.94v-1.06h2.93v1.06h-2.93Z"/>
        <path class="cls-4" d="M195.04,324.23v-1.02h13.82v1.02h-13.82Zm5.3,6.91c-.78,0-1.44-.11-1.99-.34-.55-.22-.97-.53-1.25-.93s-.42-.85-.42-1.38,.14-.96,.42-1.36c.28-.39,.7-.7,1.25-.93,.55-.22,1.21-.34,1.99-.34h3.23c.79,0,1.46,.11,2.01,.34,.55,.22,.97,.53,1.25,.93,.28,.4,.42,.85,.42,1.36s-.14,.98-.42,1.38c-.28,.39-.7,.7-1.25,.93-.55,.22-1.22,.34-2.01,.34h-3.23Zm6.72-10.53v1.06h-10.08v-5.09h1.14v4.03h8.94Zm-3.74,9.52c.92,0,1.61-.15,2.08-.44,.47-.29,.7-.69,.7-1.19s-.23-.89-.7-1.18-1.16-.42-2.08-.42h-2.72c-.92,0-1.61,.14-2.08,.42-.47,.28-.7,.67-.7,1.18s.23,.9,.7,1.19c.47,.29,1.16,.44,2.08,.44h2.72Z"/>
        <path class="cls-4" d="M210.29,318.87v-.99h8.56v.99h-8.56Zm4.3,6.8c-.67,0-1.28-.11-1.82-.33s-.97-.54-1.29-.95-.47-.91-.47-1.49v-.27c0-.85,.34-1.52,1.02-2.01s1.53-.73,2.57-.73,1.89,.24,2.56,.73c.67,.49,1.01,1.15,1.01,2.01v.27c0,.85-.34,1.53-1.01,2.02-.67,.5-1.53,.74-2.56,.74Zm0-1.01c.69,0,1.27-.16,1.74-.49,.47-.33,.7-.75,.7-1.29v-.22c0-.53-.23-.96-.7-1.29s-1.05-.49-1.74-.49-1.29,.16-1.75,.49c-.46,.33-.7,.75-.7,1.29v.22c0,.53,.23,.96,.7,1.29,.46,.33,1.05,.49,1.75,.49Zm-1.92,6.3v-3.97h1.15v2.93h8.88v1.04h-10.03Zm1.33-12.58v-2.37h1.14v2.37h-1.14Zm6.72,9.18v-11.36h1.14v11.36h-1.14Zm.66-5.76v-1.07h2.94v1.07h-2.94Z"/>
        <path class="cls-4" d="M229.45,328.71l-.06-1.06h2.69c.96,0,2.1-.04,3.43-.13,1.33-.09,2.55-.2,3.67-.35l.13,1.02c-1.12,.15-2.35,.27-3.68,.37-1.33,.1-2.54,.14-3.62,.14h-2.56Zm.19-4.27c1.28-.77,2.25-1.57,2.9-2.4,.66-.83,.98-1.75,.98-2.77v-.42h1.15v.42c0,1.24-.37,2.35-1.11,3.33-.74,.98-1.86,1.91-3.37,2.78l-.56-.94Zm.5-5.15v-1.02h7.95v1.02h-7.95Zm7.84,5.94l-4.59-3.39,.62-.9,4.59,3.34-.62,.94Zm-4.48,2.82v-3.12h1.15v3.12h-1.15Zm.05-9.41v-2.4h1.14v2.4h-1.14Zm7.04,12.35v-14.77h1.14v14.77h-1.14Z"/>
        <path class="cls-4" d="M245.04,328.52v-11.12h5.44v1.06h-4.29v9.02h.78c1.46,0,2.92-.11,4.38-.34l.13,1.02c-.73,.13-1.46,.22-2.21,.27-.75,.05-1.57,.08-2.48,.08h-1.76Zm7.55,2.19v-14.26h1.1v14.26h-1.1Zm.48-7.66v-1.06h3.39v1.06h-3.39Zm2.91,7.94v-14.77h1.12v14.77h-1.12Z"/>
        <path class="cls-4" d="M263.49,324.79v-1.01h13.82v1.01h-13.82Zm10.9,6.35v-3.46h-9.1v-1.02h10.26v4.48h-1.15Zm-8.96-8.94v-5.7h1.14v4.72h7.68v-4.72h1.15v5.7h-9.97Zm.64-2.83v-.98h8.69v.98h-8.69Zm3.66,7.71v-2.82h1.14v2.82h-1.14Z"/>
        <path class="cls-4" d="M278.73,318.87v-.99h8.56v.99h-8.56Zm4.3,6.8c-.67,0-1.28-.11-1.82-.33s-.97-.54-1.29-.95-.47-.91-.47-1.49v-.27c0-.85,.34-1.52,1.02-2.01s1.53-.73,2.57-.73,1.89,.24,2.56,.73c.67,.49,1.01,1.15,1.01,2.01v.27c0,.85-.34,1.53-1.01,2.02-.67,.5-1.53,.74-2.56,.74Zm0-1.01c.69,0,1.27-.16,1.74-.49,.47-.33,.7-.75,.7-1.29v-.22c0-.53-.23-.96-.7-1.29s-1.05-.49-1.74-.49-1.29,.16-1.75,.49c-.46,.33-.7,.75-.7,1.29v.22c0,.53,.23,.96,.7,1.29,.46,.33,1.05,.49,1.75,.49Zm-1.92,6.3v-3.97h1.15v2.93h8.88v1.04h-10.03Zm1.33-12.58v-2.37h1.14v2.37h-1.14Zm6.72,9.18v-11.36h1.14v11.36h-1.14Zm.66-5.76v-1.07h2.94v1.07h-2.94Z"/>
        <path class="cls-4" d="M297.71,329.8v-1.06h13.82v1.06h-13.82Zm12.16-5.97v1.04h-10.37v-7.57h1.14v6.53h9.23Zm-5.81,5.73v-5.3h1.14v5.3h-1.14Z"/>
        <path class="cls-4" d="M312.88,324.3v-1.01h13.82v1.01h-13.82Zm5.3,6.85c-.78,0-1.44-.11-1.99-.34-.55-.22-.97-.53-1.25-.93s-.42-.85-.42-1.38,.14-.96,.42-1.36c.28-.39,.7-.7,1.25-.93,.55-.22,1.21-.34,1.99-.34h3.23c.79,0,1.46,.11,2.01,.34,.55,.22,.97,.53,1.25,.93,.28,.4,.42,.85,.42,1.36s-.14,.98-.42,1.38c-.28,.39-.7,.7-1.25,.93-.55,.22-1.22,.34-2.01,.34h-3.23Zm6.45-14.56v.99h-8.67v3.09h8.83v1.01h-9.97v-5.09h9.81Zm-3.47,13.55c.92,0,1.61-.15,2.08-.44,.47-.29,.7-.69,.7-1.19s-.23-.89-.7-1.18-1.16-.42-2.08-.42h-2.72c-.92,0-1.61,.14-2.08,.42-.47,.28-.7,.67-.7,1.18s.23,.9,.7,1.19c.47,.29,1.16,.44,2.08,.44h2.72Zm-1.92-6.22v-2.86h1.14v2.86h-1.14Z"/>
        <path class="cls-4" d="M327.81,328.17c.86-.93,1.58-1.83,2.14-2.71s.99-1.82,1.3-2.82c.3-1,.46-2.09,.46-3.27v-1.31h1.12v1.31c0,1.82-.34,3.49-1.02,5.01s-1.73,3.04-3.15,4.56l-.83-.77Zm.58-9.65v-1.04h7.78v1.04h-7.78Zm7.49,10.26l-4.56-5.57,.85-.77,4.59,5.57-.88,.77Zm2.69,2.21v-14.77h1.14v14.77h-1.14Zm.66-7.94v-1.06h2.93v1.06h-2.93Z"/>
        <path class="cls-4" d="M347.1,329.8v-1.06h13.82v1.06h-13.82Zm10.19-3.87c.23-1.25,.43-2.52,.58-3.82s.22-2.34,.22-3.14v-.99l.45,.53h-9.89v-1.04h10.58v1.25c0,.99-.07,2.14-.22,3.46-.15,1.31-.35,2.63-.59,3.97l-1.12-.21Zm-4.85,3.63v-7.07h1.14v7.07h-1.14Z"/>
        <path class="cls-4" d="M362.27,324.38v-1.01h13.82v1.01h-13.82Zm5.3,6.77c-.78,0-1.44-.11-1.99-.34-.55-.22-.97-.54-1.25-.94s-.42-.86-.42-1.37,.14-.96,.42-1.36c.28-.39,.7-.7,1.25-.93,.55-.22,1.21-.34,1.99-.34h3.23c.79,0,1.46,.11,2.01,.34,.55,.22,.97,.53,1.25,.93,.28,.4,.42,.85,.42,1.36s-.14,.97-.42,1.37c-.28,.4-.7,.71-1.25,.94-.55,.22-1.22,.34-2.01,.34h-3.23Zm.59-9.41c-1.3,0-2.32-.23-3.06-.68-.74-.45-1.11-1.11-1.11-1.98s.37-1.54,1.1-1.98c.74-.45,1.76-.67,3.07-.67h2.06c1.31,0,2.34,.22,3.07,.67,.74,.45,1.1,1.11,1.1,1.98s-.37,1.52-1.11,1.98c-.74,.45-1.76,.68-3.06,.68h-2.06Zm2.38,8.38c.92,0,1.61-.14,2.08-.43,.47-.29,.7-.68,.7-1.18s-.23-.89-.7-1.18-1.16-.42-2.08-.42h-2.72c-.92,0-1.61,.14-2.08,.42-.47,.28-.7,.67-.7,1.18s.23,.9,.7,1.18c.47,.29,1.16,.43,2.08,.43h2.72Zm-.51-9.36c1.03,0,1.83-.15,2.38-.44,.55-.29,.83-.71,.83-1.24s-.27-.94-.82-1.22c-.55-.28-1.35-.42-2.39-.42h-1.68c-1.05,0-1.85,.14-2.4,.42-.55,.28-.83,.69-.83,1.22s.28,.96,.83,1.25,1.35,.43,2.4,.43h1.68Zm-3.74,3.15v-2.75h1.1v2.75h-1.1Zm4.7,0v-2.75h1.1v2.75h-1.1Z"/>
        <path class="cls-4" d="M377.44,326.51v-1.06h13.82v1.06h-13.82Zm.99-3.89c1.81-.71,3.17-1.5,4.07-2.34,.9-.85,1.35-1.77,1.35-2.76v-.98h1.14v.98c0,1.23-.49,2.34-1.48,3.35-.99,1.01-2.53,1.93-4.62,2.76l-.46-1.01Zm11.28,1.01l-6.11-3.55,.5-.99,6.16,3.57-.54,.98Zm-5.92,7.52v-5.49h1.14v5.49h-1.14Z"/>
        <path class="cls-4" d="M398.03,320.67c-.25,0-.45-.08-.62-.26-.17-.17-.26-.38-.26-.62s.08-.46,.26-.63c.17-.18,.38-.26,.62-.26s.46,.09,.63,.26c.18,.18,.26,.39,.26,.63s-.09,.45-.26,.62c-.18,.17-.39,.26-.63,.26Zm0,7.84c-.25,0-.45-.08-.62-.26-.17-.17-.26-.38-.26-.62s.08-.46,.26-.63c.17-.18,.38-.26,.62-.26s.46,.09,.63,.26c.18,.18,.26,.39,.26,.63s-.09,.45-.26,.62c-.18,.17-.39,.26-.63,.26Z"/>
        <path class="cls-4" d="M404.81,329.8v-1.06h13.82v1.06h-13.82Zm12.16-5.97v1.04h-10.37v-7.57h1.14v6.53h9.23Zm-5.81,5.73v-5.3h1.14v5.3h-1.14Z"/>
        <path class="cls-4" d="M419.98,324.3v-1.01h13.82v1.01h-13.82Zm5.3,6.85c-.78,0-1.44-.11-1.99-.34-.55-.22-.97-.53-1.25-.93s-.42-.85-.42-1.38,.14-.96,.42-1.36c.28-.39,.7-.7,1.25-.93,.55-.22,1.21-.34,1.99-.34h3.23c.79,0,1.46,.11,2.01,.34,.55,.22,.97,.53,1.25,.93,.28,.4,.42,.85,.42,1.36s-.14,.98-.42,1.38c-.28,.39-.7,.7-1.25,.93-.55,.22-1.22,.34-2.01,.34h-3.23Zm6.45-14.56v.99h-8.67v3.09h8.83v1.01h-9.97v-5.09h9.81Zm-3.47,13.55c.92,0,1.61-.15,2.08-.44,.47-.29,.7-.69,.7-1.19s-.23-.89-.7-1.18-1.16-.42-2.08-.42h-2.72c-.92,0-1.61,.14-2.08,.42-.47,.28-.7,.67-.7,1.18s.23,.9,.7,1.19c.47,.29,1.16,.44,2.08,.44h2.72Zm-1.92-6.22v-2.86h1.14v2.86h-1.14Z"/>
        <path class="cls-4" d="M435.15,326.78v-1.06h13.82v1.06h-13.82Zm1.79-3.26v-6.58h1.14v5.55h7.97v-5.55h1.15v6.58h-10.26Zm.64-3.25v-1.04h8.98v1.04h-8.98Zm3.92,10.88v-5.06h1.14v5.06h-1.14Z"/>
        <path class="cls-4" d="M450.32,325.21v-1.06h13.82v1.06h-13.82Zm1.86,5.78v-4.29h1.15v3.23h9.28v1.06h-10.43Zm.08-8.64v-5.76h9.97v5.76h-9.97Zm1.14-1.04h7.68v-3.7h-7.68v3.7Zm3.28,6.83v-3.54h1.14v3.54h-1.14Z"/>
        <path class="cls-4" d="M130.97,366.15c-.45,0-.86-.11-1.24-.33-.38-.22-.68-.52-.9-.9-.22-.38-.33-.79-.33-1.22s.11-.86,.33-1.24c.22-.38,.52-.68,.9-.9,.38-.22,.79-.33,1.24-.33s.86,.11,1.24,.33c.38,.22,.68,.52,.9,.9,.22,.38,.33,.79,.33,1.24s-.11,.85-.33,1.22c-.22,.38-.52,.68-.9,.9-.38,.22-.79,.33-1.24,.33Z"/>
        <path class="cls-4" d="M145.47,365.31l-.05-1.04h2.54c.92,0,2.03-.04,3.33-.13,1.3-.08,2.5-.2,3.6-.34l.13,1.01c-1.05,.16-2.22,.28-3.52,.37-1.3,.09-2.5,.13-3.6,.13h-2.43Zm6.54-2.78c.16-.78,.28-1.56,.37-2.36,.08-.79,.13-1.46,.13-2.01v-.64l.46,.53h-6.53v-1.01h7.2v.77c0,1.38-.18,3.01-.53,4.9l-1.1-.18Zm-3.9,8.46v-3.87h1.14v2.82h9.04v1.06h-10.18Zm.7-6.4v-4.14h1.15v4.14h-1.15Zm7.49,3.07v-11.44h1.14v11.44h-1.14Zm.62-5.68v-1.07h2.82v1.07h-2.82Z"/>
        <path class="cls-4" d="M160.61,368.2c1.06-1.37,1.85-2.79,2.37-4.27,.52-1.48,.78-3.12,.78-4.91v-1.89h1.12v1.89c0,1.88-.28,3.62-.84,5.24s-1.42,3.18-2.58,4.68l-.85-.74Zm6.46,.56l-3.57-5.63,.9-.69,3.6,5.65-.93,.67Zm-.51-6.18v-1.06h3.04v1.06h-3.04Zm2.61,8.13v-14.26h1.1v14.26h-1.1Zm3.18,.27v-14.77h1.12v14.77h-1.12Z"/>
        <path class="cls-4" d="M176.19,363.47c1.33-.79,2.33-1.59,2.98-2.41,.65-.82,.98-1.75,.98-2.79v-.75h1.12v.75c0,1.25-.37,2.36-1.1,3.34-.74,.98-1.87,1.9-3.41,2.78l-.56-.91Zm.59-5.42v-1.02h7.87v1.02h-7.87Zm5.33,13.09c-.7,0-1.32-.13-1.84-.38-.52-.26-.92-.61-1.2-1.06-.28-.45-.42-.95-.42-1.52s.14-1.06,.42-1.51,.68-.81,1.2-1.07c.52-.26,1.14-.39,1.84-.39h3.1c.7,0,1.32,.13,1.84,.39,.52,.26,.92,.62,1.2,1.07s.42,.96,.42,1.51-.14,1.07-.42,1.52c-.28,.45-.68,.8-1.2,1.06-.52,.26-1.14,.38-1.84,.38h-3.1Zm2.88-1.02c.82,0,1.45-.18,1.88-.54,.43-.36,.65-.83,.65-1.42s-.22-1.03-.65-1.39c-.43-.36-1.06-.54-1.88-.54h-2.66c-.82,0-1.45,.18-1.89,.54-.44,.36-.66,.83-.66,1.39s.22,1.06,.66,1.42c.44,.36,1.07,.54,1.89,.54h2.66Zm-.35-5.95l-4.75-3.31,.62-.85,4.72,3.22-.59,.94Zm-.51-3.55v-1.01h3.79v1.01h-3.79Zm3.18,3.7v-8.06h1.14v8.06h-1.14Z"/>
        <path class="cls-4" d="M191.15,369.8v-1.06h13.82v1.06h-13.82Zm11.9-12.5v1.04h-8.98v5.5h9.12v1.02h-10.26v-7.57h10.11Zm-5.55,12.26v-5.3h1.14v5.3h-1.14Z"/>
        <path class="cls-4" d="M206.14,368.55l-.05-1.06h2.54c.94,0,2.06-.04,3.36-.12,1.3-.08,2.49-.19,3.57-.33l.13,1.01c-1.07,.15-2.25,.27-3.56,.36s-2.49,.14-3.56,.14h-2.43Zm4.38-3.55c-.71,0-1.36-.14-1.93-.43-.57-.29-1.02-.72-1.36-1.29-.34-.57-.5-1.27-.5-2.1v-.34c0-.83,.17-1.54,.5-2.11,.34-.58,.79-1,1.36-1.29,.57-.28,1.21-.42,1.93-.42s1.36,.14,1.93,.42c.57,.28,1.02,.71,1.36,1.29,.34,.58,.5,1.28,.5,2.11v.34c0,.83-.17,1.53-.5,2.1s-.79,1-1.36,1.29c-.57,.29-1.21,.43-1.93,.43Zm0-1.06c.79,0,1.43-.24,1.91-.72,.49-.48,.73-1.17,.73-2.06v-.3c0-.9-.24-1.59-.73-2.07s-1.12-.73-1.91-.73-1.43,.24-1.91,.73-.73,1.18-.73,2.07v.3c0,.9,.24,1.58,.73,2.06,.49,.48,1.12,.72,1.91,.72Zm-.5,3.98v-3.49h1.15v3.49h-1.15Zm6.94,3.06v-14.77h1.14v14.77h-1.14Zm.62-7.79v-1.04h2.82v1.04h-2.82Z"/>
        <path class="cls-4" d="M226.17,368.55v-11.31h1.12v10.26h4.8v-10.26h1.14v11.31h-7.06Zm.54-5.89v-1.04h5.97v1.04h-5.97Zm10,8.32v-14.77h1.14v14.77h-1.14Z"/>
        <path class="cls-4" d="M240.37,365.31l-.05-1.04h2.54c.92,0,2.03-.04,3.33-.13,1.3-.08,2.5-.2,3.6-.34l.13,1.01c-1.05,.16-2.22,.28-3.52,.37-1.3,.09-2.5,.13-3.6,.13h-2.43Zm6.54-2.78c.16-.78,.28-1.56,.37-2.36,.08-.79,.13-1.46,.13-2.01v-.64l.46,.53h-6.53v-1.01h7.2v.77c0,1.38-.18,3.01-.53,4.9l-1.1-.18Zm-3.9,8.46v-3.87h1.14v2.82h9.04v1.06h-10.18Zm.7-6.4v-4.14h1.15v4.14h-1.15Zm7.49,3.07v-11.44h1.14v11.44h-1.14Zm.62-5.68v-1.07h2.82v1.07h-2.82Z"/>
        <path class="cls-4" d="M255.5,368.2c1.06-1.37,1.85-2.79,2.37-4.27,.52-1.48,.78-3.12,.78-4.91v-1.89h1.12v1.89c0,1.88-.28,3.62-.84,5.24s-1.42,3.18-2.58,4.68l-.85-.74Zm6.46,.56l-3.57-5.63,.9-.69,3.6,5.65-.93,.67Zm-.51-6.18v-1.06h3.04v1.06h-3.04Zm2.61,8.13v-14.26h1.1v14.26h-1.1Zm3.18,.27v-14.77h1.12v14.77h-1.12Z"/>
        <path class="cls-4" d="M270.65,363.47c1.3-.79,2.27-1.59,2.91-2.42,.64-.82,.96-1.75,.96-2.78v-.75h1.12v.75c0,1.24-.36,2.35-1.09,3.34-.73,.99-1.84,1.91-3.34,2.78l-.56-.91Zm.56-5.42v-1.02h7.78v1.02h-7.78Zm5.25,13.09c-.69,0-1.3-.13-1.82-.38-.52-.26-.92-.61-1.2-1.06-.28-.45-.42-.95-.42-1.52s.14-1.06,.42-1.51,.68-.81,1.2-1.07c.52-.26,1.13-.39,1.82-.39h2.99c.7,0,1.31,.13,1.83,.39,.52,.26,.91,.62,1.19,1.07s.42,.96,.42,1.51-.14,1.07-.42,1.52c-.28,.45-.67,.8-1.19,1.06-.52,.26-1.13,.38-1.83,.38h-2.99Zm2.77-1.02c.82,0,1.45-.18,1.87-.54,.43-.36,.64-.83,.64-1.42s-.22-1.03-.65-1.39c-.43-.36-1.05-.54-1.86-.54h-2.54c-.81,0-1.43,.18-1.86,.54-.43,.36-.65,.83-.65,1.39s.21,1.06,.64,1.42c.43,.36,1.05,.54,1.87,.54h2.54Zm-.26-6.03l-4.7-3.31,.62-.85,4.69,3.23-.61,.93Zm2.42,.22v-8.06h1.14v8.06h-1.14Zm.66-3.73v-1.04h2.93v1.04h-2.93Z"/>
        <path class="cls-4" d="M286.85,363.79v-6.85h1.1v5.82h4.8v-5.82h1.12v6.85h-7.02Zm.54-3.49v-1.04h5.94v1.04h-5.94Zm10,10.83v-4.43h-8.51v-1.04h9.65v5.47h-1.14Zm-3.84-11.9v-.98h4.43v.98h-4.43Zm0,2.78v-.98h4.43v.98h-4.43Zm3.84,2.61v-8.38h1.14v8.38h-1.14Z"/>
        <path class="cls-4" d="M301.41,368.55l-.06-1.06h2.69c.95,0,2.09-.04,3.42-.13,1.33-.08,2.56-.2,3.69-.34l.13,1.01c-1.1,.16-2.31,.29-3.64,.38s-2.55,.14-3.66,.14h-2.56Zm4.66-3.55c-.74,0-1.39-.14-1.98-.42s-1.04-.71-1.38-1.29c-.34-.58-.51-1.28-.51-2.11v-.34c0-.83,.17-1.54,.51-2.11,.34-.58,.8-1,1.38-1.29,.58-.28,1.24-.42,1.98-.42s1.38,.14,1.96,.42c.58,.28,1.04,.71,1.38,1.29,.34,.58,.51,1.28,.51,2.11v.34c0,.83-.17,1.54-.51,2.11s-.8,1.01-1.38,1.29c-.58,.28-1.23,.42-1.96,.42Zm0-1.06c.8,0,1.45-.24,1.95-.72,.5-.48,.75-1.17,.75-2.06v-.3c0-.9-.25-1.59-.74-2.07s-1.15-.73-1.96-.73-1.47,.24-1.97,.73-.75,1.18-.75,2.07v.3c0,.9,.25,1.58,.75,2.06,.5,.48,1.16,.72,1.97,.72Zm6.48,7.04v-14.77h1.14v14.77h-1.14Z"/>
        <path class="cls-4" d="M320.27,365.37v-1.06h13.82v1.06h-13.82Zm1.25-3.71c1.72-.52,3.01-1.12,3.89-1.79,.87-.67,1.31-1.4,1.31-2.19v-.77h1.12v.75c0,1.08-.48,2.02-1.45,2.84-.97,.82-2.47,1.53-4.52,2.14l-.35-.98Zm.69,9.33v-4.29h1.14v3.23h9.22v1.06h-10.35Zm.08-13.39v-1.01h9.81v1.01h-9.81Zm10.11,5.04l-6.06-2.75,.5-.93,6,2.74-.43,.94Zm-5.78,2.26v-2.74h1.14v2.74h-1.14Z"/>
        <path class="cls-4" d="M335.26,368.22c1.07-1.39,1.86-2.76,2.38-4.12,.52-1.36,.78-2.89,.78-4.6v-1.44h1.1v1.44c0,1.77-.27,3.41-.82,4.91-.55,1.5-1.39,3.01-2.52,4.53l-.91-.72Zm.53-9.7v-1.04h6.38v1.04h-6.38Zm5.97,10.24l-3.68-5.54,.9-.72,3.71,5.58-.93,.67Zm1.82,1.95v-14.26h1.1v14.26h-1.1Zm.48-7.66v-1.06h3.39v1.06h-3.39Zm2.91,7.94v-14.77h1.12v14.77h-1.12Z"/>
        <path class="cls-4" d="M356.03,360.67c-.25,0-.45-.08-.62-.26-.17-.17-.26-.38-.26-.62s.08-.46,.26-.63c.17-.18,.38-.26,.62-.26s.46,.09,.63,.26c.18,.18,.26,.39,.26,.63s-.09,.45-.26,.62c-.18,.17-.39,.26-.63,.26Zm0,7.84c-.25,0-.45-.08-.62-.26-.17-.17-.26-.38-.26-.62s.08-.46,.26-.63c.17-.18,.38-.26,.62-.26s.46,.09,.63,.26c.18,.18,.26,.39,.26,.63s-.09,.45-.26,.62c-.18,.17-.39,.26-.63,.26Z"/>
        <path class="cls-4" d="M362.81,366.62v-1.04h13.82v1.04h-13.82Zm1.79-3.41v-6.21h10.26v6.21h-10.26Zm1.14-1.02h7.97v-4.14h-7.97v4.14Zm3.42,8.98v-5.38h1.14v5.38h-1.14Z"/>
        <path class="cls-4" d="M382.45,363.87c-.73,0-1.38-.13-1.95-.39-.58-.26-1.03-.65-1.37-1.17-.34-.52-.5-1.15-.5-1.9v-.32c0-.75,.17-1.38,.5-1.9s.79-.91,1.37-1.17c.58-.26,1.23-.39,1.95-.39s1.36,.13,1.94,.39c.58,.26,1.03,.65,1.37,1.17s.5,1.15,.5,1.9v.32c0,.75-.17,1.38-.5,1.9-.34,.52-.79,.91-1.37,1.17-.58,.26-1.22,.39-1.94,.39Zm0-1.02c.79,0,1.43-.21,1.92-.64,.49-.43,.74-1.04,.74-1.82v-.26c0-.79-.25-1.4-.74-1.82-.49-.43-1.13-.64-1.92-.64s-1.45,.21-1.94,.64c-.49,.43-.74,1.04-.74,1.82v.26c0,.79,.25,1.4,.74,1.82,.49,.43,1.14,.64,1.94,.64Zm6.86,8.29v-4.51h-8.5v-1.04h9.65v5.55h-1.15Zm-3.82-11.9v-.98h4.43v.98h-4.43Zm0,2.78v-.98h4.43v.98h-4.43Zm3.82,2.53v-8.3h1.15v8.3h-1.15Z"/>
        <path class="cls-4" d="M392.91,368.17c.86-.93,1.58-1.83,2.14-2.71s.99-1.82,1.3-2.82c.3-1,.46-2.09,.46-3.27v-1.31h1.12v1.31c0,1.82-.34,3.49-1.02,5.01s-1.73,3.04-3.15,4.56l-.83-.77Zm.58-9.65v-1.04h7.78v1.04h-7.78Zm7.49,10.26l-4.56-5.57,.85-.77,4.59,5.57-.88,.77Zm2.69,2.21v-14.77h1.14v14.77h-1.14Zm.66-7.94v-1.06h2.93v1.06h-2.93Z"/>
        <path class="cls-4" d="M408.32,366.62v-1.04h13.82v1.04h-13.82Zm5.87-3.18c-.87,0-1.63-.14-2.27-.41-.64-.27-1.13-.66-1.48-1.17-.35-.51-.52-1.1-.52-1.77s.17-1.24,.52-1.74c.35-.5,.84-.89,1.48-1.16,.64-.27,1.4-.41,2.27-.41h2.1c.86,0,1.62,.14,2.26,.41,.65,.27,1.14,.66,1.5,1.16,.35,.5,.53,1.08,.53,1.74s-.18,1.26-.53,1.77c-.35,.51-.85,.9-1.5,1.17-.65,.27-1.4,.41-2.26,.41h-2.1Zm1.9-1.02c1.04,0,1.86-.21,2.45-.63,.59-.42,.88-.98,.88-1.69s-.29-1.25-.88-1.66c-.59-.42-1.4-.62-2.45-.62h-1.73c-1.04,0-1.85,.21-2.43,.62-.59,.42-.88,.97-.88,1.66s.29,1.27,.87,1.69c.58,.42,1.39,.63,2.44,.63h1.73Zm-4.06,8.74v-5.38h1.15v5.38h-1.15Zm5.26,0v-5.38h1.15v5.38h-1.15Z"/>
        <path class="cls-4" d="M423.31,369.02l-.05-1.04h2.54c.92,0,2.03-.04,3.33-.13,1.3-.08,2.5-.2,3.6-.34l.13,1.01c-1.1,.15-2.3,.27-3.61,.36s-2.48,.14-3.51,.14h-2.43Zm.21-9.94v-.98h8.5v.98h-8.5Zm4.27,6.83c-1.03,0-1.89-.25-2.55-.74-.67-.49-1-1.16-1-2.02v-.27c0-.86,.33-1.54,.99-2.02,.66-.49,1.51-.73,2.56-.73s1.87,.24,2.53,.73c.66,.49,.99,1.16,.99,2.02v.27c0,.85-.33,1.53-.99,2.02-.66,.49-1.5,.74-2.53,.74Zm0-.96c.69,0,1.27-.17,1.72-.5,.45-.33,.68-.77,.68-1.31v-.22c0-.55-.23-1-.68-1.33-.45-.33-1.03-.5-1.72-.5s-1.29,.17-1.74,.5c-.46,.33-.69,.77-.69,1.33v.22c0,.54,.23,.98,.69,1.31s1.04,.5,1.74,.5Zm-.59-6.34v-2.38h1.15v2.38h-1.15Zm.08,9.82v-3.38h1.15v3.38h-1.15Zm6.86,2.54v-14.77h1.14v14.77h-1.14Zm.62-7.79v-1.04h2.82v1.04h-2.82Z"/>
        <path class="cls-4" d="M442.54,366.78v-1.06h13.82v1.06h-13.82Zm1.79-3.26v-6.58h1.14v5.55h7.97v-5.55h1.15v6.58h-10.26Zm.64-3.25v-1.04h8.98v1.04h-8.98Zm3.92,10.88v-5.06h1.14v5.06h-1.14Z"/>
        <path class="cls-4" d="M457.71,365.21v-1.06h13.82v1.06h-13.82Zm1.86,5.78v-4.29h1.15v3.23h9.28v1.06h-10.43Zm.08-8.64v-5.76h9.97v5.76h-9.97Zm1.14-1.04h7.68v-3.7h-7.68v3.7Zm3.28,6.83v-3.54h1.14v3.54h-1.14Z"/>
        <path class="cls-4" d="M130.97,406.15c-.45,0-.86-.11-1.24-.33-.38-.22-.68-.52-.9-.9-.22-.38-.33-.79-.33-1.22s.11-.86,.33-1.24c.22-.38,.52-.68,.9-.9,.38-.22,.79-.33,1.24-.33s.86,.11,1.24,.33c.38,.22,.68,.52,.9,.9,.22,.38,.33,.79,.33,1.24s-.11,.85-.33,1.22c-.22,.38-.52,.68-.9,.9-.38,.22-.79,.33-1.24,.33Z"/>
        <path class="cls-4" d="M146.48,403.31c1.87-.61,3.34-1.37,4.41-2.3,1.07-.92,1.61-1.91,1.61-2.95v-.43l.45,.53h-6.22v-1.06h6.93v.72c0,1.46-.58,2.73-1.74,3.81-1.16,1.08-2.82,1.97-4.98,2.67l-.45-.99Zm5.3,7.82c-.7,0-1.31-.13-1.83-.38-.52-.26-.91-.61-1.19-1.06-.28-.45-.42-.95-.42-1.52s.14-1.06,.42-1.51,.67-.81,1.19-1.07c.52-.26,1.13-.39,1.83-.39h3.12c.7,0,1.32,.13,1.84,.39,.52,.26,.92,.62,1.2,1.07s.42,.96,.42,1.51-.14,1.07-.42,1.52c-.28,.45-.68,.8-1.2,1.06-.52,.26-1.14,.38-1.84,.38h-3.12Zm2.9-1.02c.82,0,1.45-.18,1.88-.54,.43-.36,.65-.83,.65-1.42s-.22-1.03-.65-1.39c-.43-.36-1.06-.54-1.88-.54h-2.66c-.82,0-1.45,.18-1.89,.54-.44,.36-.66,.83-.66,1.39s.22,1.06,.66,1.42c.44,.36,1.07,.54,1.89,.54h2.66Zm-1.54-10.5v-.98h4.45v.98h-4.45Zm.13,2.78v-.98h4.32v.98h-4.32Zm3.73,1.9v-8.06h1.14v8.06h-1.14Z"/>
        <path class="cls-4" d="M160.65,408.23c1.06-1.39,1.84-2.76,2.36-4.13,.52-1.37,.78-2.9,.78-4.61v-1.44h1.09v1.44c0,1.77-.27,3.41-.82,4.91-.55,1.5-1.39,3.01-2.52,4.53l-.88-.7Zm.51-9.71v-1.04h6.38v1.04h-6.38Zm5.98,10.24l-3.7-5.54,.88-.7,3.73,5.58-.91,.66Zm-.59-5.87v-1.04h3.04v1.04h-3.04Zm2.61,7.82v-14.26h1.1v14.26h-1.1Zm3.18,.27v-14.77h1.12v14.77h-1.12Z"/>
        <path class="cls-4" d="M175.98,409.8v-1.06h13.82v1.06h-13.82Zm10.19-3.87c.23-1.25,.43-2.52,.58-3.82s.22-2.34,.22-3.14v-.99l.45,.53h-9.89v-1.04h10.58v1.25c0,.99-.07,2.14-.22,3.46-.15,1.31-.35,2.63-.59,3.97l-1.12-.21Zm-6.8,3.63v-6.93h1.1v6.93h-1.1Zm3.74,0v-6.93h1.1v6.93h-1.1Z"/>
        <path class="cls-4" d="M191.15,406.92v-1.02h13.82v1.02h-13.82Zm1.79-2.88v-4.02h9.1v-2.02h-9.18v-1.01h10.34v4h-9.12v2.06h9.44v.98h-10.58Zm1.92,7.12v-4.99h1.15v4.99h-1.15Zm5.26,0v-4.99h1.15v4.99h-1.15Z"/>
        <path class="cls-4" d="M206.32,404.19v-.93h13.82v.93h-13.82Zm1.79,6.88v-3.33h9.1v-1.41h-9.18v-.93h10.34v3.26h-9.12v1.46h9.52v.94h-10.66Zm.14-9.01v-3.22h8.82v-1.41h-8.9v-.93h10.05v3.23h-8.83v1.42h9.14v.9h-10.27Z"/>
        <path class="cls-4" d="M225.58,404.04l-.06-1.01h2.7c.95,0,2.09-.04,3.42-.13,1.33-.09,2.56-.2,3.68-.35l.11,.98c-1.12,.15-2.35,.27-3.68,.37-1.33,.1-2.54,.14-3.62,.14h-2.56Zm1.01-2.61v-4.66h7.18v.98h-6.06v2.7h6.22v.98h-7.34Zm.62,8.7c1.63-.43,2.92-.93,3.87-1.52,.95-.59,1.42-1.25,1.42-1.98v-.67h1.12v.67c0,1-.53,1.88-1.59,2.63s-2.57,1.37-4.52,1.86l-.3-.99Zm2.18-3.41c.15-1.4,.24-2.47,.27-3.22h1.14c-.04,1.01-.13,2.11-.27,3.3l-1.14-.08Zm8.98,4.34l-6.03-2.37,.37-.99,6.1,2.35-.43,1.01Zm-1.65-4.67v-10.16h1.14v10.16h-1.14Z"/>
        <path class="cls-4" d="M240.89,403.55v-6.61h1.12v5.58h4.67v-5.58h1.12v6.61h-6.91Zm.54-3.36v-1.04h5.82v1.04h-5.82Zm1.57,10.8v-5.65h9.2v5.65h-9.2Zm1.15-1.04h6.9v-3.57h-6.9v3.57Zm6.9-5.65v-8.08h1.15v8.08h-1.15Zm.67-3.73v-1.04h2.93v1.04h-2.93Z"/>
        <path class="cls-4" d="M255.92,403.48c1.33-.65,2.34-1.35,3.02-2.09,.68-.74,1.02-1.58,1.02-2.5v-.35h1.12v.35c0,1.18-.39,2.22-1.16,3.11-.77,.89-1.94,1.71-3.51,2.46l-.5-.98Zm.51-4.5v-1.02h8.22v1.02h-8.22Zm2.26,11.98v-5.41h9.49v5.41h-9.49Zm5.92-6.82l-4.78-2.99,.58-.88,4.75,2.9-.54,.98Zm-4.78,5.79h7.22v-3.34h-7.22v3.34Zm.14-11.62v-2.3h1.12v2.3h-1.12Zm7.07,6.19v-8.3h1.14v8.3h-1.14Z"/>
        <path class="cls-4" d="M274.85,399.61v-1.04h8.56v1.04h-8.56Zm4.3,9.3c-.67,0-1.28-.14-1.82-.42-.54-.28-.97-.69-1.29-1.22-.31-.53-.47-1.14-.47-1.83v-.85c0-.69,.16-1.3,.47-1.82,.31-.52,.74-.92,1.29-1.21,.54-.28,1.15-.42,1.82-.42s1.26,.14,1.8,.42c.54,.28,.97,.69,1.28,1.21,.31,.52,.47,1.13,.47,1.82v.85c0,.69-.16,1.3-.47,1.83-.31,.53-.74,.93-1.28,1.22-.54,.28-1.14,.42-1.8,.42Zm0-1.04c.45,0,.86-.1,1.22-.3,.37-.2,.66-.49,.87-.86,.21-.37,.32-.81,.32-1.31v-.75c0-.5-.11-.94-.32-1.3s-.5-.65-.87-.85c-.37-.2-.78-.3-1.22-.3s-.87,.1-1.24,.3c-.37,.2-.66,.48-.87,.85s-.32,.8-.32,1.3v.75c0,.5,.11,.94,.32,1.31,.21,.37,.5,.66,.87,.86,.37,.2,.78,.3,1.24,.3Zm-.59-8.74v-2.9h1.14v2.9h-1.14Zm6.72,11.86v-14.77h1.14v14.77h-1.14Zm.66-7.94v-1.06h2.94v1.06h-2.94Z"/>
        <path class="cls-4" d="M289.93,405.31v-1.06h13.82v1.06h-13.82Zm12.02-4v1.06h-10.08v-5.78h1.14v4.72h8.94Zm-10.08,9.68v-4.29h1.14v3.23h9.22v1.06h-10.35Z"/>
        <path class="cls-4" d="M308.83,408.23c1.06-1.39,1.84-2.76,2.36-4.13,.52-1.37,.78-2.9,.78-4.61v-1.44h1.09v1.44c0,1.77-.27,3.41-.82,4.91-.55,1.5-1.39,3.01-2.52,4.53l-.88-.7Zm.51-9.71v-1.04h6.38v1.04h-6.38Zm5.98,10.24l-3.7-5.54,.88-.7,3.73,5.58-.91,.66Zm-.59-5.87v-1.04h3.04v1.04h-3.04Zm2.61,7.82v-14.26h1.1v14.26h-1.1Zm3.18,.27v-14.77h1.12v14.77h-1.12Z"/>
        <path class="cls-4" d="M324.16,409.8v-1.06h13.82v1.06h-13.82Zm11.9-12.5v1.04h-8.98v5.5h9.12v1.02h-10.26v-7.57h10.11Zm-5.55,12.26v-5.3h1.14v5.3h-1.14Z"/>
        <path class="cls-4" d="M339.53,403.63c1.33-.82,2.33-1.65,2.98-2.48,.65-.83,.98-1.79,.98-2.86v-.77h1.12v.77c0,1.27-.37,2.41-1.1,3.41-.74,1-1.87,1.95-3.41,2.85l-.56-.91Zm.59-5.57v-1.04h7.86v1.04h-7.86Zm10.53,13.07v-4.51h-8.51v-1.04h9.65v5.55h-1.14Zm-2.67-6.82l-4.75-3.41,.61-.83,4.74,3.31-.59,.93Zm-.51-3.55v-1.02h3.79v1.02h-3.79Zm3.18,3.78v-8.3h1.14v8.3h-1.14Z"/>
        <path class="cls-4" d="M358.16,403.47c1.3-.79,2.27-1.59,2.91-2.42,.64-.82,.96-1.75,.96-2.78v-.75h1.12v.75c0,1.24-.36,2.35-1.09,3.34-.73,.99-1.84,1.91-3.34,2.78l-.56-.91Zm.56-5.42v-1.02h7.78v1.02h-7.78Zm5.25,13.09c-.69,0-1.3-.13-1.82-.38-.52-.26-.92-.61-1.2-1.06-.28-.45-.42-.95-.42-1.52s.14-1.06,.42-1.51,.68-.81,1.2-1.07c.52-.26,1.13-.39,1.82-.39h2.99c.7,0,1.31,.13,1.83,.39,.52,.26,.91,.62,1.19,1.07s.42,.96,.42,1.51-.14,1.07-.42,1.52c-.28,.45-.67,.8-1.19,1.06-.52,.26-1.13,.38-1.83,.38h-2.99Zm2.77-1.02c.82,0,1.45-.18,1.87-.54,.43-.36,.64-.83,.64-1.42s-.22-1.03-.65-1.39c-.43-.36-1.05-.54-1.86-.54h-2.54c-.81,0-1.43,.18-1.86,.54-.43,.36-.65,.83-.65,1.39s.21,1.06,.64,1.42c.43,.36,1.05,.54,1.87,.54h2.54Zm-.26-6.03l-4.7-3.31,.62-.85,4.69,3.23-.61,.93Zm2.42,.22v-8.06h1.14v8.06h-1.14Zm.66-3.73v-1.04h2.93v1.04h-2.93Z"/>
        <path class="cls-4" d="M373.76,408.15c1.33-1.34,2.34-2.66,3.02-3.94,.68-1.29,1.02-2.69,1.02-4.2v-.56h1.14v.56c0,1.64-.36,3.18-1.09,4.62-.73,1.43-1.82,2.88-3.28,4.33l-.8-.8Zm.51-8.37v-1.04h8.21v1.04h-8.21Zm7.9,8.99l-4.66-5.31,.77-.85,4.7,5.39-.82,.77Zm-4.37-9.63v-2.91h1.12v2.91h-1.12Zm7.07,11.84v-14.77h1.14v14.77h-1.14Z"/>
        <path class="cls-4" d="M392.43,405.56l-.05-.94h2.54c.92,0,2.03-.04,3.34-.13,1.31-.09,2.51-.2,3.61-.34l.11,.93c-1.06,.15-2.23,.27-3.54,.35-1.3,.09-2.5,.13-3.58,.13h-2.43Zm.21-7.07v-.94h8.5v.94h-8.5Zm4.27,4.96c-1.05,0-1.9-.18-2.56-.53-.66-.35-.99-.85-.99-1.5v-.18c0-.65,.33-1.15,.98-1.5,.66-.35,1.51-.52,2.57-.52s1.88,.17,2.54,.52c.66,.35,.98,.85,.98,1.5v.18c0,.65-.33,1.15-.98,1.5-.66,.35-1.5,.53-2.54,.53Zm0-.91c.69,0,1.27-.1,1.72-.31,.45-.21,.68-.48,.68-.82v-.11c0-.34-.23-.62-.68-.83-.45-.21-1.03-.32-1.72-.32s-1.27,.11-1.74,.32c-.46,.21-.7,.49-.7,.83v.11c0,.34,.23,.62,.69,.82s1.04,.31,1.74,.31Zm6.35,8.59v-3.31h-8.35v-1.01h9.49v4.32h-1.14Zm-6.94-13.04v-2.06h1.15v2.06h-1.15Zm.08,6.78v-2.08h1.15v2.08h-1.15Zm6.86,.9v-9.55h1.14v9.55h-1.14Zm.62-3.81v-1.06h2.82v1.06h-2.82Z"/>
        <path class="cls-4" d="M408.65,403.91v-4.02h5.74v-1.87h-5.74v-1.01h6.88v3.87h-5.76v2.02h1.57c.91,0,1.9-.05,2.98-.14,1.08-.09,2.09-.21,3.02-.36l.14,.98c-.91,.16-1.93,.29-3.06,.38-1.13,.1-2.22,.14-3.28,.14h-2.5Zm2.11,7.07v-5.87h1.14v4.83h7.22v-4.83h1.14v5.87h-9.49Zm.62-3.02v-1.01h8.24v1.01h-8.24Zm7.73-3.74v-8h1.14v8h-1.14Z"/>
        <path class="cls-4" d="M427.04,403.47c1.33-.79,2.33-1.59,2.98-2.41,.65-.82,.98-1.75,.98-2.79v-.75h1.12v.75c0,1.25-.37,2.36-1.1,3.34-.74,.98-1.87,1.9-3.41,2.78l-.56-.91Zm.59-5.42v-1.02h7.87v1.02h-7.87Zm5.33,13.09c-.7,0-1.32-.13-1.84-.38-.52-.26-.92-.61-1.2-1.06-.28-.45-.42-.95-.42-1.52s.14-1.06,.42-1.51,.68-.81,1.2-1.07c.52-.26,1.14-.39,1.84-.39h3.1c.7,0,1.32,.13,1.84,.39,.52,.26,.92,.62,1.2,1.07s.42,.96,.42,1.51-.14,1.07-.42,1.52c-.28,.45-.68,.8-1.2,1.06-.52,.26-1.14,.38-1.84,.38h-3.1Zm2.88-1.02c.82,0,1.45-.18,1.88-.54,.43-.36,.65-.83,.65-1.42s-.22-1.03-.65-1.39c-.43-.36-1.06-.54-1.88-.54h-2.66c-.82,0-1.45,.18-1.89,.54-.44,.36-.66,.83-.66,1.39s.22,1.06,.66,1.42c.44,.36,1.07,.54,1.89,.54h2.66Zm-.35-5.95l-4.75-3.31,.62-.85,4.72,3.22-.59,.94Zm-.51-3.55v-1.01h3.79v1.01h-3.79Zm3.18,3.7v-8.06h1.14v8.06h-1.14Z"/>
        <path class="cls-4" d="M442,409.8v-1.06h13.82v1.06h-13.82Zm11.9-12.5v1.04h-8.98v5.5h9.12v1.02h-10.26v-7.57h10.11Zm-5.55,12.26v-5.3h1.14v5.3h-1.14Z"/>
        <path class="cls-4" d="M130.97,446.15c-.45,0-.86-.11-1.24-.33-.38-.22-.68-.52-.9-.9-.22-.38-.33-.79-.33-1.22s.11-.86,.33-1.24c.22-.38,.52-.68,.9-.9,.38-.22,.79-.33,1.24-.33s.86,.11,1.24,.33c.38,.22,.68,.52,.9,.9,.22,.38,.33,.79,.33,1.24s-.11,.85-.33,1.22c-.22,.38-.52,.68-.9,.9-.38,.22-.79,.33-1.24,.33Z"/>
        <path class="cls-4" d="M145.65,449.79v-1.04h13.82v1.04h-13.82Zm.83-5.55c1.9-.9,3.3-1.83,4.22-2.82,.91-.98,1.37-2.04,1.37-3.18v-1.17h1.14v1.17c0,1.34-.5,2.6-1.5,3.76-1,1.16-2.56,2.24-4.7,3.23l-.53-.99Zm11.52,.99l-6.18-4.22,.51-.98,6.3,4.26-.64,.94Zm-6,4.32v-4.74h1.14v4.74h-1.14Z"/>
        <path class="cls-4" d="M160.81,444.49v-1.01h13.82v1.01h-13.82Zm10.9,6.66v-3.74h-9.1v-1.06h10.26v4.8h-1.15Zm.85-14.56v.99h-8.67v3.18h8.83v.99h-9.97v-5.17h9.81Z"/>
        <path class="cls-4" d="M175.98,446.51v-1.06h13.82v1.06h-13.82Zm.99-3.89c1.81-.71,3.17-1.5,4.07-2.34,.9-.85,1.35-1.77,1.35-2.76v-.98h1.14v.98c0,1.23-.49,2.34-1.48,3.35-.99,1.01-2.53,1.93-4.62,2.76l-.46-1.01Zm11.28,1.01l-6.11-3.55,.5-.99,6.16,3.57-.54,.98Zm-5.92,7.52v-5.49h1.14v5.49h-1.14Z"/>
        <path class="cls-4" d="M191.15,445.21v-1.06h13.82v1.06h-13.82Zm1.25-3.39c1.72-.54,3.01-1.16,3.88-1.86,.87-.69,1.3-1.45,1.3-2.26v-.8h1.14v.78c0,1.1-.48,2.06-1.45,2.9s-2.47,1.57-4.52,2.21l-.35-.98Zm.61,9.17v-4.29h1.15v3.23h9.28v1.06h-10.43Zm.16-13.39v-1.01h9.81v1.01h-9.81Zm10.08,5.2l-6.02-2.86,.5-.91,5.98,2.83-.46,.94Zm-5.74,5.34v-3.54h1.14v3.54h-1.14Z"/>
        <path class="cls-4" d="M206.51,448.55l-.06-1.06h2.69c.95,0,2.09-.04,3.42-.13,1.33-.08,2.56-.2,3.69-.34l.13,1.01c-1.1,.16-2.31,.29-3.64,.38s-2.55,.14-3.66,.14h-2.56Zm4.66-3.55c-.74,0-1.39-.14-1.98-.42s-1.04-.71-1.38-1.29c-.34-.58-.51-1.28-.51-2.11v-.34c0-.83,.17-1.54,.51-2.11,.34-.58,.8-1,1.38-1.29,.58-.28,1.24-.42,1.98-.42s1.38,.14,1.96,.42c.58,.28,1.04,.71,1.38,1.29,.34,.58,.51,1.28,.51,2.11v.34c0,.83-.17,1.54-.51,2.11s-.8,1.01-1.38,1.29c-.58,.28-1.23,.42-1.96,.42Zm0-1.06c.8,0,1.45-.24,1.95-.72,.5-.48,.75-1.17,.75-2.06v-.3c0-.9-.25-1.59-.74-2.07s-1.15-.73-1.96-.73-1.47,.24-1.97,.73-.75,1.18-.75,2.07v.3c0,.9,.25,1.58,.75,2.06,.5,.48,1.16,.72,1.97,.72Zm6.48,7.04v-14.77h1.14v14.77h-1.14Z"/>
        <path class="cls-4" d="M225.37,446.51v-1.06h13.82v1.06h-13.82Zm.99-3.89c1.81-.71,3.17-1.5,4.07-2.34,.9-.85,1.35-1.77,1.35-2.76v-.98h1.14v.98c0,1.23-.49,2.34-1.48,3.35-.99,1.01-2.53,1.93-4.62,2.76l-.46-1.01Zm11.28,1.01l-6.11-3.55,.5-.99,6.16,3.57-.54,.98Zm-5.92,7.52v-5.49h1.14v5.49h-1.14Z"/>
        <path class="cls-4" d="M241.42,444.07v-4.1h5.36v-1.95h-5.36v-1.01h6.48v3.95h-5.36v2.08h1.41c.83,0,1.72-.04,2.67-.12s1.87-.18,2.77-.31l.13,.98c-.84,.15-1.76,.27-2.74,.35-.99,.08-2,.13-3.03,.13h-2.32Zm2.11,6.91v-5.41h9.49v5.41h-9.49Zm1.14-1.04h7.22v-3.34h-7.22v3.34Zm4.5-10.82v-.94h3.31v.94h-3.31Zm0,2.78v-.96h3.31v.96h-3.31Zm2.72,2.62v-8.32h1.14v8.32h-1.14Z"/>
        <path class="cls-4" d="M130.97,486.15c-.45,0-.86-.11-1.24-.33-.38-.22-.68-.52-.9-.9-.22-.38-.33-.79-.33-1.22s.11-.86,.33-1.24c.22-.38,.52-.68,.9-.9,.38-.22,.79-.33,1.24-.33s.86,.11,1.24,.33c.38,.22,.68,.52,.9,.9,.22,.38,.33,.79,.33,1.24s-.11,.85-.33,1.22c-.22,.38-.52,.68-.9,.9-.38,.22-.79,.33-1.24,.33Z"/>
        <path class="cls-4" d="M150.08,489.02c-1.12,0-2.03-.4-2.74-1.21-.7-.8-1.06-2.03-1.06-3.69v-2.21c0-1.65,.35-2.88,1.06-3.69,.7-.8,1.62-1.21,2.74-1.21s2.03,.4,2.74,1.21c.7,.81,1.06,2.04,1.06,3.69v2.21c0,1.65-.35,2.88-1.06,3.69-.7,.81-1.62,1.21-2.74,1.21Zm0-1.06c.81,0,1.46-.31,1.94-.94,.48-.63,.72-1.6,.72-2.91v-2.19c0-1.31-.24-2.28-.72-2.9s-1.13-.94-1.94-.94-1.45,.31-1.93,.94-.71,1.59-.71,2.9v2.19c0,1.31,.24,2.28,.71,2.91,.47,.63,1.12,.94,1.93,.94Zm6.9,3.02v-14.77h1.15v14.77h-1.15Z"/>
        <path class="cls-4" d="M160.57,488.17c.86-.93,1.58-1.83,2.14-2.71s.99-1.82,1.3-2.82c.3-1,.46-2.09,.46-3.27v-1.31h1.12v1.31c0,1.82-.34,3.49-1.02,5.01s-1.73,3.04-3.15,4.56l-.83-.77Zm.58-9.65v-1.04h7.78v1.04h-7.78Zm7.49,10.26l-4.56-5.57,.85-.77,4.59,5.57-.88,.77Zm2.69,2.21v-14.77h1.14v14.77h-1.14Zm.66-7.94v-1.06h2.93v1.06h-2.93Z"/>
        <path class="cls-4" d="M175.98,483.27v-.98h13.82v.98h-13.82Zm5.87-2.19c-1.32,0-2.35-.19-3.07-.58-.73-.39-1.09-.99-1.09-1.8s.36-1.39,1.09-1.78c.73-.38,1.75-.58,3.07-.58h2.08c1.33,0,2.36,.19,3.09,.58,.73,.38,1.09,.98,1.09,1.78s-.36,1.41-1.09,1.8c-.73,.39-1.75,.58-3.09,.58h-2.08Zm-4.08,9.98v-3.65h9.1v-1.66h-9.18v-.96h10.34v3.58h-9.12v1.71h9.52v.98h-10.66Zm5.98-10.94c1.04,0,1.84-.12,2.38-.36s.82-.59,.82-1.05-.27-.82-.81-1.05-1.34-.34-2.39-.34h-1.71c-1.07,0-1.87,.11-2.41,.34-.54,.23-.81,.58-.81,1.05,0,.94,1.07,1.41,3.22,1.41h1.71Zm-3.92,5.1v-2.58h1.12v2.58h-1.12Zm5.02,0v-2.58h1.12v2.58h-1.12Z"/>
        <path class="cls-4" d="M191.34,488.55l-.06-1.06h2.69c.95,0,2.09-.04,3.42-.13,1.33-.08,2.56-.2,3.69-.34l.13,1.01c-1.1,.16-2.31,.29-3.64,.38s-2.55,.14-3.66,.14h-2.56Zm4.66-3.55c-.74,0-1.39-.14-1.98-.42s-1.04-.71-1.38-1.29c-.34-.58-.51-1.28-.51-2.11v-.34c0-.83,.17-1.54,.51-2.11,.34-.58,.8-1,1.38-1.29,.58-.28,1.24-.42,1.98-.42s1.38,.14,1.96,.42c.58,.28,1.04,.71,1.38,1.29,.34,.58,.51,1.28,.51,2.11v.34c0,.83-.17,1.54-.51,2.11s-.8,1.01-1.38,1.29c-.58,.28-1.23,.42-1.96,.42Zm0-1.06c.8,0,1.45-.24,1.95-.72,.5-.48,.75-1.17,.75-2.06v-.3c0-.9-.25-1.59-.74-2.07s-1.15-.73-1.96-.73-1.47,.24-1.97,.73-.75,1.18-.75,2.07v.3c0,.9,.25,1.58,.75,2.06,.5,.48,1.16,.72,1.97,.72Zm6.48,7.04v-14.77h1.14v14.77h-1.14Z"/>
        <path class="cls-4" d="M210.21,486.51v-1.06h13.82v1.06h-13.82Zm.99-3.89c1.81-.71,3.17-1.5,4.07-2.34,.9-.85,1.35-1.77,1.35-2.76v-.98h1.14v.98c0,1.23-.49,2.34-1.48,3.35-.99,1.01-2.53,1.93-4.62,2.76l-.46-1.01Zm11.28,1.01l-6.11-3.55,.5-.99,6.16,3.57-.54,.98Zm-5.92,7.52v-5.49h1.14v5.49h-1.14Z"/>
        <path class="cls-4" d="M226.25,484.07v-4.1h5.36v-1.95h-5.36v-1.01h6.48v3.95h-5.36v2.08h1.41c.83,0,1.72-.04,2.67-.12s1.87-.18,2.77-.31l.13,.98c-.84,.15-1.76,.27-2.74,.35-.99,.08-2,.13-3.03,.13h-2.32Zm2.11,6.91v-5.41h9.49v5.41h-9.49Zm1.14-1.04h7.22v-3.34h-7.22v3.34Zm4.5-10.82v-.94h3.31v.94h-3.31Zm0,2.78v-.96h3.31v.96h-3.31Zm2.72,2.62v-8.32h1.14v8.32h-1.14Z"/>
        <path class="cls-4" d="M130.97,526.15c-.45,0-.86-.11-1.24-.33-.38-.22-.68-.52-.9-.9-.22-.38-.33-.79-.33-1.22s.11-.86,.33-1.24c.22-.38,.52-.68,.9-.9,.38-.22,.79-.33,1.24-.33s.86,.11,1.24,.33c.38,.22,.68,.52,.9,.9,.22,.38,.33,.79,.33,1.24s-.11,.85-.33,1.22c-.22,.38-.52,.68-.9,.9-.38,.22-.79,.33-1.24,.33Z"/>
        <path class="cls-4" d="M150.14,524.78c-.73,0-1.38-.14-1.96-.43-.58-.29-1.04-.72-1.38-1.3-.34-.58-.51-1.29-.51-2.13v-.34c0-.84,.17-1.56,.51-2.14,.34-.59,.8-1.02,1.38-1.31,.58-.29,1.23-.43,1.96-.43s1.36,.14,1.94,.43,1.04,.73,1.38,1.31c.34,.59,.5,1.3,.5,2.14v.34c0,.84-.17,1.55-.5,2.13-.34,.58-.79,1.01-1.38,1.3s-1.23,.43-1.94,.43Zm0-1.02c.8,0,1.45-.25,1.94-.74,.5-.49,.74-1.19,.74-2.11v-.32c0-.92-.25-1.62-.74-2.12-.5-.5-1.14-.74-1.94-.74s-1.45,.25-1.95,.74-.75,1.2-.75,2.12v.32c0,.92,.25,1.62,.74,2.11,.5,.49,1.15,.74,1.96,.74Zm-1.5,7.23v-4.72h1.15v3.66h9.04v1.06h-10.19Zm8.35-3.55v-11.22h1.15v11.22h-1.15Z"/>
        <path class="cls-4" d="M160.81,523.66v-.98h13.82v.98h-13.82Zm1.71-6.19v-.96h10.42v.96h-10.42Zm0,3.89v-.96h10.42v.96h-10.42Zm.08,9.71v-3.57h9.1v-1.58h-9.18v-.96h10.34v3.5h-9.12v1.65h9.52v.96h-10.66Zm2.21-10.29v-3.87h1.12v3.87h-1.12Zm4.7,0v-3.87h1.12v3.87h-1.12Z"/>
        <path class="cls-4" d="M176.51,528.84v-6.32h3.97v-4.08h-3.97v-1.04h5.07v6.16h-3.97v4.24h1.01c.73,0,1.42-.03,2.09-.09s1.39-.15,2.18-.26l.13,1.01c-.76,.13-1.49,.22-2.2,.29-.71,.06-1.51,.1-2.41,.1h-1.9Zm5.84-5.65v-1.04h2.5v1.04h-2.5Zm2,7.52v-14.26h1.1v14.26h-1.1Zm3.18,.27v-14.77h1.12v14.77h-1.12Z"/>
        <path class="cls-4" d="M195.58,529.02c-1.12,0-2.03-.4-2.74-1.21-.7-.8-1.06-2.03-1.06-3.69v-2.21c0-1.65,.35-2.88,1.06-3.69,.7-.8,1.62-1.21,2.74-1.21s2.03,.4,2.74,1.21c.7,.81,1.06,2.04,1.06,3.69v2.21c0,1.65-.35,2.88-1.06,3.69-.7,.81-1.62,1.21-2.74,1.21Zm0-1.06c.81,0,1.46-.31,1.94-.94,.48-.63,.72-1.6,.72-2.91v-2.19c0-1.31-.24-2.28-.72-2.9s-1.13-.94-1.94-.94-1.45,.31-1.93,.94-.71,1.59-.71,2.9v2.19c0,1.31,.24,2.28,.71,2.91,.47,.63,1.12,.94,1.93,.94Zm6.9,3.02v-14.77h1.15v14.77h-1.15Z"/>
        <path class="cls-4" d="M206.49,524.35c1.29-.91,2.26-1.87,2.9-2.9,.64-1.02,.96-2.18,.96-3.46v-1.17h1.12v1.17c0,1.46-.35,2.78-1.06,3.95-.71,1.17-1.8,2.27-3.27,3.28l-.64-.88Zm2.82,6.64v-4.5h1.14v3.44h9.04v1.06h-10.18Zm5.33-5.98l-4.51-3.82,.72-.8,4.46,3.76-.67,.86Zm-.16-5.54v-.99h3.78v.99h-3.78Zm0,2.93v-.98h3.78v.98h-3.78Zm3.18,5.04v-11.22h1.14v11.22h-1.14Z"/>
        <path class="cls-4" d="M221.49,523.27v-.98h13.82v.98h-13.82Zm5.87-2.19c-1.32,0-2.35-.19-3.07-.58-.73-.39-1.09-.99-1.09-1.8s.36-1.39,1.09-1.78c.73-.38,1.75-.58,3.07-.58h2.08c1.33,0,2.36,.19,3.09,.58,.73,.38,1.09,.98,1.09,1.78s-.36,1.41-1.09,1.8c-.73,.39-1.75,.58-3.09,.58h-2.08Zm-4.08,9.98v-3.65h9.1v-1.66h-9.18v-.96h10.34v3.58h-9.12v1.71h9.52v.98h-10.66Zm5.98-10.94c1.04,0,1.84-.12,2.38-.36s.82-.59,.82-1.05-.27-.82-.81-1.05-1.34-.34-2.39-.34h-1.71c-1.07,0-1.87,.11-2.41,.34-.54,.23-.81,.58-.81,1.05,0,.94,1.07,1.41,3.22,1.41h1.71Zm-3.92,5.1v-2.58h1.12v2.58h-1.12Zm5.02,0v-2.58h1.12v2.58h-1.12Z"/>
        <path class="cls-4" d="M236.85,528.55l-.06-1.06h2.69c.95,0,2.09-.04,3.42-.13,1.33-.08,2.56-.2,3.69-.34l.13,1.01c-1.1,.16-2.31,.29-3.64,.38s-2.55,.14-3.66,.14h-2.56Zm4.66-3.55c-.74,0-1.39-.14-1.98-.42s-1.04-.71-1.38-1.29c-.34-.58-.51-1.28-.51-2.11v-.34c0-.83,.17-1.54,.51-2.11,.34-.58,.8-1,1.38-1.29,.58-.28,1.24-.42,1.98-.42s1.38,.14,1.96,.42c.58,.28,1.04,.71,1.38,1.29,.34,.58,.51,1.28,.51,2.11v.34c0,.83-.17,1.54-.51,2.11s-.8,1.01-1.38,1.29c-.58,.28-1.23,.42-1.96,.42Zm0-1.06c.8,0,1.45-.24,1.95-.72,.5-.48,.75-1.17,.75-2.06v-.3c0-.9-.25-1.59-.74-2.07s-1.15-.73-1.96-.73-1.47,.24-1.97,.73-.75,1.18-.75,2.07v.3c0,.9,.25,1.58,.75,2.06,.5,.48,1.16,.72,1.97,.72Zm6.48,7.04v-14.77h1.14v14.77h-1.14Z"/>
        <path class="cls-4" d="M255.71,526.51v-1.06h13.82v1.06h-13.82Zm.99-3.89c1.81-.71,3.17-1.5,4.07-2.34,.9-.85,1.35-1.77,1.35-2.76v-.98h1.14v.98c0,1.23-.49,2.34-1.48,3.35-.99,1.01-2.53,1.93-4.62,2.76l-.46-1.01Zm11.28,1.01l-6.11-3.55,.5-.99,6.16,3.57-.54,.98Zm-5.92,7.52v-5.49h1.14v5.49h-1.14Z"/>
        <path class="cls-4" d="M271.76,524.07v-4.1h5.36v-1.95h-5.36v-1.01h6.48v3.95h-5.36v2.08h1.41c.83,0,1.72-.04,2.67-.12s1.87-.18,2.77-.31l.13,.98c-.84,.15-1.76,.27-2.74,.35-.99,.08-2,.13-3.03,.13h-2.32Zm2.11,6.91v-5.41h9.49v5.41h-9.49Zm1.14-1.04h7.22v-3.34h-7.22v3.34Zm4.5-10.82v-.94h3.31v.94h-3.31Zm0,2.78v-.96h3.31v.96h-3.31Zm2.72,2.62v-8.32h1.14v8.32h-1.14Z"/>
        <path class="cls-4" d="M130.97,566.15c-.45,0-.86-.11-1.24-.33-.38-.22-.68-.52-.9-.9-.22-.38-.33-.79-.33-1.22s.11-.86,.33-1.24c.22-.38,.52-.68,.9-.9,.38-.22,.79-.33,1.24-.33s.86,.11,1.24,.33c.38,.22,.68,.52,.9,.9,.22,.38,.33,.79,.33,1.24s-.11,.85-.33,1.22c-.22,.38-.52,.68-.9,.9-.38,.22-.79,.33-1.24,.33Z"/>
        <path class="cls-4" d="M146.48,563.31c1.87-.61,3.34-1.37,4.41-2.3,1.07-.92,1.61-1.91,1.61-2.95v-.43l.45,.53h-6.22v-1.06h6.93v.72c0,1.46-.58,2.73-1.74,3.81-1.16,1.08-2.82,1.97-4.98,2.67l-.45-.99Zm5.3,7.82c-.7,0-1.31-.13-1.83-.38-.52-.26-.91-.61-1.19-1.06-.28-.45-.42-.95-.42-1.52s.14-1.06,.42-1.51,.67-.81,1.19-1.07c.52-.26,1.13-.39,1.83-.39h3.12c.7,0,1.32,.13,1.84,.39,.52,.26,.92,.62,1.2,1.07s.42,.96,.42,1.51-.14,1.07-.42,1.52c-.28,.45-.68,.8-1.2,1.06-.52,.26-1.14,.38-1.84,.38h-3.12Zm2.9-1.02c.82,0,1.45-.18,1.88-.54,.43-.36,.65-.83,.65-1.42s-.22-1.03-.65-1.39c-.43-.36-1.06-.54-1.88-.54h-2.66c-.82,0-1.45,.18-1.89,.54-.44,.36-.66,.83-.66,1.39s.22,1.06,.66,1.42c.44,.36,1.07,.54,1.89,.54h2.66Zm-1.54-10.5v-.98h4.45v.98h-4.45Zm.13,2.78v-.98h4.32v.98h-4.32Zm3.73,1.9v-8.06h1.14v8.06h-1.14Z"/>
        <path class="cls-4" d="M161.6,568.22c1.25-.81,2.33-1.72,3.23-2.74,.91-1.02,1.6-2.09,2.09-3.22s.73-2.27,.73-3.41v-.77l.42,.45h-6.24v-1.04h6.98v1.14c0,2.05-.57,3.97-1.71,5.76-1.14,1.79-2.75,3.37-4.82,4.74l-.67-.9Zm10.56,2.77v-14.77h1.14v14.77h-1.14Z"/>
        <path class="cls-4" d="M176.78,564.55v-7.54h1.12v6.51h4.8v-6.51h1.12v7.54h-7.04Zm.56-3.89v-1.01h5.94v1.01h-5.94Zm1.65,10.32v-4.42h1.14v3.36h9.04v1.06h-10.18Zm4.51-11.52v-.99h4.43v.99h-4.43Zm0,3.07v-.96h4.43v.96h-4.43Zm3.82,4.9v-11.22h1.15v11.22h-1.15Z"/>
        <path class="cls-4" d="M191.15,564.3v-1.01h13.82v1.01h-13.82Zm5.3,6.85c-.78,0-1.44-.11-1.99-.34-.55-.22-.97-.53-1.25-.93s-.42-.85-.42-1.38,.14-.96,.42-1.36c.28-.39,.7-.7,1.25-.93,.55-.22,1.21-.34,1.99-.34h3.23c.79,0,1.46,.11,2.01,.34,.55,.22,.97,.53,1.25,.93,.28,.4,.42,.85,.42,1.36s-.14,.98-.42,1.38c-.28,.39-.7,.7-1.25,.93-.55,.22-1.22,.34-2.01,.34h-3.23Zm6.45-14.56v.99h-8.67v3.09h8.83v1.01h-9.97v-5.09h9.81Zm-3.47,13.55c.92,0,1.61-.15,2.08-.44,.47-.29,.7-.69,.7-1.19s-.23-.89-.7-1.18-1.16-.42-2.08-.42h-2.72c-.92,0-1.61,.14-2.08,.42-.47,.28-.7,.67-.7,1.18s.23,.9,.7,1.19c.47,.29,1.16,.44,2.08,.44h2.72Zm-1.92-6.22v-2.86h1.14v2.86h-1.14Z"/>
        <path class="cls-4" d="M206.51,568.55l-.06-1.06h2.69c.95,0,2.09-.04,3.42-.13,1.33-.08,2.56-.2,3.69-.34l.13,1.01c-1.1,.16-2.31,.29-3.64,.38s-2.55,.14-3.66,.14h-2.56Zm4.66-3.55c-.74,0-1.39-.14-1.98-.42s-1.04-.71-1.38-1.29c-.34-.58-.51-1.28-.51-2.11v-.34c0-.83,.17-1.54,.51-2.11,.34-.58,.8-1,1.38-1.29,.58-.28,1.24-.42,1.98-.42s1.38,.14,1.96,.42c.58,.28,1.04,.71,1.38,1.29,.34,.58,.51,1.28,.51,2.11v.34c0,.83-.17,1.54-.51,2.11s-.8,1.01-1.38,1.29c-.58,.28-1.23,.42-1.96,.42Zm0-1.06c.8,0,1.45-.24,1.95-.72,.5-.48,.75-1.17,.75-2.06v-.3c0-.9-.25-1.59-.74-2.07s-1.15-.73-1.96-.73-1.47,.24-1.97,.73-.75,1.18-.75,2.07v.3c0,.9,.25,1.58,.75,2.06,.5,.48,1.16,.72,1.97,.72Zm6.48,7.04v-14.77h1.14v14.77h-1.14Z"/>
        <path class="cls-4" d="M225.37,564.3v-1.01h13.82v1.01h-13.82Zm5.3,6.85c-.78,0-1.44-.11-1.99-.34-.55-.22-.97-.53-1.25-.93s-.42-.85-.42-1.38,.14-.96,.42-1.36c.28-.39,.7-.7,1.25-.93,.55-.22,1.21-.34,1.99-.34h3.23c.79,0,1.46,.11,2.01,.34,.55,.22,.97,.53,1.25,.93,.28,.4,.42,.85,.42,1.36s-.14,.98-.42,1.38c-.28,.39-.7,.7-1.25,.93-.55,.22-1.22,.34-2.01,.34h-3.23Zm6.45-14.56v.99h-8.67v3.09h8.83v1.01h-9.97v-5.09h9.81Zm-3.47,13.55c.92,0,1.61-.15,2.08-.44,.47-.29,.7-.69,.7-1.19s-.23-.89-.7-1.18-1.16-.42-2.08-.42h-2.72c-.92,0-1.61,.14-2.08,.42-.47,.28-.7,.67-.7,1.18s.23,.9,.7,1.19c.47,.29,1.16,.44,2.08,.44h2.72Zm-1.92-6.22v-2.86h1.14v2.86h-1.14Z"/>
        <path class="cls-4" d="M240.54,569.8v-1.06h13.82v1.06h-13.82Zm.98-5.33c1.83-.85,3.2-1.75,4.1-2.68s1.34-1.94,1.34-3.02v-1.1h1.15v1.1c0,1.3-.49,2.5-1.48,3.61-.99,1.1-2.52,2.13-4.6,3.06l-.51-.98Zm.82-6.13v-1.04h10.26v1.04h-10.26Zm10.43,7.1l-6.06-4.05,.51-.98,6.16,4.1-.61,.93Zm-5.87,4.11v-4.45h1.14v4.45h-1.14Z"/>
        <path class="cls-4" d="M255.53,569.02l-.05-1.04h2.54c.92,0,2.03-.04,3.33-.13,1.3-.08,2.5-.2,3.6-.34l.13,1.01c-1.1,.15-2.3,.27-3.61,.36s-2.48,.14-3.51,.14h-2.43Zm.21-9.94v-.98h8.5v.98h-8.5Zm4.27,6.83c-1.03,0-1.89-.25-2.55-.74-.67-.49-1-1.16-1-2.02v-.27c0-.86,.33-1.54,.99-2.02,.66-.49,1.51-.73,2.56-.73s1.87,.24,2.53,.73c.66,.49,.99,1.16,.99,2.02v.27c0,.85-.33,1.53-.99,2.02-.66,.49-1.5,.74-2.53,.74Zm0-.96c.69,0,1.27-.17,1.72-.5,.45-.33,.68-.77,.68-1.31v-.22c0-.55-.23-1-.68-1.33-.45-.33-1.03-.5-1.72-.5s-1.29,.17-1.74,.5c-.46,.33-.69,.77-.69,1.33v.22c0,.54,.23,.98,.69,1.31s1.04,.5,1.74,.5Zm-.59-6.34v-2.38h1.15v2.38h-1.15Zm.08,9.82v-3.38h1.15v3.38h-1.15Zm6.86,2.54v-14.77h1.14v14.77h-1.14Zm.62-7.79v-1.04h2.82v1.04h-2.82Z"/>
        <path class="cls-4" d="M130.97,606.15c-.45,0-.86-.11-1.24-.33-.38-.22-.68-.52-.9-.9-.22-.38-.33-.79-.33-1.22s.11-.86,.33-1.24c.22-.38,.52-.68,.9-.9,.38-.22,.79-.33,1.24-.33s.86,.11,1.24,.33c.38,.22,.68,.52,.9,.9,.22,.38,.33,.79,.33,1.24s-.11,.85-.33,1.22c-.22,.38-.52,.68-.9,.9-.38,.22-.79,.33-1.24,.33Z"/>
        <path class="cls-4" d="M145.65,603.31v-1.04h13.82v1.04h-13.82Zm10.02-.75c.17-.84,.3-1.7,.4-2.58,.1-.88,.14-1.58,.14-2.1v-.61l.45,.53h-9.26v-1.04h9.95v.88c0,.7-.05,1.51-.15,2.41s-.24,1.8-.42,2.7l-1.1-.18Zm-8.22,8.43v-5.65h10.26v5.65h-10.26Zm1.14-1.02h7.97v-3.6h-7.97v3.6Z"/>
        <path class="cls-4" d="M160.81,604.15v-1.02h13.82v1.02h-13.82Zm5.3,6.99c-.78,0-1.44-.11-1.99-.34-.55-.22-.97-.54-1.25-.94s-.42-.86-.42-1.37,.14-.96,.42-1.36c.28-.39,.7-.7,1.25-.93,.55-.22,1.21-.34,1.99-.34h3.23c.79,0,1.46,.11,2.01,.34,.55,.22,.97,.53,1.25,.93,.28,.4,.42,.85,.42,1.36s-.14,.97-.42,1.37c-.28,.4-.7,.71-1.25,.94-.55,.22-1.22,.34-2.01,.34h-3.23Zm.59-9.41c-1.3,0-2.32-.23-3.06-.68-.74-.45-1.11-1.11-1.11-1.98s.37-1.54,1.1-1.98c.74-.45,1.76-.67,3.07-.67h2.06c1.31,0,2.34,.22,3.07,.67,.74,.45,1.1,1.11,1.1,1.98s-.37,1.52-1.11,1.98c-.74,.45-1.76,.68-3.06,.68h-2.06Zm2.38,8.38c.92,0,1.61-.14,2.08-.43,.47-.29,.7-.68,.7-1.18s-.23-.89-.7-1.18-1.16-.42-2.08-.42h-2.72c-.92,0-1.61,.14-2.08,.42-.47,.28-.7,.67-.7,1.18s.23,.9,.7,1.18c.47,.29,1.16,.43,2.08,.43h2.72Zm-.51-9.36c1.03,0,1.83-.15,2.38-.44,.55-.29,.83-.71,.83-1.24s-.27-.94-.82-1.22c-.55-.28-1.35-.42-2.39-.42h-1.68c-1.05,0-1.85,.14-2.4,.42-.55,.28-.83,.69-.83,1.22s.28,.96,.83,1.25,1.35,.43,2.4,.43h1.68Zm-3.9,5.68v-2.9h1.12v2.9h-1.12Zm5.02,0v-2.9h1.12v2.9h-1.12Z"/>
        <path class="cls-4" d="M175.98,608.15c1.39-1.37,2.42-2.78,3.09-4.25,.67-1.47,1.01-3.11,1.01-4.94v-1.84h1.12v1.84c0,1.91-.36,3.67-1.07,5.3-.71,1.62-1.83,3.18-3.34,4.67l-.8-.78Zm8.48,.62l-4.78-5.65,.85-.74,4.78,5.63-.85,.75Zm2.83,2.21v-14.77h1.15v14.77h-1.15Z"/>
        <path class="cls-4" d="M190.93,603.47c1.3-.79,2.27-1.59,2.91-2.42,.64-.82,.96-1.75,.96-2.78v-.75h1.12v.75c0,1.24-.36,2.35-1.09,3.34-.73,.99-1.84,1.91-3.34,2.78l-.56-.91Zm.56-5.42v-1.02h7.78v1.02h-7.78Zm5.25,13.09c-.69,0-1.3-.13-1.82-.38-.52-.26-.92-.61-1.2-1.06-.28-.45-.42-.95-.42-1.52s.14-1.06,.42-1.51,.68-.81,1.2-1.07c.52-.26,1.13-.39,1.82-.39h2.99c.7,0,1.31,.13,1.83,.39,.52,.26,.91,.62,1.19,1.07s.42,.96,.42,1.51-.14,1.07-.42,1.52c-.28,.45-.67,.8-1.19,1.06-.52,.26-1.13,.38-1.83,.38h-2.99Zm2.77-1.02c.82,0,1.45-.18,1.87-.54,.43-.36,.64-.83,.64-1.42s-.22-1.03-.65-1.39c-.43-.36-1.05-.54-1.86-.54h-2.54c-.81,0-1.43,.18-1.86,.54-.43,.36-.65,.83-.65,1.39s.21,1.06,.64,1.42c.43,.36,1.05,.54,1.87,.54h2.54Zm-.26-6.03l-4.7-3.31,.62-.85,4.69,3.23-.61,.93Zm2.42,.22v-8.06h1.14v8.06h-1.14Zm.66-3.73v-1.04h2.93v1.04h-2.93Z"/>
        <path class="cls-4" d="M206.51,608.55l-.06-1.06h2.69c.95,0,2.09-.04,3.42-.13,1.33-.08,2.56-.2,3.69-.34l.13,1.01c-1.1,.16-2.31,.29-3.64,.38s-2.55,.14-3.66,.14h-2.56Zm4.66-3.55c-.74,0-1.39-.14-1.98-.42s-1.04-.71-1.38-1.29c-.34-.58-.51-1.28-.51-2.11v-.34c0-.83,.17-1.54,.51-2.11,.34-.58,.8-1,1.38-1.29,.58-.28,1.24-.42,1.98-.42s1.38,.14,1.96,.42c.58,.28,1.04,.71,1.38,1.29,.34,.58,.51,1.28,.51,2.11v.34c0,.83-.17,1.54-.51,2.11s-.8,1.01-1.38,1.29c-.58,.28-1.23,.42-1.96,.42Zm0-1.06c.8,0,1.45-.24,1.95-.72,.5-.48,.75-1.17,.75-2.06v-.3c0-.9-.25-1.59-.74-2.07s-1.15-.73-1.96-.73-1.47,.24-1.97,.73-.75,1.18-.75,2.07v.3c0,.9,.25,1.58,.75,2.06,.5,.48,1.16,.72,1.97,.72Zm6.48,7.04v-14.77h1.14v14.77h-1.14Z"/>
        <path class="cls-4" d="M225.37,605.21v-.98h13.82v.98h-13.82Zm5.25,5.94c-1.17,0-2.07-.21-2.69-.62s-.93-.98-.93-1.7c0-.47,.14-.88,.41-1.22,.27-.35,.68-.62,1.22-.81s1.21-.29,1.98-.29h3.34c.78,0,1.44,.1,1.98,.29s.95,.46,1.22,.81c.27,.35,.41,.75,.41,1.22,0,.71-.31,1.28-.93,1.7-.62,.42-1.52,.62-2.69,.62h-3.34Zm-3.31-8.3v-6.26h9.97v.98h-8.83v4.3h9.14v.98h-10.27Zm.51-2.67v-.98h9.46v.98h-9.46Zm5.87,10c.92,0,1.6-.11,2.06-.34,.45-.23,.68-.56,.68-1s-.23-.77-.68-1c-.45-.23-1.14-.34-2.06-.34h-2.8c-.92,0-1.61,.11-2.06,.34s-.69,.56-.69,1,.23,.77,.69,1,1.15,.34,2.06,.34h2.8Zm-1.97-5.49v-2.21h1.14v2.21h-1.14Z"/>
        <path class="cls-4" d="M240.62,598.67v-.98h8.56v.98h-8.56Zm4.3,5.78c-1.05,0-1.9-.21-2.58-.62s-1.01-1-1.01-1.74v-.21c0-.74,.34-1.31,1.02-1.73s1.53-.62,2.57-.62,1.89,.21,2.56,.62c.67,.42,1.01,.99,1.01,1.73v.21c0,.75-.34,1.33-1.01,1.74-.67,.42-1.53,.62-2.56,.62Zm0-.98c.69,0,1.27-.13,1.74-.38s.7-.6,.7-1.02v-.16c0-.42-.23-.75-.7-1.02-.47-.26-1.05-.39-1.74-.39s-1.29,.13-1.75,.39c-.46,.26-.7,.6-.7,1.02v.16c0,.43,.23,.77,.7,1.02,.46,.26,1.05,.38,1.75,.38Zm-1.92,7.5v-5.7h1.15v4.69h6.9v-4.69h1.14v5.7h-9.18Zm.64-2.91v-1.02h7.92v1.02h-7.92Zm.69-9.84v-2.19h1.14v2.19h-1.14Zm6.72,6.18v-8.18h1.14v8.18h-1.14Zm.66-3.52v-1.04h2.94v1.04h-2.94Z"/>
        <path class="cls-4" d="M255.92,603.47c1.33-.79,2.33-1.59,2.98-2.41,.65-.82,.98-1.75,.98-2.79v-.75h1.12v.75c0,1.25-.37,2.36-1.1,3.34-.74,.98-1.87,1.9-3.41,2.78l-.56-.91Zm.59-5.42v-1.02h7.87v1.02h-7.87Zm5.33,13.09c-.7,0-1.32-.13-1.84-.38-.52-.26-.92-.61-1.2-1.06-.28-.45-.42-.95-.42-1.52s.14-1.06,.42-1.51,.68-.81,1.2-1.07c.52-.26,1.14-.39,1.84-.39h3.1c.7,0,1.32,.13,1.84,.39,.52,.26,.92,.62,1.2,1.07s.42,.96,.42,1.51-.14,1.07-.42,1.52c-.28,.45-.68,.8-1.2,1.06-.52,.26-1.14,.38-1.84,.38h-3.1Zm2.88-1.02c.82,0,1.45-.18,1.88-.54,.43-.36,.65-.83,.65-1.42s-.22-1.03-.65-1.39c-.43-.36-1.06-.54-1.88-.54h-2.66c-.82,0-1.45,.18-1.89,.54-.44,.36-.66,.83-.66,1.39s.22,1.06,.66,1.42c.44,.36,1.07,.54,1.89,.54h2.66Zm-.35-5.95l-4.75-3.31,.62-.85,4.72,3.22-.59,.94Zm-.51-3.55v-1.01h3.79v1.01h-3.79Zm3.18,3.7v-8.06h1.14v8.06h-1.14Z"/>
        <path class="cls-4" d="M270.88,609.8v-1.06h13.82v1.06h-13.82Zm11.9-12.5v1.04h-8.98v5.5h9.12v1.02h-10.26v-7.57h10.11Zm-5.55,12.26v-5.3h1.14v5.3h-1.14Z"/>
        <path class="cls-4" d="M127.65,649.79v-1.04h13.82v1.04h-13.82Zm.83-5.55c1.9-.9,3.3-1.83,4.22-2.82,.91-.98,1.37-2.04,1.37-3.18v-1.17h1.14v1.17c0,1.34-.5,2.6-1.5,3.76-1,1.16-2.56,2.24-4.7,3.23l-.53-.99Zm11.52,.99l-6.18-4.22,.51-.98,6.3,4.26-.64,.94Zm-6,4.32v-4.74h1.14v4.74h-1.14Z"/>
        <path class="cls-4" d="M143.18,648.28c1.44-1.28,2.57-2.75,3.39-4.4,.82-1.65,1.23-3.33,1.23-5.04v-.77l.42,.45h-4.77v-1.04h5.49v1.14c0,2.02-.43,3.91-1.3,5.67-.87,1.77-2.08,3.37-3.64,4.82l-.82-.83Zm5.23-2.62v-1.02h3.2v1.02h-3.2Zm.08-4.62v-1.04h3.12v1.04h-3.12Zm2.69,9.68v-14.26h1.1v14.26h-1.1Zm3.18,.27v-14.77h1.12v14.77h-1.12Z"/>
      </g>
      <text class="cls-3" transform="translate(526.63 23.99)"><tspan class="cls-1"><tspan x="0" y="0">배점</tspan></tspan><tspan class="cls-7"><tspan x="3.95" y="40">30</tspan></tspan><tspan class="cls-7"><tspan x="3.95" y="80">30</tspan></tspan><tspan class="cls-7"><tspan x="3.95" y="120">30</tspan></tspan><tspan class="cls-7"><tspan x="3.94" y="160">90</tspan></tspan><tspan class="cls-7"><tspan x="4.08" y="200">20</tspan></tspan><tspan class="cls-7"><tspan x="4.08" y="240">20</tspan></tspan><tspan class="cls-7"><tspan x="4.08" y="280">20</tspan></tspan><tspan class="cls-7"><tspan x="7.39" y="303" xml:space="preserve">    </tspan></tspan><tspan class="cls-7"><tspan x="4.08" y="343">20</tspan></tspan><tspan class="cls-7"><tspan x="4.08" y="383">20</tspan></tspan><tspan class="cls-7"><tspan x="4.08" y="423">20</tspan></tspan><tspan class="cls-7"><tspan x="5.8" y="463">10</tspan></tspan><tspan class="cls-7"><tspan x="5.8" y="503">10</tspan></tspan><tspan class="cls-7"><tspan x="5.8" y="543">10</tspan></tspan><tspan class="cls-7"><tspan x="5.8" y="583">10</tspan></tspan><tspan class="cls-7"><tspan x=".27" y="623">160</tspan></tspan><tspan class="cls-7"><tspan x="-1.31" y="663">250</tspan></tspan></text>
      <text class="cls-2" transform="translate(283.63 23.99)"><tspan x="0" y="0">지표</tspan></text>
      <line class="cls-5" y1="200.23" x2="578.42" y2="200.23"/>
      <line class="cls-5" y1="663.23" x2="578.42" y2="663.23"/>
      <line class="cls-5" y1="39.08" x2="578.42" y2="39.08"/>
      <line class="cls-6" x1="499.53" x2="499.53" y2="705"/>
      <line class="cls-5" x1="95.89" x2="95.89" y2="705"/>
      <text/>
    </g>
    <line class="cls-6" x1="95.19" y1="159.97" x2="577.43" y2="159.97"/>
    <line class="cls-6" x1="96.17" y1="623.04" x2="578.42" y2="623.04"/>
  </g>
</svg>