<svg width="335" height="225" viewBox="0 0 335 225" fill="none" xmlns="http://www.w3.org/2000/svg">
<path d="M160.988 18.7241C160.535 19.3069 159.846 19.8191 158.922 20.2783L158.357 19.3069C159.835 18.5416 160.459 17.7644 160.517 16.7812H158.711V15.7274H163.513V16.7812H161.683C161.671 17.1286 161.618 17.4583 161.506 17.7703L163.831 19.1479L163.248 20.137L160.988 18.7241ZM163.901 20.5315C165.161 20.5315 166.038 21.2733 166.038 22.386C166.038 23.4987 165.161 24.2405 163.901 24.2405H161.906C160.641 24.2405 159.776 23.5046 159.776 22.386C159.776 21.2674 160.641 20.5315 161.906 20.5315H163.901ZM163.731 23.169C164.455 23.169 164.831 22.8511 164.831 22.3801C164.831 21.9091 164.455 21.5971 163.731 21.5971H162.071C161.347 21.5971 160.976 21.915 160.976 22.3801C160.976 22.8452 161.341 23.169 162.071 23.169H163.731ZM163.183 17.1639H164.725V15.3564H165.932V20.1429H164.725V18.1942H163.183V17.1639Z" fill="#3A82FF"/>
<path d="M170.687 17.7527C170.675 18.2708 170.611 18.7712 170.469 19.2716L172.947 22.0917L172.082 22.8923L169.993 20.5079C169.557 21.3675 168.927 22.1859 168.115 22.9866L167.28 22.1741C168.721 20.714 169.475 19.354 169.504 17.7527H167.591V16.6576H169.522V15.3565H170.711V16.6576H172.641V17.7527H170.693H170.687ZM173.653 15.3506H174.86V24.1522H173.653V15.3506Z" fill="#3A82FF"/>
<path d="M166.144 55.5612V57.4569C166.144 59.9002 164.902 60.8304 163.589 60.8304C162.277 60.8304 161.506 60.2358 161.018 59.1878L161.594 58.8758C162.006 59.7353 162.554 60.2122 163.572 60.2122C164.672 60.2122 165.514 59.3468 165.496 57.4216V56.986C165.073 57.6807 164.26 58.0515 163.442 58.0515C162.065 58.0515 160.882 57.0978 160.882 55.5082C160.882 53.9186 162.071 52.9648 163.519 52.9648C164.967 52.9648 166.15 53.9186 166.15 55.5553L166.144 55.5612ZM165.473 55.5259C165.473 54.2719 164.578 53.583 163.513 53.583C162.448 53.583 161.553 54.2719 161.553 55.5259C161.553 56.7799 162.46 57.4569 163.513 57.4569C164.566 57.4569 165.473 56.7681 165.473 55.5259Z" fill="#3A82FF"/>
<path d="M167.48 57.6512V56.144C167.48 54.0775 168.674 52.9707 170.175 52.9707C171.676 52.9707 172.859 54.0834 172.859 56.144V57.6512C172.859 59.7236 171.664 60.8245 170.175 60.8245C168.686 60.8245 167.48 59.7236 167.48 57.6512ZM172.182 57.6041V56.1911C172.182 54.419 171.276 53.583 170.175 53.583C169.075 53.583 168.168 54.419 168.168 56.1911V57.6041C168.168 59.3879 169.075 60.2122 170.175 60.2122C171.276 60.2122 172.182 59.382 172.182 57.6041Z" fill="#3A82FF"/>
<path d="M160.729 97.7977V91.1097L158.834 92.6463L158.44 92.1459L160.812 90.2207H161.412V97.7977H160.723H160.729Z" fill="#3A82FF"/>
<path d="M168.392 95.3836C168.392 96.9791 167.215 97.9387 165.755 97.9387C164.296 97.9387 163.125 96.985 163.125 95.3483V93.4526C163.125 91.0093 164.366 90.0791 165.685 90.0791C166.921 90.0791 167.756 90.6737 168.257 91.7217L167.674 92.022C167.262 91.1742 166.715 90.6914 165.702 90.6914C164.59 90.6914 163.754 91.551 163.772 93.482V93.9177C164.196 93.223 164.996 92.8402 165.826 92.8402C167.209 92.8402 168.386 93.794 168.386 95.3836H168.392ZM167.715 95.3836C167.715 94.1296 166.809 93.4526 165.755 93.4526C164.702 93.4526 163.807 94.1296 163.807 95.3836C163.807 96.6376 164.69 97.3265 165.755 97.3265C166.821 97.3265 167.715 96.6376 167.715 95.3836Z" fill="#3A82FF"/>
<path d="M169.634 94.7654V93.2583C169.634 91.1918 170.828 90.085 172.329 90.085C173.83 90.085 175.013 91.1977 175.013 93.2583V94.7654C175.013 96.8377 173.818 97.9387 172.329 97.9387C170.84 97.9387 169.634 96.8377 169.634 94.7654ZM174.336 94.7183V93.3053C174.336 91.5332 173.43 90.6973 172.329 90.6973C171.229 90.6973 170.322 91.5332 170.322 93.3053V94.7183C170.322 96.5022 171.229 97.3265 172.329 97.3265C173.43 97.3265 174.336 96.4963 174.336 94.7183Z" fill="#3A82FF"/>
<path d="M156.51 126.109L156.969 126.522C155.715 127.923 155.138 129.471 155.138 131.12C155.138 132.768 155.715 134.316 156.969 135.718L156.51 136.136C155.209 134.729 154.485 133.08 154.485 131.12C154.485 129.159 155.209 127.511 156.51 126.104V126.109Z" fill="#3A82FF"/>
<path d="M157.828 134.912V134.382L160.647 131.585C161.577 130.655 162.012 130.002 162.012 129.213C162.012 128.353 161.383 127.817 160.335 127.817C159.287 127.817 158.781 128.571 158.505 129.46L157.857 129.301C158.157 128.218 158.952 127.199 160.335 127.199C161.718 127.199 162.683 127.982 162.683 129.207C162.683 130.243 162.101 131.038 161.147 131.986L158.828 134.293H162.889V134.918H157.828V134.912Z" fill="#3A82FF"/>
<path d="M169.222 132.58C169.222 134.022 168.174 135.046 166.632 135.046C165.567 135.046 164.561 134.575 164.125 133.633L164.708 133.316C165.037 134.081 165.802 134.428 166.609 134.428C167.75 134.428 168.551 133.704 168.551 132.58C168.551 131.455 167.797 130.731 166.673 130.731C165.826 130.731 165.261 131.214 164.99 131.938H164.343L164.843 127.328H168.951V127.952H165.426L165.096 130.872C165.485 130.366 166.097 130.101 166.762 130.101C168.233 130.101 169.222 131.125 169.222 132.58Z" fill="#3A82FF"/>
<path d="M170.564 131.874V130.367C170.564 128.3 171.758 127.193 173.259 127.193C174.76 127.193 175.943 128.306 175.943 130.367V131.874C175.943 133.946 174.748 135.047 173.259 135.047C171.77 135.047 170.564 133.946 170.564 131.874ZM175.266 131.827V130.414C175.266 128.642 174.36 127.806 173.259 127.806C172.158 127.806 171.252 128.642 171.252 130.414V131.827C171.252 133.611 172.158 134.435 173.259 134.435C174.36 134.435 175.266 133.605 175.266 131.827Z" fill="#3A82FF"/>
<path d="M177.32 136.136L176.861 135.718C178.114 134.316 178.691 132.768 178.691 131.12C178.691 129.471 178.114 127.923 176.861 126.522L177.32 126.109C178.62 127.511 179.344 129.165 179.344 131.125C179.344 133.086 178.62 134.734 177.32 136.141V136.136Z" fill="#3A82FF"/>
<path d="M160.853 169.982C160.853 169.152 161.418 168.428 162.342 168.08C161.494 167.739 161.088 167.091 161.088 166.308C161.088 165.096 162.095 164.301 163.554 164.301C165.014 164.301 166.02 165.09 166.02 166.308C166.02 167.091 165.614 167.739 164.767 168.08C165.691 168.428 166.256 169.152 166.256 169.982C166.256 171.266 165.173 172.16 163.554 172.16C161.936 172.16 160.853 171.266 160.853 169.982ZM165.585 169.964C165.585 169.07 164.796 168.398 163.56 168.398C162.324 168.398 161.536 169.07 161.536 169.964C161.536 170.859 162.289 171.536 163.56 171.536C164.831 171.536 165.585 170.889 165.585 169.964ZM165.361 166.367C165.361 165.519 164.69 164.925 163.56 164.925C162.43 164.925 161.771 165.519 161.771 166.367C161.771 167.215 162.43 167.798 163.56 167.798C164.69 167.798 165.361 167.203 165.361 166.367Z" fill="#3A82FF"/>
<path d="M167.597 168.987V167.48C167.597 165.413 168.792 164.307 170.293 164.307C171.794 164.307 172.976 165.419 172.976 167.48V168.987C172.976 171.059 171.782 172.16 170.293 172.16C168.804 172.16 167.597 171.059 167.597 168.987ZM172.3 168.94V167.527C172.3 165.755 171.393 164.919 170.293 164.919C169.192 164.919 168.286 165.755 168.286 167.527V168.94C168.286 170.724 169.192 171.548 170.293 171.548C171.393 171.548 172.3 170.718 172.3 168.94Z" fill="#3A82FF"/>
<path d="M158.216 207.22C158.499 207.985 159.093 208.651 160.288 208.651C161.483 208.651 162.218 208.027 162.218 207.126C162.218 206.225 161.524 205.524 160.147 205.524H159.223V204.924H160.147C161.383 204.924 162.03 204.3 162.03 203.434C162.03 202.569 161.335 202.039 160.276 202.039C159.217 202.039 158.711 202.687 158.428 203.376L157.816 203.152C158.134 202.275 158.911 201.415 160.276 201.415C161.641 201.415 162.707 202.186 162.707 203.405C162.707 204.335 162.154 204.977 161.394 205.212C162.271 205.466 162.883 206.172 162.883 207.143C162.883 208.397 161.836 209.275 160.282 209.275C158.728 209.275 157.916 208.397 157.587 207.426L158.21 207.22H158.216Z" fill="#3A82FF"/>
<path d="M164.702 207.22C164.984 207.985 165.579 208.651 166.773 208.651C167.968 208.651 168.704 208.027 168.704 207.126C168.704 206.225 168.009 205.524 166.632 205.524H165.708V204.924H166.632C167.868 204.924 168.515 204.3 168.515 203.434C168.515 202.569 167.821 202.039 166.762 202.039C165.702 202.039 165.196 202.687 164.914 203.376L164.302 203.152C164.619 202.275 165.396 201.415 166.762 201.415C168.127 201.415 169.192 202.186 169.192 203.405C169.192 204.335 168.639 204.977 167.88 205.212C168.757 205.466 169.369 206.172 169.369 207.143C169.369 208.397 168.321 209.275 166.768 209.275C165.214 209.275 164.402 208.397 164.072 207.426L164.696 207.22H164.702Z" fill="#3A82FF"/>
<path d="M170.711 206.096V204.588C170.711 202.522 171.905 201.415 173.406 201.415C174.907 201.415 176.09 202.528 176.09 204.588V206.096C176.09 208.168 174.895 209.269 173.406 209.269C171.917 209.269 170.711 208.168 170.711 206.096ZM175.413 206.048V204.635C175.413 202.863 174.507 202.027 173.406 202.027C172.306 202.027 171.399 202.863 171.399 204.635V206.048C171.399 207.832 172.306 208.657 173.406 208.657C174.507 208.657 175.413 207.826 175.413 206.048Z" fill="#3A82FF"/>
<path d="M15.7044 94.9424V96.0374H12.1615V99.299H10.955V96.0374H7.41205V94.9424H13.1796C13.3503 93.812 13.4621 92.6169 13.4621 91.9339H8.30661V90.833H14.6627V91.5571C14.6627 92.558 14.5568 93.7708 14.3802 94.9424H15.6985H15.7044Z" fill="white"/>
<path d="M21.0894 97.4793H24.6323V98.5802H16.34V97.4793H19.8829V95.7073H21.0894V97.4793ZM16.7872 94.9183C19.0119 93.9646 19.9241 92.9991 19.9418 92.0277H17.311V90.9443H23.6671V92.0277H21.1306C21.1306 92.375 21.0658 92.7224 20.9305 93.058L24.1791 94.9537L23.5671 95.9722L20.3184 94.047C19.6946 94.7535 18.7058 95.3952 17.2934 95.9722L16.7755 94.9242L16.7872 94.9183Z" fill="white"/>
<path d="M30.0174 94.9418H33.5603V95.9014H25.2679V94.9418H28.8109V94.406H26.3214V90.5615H32.5127V91.5447H27.5279V91.9981H32.5127V92.9518H27.5279V93.4522H32.6893V94.4119H30.0115V94.9477L30.0174 94.9418ZM30.4882 96.39C31.8948 96.39 32.6952 96.9847 32.6952 97.8325C32.6952 98.6803 31.8948 99.2866 30.4882 99.2866H28.3518C26.9511 99.2866 26.1448 98.7038 26.1448 97.8325C26.1448 96.9612 26.9452 96.39 28.3518 96.39H30.4882ZM30.2351 98.3093C31.1179 98.3093 31.4887 98.1386 31.4887 97.8266C31.4887 97.5146 31.1238 97.3379 30.2351 97.3379H28.6049C27.7103 97.3379 27.3396 97.5146 27.3396 97.8266C27.3396 98.1386 27.7044 98.3093 28.6049 98.3093H30.2351Z" fill="white"/>
<path d="M39.3691 91.0505V92.0042H34.1959V91.0505H36.1734V90.2969H37.3857V91.0505H39.3632H39.3691ZM39.0042 93.8764C39.0042 94.8596 38.0331 95.3306 36.7913 95.3306C35.5495 95.3306 34.5667 94.8596 34.5667 93.8764V93.794C34.5667 92.8049 35.5554 92.3339 36.7913 92.3339C38.0272 92.3339 39.0042 92.8049 39.0042 93.794V93.8764ZM40.1342 96.4021V95.6485H41.3289V99.1927H35.5437V95.6485H36.7501V96.4021H40.1342ZM35.7438 93.8647C35.7438 94.1826 36.2028 94.371 36.7913 94.371C37.3799 94.371 37.8389 94.1826 37.8389 93.8647V93.7998C37.8389 93.4819 37.3857 93.2817 36.7913 93.2817C36.1969 93.2817 35.7438 93.4819 35.7438 93.7998V93.8647ZM36.7501 98.1447H40.1342V97.4383H36.7501V98.1447ZM42.6119 92.2927V93.376H41.3289V95.26H40.1342V90.3852H41.3289V92.2868H42.6119V92.2927Z" fill="white"/>
<path d="M0.779311 173.262L0.720459 172.167H2.3036C3.37472 172.167 5.04613 172.061 6.4174 171.902L6.55865 172.974C5.17561 173.174 3.46888 173.256 2.18589 173.256H0.773427L0.779311 173.262ZM1.07946 168.676V168.523C1.07946 166.88 2.16235 166.127 3.52185 166.127C4.88135 166.127 5.94069 166.88 5.94069 168.523V168.676C5.94069 170.295 4.8578 171.06 3.52185 171.06C2.18589 171.06 1.07946 170.295 1.07946 168.676ZM4.73421 168.658V168.529C4.73421 167.634 4.181 167.216 3.52185 167.216C2.8627 167.216 2.29771 167.634 2.29771 168.529V168.658C2.29771 169.553 2.84504 169.965 3.52185 169.965C4.19865 169.965 4.73421 169.553 4.73421 168.658ZM7.0589 174.557V165.756H8.26538V174.557H7.0589Z" fill="white"/>
<path d="M12.3145 168.947C11.8554 169.588 11.1845 170.154 10.2782 170.672L9.63666 169.712C11.2669 168.758 11.8672 167.769 11.8672 166.621V166.021H13.0442V166.621C13.0442 167.092 12.9795 167.528 12.8382 167.94L15.2394 169.535L14.5979 170.489L12.3086 168.953L12.3145 168.947ZM11.1197 172.255V171.172H17.1933V174.652H15.9869V172.255H11.1139H11.1197ZM15.9927 165.762H17.1992V170.689H15.9927V165.762Z" fill="white"/>
<path d="M21.1777 169.182C20.7245 169.777 20.0477 170.295 19.1238 170.766L18.547 169.812C20.036 169.012 20.6598 168.217 20.7069 167.192H18.9001V166.127H23.6966V167.192H21.8781C21.8663 167.557 21.8016 167.899 21.7015 168.228L24.0262 169.653L23.4318 170.631L21.1777 169.182ZM20.0477 172.255V171.172H26.1213V174.652H24.9149V172.255H20.0419H20.0477ZM24.9207 165.762H26.1272V170.689H24.9207V168.694H23.3788V167.663H24.9207V165.762Z" fill="white"/>
<path d="M34.5019 170.3H38.0448V171.26H29.7525V170.3H33.2954V169.764H30.806V165.92H36.9973V166.903H32.0124V167.356H36.9973V168.31H32.0124V168.811H37.1738V169.77H34.496V170.306L34.5019 170.3ZM34.9727 171.748C36.3793 171.748 37.1797 172.343 37.1797 173.191C37.1797 174.039 36.3793 174.645 34.9727 174.645H32.8364C31.4357 174.645 30.6294 174.062 30.6294 173.191C30.6294 172.32 31.4298 171.748 32.8364 171.748H34.9727ZM34.7197 173.668C35.6025 173.668 35.9732 173.497 35.9732 173.185C35.9732 172.873 35.6083 172.696 34.7197 172.696H33.0895C32.1949 172.696 31.8241 172.873 31.8241 173.185C31.8241 173.497 32.189 173.668 33.0895 173.668H34.7197Z" fill="white"/>
<path d="M43.8536 166.409V167.363H38.6805V166.409H40.6579V165.655H41.8703V166.409H43.8477H43.8536ZM43.4887 169.235C43.4887 170.218 42.5177 170.689 41.2759 170.689C40.0341 170.689 39.0513 170.218 39.0513 169.235V169.152C39.0513 168.163 40.04 167.692 41.2759 167.692C42.5118 167.692 43.4887 168.163 43.4887 169.152V169.235ZM44.6187 171.76V171.007H45.8134V174.551H40.0282V171.007H41.2347V171.76H44.6187ZM40.2283 169.223C40.2283 169.541 40.6874 169.729 41.2759 169.729C41.8644 169.729 42.3235 169.541 42.3235 169.223V169.158C42.3235 168.84 41.8703 168.64 41.2759 168.64C40.6815 168.64 40.2283 168.84 40.2283 169.158V169.223ZM41.2347 173.503H44.6187V172.797H41.2347V173.503ZM47.0964 167.651V168.734H45.8134V170.618H44.6187V165.744H45.8134V167.645H47.0964V167.651Z" fill="white"/>
<path d="M20.3655 203.517V204.471H15.1924V203.517H17.1698V202.764H18.3822V203.517H20.3597H20.3655ZM20.0006 206.343C20.0006 207.326 19.0296 207.797 17.7878 207.797C16.546 207.797 15.5632 207.326 15.5632 206.343V206.261C15.5632 205.272 16.5519 204.801 17.7878 204.801C19.0237 204.801 20.0006 205.272 20.0006 206.261V206.343ZM21.1306 208.869V208.115H22.3253V211.659H16.5401V208.115H17.7466V208.869H21.1306ZM16.7402 206.331C16.7402 206.649 17.1993 206.838 17.7878 206.838C18.3763 206.838 18.8354 206.649 18.8354 206.331V206.267C18.8354 205.949 18.3822 205.749 17.7878 205.749C17.1934 205.749 16.7402 205.949 16.7402 206.267V206.331ZM17.7466 210.612H21.1306V209.905H17.7466V210.612ZM23.6083 204.759V205.843H22.3253V207.727H21.1306V202.852H22.3253V204.754H23.6083V204.759Z" fill="white"/>
<path d="M28.8344 204.865V202.999H29.9762V211.453H28.8344V208.674H27.4985V207.62H28.8344V205.925H27.7221C27.4102 207.732 26.5274 209.269 25.1326 210.664L24.238 209.799C25.9801 208.156 26.6687 206.284 26.6687 204.618H24.5088V203.517H27.8516V204.382C27.8516 204.553 27.8516 204.712 27.8398 204.871H28.8285L28.8344 204.865ZM30.7471 202.857H31.9124V211.659H30.7471V202.857Z" fill="white"/>
<path d="M77.6115 53.4063H78.2825V57.9926H77.6115V55.9673H75.5576V57.6334H71.4026V53.8243H72.05V55.0842H74.9043V53.8243H75.5517V55.3491H77.6057V53.4004L77.6115 53.4063ZM72.0558 57.027H74.9102V55.6965H72.0558V57.027ZM77.6115 59.6587V58.5107H78.2825V62.1137H72.6973V58.5107H73.3683V59.6587H77.6174H77.6115ZM73.3624 61.4955H77.6115V60.2533H73.3624V61.4955Z" fill="white"/>
<path d="M80.054 63.2502L80.2541 60.7539H80.9309L80.6131 63.2502H80.0598H80.054Z" fill="white"/>
<path d="M86.6866 55.3373C86.6866 56.0261 86.6219 56.6738 86.4806 57.2861L88.564 60.4063L88.0285 60.7949L86.2511 58.1279C85.9215 59.0817 85.4154 59.9824 84.7268 60.9009L84.2089 60.4829C85.3977 58.9286 86.0569 57.4273 86.0569 55.3373V54.7604H84.515V54.1481H88.2756V54.7604H86.7043V55.3373H86.6866ZM89.2114 56.7208V53.5475H89.8588V61.9429H89.2114V57.3332H87.6753V56.7208H89.2114ZM91.0888 53.4062H91.748V62.1019H91.0888V53.4062Z" fill="white"/>
<path d="M97.6274 60.7839H101.359V61.408H93.2193V60.7839H96.9565V58.5055H94.2728V54.0488H100.229V54.6611H94.9437V57.905H100.311V58.5055H97.6274V60.7839Z" fill="white"/>
<path d="M104.754 56.3912C104.319 57.0976 103.607 57.7099 102.595 58.3045L102.265 57.7688C103.754 56.8562 104.59 55.9378 104.59 54.619V54.4895H102.612V53.8772H107.238V54.4895H105.249V54.619C105.249 55.0547 105.172 55.455 105.031 55.8377L107.585 57.6275L107.238 58.175L104.749 56.3912H104.754ZM103.801 59.5291V58.9168H109.48V62.1843H108.809V59.5291H103.795H103.801ZM108.815 53.4121H109.486V58.3045H108.815V56.0791H106.938V55.4786H108.815V53.4121Z" fill="white"/>
<path d="M117.767 58.1279H121.498V58.7048H113.359V58.1279H117.096V57.3095H114.495V53.624H120.362V54.201H115.16V55.1606H120.362V55.7376H115.16V56.7385H120.539V57.3154H117.761V58.1338L117.767 58.1279ZM118.414 59.4643C119.821 59.4643 120.545 60.0118 120.545 60.8302C120.545 61.6485 119.821 62.1961 118.414 62.1961H116.443C115.042 62.1961 114.312 61.6603 114.312 60.8302C114.312 60 115.036 59.4643 116.443 59.4643H118.414ZM118.255 61.625C119.35 61.625 119.868 61.3306 119.868 60.8361C119.868 60.3415 119.35 60.0472 118.255 60.0472H116.607C115.507 60.0472 114.989 60.3415 114.989 60.8361C114.989 61.3306 115.507 61.625 116.607 61.625H118.255Z" fill="white"/>
<path d="M127.377 54.2723V54.8492H122.34V54.2723H124.523V53.2891H125.194V54.2723H127.377ZM126.971 56.8568C126.971 57.7634 126.047 58.2521 124.87 58.2521C123.693 58.2521 122.757 57.7634 122.757 56.8568V56.7332C122.757 55.8383 123.687 55.3496 124.87 55.3496C126.053 55.3496 126.971 55.8383 126.971 56.7332V56.8568ZM123.428 56.8451C123.428 57.3514 124.058 57.6751 124.87 57.6751C125.682 57.6751 126.312 57.3573 126.312 56.8451V56.7508C126.312 56.2504 125.671 55.9207 124.87 55.9207C124.07 55.9207 123.428 56.2504 123.428 56.7508V56.8451ZM128.478 59.777V58.7408H129.149V62.0965H123.74V58.7408H124.417V59.777H128.478ZM124.417 61.5019H128.478V60.3775H124.417V61.5019ZM130.597 55.538V56.1503H129.149V58.2227H128.478V53.4068H129.149V55.538H130.597Z" fill="white"/>
<path d="M83.1319 95.5777C81.8607 95.7661 80.1834 95.8721 78.9416 95.8721H77.5115L77.4821 95.2599H78.9769C79.1299 95.2599 79.2947 95.2599 79.4772 95.2481V93.005H80.154V95.2304C81.078 95.1833 82.1491 95.1009 83.0554 94.9831L83.1319 95.5777ZM81.6547 91.592H78.0824V90.9974H82.3197V91.4507C82.3197 92.3632 82.1903 93.37 82.0078 94.3355L81.3605 94.2296C81.5488 93.2758 81.6547 92.2691 81.6547 91.6568V91.592ZM79.7302 96.9378V98.598H85.0505V99.2221H79.0593V96.9436H79.7302V96.9378ZM84.5562 93.2817H85.9098V93.9116H84.5562V97.2556H83.8852V90.5205H84.5562V93.2817Z" fill="white"/>
<path d="M91.4655 92.7401V90.6559H92.1129V99.0513H91.4655V96.0724H89.8353V95.4718H91.4655V93.3524H90.0177C89.6705 95.201 88.6523 96.8024 87.2399 98.1094L86.7573 97.6207C88.4228 96.1312 89.4821 94.0942 89.4821 92.063V91.8747H86.9221V91.2624H90.1531V91.9335C90.1531 92.2043 90.1354 92.4811 90.1177 92.746H91.4714L91.4655 92.7401ZM93.3429 90.5146H94.002V99.2103H93.3429V90.5146Z" fill="white"/>
<path d="M98.0747 93.5053C97.6392 94.2118 96.927 94.8241 95.9148 95.4187L95.5852 94.883C97.0742 93.9705 97.9099 93.0521 97.9099 91.7333V91.6037H95.9324V90.9915H100.558V91.6037H98.569V91.7333C98.569 92.169 98.4925 92.5693 98.3513 92.952L100.905 94.7417L100.558 95.2892L98.0688 93.5053H98.0747ZM97.1213 96.6434V96.031H102.801V99.2986H102.13V96.6434H97.1154H97.1213ZM102.136 90.5264H102.806V95.4187H102.136V93.1934H100.258V92.5928H102.136V90.5264Z" fill="white"/>
<path d="M111.087 95.2363H114.818V95.8132H106.679V95.2363H110.416V94.4179H107.815V90.7324H113.682V91.3094H108.48V92.269H113.682V92.846H108.48V93.8469H113.859V94.4238H111.081V95.2422L111.087 95.2363ZM111.734 96.5727C113.141 96.5727 113.865 97.1202 113.865 97.9386C113.865 98.7569 113.141 99.3045 111.734 99.3045H109.763C108.362 99.3045 107.632 98.7687 107.632 97.9386C107.632 97.1084 108.356 96.5727 109.763 96.5727H111.734ZM111.575 98.7333C112.67 98.7333 113.188 98.439 113.188 97.9445C113.188 97.4499 112.67 97.1556 111.575 97.1556H109.928C108.827 97.1556 108.309 97.4499 108.309 97.9445C108.309 98.439 108.827 98.7333 109.928 98.7333H111.575Z" fill="white"/>
<path d="M120.692 91.3865V91.9634H115.654V91.3865H117.837V90.4033H118.508V91.3865H120.692ZM120.286 93.971C120.286 94.8777 119.362 95.3663 118.185 95.3663C117.008 95.3663 116.072 94.8777 116.072 93.971V93.8474C116.072 92.9525 117.002 92.4639 118.185 92.4639C119.368 92.4639 120.286 92.9525 120.286 93.8474V93.971ZM116.743 93.9592C116.743 94.4656 117.372 94.7894 118.185 94.7894C118.997 94.7894 119.626 94.4714 119.626 93.9592V93.8651C119.626 93.3647 118.985 93.035 118.185 93.035C117.384 93.035 116.743 93.3647 116.743 93.8651V93.9592ZM121.792 96.8911V95.855H122.463V99.2108H117.055V95.855H117.731V96.8911H121.792ZM117.731 98.6162H121.792V97.4917H117.731V98.6162ZM123.911 92.6523V93.2646H122.463V95.3369H121.792V90.521H122.463V92.6523H123.911Z" fill="white"/>
<path d="M96.5563 135.005H100.288V135.618H92.1482V135.005H95.8853V132.686H96.5563V135.005ZM96.0266 130.613C95.4734 131.449 94.4611 132.227 92.9486 132.933L92.6367 132.35C94.8672 131.296 95.9265 130.166 95.9265 128.818V128.129H96.5975V128.818C96.5975 129.242 96.5151 129.648 96.3444 130.042L99.799 132.38L99.4224 132.933L96.0325 130.613H96.0266Z" fill="white"/>
<path d="M106.002 129.854V127.77H106.649V136.166H106.002V133.187H104.372V132.586H106.002V130.467H104.554C104.207 132.315 103.189 133.917 101.776 135.224L101.294 134.735C102.959 133.245 104.019 131.208 104.019 129.177V128.989H101.459V128.377H104.69V129.048C104.69 129.319 104.672 129.595 104.654 129.86H106.008L106.002 129.854ZM107.88 127.629H108.539V136.325H107.88V127.629Z" fill="white"/>
<path d="M210.53 17.5407C210.024 18.8419 208.653 19.7014 206.687 20.2725L206.216 19.2009C208.241 18.624 209.336 17.7586 209.506 16.8637H206.475V15.7686H210.754V16.3043C210.754 16.3985 210.754 16.4928 210.742 16.5752H212.314V15.3506H213.52V20.137H212.314V19.2775H210.542V18.3178H212.314V17.5348H210.536L210.53 17.5407ZM211.49 20.5256C212.755 20.5256 213.62 21.2674 213.62 22.3801C213.62 23.4929 212.755 24.2347 211.49 24.2347H209.483C208.229 24.2347 207.364 23.4987 207.364 22.3801C207.364 21.2615 208.229 20.5256 209.483 20.5256H211.49ZM211.313 23.1631C212.049 23.1631 212.414 22.8452 212.414 22.3743C212.414 21.9033 212.049 21.5913 211.313 21.5913H209.665C208.941 21.5913 208.565 21.9091 208.565 22.3743C208.565 22.8394 208.941 23.1631 209.665 23.1631H211.313Z" fill="#FF006E"/>
<path d="M217.451 17.4583C217.451 18.0529 217.393 18.6358 217.293 19.2009L219.146 22.233L218.217 22.8747L216.857 20.7082C216.557 21.4912 216.139 22.2447 215.603 22.9689L214.691 22.2741C215.821 20.7552 216.357 19.2657 216.357 17.4583V17.0992H215.009V15.9983H218.864V17.0992H217.451V17.4583ZM219.517 18.4415V15.4919H220.659V23.9462H219.517V19.5366H218.275V18.4415H219.517ZM221.43 15.3506H222.595V24.1522H221.43V15.3506Z" fill="#FF006E"/>
<path d="M213.72 55.5612V57.4569C213.72 59.9002 212.478 60.8304 211.166 60.8304C209.854 60.8304 209.083 60.2358 208.594 59.1878L209.171 58.8758C209.583 59.7353 210.13 60.2122 211.148 60.2122C212.249 60.2122 213.091 59.3468 213.073 57.4216V56.986C212.649 57.6807 211.837 58.0515 211.019 58.0515C209.642 58.0515 208.459 57.0978 208.459 55.5082C208.459 53.9186 209.648 52.9648 211.095 52.9648C212.543 52.9648 213.726 53.9186 213.726 55.5553L213.72 55.5612ZM213.049 55.5259C213.049 54.2719 212.155 53.583 211.09 53.583C210.024 53.583 209.13 54.2719 209.13 55.5259C209.13 56.7799 210.036 57.4569 211.09 57.4569C212.143 57.4569 213.049 56.7681 213.049 55.5259Z" fill="#FF006E"/>
<path d="M215.056 57.6512V56.144C215.056 54.0775 216.251 52.9707 217.752 52.9707C219.252 52.9707 220.435 54.0834 220.435 56.144V57.6512C220.435 59.7236 219.241 60.8245 217.752 60.8245C216.263 60.8245 215.056 59.7236 215.056 57.6512ZM219.759 57.6041V56.1911C219.759 54.419 218.852 53.583 217.752 53.583C216.651 53.583 215.745 54.419 215.745 56.1911V57.6041C215.745 59.3879 216.651 60.2122 217.752 60.2122C218.852 60.2122 219.759 59.382 219.759 57.6041Z" fill="#FF006E"/>
<path d="M208.306 97.7977V91.1097L206.411 92.6463L206.016 92.1459L208.388 90.2207H208.988V97.7977H208.3H208.306Z" fill="#FF006E"/>
<path d="M215.974 95.3836C215.974 96.9791 214.797 97.9387 213.338 97.9387C211.878 97.9387 210.707 96.985 210.707 95.3483V93.4526C210.707 91.0093 211.949 90.0791 213.267 90.0791C214.503 90.0791 215.339 90.6737 215.839 91.7217L215.256 92.022C214.844 91.1742 214.297 90.6914 213.285 90.6914C212.172 90.6914 211.337 91.551 211.354 93.482V93.9177C211.778 93.223 212.578 92.8402 213.408 92.8402C214.791 92.8402 215.968 93.794 215.968 95.3836H215.974ZM215.297 95.3836C215.297 94.1296 214.391 93.4526 213.338 93.4526C212.284 93.4526 211.39 94.1296 211.39 95.3836C211.39 96.6376 212.272 97.3265 213.338 97.3265C214.403 97.3265 215.297 96.6376 215.297 95.3836Z" fill="#FF006E"/>
<path d="M217.216 94.7654V93.2583C217.216 91.1918 218.411 90.085 219.912 90.085C221.412 90.085 222.595 91.1977 222.595 93.2583V94.7654C222.595 96.8377 221.401 97.9387 219.912 97.9387C218.423 97.9387 217.216 96.8377 217.216 94.7654ZM221.918 94.7183V93.3053C221.918 91.5332 221.012 90.6973 219.912 90.6973C218.811 90.6973 217.905 91.5332 217.905 93.3053V94.7183C217.905 96.5022 218.811 97.3265 219.912 97.3265C221.012 97.3265 221.918 96.4963 221.918 94.7183Z" fill="#FF006E"/>
<path d="M204.086 126.109L204.545 126.522C203.292 127.923 202.715 129.471 202.715 131.12C202.715 132.768 203.292 134.316 204.545 135.718L204.086 136.136C202.785 134.729 202.062 133.08 202.062 131.12C202.062 129.159 202.785 127.511 204.086 126.104V126.109Z" fill="#FF006E"/>
<path d="M205.404 134.912V134.382L208.223 131.585C209.153 130.655 209.589 130.002 209.589 129.213C209.589 128.353 208.959 127.817 207.911 127.817C206.864 127.817 206.358 128.571 206.081 129.46L205.434 129.301C205.734 128.218 206.528 127.199 207.911 127.199C209.295 127.199 210.26 127.982 210.26 129.207C210.26 130.243 209.677 131.038 208.724 131.986L206.405 134.293H210.466V134.918H205.404V134.912Z" fill="#FF006E"/>
<path d="M216.804 132.58C216.804 134.022 215.757 135.046 214.215 135.046C213.149 135.046 212.143 134.575 211.707 133.633L212.29 133.316C212.62 134.081 213.385 134.428 214.191 134.428C215.333 134.428 216.133 133.704 216.133 132.58C216.133 131.455 215.38 130.731 214.256 130.731C213.408 130.731 212.843 131.214 212.573 131.938H211.925L212.425 127.328H216.533V127.952H213.008L212.679 130.872C213.067 130.366 213.679 130.101 214.344 130.101C215.815 130.101 216.804 131.125 216.804 132.58Z" fill="#FF006E"/>
<path d="M218.146 131.874V130.367C218.146 128.3 219.341 127.193 220.841 127.193C222.342 127.193 223.525 128.306 223.525 130.367V131.874C223.525 133.946 222.33 135.047 220.841 135.047C219.352 135.047 218.146 133.946 218.146 131.874ZM222.848 131.827V130.414C222.848 128.642 221.942 127.806 220.841 127.806C219.741 127.806 218.835 128.642 218.835 130.414V131.827C218.835 133.611 219.741 134.435 220.841 134.435C221.942 134.435 222.848 133.605 222.848 131.827Z" fill="#FF006E"/>
<path d="M224.896 136.136L224.437 135.718C225.691 134.316 226.268 132.768 226.268 131.12C226.268 129.471 225.691 127.923 224.437 126.522L224.896 126.109C226.197 127.511 226.921 129.165 226.921 131.125C226.921 133.086 226.197 134.734 224.896 136.141V136.136Z" fill="#FF006E"/>
<path d="M208.435 169.982C208.435 169.152 209 168.428 209.924 168.08C209.077 167.739 208.671 167.091 208.671 166.308C208.671 165.096 209.677 164.301 211.137 164.301C212.596 164.301 213.603 165.09 213.603 166.308C213.603 167.091 213.196 167.739 212.349 168.08C213.273 168.428 213.838 169.152 213.838 169.982C213.838 171.266 212.755 172.16 211.137 172.16C209.518 172.16 208.435 171.266 208.435 169.982ZM213.167 169.964C213.167 169.07 212.378 168.398 211.142 168.398C209.907 168.398 209.118 169.07 209.118 169.964C209.118 170.859 209.871 171.536 211.142 171.536C212.414 171.536 213.167 170.889 213.167 169.964ZM212.943 166.367C212.943 165.519 212.272 164.925 211.142 164.925C210.012 164.925 209.353 165.519 209.353 166.367C209.353 167.215 210.012 167.798 211.142 167.798C212.272 167.798 212.943 167.203 212.943 166.367Z" fill="#FF006E"/>
<path d="M215.174 168.987V167.48C215.174 165.413 216.369 164.307 217.869 164.307C219.37 164.307 220.553 165.419 220.553 167.48V168.987C220.553 171.059 219.358 172.16 217.869 172.16C216.38 172.16 215.174 171.059 215.174 168.987ZM219.876 168.94V167.527C219.876 165.755 218.97 164.919 217.869 164.919C216.769 164.919 215.862 165.755 215.862 167.527V168.94C215.862 170.724 216.769 171.548 217.869 171.548C218.97 171.548 219.876 170.718 219.876 168.94Z" fill="#FF006E"/>
<path d="M205.799 207.22C206.081 207.985 206.676 208.651 207.87 208.651C209.065 208.651 209.801 208.027 209.801 207.126C209.801 206.225 209.106 205.524 207.729 205.524H206.805V204.924H207.729C208.965 204.924 209.612 204.3 209.612 203.434C209.612 202.569 208.918 202.039 207.859 202.039C206.799 202.039 206.293 202.687 206.011 203.376L205.398 203.152C205.716 202.275 206.493 201.415 207.859 201.415C209.224 201.415 210.289 202.186 210.289 203.405C210.289 204.335 209.736 204.977 208.977 205.212C209.854 205.466 210.466 206.172 210.466 207.143C210.466 208.397 209.418 209.275 207.864 209.275C206.311 209.275 205.499 208.397 205.169 207.426L205.793 207.22H205.799Z" fill="#FF006E"/>
<path d="M212.284 207.22C212.567 207.985 213.161 208.651 214.356 208.651C215.551 208.651 216.286 208.027 216.286 207.126C216.286 206.225 215.592 205.524 214.215 205.524H213.291V204.924H214.215C215.45 204.924 216.098 204.3 216.098 203.434C216.098 202.569 215.403 202.039 214.344 202.039C213.285 202.039 212.779 202.687 212.496 203.376L211.884 203.152C212.202 202.275 212.979 201.415 214.344 201.415C215.709 201.415 216.775 202.186 216.775 203.405C216.775 204.335 216.221 204.977 215.462 205.212C216.339 205.466 216.951 206.172 216.951 207.143C216.951 208.397 215.904 209.275 214.35 209.275C212.796 209.275 211.984 208.397 211.654 207.426L212.278 207.22H212.284Z" fill="#FF006E"/>
<path d="M218.293 206.096V204.588C218.293 202.522 219.488 201.415 220.989 201.415C222.489 201.415 223.672 202.528 223.672 204.588V206.096C223.672 208.168 222.478 209.269 220.989 209.269C219.5 209.269 218.293 208.168 218.293 206.096ZM222.995 206.048V204.635C222.995 202.863 222.089 202.027 220.989 202.027C219.888 202.027 218.982 202.863 218.982 204.635V206.048C218.982 207.832 219.888 208.657 220.989 208.657C222.089 208.657 222.995 207.826 222.995 206.048Z" fill="#FF006E"/>
<path d="M249.203 17.0344C249.203 17.7527 249.126 18.4356 248.967 19.095L251.339 22.1387L250.427 22.8805L248.502 20.4314C248.108 21.3145 247.531 22.1682 246.766 22.9688L245.901 22.1976C247.396 20.6021 248.02 19.0243 248.02 17.0344V15.8392H249.197V17.0344H249.203ZM254.546 18.5297V19.6248H253.275V24.1463H252.069V15.3447H253.275V18.5297H254.546Z" fill="#F85606"/>
<path d="M258.601 21.9738C259.343 21.9385 260.137 21.862 260.855 21.7737L260.997 22.8569C259.614 23.0336 257.907 23.1396 256.624 23.1396H255.211L255.153 22.0387H256.736C256.936 22.0387 257.159 22.0387 257.395 22.0269V21.1438C256.441 20.973 255.753 20.4196 255.753 19.4953V19.3658C255.753 18.2531 256.742 17.6702 258.007 17.6702C259.272 17.6702 260.232 18.2531 260.232 19.3658V19.4953C260.232 20.4196 259.543 20.9848 258.601 21.1438V21.9738ZM260.596 16.2513V17.2228H255.376V16.2513H257.383V15.3564H258.595V16.2513H260.591H260.596ZM256.924 19.4835C256.924 19.9721 257.395 20.2489 258.007 20.2489C258.619 20.2489 259.06 19.978 259.06 19.4835V19.3717C259.06 18.883 258.59 18.6063 258.007 18.6063C257.424 18.6063 256.924 18.8771 256.924 19.3717V19.4835ZM261.491 15.3447H262.697V24.1463H261.491V15.3447Z" fill="#F85606"/>
<path d="M263.992 19.7958H272.285V20.8908H268.742V22.2743H267.535V20.8908H263.992V19.7958ZM266.205 21.6031V23.0279H271.461V24.1524H264.999V21.609H266.205V21.6031ZM271.237 15.5156V19.0187H265.046V15.5156H271.237ZM270.025 17.9648V16.5636H266.258V17.9648H270.025Z" fill="#F85606"/>
<path d="M276.163 21.9915C276.869 21.9444 277.622 21.8797 278.311 21.7914L278.435 22.8393C277.105 23.0277 275.427 23.1337 274.185 23.1337H272.85L272.785 22.0563H274.303C274.503 22.0563 274.727 22.0563 274.962 22.0445V21.1379C274.003 20.9848 273.32 20.4196 273.32 19.4894V19.3599C273.32 18.2472 274.28 17.6643 275.527 17.6643C276.775 17.6643 277.711 18.2472 277.711 19.3599V19.4894C277.711 20.396 277.069 20.9495 276.169 21.132V21.9915H276.163ZM278.064 16.2513V17.2228H272.938V16.2513H274.898V15.3564H276.11V16.2513H278.058H278.064ZM274.486 19.4835C274.486 19.9721 274.927 20.2489 275.521 20.2489C276.116 20.2489 276.54 19.978 276.54 19.4835V19.3717C276.54 18.883 276.098 18.6063 275.521 18.6063C274.945 18.6063 274.486 18.8771 274.486 19.3717V19.4835ZM281.324 18.6181V19.719H280.147V24.1463H278.941V15.3447H280.147V18.6122H281.324V18.6181Z" fill="#F85606"/>
<path d="M262.903 55.5612V57.4569C262.903 59.9002 261.662 60.8304 260.349 60.8304C259.037 60.8304 258.266 60.2358 257.777 59.1878L258.354 58.8758C258.766 59.7353 259.313 60.2122 260.332 60.2122C261.432 60.2122 262.274 59.3468 262.256 57.4216V56.986C261.832 57.6807 261.02 58.0515 260.202 58.0515C258.825 58.0515 257.642 57.0978 257.642 55.5082C257.642 53.9186 258.831 52.9648 260.279 52.9648C261.726 52.9648 262.909 53.9186 262.909 55.5553L262.903 55.5612ZM262.232 55.5259C262.232 54.2719 261.338 53.583 260.273 53.583C259.207 53.583 258.313 54.2719 258.313 55.5259C258.313 56.7799 259.219 57.4569 260.273 57.4569C261.326 57.4569 262.232 56.7681 262.232 55.5259Z" fill="#F85606"/>
<path d="M264.239 57.6512V56.144C264.239 54.0775 265.434 52.9707 266.935 52.9707C268.436 52.9707 269.619 54.0834 269.619 56.144V57.6512C269.619 59.7236 268.424 60.8245 266.935 60.8245C265.446 60.8245 264.239 59.7236 264.239 57.6512ZM268.942 57.6041V56.1911C268.942 54.419 268.035 53.583 266.935 53.583C265.834 53.583 264.928 54.419 264.928 56.1911V57.6041C264.928 59.3879 265.834 60.2122 266.935 60.2122C268.035 60.2122 268.942 59.382 268.942 57.6041Z" fill="#F85606"/>
<path d="M257.489 97.7977V91.1097L255.594 92.6463L255.2 92.1459L257.571 90.2207H258.172V97.7977H257.483H257.489Z" fill="#F85606"/>
<path d="M265.157 95.3836C265.157 96.9791 263.98 97.9387 262.521 97.9387C261.061 97.9387 259.89 96.985 259.89 95.3483V93.4526C259.89 91.0093 261.132 90.0791 262.45 90.0791C263.686 90.0791 264.522 90.6737 265.022 91.7217L264.439 92.022C264.027 91.1742 263.48 90.6914 262.468 90.6914C261.356 90.6914 260.52 91.551 260.538 93.482V93.9177C260.961 93.223 261.762 92.8402 262.591 92.8402C263.975 92.8402 265.152 93.794 265.152 95.3836H265.157ZM264.481 95.3836C264.481 94.1296 263.574 93.4526 262.521 93.4526C261.467 93.4526 260.573 94.1296 260.573 95.3836C260.573 96.6376 261.456 97.3265 262.521 97.3265C263.586 97.3265 264.481 96.6376 264.481 95.3836Z" fill="#F85606"/>
<path d="M266.393 94.7654V93.2583C266.393 91.1918 267.588 90.085 269.089 90.085C270.59 90.085 271.773 91.1977 271.773 93.2583V94.7654C271.773 96.8377 270.578 97.9387 269.089 97.9387C267.6 97.9387 266.393 96.8377 266.393 94.7654ZM271.096 94.7183V93.3053C271.096 91.5332 270.189 90.6973 269.089 90.6973C267.988 90.6973 267.082 91.5332 267.082 93.3053V94.7183C267.082 96.5022 267.988 97.3265 269.089 97.3265C270.189 97.3265 271.096 96.4963 271.096 94.7183Z" fill="#F85606"/>
<path d="M253.269 126.109L253.728 126.522C252.475 127.923 251.898 129.471 251.898 131.12C251.898 132.768 252.475 134.316 253.728 135.718L253.269 136.136C251.969 134.729 251.245 133.08 251.245 131.12C251.245 129.159 251.969 127.511 253.269 126.104V126.109Z" fill="#F85606"/>
<path d="M254.588 134.912V134.382L257.407 131.585C258.336 130.655 258.772 130.002 258.772 129.213C258.772 128.353 258.142 127.817 257.095 127.817C256.047 127.817 255.541 128.571 255.264 129.46L254.617 129.301C254.917 128.218 255.712 127.199 257.095 127.199C258.478 127.199 259.443 127.982 259.443 129.207C259.443 130.243 258.86 131.038 257.907 131.986L255.588 134.293H259.649V134.918H254.588V134.912Z" fill="#F85606"/>
<path d="M265.981 132.58C265.981 134.022 264.934 135.046 263.392 135.046C262.327 135.046 261.32 134.575 260.885 133.633L261.467 133.316C261.797 134.081 262.562 134.428 263.368 134.428C264.51 134.428 265.31 133.704 265.31 132.58C265.31 131.455 264.557 130.731 263.433 130.731C262.586 130.731 262.021 131.214 261.75 131.938H261.103L261.603 127.328H265.711V127.952H262.185L261.856 130.872C262.244 130.366 262.856 130.101 263.521 130.101C264.993 130.101 265.981 131.125 265.981 132.58Z" fill="#F85606"/>
<path d="M267.329 131.874V130.367C267.329 128.3 268.524 127.193 270.025 127.193C271.525 127.193 272.708 128.306 272.708 130.367V131.874C272.708 133.946 271.514 135.047 270.025 135.047C268.536 135.047 267.329 133.946 267.329 131.874ZM272.031 131.827V130.414C272.031 128.642 271.125 127.806 270.025 127.806C268.924 127.806 268.018 128.642 268.018 130.414V131.827C268.018 133.611 268.924 134.435 270.025 134.435C271.125 134.435 272.031 133.605 272.031 131.827Z" fill="#F85606"/>
<path d="M274.08 136.136L273.62 135.718C274.874 134.316 275.451 132.768 275.451 131.12C275.451 129.471 274.874 127.923 273.62 126.522L274.08 126.109C275.38 127.511 276.104 129.165 276.104 131.125C276.104 133.086 275.38 134.734 274.08 136.141V136.136Z" fill="#F85606"/>
<path d="M262.903 166.891V168.787C262.903 171.23 261.662 172.16 260.349 172.16C259.037 172.16 258.266 171.566 257.777 170.518L258.354 170.206C258.766 171.065 259.313 171.542 260.332 171.542C261.432 171.542 262.274 170.677 262.256 168.752V168.316C261.832 169.011 261.02 169.382 260.202 169.382C258.825 169.382 257.642 168.428 257.642 166.838C257.642 165.249 258.831 164.295 260.279 164.295C261.726 164.295 262.909 165.249 262.909 166.885L262.903 166.891ZM262.232 166.856C262.232 165.602 261.338 164.913 260.273 164.913C259.207 164.913 258.313 165.602 258.313 166.856C258.313 168.11 259.219 168.787 260.273 168.787C261.326 168.787 262.232 168.098 262.232 166.856Z" fill="#F85606"/>
<path d="M264.239 168.987V167.48C264.239 165.413 265.434 164.307 266.935 164.307C268.436 164.307 269.619 165.419 269.619 167.48V168.987C269.619 171.059 268.424 172.16 266.935 172.16C265.446 172.16 264.239 171.059 264.239 168.987ZM268.942 168.94V167.527C268.942 165.755 268.035 164.919 266.935 164.919C265.834 164.919 264.928 165.755 264.928 167.527V168.94C264.928 170.724 265.834 171.548 266.935 171.548C268.035 171.548 268.942 170.718 268.942 168.94Z" fill="#F85606"/>
<path d="M254.852 207.22C255.135 207.985 255.729 208.651 256.924 208.651C258.119 208.651 258.854 208.027 258.854 207.126C258.854 206.225 258.16 205.524 256.783 205.524H255.859V204.924H256.783C258.019 204.924 258.666 204.3 258.666 203.434C258.666 202.569 257.972 202.039 256.912 202.039C255.853 202.039 255.347 202.687 255.064 203.376L254.452 203.152C254.77 202.275 255.547 201.415 256.912 201.415C258.278 201.415 259.343 202.186 259.343 203.405C259.343 204.335 258.79 204.977 258.03 205.212C258.907 205.466 259.519 206.172 259.519 207.143C259.519 208.397 258.472 209.275 256.918 209.275C255.364 209.275 254.552 208.397 254.223 207.426L254.846 207.22H254.852Z" fill="#F85606"/>
<path d="M266.546 206.926V207.55H265.263V209.275H264.587V207.55H260.667V206.973L264.339 201.557H265.263V206.926H266.546ZM261.485 206.926H264.587V202.31L261.485 206.926Z" fill="#F85606"/>
<path d="M267.6 206.096V204.588C267.6 202.522 268.795 201.415 270.295 201.415C271.796 201.415 272.979 202.528 272.979 204.588V206.096C272.979 208.168 271.784 209.269 270.295 209.269C268.806 209.269 267.6 208.168 267.6 206.096ZM272.302 206.048V204.635C272.302 202.863 271.396 202.027 270.295 202.027C269.195 202.027 268.288 202.863 268.288 204.635V206.048C268.288 207.832 269.195 208.657 270.295 208.657C271.396 208.657 272.302 207.826 272.302 206.048Z" fill="#F85606"/>
<path d="M309.597 16.0104V16.9642H304.424V16.0104H306.402V15.2568H307.614V16.0104H309.591H309.597ZM309.232 18.8363C309.232 19.8195 308.261 20.2905 307.019 20.2905C305.778 20.2905 304.795 19.8195 304.795 18.8363V18.7539C304.795 17.7648 305.784 17.2938 307.019 17.2938C308.255 17.2938 309.232 17.7648 309.232 18.7539V18.8363ZM310.362 21.362V20.6084H311.557V24.1526H305.772V20.6084H306.978V21.362H310.362ZM305.972 18.8245C305.972 19.1425 306.431 19.3309 307.019 19.3309C307.608 19.3309 308.067 19.1425 308.067 18.8245V18.7598C308.067 18.4419 307.614 18.2417 307.019 18.2417C306.425 18.2417 305.972 18.4419 305.972 18.7598V18.8245ZM306.978 23.1047H310.362V22.3982H306.978V23.1047ZM312.84 17.2527V18.3359H311.557V20.2198H310.362V15.3452H311.557V17.2468H312.84V17.2527Z" fill="white"/>
<path d="M318.06 17.3582V15.4919H319.202V23.9462H318.06V21.1673H316.724V20.1135H318.06V18.418H316.948C316.636 20.2254 315.753 21.7619 314.358 23.1572L313.464 22.2918C315.206 20.6492 315.894 18.7771 315.894 17.111H313.735V16.01H317.077V16.8755C317.077 17.0462 317.077 17.2051 317.066 17.3641H318.054L318.06 17.3582ZM319.973 15.3506H321.138V24.1522H319.973V15.3506Z" fill="white"/>
<path d="M304.147 60.689V60.1592L306.967 57.3627C307.896 56.4325 308.332 55.779 308.332 54.9901C308.332 54.1305 307.702 53.5948 306.655 53.5948C305.607 53.5948 305.101 54.3483 304.824 55.2373L304.177 55.0784C304.477 53.9951 305.272 52.9766 306.655 52.9766C308.038 52.9766 309.003 53.7596 309.003 54.9842C309.003 56.0204 308.42 56.8151 307.467 57.763L305.148 60.0709H309.209V60.6949H304.147V60.689Z" fill="white"/>
<path d="M315.43 53.1123V53.7364L311.604 60.8306H310.833L314.664 53.7364H310.303V53.1123H315.43Z" fill="white"/>
<path d="M316.483 57.6512V56.144C316.483 54.0775 317.678 52.9707 319.178 52.9707C320.679 52.9707 321.862 54.0834 321.862 56.144V57.6512C321.862 59.7236 320.667 60.8245 319.178 60.8245C317.689 60.8245 316.483 59.7236 316.483 57.6512ZM321.185 57.6041V56.1911C321.185 54.419 320.279 53.583 319.178 53.583C318.078 53.583 317.171 54.419 317.171 56.1911V57.6041C317.171 59.3879 318.078 60.2122 319.178 60.2122C320.279 60.2122 321.185 59.382 321.185 57.6041Z" fill="white"/>
<path d="M309.291 95.5958V96.2199H308.008V97.9449H307.331V96.2199H303.412V95.6429L307.084 90.2266H308.008V95.5958H309.291ZM304.23 95.5958H307.331V90.9802L304.23 95.5958Z" fill="white"/>
<path d="M310.339 95.7604C310.339 94.9303 310.904 94.2062 311.828 93.8588C310.98 93.5174 310.574 92.8697 310.574 92.0867C310.574 90.8739 311.581 90.0791 313.04 90.0791C314.5 90.0791 315.506 90.868 315.506 92.0867C315.506 92.8697 315.1 93.5174 314.252 93.8588C315.176 94.2062 315.741 94.9303 315.741 95.7604C315.741 97.0439 314.659 97.9387 313.04 97.9387C311.422 97.9387 310.339 97.0439 310.339 95.7604ZM315.07 95.7427C315.07 94.8479 314.282 94.1767 313.046 94.1767C311.81 94.1767 311.021 94.8479 311.021 95.7427C311.021 96.6376 311.775 97.3147 313.046 97.3147C314.317 97.3147 315.07 96.6671 315.07 95.7427ZM314.847 92.1456C314.847 91.2978 314.176 90.7032 313.046 90.7032C311.916 90.7032 311.257 91.2978 311.257 92.1456C311.257 92.9934 311.916 93.5762 313.046 93.5762C314.176 93.5762 314.847 92.9816 314.847 92.1456Z" fill="white"/>
<path d="M317.083 94.7654V93.2583C317.083 91.1918 318.278 90.085 319.779 90.085C321.279 90.085 322.462 91.1977 322.462 93.2583V94.7654C322.462 96.8377 321.268 97.9387 319.779 97.9387C318.29 97.9387 317.083 96.8377 317.083 94.7654ZM321.786 94.7183V93.3053C321.786 91.5332 320.879 90.6973 319.779 90.6973C318.678 90.6973 317.772 91.5332 317.772 93.3053V94.7183C317.772 96.5022 318.678 97.3265 319.779 97.3265C320.879 97.3265 321.786 96.4963 321.786 94.7183Z" fill="white"/>
<path d="M302.823 126.109L303.282 126.522C302.029 127.923 301.452 129.471 301.452 131.12C301.452 132.768 302.029 134.316 303.282 135.718L302.823 136.136C301.523 134.729 300.799 133.08 300.799 131.12C300.799 129.159 301.523 127.511 302.823 126.104V126.109Z" fill="white"/>
<path d="M309.085 127.334V127.958L305.26 135.052H304.489L308.32 127.958H303.959V127.334H309.085Z" fill="white"/>
<path d="M315.141 132.58C315.141 134.022 314.094 135.046 312.552 135.046C311.486 135.046 310.48 134.575 310.044 133.633L310.627 133.316C310.957 134.081 311.722 134.428 312.528 134.428C313.67 134.428 314.47 133.704 314.47 132.58C314.47 131.455 313.717 130.731 312.593 130.731C311.745 130.731 311.18 131.214 310.91 131.938H310.262L310.762 127.328H314.87V127.952H311.345L311.016 130.872C311.404 130.366 312.016 130.101 312.681 130.101C314.152 130.101 315.141 131.125 315.141 132.58Z" fill="white"/>
<path d="M316.489 131.874V130.367C316.489 128.3 317.684 127.193 319.184 127.193C320.685 127.193 321.868 128.306 321.868 130.367V131.874C321.868 133.946 320.673 135.047 319.184 135.047C317.695 135.047 316.489 133.946 316.489 131.874ZM321.191 131.827V130.414C321.191 128.642 320.285 127.806 319.184 127.806C318.084 127.806 317.177 128.642 317.177 130.414V131.827C317.177 133.611 318.084 134.435 319.184 134.435C320.285 134.435 321.191 133.605 321.191 131.827Z" fill="white"/>
<path d="M323.239 136.136L322.78 135.718C324.034 134.316 324.61 132.768 324.61 131.12C324.61 129.471 324.034 127.923 322.78 126.522L323.239 126.109C324.54 127.511 325.264 129.165 325.264 131.125C325.264 133.086 324.54 134.734 323.239 136.141V136.136Z" fill="white"/>
<path d="M303.941 172.019V171.489L306.76 168.693C307.69 167.763 308.126 167.109 308.126 166.32C308.126 165.461 307.496 164.925 306.449 164.925C305.401 164.925 304.895 165.678 304.618 166.567L303.971 166.408C304.271 165.325 305.065 164.307 306.449 164.307C307.832 164.307 308.797 165.09 308.797 166.314C308.797 167.35 308.214 168.145 307.261 169.093L304.942 171.401H309.003V172.025H303.941V172.019Z" fill="white"/>
<path d="M315.341 169.694C315.341 171.136 314.294 172.161 312.752 172.161C311.686 172.161 310.68 171.69 310.245 170.748L310.827 170.43C311.157 171.195 311.922 171.543 312.728 171.543C313.87 171.543 314.67 170.818 314.67 169.694C314.67 168.569 313.917 167.845 312.793 167.845C311.945 167.845 311.38 168.328 311.11 169.052H310.462L310.963 164.442H315.07V165.066H311.545L311.216 167.987C311.604 167.48 312.216 167.215 312.881 167.215C314.352 167.215 315.341 168.24 315.341 169.694Z" fill="white"/>
<path d="M316.683 168.987V167.48C316.683 165.413 317.878 164.307 319.379 164.307C320.879 164.307 322.062 165.419 322.062 167.48V168.987C322.062 171.059 320.868 172.16 319.379 172.16C317.89 172.16 316.683 171.059 316.683 168.987ZM321.385 168.94V167.527C321.385 165.755 320.479 164.919 319.379 164.919C318.278 164.919 317.372 165.755 317.372 167.527V168.94C317.372 170.724 318.278 171.548 319.379 171.548C320.479 171.548 321.385 170.718 321.385 168.94Z" fill="white"/>
<path d="M303.382 209.134V202.446L301.487 203.982L301.093 203.482L303.465 201.557H304.065V209.134H303.376H303.382Z" fill="white"/>
<path d="M305.784 206.096V204.588C305.784 202.522 306.978 201.415 308.479 201.415C309.98 201.415 311.163 202.528 311.163 204.588V206.096C311.163 208.168 309.968 209.269 308.479 209.269C306.99 209.269 305.784 208.168 305.784 206.096ZM310.486 206.048V204.635C310.486 202.863 309.58 202.027 308.479 202.027C307.378 202.027 306.472 202.863 306.472 204.635V206.048C306.472 207.832 307.378 208.657 308.479 208.657C309.58 208.657 310.486 207.826 310.486 206.048Z" fill="white"/>
<path d="M312.499 206.096V204.588C312.499 202.522 313.693 201.415 315.194 201.415C316.695 201.415 317.878 202.528 317.878 204.588V206.096C317.878 208.168 316.683 209.269 315.194 209.269C313.705 209.269 312.499 208.168 312.499 206.096ZM317.201 206.048V204.635C317.201 202.863 316.295 202.027 315.194 202.027C314.094 202.027 313.187 202.863 313.187 204.635V206.048C313.187 207.832 314.094 208.657 315.194 208.657C316.295 208.657 317.201 207.826 317.201 206.048Z" fill="white"/>
<path d="M319.214 206.096V204.588C319.214 202.522 320.408 201.415 321.909 201.415C323.41 201.415 324.593 202.528 324.593 204.588V206.096C324.593 208.168 323.398 209.269 321.909 209.269C320.42 209.269 319.214 208.168 319.214 206.096ZM323.916 206.048V204.635C323.916 202.863 323.01 202.027 321.909 202.027C320.809 202.027 319.902 202.863 319.902 204.635V206.048C319.902 207.832 320.809 208.657 321.909 208.657C323.01 208.657 323.916 207.826 323.916 206.048Z" fill="white"/>
<path d="M334.916 186.173H0.0554199V186.762H334.916V186.173Z" fill="white"/>
<path d="M334.916 149.059H0.0554199V149.647H334.916V149.059Z" fill="white"/>
<g opacity="0.4">
<path d="M334.916 112.057H56.6776V112.351H334.916V112.057Z" fill="white"/>
</g>
<g opacity="0.4">
<path d="M334.916 74.9424H57.1073V75.2368H334.916V74.9424Z" fill="white"/>
</g>
<path d="M334.916 37.7285H0.0554199V38.3173H334.916V37.7285Z" fill="white"/>
<g opacity="0.4">
<path d="M287.71 1.35645H287.416V224.023H287.71V1.35645Z" fill="white"/>
</g>
<g opacity="0.4">
<path d="M238.897 1.35645H238.603V224.023H238.897V1.35645Z" fill="white"/>
</g>
<g opacity="0.4">
<path d="M190.085 2.33398H189.791V225H190.085V2.33398Z" fill="white"/>
</g>
<g opacity="0.4">
<path d="M143.032 0.90918H142.738V148.865H143.032V0.90918Z" fill="white"/>
</g>
<path d="M56.7777 0.90918H56.1891V223.087H56.7777V0.90918Z" fill="white"/>
</svg>
