<?xml version="1.0" encoding="UTF-8"?>
<svg id="Layer_2" data-name="Layer 2" xmlns="http://www.w3.org/2000/svg" viewBox="0 0 780.5 228">
  <defs>
    <style>
      .cls-1 {
        fill: #f85606;
      }

      .cls-2 {
        fill: #fff;
      }

      .cls-3 {
        fill: #ff006e;
      }

      .cls-4 {
        fill: #3a82ff;
      }

      .cls-5 {
        opacity: .4;
      }
    </style>
  </defs>
  <g id="Layer_1-2" data-name="Layer 1">
    <g>
      <path class="cls-4" d="M317.87,17.26c-.58,.74-1.45,1.39-2.63,1.98l-.72-1.24c1.88-.97,2.67-1.97,2.75-3.21h-2.3v-1.34h6.12v1.34h-2.33c-.01,.44-.08,.86-.23,1.26l2.96,1.75-.74,1.26-2.88-1.8Zm3.71,2.3c1.61,0,2.72,.95,2.72,2.36s-1.12,2.36-2.72,2.36h-2.54c-1.61,0-2.71-.93-2.71-2.36s1.1-2.36,2.71-2.36h2.54Zm-.22,3.36c.92,0,1.4-.41,1.4-1.01s-.48-1-1.4-1h-2.11c-.92,0-1.39,.41-1.39,1s.47,1.01,1.39,1.01h2.11Zm-.7-7.64h1.97v-2.3h1.54v6.09h-1.54v-2.48h-1.97v-1.31Z"/>
      <path class="cls-4" d="M330.23,16.02c-.01,.66-.1,1.29-.28,1.93l3.15,3.59-1.1,1.02-2.66-3.03c-.55,1.09-1.36,2.13-2.39,3.15l-1.07-1.03c1.83-1.86,2.79-3.59,2.83-5.62h-2.43v-1.39h2.46v-1.66h1.51v1.66h2.46v1.39h-2.48Zm3.78-3.06h1.54v11.2h-1.54V12.96Z"/>
      <path class="cls-4" d="M324.44,54.91v2.41c0,3.11-1.58,4.29-3.25,4.29s-2.65-.76-3.27-2.09l.73-.39c.53,1.09,1.22,1.7,2.52,1.7,1.4,0,2.47-1.1,2.45-3.55v-.55c-.54,.89-1.57,1.36-2.61,1.36-1.75,0-3.26-1.21-3.26-3.24s1.51-3.24,3.36-3.24,3.35,1.21,3.35,3.3Zm-.85-.05c0-1.59-1.14-2.47-2.49-2.47s-2.5,.88-2.5,2.47,1.15,2.46,2.5,2.46,2.49-.88,2.49-2.46Z"/>
      <path class="cls-4" d="M326.14,57.57v-1.92c0-2.63,1.52-4.04,3.43-4.04s3.42,1.42,3.42,4.04v1.92c0,2.64-1.52,4.04-3.42,4.04s-3.43-1.4-3.43-4.04Zm5.98-.06v-1.8c0-2.25-1.15-3.32-2.55-3.32s-2.55,1.07-2.55,3.32v1.8c0,2.27,1.15,3.32,2.55,3.32s2.55-1.06,2.55-3.32Z"/>
      <path class="cls-4" d="M317.54,99.44v-8.52l-2.41,1.96-.5-.64,3.02-2.45h.77v9.64h-.88Z"/>
      <path class="cls-4" d="M327.3,96.37c0,2.03-1.5,3.25-3.36,3.25s-3.35-1.21-3.35-3.3v-2.41c0-3.11,1.58-4.29,3.26-4.29,1.57,0,2.64,.75,3.27,2.09l-.74,.38c-.53-1.08-1.22-1.69-2.51-1.69-1.42,0-2.48,1.09-2.46,3.55v.55c.54-.89,1.56-1.37,2.62-1.37,1.76,0,3.26,1.21,3.26,3.24Zm-.86,0c0-1.6-1.15-2.46-2.5-2.46s-2.48,.86-2.48,2.46,1.13,2.47,2.48,2.47,2.5-.88,2.5-2.47Z"/>
      <path class="cls-4" d="M328.89,95.57v-1.92c0-2.63,1.52-4.04,3.43-4.04s3.42,1.42,3.42,4.04v1.92c0,2.64-1.52,4.04-3.42,4.04s-3.43-1.4-3.43-4.04Zm5.98-.06v-1.8c0-2.25-1.15-3.32-2.55-3.32s-2.55,1.07-2.55,3.32v1.8c0,2.27,1.15,3.32,2.55,3.32s2.55-1.06,2.55-3.32Z"/>
      <path class="cls-4" d="M312.16,126.23l.59,.53c-1.6,1.79-2.33,3.75-2.33,5.85s.73,4.07,2.33,5.85l-.59,.53c-1.66-1.79-2.58-3.89-2.58-6.38s.92-4.59,2.58-6.38Z"/>
      <path class="cls-4" d="M313.84,137.44v-.67l3.59-3.56c1.19-1.19,1.74-2.01,1.74-3.02,0-1.09-.8-1.77-2.13-1.77s-1.98,.96-2.33,2.09l-.83-.2c.38-1.38,1.39-2.67,3.15-2.67s2.99,1,2.99,2.55c0,1.32-.74,2.33-1.96,3.54l-2.95,2.94h5.17v.79h-6.44Z"/>
      <path class="cls-4" d="M328.36,134.47c0,1.83-1.33,3.14-3.3,3.14-1.36,0-2.64-.6-3.19-1.8l.74-.41c.42,.97,1.39,1.42,2.42,1.42,1.45,0,2.47-.92,2.47-2.35s-.96-2.35-2.39-2.35c-1.08,0-1.8,.61-2.15,1.54h-.83l.64-5.86h5.23v.79h-4.49l-.42,3.72c.49-.65,1.27-.98,2.12-.98,1.87,0,3.13,1.31,3.13,3.15Z"/>
      <path class="cls-4" d="M330.08,133.57v-1.92c0-2.63,1.52-4.04,3.43-4.04s3.42,1.42,3.42,4.04v1.92c0,2.64-1.52,4.04-3.42,4.04s-3.43-1.4-3.43-4.04Zm5.98-.06v-1.8c0-2.25-1.15-3.32-2.55-3.32s-2.55,1.07-2.55,3.32v1.8c0,2.27,1.15,3.32,2.55,3.32s2.55-1.06,2.55-3.32Z"/>
      <path class="cls-4" d="M338.68,138.99l-.59-.53c1.6-1.79,2.33-3.75,2.33-5.85s-.73-4.07-2.33-5.85l.59-.53c1.66,1.79,2.58,3.89,2.58,6.38s-.92,4.59-2.58,6.38Z"/>
      <path class="cls-4" d="M317.7,172.84c0-1.05,.72-1.98,1.89-2.42-1.08-.43-1.59-1.26-1.59-2.25,0-1.55,1.28-2.55,3.14-2.55s3.14,1.01,3.14,2.55c0,1-.52,1.82-1.59,2.25,1.18,.44,1.89,1.37,1.89,2.42,0,1.63-1.38,2.77-3.44,2.77s-3.44-1.14-3.44-2.77Zm6.02-.02c0-1.14-1.01-1.99-2.58-1.99s-2.58,.85-2.58,1.99,.96,2,2.58,2,2.58-.83,2.58-2Zm-.29-4.58c0-1.08-.85-1.83-2.29-1.83s-2.28,.75-2.28,1.83,.84,1.82,2.28,1.82,2.29-.76,2.29-1.82Z"/>
      <path class="cls-4" d="M326.29,171.57v-1.92c0-2.63,1.52-4.04,3.43-4.04s3.42,1.42,3.42,4.04v1.92c0,2.64-1.52,4.04-3.42,4.04s-3.43-1.4-3.43-4.04Zm5.98-.06v-1.8c0-2.25-1.15-3.32-2.55-3.32s-2.55,1.07-2.55,3.32v1.8c0,2.27,1.15,3.32,2.55,3.32s2.55-1.06,2.55-3.32Z"/>
      <path class="cls-4" d="M314.34,211c.36,.97,1.12,1.82,2.64,1.82s2.46-.79,2.46-1.94-.89-2.04-2.64-2.04h-1.18v-.77h1.18c1.57,0,2.4-.79,2.4-1.9s-.89-1.77-2.23-1.77-1.99,.83-2.35,1.7l-.78-.29c.41-1.12,1.39-2.21,3.13-2.21s3.09,.98,3.09,2.53c0,1.19-.71,2-1.67,2.3,1.12,.32,1.9,1.22,1.9,2.46,0,1.6-1.33,2.71-3.31,2.71s-3.01-1.12-3.43-2.35l.79-.26Z"/>
      <path class="cls-4" d="M322.61,211c.36,.97,1.12,1.82,2.64,1.82s2.46-.79,2.46-1.94-.89-2.04-2.64-2.04h-1.18v-.77h1.18c1.57,0,2.4-.79,2.4-1.9s-.89-1.77-2.23-1.77-1.99,.83-2.35,1.7l-.78-.29c.41-1.12,1.39-2.21,3.13-2.21s3.09,.98,3.09,2.53c0,1.19-.71,2-1.67,2.3,1.12,.32,1.9,1.22,1.9,2.46,0,1.6-1.33,2.71-3.31,2.71s-3.01-1.12-3.43-2.35l.79-.26Z"/>
      <path class="cls-4" d="M330.27,209.57v-1.92c0-2.63,1.52-4.04,3.43-4.04s3.42,1.42,3.42,4.04v1.92c0,2.64-1.52,4.04-3.42,4.04s-3.43-1.4-3.43-4.04Zm5.98-.06v-1.8c0-2.25-1.15-3.32-2.55-3.32s-2.55,1.07-2.55,3.32v1.8c0,2.27,1.15,3.32,2.55,3.32s2.55-1.06,2.55-3.32Z"/>
    </g>
    <g>
      <path class="cls-2" d="M51.99,95.6v1.39h-4.51v4.15h-1.54v-4.15h-4.51v-1.39h7.34c.22-1.44,.36-2.96,.36-3.83h-6.56v-1.4h8.1v.92c0,1.27-.13,2.82-.36,4.31h1.68Z"/>
      <path class="cls-2" d="M58.86,98.83h4.51v1.4h-10.55v-1.4h4.51v-2.25h1.54v2.25Zm-5.48-3.26c2.83-1.21,3.99-2.45,4.02-3.68h-3.35v-1.38h8.09v1.38h-3.23c0,.44-.08,.89-.25,1.31l4.14,2.41-.78,1.29-4.14-2.45c-.79,.9-2.05,1.72-3.85,2.45l-.66-1.33Z"/>
      <path class="cls-2" d="M70.23,95.6h4.51v1.22h-10.55v-1.22h4.51v-.68h-3.17v-4.89h7.88v1.25h-6.34v.58h6.34v1.21h-6.34v.64h6.57v1.22h-3.41v.68Zm.6,1.85c1.79,0,2.81,.75,2.81,1.83s-1.02,1.85-2.81,1.85h-2.72c-1.79,0-2.81-.74-2.81-1.85s1.02-1.83,2.81-1.83h2.72Zm-.32,2.45c1.13,0,1.59-.22,1.59-.61s-.47-.62-1.59-.62h-2.08c-1.14,0-1.61,.23-1.61,.62s.47,.61,1.61,.61h2.08Z"/>
      <path class="cls-2" d="M82.15,90.65v1.21h-6.58v-1.21h2.52v-.96h1.55v.96h2.52Zm-.47,3.6c0,1.25-1.24,1.85-2.82,1.85s-2.83-.6-2.83-1.85v-.11c0-1.26,1.26-1.86,2.83-1.86s2.82,.6,2.82,1.86v.11Zm1.44,3.21v-.96h1.52v4.51h-7.36v-4.51h1.54v.96h4.31Zm-5.59-3.23c0,.41,.59,.65,1.33,.65s1.33-.24,1.33-.65v-.08c0-.41-.58-.66-1.33-.66s-1.33,.25-1.33,.66v.08Zm1.28,5.44h4.31v-.9h-4.31v.9Zm7.46-7.45v1.38h-1.63v2.4h-1.52v-6.2h1.52v2.42h1.63Z"/>
    </g>
    <g>
      <path class="cls-2" d="M33.27,176.52l-.07-1.39h2.01c1.37,0,3.49-.13,5.24-.34l.18,1.37c-1.76,.25-3.93,.36-5.56,.36h-1.8Zm.38-5.84v-.19c0-2.09,1.38-3.05,3.11-3.05s3.08,.96,3.08,3.05v.19c0,2.06-1.38,3.03-3.08,3.03s-3.11-.97-3.11-3.03Zm4.65-.02v-.17c0-1.14-.71-1.67-1.55-1.67s-1.56,.53-1.56,1.67v.17c0,1.14,.7,1.67,1.56,1.67s1.55-.53,1.55-1.67Zm2.96,7.51v-11.2h1.54v11.2h-1.54Z"/>
      <path class="cls-2" d="M47.96,171.03c-.59,.82-1.44,1.54-2.59,2.2l-.82-1.22c2.07-1.21,2.84-2.47,2.84-3.93v-.77h1.5v.77c0,.6-.08,1.15-.26,1.68l3.06,2.03-.82,1.21-2.91-1.96Zm-1.52,4.21v-1.38h7.74v4.43h-1.54v-3.05h-6.2Zm6.2-8.26h1.54v6.27h-1.54v-6.27Z"/>
      <path class="cls-2" d="M59.26,171.33c-.58,.76-1.44,1.42-2.62,2.01l-.73-1.21c1.9-1.02,2.69-2.03,2.75-3.33h-2.3v-1.36h6.1v1.36h-2.31c-.01,.47-.1,.9-.23,1.32l2.96,1.81-.76,1.25-2.87-1.85Zm-1.44,3.91v-1.38h7.74v4.43h-1.54v-3.05h-6.2Zm6.2-8.26h1.54v6.27h-1.54v-2.54h-1.97v-1.31h1.97v-2.42Z"/>
      <path class="cls-2" d="M76.23,172.76h4.51v1.22h-10.55v-1.22h4.51v-.68h-3.17v-4.89h7.88v1.25h-6.34v.58h6.34v1.21h-6.34v.64h6.57v1.22h-3.41v.68Zm.6,1.85c1.79,0,2.81,.76,2.81,1.83s-1.02,1.85-2.81,1.85h-2.72c-1.79,0-2.81-.74-2.81-1.85s1.02-1.83,2.81-1.83h2.72Zm-.32,2.45c1.13,0,1.59-.22,1.59-.61s-.47-.62-1.59-.62h-2.08c-1.14,0-1.61,.23-1.61,.62s.47,.61,1.61,.61h2.08Z"/>
      <path class="cls-2" d="M88.15,167.8v1.21h-6.58v-1.21h2.52v-.96h1.55v.96h2.52Zm-.47,3.6c0,1.25-1.24,1.85-2.82,1.85s-2.83-.6-2.83-1.85v-.11c0-1.26,1.26-1.86,2.83-1.86s2.82,.6,2.82,1.86v.11Zm1.44,3.21v-.96h1.52v4.51h-7.36v-4.51h1.54v.96h4.31Zm-5.59-3.23c0,.41,.59,.65,1.33,.65s1.33-.24,1.33-.65v-.08c0-.41-.58-.66-1.33-.66s-1.33,.25-1.33,.66v.08Zm1.28,5.45h4.31v-.9h-4.31v.9Zm7.46-7.45v1.38h-1.63v2.4h-1.52v-6.2h1.52v2.42h1.63Z"/>
      <path class="cls-2" d="M58.22,205.8v1.21h-6.58v-1.21h2.52v-.96h1.55v.96h2.52Zm-.47,3.6c0,1.25-1.24,1.85-2.82,1.85s-2.83-.6-2.83-1.85v-.11c0-1.26,1.26-1.86,2.83-1.86s2.82,.6,2.82,1.86v.11Zm1.44,3.21v-.96h1.52v4.51h-7.36v-4.51h1.54v.96h4.31Zm-5.59-3.23c0,.41,.59,.65,1.33,.65s1.33-.24,1.33-.65v-.08c0-.41-.58-.66-1.33-.66s-1.33,.25-1.33,.66v.08Zm1.28,5.45h4.31v-.9h-4.31v.9Zm7.46-7.45v1.38h-1.63v2.4h-1.52v-6.2h1.52v2.42h1.63Z"/>
      <path class="cls-2" d="M69.01,207.52v-2.37h1.45v10.76h-1.45v-3.54h-1.7v-1.34h1.7v-2.16h-1.42c-.4,2.3-1.52,4.26-3.3,6.03l-1.14-1.1c2.22-2.09,3.09-4.47,3.09-6.6h-2.75v-1.4h4.26v1.1c0,.22,0,.42-.01,.62h1.26Zm2.43-2.55h1.49v11.2h-1.49v-11.2Z"/>
    </g>
    <g>
      <path class="cls-2" d="M166.44,51.98h.85v5.84h-.85v-2.58h-2.61v2.12h-5.29v-4.85h.83v1.61h3.63v-1.61h.83v1.94h2.61v-2.48Zm-7.08,4.61h3.63v-1.69h-3.63v1.69Zm7.08,3.35v-1.46h.85v4.58h-7.11v-4.58h.85v1.46h5.41Zm-5.41,2.34h5.41v-1.58h-5.41v1.58Z"/>
      <path class="cls-2" d="M169.57,64.52l.25-3.18h.86l-.41,3.18h-.71Z"/>
      <path class="cls-2" d="M178.02,54.44c0,.88-.08,1.7-.26,2.48l2.65,3.97-.68,.49-2.27-3.39c-.42,1.21-1.07,2.36-1.94,3.53l-.66-.53c1.51-1.98,2.35-3.89,2.35-6.55v-.73h-1.97v-.78h4.79v.78h-2v.73Zm3.21,1.76v-4.04h.83v10.69h-.83v-5.86h-1.96v-.78h1.96Zm2.39-4.22h.84v11.07h-.84v-11.07Z"/>
      <path class="cls-2" d="M191.96,61.37h4.75v.79h-10.36v-.79h4.76v-2.9h-3.42v-5.67h7.58v.78h-6.73v4.12h6.84v.77h-3.42v2.9Z"/>
      <path class="cls-2" d="M201.04,55.79c-.55,.9-1.46,1.68-2.75,2.43l-.42-.68c1.9-1.16,2.96-2.33,2.96-4.01v-.17h-2.52v-.78h5.89v.78h-2.53v.17c0,.55-.1,1.07-.28,1.55l3.25,2.28-.44,.7-3.17-2.27Zm-1.21,3.99v-.78h7.23v4.16h-.85v-3.38h-6.38Zm6.38-7.78h.85v6.22h-.85v-2.83h-2.39v-.77h2.39v-2.63Z"/>
      <path class="cls-2" d="M217.63,57.99h4.75v.73h-10.36v-.73h4.76v-1.04h-3.31v-4.69h7.47v.73h-6.62v1.22h6.62v.73h-6.62v1.27h6.85v.73h-3.54v1.04Zm.83,1.7c1.79,0,2.71,.7,2.71,1.74s-.92,1.74-2.71,1.74h-2.51c-1.79,0-2.71-.68-2.71-1.74s.92-1.74,2.71-1.74h2.51Zm-.2,2.75c1.39,0,2.05-.37,2.05-1.01s-.66-1.01-2.05-1.01h-2.1c-1.4,0-2.06,.37-2.06,1.01s.66,1.01,2.06,1.01h2.1Z"/>
      <path class="cls-2" d="M229.87,53.09v.73h-6.42v-.73h2.78v-1.25h.85v1.25h2.78Zm-.52,3.29c0,1.15-1.18,1.77-2.67,1.77s-2.69-.62-2.69-1.77v-.16c0-1.14,1.19-1.76,2.69-1.76s2.67,.62,2.67,1.76v.16Zm-4.51-.01c0,.65,.8,1.06,1.83,1.06s1.83-.41,1.83-1.06v-.12c0-.64-.82-1.06-1.83-1.06s-1.83,.42-1.83,1.06v.12Zm6.43,3.73v-1.32h.85v4.27h-6.88v-4.27h.86v1.32h5.17Zm-5.17,2.2h5.17v-1.43h-5.17v1.43Zm7.87-7.59v.78h-1.85v2.64h-.85v-6.13h.85v2.71h1.85Z"/>
      <path class="cls-2" d="M173.48,96.42c-1.62,.24-3.75,.37-5.34,.37h-1.82l-.04-.78h1.91c.19,0,.41,0,.63-.01v-2.86h.86v2.83c1.17-.06,2.54-.17,3.69-.31l.1,.75Zm-1.88-5.07h-4.54v-.76h5.4v.58c0,1.16-.17,2.45-.4,3.67l-.83-.13c.24-1.21,.37-2.5,.37-3.27v-.08Zm-2.45,6.8v2.11h6.78v.79h-7.63v-2.9h.85Zm6.14-4.65h1.73v.8h-1.73v4.26h-.85v-8.58h.85v3.51Z"/>
      <path class="cls-2" d="M184.1,92.81v-2.65h.83v10.69h-.83v-3.79h-2.08v-.77h2.08v-2.7h-1.85c-.44,2.35-1.74,4.39-3.54,6.06l-.61-.62c2.12-1.89,3.47-4.49,3.47-7.08v-.24h-3.26v-.78h4.11v.85c0,.35-.02,.7-.05,1.03h1.73Zm2.39-2.83h.84v11.07h-.84v-11.07Z"/>
      <path class="cls-2" d="M192.53,93.79c-.55,.9-1.46,1.68-2.75,2.43l-.42-.68c1.9-1.16,2.96-2.33,2.96-4.01v-.17h-2.52v-.78h5.89v.78h-2.53v.17c0,.55-.1,1.07-.28,1.55l3.25,2.28-.44,.7-3.17-2.27Zm-1.21,3.99v-.78h7.23v4.16h-.85v-3.38h-6.38Zm6.38-7.78h.85v6.22h-.85v-2.83h-2.39v-.77h2.39v-2.63Z"/>
      <path class="cls-2" d="M209.11,95.99h4.75v.73h-10.36v-.73h4.76v-1.04h-3.31v-4.69h7.47v.73h-6.62v1.22h6.62v.73h-6.62v1.27h6.85v.73h-3.54v1.04Zm.83,1.7c1.79,0,2.71,.7,2.71,1.74s-.92,1.74-2.71,1.74h-2.51c-1.79,0-2.71-.68-2.71-1.74s.92-1.74,2.71-1.74h2.51Zm-.2,2.75c1.39,0,2.05-.37,2.05-1.01s-.66-1.01-2.05-1.01h-2.1c-1.4,0-2.06,.37-2.06,1.01s.66,1.01,2.06,1.01h2.1Z"/>
      <path class="cls-2" d="M221.35,91.09v.73h-6.42v-.73h2.78v-1.25h.85v1.25h2.78Zm-.52,3.29c0,1.15-1.18,1.77-2.67,1.77s-2.69-.62-2.69-1.77v-.16c0-1.14,1.19-1.76,2.69-1.76s2.67,.62,2.67,1.76v.16Zm-4.51-.01c0,.65,.8,1.06,1.83,1.06s1.83-.41,1.83-1.06v-.12c0-.64-.82-1.06-1.83-1.06s-1.83,.42-1.83,1.06v.12Zm6.43,3.73v-1.32h.85v4.27h-6.88v-4.27h.86v1.32h5.17Zm-5.17,2.2h5.17v-1.43h-5.17v1.43Zm7.87-7.59v.78h-1.85v2.64h-.85v-6.13h.85v2.71h1.85Z"/>
      <path class="cls-2" d="M190.59,137.37h4.75v.78h-10.36v-.78h4.76v-2.95h.85v2.95Zm-.67-5.59c-.71,1.07-1.99,2.05-3.92,2.95l-.4-.74c2.84-1.34,4.19-2.78,4.19-4.5v-.88h.85v.88c0,.54-.11,1.05-.32,1.56l4.4,2.97-.48,.71-4.32-2.95Z"/>
      <path class="cls-2" d="M202.63,130.81v-2.65h.83v10.69h-.83v-3.79h-2.08v-.77h2.08v-2.7h-1.85c-.44,2.35-1.74,4.39-3.54,6.06l-.61-.62c2.12-1.89,3.47-4.49,3.47-7.08v-.24h-3.26v-.78h4.11v.85c0,.35-.02,.7-.05,1.03h1.73Zm2.39-2.83h.84v11.07h-.84v-11.07Z"/>
    </g>
    <g>
      <path class="cls-3" d="M450.52,15.76c-.65,1.65-2.39,2.75-4.89,3.48l-.6-1.37c2.58-.73,3.97-1.83,4.19-2.97h-3.86v-1.39h5.45v.68c0,.12,0,.24-.01,.35h2v-1.56h1.54v6.09h-1.54v-1.09h-2.25v-1.22h2.25v-.99h-2.27Zm1.22,3.8c1.61,0,2.71,.95,2.71,2.36s-1.1,2.36-2.71,2.36h-2.55c-1.59,0-2.7-.93-2.7-2.36s1.1-2.36,2.7-2.36h2.55Zm-.23,3.36c.93,0,1.4-.41,1.4-1.01s-.47-1-1.4-1h-2.1c-.92,0-1.4,.41-1.4,1s.48,1.01,1.4,1.01h2.1Z"/>
      <path class="cls-3" d="M459.34,15.65c0,.75-.07,1.5-.2,2.22l2.36,3.86-1.19,.81-1.73-2.76c-.38,1-.91,1.96-1.6,2.88l-1.16-.89c1.44-1.93,2.12-3.83,2.12-6.13v-.46h-1.72v-1.4h4.91v1.4h-1.8v.46Zm2.63,1.25v-3.75h1.45v10.76h-1.45v-5.61h-1.58v-1.39h1.58Zm2.43-3.93h1.49v11.2h-1.49V12.96Z"/>
      <path class="cls-3" d="M454.58,54.91v2.41c0,3.11-1.58,4.29-3.25,4.29s-2.65-.76-3.27-2.09l.73-.39c.53,1.09,1.22,1.7,2.52,1.7,1.4,0,2.47-1.1,2.45-3.55v-.55c-.54,.89-1.57,1.36-2.61,1.36-1.75,0-3.26-1.21-3.26-3.24s1.51-3.24,3.36-3.24,3.35,1.21,3.35,3.3Zm-.85-.05c0-1.59-1.14-2.47-2.49-2.47s-2.5,.88-2.5,2.47,1.15,2.46,2.5,2.46,2.49-.88,2.49-2.46Z"/>
      <path class="cls-3" d="M456.29,57.57v-1.92c0-2.63,1.52-4.04,3.43-4.04s3.42,1.42,3.42,4.04v1.92c0,2.64-1.52,4.04-3.42,4.04s-3.43-1.4-3.43-4.04Zm5.98-.06v-1.8c0-2.25-1.15-3.32-2.55-3.32s-2.55,1.07-2.55,3.32v1.8c0,2.27,1.15,3.32,2.55,3.32s2.55-1.06,2.55-3.32Z"/>
      <path class="cls-3" d="M447.69,99.44v-8.52l-2.41,1.96-.5-.64,3.02-2.45h.77v9.64h-.88Z"/>
      <path class="cls-3" d="M457.45,96.37c0,2.03-1.5,3.25-3.36,3.25s-3.35-1.21-3.35-3.3v-2.41c0-3.11,1.58-4.29,3.26-4.29,1.57,0,2.64,.75,3.27,2.09l-.74,.38c-.53-1.08-1.22-1.69-2.51-1.69-1.42,0-2.48,1.09-2.46,3.55v.55c.54-.89,1.56-1.37,2.62-1.37,1.76,0,3.26,1.21,3.26,3.24Zm-.86,0c0-1.6-1.15-2.46-2.5-2.46s-2.48,.86-2.48,2.46,1.13,2.47,2.48,2.47,2.5-.88,2.5-2.47Z"/>
      <path class="cls-3" d="M459.04,95.57v-1.92c0-2.63,1.52-4.04,3.43-4.04s3.42,1.42,3.42,4.04v1.92c0,2.64-1.52,4.04-3.42,4.04s-3.43-1.4-3.43-4.04Zm5.98-.06v-1.8c0-2.25-1.15-3.32-2.55-3.32s-2.55,1.07-2.55,3.32v1.8c0,2.27,1.15,3.32,2.55,3.32s2.55-1.06,2.55-3.32Z"/>
      <path class="cls-3" d="M442.31,126.23l.59,.53c-1.6,1.79-2.33,3.75-2.33,5.85s.73,4.07,2.33,5.85l-.59,.53c-1.66-1.79-2.58-3.89-2.58-6.38s.92-4.59,2.58-6.38Z"/>
      <path class="cls-3" d="M443.99,137.44v-.67l3.59-3.56c1.19-1.19,1.74-2.01,1.74-3.02,0-1.09-.8-1.77-2.13-1.77s-1.98,.96-2.33,2.09l-.83-.2c.38-1.38,1.39-2.67,3.15-2.67s2.99,1,2.99,2.55c0,1.32-.74,2.33-1.96,3.54l-2.95,2.94h5.17v.79h-6.44Z"/>
      <path class="cls-3" d="M458.51,134.47c0,1.83-1.33,3.14-3.3,3.14-1.36,0-2.64-.6-3.19-1.8l.74-.41c.42,.97,1.39,1.42,2.42,1.42,1.45,0,2.47-.92,2.47-2.35s-.96-2.35-2.39-2.35c-1.08,0-1.8,.61-2.15,1.54h-.83l.64-5.86h5.23v.79h-4.49l-.42,3.72c.49-.65,1.27-.98,2.12-.98,1.87,0,3.13,1.31,3.13,3.15Z"/>
      <path class="cls-3" d="M460.23,133.57v-1.92c0-2.63,1.52-4.04,3.43-4.04s3.42,1.42,3.42,4.04v1.92c0,2.64-1.52,4.04-3.42,4.04s-3.43-1.4-3.43-4.04Zm5.98-.06v-1.8c0-2.25-1.15-3.32-2.55-3.32s-2.55,1.07-2.55,3.32v1.8c0,2.27,1.15,3.32,2.55,3.32s2.55-1.06,2.55-3.32Z"/>
      <path class="cls-3" d="M468.83,138.99l-.59-.53c1.6-1.79,2.33-3.75,2.33-5.85s-.73-4.07-2.33-5.85l.59-.53c1.66,1.79,2.58,3.89,2.58,6.38s-.92,4.59-2.58,6.38Z"/>
      <path class="cls-3" d="M447.85,172.84c0-1.05,.72-1.98,1.89-2.42-1.08-.43-1.59-1.26-1.59-2.25,0-1.55,1.28-2.55,3.14-2.55s3.14,1.01,3.14,2.55c0,1-.52,1.82-1.59,2.25,1.18,.44,1.89,1.37,1.89,2.42,0,1.63-1.38,2.77-3.44,2.77s-3.44-1.14-3.44-2.77Zm6.02-.02c0-1.14-1.01-1.99-2.58-1.99s-2.58,.85-2.58,1.99,.96,2,2.58,2,2.58-.83,2.58-2Zm-.29-4.58c0-1.08-.85-1.83-2.29-1.83s-2.28,.75-2.28,1.83,.84,1.82,2.28,1.82,2.29-.76,2.29-1.82Z"/>
      <path class="cls-3" d="M456.44,171.57v-1.92c0-2.63,1.52-4.04,3.43-4.04s3.42,1.42,3.42,4.04v1.92c0,2.64-1.52,4.04-3.42,4.04s-3.43-1.4-3.43-4.04Zm5.98-.06v-1.8c0-2.25-1.15-3.32-2.55-3.32s-2.55,1.07-2.55,3.32v1.8c0,2.27,1.15,3.32,2.55,3.32s2.55-1.06,2.55-3.32Z"/>
      <path class="cls-3" d="M444.49,211c.36,.97,1.12,1.82,2.64,1.82s2.46-.79,2.46-1.94-.89-2.04-2.64-2.04h-1.18v-.77h1.18c1.57,0,2.4-.79,2.4-1.9s-.89-1.77-2.23-1.77-1.99,.83-2.35,1.7l-.78-.29c.41-1.12,1.39-2.21,3.13-2.21s3.09,.98,3.09,2.53c0,1.19-.71,2-1.67,2.3,1.12,.32,1.9,1.22,1.9,2.46,0,1.6-1.33,2.71-3.31,2.71s-3.01-1.12-3.43-2.35l.79-.26Z"/>
      <path class="cls-3" d="M452.76,211c.36,.97,1.12,1.82,2.64,1.82s2.46-.79,2.46-1.94-.89-2.04-2.64-2.04h-1.18v-.77h1.18c1.57,0,2.4-.79,2.4-1.9s-.89-1.77-2.23-1.77-1.99,.83-2.35,1.7l-.78-.29c.41-1.12,1.39-2.21,3.13-2.21s3.09,.98,3.09,2.53c0,1.19-.71,2-1.67,2.3,1.12,.32,1.9,1.22,1.9,2.46,0,1.6-1.33,2.71-3.31,2.71s-3.01-1.12-3.43-2.35l.79-.26Z"/>
      <path class="cls-3" d="M460.41,209.57v-1.92c0-2.63,1.52-4.04,3.43-4.04s3.42,1.42,3.42,4.04v1.92c0,2.64-1.52,4.04-3.42,4.04s-3.43-1.4-3.43-4.04Zm5.98-.06v-1.8c0-2.25-1.15-3.32-2.55-3.32s-2.55,1.07-2.55,3.32v1.8c0,2.27,1.15,3.32,2.55,3.32s2.55-1.06,2.55-3.32Z"/>
    </g>
    <g>
      <path class="cls-1" d="M567.27,15.11c0,.91-.1,1.79-.3,2.63l3.02,3.87-1.16,.95-2.45-3.12c-.5,1.13-1.24,2.21-2.21,3.23l-1.1-.98c1.91-2.03,2.7-4.04,2.7-6.57v-1.52h1.5v1.52Zm6.8,1.91v1.39h-1.62v5.76h-1.54V12.96h1.54v4.05h1.62Z"/>
      <path class="cls-1" d="M579.25,21.4c.95-.05,1.96-.14,2.87-.25l.18,1.38c-1.76,.23-3.93,.36-5.56,.36h-1.8l-.07-1.4h2.01c.25,0,.54,0,.84-.01v-1.13c-1.21-.22-2.09-.92-2.09-2.1v-.17c0-1.42,1.26-2.16,2.87-2.16s2.83,.74,2.83,2.16v.17c0,1.18-.88,1.89-2.08,2.1v1.06Zm2.54-7.28v1.23h-6.64v-1.23h2.55v-1.14h1.55v1.14h2.54Zm-4.68,4.11c0,.62,.6,.97,1.38,.97s1.34-.35,1.34-.97v-.14c0-.62-.6-.97-1.34-.97s-1.38,.35-1.38,.97v.14Zm5.82-5.27h1.54v11.2h-1.54V12.96Z"/>
      <path class="cls-1" d="M586.13,18.63h10.55v1.39h-4.51v1.76h-1.54v-1.76h-4.51v-1.39Zm2.82,2.3v1.81h6.69v1.43h-8.23v-3.24h1.54Zm6.4-7.75v4.46h-7.88v-4.46h7.88Zm-1.55,3.12v-1.79h-4.8v1.79h4.8Z"/>
      <path class="cls-1" d="M601.63,21.42c.9-.06,1.86-.14,2.73-.25l.16,1.33c-1.69,.24-3.83,.37-5.41,.37h-1.7l-.08-1.37h1.93c.25,0,.54,0,.84-.01v-1.15c-1.22-.19-2.09-.91-2.09-2.1v-.17c0-1.42,1.22-2.16,2.81-2.16s2.78,.74,2.78,2.16v.17c0,1.15-.82,1.86-1.97,2.09v1.09Zm2.42-7.3v1.23h-6.52v-1.23h2.5v-1.14h1.55v1.14h2.48Zm-4.56,4.11c0,.62,.56,.97,1.32,.97s1.3-.35,1.3-.97v-.14c0-.62-.56-.97-1.3-.97s-1.32,.35-1.32,.97v.14Zm8.71-1.1v1.4h-1.5v5.64h-1.54V12.96h1.54v4.16h1.5Z"/>
      <path class="cls-1" d="M584.73,54.91v2.41c0,3.11-1.58,4.29-3.25,4.29s-2.65-.76-3.27-2.09l.73-.4c.53,1.09,1.22,1.7,2.52,1.7,1.4,0,2.47-1.1,2.45-3.55v-.55c-.54,.89-1.57,1.36-2.61,1.36-1.75,0-3.26-1.21-3.26-3.24s1.51-3.24,3.36-3.24,3.35,1.21,3.35,3.3Zm-.85-.05c0-1.6-1.14-2.47-2.49-2.47s-2.5,.88-2.5,2.47,1.15,2.46,2.5,2.46,2.49-.88,2.49-2.46Z"/>
      <path class="cls-1" d="M586.44,57.57v-1.92c0-2.63,1.52-4.04,3.43-4.04s3.42,1.41,3.42,4.04v1.92c0,2.64-1.52,4.04-3.42,4.04s-3.43-1.4-3.43-4.04Zm5.98-.06v-1.8c0-2.26-1.15-3.32-2.55-3.32s-2.55,1.07-2.55,3.32v1.8c0,2.27,1.15,3.32,2.55,3.32s2.55-1.06,2.55-3.32Z"/>
      <path class="cls-1" d="M577.83,99.44v-8.52l-2.41,1.96-.5-.64,3.02-2.45h.77v9.64h-.88Z"/>
      <path class="cls-1" d="M587.6,96.37c0,2.03-1.5,3.25-3.36,3.25s-3.35-1.21-3.35-3.3v-2.41c0-3.11,1.58-4.29,3.26-4.29,1.57,0,2.64,.75,3.27,2.09l-.74,.38c-.53-1.08-1.22-1.69-2.51-1.69-1.42,0-2.48,1.09-2.46,3.55v.55c.54-.89,1.56-1.37,2.62-1.37,1.76,0,3.26,1.21,3.26,3.24Zm-.86,0c0-1.6-1.15-2.46-2.5-2.46s-2.48,.86-2.48,2.46,1.13,2.47,2.48,2.47,2.5-.88,2.5-2.47Z"/>
      <path class="cls-1" d="M589.19,95.57v-1.92c0-2.63,1.52-4.04,3.43-4.04s3.42,1.41,3.42,4.04v1.92c0,2.64-1.52,4.04-3.42,4.04s-3.43-1.4-3.43-4.04Zm5.98-.06v-1.8c0-2.26-1.15-3.32-2.55-3.32s-2.55,1.07-2.55,3.32v1.8c0,2.27,1.15,3.32,2.55,3.32s2.55-1.06,2.55-3.32Z"/>
      <path class="cls-1" d="M572.46,126.23l.59,.53c-1.6,1.79-2.33,3.75-2.33,5.85s.73,4.07,2.33,5.85l-.59,.53c-1.66-1.79-2.58-3.89-2.58-6.38s.92-4.59,2.58-6.38Z"/>
      <path class="cls-1" d="M574.14,137.44v-.67l3.59-3.56c1.19-1.19,1.74-2.01,1.74-3.02,0-1.09-.8-1.78-2.13-1.78s-1.98,.96-2.33,2.09l-.83-.2c.38-1.38,1.39-2.67,3.15-2.67s2.99,1,2.99,2.55c0,1.32-.74,2.33-1.96,3.54l-2.95,2.94h5.17v.79h-6.44Z"/>
      <path class="cls-1" d="M588.65,134.47c0,1.84-1.33,3.14-3.3,3.14-1.36,0-2.64-.6-3.19-1.8l.74-.41c.42,.97,1.39,1.42,2.42,1.42,1.45,0,2.47-.92,2.47-2.35s-.96-2.35-2.39-2.35c-1.08,0-1.8,.61-2.15,1.54h-.83l.64-5.86h5.23v.79h-4.49l-.42,3.72c.49-.65,1.27-.98,2.12-.98,1.87,0,3.13,1.31,3.13,3.15Z"/>
      <path class="cls-1" d="M590.37,133.57v-1.92c0-2.63,1.52-4.04,3.43-4.04s3.42,1.41,3.42,4.04v1.92c0,2.64-1.52,4.04-3.42,4.04s-3.43-1.4-3.43-4.04Zm5.98-.06v-1.8c0-2.26-1.15-3.32-2.55-3.32s-2.55,1.07-2.55,3.32v1.8c0,2.27,1.15,3.32,2.55,3.32s2.55-1.06,2.55-3.32Z"/>
      <path class="cls-1" d="M598.98,138.99l-.59-.53c1.6-1.79,2.33-3.75,2.33-5.85s-.73-4.06-2.33-5.85l.59-.53c1.66,1.79,2.58,3.89,2.58,6.38s-.92,4.59-2.58,6.38Z"/>
      <path class="cls-1" d="M584.73,168.91v2.41c0,3.11-1.58,4.29-3.25,4.29s-2.65-.76-3.27-2.09l.73-.4c.53,1.09,1.22,1.7,2.52,1.7,1.4,0,2.47-1.1,2.45-3.55v-.55c-.54,.89-1.57,1.36-2.61,1.36-1.75,0-3.26-1.21-3.26-3.24s1.51-3.24,3.36-3.24,3.35,1.21,3.35,3.3Zm-.85-.05c0-1.6-1.14-2.47-2.49-2.47s-2.5,.88-2.5,2.47,1.15,2.46,2.5,2.46,2.49-.88,2.49-2.46Z"/>
      <path class="cls-1" d="M586.44,171.57v-1.92c0-2.63,1.52-4.04,3.43-4.04s3.42,1.41,3.42,4.04v1.92c0,2.64-1.52,4.04-3.42,4.04s-3.43-1.4-3.43-4.04Zm5.98-.06v-1.8c0-2.26-1.15-3.32-2.55-3.32s-2.55,1.07-2.55,3.32v1.8c0,2.27,1.15,3.32,2.55,3.32s2.55-1.06,2.55-3.32Z"/>
      <path class="cls-1" d="M574.47,211c.36,.97,1.12,1.82,2.64,1.82s2.46-.79,2.46-1.94-.89-2.04-2.64-2.04h-1.18v-.77h1.18c1.57,0,2.4-.79,2.4-1.89s-.89-1.78-2.23-1.78-1.99,.83-2.35,1.7l-.78-.29c.41-1.12,1.39-2.21,3.13-2.21s3.09,.98,3.09,2.53c0,1.19-.71,2-1.67,2.3,1.12,.32,1.9,1.22,1.9,2.46,0,1.6-1.33,2.71-3.31,2.71s-3.01-1.12-3.43-2.35l.79-.26Z"/>
      <path class="cls-1" d="M589.37,210.63v.79h-1.63v2.2h-.86v-2.2h-4.99v-.73l4.68-6.9h1.18v6.84h1.63Zm-6.44,0h3.95v-5.88l-3.95,5.88Z"/>
      <path class="cls-1" d="M590.72,209.57v-1.92c0-2.63,1.52-4.04,3.43-4.04s3.42,1.41,3.42,4.04v1.92c0,2.64-1.52,4.04-3.42,4.04s-3.43-1.4-3.43-4.04Zm5.98-.06v-1.8c0-2.26-1.15-3.32-2.55-3.32s-2.55,1.07-2.55,3.32v1.8c0,2.27,1.15,3.32,2.55,3.32s2.55-1.06,2.55-3.32Z"/>
    </g>
    <g>
      <path class="cls-2" d="M711.48,13.8v1.21h-6.58v-1.21h2.52v-.96h1.55v.96h2.52Zm-.47,3.6c0,1.25-1.24,1.85-2.82,1.85s-2.83-.6-2.83-1.85v-.11c0-1.26,1.26-1.86,2.83-1.86s2.82,.6,2.82,1.86v.11Zm1.44,3.21v-.96h1.52v4.51h-7.36v-4.51h1.54v.96h4.31Zm-5.59-3.23c0,.41,.59,.65,1.33,.65s1.33-.24,1.33-.65v-.08c0-.41-.58-.66-1.33-.66s-1.33,.25-1.33,.66v.08Zm1.28,5.45h4.31v-.9h-4.31v.9Zm7.46-7.45v1.38h-1.63v2.4h-1.52v-6.2h1.52v2.42h1.63Z"/>
      <path class="cls-2" d="M722.27,15.52v-2.38h1.45v10.76h-1.45v-3.54h-1.7v-1.34h1.7v-2.16h-1.42c-.4,2.3-1.52,4.26-3.3,6.03l-1.14-1.1c2.22-2.09,3.09-4.47,3.09-6.6h-2.75v-1.4h4.26v1.1c0,.21,0,.42-.01,.62h1.26Zm2.43-2.55h1.49v11.2h-1.49V12.96Z"/>
      <path class="cls-2" d="M704.54,61.44v-.67l3.59-3.56c1.19-1.19,1.74-2.01,1.74-3.02,0-1.09-.8-1.78-2.13-1.78s-1.98,.96-2.33,2.09l-.83-.2c.38-1.38,1.39-2.67,3.15-2.67s2.99,1,2.99,2.55c0,1.32-.74,2.33-1.96,3.54l-2.95,2.94h5.17v.79h-6.44Z"/>
      <path class="cls-2" d="M718.92,51.79v.79l-4.87,9.03h-.98l4.88-9.03h-5.55v-.79h6.52Z"/>
      <path class="cls-2" d="M720.26,57.57v-1.92c0-2.63,1.52-4.04,3.43-4.04s3.42,1.41,3.42,4.04v1.92c0,2.64-1.52,4.04-3.42,4.04s-3.43-1.4-3.43-4.04Zm5.98-.06v-1.8c0-2.26-1.15-3.32-2.55-3.32s-2.55,1.07-2.55,3.32v1.8c0,2.27,1.15,3.32,2.55,3.32s2.55-1.06,2.55-3.32Z"/>
      <path class="cls-2" d="M711.09,96.63v.79h-1.63v2.2h-.86v-2.2h-4.99v-.73l4.68-6.9h1.18v6.84h1.63Zm-6.44,0h3.95v-5.88l-3.95,5.88Z"/>
      <path class="cls-2" d="M712.44,96.84c0-1.06,.72-1.98,1.89-2.42-1.08-.43-1.59-1.26-1.59-2.25,0-1.55,1.28-2.55,3.14-2.55s3.14,1.01,3.14,2.55c0,.99-.52,1.82-1.59,2.25,1.18,.44,1.89,1.37,1.89,2.42,0,1.63-1.38,2.77-3.44,2.77s-3.44-1.14-3.44-2.77Zm6.02-.02c0-1.14-1.01-1.99-2.58-1.99s-2.58,.85-2.58,1.99,.96,2,2.58,2,2.58-.83,2.58-2Zm-.29-4.58c0-1.08-.85-1.83-2.29-1.83s-2.28,.76-2.28,1.83,.84,1.82,2.28,1.82,2.29-.76,2.29-1.82Z"/>
      <path class="cls-2" d="M721.03,95.57v-1.92c0-2.63,1.52-4.04,3.43-4.04s3.42,1.41,3.42,4.04v1.92c0,2.64-1.52,4.04-3.42,4.04s-3.43-1.4-3.43-4.04Zm5.98-.06v-1.8c0-2.26-1.15-3.32-2.55-3.32s-2.55,1.07-2.55,3.32v1.8c0,2.27,1.15,3.32,2.55,3.32s2.55-1.06,2.55-3.32Z"/>
      <path class="cls-2" d="M702.85,126.23l.59,.53c-1.6,1.79-2.33,3.75-2.33,5.85s.73,4.07,2.33,5.85l-.59,.53c-1.66-1.79-2.58-3.89-2.58-6.38s.92-4.59,2.58-6.38Z"/>
      <path class="cls-2" d="M710.83,127.79v.79l-4.87,9.03h-.98l4.88-9.03h-5.55v-.79h6.52Z"/>
      <path class="cls-2" d="M718.55,134.47c0,1.84-1.33,3.14-3.3,3.14-1.36,0-2.64-.6-3.19-1.8l.74-.41c.42,.97,1.39,1.42,2.42,1.42,1.45,0,2.47-.92,2.47-2.35s-.96-2.35-2.39-2.35c-1.08,0-1.8,.61-2.15,1.54h-.83l.64-5.86h5.23v.79h-4.49l-.42,3.72c.49-.65,1.27-.98,2.12-.98,1.87,0,3.13,1.31,3.13,3.15Z"/>
      <path class="cls-2" d="M720.27,133.57v-1.92c0-2.63,1.52-4.04,3.43-4.04s3.42,1.41,3.42,4.04v1.92c0,2.64-1.52,4.04-3.42,4.04s-3.43-1.4-3.43-4.04Zm5.98-.06v-1.8c0-2.26-1.15-3.32-2.55-3.32s-2.55,1.07-2.55,3.32v1.8c0,2.27,1.15,3.32,2.55,3.32s2.55-1.06,2.55-3.32Z"/>
      <path class="cls-2" d="M728.87,138.99l-.59-.53c1.6-1.79,2.33-3.75,2.33-5.85s-.73-4.06-2.33-5.85l.59-.53c1.66,1.79,2.58,3.89,2.58,6.38s-.92,4.59-2.58,6.38Z"/>
      <path class="cls-2" d="M704.28,175.44v-.67l3.59-3.56c1.19-1.19,1.74-2.01,1.74-3.02,0-1.09-.8-1.78-2.13-1.78s-1.98,.96-2.33,2.09l-.83-.2c.38-1.38,1.39-2.67,3.15-2.67s2.99,1,2.99,2.55c0,1.32-.74,2.33-1.96,3.54l-2.95,2.94h5.17v.79h-6.44Z"/>
      <path class="cls-2" d="M718.8,172.47c0,1.84-1.33,3.14-3.3,3.14-1.36,0-2.64-.6-3.19-1.8l.74-.41c.42,.97,1.39,1.42,2.42,1.42,1.45,0,2.47-.92,2.47-2.35s-.96-2.35-2.39-2.35c-1.08,0-1.8,.61-2.15,1.54h-.83l.64-5.86h5.23v.79h-4.49l-.42,3.72c.49-.65,1.27-.98,2.12-.98,1.87,0,3.13,1.31,3.13,3.15Z"/>
      <path class="cls-2" d="M720.52,171.57v-1.92c0-2.63,1.52-4.04,3.43-4.04s3.42,1.41,3.42,4.04v1.92c0,2.64-1.52,4.04-3.42,4.04s-3.43-1.4-3.43-4.04Zm5.98-.06v-1.8c0-2.26-1.15-3.32-2.55-3.32s-2.55,1.07-2.55,3.32v1.8c0,2.27,1.15,3.32,2.55,3.32s2.55-1.06,2.55-3.32Z"/>
      <path class="cls-2" d="M703.57,213.44v-8.52l-2.41,1.96-.5-.64,3.02-2.45h.77v9.64h-.88Z"/>
      <path class="cls-2" d="M706.63,209.57v-1.92c0-2.63,1.52-4.04,3.43-4.04s3.42,1.41,3.42,4.04v1.92c0,2.64-1.52,4.04-3.42,4.04s-3.43-1.4-3.43-4.04Zm5.98-.06v-1.8c0-2.26-1.15-3.32-2.55-3.32s-2.55,1.07-2.55,3.32v1.8c0,2.27,1.15,3.32,2.55,3.32s2.55-1.06,2.55-3.32Z"/>
      <path class="cls-2" d="M715.19,209.57v-1.92c0-2.63,1.52-4.04,3.43-4.04s3.42,1.41,3.42,4.04v1.92c0,2.64-1.52,4.04-3.42,4.04s-3.43-1.4-3.43-4.04Zm5.98-.06v-1.8c0-2.26-1.15-3.32-2.55-3.32s-2.55,1.07-2.55,3.32v1.8c0,2.27,1.15,3.32,2.55,3.32s2.55-1.06,2.55-3.32Z"/>
      <path class="cls-2" d="M723.74,209.57v-1.92c0-2.63,1.52-4.04,3.43-4.04s3.42,1.41,3.42,4.04v1.92c0,2.64-1.52,4.04-3.42,4.04s-3.43-1.4-3.43-4.04Zm5.98-.06v-1.8c0-2.26-1.15-3.32-2.55-3.32s-2.55,1.07-2.55,3.32v1.8c0,2.27,1.15,3.32,2.55,3.32s2.55-1.06,2.55-3.32Z"/>
    </g>
    <rect class="cls-2" y="189.5" width="780.5" height="1"/>
    <rect class="cls-2" y="151.5" width="780.5" height="1"/>
    <g class="cls-5">
      <rect class="cls-2" x="129.5" y="113.75" width="651" height=".5"/>
    </g>
    <g class="cls-5">
      <rect class="cls-2" x="130.5" y="75.75" width="650" height=".5"/>
    </g>
    <rect class="cls-2" y="37.5" width="780.5" height="1"/>
    <g class="cls-5">
      <rect class="cls-2" x="650.17" width=".5" height="228"/>
    </g>
    <g class="cls-5">
      <rect class="cls-2" x="520.08" width=".5" height="228"/>
    </g>
    <g class="cls-5">
      <rect class="cls-2" x="390" width=".5" height="228"/>
    </g>
    <g class="cls-5">
      <rect class="cls-2" x="260.33" width=".5" height="151.5"/>
    </g>
    <rect class="cls-2" x="129.58" width="1" height="227.5"/>
  </g>
</svg>