<?xml version="1.0" encoding="UTF-8"?>
<svg id="Layer_2" data-name="Layer 2" xmlns="http://www.w3.org/2000/svg" viewBox="0 0 578.42 748.7">
  <defs>
    <style>
      .cls-1, .cls-2 {
        font-family: NanumSquareNeovariable-ExtraBold, 'NanumSquare Neo variable';
        font-variation-settings: 'wght' 700;
      }

      .cls-3, .cls-4, .cls-2 {
        fill: #fff;
      }

      .cls-3, .cls-2 {
        font-size: 16px;
      }

      .cls-5, .cls-6 {
        fill: none;
        stroke: #fff;
        stroke-miterlimit: 10;
      }

      .cls-7 {
        font-family: NanumSquareNeovariable-Regular, 'NanumSquare Neo variable';
        font-variation-settings: 'wght' 300;
      }

      .cls-6 {
        opacity: .4;
        stroke-width: .5px;
      }
    </style>
  </defs>
  <g id="Layer_1-2" data-name="Layer 1">
    <g>
      <text class="cls-2" transform="translate(7.64 105.46)"><tspan x="0" y="0">제도적 통합</tspan></text>
      <text class="cls-2" transform="translate(32.69 24.46)"><tspan x="0" y="0">영역</tspan></text>
      <text class="cls-2"><tspan x="7.65" y="425.35">관계적 통합</tspan><tspan x="32.39" y="705.35">합계</tspan></text>
      <g>
        <path class="cls-4" d="M130.97,63.15c-.45,0-.86-.11-1.24-.33-.38-.22-.68-.52-.9-.9-.22-.38-.33-.79-.33-1.22s.11-.86,.33-1.24c.22-.38,.52-.68,.9-.9,.38-.22,.79-.33,1.24-.33s.86,.11,1.24,.33c.38,.22,.68,.52,.9,.9,.22,.38,.33,.79,.33,1.24s-.11,.85-.33,1.22c-.22,.38-.52,.68-.9,.9-.38,.22-.79,.33-1.24,.33Z"/>
        <path class="cls-4" d="M145.85,60.47c1.33-.79,2.33-1.59,2.98-2.41,.65-.82,.98-1.75,.98-2.79v-.75h1.12v.75c0,1.25-.37,2.36-1.1,3.34-.74,.98-1.87,1.9-3.41,2.78l-.56-.91Zm.59-5.42v-1.02h7.87v1.02h-7.87Zm5.33,13.09c-.7,0-1.32-.13-1.84-.38-.52-.26-.92-.61-1.2-1.06-.28-.45-.42-.95-.42-1.52s.14-1.06,.42-1.51,.68-.81,1.2-1.07c.52-.26,1.14-.39,1.84-.39h3.1c.7,0,1.32,.13,1.84,.39,.52,.26,.92,.62,1.2,1.07s.42,.96,.42,1.51-.14,1.07-.42,1.52c-.28,.45-.68,.8-1.2,1.06-.52,.26-1.14,.38-1.84,.38h-3.1Zm2.88-1.02c.82,0,1.45-.18,1.88-.54,.43-.36,.65-.83,.65-1.42s-.22-1.03-.65-1.39c-.43-.36-1.06-.54-1.88-.54h-2.66c-.82,0-1.45,.18-1.89,.54-.44,.36-.66,.83-.66,1.39s.22,1.06,.66,1.42c.44,.36,1.07,.54,1.89,.54h2.66Zm-.35-5.95l-4.75-3.31,.62-.85,4.72,3.22-.59,.94Zm-.51-3.55v-1.01h3.79v1.01h-3.79Zm3.18,3.7v-8.06h1.14v8.06h-1.14Z"/>
        <path class="cls-4" d="M161.02,65.15c1.33-1.34,2.34-2.66,3.02-3.94,.68-1.29,1.02-2.69,1.02-4.2v-.56h1.14v.56c0,1.64-.36,3.18-1.09,4.62-.73,1.43-1.82,2.88-3.28,4.33l-.8-.8Zm.51-8.37v-1.04h8.21v1.04h-8.21Zm7.9,8.99l-4.66-5.31,.77-.85,4.7,5.39-.82,.77Zm-4.37-9.63v-2.91h1.12v2.91h-1.12Zm7.07,11.84v-14.77h1.14v14.77h-1.14Z"/>
        <path class="cls-4" d="M177.44,61.59c-.25,0-.45-.09-.62-.26-.17-.18-.26-.39-.26-.63s.08-.46,.26-.63c.17-.18,.38-.26,.62-.26s.46,.09,.63,.26c.18,.18,.26,.39,.26,.63s-.09,.46-.26,.63c-.18,.18-.39,.26-.63,.26Z"/>
        <path class="cls-4" d="M180.25,61.03v-1.06h13.82v1.06h-13.82Zm9.94-.69c.19-.97,.34-1.96,.46-2.96s.17-1.8,.17-2.38v-.74l.45,.53h-9.26v-1.04h9.95v.99c0,.78-.06,1.68-.18,2.7-.12,1.02-.27,2.05-.46,3.08l-1.12-.18Zm-8.08,7.65v-4.9h1.15v3.86h9.28v1.04h-10.43Zm4.5-3.17v-4.32h1.14v4.32h-1.14Z"/>
        <path class="cls-4" d="M195.07,65.17c1.33-1.37,2.32-2.78,2.97-4.26,.65-1.47,.97-3.11,.97-4.93v-1.86h1.12v1.86c0,1.91-.35,3.67-1.04,5.29-.69,1.62-1.77,3.17-3.22,4.66l-.8-.77Zm8.16,.61l-4.59-5.65,.85-.72,4.59,5.63-.85,.74Zm2.69,2.21v-14.77h1.15v14.77h-1.15Zm.67-7.94v-1.06h2.93v1.06h-2.93Z"/>
        <path class="cls-4" d="M210.78,65.55l-.06-1.06h2.69c.95,0,2.09-.04,3.42-.13,1.33-.08,2.56-.2,3.69-.34l.13,1.01c-1.1,.16-2.31,.29-3.64,.38s-2.55,.14-3.66,.14h-2.56Zm4.66-3.55c-.74,0-1.39-.14-1.98-.42s-1.04-.71-1.38-1.29c-.34-.58-.51-1.28-.51-2.11v-.34c0-.83,.17-1.54,.51-2.11,.34-.58,.8-1,1.38-1.29,.58-.28,1.24-.42,1.98-.42s1.38,.14,1.96,.42c.58,.28,1.04,.71,1.38,1.29,.34,.58,.51,1.28,.51,2.11v.34c0,.83-.17,1.54-.51,2.11s-.8,1.01-1.38,1.29c-.58,.28-1.23,.42-1.96,.42Zm0-1.06c.8,0,1.45-.24,1.95-.72,.5-.48,.75-1.17,.75-2.06v-.3c0-.9-.25-1.59-.74-2.07s-1.15-.73-1.96-.73-1.47,.24-1.97,.73-.75,1.18-.75,2.07v.3c0,.9,.25,1.58,.75,2.06,.5,.48,1.16,.72,1.97,.72Zm6.48,7.04v-14.77h1.14v14.77h-1.14Z"/>
        <path class="cls-4" d="M229.65,60.85v-1.02h13.82v1.02h-13.82Zm5.33,7.3c-.78,0-1.45-.12-2.01-.36-.56-.24-.98-.57-1.26-.99-.28-.42-.42-.9-.42-1.43s.14-1.01,.42-1.43c.28-.42,.7-.75,1.26-.99,.56-.24,1.23-.36,2.01-.36h3.17c.79,0,1.46,.12,2.02,.36,.56,.24,.98,.57,1.26,.99,.28,.42,.42,.9,.42,1.43s-.14,1.01-.42,1.43c-.28,.42-.7,.75-1.26,.99s-1.23,.36-2.02,.36h-3.17Zm4.88-9.44c.15-.73,.27-1.46,.35-2.2s.13-1.32,.13-1.74v-.51l.43,.53h-9.26v-1.04h9.97v.77c0,.6-.05,1.28-.14,2.05-.09,.77-.22,1.54-.38,2.3l-1.1-.16Zm-1.98,8.43c.93,0,1.63-.16,2.11-.48,.48-.32,.72-.76,.72-1.31s-.24-.96-.73-1.28c-.49-.32-1.19-.48-2.1-.48h-2.62c-.92,0-1.62,.16-2.1,.48-.49,.32-.73,.75-.73,1.28s.24,.99,.72,1.31c.48,.32,1.18,.48,2.11,.48h2.62Zm-2.42-6.83v-3.54h1.14v3.54h-1.14Z"/>
        <path class="cls-4" d="M244.81,61.3v-1.01h13.82v1.01h-13.82Zm5.3,6.85c-.78,0-1.44-.11-1.99-.34-.55-.22-.97-.53-1.25-.93s-.42-.85-.42-1.38,.14-.96,.42-1.36c.28-.39,.7-.7,1.25-.93,.55-.22,1.21-.34,1.99-.34h3.23c.79,0,1.46,.11,2.01,.34,.55,.22,.97,.53,1.25,.93,.28,.4,.42,.85,.42,1.36s-.14,.98-.42,1.38c-.28,.39-.7,.7-1.25,.93-.55,.22-1.22,.34-2.01,.34h-3.23Zm6.45-14.56v.99h-8.67v3.09h8.83v1.01h-9.97v-5.09h9.81Zm-3.47,13.55c.92,0,1.61-.15,2.08-.44,.47-.29,.7-.69,.7-1.19s-.23-.89-.7-1.18-1.16-.42-2.08-.42h-2.72c-.92,0-1.61,.14-2.08,.42-.47,.28-.7,.67-.7,1.18s.23,.9,.7,1.19c.47,.29,1.16,.44,2.08,.44h2.72Zm-1.92-6.22v-2.86h1.14v2.86h-1.14Z"/>
        <path class="cls-4" d="M260.19,60.21c1.35-.76,2.37-1.53,3.04-2.32,.67-.79,1.01-1.68,1.01-2.69v-.7h1.12v.7c0,1.22-.38,2.3-1.14,3.26-.76,.96-1.93,1.85-3.5,2.7l-.53-.94Zm.59-5.17v-1.02h8.05v1.02h-8.05Zm2.18,12.94v-6.18h1.14v5.14h7.22v-5.14h1.14v6.18h-9.49Zm.62-3.18v-1.02h8.26v1.02h-8.26Zm5.28-3.97l-4.9-3.18,.61-.86,4.85,3.09-.56,.96Zm2.45,.08v-7.7h1.14v7.7h-1.14Z"/>
        <path class="cls-4" d="M275.21,55.68v-.96h6.99v.96h-6.99Zm3.52,5.94c-.89,0-1.59-.21-2.13-.63-.53-.42-.8-1.02-.8-1.78v-.22c0-.76,.27-1.35,.8-1.77,.53-.42,1.24-.63,2.13-.63s1.58,.21,2.1,.63c.53,.42,.79,1.01,.79,1.77v.22c0,.77-.26,1.36-.79,1.78-.53,.42-1.23,.63-2.1,.63Zm0-.98c.54,0,.98-.13,1.32-.4s.5-.62,.5-1.07v-.14c0-.44-.17-.79-.5-1.06s-.78-.41-1.32-.41-1,.14-1.34,.41c-.34,.27-.51,.63-.51,1.06v.14c0,.45,.17,.81,.5,1.07,.34,.27,.79,.4,1.35,.4Zm2.61,7.49c-.73,0-1.35-.11-1.87-.34-.52-.23-.92-.55-1.2-.97s-.42-.89-.42-1.42,.14-.99,.42-1.41,.68-.74,1.21-.98c.53-.23,1.15-.35,1.86-.35h3.22c.71,0,1.33,.12,1.86,.35,.52,.24,.92,.56,1.2,.98,.28,.42,.42,.88,.42,1.41s-.14,1.01-.42,1.42c-.28,.42-.68,.74-1.2,.97-.52,.23-1.14,.34-1.86,.34h-3.22Zm-3.22-12.9v-2.21h1.15v2.21h-1.15Zm6.19,11.87c.84,0,1.48-.15,1.91-.46s.65-.73,.65-1.25-.22-.92-.65-1.23-1.07-.46-1.91-.46h-2.75c-.83,0-1.47,.15-1.9,.46-.44,.31-.66,.72-.66,1.23s.22,.94,.65,1.25c.43,.31,1.07,.46,1.91,.46h2.75Zm-.93-5.49v-8.24h1.09v8.24h-1.09Zm.51-3.58v-1.04h3.28v1.04h-3.28Zm2.82,3.74v-8.56h1.1v8.56h-1.1Z"/>
        <path class="cls-4" d="M291.1,65.22c1.25-.81,2.33-1.72,3.23-2.74,.91-1.02,1.6-2.09,2.09-3.22s.73-2.27,.73-3.41v-.77l.42,.45h-6.24v-1.04h6.98v1.14c0,2.05-.57,3.97-1.71,5.76-1.14,1.79-2.75,3.37-4.82,4.74l-.67-.9Zm10.56,2.77v-14.77h1.14v14.77h-1.14Z"/>
        <path class="cls-4" d="M305.49,62.24v-1.06h13.82v1.06h-13.82Zm10-.59c.21-1.11,.39-2.25,.52-3.41,.13-1.16,.2-2.1,.2-2.8v-.86l.45,.53h-9.58v-1.06h10.27v1.14c0,.9-.07,1.93-.2,3.11-.13,1.18-.31,2.36-.54,3.54l-1.12-.19Zm-3.65,6.51v-6.37h1.14v6.37h-1.14Z"/>
        <path class="cls-4" d="M130.97,103.15c-.45,0-.86-.11-1.24-.33-.38-.22-.68-.52-.9-.9-.22-.38-.33-.79-.33-1.22s.11-.86,.33-1.24c.22-.38,.52-.68,.9-.9,.38-.22,.79-.33,1.24-.33s.86,.11,1.24,.33c.38,.22,.68,.52,.9,.9,.22,.38,.33,.79,.33,1.24s-.11,.85-.33,1.22c-.22,.38-.52,.68-.9,.9-.38,.22-.79,.33-1.24,.33Z"/>
        <path class="cls-4" d="M145.85,100.47c1.33-.79,2.33-1.59,2.98-2.41,.65-.82,.98-1.75,.98-2.79v-.75h1.12v.75c0,1.25-.37,2.36-1.1,3.34-.74,.98-1.87,1.9-3.41,2.78l-.56-.91Zm.59-5.42v-1.02h7.87v1.02h-7.87Zm5.33,13.09c-.7,0-1.32-.13-1.84-.38-.52-.26-.92-.61-1.2-1.06-.28-.45-.42-.95-.42-1.52s.14-1.06,.42-1.51,.68-.81,1.2-1.07c.52-.26,1.14-.39,1.84-.39h3.1c.7,0,1.32,.13,1.84,.39,.52,.26,.92,.62,1.2,1.07s.42,.96,.42,1.51-.14,1.07-.42,1.52c-.28,.45-.68,.8-1.2,1.06-.52,.26-1.14,.38-1.84,.38h-3.1Zm2.88-1.02c.82,0,1.45-.18,1.88-.54,.43-.36,.65-.83,.65-1.42s-.22-1.03-.65-1.39c-.43-.36-1.06-.54-1.88-.54h-2.66c-.82,0-1.45,.18-1.89,.54-.44,.36-.66,.83-.66,1.39s.22,1.06,.66,1.42c.44,.36,1.07,.54,1.89,.54h2.66Zm-.35-5.95l-4.75-3.31,.62-.85,4.72,3.22-.59,.94Zm-.51-3.55v-1.01h3.79v1.01h-3.79Zm3.18,3.7v-8.06h1.14v8.06h-1.14Z"/>
        <path class="cls-4" d="M161.02,105.15c1.33-1.34,2.34-2.66,3.02-3.94,.68-1.29,1.02-2.69,1.02-4.2v-.56h1.14v.56c0,1.64-.36,3.18-1.09,4.62-.73,1.43-1.82,2.88-3.28,4.33l-.8-.8Zm.51-8.37v-1.04h8.21v1.04h-8.21Zm7.9,8.99l-4.66-5.31,.77-.85,4.7,5.39-.82,.77Zm-4.37-9.63v-2.91h1.12v2.91h-1.12Zm7.07,11.84v-14.77h1.14v14.77h-1.14Z"/>
        <path class="cls-4" d="M175.82,105.23c1.06-1.39,1.84-2.76,2.36-4.13,.52-1.37,.78-2.9,.78-4.61v-1.44h1.09v1.44c0,1.77-.27,3.41-.82,4.91-.55,1.5-1.39,3.01-2.52,4.53l-.88-.7Zm.51-9.71v-1.04h6.38v1.04h-6.38Zm5.98,10.24l-3.7-5.54,.88-.7,3.73,5.58-.91,.66Zm-.59-5.87v-1.04h3.04v1.04h-3.04Zm2.61,7.82v-14.26h1.1v14.26h-1.1Zm3.18,.27v-14.77h1.12v14.77h-1.12Z"/>
        <path class="cls-4" d="M191.15,106.8v-1.06h13.82v1.06h-13.82Zm11.9-12.5v1.04h-8.98v5.5h9.12v1.02h-10.26v-7.57h10.11Zm-5.55,12.26v-5.3h1.14v5.3h-1.14Z"/>
        <path class="cls-4" d="M206.51,105.55l-.06-1.06h2.69c.95,0,2.09-.04,3.42-.13,1.33-.08,2.56-.2,3.69-.34l.13,1.01c-1.1,.16-2.31,.29-3.64,.38s-2.55,.14-3.66,.14h-2.56Zm4.66-3.55c-.74,0-1.39-.14-1.98-.42s-1.04-.71-1.38-1.29c-.34-.58-.51-1.28-.51-2.11v-.34c0-.83,.17-1.54,.51-2.11,.34-.58,.8-1,1.38-1.29,.58-.28,1.24-.42,1.98-.42s1.38,.14,1.96,.42c.58,.28,1.04,.71,1.38,1.29,.34,.58,.51,1.28,.51,2.11v.34c0,.83-.17,1.54-.51,2.11s-.8,1.01-1.38,1.29c-.58,.28-1.23,.42-1.96,.42Zm0-1.06c.8,0,1.45-.24,1.95-.72,.5-.48,.75-1.17,.75-2.06v-.3c0-.9-.25-1.59-.74-2.07s-1.15-.73-1.96-.73-1.47,.24-1.97,.73-.75,1.18-.75,2.07v.3c0,.9,.25,1.58,.75,2.06,.5,.48,1.16,.72,1.97,.72Zm6.48,7.04v-14.77h1.14v14.77h-1.14Z"/>
        <path class="cls-4" d="M225.81,101.62v-7.52h6.94v1.02h-5.81v5.46h1.36c.86,0,1.83-.04,2.89-.13,1.06-.09,2.07-.2,3.02-.35l.13,1.01c-.92,.15-1.93,.27-3.03,.37-1.1,.1-2.17,.14-3.19,.14h-2.3Zm2.03,6.37v-4.5h1.15v3.44h8.88v1.06h-10.03Zm8.05-3.55v-11.22h1.15v11.22h-1.15Zm.67-6.24v-1.06h2.93v1.06h-2.93Z"/>
        <path class="cls-4" d="M245.04,100.02c-1.12,0-2.04-.27-2.77-.81-.73-.54-1.09-1.3-1.09-2.3v-.26c0-1,.36-1.77,1.08-2.3,.72-.53,1.65-.8,2.78-.8s2.02,.27,2.74,.8c.72,.53,1.08,1.3,1.08,2.3v.26c0,.99-.36,1.76-1.08,2.3-.72,.54-1.63,.81-2.74,.81Zm0-1.04c.8,0,1.45-.18,1.94-.54,.5-.36,.74-.88,.74-1.55v-.21c0-.66-.25-1.18-.74-1.54-.5-.37-1.14-.55-1.94-.55s-1.46,.18-1.96,.55-.74,.88-.74,1.54v.21c0,.67,.25,1.19,.74,1.55,.5,.36,1.15,.54,1.96,.54Zm-1.5,9.09v-3.82h8.35v-1.76h-8.42v-.98h9.55v3.73h-8.34v1.82h8.96v1.01h-10.11Zm8.35-7.62v-7.23h1.14v7.23h-1.14Z"/>
        <path class="cls-4" d="M255.53,106.02l-.05-1.04h2.54c.92,0,2.03-.04,3.33-.13,1.3-.08,2.5-.2,3.6-.34l.13,1.01c-1.1,.15-2.3,.27-3.61,.36s-2.48,.14-3.51,.14h-2.43Zm.21-9.94v-.98h8.5v.98h-8.5Zm4.27,6.83c-1.03,0-1.89-.25-2.55-.74-.67-.49-1-1.16-1-2.02v-.27c0-.86,.33-1.54,.99-2.02,.66-.49,1.51-.73,2.56-.73s1.87,.24,2.53,.73c.66,.49,.99,1.16,.99,2.02v.27c0,.85-.33,1.53-.99,2.02-.66,.49-1.5,.74-2.53,.74Zm0-.96c.69,0,1.27-.17,1.72-.5,.45-.33,.68-.77,.68-1.31v-.22c0-.55-.23-1-.68-1.33-.45-.33-1.03-.5-1.72-.5s-1.29,.17-1.74,.5c-.46,.33-.69,.77-.69,1.33v.22c0,.54,.23,.98,.69,1.31s1.04,.5,1.74,.5Zm-.59-6.34v-2.38h1.15v2.38h-1.15Zm.08,9.82v-3.38h1.15v3.38h-1.15Zm6.86,2.54v-14.77h1.14v14.77h-1.14Zm.62-7.79v-1.04h2.82v1.04h-2.82Z"/>
        <path class="cls-4" d="M130.97,143.15c-.45,0-.86-.11-1.24-.33-.38-.22-.68-.52-.9-.9-.22-.38-.33-.79-.33-1.22s.11-.86,.33-1.24c.22-.38,.52-.68,.9-.9,.38-.22,.79-.33,1.24-.33s.86,.11,1.24,.33c.38,.22,.68,.52,.9,.9,.22,.38,.33,.79,.33,1.24s-.11,.85-.33,1.22c-.22,.38-.52,.68-.9,.9-.38,.22-.79,.33-1.24,.33Z"/>
        <path class="cls-4" d="M145.85,140.47c1.33-.79,2.33-1.59,2.98-2.41,.65-.82,.98-1.75,.98-2.79v-.75h1.12v.75c0,1.25-.37,2.36-1.1,3.34-.74,.98-1.87,1.9-3.41,2.78l-.56-.91Zm.59-5.42v-1.02h7.87v1.02h-7.87Zm5.33,13.09c-.7,0-1.32-.13-1.84-.38-.52-.26-.92-.61-1.2-1.06-.28-.45-.42-.95-.42-1.52s.14-1.06,.42-1.51,.68-.81,1.2-1.07c.52-.26,1.14-.39,1.84-.39h3.1c.7,0,1.32,.13,1.84,.39,.52,.26,.92,.62,1.2,1.07s.42,.96,.42,1.51-.14,1.07-.42,1.52c-.28,.45-.68,.8-1.2,1.06-.52,.26-1.14,.38-1.84,.38h-3.1Zm2.88-1.02c.82,0,1.45-.18,1.88-.54,.43-.36,.65-.83,.65-1.42s-.22-1.03-.65-1.39c-.43-.36-1.06-.54-1.88-.54h-2.66c-.82,0-1.45,.18-1.89,.54-.44,.36-.66,.83-.66,1.39s.22,1.06,.66,1.42c.44,.36,1.07,.54,1.89,.54h2.66Zm-.35-5.95l-4.75-3.31,.62-.85,4.72,3.22-.59,.94Zm-.51-3.55v-1.01h3.79v1.01h-3.79Zm3.18,3.7v-8.06h1.14v8.06h-1.14Z"/>
        <path class="cls-4" d="M161.02,145.15c1.33-1.34,2.34-2.66,3.02-3.94,.68-1.29,1.02-2.69,1.02-4.2v-.56h1.14v.56c0,1.64-.36,3.18-1.09,4.62-.73,1.43-1.82,2.88-3.28,4.33l-.8-.8Zm.51-8.37v-1.04h8.21v1.04h-8.21Zm7.9,8.99l-4.66-5.31,.77-.85,4.7,5.39-.82,.77Zm-4.37-9.63v-2.91h1.12v2.91h-1.12Zm7.07,11.84v-14.77h1.14v14.77h-1.14Z"/>
        <path class="cls-4" d="M175.98,142.59v-1.06h13.82v1.06h-13.82Zm1.86,5.39v-3.98h1.15v2.93h9.28v1.06h-10.43Zm.08-8.19v-6.29h1.14v5.3h7.68v-5.3h1.15v6.29h-9.97Zm.64-3.1v-1.01h8.69v1.01h-8.69Zm3.78,8.45v-3.23h1.14v3.23h-1.14Z"/>
        <path class="cls-4" d="M195.07,146.02c-1.11,0-2.01-.4-2.7-1.2-.69-.8-1.03-2.03-1.03-3.7v-2.21c0-1.66,.34-2.9,1.03-3.7s1.59-1.2,2.7-1.2,1.99,.4,2.68,1.2,1.03,2.03,1.03,3.7v2.21c0,1.66-.34,2.9-1.03,3.7-.69,.8-1.58,1.2-2.68,1.2Zm0-1.06c.78,0,1.4-.31,1.86-.94,.46-.63,.7-1.6,.7-2.91v-2.19c0-1.31-.23-2.28-.7-2.9s-1.09-.94-1.86-.94-1.42,.31-1.89,.94c-.47,.62-.7,1.59-.7,2.9v2.19c0,1.31,.23,2.28,.7,2.91,.47,.63,1.1,.94,1.89,.94Zm6.59,3.02v-14.77h1.14v14.77h-1.14Zm.66-10.26v-1.06h2.94v1.06h-2.94Zm0,4.94v-1.06h2.94v1.06h-2.94Z"/>
        <path class="cls-4" d="M210.64,140.61v-6.59h1.15v5.54h1.3c.84,0,1.8-.04,2.87-.14,1.07-.09,2.09-.21,3.06-.34l.14,1.01c-.93,.16-1.95,.29-3.06,.38s-2.19,.14-3.22,.14h-2.24Zm2.03,7.38v-5.71h9.2v5.71h-9.2Zm1.15-1.04h6.9v-3.65h-6.9v3.65Zm6.9-5.73v-8h1.15v8h-1.15Zm.67-3.65v-1.04h2.93v1.04h-2.93Z"/>
        <path class="cls-4" d="M225.37,141.79v-1.01h13.82v1.01h-13.82Zm10.9,6.35v-3.46h-9.1v-1.02h10.26v4.48h-1.15Zm-8.96-8.94v-5.7h1.14v4.72h7.68v-4.72h1.15v5.7h-9.97Zm.64-2.83v-.98h8.69v.98h-8.69Zm3.66,7.71v-2.82h1.14v2.82h-1.14Z"/>
        <path class="cls-4" d="M245.23,140.4v-6.46h1.1v5.42h4.85v-5.42h1.1v6.46h-7.06Zm.54-3.3v-1.02h5.97v1.02h-5.97Zm1.65,10.88v-6.11h1.14v5.07h7.22v-5.07h1.14v6.11h-9.49Zm.62-3.15v-1.01h8.24v1.01h-8.24Zm3.89-7.26v-1.04h4.43v1.04h-4.43Zm3.84,3.44v-7.79h1.14v7.79h-1.14Z"/>
        <path class="cls-4" d="M259.44,145.23c1.06-1.39,1.84-2.76,2.36-4.13,.52-1.37,.78-2.9,.78-4.61v-1.44h1.09v1.44c0,1.77-.27,3.41-.82,4.91-.55,1.5-1.39,3.01-2.52,4.53l-.88-.7Zm.51-9.71v-1.04h6.38v1.04h-6.38Zm5.98,10.24l-3.7-5.54,.88-.7,3.73,5.58-.91,.66Zm-.59-5.87v-1.04h3.04v1.04h-3.04Zm2.61,7.82v-14.26h1.1v14.26h-1.1Zm3.18,.27v-14.77h1.12v14.77h-1.12Z"/>
        <path class="cls-4" d="M274.59,146.02l-.05-1.04h2.54c.92,0,2.03-.04,3.33-.13,1.3-.08,2.5-.2,3.6-.34l.13,1.01c-1.1,.15-2.3,.27-3.61,.36s-2.48,.14-3.51,.14h-2.43Zm.21-9.94v-.98h8.5v.98h-8.5Zm4.27,6.83c-1.03,0-1.89-.25-2.55-.74-.67-.49-1-1.16-1-2.02v-.27c0-.86,.33-1.54,.99-2.02,.66-.49,1.51-.73,2.56-.73s1.87,.24,2.53,.73c.66,.49,.99,1.16,.99,2.02v.27c0,.85-.33,1.53-.99,2.02-.66,.49-1.5,.74-2.53,.74Zm0-.96c.69,0,1.27-.17,1.72-.5,.45-.33,.68-.77,.68-1.31v-.22c0-.55-.23-1-.68-1.33-.45-.33-1.03-.5-1.72-.5s-1.29,.17-1.74,.5c-.46,.33-.69,.77-.69,1.33v.22c0,.54,.23,.98,.69,1.31s1.04,.5,1.74,.5Zm-.59-6.34v-2.38h1.15v2.38h-1.15Zm.08,9.82v-3.38h1.15v3.38h-1.15Zm6.86,2.54v-14.77h1.14v14.77h-1.14Zm.62-7.79v-1.04h2.82v1.04h-2.82Z"/>
        <path class="cls-4" d="M127.65,186.79v-1.04h13.82v1.04h-13.82Zm.83-5.55c1.9-.9,3.3-1.83,4.22-2.82,.91-.98,1.37-2.04,1.37-3.18v-1.17h1.14v1.17c0,1.34-.5,2.6-1.5,3.76-1,1.16-2.56,2.24-4.7,3.23l-.53-.99Zm11.52,.99l-6.18-4.22,.51-.98,6.3,4.26-.64,.94Zm-6,4.32v-4.74h1.14v4.74h-1.14Z"/>
        <path class="cls-4" d="M143.18,185.28c1.44-1.28,2.57-2.75,3.39-4.4,.82-1.65,1.23-3.33,1.23-5.04v-.77l.42,.45h-4.77v-1.04h5.49v1.14c0,2.02-.43,3.91-1.3,5.67-.87,1.77-2.08,3.37-3.64,4.82l-.82-.83Zm5.23-2.62v-1.02h3.2v1.02h-3.2Zm.08-4.62v-1.04h3.12v1.04h-3.12Zm2.69,9.68v-14.26h1.1v14.26h-1.1Zm3.18,.27v-14.77h1.12v14.77h-1.12Z"/>
        <path class="cls-4" d="M130.97,223.15c-.45,0-.86-.11-1.24-.33-.38-.22-.68-.52-.9-.9-.22-.38-.33-.79-.33-1.22s.11-.86,.33-1.24c.22-.38,.52-.68,.9-.9,.38-.22,.79-.33,1.24-.33s.86,.11,1.24,.33c.38,.22,.68,.52,.9,.9,.22,.38,.33,.79,.33,1.24s-.11,.85-.33,1.22c-.22,.38-.52,.68-.9,.9-.38,.22-.79,.33-1.24,.33Z"/>
        <path class="cls-4" d="M145.82,219.59c1.38-.7,2.4-1.46,3.08-2.26,.68-.8,1.02-1.72,1.02-2.75v-.85h1.14v.85c0,1.25-.39,2.35-1.16,3.32-.77,.97-1.95,1.84-3.54,2.63l-.53-.94Zm2.82,8.48v-3.82h8.35v-1.76h-8.43v-.98h9.57v3.73h-8.35v1.82h8.96v1.01h-10.1Zm5.94-7.86l-4.86-2.88,.66-.88,4.77,2.85-.56,.91Zm2.42,.24v-7.23h1.14v7.23h-1.14Z"/>
        <path class="cls-4" d="M160.81,223.62v-1.04h13.82v1.04h-13.82Zm1.79-3.41v-6.21h10.26v6.21h-10.26Zm1.14-1.02h7.97v-4.14h-7.97v4.14Zm3.42,8.98v-5.38h1.14v5.38h-1.14Z"/>
        <path class="cls-4" d="M176.19,220.47c1.33-.79,2.33-1.59,2.98-2.41,.65-.82,.98-1.75,.98-2.79v-.75h1.12v.75c0,1.25-.37,2.36-1.1,3.34-.74,.98-1.87,1.9-3.41,2.78l-.56-.91Zm.59-5.42v-1.02h7.87v1.02h-7.87Zm5.33,13.09c-.7,0-1.32-.13-1.84-.38-.52-.26-.92-.61-1.2-1.06-.28-.45-.42-.95-.42-1.52s.14-1.06,.42-1.51,.68-.81,1.2-1.07c.52-.26,1.14-.39,1.84-.39h3.1c.7,0,1.32,.13,1.84,.39,.52,.26,.92,.62,1.2,1.07s.42,.96,.42,1.51-.14,1.07-.42,1.52c-.28,.45-.68,.8-1.2,1.06-.52,.26-1.14,.38-1.84,.38h-3.1Zm2.88-1.02c.82,0,1.45-.18,1.88-.54,.43-.36,.65-.83,.65-1.42s-.22-1.03-.65-1.39c-.43-.36-1.06-.54-1.88-.54h-2.66c-.82,0-1.45,.18-1.89,.54-.44,.36-.66,.83-.66,1.39s.22,1.06,.66,1.42c.44,.36,1.07,.54,1.89,.54h2.66Zm-.35-5.95l-4.75-3.31,.62-.85,4.72,3.22-.59,.94Zm-.51-3.55v-1.01h3.79v1.01h-3.79Zm3.18,3.7v-8.06h1.14v8.06h-1.14Z"/>
        <path class="cls-4" d="M191.36,225.15c1.33-1.34,2.34-2.66,3.02-3.94,.68-1.29,1.02-2.69,1.02-4.2v-.56h1.14v.56c0,1.64-.36,3.18-1.09,4.62-.73,1.43-1.82,2.88-3.28,4.33l-.8-.8Zm.51-8.37v-1.04h8.21v1.04h-8.21Zm7.9,8.99l-4.66-5.31,.77-.85,4.7,5.39-.82,.77Zm-4.37-9.63v-2.91h1.12v2.91h-1.12Zm7.07,11.84v-14.77h1.14v14.77h-1.14Z"/>
        <path class="cls-4" d="M206.51,226.02l-.06-1.06h2.69c.95,0,2.09-.04,3.42-.13,1.33-.08,2.56-.2,3.69-.34l.13,1.01c-1.1,.16-2.31,.29-3.64,.38s-2.55,.14-3.66,.14h-2.56Zm.4-9.94v-.98h8.66v.98h-8.66Zm4.35,6.83c-1.06,0-1.93-.25-2.61-.74-.68-.49-1.02-1.16-1.02-2.02v-.27c0-.86,.34-1.54,1.02-2.02s1.55-.73,2.61-.73,1.89,.24,2.57,.73c.68,.49,1.02,1.16,1.02,2.02v.27c0,.85-.34,1.53-1.02,2.02-.68,.49-1.53,.74-2.57,.74Zm0-.96c.7,0,1.29-.17,1.76-.5s.7-.77,.7-1.31v-.22c0-.54-.23-.98-.7-1.32s-1.06-.5-1.76-.5-1.33,.17-1.8,.5c-.47,.33-.71,.77-.71,1.33v.22c0,.54,.24,.98,.71,1.31s1.07,.5,1.8,.5Zm-.61-6.34v-2.38h1.15v2.38h-1.15Zm.02,9.82v-3.22h1.15v3.22h-1.15Zm6.98,2.54v-14.77h1.14v14.77h-1.14Z"/>
        <path class="cls-4" d="M221.92,220.61v-6.59h6.94v1.02h-5.79v4.53h1.34c.86,0,1.83-.04,2.89-.13,1.06-.09,2.07-.2,3.02-.35l.13,1.01c-.9,.16-1.9,.29-3,.38-1.1,.09-2.18,.14-3.22,.14h-2.3Zm2.03,7.38v-5.71h9.2v5.71h-9.2Zm1.15-1.04h6.9v-3.65h-6.9v3.65Zm6.9-5.73v-8h1.15v8h-1.15Zm.67-3.65v-1.04h2.93v1.04h-2.93Z"/>
        <path class="cls-4" d="M130.97,263.15c-.45,0-.86-.11-1.24-.33-.38-.22-.68-.52-.9-.9-.22-.38-.33-.79-.33-1.22s.11-.86,.33-1.24c.22-.38,.52-.68,.9-.9,.38-.22,.79-.33,1.24-.33s.86,.11,1.24,.33c.38,.22,.68,.52,.9,.9,.22,.38,.33,.79,.33,1.24s-.11,.85-.33,1.22c-.22,.38-.52,.68-.9,.9-.38,.22-.79,.33-1.24,.33Z"/>
        <path class="cls-4" d="M145.65,266.8v-1.06h13.82v1.06h-13.82Zm10.19-3.87c.23-1.25,.43-2.52,.58-3.82s.22-2.34,.22-3.14v-.99l.45,.53h-9.89v-1.04h10.58v1.25c0,.99-.07,2.14-.22,3.46-.15,1.31-.35,2.63-.59,3.97l-1.12-.21Zm-4.85,3.63v-7.07h1.14v7.07h-1.14Z"/>
        <path class="cls-4" d="M161.01,263.59l-.06-1.06h2.69c.95,0,2.09-.04,3.42-.13,1.33-.09,2.56-.2,3.69-.34l.13,1.02c-1.1,.15-2.31,.27-3.65,.36s-2.55,.14-3.65,.14h-2.56Zm4.66-2.94c-.74,0-1.39-.12-1.98-.37-.58-.25-1.04-.61-1.38-1.1-.34-.49-.51-1.08-.51-1.78v-.27c0-.7,.17-1.3,.51-1.79,.34-.49,.8-.86,1.38-1.1,.58-.25,1.24-.37,1.98-.37s1.38,.12,1.96,.37c.58,.25,1.04,.61,1.38,1.1s.51,1.09,.51,1.79v.27c0,.7-.17,1.3-.51,1.78s-.8,.85-1.38,1.1c-.58,.25-1.23,.37-1.96,.37Zm0-1.01c.81,0,1.46-.2,1.96-.59s.74-.95,.74-1.66v-.24c0-.71-.25-1.27-.74-1.66-.5-.39-1.15-.59-1.96-.59s-1.47,.2-1.97,.59c-.5,.4-.75,.95-.75,1.66v.24c0,.71,.25,1.27,.75,1.66s1.16,.59,1.97,.59Zm-1.02,8.35v-.06s0-.03,.02-.04c.1-.9,.19-1.8,.28-2.7,.09-.91,.15-1.72,.18-2.45h1.15c-.07,1.31-.25,3.1-.51,5.38l-1.12-.13Zm7.5,0v-14.75h1.14v14.75h-1.14Z"/>
        <path class="cls-4" d="M175.98,260.15v-1.02h13.82v1.02h-13.82Zm10.02-.62c.17-.84,.3-1.7,.4-2.58,.1-.88,.14-1.57,.14-2.08v-.61l.45,.53h-9.26v-1.04h9.95v.88c0,.69-.05,1.49-.15,2.38-.1,.9-.24,1.79-.41,2.67l-1.12-.16Zm-8.22,8.46v-6.18h1.14v5.18h7.97v-5.18h1.15v6.18h-10.26Zm.75-3.22v-.98h8.8v.98h-8.8Z"/>
        <path class="cls-4" d="M195.25,260.47c1.33-.79,2.33-1.59,2.98-2.41,.65-.82,.98-1.75,.98-2.79v-.75h1.12v.75c0,1.25-.37,2.36-1.1,3.34-.74,.98-1.87,1.9-3.41,2.78l-.56-.91Zm.59-5.42v-1.02h7.87v1.02h-7.87Zm5.33,13.09c-.7,0-1.32-.13-1.84-.38-.52-.26-.92-.61-1.2-1.06-.28-.45-.42-.95-.42-1.52s.14-1.06,.42-1.51,.68-.81,1.2-1.07c.52-.26,1.14-.39,1.84-.39h3.1c.7,0,1.32,.13,1.84,.39,.52,.26,.92,.62,1.2,1.07s.42,.96,.42,1.51-.14,1.07-.42,1.52c-.28,.45-.68,.8-1.2,1.06-.52,.26-1.14,.38-1.84,.38h-3.1Zm2.88-1.02c.82,0,1.45-.18,1.88-.54,.43-.36,.65-.83,.65-1.42s-.22-1.03-.65-1.39c-.43-.36-1.06-.54-1.88-.54h-2.66c-.82,0-1.45,.18-1.89,.54-.44,.36-.66,.83-.66,1.39s.22,1.06,.66,1.42c.44,.36,1.07,.54,1.89,.54h2.66Zm-.35-5.95l-4.75-3.31,.62-.85,4.72,3.22-.59,.94Zm-.51-3.55v-1.01h3.79v1.01h-3.79Zm3.18,3.7v-8.06h1.14v8.06h-1.14Z"/>
        <path class="cls-4" d="M210.41,265.15c1.33-1.34,2.34-2.66,3.02-3.94,.68-1.29,1.02-2.69,1.02-4.2v-.56h1.14v.56c0,1.64-.36,3.18-1.09,4.62-.73,1.43-1.82,2.88-3.28,4.33l-.8-.8Zm.51-8.37v-1.04h8.21v1.04h-8.21Zm7.9,8.99l-4.66-5.31,.77-.85,4.7,5.39-.82,.77Zm-4.37-9.63v-2.91h1.12v2.91h-1.12Zm7.07,11.84v-14.77h1.14v14.77h-1.14Z"/>
        <path class="cls-4" d="M225.57,266.02l-.06-1.06h2.69c.95,0,2.09-.04,3.42-.13,1.33-.08,2.56-.2,3.69-.34l.13,1.01c-1.1,.16-2.31,.29-3.64,.38s-2.55,.14-3.66,.14h-2.56Zm.4-9.94v-.98h8.66v.98h-8.66Zm4.35,6.83c-1.06,0-1.93-.25-2.61-.74-.68-.49-1.02-1.16-1.02-2.02v-.27c0-.86,.34-1.54,1.02-2.02s1.55-.73,2.61-.73,1.89,.24,2.57,.73c.68,.49,1.02,1.16,1.02,2.02v.27c0,.85-.34,1.53-1.02,2.02-.68,.49-1.53,.74-2.57,.74Zm0-.96c.7,0,1.29-.17,1.76-.5s.7-.77,.7-1.31v-.22c0-.54-.23-.98-.7-1.32s-1.06-.5-1.76-.5-1.33,.17-1.8,.5c-.47,.33-.71,.77-.71,1.33v.22c0,.54,.24,.98,.71,1.31s1.07,.5,1.8,.5Zm-.61-6.34v-2.38h1.15v2.38h-1.15Zm.02,9.82v-3.22h1.15v3.22h-1.15Zm6.98,2.54v-14.77h1.14v14.77h-1.14Z"/>
        <path class="cls-4" d="M240.97,260.61v-6.59h6.94v1.02h-5.79v4.53h1.34c.86,0,1.83-.04,2.89-.13,1.06-.09,2.07-.2,3.02-.35l.13,1.01c-.9,.16-1.9,.29-3,.38-1.1,.09-2.18,.14-3.22,.14h-2.3Zm2.03,7.38v-5.71h9.2v5.71h-9.2Zm1.15-1.04h6.9v-3.65h-6.9v3.65Zm6.9-5.73v-8h1.15v8h-1.15Zm.67-3.65v-1.04h2.93v1.04h-2.93Z"/>
        <path class="cls-4" d="M130.97,303.15c-.45,0-.86-.11-1.24-.33-.38-.22-.68-.52-.9-.9-.22-.38-.33-.79-.33-1.22s.11-.86,.33-1.24c.22-.38,.52-.68,.9-.9,.38-.22,.79-.33,1.24-.33s.86,.11,1.24,.33c.38,.22,.68,.52,.9,.9,.22,.38,.33,.79,.33,1.24s-.11,.85-.33,1.22c-.22,.38-.52,.68-.9,.9-.38,.22-.79,.33-1.24,.33Z"/>
        <path class="cls-4" d="M145.65,301.03v-1.06h13.82v1.06h-13.82Zm9.94-.69c.19-.97,.34-1.96,.46-2.96s.17-1.8,.17-2.38v-.74l.45,.53h-9.26v-1.04h9.95v.99c0,.78-.06,1.68-.18,2.7-.12,1.02-.27,2.05-.46,3.08l-1.12-.18Zm-8.08,7.65v-4.9h1.15v3.86h9.28v1.04h-10.43Zm4.5-3.17v-4.32h1.14v4.32h-1.14Z"/>
        <path class="cls-4" d="M160.46,305.17c1.33-1.37,2.32-2.78,2.97-4.26,.65-1.47,.97-3.11,.97-4.93v-1.86h1.12v1.86c0,1.91-.35,3.67-1.04,5.29-.69,1.62-1.77,3.17-3.22,4.66l-.8-.77Zm8.16,.61l-4.59-5.65,.85-.72,4.59,5.63-.85,.74Zm2.69,2.21v-14.77h1.15v14.77h-1.15Zm.67-7.94v-1.06h2.93v1.06h-2.93Z"/>
        <path class="cls-4" d="M176.17,306.02l-.06-1.06h2.69c.95,0,2.09-.04,3.42-.13,1.33-.08,2.56-.2,3.69-.34l.13,1.01c-1.1,.16-2.31,.29-3.64,.38s-2.55,.14-3.66,.14h-2.56Zm.4-9.94v-.98h8.66v.98h-8.66Zm4.35,6.83c-1.06,0-1.93-.25-2.61-.74-.68-.49-1.02-1.16-1.02-2.02v-.27c0-.86,.34-1.54,1.02-2.02s1.55-.73,2.61-.73,1.89,.24,2.57,.73c.68,.49,1.02,1.16,1.02,2.02v.27c0,.85-.34,1.53-1.02,2.02-.68,.49-1.53,.74-2.57,.74Zm0-.96c.7,0,1.29-.17,1.76-.5s.7-.77,.7-1.31v-.22c0-.54-.23-.98-.7-1.32s-1.06-.5-1.76-.5-1.33,.17-1.8,.5c-.47,.33-.71,.77-.71,1.33v.22c0,.54,.24,.98,.71,1.31s1.07,.5,1.8,.5Zm-.61-6.34v-2.38h1.15v2.38h-1.15Zm.02,9.82v-3.22h1.15v3.22h-1.15Zm6.98,2.54v-14.77h1.14v14.77h-1.14Z"/>
        <path class="cls-4" d="M191.58,300.61v-6.59h6.94v1.02h-5.79v4.53h1.34c.86,0,1.83-.04,2.89-.13,1.06-.09,2.07-.2,3.02-.35l.13,1.01c-.9,.16-1.9,.29-3,.38-1.1,.09-2.18,.14-3.22,.14h-2.3Zm2.03,7.38v-5.71h9.2v5.71h-9.2Zm1.15-1.04h6.9v-3.65h-6.9v3.65Zm6.9-5.73v-8h1.15v8h-1.15Zm.67-3.65v-1.04h2.93v1.04h-2.93Z"/>
        <path class="cls-4" d="M130.97,343.15c-.45,0-.86-.11-1.24-.33-.38-.22-.68-.52-.9-.9-.22-.38-.33-.79-.33-1.22s.11-.86,.33-1.24c.22-.38,.52-.68,.9-.9,.38-.22,.79-.33,1.24-.33s.86,.11,1.24,.33c.38,.22,.68,.52,.9,.9,.22,.38,.33,.79,.33,1.24s-.11,.85-.33,1.22c-.22,.38-.52,.68-.9,.9-.38,.22-.79,.33-1.24,.33Z"/>
        <path class="cls-4" d="M145.84,345.55l-.06-1.06h2.69c.95,0,2.09-.04,3.42-.13,1.33-.08,2.56-.2,3.69-.34l.13,1.01c-1.1,.16-2.31,.29-3.64,.38s-2.55,.14-3.66,.14h-2.56Zm4.66-3.55c-.74,0-1.39-.14-1.98-.42s-1.04-.71-1.38-1.29c-.34-.58-.51-1.28-.51-2.11v-.34c0-.83,.17-1.54,.51-2.11,.34-.58,.8-1,1.38-1.29,.58-.28,1.24-.42,1.98-.42s1.38,.14,1.96,.42c.58,.28,1.04,.71,1.38,1.29,.34,.58,.51,1.28,.51,2.11v.34c0,.83-.17,1.54-.51,2.11s-.8,1.01-1.38,1.29c-.58,.28-1.23,.42-1.96,.42Zm0-1.06c.8,0,1.45-.24,1.95-.72,.5-.48,.75-1.17,.75-2.06v-.3c0-.9-.25-1.59-.74-2.07s-1.15-.73-1.96-.73-1.47,.24-1.97,.73-.75,1.18-.75,2.07v.3c0,.9,.25,1.58,.75,2.06,.5,.48,1.16,.72,1.97,.72Zm6.48,7.04v-14.77h1.14v14.77h-1.14Z"/>
        <path class="cls-4" d="M161.01,346.02l-.06-1.06h2.69c.95,0,2.09-.04,3.42-.13,1.33-.08,2.56-.2,3.69-.34l.13,1.01c-1.1,.16-2.31,.29-3.64,.38s-2.55,.14-3.66,.14h-2.56Zm.4-9.94v-.98h8.66v.98h-8.66Zm4.35,6.83c-1.06,0-1.93-.25-2.61-.74-.68-.49-1.02-1.16-1.02-2.02v-.27c0-.86,.34-1.54,1.02-2.02s1.55-.73,2.61-.73,1.89,.24,2.57,.73c.68,.49,1.02,1.16,1.02,2.02v.27c0,.85-.34,1.53-1.02,2.02-.68,.49-1.53,.74-2.57,.74Zm0-.96c.7,0,1.29-.17,1.76-.5s.7-.77,.7-1.31v-.22c0-.54-.23-.98-.7-1.32s-1.06-.5-1.76-.5-1.33,.17-1.8,.5c-.47,.33-.71,.77-.71,1.33v.22c0,.54,.24,.98,.71,1.31s1.07,.5,1.8,.5Zm-.61-6.34v-2.38h1.15v2.38h-1.15Zm.02,9.82v-3.22h1.15v3.22h-1.15Zm6.98,2.54v-14.77h1.14v14.77h-1.14Z"/>
        <path class="cls-4" d="M176.17,346.02l-.06-1.06h2.69c.95,0,2.09-.04,3.42-.13,1.33-.08,2.56-.2,3.69-.34l.13,1.01c-1.1,.16-2.31,.29-3.64,.38s-2.55,.14-3.66,.14h-2.56Zm.4-9.94v-.98h8.66v.98h-8.66Zm4.35,6.83c-1.06,0-1.93-.25-2.61-.74-.68-.49-1.02-1.16-1.02-2.02v-.27c0-.86,.34-1.54,1.02-2.02s1.55-.73,2.61-.73,1.89,.24,2.57,.73c.68,.49,1.02,1.16,1.02,2.02v.27c0,.85-.34,1.53-1.02,2.02-.68,.49-1.53,.74-2.57,.74Zm0-.96c.7,0,1.29-.17,1.76-.5s.7-.77,.7-1.31v-.22c0-.54-.23-.98-.7-1.32s-1.06-.5-1.76-.5-1.33,.17-1.8,.5c-.47,.33-.71,.77-.71,1.33v.22c0,.54,.24,.98,.71,1.31s1.07,.5,1.8,.5Zm-.61-6.34v-2.38h1.15v2.38h-1.15Zm.02,9.82v-3.22h1.15v3.22h-1.15Zm6.98,2.54v-14.77h1.14v14.77h-1.14Z"/>
        <path class="cls-4" d="M191.58,340.61v-6.59h6.94v1.02h-5.79v4.53h1.34c.86,0,1.83-.04,2.89-.13,1.06-.09,2.07-.2,3.02-.35l.13,1.01c-.9,.16-1.9,.29-3,.38-1.1,.09-2.18,.14-3.22,.14h-2.3Zm2.03,7.38v-5.71h9.2v5.71h-9.2Zm1.15-1.04h6.9v-3.65h-6.9v3.65Zm6.9-5.73v-8h1.15v8h-1.15Zm.67-3.65v-1.04h2.93v1.04h-2.93Z"/>
        <path class="cls-4" d="M130.97,383.15c-.45,0-.86-.11-1.24-.33-.38-.22-.68-.52-.9-.9-.22-.38-.33-.79-.33-1.22s.11-.86,.33-1.24c.22-.38,.52-.68,.9-.9,.38-.22,.79-.33,1.24-.33s.86,.11,1.24,.33c.38,.22,.68,.52,.9,.9,.22,.38,.33,.79,.33,1.24s-.11,.85-.33,1.22c-.22,.38-.52,.68-.9,.9-.38,.22-.79,.33-1.24,.33Z"/>
        <path class="cls-4" d="M146.25,385.52v-11.12h5.44v1.06h-4.29v9.02h.78c1.46,0,2.92-.11,4.38-.34l.13,1.02c-.73,.13-1.46,.22-2.21,.27-.75,.05-1.57,.08-2.48,.08h-1.76Zm7.55,2.19v-14.26h1.1v14.26h-1.1Zm.48-7.66v-1.06h3.39v1.06h-3.39Zm2.91,7.94v-14.77h1.12v14.77h-1.12Z"/>
        <path class="cls-4" d="M160.64,386.02l-.05-1.04h2.54c.92,0,2.03-.04,3.33-.13,1.3-.08,2.5-.2,3.6-.34l.13,1.01c-1.1,.15-2.3,.27-3.61,.36s-2.48,.14-3.51,.14h-2.43Zm.21-9.94v-.98h8.5v.98h-8.5Zm4.27,6.83c-1.03,0-1.89-.25-2.55-.74-.67-.49-1-1.16-1-2.02v-.27c0-.86,.33-1.54,.99-2.02,.66-.49,1.51-.73,2.56-.73s1.87,.24,2.53,.73c.66,.49,.99,1.16,.99,2.02v.27c0,.85-.33,1.53-.99,2.02-.66,.49-1.5,.74-2.53,.74Zm0-.96c.69,0,1.27-.17,1.72-.5,.45-.33,.68-.77,.68-1.31v-.22c0-.55-.23-1-.68-1.33-.45-.33-1.03-.5-1.72-.5s-1.29,.17-1.74,.5c-.46,.33-.69,.77-.69,1.33v.22c0,.54,.23,.98,.69,1.31s1.04,.5,1.74,.5Zm-.59-6.34v-2.38h1.15v2.38h-1.15Zm.08,9.82v-3.38h1.15v3.38h-1.15Zm6.86,2.54v-14.77h1.14v14.77h-1.14Zm.62-7.79v-1.04h2.82v1.04h-2.82Z"/>
        <path class="cls-4" d="M177.44,381.59c-.25,0-.45-.09-.62-.26-.17-.18-.26-.39-.26-.63s.08-.46,.26-.63c.17-.18,.38-.26,.62-.26s.46,.09,.63,.26c.18,.18,.26,.39,.26,.63s-.09,.46-.26,.63c-.18,.18-.39,.26-.63,.26Z"/>
        <path class="cls-4" d="M180.45,386.02l-.06-1.06h2.69c.95,0,2.09-.04,3.42-.13,1.33-.08,2.56-.2,3.69-.34l.13,1.01c-1.1,.16-2.31,.29-3.64,.38s-2.55,.14-3.66,.14h-2.56Zm.4-9.94v-.98h8.66v.98h-8.66Zm4.35,6.83c-1.06,0-1.93-.25-2.61-.74-.68-.49-1.02-1.16-1.02-2.02v-.27c0-.86,.34-1.54,1.02-2.02s1.55-.73,2.61-.73,1.89,.24,2.57,.73c.68,.49,1.02,1.16,1.02,2.02v.27c0,.85-.34,1.53-1.02,2.02-.68,.49-1.53,.74-2.57,.74Zm0-.96c.7,0,1.29-.17,1.76-.5s.7-.77,.7-1.31v-.22c0-.54-.23-.98-.7-1.32s-1.06-.5-1.76-.5-1.33,.17-1.8,.5c-.47,.33-.71,.77-.71,1.33v.22c0,.54,.24,.98,.71,1.31s1.07,.5,1.8,.5Zm-.61-6.34v-2.38h1.15v2.38h-1.15Zm.02,9.82v-3.22h1.15v3.22h-1.15Zm6.98,2.54v-14.77h1.14v14.77h-1.14Z"/>
        <path class="cls-4" d="M195.85,380.61v-6.59h6.94v1.02h-5.79v4.53h1.34c.86,0,1.83-.04,2.89-.13,1.06-.09,2.07-.2,3.02-.35l.13,1.01c-.9,.16-1.9,.29-3,.38-1.1,.09-2.18,.14-3.22,.14h-2.3Zm2.03,7.38v-5.71h9.2v5.71h-9.2Zm1.15-1.04h6.9v-3.65h-6.9v3.65Zm6.9-5.73v-8h1.15v8h-1.15Zm.67-3.65v-1.04h2.93v1.04h-2.93Z"/>
        <path class="cls-4" d="M210.78,385.55l-.06-1.06h2.69c.95,0,2.09-.04,3.42-.13,1.33-.08,2.56-.2,3.69-.34l.13,1.01c-1.1,.16-2.31,.29-3.64,.38s-2.55,.14-3.66,.14h-2.56Zm4.66-3.55c-.74,0-1.39-.14-1.98-.42s-1.04-.71-1.38-1.29c-.34-.58-.51-1.28-.51-2.11v-.34c0-.83,.17-1.54,.51-2.11,.34-.58,.8-1,1.38-1.29,.58-.28,1.24-.42,1.98-.42s1.38,.14,1.96,.42c.58,.28,1.04,.71,1.38,1.29,.34,.58,.51,1.28,.51,2.11v.34c0,.83-.17,1.54-.51,2.11s-.8,1.01-1.38,1.29c-.58,.28-1.23,.42-1.96,.42Zm0-1.06c.8,0,1.45-.24,1.95-.72,.5-.48,.75-1.17,.75-2.06v-.3c0-.9-.25-1.59-.74-2.07s-1.15-.73-1.96-.73-1.47,.24-1.97,.73-.75,1.18-.75,2.07v.3c0,.9,.25,1.58,.75,2.06,.5,.48,1.16,.72,1.97,.72Zm6.48,7.04v-14.77h1.14v14.77h-1.14Z"/>
        <path class="cls-4" d="M229.85,380.47c1.33-.79,2.33-1.59,2.98-2.41,.65-.82,.98-1.75,.98-2.79v-.75h1.12v.75c0,1.25-.37,2.36-1.1,3.34-.74,.98-1.87,1.9-3.41,2.78l-.56-.91Zm.59-5.42v-1.02h7.87v1.02h-7.87Zm5.33,13.09c-.7,0-1.32-.13-1.84-.38-.52-.26-.92-.61-1.2-1.06-.28-.45-.42-.95-.42-1.52s.14-1.06,.42-1.51,.68-.81,1.2-1.07c.52-.26,1.14-.39,1.84-.39h3.1c.7,0,1.32,.13,1.84,.39,.52,.26,.92,.62,1.2,1.07s.42,.96,.42,1.51-.14,1.07-.42,1.52c-.28,.45-.68,.8-1.2,1.06-.52,.26-1.14,.38-1.84,.38h-3.1Zm2.88-1.02c.82,0,1.45-.18,1.88-.54,.43-.36,.65-.83,.65-1.42s-.22-1.03-.65-1.39c-.43-.36-1.06-.54-1.88-.54h-2.66c-.82,0-1.45,.18-1.89,.54-.44,.36-.66,.83-.66,1.39s.22,1.06,.66,1.42c.44,.36,1.07,.54,1.89,.54h2.66Zm-.35-5.95l-4.75-3.31,.62-.85,4.72,3.22-.59,.94Zm-.51-3.55v-1.01h3.79v1.01h-3.79Zm3.18,3.7v-8.06h1.14v8.06h-1.14Z"/>
        <path class="cls-4" d="M245.34,385.84v-6.32h3.97v-4.08h-3.97v-1.04h5.07v6.16h-3.97v4.24h.93c.73,0,1.38-.03,1.98-.08,.59-.05,1.27-.14,2.02-.26l.14,1.01c-.73,.13-1.41,.22-2.05,.28-.64,.06-1.41,.09-2.32,.09h-1.81Zm5.62-3.18v-1.02h2.77v1.02h-2.77Zm.22-4.48v-1.02h2.54v1.02h-2.54Zm2,9.54v-14.26h1.1v14.26h-1.1Zm3.18,.27v-14.77h1.12v14.77h-1.12Z"/>
        <path class="cls-4" d="M259.81,386.02l-.05-1.04h2.54c.92,0,2.03-.04,3.33-.13,1.3-.08,2.5-.2,3.6-.34l.13,1.01c-1.1,.15-2.3,.27-3.61,.36s-2.48,.14-3.51,.14h-2.43Zm.21-9.94v-.98h8.5v.98h-8.5Zm4.27,6.83c-1.03,0-1.89-.25-2.55-.74-.67-.49-1-1.16-1-2.02v-.27c0-.86,.33-1.54,.99-2.02,.66-.49,1.51-.73,2.56-.73s1.87,.24,2.53,.73c.66,.49,.99,1.16,.99,2.02v.27c0,.85-.33,1.53-.99,2.02-.66,.49-1.5,.74-2.53,.74Zm0-.96c.69,0,1.27-.17,1.72-.5,.45-.33,.68-.77,.68-1.31v-.22c0-.55-.23-1-.68-1.33-.45-.33-1.03-.5-1.72-.5s-1.29,.17-1.74,.5c-.46,.33-.69,.77-.69,1.33v.22c0,.54,.23,.98,.69,1.31s1.04,.5,1.74,.5Zm-.59-6.34v-2.38h1.15v2.38h-1.15Zm.08,9.82v-3.38h1.15v3.38h-1.15Zm6.86,2.54v-14.77h1.14v14.77h-1.14Zm.62-7.79v-1.04h2.82v1.04h-2.82Z"/>
        <path class="cls-4" d="M130.97,423.15c-.45,0-.86-.11-1.24-.33-.38-.22-.68-.52-.9-.9-.22-.38-.33-.79-.33-1.22s.11-.86,.33-1.24c.22-.38,.52-.68,.9-.9,.38-.22,.79-.33,1.24-.33s.86,.11,1.24,.33c.38,.22,.68,.52,.9,.9,.22,.38,.33,.79,.33,1.24s-.11,.85-.33,1.22c-.22,.38-.52,.68-.9,.9-.38,.22-.79,.33-1.24,.33Z"/>
        <path class="cls-4" d="M146.09,425.55v-11.15h5.78v11.15h-5.78Zm1.09-1.06h3.6v-9.04h-3.6v9.04Zm6.61,3.22v-14.26h1.12v14.26h-1.12Zm.5-7.66v-1.06h3.39v1.06h-3.39Zm2.91,7.94v-14.77h1.12v14.77h-1.12Z"/>
        <path class="cls-4" d="M161.18,425.28c1.44-1.29,2.57-2.76,3.4-4.42s1.24-3.33,1.24-5.02v-.77l.42,.45h-4.78v-1.04h5.5v1.14c0,2.02-.44,3.91-1.31,5.68s-2.09,3.38-3.65,4.82l-.82-.83Zm7.78,2.43v-14.26h1.12v14.26h-1.12Zm.5-7.66v-1.06h3.39v1.06h-3.39Zm2.91,7.94v-14.77h1.12v14.77h-1.12Z"/>
        <path class="cls-4" d="M175.82,425.23c1.06-1.39,1.84-2.76,2.36-4.13,.52-1.37,.78-2.9,.78-4.61v-1.44h1.09v1.44c0,1.77-.27,3.41-.82,4.91-.55,1.5-1.39,3.01-2.52,4.53l-.88-.7Zm.51-9.71v-1.04h6.38v1.04h-6.38Zm5.98,10.24l-3.7-5.54,.88-.7,3.73,5.58-.91,.66Zm-.59-5.87v-1.04h3.04v1.04h-3.04Zm2.61,7.82v-14.26h1.1v14.26h-1.1Zm3.18,.27v-14.77h1.12v14.77h-1.12Z"/>
        <path class="cls-4" d="M191.15,426.8v-1.06h13.82v1.06h-13.82Zm11.9-12.5v1.04h-8.98v5.5h9.12v1.02h-10.26v-7.57h10.11Zm-5.55,12.26v-5.3h1.14v5.3h-1.14Z"/>
        <path class="cls-4" d="M206.51,425.55l-.06-1.06h2.69c.95,0,2.09-.04,3.42-.13,1.33-.08,2.56-.2,3.69-.34l.13,1.01c-1.1,.16-2.31,.29-3.64,.38s-2.55,.14-3.66,.14h-2.56Zm4.66-3.55c-.74,0-1.39-.14-1.98-.42s-1.04-.71-1.38-1.29c-.34-.58-.51-1.28-.51-2.11v-.34c0-.83,.17-1.54,.51-2.11,.34-.58,.8-1,1.38-1.29,.58-.28,1.24-.42,1.98-.42s1.38,.14,1.96,.42c.58,.28,1.04,.71,1.38,1.29,.34,.58,.51,1.28,.51,2.11v.34c0,.83-.17,1.54-.51,2.11s-.8,1.01-1.38,1.29c-.58,.28-1.23,.42-1.96,.42Zm0-1.06c.8,0,1.45-.24,1.95-.72,.5-.48,.75-1.17,.75-2.06v-.3c0-.9-.25-1.59-.74-2.07s-1.15-.73-1.96-.73-1.47,.24-1.97,.73-.75,1.18-.75,2.07v.3c0,.9,.25,1.58,.75,2.06,.5,.48,1.16,.72,1.97,.72Zm6.48,7.04v-14.77h1.14v14.77h-1.14Z"/>
        <path class="cls-4" d="M225.37,422.24v-1.06h13.82v1.06h-13.82Zm10-.59c.21-1.11,.39-2.25,.52-3.41,.13-1.16,.2-2.1,.2-2.8v-.86l.45,.53h-9.58v-1.06h10.27v1.14c0,.9-.07,1.93-.2,3.11-.13,1.18-.31,2.36-.54,3.54l-1.12-.19Zm-3.65,6.51v-6.37h1.14v6.37h-1.14Z"/>
        <path class="cls-4" d="M240.7,420.24c1.32-.78,2.31-1.61,2.97-2.5,.66-.89,.98-1.9,.98-3.03v-.96h1.14v.96c0,1.33-.37,2.53-1.1,3.58s-1.87,2.01-3.39,2.89l-.59-.93Zm5.97,7.89c-.7,0-1.32-.13-1.84-.38-.52-.26-.92-.61-1.2-1.06-.28-.45-.42-.95-.42-1.52s.14-1.06,.42-1.51,.68-.81,1.2-1.07c.52-.26,1.14-.39,1.84-.39h3.1c.7,0,1.32,.13,1.84,.39,.52,.26,.92,.62,1.2,1.07s.42,.96,.42,1.51-.14,1.07-.42,1.52c-.28,.45-.68,.8-1.2,1.06-.52,.26-1.14,.38-1.84,.38h-3.1Zm2.88-1.02c.82,0,1.45-.18,1.88-.54,.43-.36,.65-.83,.65-1.42s-.22-1.03-.65-1.39c-.43-.36-1.06-.54-1.88-.54h-2.66c-.82,0-1.45,.18-1.89,.54-.44,.36-.66,.83-.66,1.39s.22,1.06,.66,1.42c.44,.36,1.07,.54,1.89,.54h2.66Zm-.45-6.16l-4.66-3.31,.67-.85,4.59,3.25-.61,.91Zm-.72-3.73v-1.02h4.1v1.02h-4.1Zm3.49,4.08v-8.06h1.14v8.06h-1.14Z"/>
        <path class="cls-4" d="M255.53,425.55l-.05-1.06h2.54c.94,0,2.06-.04,3.36-.12,1.3-.08,2.49-.19,3.57-.33l.13,1.01c-1.07,.15-2.25,.27-3.56,.36s-2.49,.14-3.56,.14h-2.43Zm6.3-3.38c.22-1.12,.4-2.26,.53-3.41,.13-1.15,.19-2.11,.19-2.88v-.9l.45,.53h-6.5v-1.04h7.2v1.12c0,.97-.07,2.04-.2,3.22-.13,1.17-.32,2.36-.55,3.55l-1.12-.19Zm-3.18,2.86v-6.05h1.15v6.05h-1.15Zm7.71,2.94v-14.77h1.14v14.77h-1.14Zm.62-7.79v-1.04h2.82v1.04h-2.82Z"/>
        <path class="cls-4" d="M274.59,421.55l-.05-.94h2.54c.97,0,2.1-.04,3.4-.12s2.48-.19,3.54-.33l.11,.91c-1.08,.14-2.27,.25-3.58,.34-1.31,.09-2.49,.14-3.54,.14h-2.43Zm.21-6.21v-.91h8.5v.91h-8.5Zm4.27,4.27c-1.06,0-1.91-.15-2.57-.46-.66-.3-.98-.74-.98-1.3v-.13c0-.58,.33-1.02,.98-1.32,.66-.3,1.51-.46,2.57-.46s1.89,.15,2.54,.46c.65,.3,.98,.74,.98,1.32v.13c0,.57-.33,1-.98,1.3-.65,.3-1.5,.46-2.54,.46Zm0-.88c.69,0,1.27-.08,1.72-.25,.45-.17,.68-.38,.68-.65v-.08c0-.27-.23-.49-.69-.66-.46-.18-1.03-.26-1.71-.26s-1.27,.09-1.74,.26c-.46,.18-.7,.4-.7,.66v.08c0,.27,.23,.48,.69,.65,.46,.17,1.04,.25,1.74,.25Zm-1.84,9.31v-3.23h8.21v-1.31h-8.29v-.93h9.41v3.17h-8.21v1.36h8.83v.94h-9.95Zm1.25-13.07v-1.95h1.15v1.95h-1.15Zm.08,6.03v-1.9h1.15v1.9h-1.15Zm6.86,.51v-8.3h1.14v8.3h-1.14Zm.62-3.02v-1.06h2.82v1.06h-2.82Z"/>
        <path class="cls-4" d="M290.09,420.24c1.32-.78,2.31-1.61,2.97-2.5,.66-.89,.98-1.9,.98-3.03v-.96h1.14v.96c0,1.33-.37,2.53-1.1,3.58s-1.87,2.01-3.39,2.89l-.59-.93Zm5.97,7.89c-.7,0-1.32-.13-1.84-.38-.52-.26-.92-.61-1.2-1.06-.28-.45-.42-.95-.42-1.52s.14-1.06,.42-1.51,.68-.81,1.2-1.07c.52-.26,1.14-.39,1.84-.39h3.1c.7,0,1.32,.13,1.84,.39,.52,.26,.92,.62,1.2,1.07s.42,.96,.42,1.51-.14,1.07-.42,1.52c-.28,.45-.68,.8-1.2,1.06-.52,.26-1.14,.38-1.84,.38h-3.1Zm2.88-1.02c.82,0,1.45-.18,1.88-.54,.43-.36,.65-.83,.65-1.42s-.22-1.03-.65-1.39c-.43-.36-1.06-.54-1.88-.54h-2.66c-.82,0-1.45,.18-1.89,.54-.44,.36-.66,.83-.66,1.39s.22,1.06,.66,1.42c.44,.36,1.07,.54,1.89,.54h2.66Zm-.45-6.16l-4.66-3.31,.67-.85,4.59,3.25-.61,.91Zm-.72-3.73v-1.02h4.1v1.02h-4.1Zm3.49,4.08v-8.06h1.14v8.06h-1.14Z"/>
        <path class="cls-4" d="M304.93,426.02l-.05-1.04h2.54c.92,0,2.03-.04,3.33-.13,1.3-.08,2.5-.2,3.6-.34l.13,1.01c-1.1,.15-2.3,.27-3.61,.36s-2.48,.14-3.51,.14h-2.43Zm.21-9.94v-.98h8.5v.98h-8.5Zm4.27,6.83c-1.03,0-1.89-.25-2.55-.74-.67-.49-1-1.16-1-2.02v-.27c0-.86,.33-1.54,.99-2.02,.66-.49,1.51-.73,2.56-.73s1.87,.24,2.53,.73c.66,.49,.99,1.16,.99,2.02v.27c0,.85-.33,1.53-.99,2.02-.66,.49-1.5,.74-2.53,.74Zm0-.96c.69,0,1.27-.17,1.72-.5,.45-.33,.68-.77,.68-1.31v-.22c0-.55-.23-1-.68-1.33-.45-.33-1.03-.5-1.72-.5s-1.29,.17-1.74,.5c-.46,.33-.69,.77-.69,1.33v.22c0,.54,.23,.98,.69,1.31s1.04,.5,1.74,.5Zm-.59-6.34v-2.38h1.15v2.38h-1.15Zm.08,9.82v-3.38h1.15v3.38h-1.15Zm6.86,2.54v-14.77h1.14v14.77h-1.14Zm.62-7.79v-1.04h2.82v1.04h-2.82Z"/>
        <path class="cls-4" d="M130.97,463.15c-.45,0-.86-.11-1.24-.33-.38-.22-.68-.52-.9-.9-.22-.38-.33-.79-.33-1.22s.11-.86,.33-1.24c.22-.38,.52-.68,.9-.9,.38-.22,.79-.33,1.24-.33s.86,.11,1.24,.33c.38,.22,.68,.52,.9,.9,.22,.38,.33,.79,.33,1.24s-.11,.85-.33,1.22c-.22,.38-.52,.68-.9,.9-.38,.22-.79,.33-1.24,.33Z"/>
        <path class="cls-4" d="M145.85,460.47c1.33-.79,2.33-1.59,2.98-2.41,.65-.82,.98-1.75,.98-2.79v-.75h1.12v.75c0,1.25-.37,2.36-1.1,3.34-.74,.98-1.87,1.9-3.41,2.78l-.56-.91Zm.59-5.42v-1.02h7.87v1.02h-7.87Zm5.33,13.09c-.7,0-1.32-.13-1.84-.38-.52-.26-.92-.61-1.2-1.06-.28-.45-.42-.95-.42-1.52s.14-1.06,.42-1.51,.68-.81,1.2-1.07c.52-.26,1.14-.39,1.84-.39h3.1c.7,0,1.32,.13,1.84,.39,.52,.26,.92,.62,1.2,1.07s.42,.96,.42,1.51-.14,1.07-.42,1.52c-.28,.45-.68,.8-1.2,1.06-.52,.26-1.14,.38-1.84,.38h-3.1Zm2.88-1.02c.82,0,1.45-.18,1.88-.54,.43-.36,.65-.83,.65-1.42s-.22-1.03-.65-1.39c-.43-.36-1.06-.54-1.88-.54h-2.66c-.82,0-1.45,.18-1.89,.54-.44,.36-.66,.83-.66,1.39s.22,1.06,.66,1.42c.44,.36,1.07,.54,1.89,.54h2.66Zm-.35-5.95l-4.75-3.31,.62-.85,4.72,3.22-.59,.94Zm-.51-3.55v-1.01h3.79v1.01h-3.79Zm3.18,3.7v-8.06h1.14v8.06h-1.14Z"/>
        <path class="cls-4" d="M161.02,465.15c1.33-1.34,2.34-2.66,3.02-3.94,.68-1.29,1.02-2.69,1.02-4.2v-.56h1.14v.56c0,1.64-.36,3.18-1.09,4.62-.73,1.43-1.82,2.88-3.28,4.33l-.8-.8Zm.51-8.37v-1.04h8.21v1.04h-8.21Zm7.9,8.99l-4.66-5.31,.77-.85,4.7,5.39-.82,.77Zm-4.37-9.63v-2.91h1.12v2.91h-1.12Zm7.07,11.84v-14.77h1.14v14.77h-1.14Z"/>
        <path class="cls-4" d="M175.98,462.59v-1.06h13.82v1.06h-13.82Zm1.86,5.39v-3.98h1.15v2.93h9.28v1.06h-10.43Zm.08-8.19v-6.29h1.14v5.3h7.68v-5.3h1.15v6.29h-9.97Zm.64-3.1v-1.01h8.69v1.01h-8.69Zm3.78,8.45v-3.23h1.14v3.23h-1.14Z"/>
        <path class="cls-4" d="M195.07,466.02c-1.11,0-2.01-.4-2.7-1.2-.69-.8-1.03-2.03-1.03-3.7v-2.21c0-1.66,.34-2.9,1.03-3.7s1.59-1.2,2.7-1.2,1.99,.4,2.68,1.2,1.03,2.03,1.03,3.7v2.21c0,1.66-.34,2.9-1.03,3.7-.69,.8-1.58,1.2-2.68,1.2Zm0-1.06c.78,0,1.4-.31,1.86-.94,.46-.63,.7-1.6,.7-2.91v-2.19c0-1.31-.23-2.28-.7-2.9s-1.09-.94-1.86-.94-1.42,.31-1.89,.94c-.47,.62-.7,1.59-.7,2.9v2.19c0,1.31,.23,2.28,.7,2.91,.47,.63,1.1,.94,1.89,.94Zm6.59,3.02v-14.77h1.14v14.77h-1.14Zm.66-10.26v-1.06h2.94v1.06h-2.94Zm0,4.94v-1.06h2.94v1.06h-2.94Z"/>
        <path class="cls-4" d="M210.21,460.85v-1.02h13.82v1.02h-13.82Zm5.33,7.3c-.78,0-1.45-.12-2.01-.36-.56-.24-.98-.57-1.26-.99-.28-.42-.42-.9-.42-1.43s.14-1.01,.42-1.43c.28-.42,.7-.75,1.26-.99,.56-.24,1.23-.36,2.01-.36h3.17c.79,0,1.46,.12,2.02,.36,.56,.24,.98,.57,1.26,.99,.28,.42,.42,.9,.42,1.43s-.14,1.01-.42,1.43c-.28,.42-.7,.75-1.26,.99s-1.23,.36-2.02,.36h-3.17Zm4.88-9.44c.15-.73,.27-1.46,.35-2.2s.13-1.32,.13-1.74v-.51l.43,.53h-9.26v-1.04h9.97v.77c0,.6-.05,1.28-.14,2.05-.09,.77-.22,1.54-.38,2.3l-1.1-.16Zm-1.98,8.43c.93,0,1.63-.16,2.11-.48,.48-.32,.72-.76,.72-1.31s-.24-.96-.73-1.28c-.49-.32-1.19-.48-2.1-.48h-2.62c-.92,0-1.62,.16-2.1,.48-.49,.32-.73,.75-.73,1.28s.24,.99,.72,1.31c.48,.32,1.18,.48,2.11,.48h2.62Zm-2.42-6.83v-3.54h1.14v3.54h-1.14Z"/>
        <path class="cls-4" d="M225.37,461.3v-1.01h13.82v1.01h-13.82Zm5.3,6.85c-.78,0-1.44-.11-1.99-.34-.55-.22-.97-.53-1.25-.93s-.42-.85-.42-1.38,.14-.96,.42-1.36c.28-.39,.7-.7,1.25-.93,.55-.22,1.21-.34,1.99-.34h3.23c.79,0,1.46,.11,2.01,.34,.55,.22,.97,.53,1.25,.93,.28,.4,.42,.85,.42,1.36s-.14,.98-.42,1.38c-.28,.39-.7,.7-1.25,.93-.55,.22-1.22,.34-2.01,.34h-3.23Zm6.45-14.56v.99h-8.67v3.09h8.83v1.01h-9.97v-5.09h9.81Zm-3.47,13.55c.92,0,1.61-.15,2.08-.44,.47-.29,.7-.69,.7-1.19s-.23-.89-.7-1.18-1.16-.42-2.08-.42h-2.72c-.92,0-1.61,.14-2.08,.42-.47,.28-.7,.67-.7,1.18s.23,.9,.7,1.19c.47,.29,1.16,.44,2.08,.44h2.72Zm-1.92-6.22v-2.86h1.14v2.86h-1.14Z"/>
        <path class="cls-4" d="M240.61,455.68v-.96h6.99v.96h-6.99Zm3.52,5.94c-.89,0-1.59-.21-2.13-.63-.53-.42-.8-1.02-.8-1.78v-.22c0-.76,.27-1.35,.8-1.77,.53-.42,1.24-.63,2.13-.63s1.58,.21,2.1,.63c.53,.42,.79,1.01,.79,1.77v.22c0,.77-.26,1.36-.79,1.78-.53,.42-1.23,.63-2.1,.63Zm0-.98c.54,0,.98-.13,1.32-.4s.5-.62,.5-1.07v-.14c0-.44-.17-.79-.5-1.06s-.78-.41-1.32-.41-1,.14-1.34,.41c-.34,.27-.51,.63-.51,1.06v.14c0,.45,.17,.81,.5,1.07,.34,.27,.79,.4,1.35,.4Zm2.61,7.49c-.73,0-1.35-.11-1.87-.34-.52-.23-.92-.55-1.2-.97s-.42-.89-.42-1.42,.14-.99,.42-1.41,.68-.74,1.21-.98c.53-.23,1.15-.35,1.86-.35h3.22c.71,0,1.33,.12,1.86,.35,.52,.24,.92,.56,1.2,.98,.28,.42,.42,.88,.42,1.41s-.14,1.01-.42,1.42c-.28,.42-.68,.74-1.2,.97-.52,.23-1.14,.34-1.86,.34h-3.22Zm-3.22-12.9v-2.21h1.15v2.21h-1.15Zm6.19,11.87c.84,0,1.48-.15,1.91-.46s.65-.73,.65-1.25-.22-.92-.65-1.23-1.07-.46-1.91-.46h-2.75c-.83,0-1.47,.15-1.9,.46-.44,.31-.66,.72-.66,1.23s.22,.94,.65,1.25c.43,.31,1.07,.46,1.91,.46h2.75Zm-.93-5.49v-8.24h1.09v8.24h-1.09Zm.51-3.58v-1.04h3.28v1.04h-3.28Zm2.82,3.74v-8.56h1.1v8.56h-1.1Z"/>
        <path class="cls-4" d="M255.36,465.17c1.33-1.37,2.32-2.78,2.97-4.26,.65-1.47,.97-3.11,.97-4.93v-1.86h1.12v1.86c0,1.91-.35,3.67-1.04,5.29-.69,1.62-1.77,3.17-3.22,4.66l-.8-.77Zm8.16,.61l-4.59-5.65,.85-.72,4.59,5.63-.85,.74Zm2.69,2.21v-14.77h1.15v14.77h-1.15Zm.67-7.94v-1.06h2.93v1.06h-2.93Z"/>
        <path class="cls-4" d="M130.97,503.15c-.45,0-.86-.11-1.24-.33-.38-.22-.68-.52-.9-.9-.22-.38-.33-.79-.33-1.22s.11-.86,.33-1.24c.22-.38,.52-.68,.9-.9,.38-.22,.79-.33,1.24-.33s.86,.11,1.24,.33c.38,.22,.68,.52,.9,.9,.22,.38,.33,.79,.33,1.24s-.11,.85-.33,1.22c-.22,.38-.52,.68-.9,.9-.38,.22-.79,.33-1.24,.33Z"/>
        <path class="cls-4" d="M145.65,500.32v-1.02h13.82v1.02h-13.82Zm10-.51c.17-.9,.31-1.8,.41-2.72,.1-.92,.15-1.64,.15-2.18v-.66l.45,.53h-9.26v-1.04h9.95v.91c0,.73-.05,1.56-.16,2.5-.11,.94-.25,1.88-.43,2.82l-1.1-.16Zm.9,8.34v-4.38h-9.1v-1.02h10.26v5.41h-1.15Zm-4.54-4.93v-3.3h1.14v3.3h-1.14Z"/>
        <path class="cls-4" d="M160.65,505.23c1.06-1.39,1.84-2.76,2.36-4.13,.52-1.37,.78-2.9,.78-4.61v-1.44h1.09v1.44c0,1.77-.27,3.41-.82,4.91-.55,1.5-1.39,3.01-2.52,4.53l-.88-.7Zm.51-9.71v-1.04h6.38v1.04h-6.38Zm5.98,10.24l-3.7-5.54,.88-.7,3.73,5.58-.91,.66Zm-.59-5.87v-1.04h3.04v1.04h-3.04Zm2.61,7.82v-14.26h1.1v14.26h-1.1Zm3.18,.27v-14.77h1.12v14.77h-1.12Z"/>
        <path class="cls-4" d="M175.63,505.17c1.33-1.37,2.32-2.78,2.97-4.26,.65-1.47,.97-3.11,.97-4.93v-1.86h1.12v1.86c0,1.91-.35,3.67-1.04,5.29-.69,1.62-1.77,3.17-3.22,4.66l-.8-.77Zm8.16,.61l-4.59-5.65,.85-.72,4.59,5.63-.85,.74Zm2.69,2.21v-14.77h1.15v14.77h-1.15Zm.67-7.94v-1.06h2.93v1.06h-2.93Z"/>
        <path class="cls-4" d="M191.34,506.02l-.06-1.06h2.69c.95,0,2.09-.04,3.42-.13,1.33-.08,2.56-.2,3.69-.34l.13,1.01c-1.1,.16-2.31,.29-3.64,.38s-2.55,.14-3.66,.14h-2.56Zm.4-9.94v-.98h8.66v.98h-8.66Zm4.35,6.83c-1.06,0-1.93-.25-2.61-.74-.68-.49-1.02-1.16-1.02-2.02v-.27c0-.86,.34-1.54,1.02-2.02s1.55-.73,2.61-.73,1.89,.24,2.57,.73c.68,.49,1.02,1.16,1.02,2.02v.27c0,.85-.34,1.53-1.02,2.02-.68,.49-1.53,.74-2.57,.74Zm0-.96c.7,0,1.29-.17,1.76-.5s.7-.77,.7-1.31v-.22c0-.54-.23-.98-.7-1.32s-1.06-.5-1.76-.5-1.33,.17-1.8,.5c-.47,.33-.71,.77-.71,1.33v.22c0,.54,.24,.98,.71,1.31s1.07,.5,1.8,.5Zm-.61-6.34v-2.38h1.15v2.38h-1.15Zm.02,9.82v-3.22h1.15v3.22h-1.15Zm6.98,2.54v-14.77h1.14v14.77h-1.14Z"/>
        <path class="cls-4" d="M209.66,506.02c-.93,0-1.67-.4-2.22-1.2-.55-.8-.83-2.03-.83-3.7v-2.21c0-1.66,.28-2.9,.83-3.7s1.3-1.2,2.22-1.2,1.64,.4,2.19,1.2,.83,2.03,.83,3.7v2.21c0,1.66-.28,2.9-.83,3.7-.55,.8-1.29,1.2-2.19,1.2Zm-.02-1.06c.6,0,1.07-.31,1.42-.94,.35-.63,.52-1.6,.52-2.91v-2.19c0-1.31-.17-2.28-.52-2.9s-.82-.94-1.42-.94-1.07,.31-1.42,.94-.52,1.59-.52,2.9v2.19c0,1.31,.17,2.28,.52,2.91,.35,.63,.82,.94,1.42,.94Zm2.46-4.77v-1.04h3.01v1.04h-3.01Zm2.58,7.52v-14.26h1.1v14.26h-1.1Zm3.18,.27v-14.77h1.12v14.77h-1.12Z"/>
        <path class="cls-4" d="M221.49,505.15c1.39-1.37,2.42-2.78,3.09-4.25,.67-1.47,1.01-3.11,1.01-4.94v-1.84h1.12v1.84c0,1.91-.36,3.67-1.07,5.3-.71,1.62-1.83,3.18-3.34,4.67l-.8-.78Zm8.48,.62l-4.78-5.65,.85-.74,4.78,5.63-.85,.75Zm-.96-6.19v-1.06h4.29v1.06h-4.29Zm3.79,8.4v-14.77h1.15v14.77h-1.15Z"/>
        <path class="cls-4" d="M240.73,505.55l-.06-1.06h2.69c.95,0,2.09-.04,3.42-.13,1.33-.08,2.56-.2,3.69-.34l.13,1.01c-1.1,.16-2.31,.29-3.64,.38s-2.55,.14-3.66,.14h-2.56Zm4.66-3.55c-.74,0-1.39-.14-1.98-.42s-1.04-.71-1.38-1.29c-.34-.58-.51-1.28-.51-2.11v-.34c0-.83,.17-1.54,.51-2.11,.34-.58,.8-1,1.38-1.29,.58-.28,1.24-.42,1.98-.42s1.38,.14,1.96,.42c.58,.28,1.04,.71,1.38,1.29,.34,.58,.51,1.28,.51,2.11v.34c0,.83-.17,1.54-.51,2.11s-.8,1.01-1.38,1.29c-.58,.28-1.23,.42-1.96,.42Zm0-1.06c.8,0,1.45-.24,1.95-.72,.5-.48,.75-1.17,.75-2.06v-.3c0-.9-.25-1.59-.74-2.07s-1.15-.73-1.96-.73-1.47,.24-1.97,.73-.75,1.18-.75,2.07v.3c0,.9,.25,1.58,.75,2.06,.5,.48,1.16,.72,1.97,.72Zm-.58,3.98v-3.49h1.15v3.49h-1.15Zm7.06,3.06v-14.77h1.14v14.77h-1.14Z"/>
        <path class="cls-4" d="M255.71,506.8v-1.06h13.82v1.06h-13.82Zm10.19-3.87c.23-1.25,.43-2.52,.58-3.82s.22-2.34,.22-3.14v-.99l.45,.53h-9.89v-1.04h10.58v1.25c0,.99-.07,2.14-.22,3.46-.15,1.31-.35,2.63-.59,3.97l-1.12-.21Zm-6.8,3.63v-6.93h1.1v6.93h-1.1Zm3.74,0v-6.93h1.1v6.93h-1.1Z"/>
        <path class="cls-4" d="M270.88,501.03v-1.06h13.82v1.06h-13.82Zm9.94-.69c.19-.97,.34-1.96,.46-2.96s.17-1.8,.17-2.38v-.74l.45,.53h-9.26v-1.04h9.95v.99c0,.78-.06,1.68-.18,2.7-.12,1.02-.27,2.05-.46,3.08l-1.12-.18Zm-8.08,7.65v-4.9h1.15v3.86h9.28v1.04h-10.43Zm4.5-3.17v-4.32h1.14v4.32h-1.14Z"/>
        <path class="cls-4" d="M285.69,505.17c1.33-1.37,2.32-2.78,2.97-4.26,.65-1.47,.97-3.11,.97-4.93v-1.86h1.12v1.86c0,1.91-.35,3.67-1.04,5.29-.69,1.62-1.77,3.17-3.22,4.66l-.8-.77Zm8.16,.61l-4.59-5.65,.85-.72,4.59,5.63-.85,.74Zm2.69,2.21v-14.77h1.15v14.77h-1.15Zm.67-7.94v-1.06h2.93v1.06h-2.93Z"/>
        <path class="cls-4" d="M301.42,500.63c1.33-.82,2.33-1.65,2.98-2.48,.65-.83,.98-1.79,.98-2.86v-.77h1.12v.77c0,1.27-.37,2.41-1.1,3.41-.74,1-1.87,1.95-3.41,2.85l-.56-.91Zm.59-5.57v-1.04h7.86v1.04h-7.86Zm10.53,13.07v-4.51h-8.51v-1.04h9.65v5.55h-1.14Zm-2.67-6.82l-4.75-3.41,.61-.83,4.74,3.31-.59,.93Zm-.51-3.55v-1.02h3.79v1.02h-3.79Zm3.18,3.78v-8.3h1.14v8.3h-1.14Z"/>
        <path class="cls-4" d="M320.67,495.67v-.98h8.22v.98h-8.22Zm4.13,5.78c-1.01,0-1.84-.21-2.47-.62-.63-.42-.95-1-.95-1.74v-.21c0-.74,.32-1.31,.95-1.73,.63-.42,1.46-.62,2.47-.62s1.82,.21,2.46,.62,.96,.99,.96,1.73v.21c0,.75-.32,1.33-.96,1.74s-1.46,.62-2.46,.62Zm0-.98c.66,0,1.21-.13,1.66-.39,.44-.26,.66-.6,.66-1.02v-.16c0-.42-.22-.75-.66-1.02-.44-.26-.99-.39-1.66-.39s-1.23,.13-1.67,.39c-.44,.26-.66,.6-.66,1.02v.16c0,.42,.22,.75,.66,1.02,.44,.26,1,.39,1.67,.39Zm-1.55,7.5v-5.7h1.14v4.69h7.22v-4.69h1.14v5.7h-9.49Zm.64-2.91v-1.02h8.24v1.02h-8.24Zm.3-9.84v-2.19h1.17v2.19h-1.17Zm4.69,2.3v-.94h3.28v.94h-3.28Zm0,2.7v-.96h3.28v.96h-3.28Zm2.72,1.17v-8.18h1.14v8.18h-1.14Z"/>
        <path class="cls-4" d="M336.32,501.31v-4.22h5.36v-2.06h-5.36v-1.01h6.48v4.08h-5.36v2.19h1.41c.84,0,1.74-.04,2.69-.12,.95-.08,1.87-.19,2.75-.33l.13,.99c-1.9,.32-3.82,.48-5.78,.48h-2.32Zm10.46,6.82v-4.19h-8.51v-1.06h9.65v5.25h-1.14Zm-2.72-11.92v-.94h3.31v.94h-3.31Zm0,2.78v-.96h3.31v.96h-3.31Zm2.72,2.85v-8.61h1.14v8.61h-1.14Z"/>
        <path class="cls-4" d="M130.97,543.15c-.45,0-.86-.11-1.24-.33-.38-.22-.68-.52-.9-.9-.22-.38-.33-.79-.33-1.22s.11-.86,.33-1.24c.22-.38,.52-.68,.9-.9,.38-.22,.79-.33,1.24-.33s.86,.11,1.24,.33c.38,.22,.68,.52,.9,.9,.22,.38,.33,.79,.33,1.24s-.11,.85-.33,1.22c-.22,.38-.52,.68-.9,.9-.38,.22-.79,.33-1.24,.33Z"/>
        <path class="cls-4" d="M145.65,541.03v-1.06h13.82v1.06h-13.82Zm9.94-.69c.19-.97,.34-1.96,.46-2.96s.17-1.8,.17-2.38v-.74l.45,.53h-9.26v-1.04h9.95v.99c0,.78-.06,1.68-.18,2.7-.12,1.02-.27,2.05-.46,3.08l-1.12-.18Zm-8.08,7.65v-4.9h1.15v3.86h9.28v1.04h-10.43Zm4.5-3.17v-4.32h1.14v4.32h-1.14Z"/>
        <path class="cls-4" d="M161.61,545.55v-11.31h1.12v10.26h4.8v-10.26h1.14v11.31h-7.06Zm.54-5.89v-1.04h5.97v1.04h-5.97Zm10,8.32v-14.77h1.14v14.77h-1.14Z"/>
        <path class="cls-4" d="M175.98,542.16v-.99h13.82v.99h-13.82Zm1.15-2.96c1.75-.49,3.07-1.04,3.95-1.66s1.33-1.29,1.33-2.02v-.45h1.1v.45c0,.68-.21,1.3-.64,1.86s-1.08,1.06-1.97,1.52c-.89,.46-2.03,.89-3.42,1.28l-.35-.98Zm9.74,8.93v-3.17h-9.1v-1.01h10.26v4.18h-1.15Zm-8.96-12.53v-1.04h9.97v1.04h-9.97Zm10.27,4.58l-6.13-2.64,.5-.9,6.08,2.59-.45,.94Zm-5.97,4.21v-2.51h1.14v2.51h-1.14Zm.18-9.52v-1.87h1.12v1.87h-1.12Z"/>
        <path class="cls-4" d="M191.15,546.79v-1.04h13.82v1.04h-13.82Zm.83-5.55c1.9-.9,3.3-1.83,4.22-2.82,.91-.98,1.37-2.04,1.37-3.18v-1.17h1.14v1.17c0,1.34-.5,2.6-1.5,3.76-1,1.16-2.56,2.24-4.7,3.23l-.53-.99Zm11.52,.99l-6.18-4.22,.51-.98,6.3,4.26-.64,.94Zm-6,4.32v-4.74h1.14v4.74h-1.14Z"/>
        <path class="cls-4" d="M130.97,583.15c-.45,0-.86-.11-1.24-.33-.38-.22-.68-.52-.9-.9-.22-.38-.33-.79-.33-1.22s.11-.86,.33-1.24c.22-.38,.52-.68,.9-.9,.38-.22,.79-.33,1.24-.33s.86,.11,1.24,.33c.38,.22,.68,.52,.9,.9,.22,.38,.33,.79,.33,1.24s-.11,.85-.33,1.22c-.22,.38-.52,.68-.9,.9-.38,.22-.79,.33-1.24,.33Z"/>
        <path class="cls-4" d="M145.65,581.03v-1.06h13.82v1.06h-13.82Zm9.94-.69c.19-.97,.34-1.96,.46-2.96s.17-1.8,.17-2.38v-.74l.45,.53h-9.26v-1.04h9.95v.99c0,.78-.06,1.68-.18,2.7-.12,1.02-.27,2.05-.46,3.08l-1.12-.18Zm-8.08,7.65v-4.9h1.15v3.86h9.28v1.04h-10.43Zm4.5-3.17v-4.32h1.14v4.32h-1.14Z"/>
        <path class="cls-4" d="M160.46,585.17c1.33-1.37,2.32-2.78,2.97-4.26,.65-1.47,.97-3.11,.97-4.93v-1.86h1.12v1.86c0,1.91-.35,3.67-1.04,5.29-.69,1.62-1.77,3.17-3.22,4.66l-.8-.77Zm8.16,.61l-4.59-5.65,.85-.72,4.59,5.63-.85,.74Zm2.69,2.21v-14.77h1.15v14.77h-1.15Zm.67-7.94v-1.06h2.93v1.06h-2.93Z"/>
        <path class="cls-4" d="M176.19,580.63c1.33-.82,2.33-1.65,2.98-2.48,.65-.83,.98-1.79,.98-2.86v-.77h1.12v.77c0,1.27-.37,2.41-1.1,3.41-.74,1-1.87,1.95-3.41,2.85l-.56-.91Zm.59-5.57v-1.04h7.86v1.04h-7.86Zm10.53,13.07v-4.51h-8.51v-1.04h9.65v5.55h-1.14Zm-2.67-6.82l-4.75-3.41,.61-.83,4.74,3.31-.59,.93Zm-.51-3.55v-1.02h3.79v1.02h-3.79Zm3.18,3.78v-8.3h1.14v8.3h-1.14Z"/>
        <path class="cls-4" d="M195.89,581.25c1.88-.71,3.36-1.61,4.44-2.68,1.08-1.07,1.62-2.19,1.62-3.35v-.5l.43,.5h-6.26v-1.04h6.96v.78c0,1.58-.58,2.98-1.75,4.2-1.17,1.22-2.82,2.24-4.97,3.06l-.48-.98Zm2.16,6.74v-4.72h1.14v3.66h9.04v1.06h-10.18Zm8.35-3.55v-11.22h1.14v11.22h-1.14Z"/>
        <path class="cls-4" d="M209.98,580.47c1.3-.79,2.27-1.59,2.91-2.42,.64-.82,.96-1.75,.96-2.78v-.75h1.12v.75c0,1.24-.36,2.35-1.09,3.34-.73,.99-1.84,1.91-3.34,2.78l-.56-.91Zm.56-5.42v-1.02h7.78v1.02h-7.78Zm5.25,13.09c-.69,0-1.3-.13-1.82-.38-.52-.26-.92-.61-1.2-1.06-.28-.45-.42-.95-.42-1.52s.14-1.06,.42-1.51,.68-.81,1.2-1.07c.52-.26,1.13-.39,1.82-.39h2.99c.7,0,1.31,.13,1.83,.39,.52,.26,.91,.62,1.19,1.07s.42,.96,.42,1.51-.14,1.07-.42,1.52c-.28,.45-.67,.8-1.19,1.06-.52,.26-1.13,.38-1.83,.38h-2.99Zm2.77-1.02c.82,0,1.45-.18,1.87-.54,.43-.36,.64-.83,.64-1.42s-.22-1.03-.65-1.39c-.43-.36-1.05-.54-1.86-.54h-2.54c-.81,0-1.43,.18-1.86,.54-.43,.36-.65,.83-.65,1.39s.21,1.06,.64,1.42c.43,.36,1.05,.54,1.87,.54h2.54Zm-.26-6.03l-4.7-3.31,.62-.85,4.69,3.23-.61,.93Zm2.42,.22v-8.06h1.14v8.06h-1.14Zm.66-3.73v-1.04h2.93v1.04h-2.93Z"/>
        <path class="cls-4" d="M225.2,582.77l-.05-1.04h2.54c.94,0,2.06-.04,3.36-.12,1.3-.08,2.49-.19,3.57-.33l.13,.99c-1.1,.15-2.3,.27-3.61,.36s-2.48,.14-3.51,.14h-2.43Zm4.38-2.8c-1.1,0-2.01-.26-2.72-.78-.71-.52-1.07-1.26-1.07-2.22v-.24c0-.97,.36-1.72,1.07-2.24,.71-.52,1.62-.78,2.72-.78s2.01,.26,2.72,.78c.71,.52,1.07,1.27,1.07,2.24v.24c0,.96-.36,1.7-1.07,2.22-.71,.52-1.62,.78-2.72,.78Zm0-1.01c.8,0,1.44-.18,1.93-.54,.49-.36,.73-.85,.73-1.48v-.21c0-.64-.24-1.14-.73-1.5-.49-.36-1.13-.54-1.93-.54s-1.45,.18-1.94,.54-.74,.86-.74,1.5v.21c0,.63,.25,1.12,.74,1.48s1.14,.54,1.94,.54Zm-1.74,9.02v-3.71h1.14v2.66h9.04v1.06h-10.18Zm1.25-5.84v-2.93h1.15v2.93h-1.15Zm6.94,2.51v-11.44h1.14v11.44h-1.14Zm.62-5.68v-1.07h2.82v1.07h-2.82Z"/>
        <path class="cls-4" d="M240.37,586.02l-.05-1.04h2.54c.92,0,2.03-.04,3.33-.13,1.3-.08,2.5-.2,3.6-.34l.13,1.01c-1.1,.15-2.3,.27-3.61,.36s-2.48,.14-3.51,.14h-2.43Zm.21-9.94v-.98h8.5v.98h-8.5Zm4.27,6.83c-1.03,0-1.89-.25-2.55-.74-.67-.49-1-1.16-1-2.02v-.27c0-.86,.33-1.54,.99-2.02,.66-.49,1.51-.73,2.56-.73s1.87,.24,2.53,.73c.66,.49,.99,1.16,.99,2.02v.27c0,.85-.33,1.53-.99,2.02-.66,.49-1.5,.74-2.53,.74Zm0-.96c.69,0,1.27-.17,1.72-.5,.45-.33,.68-.77,.68-1.31v-.22c0-.55-.23-1-.68-1.33-.45-.33-1.03-.5-1.72-.5s-1.29,.17-1.74,.5c-.46,.33-.69,.77-.69,1.33v.22c0,.54,.23,.98,.69,1.31s1.04,.5,1.74,.5Zm-.59-6.34v-2.38h1.15v2.38h-1.15Zm.08,9.82v-3.38h1.15v3.38h-1.15Zm6.86,2.54v-14.77h1.14v14.77h-1.14Zm.62-7.79v-1.04h2.82v1.04h-2.82Z"/>
        <path class="cls-4" d="M260.41,579.94v-6h7.06v6h-7.06Zm1.12-1.01h4.82v-3.98h-4.82v3.98Zm.08,8.21c1.65-.41,2.94-.88,3.85-1.42s1.37-1.15,1.37-1.81v-.5h1.17v.5c0,.93-.51,1.75-1.54,2.46-1.03,.71-2.53,1.3-4.5,1.77l-.34-.99Zm.75-3.25v-1.01h9.95v1.01h-9.95Zm10.24,4.24l-5.81-2.4,.35-.96,5.89,2.38-.43,.98Zm-5.78-5.04v-2.02h1.17v2.02h-1.17Zm4.13-1.79v-8.06h1.14v8.06h-1.14Z"/>
        <path class="cls-4" d="M278.83,581.17c1.38-.9,2.4-1.84,3.07-2.83s1.01-2.11,1.01-3.36v-1.15h1.14v1.15c0,1.44-.38,2.73-1.13,3.88s-1.91,2.22-3.48,3.21l-.61-.9Zm2.82,6.82v-4.5h1.14v3.44h9.04v1.06h-10.18Zm5.86-6.22l-4.85-3.65,.72-.83,4.77,3.6-.64,.88Zm2.5,2.67v-11.22h1.14v11.22h-1.14Z"/>
        <path class="cls-4" d="M294.01,585.71l-.06-1.06h2.69c.96,0,2.1-.04,3.43-.13,1.33-.09,2.55-.2,3.67-.35l.13,1.02c-1.12,.15-2.35,.27-3.68,.37-1.33,.1-2.54,.14-3.62,.14h-2.56Zm1.01-3.41v-4.4h6.05v-2.51h-6.05v-.99h7.2v4.5h-6.05v2.45h6.35v.96h-7.5Zm3.07,2.7v-3.33h1.15v3.33h-1.15Zm7.06,2.98v-14.77h1.14v14.77h-1.14Z"/>
        <path class="cls-4" d="M308.99,582.24v-1.06h13.82v1.06h-13.82Zm10-.59c.21-1.11,.39-2.25,.52-3.41,.13-1.16,.2-2.1,.2-2.8v-.86l.45,.53h-9.58v-1.06h10.27v1.14c0,.9-.07,1.93-.2,3.11-.13,1.18-.31,2.36-.54,3.54l-1.12-.19Zm-3.65,6.51v-6.37h1.14v6.37h-1.14Z"/>
        <path class="cls-4" d="M324.16,582.16v-.99h13.82v.99h-13.82Zm1.15-2.96c1.75-.49,3.07-1.04,3.95-1.66s1.33-1.29,1.33-2.02v-.45h1.1v.45c0,.68-.21,1.3-.64,1.86s-1.08,1.06-1.97,1.52c-.89,.46-2.03,.89-3.42,1.28l-.35-.98Zm9.74,8.93v-3.17h-9.1v-1.01h10.26v4.18h-1.15Zm-8.96-12.53v-1.04h9.97v1.04h-9.97Zm10.27,4.58l-6.13-2.64,.5-.9,6.08,2.59-.45,.94Zm-5.97,4.21v-2.51h1.14v2.51h-1.14Zm.18-9.52v-1.87h1.12v1.87h-1.12Z"/>
        <path class="cls-4" d="M130.97,623.15c-.45,0-.86-.11-1.24-.33-.38-.22-.68-.52-.9-.9-.22-.38-.33-.79-.33-1.22s.11-.86,.33-1.24c.22-.38,.52-.68,.9-.9,.38-.22,.79-.33,1.24-.33s.86,.11,1.24,.33c.38,.22,.68,.52,.9,.9,.22,.38,.33,.79,.33,1.24s-.11,.85-.33,1.22c-.22,.38-.52,.68-.9,.9-.38,.22-.79,.33-1.24,.33Z"/>
        <path class="cls-4" d="M145.37,620.24c1.32-.78,2.31-1.61,2.97-2.5,.66-.89,.98-1.89,.98-3v-.99h1.12v.99c0,1.32-.37,2.51-1.1,3.55-.74,1.04-1.87,2.01-3.39,2.88l-.58-.93Zm5.86,7.89c-.69,0-1.3-.13-1.82-.38-.52-.26-.92-.61-1.2-1.06-.28-.45-.42-.95-.42-1.52s.14-1.06,.42-1.51,.68-.81,1.2-1.07c.52-.26,1.13-.39,1.82-.39h2.99c.7,0,1.31,.13,1.83,.39,.52,.26,.91,.62,1.19,1.07s.42,.96,.42,1.51-.14,1.07-.42,1.52c-.28,.45-.67,.8-1.19,1.06-.52,.26-1.13,.38-1.83,.38h-2.99Zm2.77-1.02c.82,0,1.45-.18,1.87-.54,.43-.36,.64-.83,.64-1.42s-.22-1.03-.65-1.39c-.43-.36-1.05-.54-1.86-.54h-2.54c-.81,0-1.43,.18-1.86,.54-.43,.36-.65,.83-.65,1.39s.21,1.06,.64,1.42c.43,.36,1.05,.54,1.87,.54h2.54Zm-.24-6.24l-4.66-3.23,.67-.85,4.61,3.17-.62,.91Zm2.38,.43v-8.06h1.15v8.06h-1.15Zm.67-3.73v-1.04h2.93v1.04h-2.93Z"/>
        <path class="cls-4" d="M161.42,625.52v-11.12h5.44v1.06h-4.29v9.02h.78c1.46,0,2.92-.11,4.38-.34l.13,1.02c-.73,.13-1.46,.22-2.21,.27-.75,.05-1.57,.08-2.48,.08h-1.76Zm7.55,2.19v-14.26h1.1v14.26h-1.1Zm.48-7.66v-1.06h3.39v1.06h-3.39Zm2.91,7.94v-14.77h1.12v14.77h-1.12Z"/>
        <path class="cls-4" d="M175.82,625.23c1.07-1.34,1.85-2.66,2.36-3.95,.51-1.29,.76-2.71,.76-4.27v-.56h1.1v.56c0,1.65-.27,3.19-.82,4.62s-1.4,2.86-2.56,4.31l-.85-.7Zm.45-8.45v-1.04h6.51v1.04h-6.51Zm6.06,8.98l-3.65-5.36,.82-.75,3.74,5.44-.91,.67Zm-3.39-9.62v-2.91h1.12v2.91h-1.12Zm2.78,4.05v-1.04h3.04v1.04h-3.04Zm2.61,7.52v-14.26h1.1v14.26h-1.1Zm3.18,.27v-14.77h1.12v14.77h-1.12Z"/>
        <path class="cls-4" d="M190.99,625.23c1.06-1.39,1.84-2.76,2.36-4.13,.52-1.37,.78-2.9,.78-4.61v-1.44h1.09v1.44c0,1.77-.27,3.41-.82,4.91-.55,1.5-1.39,3.01-2.52,4.53l-.88-.7Zm.51-9.71v-1.04h6.38v1.04h-6.38Zm5.98,10.24l-3.7-5.54,.88-.7,3.73,5.58-.91,.66Zm-.59-5.87v-1.04h3.04v1.04h-3.04Zm2.61,7.82v-14.26h1.1v14.26h-1.1Zm3.18,.27v-14.77h1.12v14.77h-1.12Z"/>
        <path class="cls-4" d="M210.81,621.78c-.73,0-1.38-.14-1.96-.43-.58-.29-1.04-.72-1.38-1.3-.34-.58-.51-1.29-.51-2.13v-.34c0-.84,.17-1.56,.51-2.14,.34-.59,.8-1.02,1.38-1.31,.58-.29,1.23-.43,1.96-.43s1.36,.14,1.94,.43,1.04,.73,1.38,1.31c.34,.59,.5,1.3,.5,2.14v.34c0,.84-.17,1.55-.5,2.13-.34,.58-.79,1.01-1.38,1.3s-1.23,.43-1.94,.43Zm0-1.02c.8,0,1.45-.25,1.94-.74,.5-.49,.74-1.19,.74-2.11v-.32c0-.92-.25-1.62-.74-2.12-.5-.5-1.14-.74-1.94-.74s-1.45,.25-1.95,.74-.75,1.2-.75,2.12v.32c0,.92,.25,1.62,.74,2.11,.5,.49,1.15,.74,1.96,.74Zm-1.5,7.23v-4.72h1.15v3.66h9.04v1.06h-10.19Zm8.35-3.55v-11.22h1.15v11.22h-1.15Z"/>
        <path class="cls-4" d="M221.69,620.47c1.33-.79,2.33-1.59,2.98-2.41,.65-.82,.98-1.75,.98-2.79v-.75h1.12v.75c0,1.25-.37,2.36-1.1,3.34-.74,.98-1.87,1.9-3.41,2.78l-.56-.91Zm.59-5.42v-1.02h7.87v1.02h-7.87Zm5.33,13.09c-.7,0-1.32-.13-1.84-.38-.52-.26-.92-.61-1.2-1.06-.28-.45-.42-.95-.42-1.52s.14-1.06,.42-1.51,.68-.81,1.2-1.07c.52-.26,1.14-.39,1.84-.39h3.1c.7,0,1.32,.13,1.84,.39,.52,.26,.92,.62,1.2,1.07s.42,.96,.42,1.51-.14,1.07-.42,1.52c-.28,.45-.68,.8-1.2,1.06-.52,.26-1.14,.38-1.84,.38h-3.1Zm2.88-1.02c.82,0,1.45-.18,1.88-.54,.43-.36,.65-.83,.65-1.42s-.22-1.03-.65-1.39c-.43-.36-1.06-.54-1.88-.54h-2.66c-.82,0-1.45,.18-1.89,.54-.44,.36-.66,.83-.66,1.39s.22,1.06,.66,1.42c.44,.36,1.07,.54,1.89,.54h2.66Zm-.35-5.95l-4.75-3.31,.62-.85,4.72,3.22-.59,.94Zm-.51-3.55v-1.01h3.79v1.01h-3.79Zm3.18,3.7v-8.06h1.14v8.06h-1.14Z"/>
        <path class="cls-4" d="M240.61,615.68v-.96h6.99v.96h-6.99Zm3.52,5.94c-.89,0-1.59-.21-2.13-.63-.53-.42-.8-1.02-.8-1.78v-.22c0-.76,.27-1.35,.8-1.77,.53-.42,1.24-.63,2.13-.63s1.58,.21,2.1,.63c.53,.42,.79,1.01,.79,1.77v.22c0,.77-.26,1.36-.79,1.78-.53,.42-1.23,.63-2.1,.63Zm0-.98c.54,0,.98-.13,1.32-.4s.5-.62,.5-1.07v-.14c0-.44-.17-.79-.5-1.06s-.78-.41-1.32-.41-1,.14-1.34,.41c-.34,.27-.51,.63-.51,1.06v.14c0,.45,.17,.81,.5,1.07,.34,.27,.79,.4,1.35,.4Zm2.61,7.49c-.73,0-1.35-.11-1.87-.34-.52-.23-.92-.55-1.2-.97s-.42-.89-.42-1.42,.14-.99,.42-1.41,.68-.74,1.21-.98c.53-.23,1.15-.35,1.86-.35h3.22c.71,0,1.33,.12,1.86,.35,.52,.24,.92,.56,1.2,.98,.28,.42,.42,.88,.42,1.41s-.14,1.01-.42,1.42c-.28,.42-.68,.74-1.2,.97-.52,.23-1.14,.34-1.86,.34h-3.22Zm-3.22-12.9v-2.21h1.15v2.21h-1.15Zm6.19,11.87c.84,0,1.48-.15,1.91-.46s.65-.73,.65-1.25-.22-.92-.65-1.23-1.07-.46-1.91-.46h-2.75c-.83,0-1.47,.15-1.9,.46-.44,.31-.66,.72-.66,1.23s.22,.94,.65,1.25c.43,.31,1.07,.46,1.91,.46h2.75Zm-.93-5.49v-8.24h1.09v8.24h-1.09Zm.51-3.58v-1.04h3.28v1.04h-3.28Zm2.82,3.74v-8.56h1.1v8.56h-1.1Z"/>
        <path class="cls-4" d="M255.9,623.59l-.06-1.06h2.69c.95,0,2.09-.04,3.42-.13,1.33-.09,2.56-.2,3.69-.34l.13,1.02c-1.1,.15-2.31,.27-3.65,.36s-2.55,.14-3.65,.14h-2.56Zm4.66-2.94c-.74,0-1.39-.12-1.98-.37-.58-.25-1.04-.61-1.38-1.1-.34-.49-.51-1.08-.51-1.78v-.27c0-.7,.17-1.3,.51-1.79,.34-.49,.8-.86,1.38-1.1,.58-.25,1.24-.37,1.98-.37s1.38,.12,1.96,.37c.58,.25,1.04,.61,1.38,1.1s.51,1.09,.51,1.79v.27c0,.7-.17,1.3-.51,1.78s-.8,.85-1.38,1.1c-.58,.25-1.23,.37-1.96,.37Zm0-1.01c.81,0,1.46-.2,1.96-.59s.74-.95,.74-1.66v-.24c0-.71-.25-1.27-.74-1.66-.5-.39-1.15-.59-1.96-.59s-1.47,.2-1.97,.59c-.5,.4-.75,.95-.75,1.66v.24c0,.71,.25,1.27,.75,1.66s1.16,.59,1.97,.59Zm-1.02,8.35v-.06s0-.03,.02-.04c.1-.9,.19-1.8,.28-2.7,.09-.91,.15-1.72,.18-2.45h1.15c-.07,1.31-.25,3.1-.51,5.38l-1.12-.13Zm7.5,0v-14.75h1.14v14.75h-1.14Z"/>
        <path class="cls-4" d="M127.65,666.79v-1.04h13.82v1.04h-13.82Zm.83-5.55c1.9-.9,3.3-1.83,4.22-2.82,.91-.98,1.37-2.04,1.37-3.18v-1.17h1.14v1.17c0,1.34-.5,2.6-1.5,3.76-1,1.16-2.56,2.24-4.7,3.23l-.53-.99Zm11.52,.99l-6.18-4.22,.51-.98,6.3,4.26-.64,.94Zm-6,4.32v-4.74h1.14v4.74h-1.14Z"/>
        <path class="cls-4" d="M143.18,665.28c1.44-1.28,2.57-2.75,3.39-4.4,.82-1.65,1.23-3.33,1.23-5.04v-.77l.42,.45h-4.77v-1.04h5.49v1.14c0,2.02-.43,3.91-1.3,5.67-.87,1.77-2.08,3.37-3.64,4.82l-.82-.83Zm5.23-2.62v-1.02h3.2v1.02h-3.2Zm.08-4.62v-1.04h3.12v1.04h-3.12Zm2.69,9.68v-14.26h1.1v14.26h-1.1Zm3.18,.27v-14.77h1.12v14.77h-1.12Z"/>
      </g>
      <text class="cls-3" transform="translate(526.63 23.99)"><tspan class="cls-1"><tspan x="0" y="0">배점</tspan></tspan><tspan class="cls-7"><tspan x="3.95" y="40">30</tspan></tspan><tspan class="cls-7"><tspan x="3.95" y="80">30</tspan></tspan><tspan class="cls-7"><tspan x="3.95" y="120">30</tspan></tspan><tspan class="cls-7"><tspan x="3.94" y="160">90</tspan></tspan><tspan class="cls-7"><tspan x="4.08" y="200">20</tspan></tspan><tspan class="cls-7"><tspan x="4.08" y="240">20</tspan></tspan><tspan class="cls-7"><tspan x="4.08" y="280">20</tspan></tspan><tspan class="cls-7"><tspan x="4.08" y="320">20</tspan></tspan><tspan class="cls-7"><tspan x="5.8" y="360">10</tspan></tspan><tspan class="cls-7"><tspan x="4.08" y="400">20</tspan></tspan><tspan class="cls-7"><tspan x="5.8" y="440">10</tspan></tspan><tspan class="cls-7"><tspan x="5.8" y="480">10</tspan></tspan><tspan class="cls-7"><tspan x="5.8" y="520">10</tspan></tspan><tspan class="cls-7"><tspan x="5.8" y="560">10</tspan></tspan><tspan class="cls-7"><tspan x="5.8" y="600">10</tspan></tspan><tspan class="cls-7"><tspan x=".27" y="640">160</tspan></tspan><tspan class="cls-7"><tspan x="-1.31" y="680">250</tspan></tspan></text>
      <text class="cls-2" transform="translate(283.63 23.99)"><tspan x="0" y="0">지표</tspan></text>
      <line class="cls-5" y1="199.23" x2="578.42" y2="199.23"/>
      <line class="cls-5" y1="679.23" x2="578.42" y2="679.23"/>
      <line class="cls-5" y1="39.08" x2="578.42" y2="39.08"/>
      <line class="cls-6" x1="499.53" x2="499.53" y2="705"/>
      <line class="cls-5" x1="95.89" x2="95.89" y2="714.86"/>
    </g>
  </g>
</svg>